<?xml version="1.0" encoding="utf-8"?>
<!-- Generator: Adobe Illustrator 26.0.1, SVG Export Plug-In . SVG Version: 6.00 Build 0)  -->
<svg version="1.2" baseProfile="tiny" id="레이어_1"
	 xmlns="http://www.w3.org/2000/svg" xmlns:xlink="http://www.w3.org/1999/xlink" x="0px" y="0px" viewBox="0 0 1811.6 601.4"
	 overflow="visible" xml:space="preserve">
<g>
	<path fill="#E1745F" d="M679.1,480.5c-10.1-4.5-15.2-22-19.2-31.6c-9-21.4-9.6-45.1-9.6-67.7c0-50.2,15.8-106,47.4-145.5
		c47.4-58.6,133.1-93.6,133.6-178.7c6.8,14.7,2.8,32.1,5.6,47.4c3.4,18.6,11.3,32.7,28.2,41.7c36.1,19.2,21.4-46.2,35-62.6v-1.1
		c-4.5,32.7,40,69.4,67.1,81.8c34.4,16.3,76.7,22,97,58.1c6.2,11.3,10.1,37.8,20.9,44c1.1-17.5,1.1-22.5,18-31
		c-22,32.1,18.1,70.5,33.8,95.8c10.2,16.4,22.6,36.7,17.5,57c-5.1,20.9-22,31-31.6,48.5c-5.6,10.7-3.9,18.6-1.1,29.9
		c2.3,10.1,1.7,19.7,0.6,29.9L679.1,480.5z"/>
	<path fill="#992C29" d="M681.2,478.9c-9-4.9-12.7-15.6-16.2-24.6c-4.1-10.8-7.7-21.2-9.6-32.7c-4-23.9-3.1-49.6-0.1-73.6
		c5.8-45.8,24.1-90.1,55.7-124c47.6-51,121.7-88.4,123.1-167.2c-1.9,0.3-3.7,0.6-5.6,0.9c5.5,13.4,3.4,27.2,4.8,41.2
		c1.2,11.1,4.2,21.6,10.1,31.1c6.4,10.4,24.7,26.7,38.3,20.5c10.8-4.9,11.9-20,13.1-30.2c0.9-7.4,1.4-14.8,2.6-22.1
		c0.6-3.6,1.5-7.1,2.9-10.4c0.9-2.1,2.5-3.4,2.5-5.6c0-3-5.3-2.1-5.6,0.4c-2.3,22.1,13.1,41.2,28,55.6c17.2,16.6,37.6,27.5,59.6,36
		c24.7,9.5,51,17.5,68.9,38.1c8,9.1,11.3,19.9,15.1,31.1c2.8,8.6,6.1,19.1,14,24.4c1.5,1,4.8,0.3,4.9-1.8c0.4-5.7,0.4-11.5,2.3-17
		c2.2-6.2,8.8-9.4,14.2-12.2c-1.3-0.7-2.6-1.3-3.9-2c-11.4,17.9-5.5,37.1,4.2,54.3c11.2,19.9,26.7,36.8,37.9,56.8
		c8.2,14.6,13.1,30.7,7.6,47.1c-3.9,11.5-12.9,20.4-20.5,29.5c-7,8.4-12.9,17.5-13.3,28.8c-0.2,6.4,2.1,12.8,3.3,19.1
		c1.6,8.5,0.8,17.4-0.1,26c1.2-0.7,2.5-1.5,3.7-2.3c-89.9-3.2-179.9-6.4-269.8-9.6c-57.8-2.1-115.6-4.1-173.4-6.2
		c-2.7-0.1-5.6,4-1.9,4.1c89.9,3.2,179.9,6.4,269.8,9.6c57.8,2.1,115.6,4.1,173.4,6.2c1.4,0,3.6-0.5,3.7-2.3
		c1.4-12.9,0.7-24.2-2.1-36.8c-3.6-15.9,4.9-27.4,14.6-38.9c15.8-18.7,25.5-36.7,17.1-61.5c-7.4-21.8-23.4-40.1-36.4-58.7
		c-13.2-18.8-26.5-42.6-12.5-64.6c1.4-2.3-2.7-2.6-3.9-2c-5.7,2.9-12.4,6.3-15.6,12.2c-3.5,6.3-3.5,13.7-4,20.7
		c1.6-0.6,3.3-1.2,4.9-1.8c-8.5-5.7-11.2-18.1-14.2-27.3c-3.4-10.3-7.1-19-14-27.5c-14.6-18-37.4-26.9-58.4-34.8
		c-21.9-8.2-42.5-16.7-61-31.4c-18-14.2-39.3-36.5-36.7-61.5c-1.9,0.1-3.7,0.3-5.6,0.4c0,2.7-3.2,6.8-4,9.6
		c-1.5,5.3-2.1,10.9-2.8,16.4c-1.2,11.2-0.7,25.6-7.3,35.4c-9.7,14.4-33-12.9-37.3-20.7c-11.5-21-3.1-45.5-11.9-67
		c-0.9-2.2-5.5-1.5-5.6,0.9c-1.4,82.8-84.7,119.8-131.6,175.9c-28.9,34.5-43.7,80.2-48.2,124.4c-2.4,23.8-2.1,48.9,2.4,72.4
		c2.2,11.3,6.8,22.2,11.2,32.8c3.1,7.6,7.2,15.4,14.7,19.4C679.2,483.3,684,480.4,681.2,478.9"/>
	<path fill="#E79053" d="M755.7,483.7c0,0-11.3-8.4-14.1-11.3c-12.4-13.5-22.6-31.6-29.3-48.5c-13.5-32.7-25.9-70.5-15.8-105.4
		c8.5-29.3,25.4-55.3,39.5-82.3c-11.8,11.8,11.8,14.7,19.7,11.3c13-6.2,20.3-25.9,27.6-37.2c15.2-22.6,23.1-45.7,34.4-70.5
		c7.3,23.7,31,40.6,54.7,44c9.6,1.1,26.5,0,31.6-9.6c3.4-6.2,2.8-20.3,2.8-27.1c2.8,15.8,24.8,24.8,37.8,32.1
		c14.1,7.3,29.3,11.8,44,17.5c30.4,11.8,58.1,42.9,71.6,72.2c7.9,16.4,13.5,35.5,14.1,53.6c0.6,19.7-15.8,32.1-9.6,51.9
		c2.3-14.1,31.6-28.2,43.4-34.4c-5.6,14.1,2.3,31,4.5,45.1c3.4,18.6-6.8,28.8-16.3,43.4c-4.5,6.8-9.6,16.4-9,24.3
		c0.6,6.8,5.1,10.7,7.9,15.8c5.6,14.1,4,31-12.4,32.1c-23.7,1.7-47.9-2.3-71.6-3.4c-38.3-1.7-76.7-3.9-115-6.2L755.7,483.7z"/>
	<path fill="#992C29" d="M758.3,482.7c-13.8-10.4-23.5-21.7-32.3-36.8c-12.1-20.7-20.5-44.7-26.2-67.9c-6.4-26.1-4.7-50.9,5-75.9
		c9-23.2,22.4-44.4,34-66.4c0.7-1.4-4.6-0.3-5.3,0.5c-7.7,8.6,0.7,12.7,9.3,13.7c10.1,1.1,17.9-2.6,24.7-9.9
		c4.8-5.1,8.2-11.6,11.5-17.7c4.6-8.3,9.7-16.2,14.5-24.3c10.8-18.6,18.2-39.1,27.1-58.7c-1.8,0.4-3.7,0.8-5.5,1.2
		c8.3,24.7,33.8,44.2,60.2,44.9c9.9,0.2,20.8-1.1,28.5-7.8c8-6.8,5.9-22,5.8-31.3l-5.5,1.5c4.6,19.4,31.1,29.6,47.5,36.9
		c13.1,5.8,26.9,9.5,40,15.3c13.5,6,25.2,15.7,35.5,26c20.4,20.3,34.5,46.6,41.4,74.4c3.6,14.6,4.1,28.4-1.4,42.5
		c-4.3,10.8-8.2,20.3-5.1,32c0.4,1.6,5.2,0.1,5.5-1.2c3.9-16.9,28.5-26.2,42.3-33.4c-1.5,0-2.9-0.1-4.4-0.1
		c-3.8,11.3-1,22.4,1.8,33.6c3.5,13.8,4.6,25.4-2.5,38.1c-5.7,10.3-13.6,18.9-18.1,29.8c-1.9,4.6-2.4,9.3-1.6,14.2
		c1,5.7,6.3,10,8.3,15.3c1.8,4.9,2.4,10.2,1.9,15.3c-0.9,9.7-9,12.5-18.3,12.8c-16.5,0.6-33.2-1.4-49.6-2.8
		c-30.6-2.5-61.5-3.2-92.2-5c-54.8-3.1-109.5-5.9-164.3-8.8c-4.4-0.2-8.8-0.5-13.2-0.7c-1.4-0.1-6.4,2.4-3.5,2.6
		c45.5,2.4,91,4.8,136.5,7.1c49.1,2.6,98.5,4.4,147.5,8.6c13.3,1.2,26.7,2,40,1.5c7.1-0.3,13.5-1.6,18.6-6.8
		c5.1-5.3,4.6-14.2,3.4-20.8c-0.8-4.3-2.6-7.7-5-11.2c-5.1-7.5-5.9-13.5-3-22.2c5.5-16.3,20.4-27.3,23.7-44.6
		c3.6-19.4-11.4-37.3-4.8-57c0.6-1.7-3.9-0.4-4.4-0.1c-14.4,7.5-40.4,17.6-44.5,35.4c1.8-0.4,3.7-0.8,5.5-1.2
		c-3.3-12.4,1.5-22.4,5.9-33.7c4.9-12.5,3.8-24.6,1.3-37.5c-5.1-26.5-18.8-51.1-36.2-71.4c-18.5-21.6-40.5-32.8-66.7-42.3
		c-13.5-4.9-26.2-11.1-38.8-18c-9.9-5.5-20.6-12.5-23.4-24.2c-0.4-1.6-5.5-0.1-5.5,1.5c0,8.4,0.5,16.9-2,25
		c-4,12.9-25.2,10.5-35.2,8.1c-21.1-5.2-39.3-21.3-46.3-41.9c-0.6-1.7-5,0-5.5,1.2c-5.6,12.5-10.8,25.2-16.4,37.6
		c-5.8,12.9-13.1,24.6-20.3,36.7c-5.6,9.5-10,19.4-17.6,27.5c-5.3,5.7-12.1,6.3-19.2,4.6c-6.3-1.5-7.1-5.9-3-10.5
		c-1.8,0.2-3.5,0.3-5.3,0.5c-11.6,22-24.6,43.3-34,66.4c-9.8,24.1-11.1,47.9-5.8,73.2c5.1,24.5,14.9,49.4,27,71.2
		c8.5,15.2,18.9,26.9,32.7,37.3C754.5,485.7,759.5,483.5,758.3,482.7"/>
	<polygon fill="#F8C158" points="1013.8,468.7 1013.8,494 1073.8,494 1073.8,467.3 	"/>
	<path fill="#221F20" d="M1075.9,496.1h-64.2v-29.5l64.2-1.5V496.1z M1015.9,491.9h55.8v-22.4l-55.8,1.3V491.9z"/>
	<path fill="#004892" d="M977.6,235.5c0,0-2.8-53-72.7-56.1c0,0-58.1,0.1-70.7-7c0,0-22-12.8-19.2-31.5c0,0-41.3,20.6-36.3,74.6
		c0,0-44.7,18-49.2,62.2c0,0-10.2,43,19.7,74.3c0,0,0.6,3.6-5.1,2.4c0,0-18.6-5-19.9-12c0,0-16.6,46.1,32.6,83.7
		c0,0,49.6,29.4,126.2-0.5c0,0,64,41.5,119.6,23c0,0,53.6-17.1,34-75.6c0,0-5.9-15-15.5-21c0,0,41.3-23.1,31.1-69.4
		C1052.2,282.6,1029.4,213.1,977.6,235.5"/>
	<path fill="#221F20" d="M971.8,455.5L971.8,455.5c-42.4,0-82.5-23.5-89-27.5c-22.7,8.7-45.3,13.2-67.1,13.2
		c-37.2,0-59-12.7-59.9-13.2c-50.1-38.3-33.7-85.8-33.5-86.3c0.3-0.9,1.2-1.4,2.2-1.4c1,0.1,1.7,0.8,1.9,1.7
		c0.8,4,11.2,8.5,18.4,10.4c0.8,0.2,1.7,0.2,2.1,0.2c-29.2-31.7-19.4-74.9-19.3-75.3c4-40.1,41.2-59.4,49-63
		c-4.2-53.7,37.2-74.9,37.6-75.1c0.7-0.4,1.6-0.3,2.2,0.2c0.6,0.5,1,1.3,0.8,2c-2.6,17,17.9,29.2,18.1,29.3
		c9.5,5.3,49.7,6.7,69.6,6.7c61.6,2.7,72.6,43.9,74.5,55.2c6.2-2.3,12.3-3.5,18.1-3.5c38.9,0,56,50.8,56.7,53
		c8.9,40.4-20.1,63.9-29.3,70.2c8.4,7,13.4,19.6,13.7,20.2c6.3,18.8,5.9,35.4-1.2,49.3c-10.8,21.4-33.2,28.8-34.2,29.1
		C993.5,453.8,983,455.5,971.8,455.5z M882.9,423.5c0.4,0,0.8,0.1,1.1,0.3c0.4,0.3,42.9,27.4,87.7,27.4l0,0
		c10.7,0,20.9-1.6,30.1-4.6c0.2-0.1,21.7-7.2,31.7-27c6.5-12.9,6.8-28.3,1-45.9c0,0-5.7-14.4-14.6-19.9c-0.6-0.4-1-1.1-1-1.9
		c0-0.7,0.4-1.4,1.1-1.8c1.6-0.9,39.8-22.9,30-67.1c-0.1-0.3-16.8-49.9-52.6-49.9c-6.1,0-12.5,1.4-19.1,4.3c-0.6,0.3-1.4,0.2-2-0.2
		c-0.6-0.4-1-1-1-1.7c-0.1-2.1-3.6-51.1-70.7-54.1c0,0-0.1,0-0.1,0c-6.4,0-59-0.2-71.6-7.3c-0.9-0.5-20.2-12-20.5-29.5
		c-9.6,6.1-35.9,27-31.8,70.5c0.1,0.9-0.5,1.8-1.3,2.2c-0.4,0.2-43.6,18.1-47.9,60.4c-0.1,0.7-9.6,42.6,19.1,72.7
		c0.3,0.3,0.5,0.7,0.6,1.1c0,0.3,0.2,2-1,3.5c-0.9,1-3,2.1-6.6,1.3c-2.7-0.7-13.4-3.8-18.7-8.9c-2.7,12.2-6,47,33.1,76.9l0,0
		c0,0,21.6,12.5,57.5,12.5c21.6,0,44-4.5,66.6-13.3C882.4,423.5,882.7,423.5,882.9,423.5z"/>
	<path fill="#1D4B82" d="M791.4,491.8c0,0-6.5-75.1,100.2-63.7c0,0,59.5,0,49.1,59.6L791.4,491.8z"/>
	<path fill="#221F20" d="M789.5,493.9l-0.2-2c-0.1-1-1.9-24.9,15.7-44.2c17.2-18.7,46.6-26.1,86.9-21.8c0.8-0.1,27.1,0.2,42.1,18.1
		c9.1,10.8,12,25.6,8.8,44l-0.3,1.7L789.5,493.9z M870.6,429c-28.3,0-49.4,7.3-62.5,21.6c-13.6,14.8-14.7,33-14.7,38.9l145.4-4
		c2.5-16.3-0.2-29.4-8.1-38.8c-13.8-16.4-38.9-16.6-39.1-16.6C884.1,429.4,877.1,429,870.6,429z"/>
	<path fill="#F8C158" d="M929.8,439c-1,13.8-19.4,23.8-41.2,22.2c-21.8-1.5-38.6-14-37.6-27.8c1-13.8,19.4-23.8,41.2-22.2
		C913.9,412.8,930.8,425.2,929.8,439"/>
	<path fill="#221F20" d="M893.1,463.5c-1.5,0-3-0.1-4.6-0.2c-22.9-1.6-40.7-15.1-39.6-30c1.1-14.9,20.2-25.8,43.4-24.2
		c10.9,0.8,21,4.2,28.5,9.7c7.7,5.7,11.7,12.9,11.1,20.4C931,453.1,914.3,463.5,893.1,463.5z M887.8,413.2c-18.6,0-33.9,9-34.7,20.4
		c-0.9,12.6,15.1,24.1,35.7,25.5c20.5,1.5,38-8,38.9-20.3c0.4-5.9-2.9-11.8-9.4-16.6c-6.8-5-16.1-8.2-26.2-8.9
		C890.6,413.2,889.2,413.2,887.8,413.2z"/>
	<path fill="#F8C158" d="M834.6,258.2c0,0-27.3,19.5-40.6,33.8c0,0-11.2-11.2-7.4-24.6c0,0,10.7-22.3,33-19.6
		C819.5,247.8,827.8,248.1,834.6,258.2"/>
	<path fill="#221F20" d="M794,294c-0.6,0-1.1-0.2-1.5-0.6c-0.5-0.5-12-12.3-8-26.6c0-0.1,0.1-0.2,0.1-0.3c0.4-0.9,10.3-21,31.1-21
		c1.3,0,2.7,0.1,4,0.3l0,0c0.2,0,9.3,0.5,16.6,11.2c0.6,1,0.4,2.3-0.5,2.9c-0.3,0.2-27.3,19.5-40.3,33.5
		C795.1,293.8,794.6,294,794,294C794,294,794,294,794,294z M788.5,268.1c-2.4,9.1,2.9,17.2,5.5,20.6c11.8-12.1,31.6-26.7,37.6-31.1
		c-5.7-7.3-12-7.7-12.2-7.7c-1.4-0.2-2.5-0.2-3.7-0.2C798.4,249.7,789.4,266.4,788.5,268.1z"/>
	<path fill="#221F20" d="M822.2,268.2c-0.3,0-0.7-0.1-1-0.2c-0.1-0.1-11.9-6.2-23.3-0.8c-1.1,0.5-2.3,0-2.8-1c-0.5-1.1,0-2.3,1-2.8
		c13.4-6.3,26.6,0.6,27.2,0.9c1,0.6,1.4,1.8,0.9,2.9C823.7,267.8,822.9,268.2,822.2,268.2z"/>
	<path fill="#F8C158" d="M971.8,276c0,0,23.3,18.6,34.4,32c0,0,10.5-9.4,7.8-21.4c0,0-8.3-20.3-28.3-19
		C985.7,267.6,978.3,267.4,971.8,276"/>
	<path fill="#221F20" d="M1006.2,310.1c0,0-0.1,0-0.2,0c-0.6,0-1.1-0.3-1.5-0.8c-10.8-13-33.8-31.5-34.1-31.7
		c-0.9-0.7-1.1-2-0.4-2.9c6.8-9,14.7-9.2,15.6-9.2c0.6,0,1.2-0.1,1.9-0.1c19.8,0,28,19.5,28.4,20.4c0,0.1,0.1,0.2,0.1,0.3
		c2.9,13-8,23-8.5,23.4C1007.2,309.9,1006.7,310.1,1006.2,310.1z M974.8,275.7c5.3,4.3,21.7,18,31.5,29.1c2.6-3,7.3-9.7,5.7-17.6
		c-0.9-2-8.7-18.7-26.1-17.5C985.5,269.7,980.1,269.8,974.8,275.7z"/>
	<path fill="#221F20" d="M1004.9,286.3c-0.3,0-0.7-0.1-1-0.3c-9.8-5.3-20.4-0.5-20.5-0.4c-1.1,0.5-2.3,0-2.8-1c-0.5-1.1,0-2.3,1-2.8
		c0.5-0.2,12.6-5.8,24.3,0.6c1,0.6,1.4,1.8,0.9,2.9C1006.3,285.9,1005.6,286.3,1004.9,286.3z"/>
	<polyline fill="#FFFFFF" points="1214,531.2 1170.2,487.3 633.1,487.3 597.6,529.6 	"/>
	<path fill="#221F20" d="M1214,533.3c-0.5,0-1.1-0.2-1.5-0.6l-43.2-43.3H634.1L599.2,531c-0.8,0.9-2.1,1-3,0.3c-0.9-0.8-1-2.1-0.2-3
		l35.5-42.3c0.4-0.5,1-0.8,1.6-0.8h537.1c0.6,0,1.1,0.2,1.5,0.6l43.9,43.9c0.8,0.8,0.8,2.2,0,3
		C1215.1,533.1,1214.6,533.3,1214,533.3z"/>
	<path fill="#FFFFFF" d="M1016.7,489.7c0,0,10.7,26.9,10.4,31.4h78.9l-25.1-31.5L1016.7,489.7z"/>
	<path fill="#010101" d="M1106,523.2h-78.9c-0.6,0-1.2-0.2-1.6-0.7c-0.4-0.4-0.6-1-0.5-1.6c0.2-2.5-5-17.4-10.2-30.4
		c-0.3-0.7-0.2-1.4,0.2-2c0.4-0.6,1-0.9,1.7-0.9l64.2-0.1c0.5,0.1,1.3,0.3,1.6,0.8l25.1,31.5c0.5,0.6,0.6,1.5,0.3,2.2
		C1107.6,522.8,1106.8,523.2,1106,523.2z M1029,519h72.6l-21.7-27.2l-60.1,0.1C1022.5,498.5,1027.8,512.7,1029,519z"/>
	<path fill="#8DBA30" d="M1015.4,468.6c0,0-22.1-11.5-41.7,17.1C973.7,485.7,1006.8,499.1,1015.4,468.6"/>
	<path fill="#221F20" d="M989.5,490.8L989.5,490.8c-8.9,0-16.3-2.9-16.6-3.1l-2.4-1l1.5-2.2c11.5-16.8,24-20.4,32.5-20.4
		c7,0,11.8,2.4,12,2.5l1.5,0.8l-0.5,1.7C1012.4,487,999.5,490.8,989.5,490.8z M977.1,484.6c2.7,0.8,7.3,1.9,12.4,1.9
		c11.7,0,19.6-5.6,23.3-16.7c-1.7-0.6-4.7-1.4-8.4-1.4C997.3,468.4,987,471.3,977.1,484.6z"/>
	<path fill="#F9C84F" d="M1012.3,460.3c0,0-13.1-40.7,52.8-61.9c0,0-2.2,13.9,7.7,25.2c0,0,24,30.3-5.9,52.8L1012.3,460.3z"/>
	<path fill="#221F20" d="M1066.8,478.6c-0.2,0-0.4,0-0.6-0.1l-54.6-16.1c-0.7-0.2-1.2-0.7-1.4-1.4c-0.2-0.5-4.2-13.4,3.7-28.7
		c8-15.5,25-27.6,50.5-35.8c0.7-0.2,1.5-0.1,2,0.4c0.6,0.5,0.8,1.2,0.7,1.9c0,0.1-1.9,13.1,7.2,23.5c0.5,0.7,11.5,14.8,9.3,31.3
		c-1.2,9.4-6.5,17.7-15.6,24.6C1067.7,478.4,1067.3,478.6,1066.8,478.6z M1014,458.7l52.4,15.5c7.6-6,12.1-13.1,13.1-21.1
		c1.9-14.8-8.3-28-8.4-28.1c-7.5-8.5-8.4-18.4-8.3-23.5c-22.8,7.8-37.9,18.8-45.1,32.7C1011.9,445.6,1013.3,455.5,1014,458.7z"/>
	<path fill="#8DBA30" d="M1010.7,464.3c0,0,6.5-24.7-34.1-24.5C976.7,439.8,981.2,470.2,1010.7,464.3"/>
	<path fill="#221F20" d="M1003.5,467.2L1003.5,467.2c-24.6,0-28.8-26.8-28.9-27.1l-0.4-2.4l3.1,0c15.6,0,26.4,3.7,32,10.9
		c5.8,7.5,3.6,15.9,3.5,16.3l-0.3,1.3l-1.3,0.3C1008.5,466.9,1005.9,467.2,1003.5,467.2z M979.3,441.9c1.6,6,7.1,21,24.2,21l0,0
		c1.7,0,3.6-0.2,5.4-0.5c0.3-2.2,0.3-7-3.1-11.3C1001.4,445.4,992.2,442.2,979.3,441.9z"/>
	<path fill="#8DBA30" d="M1079.5,467.7c0,0-6.7,3.4-27.8,1.6l-42-9c0,0-6.9,4.1,3,10.2l30,10.9c0,0,32.7,3.6,32.9,1.7
		c0.4-3.6,0,0-2.2-4.8C1073.3,478.4,1082.9,476.4,1079.5,467.7"/>
	<path fill="#221F20" d="M1071.8,485.8C1071.8,485.8,1071.7,485.8,1071.8,485.8c-8.7,0-28.6-2.2-29.4-2.3c-0.2,0-0.3-0.1-0.5-0.1
		l-30-10.9c-0.1,0-0.3-0.1-0.4-0.2c-4.2-2.6-6.4-5.4-6.3-8.3c0-3.4,3.1-5.3,3.4-5.5c0.5-0.3,1-0.3,1.5-0.2l42,9
		c3.8,0.3,7.7,0.5,11.1,0.5c11.2,0,15.3-1.9,15.3-1.9c0.5-0.2,1.2-0.3,1.7-0.1c0.5,0.2,1,0.6,1.2,1.2c1.2,3,1.2,5.8-0.1,8.2
		c-1.2,2.2-3.2,3.5-4.8,4.3c1.4,0.8,1.3,2.1,1,4C1077.3,485.8,1074.4,485.8,1071.8,485.8z M1043.1,479.4c2.4,0.3,20.8,2.2,28.7,2.2
		l0,0c0.4,0,0.7,0,0.9,0c-0.4-0.6-0.8-1.3-1.3-2.3c-0.3-0.6-0.3-1.3,0-1.8c0.3-0.6,0.8-1,1.4-1.1c1-0.2,3.8-1.2,4.8-3.2
		c0.4-0.8,0.5-1.6,0.4-2.6c-2.5,0.7-7.1,1.5-14.8,1.5c-3.6,0-7.5-0.2-11.8-0.6l-41.3-8.9c-0.4,0.3-0.8,0.9-0.8,1.5
		c0,0.6,0.4,2.2,4.2,4.6L1043.1,479.4z"/>
	<path fill="#221F20" d="M1054.9,451.2c-0.3,1.3,0.5,2.7,1.9,3c1.3,0.3,2.7-0.5,3-1.9c0.3-1.3-0.5-2.7-1.9-3
		C1056.6,449,1055.2,449.9,1054.9,451.2"/>
	<path fill="#221F20" d="M1057.3,456.3L1057.3,456.3c-0.3,0-0.7,0-1-0.1c-2.5-0.6-4-3-3.5-5.5c0.6-2.4,3-4,5.5-3.5
		c2.5,0.6,4,3,3.5,5.5C1061.3,454.9,1059.5,456.3,1057.3,456.3z"/>
	<path fill="#221F20" d="M1041.3,450.7c-0.3,1.3,0.5,2.6,1.9,3c1.3,0.3,2.7-0.5,3-1.9c0.3-1.3-0.5-2.6-1.9-3
		C1042.9,448.6,1041.6,449.4,1041.3,450.7"/>
	<path fill="#221F20" d="M1043.7,455.9L1043.7,455.9c-0.3,0-0.7,0-1-0.1c-2.5-0.6-4-3.1-3.5-5.5c0.6-2.4,3.1-4,5.5-3.4
		c1.2,0.3,2.2,1,2.9,2c0.7,1,0.9,2.3,0.6,3.5C1047.7,454.4,1045.8,455.9,1043.7,455.9z"/>
	<path fill="#F9C84F" d="M1010,471.8c0,0-28.6,21.5,1.7,26.4c0,0,18.3,1.1,35.3,4.5C1047,502.8,1020.4,471.4,1010,471.8"/>
	<path fill="#221F20" d="M1047,504.9c-0.1,0-0.3,0-0.4,0c-16.6-3.4-34.8-4.5-35-4.5c-9.3-1.5-14.5-4.6-15.6-9.4
		c-2.3-9.1,11.3-19.6,12.8-20.8c0.3-0.3,0.8-0.4,1.2-0.4l0,0c11.4,0,35.9,28.4,38.7,31.7c0.6,0.7,0.7,1.7,0.2,2.5
		C1048.5,504.5,1047.8,504.9,1047,504.9z M1012.1,496.2c0.1,0,14.4,0.9,29.3,3.4c-10-11.1-24.3-24.9-30.7-25.6
		c-3.7,3-11.9,10.8-10.7,15.9C1001,493.6,1007.1,495.4,1012.1,496.2L1012.1,496.2z"/>
	<path fill="#221F20" d="M1086.7,444.8c2.3,6.1-2.8,13.8-11.5,17.1c-8.7,3.3-17.6,1-20-5.2c-2.3-6.1,2.8-13.8,11.5-17.1
		C1075.4,436.3,1084.3,438.6,1086.7,444.8"/>
	<path fill="#221F20" d="M1067.3,465.5c-6.7,0-12.1-3.1-14-8c-2.7-7.2,3-16.1,12.7-19.9c2.8-1.1,5.8-1.6,8.7-1.6
		c6.7,0,12.1,3.1,14,8c1.4,3.6,0.7,7.7-1.8,11.5c-2.4,3.6-6.3,6.5-10.9,8.3C1073.1,465,1070.1,465.5,1067.3,465.5z M1074.7,440.2
		c-2.3,0-4.8,0.5-7.2,1.4c-7.4,2.8-12.1,9.4-10.3,14.4c1.2,3.3,5.1,5.3,10,5.3c2.3,0,4.8-0.5,7.2-1.4c3.8-1.4,6.9-3.8,8.9-6.7
		c1.8-2.6,2.3-5.4,1.4-7.7C1083.5,442.3,1079.6,440.2,1074.7,440.2z"/>
	<path fill="#221F20" d="M1019.6,442.3c-2.8,6,1.8,14,10.2,17.9c8.4,3.9,17.5,2.3,20.3-3.6c2.8-5.9-1.7-14-10.2-17.9
		C1031.5,434.7,1022.4,436.3,1019.6,442.3"/>
	<path fill="#221F20" d="M1039,464.5L1039,464.5c-3.4,0-6.9-0.8-10.2-2.4c-9.5-4.4-14.5-13.8-11.2-20.8c2.1-4.4,6.9-7,13-7
		c3.3,0,6.9,0.8,10.1,2.4c4.5,2.1,8.1,5.3,10.2,9.1c2.3,4,2.6,8.2,0.9,11.7C1049.9,461.9,1045.1,464.5,1039,464.5z M1030.7,438.6
		c-4.4,0-7.8,1.7-9.1,4.6c-2.3,4.8,1.9,11.7,9.1,15.1c2.7,1.3,5.6,2,8.3,2l0,0c4.4,0,7.8-1.7,9.1-4.6c1.1-2.3,0.8-5-0.8-7.8
		c-1.7-3-4.7-5.6-8.3-7.4C1036.3,439.3,1033.4,438.6,1030.7,438.6z"/>
	<path fill="#221F20" d="M1061.4,457C1061.4,457,1061.3,457,1061.4,457l-12.3-0.5c-1.2,0-2.1-1-2-2.2c0-1.2,1-2,2.2-2l12.2,0.5
		c1.2,0.1,2.1,1,2,2.2C1063.4,456.1,1062.5,457,1061.4,457z"/>
	<path fill="#FFFFFF" d="M1043.3,445c0,1.2-1.1,2.2-2.3,2.2c-1.3,0-2.2-1.1-2.2-2.3c0-1.3,1.1-2.2,2.3-2.2
		C1042.4,442.7,1043.3,443.7,1043.3,445"/>
	<path fill="#FFFFFF" d="M1079.4,446.3c0,1.3-1.1,2.2-2.3,2.2c-1.2-0.1-2.2-1.1-2.2-2.3c0-1.3,1.1-2.2,2.3-2.2
		C1078.5,444,1079.4,445.1,1079.4,446.3"/>
	<polygon fill="#F0CDA9" points="1071,497.7 1059.6,510.4 1062.6,493.8 1068.8,491.3 	"/>
	<path fill="#010101" d="M1059.6,511.5c-0.2,0-0.3,0-0.5-0.1c-0.4-0.2-0.7-0.7-0.6-1.2l3-16.7c0.1-0.4,0.3-0.7,0.7-0.8l6.3-2.4
		c0.3-0.1,0.6-0.1,0.9,0c0.3,0.1,0.5,0.4,0.6,0.6l2.2,6.4c0.1,0.4,0,0.8-0.2,1.1l-11.4,12.7C1060.2,511.4,1059.9,511.5,1059.6,511.5
		z M1063.5,494.6l-2.2,12.3l8.4-9.4l-1.6-4.7L1063.5,494.6z"/>
	<path fill="#446839" d="M1071,497.7l36.3-74.8l-8.4-4.1l-36.3,74.8c0,0,3-1.1,4.2,2.1C1066.9,495.7,1069.9,494.7,1071,497.7"/>
	<path fill="#010101" d="M1071,498.8C1071,498.8,1071,498.8,1071,498.8c-0.5,0-0.9-0.3-1-0.7c-0.4-1-1-1.4-2-1.4
		c-0.5,0-0.8,0.1-0.8,0.1c-0.6,0.2-1.2-0.1-1.4-0.6c-0.4-1.1-1-1.5-2-1.5c-0.5,0-0.8,0.1-0.8,0.1c-0.4,0.1-0.9,0-1.2-0.3
		c-0.3-0.3-0.4-0.8-0.2-1.2l36.3-74.8c0.1-0.3,0.3-0.5,0.6-0.6c0.3-0.1,0.6-0.1,0.8,0.1l8.4,4.1c0.5,0.3,0.8,0.9,0.5,1.5l-36.3,74.8
		C1071.8,498.5,1071.4,498.8,1071,498.8z M1068,494.4c1.1,0,2.1,0.4,2.8,1.1l34.9-72.1l-6.4-3.1l-34.9,72.1c1,0.1,2.2,0.6,3,2.1
		C1067.6,494.4,1067.8,494.4,1068,494.4z"/>
	<path fill="#010101" d="M1067,496.4c-0.2,0-0.3,0-0.5-0.1c-0.6-0.3-0.8-0.9-0.5-1.5l36.1-74.5c0.3-0.5,0.9-0.8,1.5-0.5
		c0.5,0.3,0.8,0.9,0.5,1.5l-36.1,74.5C1067.8,496.2,1067.4,496.4,1067,496.4z"/>
	<path fill="#E17E8F" d="M1109.5,417.9c-1,2.1-3.4,3-5.4,2l-1.1-0.5c-2-1-2.7-3.4-1.7-5.5c1-2.1,1.6-3.9,3.6-2.9l4.7,2.3
		C1111.5,414.3,1110.5,415.9,1109.5,417.9"/>
	<path fill="#010101" d="M1105.8,421.5c-0.7,0-1.4-0.2-2.1-0.5l-1.1-0.5c-2.5-1.2-3.5-4.3-2.3-6.9l0.2-0.5c0.8-1.6,1.6-3.3,3.3-3.3
		c0.5,0,1,0.1,1.5,0.4l4.7,2.3c0.8,0.4,1.4,1,1.6,1.6c0.4,1.2-0.2,2.5-0.9,3.9l-0.3,0.5C1109.6,420.3,1107.7,421.5,1105.8,421.5z
		 M1103.9,411.9c-0.4,0-0.9,1.1-1.4,2l-0.3,0.5c-0.7,1.5-0.2,3.3,1.2,4l1.1,0.5c1.4,0.7,3.2,0,3.9-1.5l0.3-0.6
		c0.4-0.8,0.9-1.8,0.8-2.2c0-0.1-0.2-0.3-0.5-0.4l-4.7-2.3C1104.1,411.9,1103.9,411.9,1103.9,411.9z"/>
	<polygon fill="#F5D36D" points="1107.6,423.1 1098.5,418.7 1100.1,415.3 1109.2,419.7 	"/>
	<path fill="#010101" d="M1107.6,424.2c-0.2,0-0.3,0-0.5-0.1l-9.1-4.4c-0.3-0.1-0.5-0.4-0.6-0.6c-0.1-0.3-0.1-0.6,0.1-0.8l1.6-3.3
		c0.3-0.5,0.9-0.8,1.5-0.5l9.1,4.4c0.3,0.1,0.5,0.3,0.6,0.6c0.1,0.3,0.1,0.6-0.1,0.8l-1.6,3.3C1108.4,423.9,1108,424.2,1107.6,424.2
		z M1099.9,418.1l7.1,3.4l0.7-1.3l-7.1-3.5L1099.9,418.1z"/>
	<path fill="#010101" d="M1060.8,504c0,0,2.2-0.8,2.9,1.4l-3.6,3.8L1060.8,504z"/>
	<path fill="#F9C84F" d="M1082.4,469.1c0,0,34.6,24,4.2,28c0,0-16.8-0.2-33.5-4.3C1053.2,492.8,1072.1,468.3,1082.4,469.1"/>
	<path fill="#221F20" d="M1086.6,499.2C1086.6,499.2,1086.6,499.2,1086.6,499.2c-0.7,0-17.2-0.2-34-4.3c-0.7-0.2-1.3-0.7-1.5-1.4
		c-0.2-0.7-0.1-1.4,0.3-2c2-2.6,20.1-25.4,31.1-24.6c0.4,0,0.7,0.2,1.1,0.4c2,1.4,19.7,14,17.4,23.6c-1.1,4.4-5.7,7.1-14.1,8.2
		C1086.8,499.2,1086.7,499.2,1086.6,499.2z M1056.9,491.5c14.3,3.1,28,3.4,29.6,3.4c4.4-0.6,9.7-2,10.4-5c1.2-5-8.4-14-15.1-18.8
		C1074.7,471.8,1062.9,484.3,1056.9,491.5z"/>
	<path fill="#F8C158" d="M824.3,436.9c0,0-30.7,0.2-46.6,30.4c0,0-13.5,31.7,30.5,37.4c0,0,6.9,5.1,11.9,4.1c0,0-0.6-40,14.1-40.3
		l-21.5-3.9C812.7,464.6,830.9,456.8,824.3,436.9"/>
	<path fill="#221F20" d="M818.7,511L818.7,511c-4.6,0-9.8-3.2-11.3-4.3c-15.3-2.1-25.6-7.5-30.6-16.2c-6.4-11.2-1.3-23.6-1.1-24.1
		c16.4-31.2,48.2-31.7,48.5-31.7l1.5,0l0.5,1.5c4.7,14.4-2.5,23.1-7.9,27.2l16.2,2.9l-0.3,4.2c-10.3,0.2-12.2,28.3-12,38.1l0,1.8
		l-1.7,0.4C820,511,819.4,511,818.7,511z M779.6,468.3c0,0-4.4,10.8,1,20.2c4.3,7.5,13.7,12.3,27.9,14.1l0.5,0.1l0.4,0.3
		c1.3,1,5.3,3.4,8.5,3.8c0-7.4,0.9-29.3,9.2-37.4l-21.7-3.9l6.4-2.8c0.6-0.3,15.4-7,10.9-23.5C816.5,439.7,792.7,443.5,779.6,468.3
		L779.6,468.3z"/>
	<path fill="#FFFFFF" d="M817.4,487.3c0,0,21.5,53.9,20.7,62.8H996l-50.2-62.9L817.4,487.3z"/>
	<path fill="#010101" d="M996,552.2H838.2c-0.6,0-1.2-0.3-1.6-0.7c-0.4-0.4-0.6-1-0.6-1.6c0.5-6.1-12-40.3-20.6-61.8
		c-0.3-0.6-0.2-1.4,0.2-2c0.4-0.6,1-0.9,1.8-0.9l128.3-0.2c0.5,0.1,1.3,0.3,1.7,0.8l50.2,62.9c0.5,0.6,0.6,1.5,0.2,2.2
		C997.6,551.7,996.8,552.2,996,552.2z M840.2,547.9h151.4l-46.8-58.7l-124.2,0.2C825,500.6,838.7,536.3,840.2,547.9z"/>
	<path fill="#1D4B82" d="M780.6,456.3c0,0,16.7-23.6,48.1-17.9c0,0,4.2,17.8-3.2,32.4c0,0-41.4-11.5-48.9-6
		C776.6,464.9,777,460.4,780.6,456.3"/>
	<path fill="#221F20" d="M825.5,473c-0.2,0-0.4,0-0.6-0.1c-0.3-0.1-26.8-7.4-40.8-7.4c-4.4,0-5.9,0.8-6.4,1.1
		c-0.7,0.5-1.6,0.5-2.3,0.1c-0.7-0.4-1.1-1.2-1.1-2c0-0.2,0.5-5.2,4.6-9.7c0.4-0.6,14.1-19.5,40.1-19.5c3.2,0,6.6,0.3,9.9,0.9
		c0.8,0.2,1.5,0.8,1.7,1.6c0.2,0.8,4.3,18.7-3.3,33.9C827.1,472.5,826.3,473,825.5,473z M784.2,461.3c12.5,0,33.9,5.4,40.2,7.1
		c4.9-11.2,3.3-23.9,2.5-28.1c-2.6-0.4-5.2-0.6-7.8-0.6c-23.8,0-36.6,17.7-36.8,17.9c-1.2,1.4-2,2.8-2.6,4
		C781.1,461.4,782.5,461.3,784.2,461.3z"/>
	<path fill="#F8C158" d="M947.1,433c0,0,29.8,7.2,38.3,40.4c0,0,5.8,33.9-38.3,29.3c0,0-7.9,3.3-12.5,1.2c0,0,21.7-38.8,7.4-42.4
		l10,1.2C951.9,462.6,936.1,450.8,947.1,433"/>
	<path fill="#221F20" d="M938.3,506.6c-1.8,0-3.4-0.3-4.7-0.9c-0.5-0.2-0.9-0.7-1.1-1.3c-0.2-0.6-0.1-1.2,0.2-1.7
		c4.3-7.7,14.7-29.3,11.4-37.1c-0.5-1.2-1.4-1.9-2.7-2.3c-1.1-0.3-1.8-1.3-1.6-2.4c0.2-1.1,1.2-1.9,2.3-1.7l4.1,0.5
		c-4.2-5.4-8.8-15.4-1-27.9c0.5-0.8,1.4-1.2,2.3-0.9c0.3,0.1,31.1,7.9,39.9,41.9c0.1,0.7,2.1,13-5.8,22.4
		c-6.7,7.9-18.2,11.2-34.3,9.6C946,505.3,942.1,506.6,938.3,506.6z M937.7,502.4c3.7,0.2,8.5-1.7,8.5-1.7c0.3-0.1,0.7-0.2,1-0.2
		c14.8,1.6,25.4-1.2,31.1-8c6.6-7.9,4.9-18.7,4.9-18.8c-7-27.1-29.2-36.2-35.2-38.2c-8.2,15.2,4.6,25,5.1,25.4
		c0.8,0.6,1.1,1.6,0.7,2.5c-0.4,0.9-1.3,1.4-2.2,1.3l-3.6-0.4C951.9,473.9,941.7,494.9,937.7,502.4z"/>
	<path fill="#1D4B82" d="M984.1,463.1c0,0-10.8-26.8-42.6-28.6c0,0-8.2,16.3-4.4,32.3c0,0,42.9-1.6,49,5.5
		C986.1,472.3,986.7,467.9,984.1,463.1"/>
	<path fill="#221F20" d="M987.5,477.3l-3.1-3.6c-2-2.4-12.9-4.9-37.5-4.9c-5.7,0-9.8,0.2-9.8,0.2l-1.7,0.1l-0.4-1.7
		c-3.9-16.5,4.2-33,4.6-33.7l0.6-1.2l1.4,0.1c32.7,1.8,44.3,29.6,44.5,29.9c2.8,5.2,2.1,10.1,2.1,10.3L987.5,477.3z M946.9,464.6
		c18.2,0,30.5,1.3,36.8,3.9c-0.2-1.3-0.7-2.8-1.5-4.3c-0.5-1.2-10.5-25-39.4-27.3c-1.7,3.9-6.2,15.9-4,27.9
		C940.5,464.6,943.4,464.6,946.9,464.6z"/>
	<path fill="#F8C158" d="M816.9,472.3c14-8.7,28.5-1.8,28.5-1.8c12.9,4.2,21.7,13.1,19.6,26.4c-2.1,13.3-11.3,20.8-26.9,18.4
		c0,0-19.3,0.5-29.9-12.7"/>
	<path fill="#221F20" d="M843.8,517.9c-1.9,0-3.8-0.2-5.9-0.5c-2.2,0.1-20.7-0.2-31.4-13.4c-0.7-0.9-0.6-2.2,0.3-3
		c0.9-0.7,2.2-0.6,3,0.3c9.8,12.2,28,11.9,28.2,11.9c0.1,0,0.3,0,0.4,0c7,1.1,12.7,0.2,17-2.9c4-2.9,6.6-7.5,7.5-13.7
		c2.4-15-10.3-21.5-18.1-24c-0.4-0.2-13.9-6.3-26.8,1.6c-1,0.6-2.3,0.3-2.9-0.7c-0.6-1-0.3-2.3,0.7-2.9c14.8-9.1,29.9-2.3,30.5-2
		c15.2,4.9,22.9,15.4,20.8,28.6c-1.2,7.3-4.4,13-9.2,16.5C854,516.5,849.3,517.9,843.8,517.9z"/>
	<path fill="#F8C158" d="M956.1,285.2c0,0,46,29.5,39.2,100.5c0,0-5.4,59.5-61.3,67.1c0,0-142.7,19.4-144-80.6c0,0-4-62.9,54.5-98.3
		C844.5,273.9,902.4,248.7,956.1,285.2"/>
	<path fill="#221F20" d="M906.7,456.4c-44,0-117.9-10.9-118.8-84.2c0-0.5-3.4-64.5,55.6-100.1c1.1-0.5,20.5-8.8,47.5-8.8
		c24.4,0,46.8,6.8,66.5,20.1c0.4,0.3,47,30.9,40.1,102.4c-0.1,0.6-6.2,61.3-63.2,69C933.8,454.9,922.8,456.4,906.7,456.4z
		 M890.9,267.5c-26.1,0-45.3,8.2-45.5,8.3C788.9,310,792,371.4,792.1,372c0.9,69.7,72.2,80.1,114.6,80.1c15.8,0,26.9-1.5,27-1.5
		c53.6-7.3,59.5-64.6,59.5-65.2c6.6-68.8-37.8-98.2-38.2-98.5C936,274.1,914.4,267.5,890.9,267.5z"/>
	<path fill="#221F20" d="M915.5,388.8c-0.3,4.2,2.9,7.9,7.1,8.2c4.2,0.3,7.9-2.9,8.2-7.1c0.3-4.2-2.9-7.9-7.1-8.2
		C919.5,381.3,915.8,384.5,915.5,388.8"/>
	<path fill="#221F20" d="M870.4,383.4c-0.3,4.2,2.9,7.9,7.1,8.2c4.2,0.3,7.9-2.9,8.2-7.1c0.3-4.2-2.9-7.9-7.1-8.2
		C874.4,376,870.7,379.2,870.4,383.4"/>
	<path fill="#221F20" d="M890.9,377.3c-0.6,0-1.1-0.2-1.5-0.6c-0.1-0.2-13.7-14.3-26.3-20.7c-1-0.5-1.5-1.8-0.9-2.9
		c0.5-1,1.8-1.5,2.8-0.9c13.2,6.8,26.8,21,27.4,21.6c0.8,0.9,0.8,2.2-0.1,3C891.9,377.1,891.4,377.3,890.9,377.3z"/>
	<path fill="#221F20" d="M917.7,377.4c-0.6,0-1.2-0.3-1.6-0.7c-0.8-0.9-0.7-2.2,0.2-3c10.9-9.4,28.7-14.4,29.5-14.6
		c1.1-0.3,2.3,0.3,2.6,1.5c0.3,1.1-0.3,2.3-1.5,2.6c-0.2,0-17.6,4.9-27.9,13.7C918.7,377.2,918.2,377.4,917.7,377.4z"/>
	<path fill="#FFFFFF" d="M876.3,432.8c-10.7-2-18.9-9.1-18-18c0.9-8.9,10.4-15.2,21.2-14.2c8.4,0.8,15.4,5.1,17.6,11.6l1.6,0.2
		c3.3-5.9,10.5-8.9,19-8c10.8,1.1,18.9,9.1,18,18c-0.9,8.9-10.3,15.2-21.2,14.1c-8.3-0.8-9.5-1.3-18.4-3.5
		C896,433,884.4,434.4,876.3,432.8"/>
	<path fill="#221F20" d="M899.3,416.9l12.1-10c1.1-1.6-1.2-4.8-1.2-4.8l-20.2-2c0,0-2.8,2.8-2.1,4.5l9.9,12.2L899.3,416.9z"/>
	<path fill="#004892" d="M966.8,272.8c0,0,19.4,79-64.1,82.6c0,0-4.2-39-23.9-44.2c0,0-44.6-9.9-41.3-36.3c0,0,8.7-17,16.2-19.1"/>
	<path fill="#221F20" d="M902.6,357.5c-1.1,0-2-0.8-2.1-1.9c0-0.4-4.2-37.7-22.4-42.4c-1.8-0.4-46.3-10.6-42.9-38.6
		c0-0.2,0.1-0.5,0.2-0.7c0.9-1.8,9.4-17.9,17.5-20.2c1.1-0.3,2.3,0.3,2.6,1.5c0.3,1.1-0.3,2.3-1.5,2.6c-4.7,1.3-11.5,11.4-14.7,17.7
		c-2.5,23.9,39.3,33.5,39.7,33.6c18.5,4.9,24.1,35.8,25.3,44.1c23.4-1.4,40.4-9,50.7-22.8c17.5-23.4,9.6-56.8,9.5-57.1
		c-0.3-1.1,0.4-2.3,1.6-2.6c1.1-0.3,2.3,0.4,2.6,1.6c0.4,1.4,8.5,35.7-10.2,60.7C947.2,348.1,928.4,356.4,902.6,357.5
		C902.7,357.5,902.7,357.5,902.6,357.5z"/>
	<g>
		<polygon fill="#F0CDA9" points="930.1,503.7 918.6,521.4 919,500.5 926.2,496.3 		"/>
		<path fill="#010101" d="M918.6,522.5c-0.1,0-0.2,0-0.3-0.1c-0.5-0.2-0.8-0.6-0.8-1.1l0.4-20.9c0-0.4,0.2-0.7,0.5-0.9l7.2-4.2
			c0.3-0.2,0.6-0.2,0.9-0.1c0.3,0.1,0.5,0.3,0.7,0.5l3.9,7.3c0.2,0.3,0.2,0.8,0,1.1L919.6,522C919.4,522.3,919,522.5,918.6,522.5z
			 M920.1,501.2l-0.3,16.4l9-14l-3-5.7L920.1,501.2z"/>
		<path fill="#446839" d="M930.1,503.7l29.6-98.2l-11-3.3l-29.6,98.2c0,0,3.5-2,5.6,1.7C924.7,502,928.1,500.2,930.1,503.7"/>
		<path fill="#010101" d="M930.1,504.8c-0.4,0-0.8-0.2-1-0.6c-0.6-1-1.4-1.5-2.4-1.5c-0.9,0-1.6,0.3-1.6,0.3
			c-0.5,0.3-1.2,0.1-1.5-0.4c-0.7-1.1-1.5-1.6-2.5-1.6c-0.9,0-1.6,0.4-1.6,0.4c-0.4,0.2-0.9,0.2-1.2-0.1c-0.3-0.3-0.5-0.7-0.4-1.2
			l29.6-98.2c0.1-0.3,0.3-0.5,0.5-0.6c0.3-0.1,0.6-0.2,0.8-0.1l11,3.3c0.6,0.2,0.9,0.8,0.7,1.4L931.1,504c-0.1,0.4-0.5,0.7-0.9,0.8
			C930.1,504.8,930.1,504.8,930.1,504.8z M926.7,500.5c0.8,0,1.9,0.2,2.9,1l28.7-95.2l-8.9-2.7l-28.7,95.2c1.2-0.1,2.9,0.1,4.4,1.9
			C925.5,500.6,926.1,500.5,926.7,500.5z"/>
		<path fill="#010101" d="M924.7,502.7c-0.1,0-0.2,0-0.3,0c-0.6-0.2-0.9-0.8-0.7-1.4l29.5-97.7c0.2-0.6,0.8-0.9,1.4-0.7
			c0.6,0.2,0.9,0.8,0.7,1.4l-29.5,97.7C925.6,502.4,925.2,502.7,924.7,502.7z"/>
		<path fill="#E17E8F" d="M961.4,399c-0.8,2.7-3.6,4.3-6.2,3.5l-1.4-0.4c-2.6-0.8-4-3.6-3.2-6.3c0.8-2.7,1.2-5,3.8-4.2l6.2,1.9
			C963.2,394.2,962.2,396.3,961.4,399"/>
		<path fill="#010101" d="M956.6,403.8c-0.6,0-1.1-0.1-1.7-0.2l-1.4-0.4c-3.2-1-4.9-4.4-3.9-7.7l0.2-0.7c0.6-2.2,1.3-4.5,3.7-4.5
			c0.4,0,0.8,0.1,1.2,0.2l6.2,1.9c1,0.3,1.7,0.8,2.1,1.6c0.7,1.3,0.2,2.9-0.3,4.7l-0.2,0.7C961.7,402,959.2,403.8,956.6,403.8z
			 M953.5,392.5c-0.7,0-1,0.9-1.6,2.9l-0.2,0.7c-0.6,2.1,0.5,4.4,2.5,5l1.4,0.4c2,0.6,4.2-0.7,4.8-2.8l0.2-0.7
			c0.4-1.2,0.8-2.5,0.5-3.1c-0.1-0.2-0.4-0.4-0.8-0.5l-6.2-1.8C953.9,392.5,953.7,392.5,953.5,392.5z"/>
		
			<rect x="952.5" y="395.4" transform="matrix(0.2879 -0.9576 0.9576 0.2879 295.1908 1200.2845)" fill="#F5D36D" width="4.6" height="12.5"/>
		<path fill="#010101" d="M960.1,406.7c-0.1,0-0.2,0-0.3,0l-12-3.6c-0.3-0.1-0.5-0.3-0.7-0.5c-0.1-0.3-0.2-0.6-0.1-0.8l1.3-4.4
			c0.1-0.3,0.3-0.5,0.5-0.6c0.3-0.1,0.6-0.2,0.8-0.1l12,3.6c0.6,0.2,0.9,0.8,0.7,1.4l-1.3,4.4c-0.1,0.3-0.3,0.5-0.5,0.6
			C960.4,406.7,960.2,406.7,960.1,406.7z M949.5,401.3l9.9,3l0.7-2.3l-9.9-3L949.5,401.3z"/>
		<path fill="#010101" d="M918.9,513.4c0,0,2.5-1.4,3.8,1.1l-3.6,5.3L918.9,513.4z"/>
	</g>
	<path fill="#F8C158" d="M954.6,472.5c-11.6-11.7-27.3-8.4-27.3-8.4c-13.6,1.1-24.2,7.7-25.2,21.1c-1,13.4,6.2,22.9,21.9,24.1
		c0,0,18.6,4.9,32-5.4"/>
	<path fill="#221F20" d="M933.5,512.2c-5.5,0-9.5-0.7-9.8-0.8c-15.9-1.2-24.8-11-23.7-26.3c1-13.4,10.9-21.8,27.1-23.1
		c0.4-0.1,16.7-3.3,29,9c0.8,0.8,0.8,2.2,0,3c-0.8,0.8-2.2,0.8-3,0c-10.6-10.7-25.3-7.8-25.4-7.8c-8.4,0.7-22.3,4.1-23.5,19.2
		c-1,13,6.1,20.8,20,21.8c0.4,0.1,20.1,3.7,32.6-5.9c0.9-0.7,2.3-0.5,3,0.4c0.7,0.9,0.5,2.3-0.4,3
		C951.3,510.9,941,512.2,933.5,512.2z"/>
	<g>
		<polygon fill="#EDA948" points="771.8,465.7 654.7,464.4 654.8,457.6 771.8,458.9 		"/>
		<path fill="#010101" d="M771.8,467.8C771.8,467.8,771.7,467.8,771.8,467.8l-117.1-1.3c-1.2,0-2.1-1-2.1-2.1l0.1-6.8
			c0-0.6,0.2-1.1,0.6-1.5c0.4-0.4,1-0.5,1.5-0.6l117,1.3c0.6,0,1.1,0.2,1.5,0.6c0.4,0.4,0.6,0.9,0.6,1.5l-0.1,6.8
			C773.9,466.9,772.9,467.8,771.8,467.8z M656.9,462.3l112.8,1.3l0-2.6l-112.8-1.3L656.9,462.3z"/>
		<polygon fill="#EDA948" points="771.5,486.4 654.5,485.1 654.6,478.3 771.6,479.6 		"/>
		<path fill="#010101" d="M771.5,488.5C771.5,488.5,771.5,488.5,771.5,488.5l-117.1-1.3c-0.6,0-1.1-0.2-1.5-0.6
			c-0.4-0.4-0.6-0.9-0.6-1.5l0.1-6.8c0-1.2,1-2.1,2.1-2.1c0,0,0,0,0,0l117,1.3c0.6,0,1.1,0.2,1.5,0.6c0.4,0.4,0.6,0.9,0.6,1.5
			l-0.1,6.8C773.6,487.6,772.7,488.5,771.5,488.5z M656.6,483l112.8,1.3l0-2.5l-112.8-1.3L656.6,483z"/>
		<polygon fill="#ECE5C3" points="767.4,480.3 659.3,479.1 659.4,464.4 767.6,465.6 		"/>
		<path fill="#010101" d="M767.4,481.4L767.4,481.4l-108.2-1.2c-0.3,0-0.6-0.1-0.8-0.3c-0.2-0.2-0.3-0.5-0.3-0.8l0.2-14.7
			c0-0.6,0.5-1.2,1.1-1.1l108.1,1.2c0.6,0,1.1,0.5,1.1,1.1l-0.2,14.7c0,0.3-0.1,0.6-0.3,0.8C768,481.3,767.7,481.4,767.4,481.4z
			 M660.4,478l106,1.2l0.1-12.5l-106-1.2L660.4,478z"/>
		<path fill="#010101" d="M767.5,470.8C767.5,470.8,767.5,470.8,767.5,470.8l-106.9-1.2c-0.6,0-1.1-0.5-1.1-1.1c0-0.6,0.5-1,1.1-1.1
			l106.9,1.2c0.6,0,1.1,0.5,1.1,1.1C768.6,470.3,768.1,470.8,767.5,470.8z"/>
		<path fill="#010101" d="M767.5,476.5L767.5,476.5l-106.9-1.2c-0.6,0-1.1-0.5-1.1-1.1c0-0.6,0.5-1.1,1.1-1.1c0,0,0,0,0,0l106.9,1.2
			c0.6,0,1.1,0.5,1.1,1.1C768.6,476,768.1,476.5,767.5,476.5z"/>
		
			<rect x="707.9" y="449" transform="matrix(1.124055e-02 -0.9999 0.9999 1.124055e-02 195.7829 1213.0822)" fill="#7E2E40" width="6.8" height="117"/>
		<path fill="#010101" d="M769.8,513.7C769.8,513.7,769.8,513.7,769.8,513.7l-117.1-1.3c-0.6,0-1.1-0.2-1.5-0.6
			c-0.4-0.4-0.6-0.9-0.6-1.5l0.1-6.8c0-1.2,1-2.1,2.1-2.1c0,0,0,0,0,0l117,1.3c0.6,0,1.1,0.2,1.5,0.6c0.4,0.4,0.6,0.9,0.6,1.5
			l-0.1,6.8C771.9,512.8,770.9,513.7,769.8,513.7z M654.9,508.2l112.8,1.3l0-2.6l-112.8-1.3L654.9,508.2z"/>
		
			<rect x="707.7" y="469.8" transform="matrix(1.109655e-02 -0.9999 0.9999 1.109655e-02 174.9125 1233.4255)" fill="#7E2E40" width="6.8" height="117.1"/>
		<path fill="#010101" d="M769.5,534.4C769.5,534.4,769.5,534.4,769.5,534.4l-117.1-1.3c-1.2,0-2.1-1-2.1-2.1l0.1-6.8
			c0-0.6,0.2-1.1,0.6-1.5c0.4-0.4,0.9-0.6,1.5-0.6l117,1.3c1.2,0,2.1,1,2.1,2.1l-0.1,6.8c0,0.6-0.2,1.1-0.6,1.5
			C770.6,534.2,770.1,534.4,769.5,534.4z M654.6,528.9l112.8,1.3l0-2.5l-112.8-1.3L654.6,528.9z"/>
		<polygon fill="#ECE5C3" points="765.4,526.2 657.2,525 657.4,510.3 765.6,511.5 		"/>
		<path fill="#010101" d="M765.4,527.3C765.4,527.3,765.4,527.3,765.4,527.3l-108.2-1.2c-0.3,0-0.6-0.1-0.8-0.3
			c-0.2-0.2-0.3-0.5-0.3-0.8l0.2-14.7c0-0.6,0.5-1.1,1.1-1.1c0,0,0,0,0,0l108.2,1.2c0.3,0,0.6,0.1,0.8,0.3c0.2,0.2,0.3,0.5,0.3,0.8
			l-0.2,14.7C766.5,526.8,766,527.3,765.4,527.3z M658.4,523.9l106,1.2l0.1-12.5l-106-1.2L658.4,523.9z"/>
		<path fill="#010101" d="M765.5,516.7C765.5,516.7,765.5,516.7,765.5,516.7l-106.9-1.2c-0.6,0-1.1-0.5-1.1-1.1
			c0-0.6,0.5-1.1,1.1-1.1h0l106.9,1.2c0.6,0,1.1,0.5,1.1,1.1C766.6,516.2,766.1,516.7,765.5,516.7z"/>
		<path fill="#010101" d="M765.5,522.4C765.5,522.4,765.5,522.4,765.5,522.4l-106.9-1.2c-0.6,0-1.1-0.5-1.1-1.1
			c0-0.6,0.5-1.2,1.1-1.1l106.9,1.2c0.6,0,1.1,0.5,1.1,1.1C766.6,521.9,766.1,522.4,765.5,522.4z"/>
		<polygon fill="#27366C" points="784.8,492.7 667.8,491.4 667.8,487.4 784.8,488.7 		"/>
		<path fill="#010101" d="M784.8,494.9C784.8,494.9,784.8,494.9,784.8,494.9l-117.1-1.3c-0.6,0-1.1-0.2-1.5-0.6
			c-0.4-0.4-0.6-0.9-0.6-1.5l0-4.1c0-1.2,1-2.1,2.1-2.1c0,0,0,0,0,0l117,1.3c1.2,0,2.1,1,2.1,2.1l0,4.1c0,0.6-0.2,1.1-0.6,1.5
			C785.9,494.6,785.4,494.9,784.8,494.9z"/>
		
			<rect x="724.1" y="444" transform="matrix(1.102165e-02 -0.9999 0.9999 1.102165e-02 215.6633 1223.104)" fill="#27366C" width="4.1" height="117"/>
		<path fill="#010101" d="M784.7,507.3C784.7,507.3,784.6,507.3,784.7,507.3L667.6,506c-0.6,0-1.1-0.2-1.5-0.6
			c-0.4-0.4-0.6-0.9-0.6-1.5l0-4.1c0-1.2,1-2.1,2.1-2.1c0,0,0,0,0,0l117,1.3c0.6,0,1.1,0.2,1.5,0.6c0.4,0.4,0.6,0.9,0.6,1.5l0,4.1
			C786.8,506.4,785.8,507.3,784.7,507.3z"/>
		
			<rect x="722.1" y="442.4" transform="matrix(1.128990e-02 -0.9999 0.9999 1.128990e-02 221.7971 1217.3329)" fill="#ECE5C3" width="8.8" height="108.2"/>
		<path fill="#010101" d="M780.5,502.6C780.5,502.6,780.5,502.6,780.5,502.6l-108.2-1.2c-0.6,0-1.1-0.5-1.1-1.1l0.1-8.8
			c0-0.3,0.1-0.6,0.3-0.8c0.2-0.2,0.5-0.3,0.8-0.3h0l108.2,1.2c0.6,0,1.1,0.5,1.1,1.1l-0.1,8.8c0,0.3-0.1,0.6-0.3,0.8
			C781.1,502.5,780.8,502.6,780.5,502.6z M673.5,499.2l105.9,1.2l0.1-6.6l-106-1.2L673.5,499.2z"/>
		<polygon fill="#E1724C" points="754.7,388.7 637.7,387.3 637.8,376.2 754.8,377.5 		"/>
		<path fill="#010101" d="M754.7,390.8C754.7,390.8,754.7,390.8,754.7,390.8l-117.1-1.3c-0.6,0-1.1-0.2-1.5-0.6
			c-0.4-0.4-0.6-0.9-0.6-1.5l0.1-11.2c0-1.2,1-2.1,2.1-2.1c0,0,0,0,0,0l117.1,1.3c0.6,0,1.1,0.2,1.5,0.6c0.4,0.4,0.6,0.9,0.6,1.5
			l-0.1,11.2C756.8,389.9,755.9,390.8,754.7,390.8z M639.8,385.3l112.8,1.3l0.1-6.9l-112.8-1.3L639.8,385.3z"/>
		<polygon fill="#E1724C" points="754.4,413.1 637.4,411.8 637.5,401.4 754.5,402.7 		"/>
		<path fill="#010101" d="M754.4,415.3C754.4,415.3,754.4,415.3,754.4,415.3l-117.1-1.3c-1.2,0-2.1-1-2.1-2.1l0.1-10.4
			c0-0.6,0.2-1.1,0.6-1.5c0.4-0.4,0.9-0.6,1.5-0.6l117,1.3c0.6,0,1.1,0.2,1.5,0.6c0.4,0.4,0.6,0.9,0.6,1.5l-0.1,10.4
			C756.5,414.3,755.6,415.3,754.4,415.3z M639.5,409.7l112.8,1.3l0.1-6.2l-112.8-1.3L639.5,409.7z"/>
		
			<rect x="689" y="341.3" transform="matrix(1.121207e-02 -0.9999 0.9999 1.121207e-02 293.2386 1087.2302)" fill="#ECE5C3" width="14.7" height="108.2"/>
		<path fill="#010101" d="M750.4,404.4C750.4,404.4,750.3,404.4,750.4,404.4l-108.2-1.2c-0.6,0-1.1-0.5-1.1-1.1l0.2-14.7
			c0-0.3,0.1-0.6,0.3-0.8c0.2-0.2,0.5-0.4,0.8-0.3l108.2,1.2c0.6,0,1.1,0.5,1.1,1.1l-0.2,14.7c0,0.3-0.1,0.6-0.3,0.8
			C750.9,404.3,750.6,404.4,750.4,404.4z M643.3,401l106,1.2l0.1-12.5l-106-1.2L643.3,401z"/>
		<path fill="#010101" d="M750.5,393.8C750.5,393.8,750.5,393.8,750.5,393.8l-106.9-1.2c-0.6,0-1.1-0.5-1.1-1.1
			c0-0.6,0.5-1.1,1.1-1.1c0,0,0,0,0,0l106.9,1.2c0.6,0,1.1,0.5,1.1,1.1C751.6,393.3,751.1,393.8,750.5,393.8z"/>
		<path fill="#010101" d="M750.4,399.5C750.4,399.5,750.4,399.5,750.4,399.5l-106.9-1.2c-0.6,0-1.1-0.5-1.1-1.1
			c0-0.6,0.5-1.1,1.1-1.1c0,0,0,0,0,0l106.9,1.2c0.6,0,1.1,0.5,1.1,1.1C751.5,399,751,399.5,750.4,399.5z"/>
		<polygon fill="#7E2E40" points="752.7,436.5 635.6,435.1 635.7,428.4 752.8,429.7 		"/>
		<path fill="#010101" d="M752.7,438.6C752.7,438.6,752.7,438.6,752.7,438.6l-117.1-1.3c-1.2,0-2.1-1-2.1-2.1l0.1-6.8
			c0-0.6,0.2-1.1,0.6-1.5c0.4-0.4,0.9-0.5,1.5-0.6l117,1.3c1.2,0,2.1,1,2.1,2.1l-0.1,6.8c0,0.6-0.2,1.1-0.6,1.5
			C753.8,438.3,753.2,438.6,752.7,438.6z M637.8,433l112.8,1.3l0-2.5l-112.8-1.3L637.8,433z"/>
		<polygon fill="#7E2E40" points="752.4,457.2 635.4,455.9 635.5,449.1 752.5,450.4 		"/>
		<path fill="#010101" d="M752.4,459.3C752.4,459.3,752.4,459.3,752.4,459.3L635.4,458c-1.2,0-2.1-1-2.1-2.1l0.1-6.8
			c0-0.6,0.2-1.1,0.6-1.5c0.4-0.4,0.9-0.6,1.5-0.6l117,1.3c0.6,0,1.1,0.2,1.5,0.6c0.4,0.4,0.6,0.9,0.6,1.5l-0.1,6.8
			C754.6,458.4,753.6,459.3,752.4,459.3z M637.5,453.8l112.8,1.3l0-2.5l-112.8-1.3L637.5,453.8z"/>
		<polygon fill="#ECE5C3" points="748.3,451.1 640.2,449.9 640.3,435.2 748.5,436.4 		"/>
		<path fill="#010101" d="M748.3,452.2C748.3,452.2,748.3,452.2,748.3,452.2L640.2,451c-0.6,0-1.1-0.5-1.1-1.1l0.2-14.7
			c0-0.3,0.1-0.6,0.3-0.8c0.2-0.2,0.5-0.3,0.8-0.3l108.2,1.2c0.6,0,1.1,0.5,1.1,1.1l-0.2,14.7c0,0.3-0.1,0.6-0.3,0.8
			C748.9,452.1,748.6,452.2,748.3,452.2z M641.3,448.8l106,1.2l0.1-12.5l-106-1.2L641.3,448.8z"/>
		<path fill="#010101" d="M748.4,441.6C748.4,441.6,748.4,441.6,748.4,441.6l-106.9-1.2c-0.6,0-1.1-0.5-1.1-1.1
			c0-0.6,0.5-1.1,1.1-1.1c0,0,0,0,0,0l106.9,1.2c0.6,0,1.1,0.5,1.1,1.1C749.5,441.1,749.1,441.6,748.4,441.6z"/>
		<path fill="#010101" d="M748.4,447.2C748.4,447.2,748.4,447.2,748.4,447.2L641.4,446c-0.6,0-1.1-0.5-1.1-1.1
			c0-0.6,0.6-1.1,1.1-1.1l106.9,1.2c0.6,0,1.1,0.5,1.1,1.1C749.5,446.8,749,447.2,748.4,447.2z"/>
		<polygon fill="#446839" points="767.7,417.6 650.7,416.3 650.7,412.2 767.8,413.5 		"/>
		<path fill="#010101" d="M767.7,419.7C767.7,419.7,767.7,419.7,767.7,419.7l-117.1-1.3c-1.2,0-2.1-1-2.1-2.1l0-4.1
			c0-0.6,0.2-1.1,0.6-1.5c0.4-0.4,0.9-0.6,1.5-0.6l117,1.3c1.2,0,2.1,1,2.1,2.1l0,4.1c0,0.6-0.2,1.1-0.6,1.5
			C768.8,419.5,768.3,419.7,767.7,419.7z"/>
		<polygon fill="#446839" points="767.6,430.1 650.5,428.7 650.6,424.7 767.6,426 		"/>
		<path fill="#010101" d="M767.6,432.2C767.6,432.2,767.6,432.2,767.6,432.2l-117.1-1.3c-1.2,0-2.1-1-2.1-2.1l0-4.1
			c0-0.6,0.2-1.1,0.6-1.5c0.4-0.4,0.9-0.7,1.5-0.6l117,1.3c1.2,0,2.1,1,2.1,2.1l0,4.1c0,0.6-0.2,1.1-0.6,1.5
			C768.7,432,768.1,432.2,767.6,432.2z"/>
		<polygon fill="#ECE5C3" points="763.4,426.4 655.3,425.2 655.4,416.3 763.5,417.6 		"/>
		<path fill="#010101" d="M763.4,427.5C763.4,427.5,763.4,427.5,763.4,427.5l-108.2-1.2c-0.6,0-1.1-0.5-1.1-1.1l0.1-8.8
			c0-0.3,0.1-0.6,0.3-0.8c0.2-0.2,0.6-0.3,0.8-0.3l108.2,1.2c0.3,0,0.6,0.1,0.8,0.3c0.2,0.2,0.3,0.5,0.3,0.8l-0.1,8.8
			C764.5,427,764,427.5,763.4,427.5z M656.4,424.1l106,1.2l0.1-6.6l-106-1.2L656.4,424.1z"/>
	</g>
	<path fill="#221F20" d="M852.6,519.3c-2.7,2.1-7.5,7.1-2.6,10.1c5.6,3.4,11,0.7,16.4-2c6.1-3,11.3,1.1,17.2-0.7
		c5.2-1.6,6.9-5.2,8.4-10.2c-1.3,0.6-2.6,1.3-3.8,1.9c3,0,7.4-0.2,5.6,3.8c-0.6,1.5,2.6,1.2,3.1,1c3.5-0.8,6.2-1.7,9.2-3.4
		c-1.5,0-3,0-4.5-0.1c0.2,2.1,0.2,4.2,0,6.4c-0.2,2.1,3.6,1,4.5,0.5c3.6-2,5.6-4.5,7.6-8.1c-1.6,0.4-3.2,0.8-4.8,1.3
		c6.8,3.9,8.4,6.1,14.6,0.3c-1.7,0.1-3.3,0.2-5,0.3c0.7,3,1.1,2.9,3.9,4c1.7,0.6,6.7-1.8,4.4-2.7c-1.6-0.2-2.5-1.1-2.8-2.8
		c-0.4-1.8-4.2-0.5-5,0.3c-1.5,1.8-1.9,1.9-1,0.5c-1.1-1-3.4-1.8-4.7-2.5c-1.3-0.7-4,0-4.8,1.3c-1.2,2.8-3.2,5-5.9,6.6
		c1.5,0.2,3,0.3,4.5,0.5c0.3-2.5,0.2-4.7,0-7.1c-0.1-1.7-3.8-0.4-4.5-0.1c-2,1.2-4.2,2-6.5,2.3c1,0.3,2.1,0.7,3.1,1
		c0.6-1.3,1.1-2.6,1.7-3.9c0.3-0.7-0.6-1-1.1-1.2c-3.3-0.9-6.2-1.1-9.6-1.2c-1.3,0-3.4,0.5-3.8,1.9c-2.8,9.2-8.1,4.6-14.3,5.5
		c-2.1,0.3-3.6,0.7-5.6,1.4c-1.5,0.7-3.1,1.4-4.6,2.1c-3.6,2.5-5.2,0.5-4.9-6.1C859.5,518.2,853.9,518.2,852.6,519.3"/>
	<path fill="#221F20" d="M1033.1,507.3c-3.9,4,3.8,5.3,6.4,5.5c5.4,0.5,12.6-0.5,16-5.2c-1.7,0.3-3.4,0.6-5.2,1
		c2.4,2.5,4.8,3.4,8.3,3.4c2.4,0,5.8-3.5,2-3.6c-2.4,0-3.6-0.4-5.2-2.2c-1.4-1.4-4.2-0.4-5.1,1c-1.4,1.9-4.6,2-6.8,2.1
		c-1.1,0.1-5.7-0.9-5.9-0.7C1040,506.1,1034.6,505.8,1033.1,507.3"/>
	<path fill="#221F20" d="M1059.7,510.2c4.7,0,10-0.3,13.4-4c-1.5,0.3-2.9,0.6-4.4,0.8c2.3,1.4,4.2,0.9,6.7,1.3
		c1.4,0.2,2.9-0.1,3.9-1c0.8-0.8,0.6-2-0.6-2.2c-1.9-0.3-4,0.1-5.7-0.9c-1.2-0.8-3.5-0.1-4.4,0.9c-1.7,1.8-4.5,1.7-6.9,1.7
		c-1.3,0-2.9,0.4-3.6,1.6C1057.5,509.4,1058.8,510.2,1059.7,510.2"/>
	<path fill="#221F20" d="M870.6,497.1c-3.9,2.7-13.4,10.9-4.9,14.4c6.2,2.5,12.9-7.5,14-12.2c-1.8,0.5-3.6,1-5.3,1.4
		c2.8,3.1,4.9,6.6,7.9,9.6c1.3,1.3,6.4,0.5,5.3-2c-2.7-6,3-4.3,7-3.5c3.8,0.8,7.4,2,11.2,2.9c2.7,0.6,5.6-3.2,1.9-4
		c-6.1-1.4-32.9-9.5-25.7,6.1c1.8-0.7,3.5-1.3,5.3-2c-3-2.9-5.2-6.4-7.9-9.6c-1.5-1.7-4.8-0.6-5.3,1.4c-0.7,3-2.9,5.4-5.1,7.4
		c-0.4-2.7,0.6-4.6,3-5.8c0.7-0.6,1.5-1.1,2.3-1.6C877.4,497.4,872.8,495.5,870.6,497.1"/>
	<path fill="#221F20" d="M924.9,522.7c3,0.8,6,0.6,9-0.5c3.2-1.2,5.7-3.5,9.1-1.8c1.4,0.7,6.5-1.4,4.5-2.5c-2.8-1.4-5.6-1.4-8.6-0.6
		c-3.1,0.9-6.1,3.7-9.4,2.9c-1.3-0.3-2.7-0.1-3.9,0.6C925,521.1,923.6,522.4,924.9,522.7"/>
</g>
</svg>
