<?xml version="1.0" encoding="utf-8"?>
<!-- Generator: Adobe Illustrator 26.0.1, SVG Export Plug-In . SVG Version: 6.00 Build 0)  -->
<svg version="1.1" id="레이어_1" xmlns="http://www.w3.org/2000/svg" xmlns:xlink="http://www.w3.org/1999/xlink" x="0px"
	 y="0px" viewBox="0 0 1680.4 93.4" style="enable-background:new 0 0 1680.4 93.4;" xml:space="preserve">
<style type="text/css">
	.st0{fill:#974465;stroke:#974465;stroke-width:2;stroke-miterlimit:10;}
	.st1{fill:#F3ED75;stroke:#F3ED75;stroke-width:2;stroke-miterlimit:10;}
	.st2{fill:#FFFFFF;stroke:#FFFFFF;stroke-width:2;stroke-miterlimit:10;}
</style>
<g>
	<path class="st0" d="M17.5,91.3V76.6H47c2.4,0,4.6-0.5,6.7-1.6c2-1,3.8-2.3,5.5-4c1.4-1.6,2.8-3.5,3.7-5.7c0.8-2.2,1.3-4.4,1.3-6.8
		H25c-2.2,0-4.1-0.4-5.8-1.2c-1.8-0.7-3.2-1.8-4.4-3.3c-1.3-1.3-2.3-3-2.9-5c-0.7-1.8-1-3.7-1-5.9c0-4.2,0.7-8.4,2.2-12.2
		c1.4-3.8,3.5-7.1,6.2-10.1c2.6-2.9,5.9-5.2,9.6-7c3.6-1.7,7.7-2.5,12.2-2.5h33.4V26H41.2c-2.6,0-4.9,0.5-6.8,1.5
		c-2,1.1-3.7,2.4-4.9,4c-1.4,1.7-2.4,3.6-3,5.7c-0.7,2.2-1.1,4.2-1.1,6.3h39.2c1.9,0,3.8,0.4,5.6,1.1c1.7,0.8,3.2,1.9,4.6,3.3
		c1.2,1.5,2.2,3,2.9,4.8c0.6,1.9,1,3.9,1,6.1c0,4.5-0.8,8.7-2.3,12.6c-1.7,4-3.8,7.4-6.5,10.3c-2.9,3-6,5.3-9.6,7
		c-3.7,1.8-7.7,2.7-11.9,2.7C48.4,91.3,17.5,91.3,17.5,91.3z"/>
	<path class="st0" d="M85.9,11.3h58v14.1H99.6v17.1h41.2v2.4c0,1.6-0.4,3-0.8,4.4c-0.7,1.5-1.6,2.8-2.6,3.8c-1.2,1.1-2.5,1.9-4,2.5
		c-1.7,0.7-3.4,1-5.2,1H99.6v20.7h46.2v2.4c0,1.6-0.4,3-0.8,4.4c-0.7,1.4-1.6,2.8-2.6,3.8c-1.2,1.1-2.5,1.9-4,2.6
		c-1.7,0.7-3.4,1-5.2,1H85.9V11.3z"/>
	<path class="st0" d="M149.5,16.3l13.3-5.2L187,67.6L211.4,11l13.4,5.2c-2.4,6.4-4.9,12.7-7.6,18.9c-2.8,6.3-5.5,12.5-8.3,18.5
		c-2.9,6.3-5.8,12.5-8.4,18.7c-2.8,6.3-5.3,12.6-7.6,18.9h-11.6L149.5,16.3z"/>
	<path class="st0" d="M231.2,11.3h58v14.1h-44.3v17.1H286v2.4c0,1.6-0.4,3-0.8,4.4c-0.7,1.5-1.6,2.8-2.6,3.8c-1.2,1.1-2.5,1.9-4,2.5
		c-1.7,0.7-3.4,1-5.2,1h-28.6v20.7h46.2v2.4c0,1.6-0.4,3-0.8,4.4c-0.7,1.4-1.6,2.8-2.6,3.8c-1.2,1.1-2.5,1.9-4,2.6
		c-1.7,0.7-3.4,1-5.2,1h-47.3V11.3z"/>
	<path class="st0" d="M363.6,11.3v78.2c0,1.2-0.6,1.8-1.7,1.8h-9.6c-0.5,0-0.7,0-0.8,0c-0.2,0-0.5-0.1-0.5-0.5l-38.4-51.2v51.8
		h-13.7V11.3h11.6c0.1,0,0.4,0.1,0.7,0.1c0.2,0.1,0.5,0.4,0.7,0.7l37.7,50.8V11.3H363.6z"/>
	<path class="st0" d="M409.3,91.3h-14.2V25.3h-26V11.3h67.4v2.4c0,1.6-0.4,3-0.8,4.4c-0.7,1.5-1.6,2.8-2.6,3.8
		c-1.2,1.1-2.5,1.9-4,2.5c-1.7,0.7-3.4,1-5.2,1h-14.6L409.3,91.3L409.3,91.3z"/>
	<path class="st0" d="M442.3,11.3h58v14.1H456v17.1h41.2v2.4c0,1.6-0.4,3-0.8,4.4c-0.7,1.5-1.6,2.8-2.6,3.8c-1.2,1.1-2.5,1.9-4,2.5
		c-1.7,0.7-3.4,1-5.2,1H456v20.7h46.2v2.4c0,1.6-0.4,3-0.8,4.4c-0.7,1.4-1.6,2.8-2.6,3.8c-1.2,1.1-2.5,1.9-4,2.6
		c-1.7,0.7-3.4,1-5.2,1h-47.3V11.3z"/>
	<path class="st0" d="M512.4,11.3h58v14.1H526v17.1h41.2v2.4c0,1.6-0.4,3-0.8,4.4c-0.7,1.5-1.6,2.8-2.6,3.8c-1.2,1.1-2.5,1.9-4,2.5
		c-1.7,0.7-3.4,1-5.2,1H526v20.7h46.2v2.4c0,1.6-0.4,3-0.8,4.4c-0.7,1.4-1.6,2.8-2.6,3.8c-1.2,1.1-2.5,1.9-4,2.6
		c-1.7,0.7-3.4,1-5.2,1h-47.3V11.3z"/>
	<path class="st0" d="M644.7,11.3v78.2c0,1.2-0.6,1.8-1.7,1.8h-9.6c-0.5,0-0.7,0-0.8,0c-0.2,0-0.5-0.1-0.5-0.5l-38.4-51.2v51.8H580
		V11.3h11.6c0.1,0,0.4,0.1,0.7,0.1c0.2,0.1,0.5,0.4,0.7,0.7l37.7,50.8V11.3H644.7z"/>
	<path class="st1" d="M7.5,82.3V67.6H37c2.4,0,4.6-0.5,6.7-1.6c2-1,3.8-2.3,5.5-4c1.4-1.6,2.8-3.5,3.7-5.7c0.8-2.2,1.3-4.4,1.3-6.8
		H15c-2.2,0-4.1-0.4-5.8-1.2c-1.8-0.7-3.2-1.8-4.4-3.3c-1.3-1.3-2.3-3-2.9-5c-0.7-1.8-1-3.7-1-5.9c0-4.2,0.7-8.4,2.2-12.2
		c1.4-3.8,3.5-7.2,6.2-10.1c2.6-2.9,5.9-5.2,9.6-7c3.6-1.7,7.7-2.5,12.2-2.5h33.4V17H31.2c-2.6,0-4.9,0.5-6.8,1.5
		c-2,1.1-3.7,2.4-4.9,4c-1.4,1.7-2.4,3.6-3,5.7c-0.7,2.2-1.1,4.2-1.1,6.3h39.2c1.9,0,3.8,0.4,5.6,1.1c1.7,0.8,3.2,1.9,4.6,3.3
		c1.2,1.5,2.2,3,2.9,4.8c0.6,1.9,1,3.9,1,6.1c0,4.5-0.8,8.7-2.3,12.6c-1.7,4-3.8,7.4-6.5,10.3c-2.9,3-6,5.3-9.6,7
		c-3.7,1.8-7.7,2.7-11.9,2.7C38.4,82.3,7.5,82.3,7.5,82.3z"/>
	<path class="st1" d="M75.9,2.3h58v14.1H89.6v17.1h41.2v2.4c0,1.6-0.4,3-0.8,4.4c-0.7,1.5-1.6,2.8-2.6,3.8c-1.2,1.1-2.5,1.9-4,2.5
		c-1.7,0.7-3.4,1-5.2,1H89.6v20.7h46.2v2.4c0,1.6-0.4,3-0.8,4.4c-0.7,1.4-1.6,2.8-2.6,3.8c-1.2,1.1-2.5,1.9-4,2.6
		c-1.7,0.7-3.4,1-5.2,1H75.9V2.3z"/>
	<path class="st1" d="M139.5,7.3L152.8,2L177,58.6L201.4,2l13.4,5.2c-2.4,6.4-4.9,12.7-7.6,18.9c-2.8,6.3-5.5,12.5-8.3,18.5
		c-2.9,6.3-5.8,12.5-8.4,18.7c-2.8,6.3-5.3,12.6-7.6,18.9h-11.6L139.5,7.3z"/>
	<path class="st1" d="M221.2,2.3h58v14.1h-44.3v17.1H276v2.4c0,1.6-0.4,3-0.8,4.4c-0.7,1.5-1.6,2.8-2.6,3.8c-1.2,1.1-2.5,1.9-4,2.5
		c-1.7,0.7-3.4,1-5.2,1h-28.6v20.7h46.2v2.4c0,1.6-0.4,3-0.8,4.4c-0.7,1.4-1.6,2.8-2.6,3.8c-1.2,1.1-2.5,1.9-4,2.6
		c-1.7,0.7-3.4,1-5.2,1h-47.3V2.3z"/>
	<path class="st1" d="M353.6,2.3v78.2c0,1.2-0.6,1.8-1.7,1.8h-9.6c-0.5,0-0.7,0-0.8,0c-0.2,0-0.5-0.1-0.5-0.5l-38.4-51.2v51.8h-13.7
		V2.3h11.6c0.1,0,0.4,0.1,0.7,0.1c0.2,0.1,0.5,0.4,0.7,0.7l37.7,50.8V2.3H353.6z"/>
	<path class="st1" d="M399.3,82.3h-14.2V16.3h-26V2.3h67.4v2.4c0,1.6-0.4,3-0.8,4.4c-0.7,1.4-1.6,2.8-2.6,3.8
		c-1.2,1.1-2.5,1.9-4,2.5c-1.7,0.7-3.4,1-5.2,1h-14.6L399.3,82.3L399.3,82.3z"/>
	<path class="st1" d="M432.3,2.3h58v14.1H446v17.1h41.2v2.4c0,1.6-0.4,3-0.8,4.4c-0.7,1.5-1.6,2.8-2.6,3.8c-1.2,1.1-2.5,1.9-4,2.5
		c-1.7,0.7-3.4,1-5.2,1H446v20.7h46.2v2.4c0,1.6-0.4,3-0.8,4.4c-0.7,1.4-1.6,2.8-2.6,3.8c-1.2,1.1-2.5,1.9-4,2.6
		c-1.7,0.7-3.4,1-5.2,1h-47.3V2.3z"/>
	<path class="st1" d="M502.4,2.3h58v14.1H516v17.1h41.2v2.4c0,1.6-0.4,3-0.8,4.4c-0.7,1.5-1.6,2.8-2.6,3.8c-1.2,1.1-2.5,1.9-4,2.5
		c-1.7,0.7-3.4,1-5.2,1H516v20.7h46.2v2.4c0,1.6-0.4,3-0.8,4.4c-0.7,1.4-1.6,2.8-2.6,3.8c-1.2,1.1-2.5,1.9-4,2.6
		c-1.7,0.7-3.4,1-5.2,1h-47.3L502.4,2.3L502.4,2.3z"/>
	<path class="st1" d="M634.7,2.3v78.2c0,1.2-0.6,1.8-1.7,1.8h-9.6c-0.5,0-0.7,0-0.8,0c-0.2,0-0.5-0.1-0.5-0.5l-38.4-51.2v51.8H570
		V2.3h11.6c0.1,0,0.4,0.1,0.7,0.1c0.2,0.1,0.5,0.4,0.7,0.7l37.7,50.8V2.3H634.7z"/>
	<path class="st2" d="M11.2,86V71.3h29.5c2.4,0,4.6-0.5,6.7-1.6c2-1,3.8-2.3,5.5-4c1.4-1.6,2.8-3.5,3.7-5.7c0.8-2.2,1.3-4.4,1.3-6.8
		H18.8c-2.2,0-4.1-0.4-5.8-1.2c-1.8-0.7-3.2-1.8-4.4-3.3c-1.3-1.3-2.3-3-2.9-5c-0.7-1.8-1-3.8-1-5.9c0-4.2,0.7-8.4,2.2-12.2
		c1.4-3.8,3.5-7.1,6.2-10.1c2.6-2.9,5.9-5.2,9.6-7C26.3,6.8,30.4,6,34.9,6h33.4v14.7H35c-2.6,0-4.9,0.5-6.8,1.5
		c-2,1.1-3.7,2.4-4.9,4c-1.4,1.7-2.4,3.6-3,5.7c-0.7,2.2-1.1,4.2-1.1,6.3h39.2c1.9,0,3.8,0.4,5.6,1.1c1.7,0.8,3.2,1.9,4.6,3.3
		c1.2,1.5,2.2,3,2.9,4.8c0.6,1.9,1,3.9,1,6.1c0,4.5-0.8,8.7-2.3,12.6c-1.7,4-3.8,7.4-6.5,10.3c-2.9,3-6,5.3-9.6,7
		c-3.7,1.8-7.7,2.7-11.9,2.7L11.2,86L11.2,86z"/>
	<path class="st2" d="M79.6,6h58V20H93.3v17.1h41.2v2.4c0,1.6-0.4,3-0.8,4.4c-0.7,1.5-1.6,2.8-2.6,3.8c-1.2,1.1-2.5,1.9-4,2.5
		c-1.7,0.7-3.4,1-5.2,1H93.3v20.7h46.2v2.4c0,1.6-0.4,3-0.8,4.4c-0.7,1.4-1.6,2.8-2.6,3.8c-1.2,1.1-2.5,1.9-4,2.6
		c-1.7,0.7-3.4,1-5.2,1H79.6V6z"/>
	<path class="st2" d="M143.2,11l13.3-5.2l24.2,56.6l24.4-56.6l13.4,5.2c-2.4,6.4-4.9,12.7-7.6,18.9c-2.8,6.3-5.5,12.5-8.3,18.5
		c-2.9,6.3-5.8,12.5-8.4,18.7c-2.8,6.3-5.3,12.6-7.6,18.9h-11.6L143.2,11z"/>
	<path class="st2" d="M224.9,6h58V20h-44.3v17.1h41.2v2.4c0,1.6-0.4,3-0.8,4.4c-0.7,1.5-1.6,2.8-2.6,3.8c-1.2,1.1-2.5,1.9-4,2.5
		c-1.7,0.7-3.4,1-5.2,1h-28.6v20.7h46.2v2.4c0,1.6-0.4,3-0.8,4.4c-0.7,1.4-1.6,2.8-2.6,3.8c-1.2,1.1-2.5,1.9-4,2.6
		c-1.7,0.7-3.4,1-5.2,1h-47.3V6z"/>
	<path class="st2" d="M357.3,6v78.2c0,1.2-0.6,1.8-1.7,1.8H346c-0.5,0-0.7,0-0.8,0c-0.2,0-0.5-0.1-0.5-0.5l-38.4-51.2v51.8h-13.7V6
		h11.6c0.1,0,0.4,0.1,0.7,0.1c0.2,0.1,0.5,0.4,0.7,0.7l37.7,50.8V6H357.3z"/>
	<path class="st2" d="M403,86h-14.2V20h-26V6h67.4v2.4c0,1.6-0.4,3-0.8,4.4c-0.7,1.5-1.6,2.8-2.6,3.8c-1.2,1.1-2.5,1.9-4,2.5
		c-1.7,0.7-3.4,1-5.2,1H403L403,86L403,86z"/>
	<path class="st2" d="M436,6h58V20h-44.3v17.1h41.2v2.4c0,1.6-0.4,3-0.8,4.4c-0.7,1.5-1.6,2.8-2.6,3.8c-1.2,1.1-2.5,1.9-4,2.5
		c-1.7,0.7-3.4,1-5.2,1h-28.6v20.7h46.2v2.4c0,1.6-0.4,3-0.8,4.4c-0.7,1.4-1.6,2.8-2.6,3.8c-1.2,1.1-2.5,1.9-4,2.6
		c-1.7,0.7-3.4,1-5.2,1H436V6z"/>
	<path class="st2" d="M506.1,6h58V20h-44.3v17.1h41.2v2.4c0,1.6-0.4,3-0.8,4.4c-0.7,1.5-1.6,2.8-2.6,3.8c-1.2,1.1-2.5,1.9-4,2.5
		c-1.7,0.7-3.4,1-5.2,1h-28.6v20.7h46.2v2.4c0,1.6-0.4,3-0.8,4.4c-0.7,1.4-1.6,2.8-2.6,3.8c-1.2,1.1-2.5,1.9-4,2.6
		c-1.7,0.7-3.4,1-5.2,1h-47.3L506.1,6L506.1,6z"/>
	<path class="st2" d="M638.4,6v78.2c0,1.2-0.6,1.8-1.7,1.8h-9.6c-0.5,0-0.7,0-0.8,0c-0.2,0-0.5-0.1-0.5-0.5l-38.4-51.2v51.8h-13.7V6
		h11.6c0.1,0,0.4,0.1,0.7,0.1c0.2,0.1,0.5,0.4,0.7,0.7l37.7,50.8V6H638.4z"/>
</g>
<g>
	<path class="st0" d="M714.2,92.3h-13.7V12.4h13.7v31.1h38.3V12.4h13.9v79.9h-13.9V51c-1,1.9-2.5,3.5-4.4,4.7c-2,1.3-4.3,1.9-7,1.9
		h-26.9L714.2,92.3L714.2,92.3z"/>
	<path class="st0" d="M775.3,12.4h58v14.1H789v17.1h41.2V46c0,1.6-0.4,3-0.8,4.4c-0.7,1.4-1.6,2.8-2.6,3.8c-1.2,1.1-2.5,1.9-4,2.6
		c-1.7,0.7-3.4,1-5.2,1H789v20.7h46.2v2.4c0,1.6-0.4,3-0.8,4.4c-0.7,1.4-1.6,2.8-2.6,3.8c-1.2,1.1-2.5,1.9-4,2.6
		c-1.7,0.7-3.4,1-5.2,1h-47.3V12.4z"/>
	<path class="st0" d="M894,92.4V57.8c-0.7,2.4-2.2,4.5-4.3,6.1c-2.2,1.7-4.8,2.5-7.8,2.5h-26.6v26.1H841V44.6
		c0-5.1,0.8-9.7,2.8-14.1c1.7-4.1,4.2-7.8,7.3-10.9c3.1-2.9,6.7-5.3,10.9-7c4.1-1.7,8.4-2.6,13-2.6c4.4,0,8.8,0.9,12.8,2.6
		c4,1.7,7.4,4.1,10.6,7.1c3,3.1,5.4,6.8,7.3,10.9c1.7,4.4,2.6,9,2.6,13.9v47.9L894,92.4L894,92.4z M894,46.4c0-3.1-0.5-6.2-1.3-9
		c-1-2.7-2.3-5-4-6.9s-3.7-3.4-6-4.6c-2.4-1-4.9-1.6-7.7-1.6c-2.9,0-5.5,0.6-7.9,1.6c-2.4,1.2-4.6,2.7-6.2,4.6
		c-1.8,1.9-3.1,4.2-4.1,6.9c-1.1,2.8-1.6,5.8-1.6,9v5.7H894L894,46.4L894,46.4z"/>
	<path class="st0" d="M965,92.4V74.9c0-1.4-0.2-2.8-0.7-4.1c-0.5-1.2-1.2-2.4-2-3.4c-1-1-2-1.7-3.2-2.3c-1.3-0.5-2.6-0.9-4.1-0.9
		H949h-19.6v28.2h-13.9v-80H949c4.8,0,9.2,0.5,13.3,1.2c4,0.9,7.4,2.3,10.4,4.2c2.9,2.1,5.2,4.7,6.8,8c1.7,3.4,2.5,7.5,2.5,12.4
		c0,2.3-0.2,4.2-0.6,5.9c-0.5,1.8-1.2,3.4-1.9,4.9c-0.8,1.4-1.8,2.8-2.9,4c-1.2,1.2-2.6,2.4-4.1,3.6l-0.4,0.4c2.2,2.6,4,5.3,5.3,8.2
		c1.2,3,1.8,6.2,1.8,9.6v17.6L965,92.4L965,92.4z M949,50.1c2.3,0,4.6-0.1,7-0.6c2.2-0.2,4.2-1,6.1-1.9c1.7-0.9,3.1-2.1,4.3-3.6
		c1.1-1.4,1.7-3.3,1.7-5.7c0-2.4-0.5-4.5-1.4-6.1c-1.1-1.4-2.4-2.7-4.1-3.6c-1.8-0.7-3.8-1.3-6.1-1.7c-2.4-0.2-4.8-0.4-7.4-0.4
		h-19.6v23.6L949,50.1L949,50.1z"/>
	<path class="st0" d="M1025.5,92.4h-14.2V26.5h-26V12.4h67.4v2.4c0,1.6-0.4,3-0.8,4.4c-0.7,1.4-1.6,2.8-2.6,3.8
		c-1.2,1.1-2.5,1.9-4,2.5c-1.7,0.7-3.4,1-5.2,1h-14.6V92.4L1025.5,92.4z"/>
	<path class="st0" d="M1056,92.4V77.8h29.5c2.4,0,4.6-0.5,6.7-1.6c2-1,3.8-2.3,5.5-4c1.4-1.6,2.8-3.5,3.7-5.7
		c0.8-2.2,1.3-4.4,1.3-6.8h-39.2c-2.2,0-4.1-0.4-5.8-1.2c-1.8-0.7-3.2-1.8-4.4-3.3c-1.3-1.3-2.3-3-2.9-5c-0.7-1.8-1-3.8-1-5.9
		c0-4.2,0.7-8.4,2.2-12.2c1.4-3.8,3.5-7.1,6.2-10.1c2.6-2.9,5.9-5.2,9.6-7c3.6-1.7,7.7-2.5,12.2-2.5h33.4v14.7h-33.4
		c-2.6,0-4.9,0.5-6.8,1.4c-2,1.1-3.7,2.4-4.9,4c-1.4,1.7-2.4,3.6-3,5.7c-0.7,2.2-1.1,4.2-1.1,6.3h39.2c1.9,0,3.8,0.4,5.6,1.1
		c1.7,0.9,3.2,1.9,4.6,3.3c1.2,1.4,2.2,3,2.9,4.9c0.6,1.9,1,3.9,1,6.1c0,4.5-0.8,8.7-2.3,12.6c-1.7,4-3.8,7.4-6.5,10.3
		c-2.9,3-6,5.3-9.6,7c-3.7,1.8-7.7,2.7-11.9,2.7L1056,92.4L1056,92.4z"/>
	<path class="st1" d="M704.2,83.3h-13.7V3.4h13.7v31.2h38.3V3.4h13.9v79.9h-13.9V42c-1,1.9-2.5,3.5-4.4,4.7c-2,1.3-4.3,1.9-7,1.9
		h-26.9C704.2,48.6,704.2,83.3,704.2,83.3z"/>
	<path class="st1" d="M765.3,3.4h58v14.1H779v17.1h41.2V37c0,1.6-0.4,3-0.8,4.4c-0.7,1.4-1.6,2.8-2.6,3.8c-1.2,1.1-2.5,1.9-4,2.6
		c-1.7,0.7-3.4,1-5.2,1H779v20.7h46.2v2.4c0,1.6-0.4,3-0.8,4.4c-0.7,1.4-1.6,2.8-2.6,3.8c-1.2,1.1-2.5,1.9-4,2.6
		c-1.7,0.7-3.4,1-5.2,1h-47.3L765.3,3.4L765.3,3.4z"/>
	<path class="st1" d="M884,83.4V48.8c-0.7,2.4-2.2,4.5-4.3,6.1c-2.2,1.7-4.8,2.5-7.8,2.5h-26.6v26.1H831V35.6
		c0-5.1,0.8-9.7,2.8-14.1c1.7-4.1,4.2-7.8,7.3-10.9c3.1-2.9,6.7-5.3,10.9-7c4.1-1.7,8.4-2.6,13-2.6c4.4,0,8.8,0.8,12.8,2.6
		c4,1.7,7.4,4.1,10.6,7.1c3,3.1,5.4,6.8,7.3,10.9c1.7,4.4,2.6,9,2.6,13.9v47.9L884,83.4L884,83.4z M884,37.4c0-3.1-0.5-6.2-1.3-9
		c-1-2.7-2.3-5-4-6.9s-3.7-3.4-6-4.6c-2.4-1-4.9-1.6-7.7-1.6c-2.9,0-5.5,0.6-7.9,1.6c-2.4,1.2-4.6,2.7-6.2,4.6
		c-1.8,1.9-3.1,4.2-4.1,6.9c-1.1,2.8-1.6,5.8-1.6,9v5.7H884L884,37.4L884,37.4z"/>
	<path class="st1" d="M955,83.4V65.9c0-1.4-0.2-2.8-0.7-4.1c-0.5-1.2-1.2-2.4-2-3.4c-1-1-2-1.7-3.2-2.3c-1.3-0.5-2.6-0.9-4.1-0.9
		H939h-19.6v28.2h-13.9v-80H939c4.8,0,9.2,0.5,13.3,1.2c4,0.8,7.4,2.3,10.4,4.2c2.9,2.1,5.2,4.7,6.8,8c1.7,3.4,2.5,7.5,2.5,12.4
		c0,2.3-0.2,4.2-0.6,5.9c-0.5,1.8-1.2,3.4-1.9,4.9c-0.8,1.4-1.8,2.8-2.9,4c-1.2,1.2-2.6,2.4-4.1,3.6l-0.4,0.4c2.2,2.6,4,5.3,5.3,8.2
		c1.2,3,1.8,6.2,1.8,9.6v17.6L955,83.4L955,83.4z M939,41.1c2.3,0,4.6-0.1,7-0.6c2.2-0.2,4.2-1,6.1-1.9c1.7-0.9,3.1-2.1,4.3-3.6
		c1.1-1.4,1.7-3.3,1.7-5.7c0-2.4-0.5-4.5-1.4-6.1c-1.1-1.4-2.4-2.7-4.1-3.6c-1.8-0.7-3.8-1.3-6.1-1.7c-2.4-0.2-4.8-0.4-7.4-0.4
		h-19.6v23.6L939,41.1L939,41.1z"/>
	<path class="st1" d="M1015.5,83.4h-14.2V17.5h-26V3.4h67.4v2.4c0,1.6-0.4,3-0.8,4.4c-0.7,1.4-1.6,2.8-2.6,3.8
		c-1.2,1.1-2.5,1.9-4,2.5c-1.7,0.7-3.4,1-5.2,1h-14.6V83.4L1015.5,83.4z"/>
	<path class="st1" d="M1046,83.4V68.8h29.5c2.4,0,4.6-0.5,6.7-1.6c2-1,3.8-2.3,5.5-4c1.4-1.6,2.8-3.5,3.7-5.7
		c0.8-2.2,1.3-4.4,1.3-6.8h-39.2c-2.2,0-4.1-0.4-5.8-1.2c-1.8-0.7-3.2-1.8-4.4-3.3c-1.3-1.3-2.3-3-2.9-5c-0.7-1.8-1-3.8-1-5.9
		c0-4.2,0.7-8.4,2.2-12.2c1.4-3.8,3.5-7.1,6.2-10.1c2.6-2.9,5.9-5.2,9.6-7c3.6-1.7,7.7-2.5,12.2-2.5h33.4v14.7h-33.4
		c-2.6,0-4.9,0.5-6.8,1.4c-2,1.1-3.7,2.4-4.9,4c-1.4,1.7-2.4,3.6-3,5.7c-0.7,2.2-1.1,4.2-1.1,6.3h39.2c1.9,0,3.8,0.4,5.6,1.1
		c1.7,0.9,3.2,1.9,4.6,3.3c1.2,1.4,2.2,3,2.9,4.9c0.6,1.9,1,3.9,1,6.1c0,4.5-0.8,8.7-2.3,12.6c-1.7,4-3.8,7.4-6.5,10.3
		c-2.9,3-6,5.3-9.6,7c-3.7,1.8-7.7,2.7-11.9,2.7L1046,83.4L1046,83.4z"/>
	<path class="st2" d="M707.9,87h-13.7V7.1h13.7v31.2h38.3V7.1h13.9V87h-13.9V45.7c-1,1.9-2.5,3.5-4.4,4.7c-2,1.3-4.3,1.9-7,1.9
		h-26.9L707.9,87L707.9,87z"/>
	<path class="st2" d="M769,7.1h58v14.1h-44.3v17.1h41.2v2.4c0,1.6-0.4,3-0.8,4.4c-0.7,1.4-1.6,2.8-2.6,3.8c-1.2,1.1-2.5,1.9-4,2.6
		c-1.7,0.7-3.4,1-5.2,1h-28.6v20.7h46.2v2.4c0,1.6-0.4,3-0.8,4.4c-0.7,1.4-1.6,2.8-2.6,3.8c-1.2,1.1-2.5,1.9-4,2.6
		c-1.7,0.7-3.4,1-5.2,1H769V7.1L769,7.1z"/>
	<path class="st2" d="M887.7,87.1V52.5c-0.7,2.4-2.2,4.5-4.3,6.1c-2.2,1.7-4.8,2.5-7.8,2.5h-26.6v26.1h-14.2V39.3
		c0-5.1,0.8-9.7,2.8-14.1c1.7-4.1,4.2-7.8,7.3-10.9c3.1-2.9,6.7-5.3,10.9-7c4.1-1.7,8.4-2.6,13-2.6c4.4,0,8.8,0.8,12.8,2.6
		c4,1.7,7.4,4.1,10.6,7.1c3,3.1,5.4,6.8,7.3,10.9c1.7,4.4,2.6,9,2.6,13.9v47.9L887.7,87.1L887.7,87.1z M887.7,41.1
		c0-3.1-0.5-6.2-1.3-9c-1-2.7-2.3-5-4-6.9c-1.7-1.9-3.7-3.4-6-4.6c-2.4-1-4.9-1.6-7.7-1.6c-2.9,0-5.5,0.6-7.9,1.6
		c-2.4,1.2-4.6,2.7-6.2,4.6c-1.8,1.9-3.1,4.2-4.1,6.9c-1.1,2.8-1.6,5.8-1.6,9v5.7h38.8L887.7,41.1L887.7,41.1z"/>
	<path class="st2" d="M958.7,87.1V69.6c0-1.4-0.2-2.8-0.7-4.1c-0.5-1.2-1.2-2.4-2-3.4c-1-1-2-1.7-3.2-2.3c-1.3-0.5-2.6-0.9-4.1-0.9
		h-5.9h-19.6v28.2h-13.9v-80h33.5c4.8,0,9.2,0.5,13.3,1.2c4,0.8,7.4,2.3,10.4,4.2c2.9,2.1,5.2,4.7,6.8,8c1.7,3.4,2.5,7.5,2.5,12.4
		c0,2.3-0.2,4.2-0.6,5.9c-0.5,1.8-1.2,3.4-1.9,4.9c-0.8,1.4-1.8,2.8-2.9,4c-1.2,1.2-2.6,2.4-4.1,3.6l-0.4,0.4c2.2,2.6,4,5.3,5.3,8.2
		c1.2,3,1.8,6.2,1.8,9.6v17.6L958.7,87.1L958.7,87.1z M942.8,44.8c2.3,0,4.6-0.1,7-0.6c2.2-0.2,4.2-1,6.1-1.9
		c1.7-0.9,3.1-2.1,4.3-3.6c1.1-1.4,1.7-3.3,1.7-5.7c0-2.4-0.5-4.5-1.4-6.1c-1.1-1.4-2.4-2.7-4.1-3.6c-1.8-0.7-3.8-1.3-6.1-1.7
		c-2.4-0.2-4.8-0.4-7.4-0.4h-19.6v23.6L942.8,44.8L942.8,44.8z"/>
	<path class="st2" d="M1019.2,87.1H1005V21.2h-26V7.1h67.4v2.4c0,1.6-0.4,3-0.8,4.4c-0.7,1.4-1.6,2.8-2.6,3.8
		c-1.2,1.1-2.5,1.9-4,2.5c-1.7,0.7-3.4,1-5.2,1h-14.6L1019.2,87.1L1019.2,87.1z"/>
	<path class="st2" d="M1049.7,87.1V72.5h29.5c2.4,0,4.6-0.5,6.7-1.6c2-1,3.8-2.3,5.5-4c1.4-1.6,2.8-3.5,3.7-5.7
		c0.8-2.2,1.3-4.4,1.3-6.8h-39.2c-2.2,0-4.1-0.4-5.8-1.2c-1.8-0.7-3.2-1.8-4.4-3.3c-1.3-1.3-2.3-3-2.9-5c-0.7-1.8-1-3.8-1-5.9
		c0-4.2,0.7-8.4,2.2-12.2c1.4-3.8,3.5-7.1,6.2-10.1c2.6-2.9,5.9-5.2,9.6-7c3.6-1.7,7.7-2.5,12.2-2.5h33.4v14.7h-33.4
		c-2.6,0-4.9,0.5-6.8,1.4c-2,1.1-3.7,2.4-4.9,4c-1.4,1.7-2.4,3.6-3,5.7c-0.7,2.2-1.1,4.2-1.1,6.3h39.2c1.9,0,3.8,0.4,5.6,1.1
		c1.7,0.9,3.2,1.9,4.6,3.3c1.2,1.4,2.2,3,2.9,4.9c0.6,1.9,1,3.9,1,6.1c0,4.5-0.8,8.7-2.3,12.6c-1.7,4-3.8,7.4-6.5,10.3
		c-2.9,3-6,5.3-9.6,7c-3.7,1.8-7.7,2.7-11.9,2.7L1049.7,87.1L1049.7,87.1z"/>
</g>
<g>
	<path class="st0" d="M1173,92.4v-80h58v14.1h-44.3v17.1h41.2V46c0,1.6-0.4,3-0.8,4.4c-0.7,1.5-1.6,2.8-2.6,3.8
		c-1.2,1.1-2.5,1.9-4,2.5c-1.7,0.7-3.4,1-5.2,1h-28.6v34.8L1173,92.4L1173,92.4z"/>
	<path class="st0" d="M1239.3,12.4h58v14.1H1253v17.1h41.2V46c0,1.6-0.4,3-0.8,4.4c-0.7,1.5-1.6,2.8-2.6,3.8c-1.2,1.1-2.5,1.9-4,2.5
		c-1.7,0.7-3.4,1-5.2,1H1253v20.7h46.2v2.4c0,1.6-0.4,3-0.8,4.4c-0.7,1.5-1.6,2.8-2.6,3.8c-1.2,1.1-2.5,1.9-4,2.5
		c-1.7,0.7-3.4,1-5.2,1h-47.3V12.4z"/>
	<path class="st0" d="M1308,92.4V77.8h29.5c2.4,0,4.6-0.5,6.7-1.6c2-1,3.8-2.3,5.5-4c1.4-1.6,2.8-3.5,3.7-5.7
		c0.8-2.2,1.3-4.4,1.3-6.8h-39.2c-2.2,0-4.1-0.4-5.8-1.2c-1.8-0.7-3.2-1.8-4.4-3.3c-1.3-1.3-2.3-3-2.9-5c-0.7-1.8-1-3.8-1-5.9
		c0-4.2,0.7-8.4,2.2-12.2c1.4-3.8,3.5-7.1,6.2-10.1c2.6-2.9,5.9-5.2,9.6-7c3.6-1.7,7.7-2.5,12.2-2.5h33.4v14.7h-33.4
		c-2.6,0-4.9,0.5-6.8,1.5c-2,1.1-3.7,2.4-4.9,4c-1.4,1.7-2.4,3.6-3,5.7c-0.7,2.2-1.1,4.2-1.1,6.3h39.2c1.9,0,3.8,0.4,5.6,1.1
		c1.7,0.9,3.2,1.9,4.6,3.3c1.2,1.5,2.2,3,2.9,4.9c0.6,1.9,1,3.9,1,6.1c0,4.5-0.8,8.7-2.3,12.6c-1.7,4-3.8,7.4-6.5,10.3
		c-2.9,3-6,5.3-9.6,7c-3.7,1.8-7.7,2.7-11.9,2.7H1308z"/>
	<path class="st0" d="M1413,92.4h-14.2V26.5h-26V12.4h67.4v2.4c0,1.6-0.4,3-0.8,4.4c-0.7,1.5-1.6,2.8-2.6,3.8
		c-1.2,1.1-2.5,1.9-4,2.5c-1.7,0.7-3.4,1-5.2,1H1413V92.4L1413,92.4z"/>
	<path class="st0" d="M1445.2,92.3V12.4h14.4v79.9H1445.2z"/>
	<path class="st0" d="M1465.3,17.4l13.3-5.2l24.2,56.6l24.4-56.6l13.4,5.2c-2.4,6.4-4.9,12.7-7.6,18.9c-2.8,6.3-5.5,12.5-8.3,18.5
		c-2.9,6.3-5.8,12.5-8.4,18.7c-2.8,6.3-5.3,12.6-7.6,18.9h-11.6L1465.3,17.4z"/>
	<path class="st0" d="M1594.8,92.4V57.8c-0.7,2.4-2.2,4.5-4.3,6.1c-2.2,1.7-4.8,2.5-7.8,2.5H1556v26.1h-14.2V44.6
		c0-5.1,0.8-9.7,2.8-14.1c1.7-4.1,4.2-7.8,7.3-10.9c3.1-2.9,6.7-5.3,10.9-7c4.1-1.7,8.4-2.6,13-2.6c4.4,0,8.8,0.9,12.8,2.6
		c4,1.7,7.4,4.1,10.6,7.1c3,3.1,5.4,6.8,7.3,10.9c1.7,4.4,2.6,9,2.6,13.9v47.9H1594.8z M1594.8,46.4c0-3.1-0.5-6.2-1.3-9
		c-1-2.7-2.3-5-4-6.9c-1.7-1.9-3.7-3.4-6-4.6c-2.4-1-4.9-1.6-7.7-1.6c-2.9,0-5.5,0.6-7.9,1.6c-2.4,1.2-4.6,2.7-6.2,4.6
		c-1.8,1.9-3.1,4.2-4.1,6.9c-1.1,2.8-1.6,5.8-1.6,9v5.7h38.8L1594.8,46.4L1594.8,46.4z"/>
	<path class="st0" d="M1618.8,92.4v-80h13.7v65.9h46.9v2.4c0,1.6-0.4,3-0.8,4.4c-0.7,1.5-1.6,2.8-2.6,3.8c-1.2,1.1-2.5,1.9-4,2.5
		c-1.7,0.7-3.4,1-5.2,1L1618.8,92.4L1618.8,92.4z"/>
	<path class="st1" d="M1163,83.4v-80h58v14.1h-44.3v17.1h41.2V37c0,1.6-0.4,3-0.8,4.4c-0.7,1.5-1.6,2.8-2.6,3.8
		c-1.2,1.1-2.5,1.9-4,2.5c-1.7,0.7-3.4,1-5.2,1h-28.6v34.8L1163,83.4L1163,83.4z"/>
	<path class="st1" d="M1229.3,3.4h58v14.1H1243v17.1h41.2V37c0,1.6-0.4,3-0.8,4.4c-0.7,1.5-1.6,2.8-2.6,3.8c-1.2,1.1-2.5,1.9-4,2.5
		c-1.7,0.7-3.4,1-5.2,1H1243v20.7h46.2v2.4c0,1.6-0.4,3-0.8,4.4c-0.7,1.5-1.6,2.8-2.6,3.8c-1.2,1.1-2.5,1.9-4,2.5
		c-1.7,0.7-3.4,1-5.2,1h-47.3V3.4z"/>
	<path class="st1" d="M1298,83.4V68.8h29.5c2.4,0,4.6-0.5,6.7-1.6c2-1,3.8-2.3,5.5-4c1.4-1.6,2.8-3.5,3.7-5.7
		c0.8-2.2,1.3-4.4,1.3-6.8h-39.2c-2.2,0-4.1-0.4-5.8-1.2c-1.8-0.7-3.2-1.8-4.4-3.3c-1.3-1.3-2.3-3-2.9-5c-0.7-1.8-1-3.8-1-5.9
		c0-4.2,0.7-8.4,2.2-12.2c1.4-3.8,3.5-7.1,6.2-10.1c2.6-2.9,5.9-5.2,9.6-7c3.6-1.7,7.7-2.5,12.2-2.5h33.4v14.7h-33.4
		c-2.6,0-4.9,0.5-6.8,1.5c-2,1.1-3.7,2.4-4.9,4c-1.4,1.7-2.4,3.6-3,5.7c-0.7,2.2-1.1,4.2-1.1,6.3h39.2c1.9,0,3.8,0.4,5.6,1.1
		c1.7,0.9,3.2,1.9,4.6,3.3c1.2,1.5,2.2,3,2.9,4.9c0.6,1.9,1,3.9,1,6.1c0,4.5-0.8,8.7-2.3,12.6c-1.7,4-3.8,7.4-6.5,10.3
		c-2.9,3-6,5.3-9.6,7c-3.7,1.8-7.7,2.7-11.9,2.7H1298z"/>
	<path class="st1" d="M1403,83.4h-14.2V17.5h-26V3.4h67.4v2.4c0,1.6-0.4,3-0.8,4.4c-0.7,1.4-1.6,2.8-2.6,3.8c-1.2,1.1-2.5,1.9-4,2.5
		c-1.7,0.7-3.4,1-5.2,1H1403V83.4L1403,83.4z"/>
	<path class="st1" d="M1435.2,83.3V3.4h14.4v79.9H1435.2z"/>
	<path class="st1" d="M1455.3,8.4l13.3-5.2l24.2,56.6l24.4-56.6l13.4,5.2c-2.4,6.4-4.9,12.7-7.6,18.9c-2.8,6.3-5.5,12.5-8.3,18.5
		c-2.9,6.3-5.8,12.5-8.4,18.7c-2.8,6.3-5.3,12.6-7.6,18.9h-11.6L1455.3,8.4z"/>
	<path class="st1" d="M1584.8,83.4V48.8c-0.7,2.4-2.2,4.5-4.3,6.1c-2.2,1.7-4.8,2.5-7.8,2.5H1546v26.1h-14.2V35.6
		c0-5.1,0.8-9.7,2.8-14.1c1.7-4.1,4.2-7.8,7.3-10.9c3.1-2.9,6.7-5.3,10.9-7c4.1-1.7,8.4-2.6,13-2.6c4.4,0,8.8,0.9,12.8,2.6
		c4,1.7,7.4,4.1,10.6,7.1c3,3.1,5.4,6.8,7.3,10.9c1.7,4.4,2.6,9,2.6,13.9v47.9H1584.8z M1584.8,37.4c0-3.1-0.5-6.2-1.3-9
		c-1-2.7-2.3-5-4-6.9c-1.7-1.9-3.7-3.4-6-4.6c-2.4-1-4.9-1.6-7.7-1.6c-2.9,0-5.5,0.6-7.9,1.6c-2.4,1.2-4.6,2.7-6.2,4.6
		c-1.8,1.9-3.1,4.2-4.1,6.9c-1.1,2.8-1.6,5.8-1.6,9v5.7h38.8L1584.8,37.4L1584.8,37.4z"/>
	<path class="st1" d="M1608.8,83.4v-80h13.7v65.9h46.9v2.4c0,1.6-0.4,3-0.8,4.4c-0.7,1.5-1.6,2.8-2.6,3.8c-1.2,1.1-2.5,1.9-4,2.5
		c-1.7,0.7-3.4,1-5.2,1L1608.8,83.4L1608.8,83.4z"/>
	<path class="st2" d="M1166.7,87.1v-80h58v14.1h-44.3v17.1h41.2v2.4c0,1.6-0.4,3-0.8,4.4c-0.7,1.5-1.6,2.8-2.6,3.8
		c-1.2,1.1-2.5,1.9-4,2.5c-1.7,0.7-3.4,1-5.2,1h-28.6v34.8L1166.7,87.1L1166.7,87.1z"/>
	<path class="st2" d="M1233,7.1h58v14.1h-44.3v17.1h41.2v2.4c0,1.6-0.4,3-0.8,4.4c-0.7,1.5-1.6,2.8-2.6,3.8c-1.2,1.1-2.5,1.9-4,2.5
		c-1.7,0.7-3.4,1-5.2,1h-28.6v20.7h46.2v2.4c0,1.6-0.4,3-0.8,4.4c-0.7,1.5-1.6,2.8-2.6,3.8c-1.2,1.1-2.5,1.9-4,2.5
		c-1.7,0.7-3.4,1-5.2,1H1233V7.1z"/>
	<path class="st2" d="M1301.7,87.1V72.5h29.5c2.4,0,4.6-0.5,6.7-1.6c2-1,3.8-2.3,5.5-4c1.4-1.6,2.8-3.5,3.7-5.7
		c0.8-2.2,1.3-4.4,1.3-6.8h-39.2c-2.2,0-4.1-0.4-5.8-1.2c-1.8-0.7-3.2-1.8-4.4-3.3c-1.3-1.3-2.3-3-2.9-5c-0.7-1.8-1-3.8-1-5.9
		c0-4.2,0.7-8.4,2.2-12.2c1.4-3.8,3.5-7.1,6.2-10.1c2.6-2.9,5.9-5.2,9.6-7c3.6-1.7,7.7-2.5,12.2-2.5h33.4v14.7h-33.4
		c-2.6,0-4.9,0.5-6.8,1.5c-2,1.1-3.7,2.4-4.9,4c-1.4,1.7-2.4,3.6-3,5.7c-0.7,2.2-1.1,4.2-1.1,6.3h39.2c1.9,0,3.8,0.4,5.6,1.1
		c1.7,0.9,3.2,1.9,4.6,3.3c1.2,1.5,2.2,3,2.9,4.9c0.6,1.9,1,3.9,1,6.1c0,4.5-0.8,8.7-2.3,12.6c-1.7,4-3.8,7.4-6.5,10.3
		c-2.9,3-6,5.3-9.6,7c-3.7,1.8-7.7,2.7-11.9,2.7L1301.7,87.1L1301.7,87.1z"/>
	<path class="st2" d="M1406.7,87.1h-14.2V21.2h-26V7.1h67.4v2.4c0,1.6-0.4,3-0.8,4.4c-0.7,1.5-1.6,2.8-2.6,3.8
		c-1.2,1.1-2.5,1.9-4,2.5c-1.7,0.7-3.4,1-5.2,1h-14.6V87.1L1406.7,87.1z"/>
	<path class="st2" d="M1439,87V7.1h14.4V87H1439z"/>
	<path class="st2" d="M1459,12.1l13.3-5.2l24.2,56.6l24.4-56.6l13.4,5.2c-2.4,6.4-4.9,12.7-7.6,18.9c-2.8,6.3-5.5,12.5-8.3,18.5
		c-2.9,6.3-5.8,12.5-8.4,18.7c-2.8,6.3-5.3,12.6-7.6,18.9h-11.6L1459,12.1z"/>
	<path class="st2" d="M1588.5,87.1V52.5c-0.7,2.4-2.2,4.5-4.3,6.1c-2.2,1.7-4.8,2.5-7.8,2.5h-26.6v26.1h-14.2V39.3
		c0-5.1,0.8-9.7,2.8-14.1c1.7-4.1,4.2-7.8,7.3-10.9c3.1-2.9,6.7-5.3,10.9-7c4.1-1.7,8.4-2.6,13-2.6c4.4,0,8.8,0.9,12.8,2.6
		c4,1.7,7.4,4.1,10.6,7.1c3,3.1,5.4,6.8,7.3,10.9c1.7,4.4,2.6,9,2.6,13.9v47.9H1588.5z M1588.5,41.1c0-3.1-0.5-6.2-1.3-9
		c-1-2.7-2.3-5-4-6.9c-1.7-1.9-3.7-3.4-6-4.6c-2.4-1-4.9-1.6-7.7-1.6c-2.9,0-5.5,0.6-7.9,1.6c-2.4,1.2-4.6,2.7-6.2,4.6
		c-1.8,1.9-3.1,4.2-4.1,6.9c-1.1,2.8-1.6,5.8-1.6,9v5.7h38.8V41.1L1588.5,41.1z"/>
	<path class="st2" d="M1612.5,87.1v-80h13.7v65.9h46.9v2.4c0,1.6-0.4,3-0.8,4.4c-0.7,1.5-1.6,2.8-2.6,3.8c-1.2,1.1-2.5,1.9-4,2.5
		c-1.7,0.7-3.4,1-5.2,1H1612.5z"/>
</g>
</svg>
