<svg id="_레이어_" data-name="&lt;레이어&gt;" xmlns="http://www.w3.org/2000/svg" viewBox="0 0 922.24 126.73"><defs><style>.cls-1{fill:#07407d;}</style></defs><path class="cls-1" d="M1511.65,1133.71c2.57-.5,4.29-.49,4.89.16a1.6,1.6,0,0,1,0,2,12.68,12.68,0,0,1-1.07,1.47c-21.89,25.78-38.55,63.85-43.3,74.83-.35.77-.72,1.52-1,2a2.46,2.46,0,0,1-2.06,1.48,4.61,4.61,0,0,1-2.59-.83c-14.53-9-23.15-20.12-23.15-32.23,0-21.86,28.1-40.64,68.28-48.85m22.43,16.43c2.06-4.77,5.63-15,13.78-19a20.36,20.36,0,0,1,8.25-1.9h1.25c22.82,0,44.07,3.16,61.89,8.58.14.06.55.22.67.25,1.64.55,2.48,1.32,2.48,2.24a2.8,2.8,0,0,1-1,2c-.28.26-.62.58-1.13,1-4.11,3.44-16.48,12.38-39.81,21.29-8.18,3.14-18.4,7-29.1,9.3-6.28,1.33-29.56,4.88-17.28-23.74m108.75.82a2.49,2.49,0,0,1,2.06-1.49,4.72,4.72,0,0,1,2.6.85c14.5,9,23.14,20.12,23.14,32.24,0,21.86-28.12,40.63-68.27,48.84-2.6.49-4.29.49-4.89-.16a1.57,1.57,0,0,1,0-2,9.23,9.23,0,0,1,1.06-1.47c21.9-25.8,38.56-63.87,43.28-74.84.37-.77.72-1.51,1-2m-62.53,63.9c-2.06,4.78-5.61,15-13.79,19.06a20.37,20.37,0,0,1-8.27,1.88c-.6,0-1,0-1.2,0-22.85,0-44.09-3.16-61.91-8.58l-.67-.27c-1.65-.55-2.48-1.29-2.48-2.23a2.73,2.73,0,0,1,1-2,11.81,11.81,0,0,1,1.11-1c4.1-3.44,16.5-12.4,39.8-21.32,8.18-3.13,18.42-7,29.11-9.29,6.27-1.32,29.56-4.86,17.28,23.73M1557,1245.94c68.33,0,123.73-28.37,123.73-63.36s-55.4-63.38-123.73-63.38-123.74,28.35-123.74,63.38S1488.69,1245.94,1557,1245.94Z" transform="translate(-1433.27 -1119.2)"/><polygon class="cls-1" points="357.43 18.09 357.43 52.58 318.32 52.58 318.32 18.09 296.77 18.09 296.77 108.63 318.32 108.63 318.32 72.22 357.43 72.22 357.43 108.63 378.98 108.63 378.98 18.09 377.89 18.09 357.43 18.09"/><polygon class="cls-1" points="457.98 18.09 435.46 53.95 412.92 18.09 387.48 18.09 424.69 77.28 424.69 108.63 446.24 108.63 446.24 77.28 483.4 18.09 481.45 18.09 457.98 18.09"/><path class="cls-1" d="M1986,1137.3v66.35a4.47,4.47,0,0,1-4.57,4.58h-34.54V1137.3h-21.52v90.53H1989c5.68,0,10.22-1.69,13.56-5s5-7.88,5-13.52v-72H1986Z" transform="translate(-1433.27 -1119.2)"/><path class="cls-1" d="M2091.18,1137.3h-63.69v90.53H2049V1156.9h34.57a4.47,4.47,0,0,1,4.54,4.54v66.39h21.53v-72c0-5.66-1.67-10.22-5-13.52S2096.83,1137.3,2091.18,1137.3Z" transform="translate(-1433.27 -1119.2)"/><path class="cls-1" d="M2190.27,1161.6v42a4.56,4.56,0,0,1-4.59,4.68h-34.5V1156.9h34.39a4.51,4.51,0,0,1,4.7,4.7m3-24.3h-63.67v90.53h63.67c5.67,0,10.21-1.69,13.53-5s5-7.85,5-13.52v-53.51c0-5.66-1.67-10.22-5-13.52S2199,1137.3,2193.31,1137.3Z" transform="translate(-1433.27 -1119.2)"/><path class="cls-1" d="M2291.47,1156.9v23.32h-39.11v-18.71a4.57,4.57,0,0,1,4.57-4.61h34.54m-42.12-19.6c-5.65,0-10.22,1.68-13.53,5s-5,7.86-5,13.51v72h21.52v-28h39.11v28H2313V1137.3h-63.65Z" transform="translate(-1433.27 -1119.2)"/><polygon class="cls-1" points="921.18 18.09 900.72 18.09 900.72 108.63 922.24 108.63 922.24 18.09 921.18 18.09"/></svg>