<?xml version="1.0" encoding="utf-8"?>
<!-- Generator: Adobe Illustrator 26.0.1, SVG Export Plug-In . SVG Version: 6.00 Build 0)  -->
<svg version="1.2" baseProfile="tiny" id="icon" xmlns="http://www.w3.org/2000/svg" xmlns:xlink="http://www.w3.org/1999/xlink"
	 x="0px" y="0px" viewBox="0 0 177 154.8" overflow="visible" xml:space="preserve">
<g>
	<path fill="#FFFFFF" d="M75.9,56.8c-2,0-3.7,1.4-4.3,3.2h8.5C79.4,58.1,77.7,56.8,75.9,56.8z"/>
	<path fill="#FFFFFF" d="M87.1,89.6c2.6,0,4.7-2.1,4.7-4.7c0-2.7-2.1-4.7-4.7-4.7c-2.6,0-4.6,2.1-4.6,4.7
		C82.5,87.5,84.5,89.6,87.1,89.6z"/>
	<path fill="#FFFFFF" d="M128.2,56.8c-2,0-3.7,1.4-4.3,3.2h8.5C131.7,58.1,130.1,56.8,128.2,56.8z"/>
	<path fill="#FFFFFF" d="M113.2,56.8c-2,0-3.7,1.3-4.3,3.2h8.5C116.8,58.1,115.1,56.8,113.2,56.8z"/>
	<path fill="#FFFFFF" d="M164.7,43.7C164.7,43.7,164.7,43.7,164.7,43.7l-6.1,0.4L164.7,43.7z"/>
	<path fill="#FFFFFF" d="M72.3,79.9c-2,0-3.7,1.3-4.3,3.2h8.5C75.8,81.1,74.1,79.9,72.3,79.9z"/>
	<polygon fill="#FFFFFF" points="78.5,136.8 78.6,136.8 76.4,127.4 	"/>
	<path fill="#FFFFFF" d="M47.5,56.8c-2,0-3.7,1.4-4.3,3.2h8.5C51.1,58.1,49.4,56.8,47.5,56.8z"/>
	<path fill="#FFFFFF" d="M97.1,137.2L97.1,137.2l-1.4-6.1L97.1,137.2z"/>
	<path fill="#FFFFFF" d="M53,16.3c-1.7-0.1-4.3,0.4-5.9,0.6l0,0c-5.7,0.9-10.6,3.2-14.8,6.4c-2.4,1.8-4.5,3.9-6.3,6.3
		c-6.2,7.8-9.4,17.8-9.4,26.2c0,1.8,0.5,4.3,0.9,5.7C20.6,75,29.7,84.8,36.5,91.9c5.5,5.8,11.9,11.6,18.3,17.4
		c8.3,7.6,11.3,10,21.6,18c4.2,3.3,8.3,6.3,12.1,9c2.3-1.6,4.7-3.4,7.2-5.3c10.5-7.9,21.9-17.3,32.2-27.1
		c7.6-7.2,14.5-14.6,20.1-21.8v-0.1c7.1-9.1,11.7-17.7,12.4-24.8h0c0-0.5,0.1-1,0.1-1.6c0-3.7-0.6-7.7-1.8-11.7
		c-0.4-1.4-0.9-2.7-1.4-4c-7.2-17.6-18.1-22-29.4-23.4c-3.8-0.5-8.2,0-13.3,1.6c-8,2.5-12.8,8.2-15.5,12.2c-1.8,2.7-2.6,4.7-2.8,5
		c-2.1,4.5-4.7,5-7.6,5c-2.2,0-5.6-0.4-7.9-5c-1.3-2.6-4.4-11.3-15.6-16.2C61.2,17.6,57.2,16.5,53,16.3z M113.2,54.8
		c4.3,0,6.7,3.9,6.7,6.2c0,0.5-0.4,1-1,1h-10.2c0.2,1.9,2.1,4.2,4.6,4.2c1.9,0,3.7-0.8,4.5-2.4c0.6-1,2.4-0.3,1.6,1.1
		c-0.9,1.8-3.2,3.3-6.1,3.3c-3.7,0-6.6-3-6.6-6.7C106.6,57.8,109.5,54.8,113.2,54.8z M75.9,54.8c4.3,0,6.6,3.9,6.6,6.2
		c0,0.6-0.4,1-1,1H71.3c0.2,1.9,2.1,4.2,4.6,4.2c1.9,0,3.7-0.8,4.5-2.4c0.6-1,2.3-0.3,1.6,1.1c-1,1.7-3.2,3.3-6.1,3.3
		c-3.7,0-6.6-3-6.6-6.7C69.3,57.8,72.2,54.8,75.9,54.8z M57,55.7l4.7,10.1l4.7-10.1c0.4-1.1,2.4-0.5,1.8,0.9L63,67.7
		c-0.3,0.4-0.5,0.7-1,0.6h-0.7c-0.5,0-0.7-0.3-1-0.7l-5.1-11C54.7,55.3,56.6,54.6,57,55.7z M33.9,68.3c-2.5,0-4.6-1-6.1-3.4
		c-0.8-1.3,1-2.1,1.6-1.2c1.3,1.9,2.3,2.5,4.4,2.5c2,0,3.5-1.4,3.5-3.2c0-2.2-2.2-2.9-4.8-3.7c-2.3-0.7-4-2.2-4-4.5
		c0-2.1,1.7-4.6,4.7-4.6c2.4,0,4.3,1.3,5,3.2c0.6,1.6-1.3,1.9-1.7,0.8c-0.6-1.2-1.7-1.9-3.3-1.9c-1.8,0-2.6,1.3-2.6,2.5
		c0,1.8,1.7,2.3,3.4,2.9c2.7,0.9,5.4,2.1,5.4,5.4C39.4,65.9,37,68.4,33.9,68.3z M40.9,61.6c0-3.8,2.9-6.8,6.6-6.8
		c4.3,0,6.6,3.9,6.6,6.2c0,0.6-0.4,1-1,1H42.9c0.2,1.9,2.1,4.2,4.6,4.2c1.9,0,3.7-0.8,4.5-2.4c0.6-1,2.3-0.3,1.6,1.1
		c-1,1.7-3.2,3.3-6.1,3.3C43.8,68.3,40.9,65.3,40.9,61.6z M63.5,90.3c0,1.5-1.9,1.5-1.9,0v-7h-8.2v7c0,1.5-2,1.5-2,0v-16
		c0-1.5,2-1.5,2,0v6.8h8.2v-6.8c0-1.5,1.9-1.5,1.9,0V90.3z M77.9,85.1H67.6c0.2,1.9,2.1,4.2,4.6,4.2c2,0,3.7-0.8,4.5-2.4
		c0.6-1,2.4-0.3,1.6,1.1c-1,1.8-3.2,3.3-6.1,3.3c-3.7,0-6.6-3-6.6-6.7s2.9-6.8,6.6-6.8c4.3,0,6.6,3.9,6.6,6.2
		C78.9,84.6,78.5,85.1,77.9,85.1z M93.8,90.7c0,1.5-2,1.5-2,0v-0.8c-1.3,1.2-2.9,1.8-4.7,1.8c-3.8,0-6.6-3-6.6-6.7
		c0-3.7,2.8-6.7,6.6-6.7c2.4,0,6.7,1.7,6.7,6.8V90.7z M96.3,67.3c0,1.5-2,1.5-2,0v-6.2c0-2.4-1.6-4.3-3.9-4.3
		c-2.4,0-3.9,1.9-3.9,4.2v6.2c0,1.5-2,1.5-2,0v-6.3c0-3.8,2.8-6.2,5.9-6.2c3.4,0,5.9,2.8,5.9,6.3V67.3z M102.7,80.1
		c-2.3,0-4.2,0-4.2,4v6.2c0,1.4-2,1.4-2,0v-6.2c0-5.9,3.7-6.1,6.2-6.1C104.1,78.1,104.1,80.1,102.7,80.1z M104.7,68
		c-0.7,0.5-1.6,0.6-2.4,0.6c-1.4,0-3.5-0.5-3.5-3.3V51.5c0-1.4,2-1.4,2,0v4h3c1.6,0,1.6,2.1,0,2.1h-3v7.7c0,1.2,1,1.3,1.5,1.3
		c0.5,0,1.1-0.1,1.8-0.4C105.1,65.6,105.9,67.1,104.7,68z M111.3,91c-0.7,0.5-1.6,0.6-2.4,0.6c-1.4,0-3.5-0.5-3.5-3.3V74.5
		c0-1.4,2-1.4,2,0v4h3c1.6,0,1.6,2.1,0,2.1h-3v7.7c0,1.2,1,1.3,1.5,1.3s1.1-0.1,1.8-0.4C111.6,88.7,112.4,90.1,111.3,91z
		 M119.1,91.7c-1.8,0-4.6-0.9-5.9-2.8c-0.8-1.4,0.8-2.4,1.6-1.3c0.9,1.3,2.4,2.1,4.3,2.1c1.6,0,3.7-0.7,3.7-2.1
		c0-1.2-1.5-1.7-4.4-2.3c-3.6-0.9-4.3-2.1-4.3-3.6c0-2.1,2-3.7,4.7-3.7c2.1,0,3.8,0.8,4.9,2.5c0.8,1.2-0.7,2.4-1.6,1.1
		c-0.8-1.1-1.9-1.6-3.3-1.6c-1.4,0-2.6,0.5-2.6,1.7c0,1,0.8,1.4,3.3,1.9c3.6,0.8,5.3,1.9,5.3,4.1C124.8,90.3,121.8,91.7,119.1,91.7z
		 M133.8,62.1h-10.2c0.2,1.9,2.1,4.2,4.6,4.2c1.9,0,3.7-0.8,4.5-2.4c0.6-1,2.3-0.3,1.6,1.1c-1,1.7-3.2,3.3-6.1,3.3
		c-3.7,0-6.6-3-6.6-6.7c0-3.8,2.9-6.8,6.6-6.8c4.3,0,6.7,3.9,6.6,6.3C134.8,61.6,134.4,62.1,133.8,62.1z M148.6,67.4
		c0,1.5-2,1.5-2,0v-6.2c0-2.4-1.6-4.3-3.9-4.3c-2.4,0-3.9,1.9-3.9,4.2v6.2c0,1.5-2,1.5-2,0v-6.3c0-3.8,2.7-6.2,5.9-6.2
		c3.4,0,5.9,2.8,5.9,6.4V67.4z"/>
	<path fill="#CEA355" d="M26,29.6c1.8-2.3,3.9-4.4,6.3-6.3l-14.9-8.7c-5.3,5.2-9.5,11.5-12.4,18.3L26,29.6z"/>
	<path fill="#B5373E" d="M17.4,61.5L17.4,61.5L17.4,61.5l-7.3,22.5c3.2,5,7,10,11.2,14.9l7.4-3.4l8.3-3.8
		C27.2,80.9,19.8,70.3,17.4,61.5z"/>
	<path fill="#65A153" d="M160.5,55.8c0,0.5,0,1-0.1,1.6l16.4,1.5v0h0c0.1-1,0.1-2,0.1-3c0-4.2-0.5-8.5-1.5-12.7l-10.8,0.6l-6.1,0.4
		C159.8,48.1,160.5,52.1,160.5,55.8z"/>
	<path fill="#E27949" d="M176.9,58.8l-16.4-1.5h0c-0.6,7.1-5.3,15.7-12.4,24.8v0.1c0,0,0,0,0,0l4.7,20.1
		C165.5,88.1,175.5,72.8,176.9,58.8L176.9,58.8z"/>
	<path fill="#264C6A" d="M148,82.2L148,82.2c-5.6,7.2-12.5,14.6-20.1,21.8l4.3,18.7c7-6.3,14.1-13.1,20.5-20.3v-0.1L148,82.2z"/>
	<path fill="#EA9E4E" d="M127.9,104c-10.3,9.8-21.7,19.3-32.2,27.1l1.4,6.1l2.6,11.5c7.5-5.4,19.8-14.8,32.4-26L127.9,104z"/>
	<path fill="#CB3971" d="M88.5,136.4c-3.9-2.8-7.9-5.8-12.1-9l2.1,9.4l3.5,15.3c0.8,0.5,1.3,0.9,1.8,1.2c1.4,1,3,1.4,4.7,1.4
		c1.6,0,3.3-0.5,4.7-1.4c1.1-0.8,3.4-2.4,6.6-4.7l-2.6-11.5l-1.4-6.1C93.2,133,90.8,134.8,88.5,136.4z"/>
	<path fill="#508052" d="M54.8,109.4l-1.9,8.3l-2.4,10c13.8,11.8,26.3,20.8,31.5,24.5l-3.5-15.4l-2.1-9.4
		C69.3,121.9,61.9,115.7,54.8,109.4z"/>
	<path fill="#4493CE" d="M37,91.6l-8.3,3.8l-7.4,3.4c8.9,10.4,19.4,20.3,29.3,28.8l2.4-10l1.9-8.3C48.4,103.6,42.3,97.5,37,91.6z"/>
	<path fill="#316C9A" d="M47.1,16.9c1.6-0.2,3.3-0.4,5-0.4c5.2,0,9.5,1.1,13.1,2.8l0.6-0.9l8.8-13c-5.9-3.2-13.1-5.3-22-5.4
		L47.1,16.9z"/>
	<path fill="#912B4B" d="M32.3,23.3c4.2-3.2,9.1-5.5,14.8-6.4l0,0L52.5,0c-0.2,0-0.4,0-0.5,0C38.1,0,26.2,5.8,17.3,14.6h0L32.3,23.3
		z"/>
	<path fill="#F0C04E" d="M80.8,35.5c2.3,4.6,5.7,5,7.9,5c2.9,0,5.4-0.6,7.6-5c0.1-0.3,0.9-2.3,2.8-5l-7.3-17
		c-1.1,1.1-2.2,2.3-3.2,3.5c-3.4-4-7.9-8.3-14-11.5l-8.8,13l-0.6,0.9C76.3,24.5,79.5,32.9,80.8,35.5z"/>
	<path fill="#76B758" d="M99,30.5c2.7-4,7.6-9.5,15.5-12.2l3.8-17.8c0,0,0,0,0.1,0v0C106.3,2,97.6,7.6,91.7,13.5L99,30.5z"/>
	<path fill="#AF8747" d="M114.5,18.3c3-1.1,6.6-1.7,10.5-1.7c0.9,0,1.9,0,2.8,0.1l11-8.1l5.9-4.3C138.7,1.5,132.1,0,125,0
		c-2.3,0-4.5,0.1-6.6,0.4c0,0,0,0-0.1,0L114.5,18.3z"/>
	<path fill="#DC5A44" d="M17.4,61.5C17.4,61.5,17.4,61.5,17.4,61.5c-0.6-2-0.9-3.9-0.9-5.7c0-8.4,3.2-18.4,9.4-26.2L4.9,32.9
		C1.7,40.2,0,48.1,0,55.8C0,64.7,3.9,74.3,10.1,84v0L17.4,61.5z"/>
	<path fill="#57BAD9" d="M157.2,40.1c0.5,1.3,1,2.6,1.4,4l6.1-0.4l10.8-0.7c-2.7-11.3-8.8-22.1-17.5-30.1L157.2,40.1z"/>
	<path fill="#D8464D" d="M157.2,40.1l0.8-27.1c-3.9-3.5-8.3-6.5-13.2-8.7l-5.8,4.3l-11.1,8.2C142.5,17.9,152.4,28.5,157.2,40.1z"/>
	<path fill="#131617" d="M60.4,67.6c0.3,0.4,0.5,0.7,1,0.7h0.7c0.5,0,0.7-0.2,1-0.6l5.2-11.1c0.6-1.4-1.4-2-1.8-0.9l-4.7,10.1
		L57,55.7c-0.5-1.1-2.3-0.4-1.8,1L60.4,67.6z"/>
	<path fill="#131617" d="M34,57.7c-1.6-0.5-3.4-1.1-3.4-2.9c0-1.3,0.9-2.5,2.6-2.5c1.6,0,2.7,0.7,3.3,1.9c0.5,1.1,2.3,0.8,1.7-0.8
		c-0.7-1.9-2.6-3.2-5-3.2c-3,0-4.7,2.5-4.7,4.6c0,2.3,1.8,3.8,4,4.5c2.6,0.8,4.8,1.5,4.8,3.7c0,1.8-1.5,3.2-3.5,3.2
		c-2.1,0-3.2-0.6-4.4-2.5c-0.6-0.9-2.4-0.1-1.6,1.2c1.4,2.4,3.6,3.4,6.1,3.4c3.1,0,5.5-2.4,5.5-5.3C39.4,59.8,36.7,58.6,34,57.7z"/>
	<path fill="#131617" d="M53.6,65c0.8-1.4-1-2.2-1.6-1.1c-0.9,1.6-2.6,2.4-4.5,2.4c-2.5,0-4.4-2.3-4.6-4.2h10.2c0.6,0,1-0.5,1-1
		c0-2.3-2.4-6.2-6.6-6.2c-3.7,0-6.6,3-6.6,6.8c0,3.7,2.9,6.7,6.6,6.7C50.5,68.3,52.6,66.7,53.6,65z M47.5,56.8
		c1.9,0,3.5,1.3,4.2,3.2h-8.5C43.8,58.2,45.5,56.8,47.5,56.8z"/>
	<path fill="#131617" d="M75.9,68.3c2.9,0,5.1-1.6,6.1-3.3c0.8-1.4-1-2.2-1.6-1.1c-0.9,1.6-2.6,2.4-4.5,2.4c-2.5,0-4.4-2.3-4.6-4.2
		h10.2c0.6,0,1-0.5,1-1c0-2.3-2.4-6.2-6.6-6.2c-3.7,0-6.6,3-6.6,6.8C69.3,65.3,72.2,68.3,75.9,68.3z M75.9,56.8
		c1.9,0,3.5,1.3,4.2,3.2h-8.5C72.2,58.2,73.9,56.8,75.9,56.8z"/>
	<path fill="#131617" d="M86.5,67.3v-6.2c0-2.3,1.5-4.2,3.9-4.2c2.3,0,3.9,1.9,3.9,4.3v6.2c0,1.5,2,1.5,2,0v-6.1
		c0-3.5-2.5-6.3-5.9-6.3c-3.1,0-5.9,2.4-5.9,6.2v6.3C84.5,68.8,86.5,68.8,86.5,67.3z"/>
	<path fill="#131617" d="M102.3,68.6c0.9,0,1.8-0.1,2.4-0.6c1.2-0.9,0.4-2.3-0.6-1.8c-0.6,0.3-1.3,0.4-1.8,0.4
		c-0.5,0-1.5-0.1-1.5-1.3v-7.7h3c1.6,0,1.6-2.1,0-2.1h-3v-4c0-1.4-2-1.4-2,0v13.8C98.8,68.1,100.9,68.6,102.3,68.6z"/>
	<path fill="#131617" d="M113.2,68.3c2.9,0,5.2-1.6,6.1-3.3c0.8-1.4-1-2.2-1.6-1.1c-0.9,1.6-2.6,2.4-4.5,2.4c-2.5,0-4.4-2.3-4.6-4.2
		h10.2c0.6,0,1-0.5,1-1c0-2.3-2.4-6.2-6.7-6.2c-3.7,0-6.6,3-6.6,6.8C106.6,65.3,109.5,68.3,113.2,68.3z M113.2,56.8
		c1.9,0,3.5,1.3,4.2,3.2h-8.5C109.5,58.2,111.3,56.8,113.2,56.8z"/>
	<path fill="#131617" d="M128.2,68.3c2.9,0,5.1-1.6,6.1-3.3c0.8-1.4-1-2.2-1.6-1.1c-0.9,1.6-2.6,2.4-4.5,2.4c-2.5,0-4.4-2.3-4.6-4.2
		h10.2c0.6,0,1-0.5,1-1c0-2.4-2.3-6.3-6.6-6.3c-3.7,0-6.6,3-6.6,6.8C121.6,65.3,124.5,68.3,128.2,68.3z M128.2,56.8
		c1.9,0,3.5,1.3,4.2,3.2h-8.5C124.5,58.2,126.2,56.8,128.2,56.8z"/>
	<path fill="#131617" d="M138.8,67.4v-6.2c0-2.3,1.5-4.2,3.9-4.2c2.3,0,3.9,1.9,3.9,4.3v6.2c0,1.5,2,1.5,2,0v-6.1
		c0-3.6-2.4-6.4-5.9-6.4c-3.2,0-5.9,2.4-5.9,6.2v6.3C136.8,68.8,138.8,68.8,138.8,67.4z"/>
	<path fill="#131617" d="M61.6,90.3c0,1.5,1.9,1.5,1.9,0v-16c0-1.5-1.9-1.5-1.9,0v6.8h-8.2v-6.8c0-1.5-2-1.5-2,0v16c0,1.5,2,1.5,2,0
		v-7h8.2V90.3z"/>
	<path fill="#131617" d="M72.3,77.8c-3.7,0-6.6,3-6.6,6.8c0,3.8,2.9,6.7,6.6,6.7c2.9,0,5.1-1.5,6.1-3.3c0.8-1.4-1-2.2-1.6-1.1
		c-0.9,1.6-2.6,2.4-4.5,2.4c-2.5,0-4.4-2.3-4.6-4.2h10.2c0.6,0,1-0.5,1-1C78.9,81.7,76.6,77.8,72.3,77.8z M67.9,83.1
		c0.6-1.9,2.4-3.2,4.3-3.2c1.9,0,3.5,1.3,4.2,3.2H67.9z"/>
	<path fill="#131617" d="M80.5,84.9c0,3.7,2.8,6.7,6.6,6.7c1.8,0,3.4-0.6,4.7-1.8v0.8c0,1.5,2,1.5,2,0V85c0-5.1-4.3-6.8-6.7-6.8
		C83.4,78.2,80.5,81.2,80.5,84.9z M87.1,80.2c2.5,0,4.7,2,4.7,4.7c0,2.6-2.1,4.7-4.7,4.7c-2.6,0-4.6-2.1-4.6-4.7
		C82.5,82.3,84.5,80.2,87.1,80.2z"/>
	<path fill="#131617" d="M98.5,90.3v-6.2c0-4,1.8-4,4.2-4c1.4,0,1.4-2,0-2c-2.5,0-6.2,0.1-6.2,6.1v6.2
		C96.5,91.8,98.5,91.8,98.5,90.3z"/>
	<path fill="#131617" d="M108.8,91.6c0.9,0,1.8-0.1,2.4-0.6c1.1-0.9,0.4-2.3-0.7-1.8c-0.6,0.3-1.3,0.4-1.8,0.4s-1.5,0-1.5-1.3v-7.7
		h3c1.6,0,1.6-2.1,0-2.1h-3v-4c0-1.4-2-1.4-2,0v13.8C105.3,91.1,107.4,91.6,108.8,91.6z"/>
	<path fill="#131617" d="M119.4,83.5c-2.5-0.5-3.3-0.9-3.3-1.9c0-1.2,1.2-1.7,2.6-1.7c1.3,0,2.5,0.5,3.3,1.6c1,1.3,2.4,0.1,1.6-1.1
		c-1.1-1.7-2.8-2.5-4.9-2.5c-2.6,0-4.7,1.6-4.7,3.7c0,1.5,0.7,2.8,4.3,3.6c2.9,0.6,4.4,1.1,4.4,2.3c0,1.5-2.1,2.1-3.7,2.1
		c-1.9,0-3.4-0.9-4.3-2.1c-0.8-1.1-2.4-0.1-1.6,1.3c1.3,2,4.1,2.8,5.9,2.8c2.7,0,5.7-1.4,5.7-4.1C124.8,85.4,123,84.3,119.4,83.5z"
		/>
</g>
</svg>
