<?xml version="1.0" encoding="utf-8"?>
<!-- Generator: Adobe Illustrator 26.0.1, SVG Export Plug-In . SVG Version: 6.00 Build 0)  -->
<svg version="1.2" baseProfile="tiny" id="레이어_1"
	 xmlns="http://www.w3.org/2000/svg" xmlns:xlink="http://www.w3.org/1999/xlink" x="0px" y="0px" viewBox="0 0 645.72 331.52"
	 overflow="visible" xml:space="preserve">
<path fill="#974465" stroke="#974465" stroke-width="2" stroke-miterlimit="10" d="M17.48,90.52V75.85H47c2.4,0,4.56-0.48,6.72-1.58
	c2.04-0.97,3.84-2.3,5.52-4c1.44-1.58,2.76-3.52,3.72-5.7c0.84-2.18,1.32-4.36,1.32-6.79H25.04c-2.16,0-4.08-0.36-5.76-1.21
	c-1.8-0.73-3.24-1.82-4.44-3.27c-1.32-1.33-2.28-3.03-2.88-4.97C11.24,46.52,11,44.58,11,42.4c0-4.24,0.72-8.36,2.16-12.24
	c1.44-3.76,3.48-7.15,6.24-10.06c2.64-2.91,5.88-5.21,9.6-7.03c3.6-1.7,7.68-2.54,12.24-2.54H74.6V25.2H41.24
	c-2.64,0-4.92,0.48-6.84,1.45c-2.04,1.09-3.72,2.42-4.92,4c-1.44,1.7-2.4,3.64-3,5.7c-0.72,2.18-1.08,4.24-1.08,6.3h39.24
	c1.92,0,3.84,0.36,5.64,1.09c1.68,0.85,3.24,1.94,4.56,3.27c1.2,1.45,2.16,3.03,2.88,4.85c0.6,1.94,0.96,3.88,0.96,6.06
	c0,4.48-0.84,8.73-2.28,12.6c-1.68,4-3.84,7.39-6.48,10.3c-2.88,3.03-6,5.33-9.6,7.03c-3.72,1.82-7.68,2.67-11.88,2.67
	C48.44,90.52,17.48,90.52,17.48,90.52z"/>
<path fill="#974465" stroke="#974465" stroke-width="2" stroke-miterlimit="10" d="M85.88,10.53h57.96v14.06H99.56v17.09h41.16v2.42
	c0,1.58-0.36,3.03-0.84,4.36c-0.72,1.45-1.56,2.79-2.64,3.76c-1.2,1.09-2.52,1.94-3.96,2.55c-1.68,0.73-3.36,0.97-5.16,0.97H99.56
	v20.73h46.2v2.42c0,1.58-0.36,3.03-0.84,4.36c-0.72,1.45-1.56,2.79-2.64,3.76c-1.2,1.09-2.52,1.94-3.96,2.55
	c-1.68,0.73-3.36,0.97-5.16,0.97H85.88V10.53z"/>
<path fill="#974465" stroke="#974465" stroke-width="2" stroke-miterlimit="10" d="M149.48,15.5l13.32-5.21l24.24,56.6l24.36-56.6
	l13.44,5.21c-2.4,6.42-4.92,12.73-7.56,18.91c-2.76,6.3-5.52,12.48-8.28,18.54c-2.88,6.3-5.76,12.48-8.4,18.67
	c-2.76,6.3-5.28,12.6-7.56,18.91H181.4L149.48,15.5z"/>
<path fill="#974465" stroke="#974465" stroke-width="2" stroke-miterlimit="10" d="M231.2,10.53h57.96v14.06h-44.28v17.09h41.16
	v2.42c0,1.58-0.36,3.03-0.84,4.36c-0.72,1.45-1.56,2.79-2.64,3.76c-1.2,1.09-2.52,1.94-3.96,2.55c-1.68,0.73-3.36,0.97-5.16,0.97
	h-28.56v20.73h46.2v2.42c0,1.58-0.36,3.03-0.84,4.36c-0.72,1.45-1.56,2.79-2.64,3.76c-1.2,1.09-2.52,1.94-3.96,2.55
	c-1.68,0.73-3.36,0.97-5.16,0.97H231.2V10.53z"/>
<path fill="#974465" stroke="#974465" stroke-width="2" stroke-miterlimit="10" d="M363.56,10.53V88.7c0,1.21-0.6,1.82-1.68,1.82
	h-9.6c-0.48,0-0.72,0-0.84,0c-0.24,0-0.48-0.12-0.48-0.48l-38.4-51.15v51.75h-13.68V10.53h11.64c0.12,0,0.36,0.12,0.72,0.12
	c0.24,0.12,0.48,0.36,0.72,0.73l37.68,50.78V10.53H363.56z"/>
<path fill="#974465" stroke="#974465" stroke-width="2" stroke-miterlimit="10" d="M409.28,90.52h-14.16V24.59h-26.04V10.53h67.44
	v2.42c0,1.58-0.36,3.03-0.84,4.36c-0.72,1.45-1.56,2.79-2.64,3.76c-1.2,1.09-2.52,1.94-3.96,2.54c-1.68,0.73-3.36,0.97-5.16,0.97
	h-14.64L409.28,90.52L409.28,90.52z"/>
<path fill="#974465" stroke="#974465" stroke-width="2" stroke-miterlimit="10" d="M442.28,10.53h57.96v14.06h-44.28v17.09h41.16
	v2.42c0,1.58-0.36,3.03-0.84,4.36c-0.72,1.45-1.56,2.79-2.64,3.76c-1.2,1.09-2.52,1.94-3.96,2.55c-1.68,0.73-3.36,0.97-5.16,0.97
	h-28.56v20.73h46.2v2.42c0,1.58-0.36,3.03-0.84,4.36c-0.72,1.45-1.56,2.79-2.64,3.76c-1.2,1.09-2.52,1.94-3.96,2.55
	c-1.68,0.73-3.36,0.97-5.16,0.97h-47.28V10.53z"/>
<path fill="#974465" stroke="#974465" stroke-width="2" stroke-miterlimit="10" d="M512.36,10.53h57.96v14.06h-44.28v17.09h41.16
	v2.42c0,1.58-0.36,3.03-0.84,4.36c-0.72,1.45-1.56,2.79-2.64,3.76c-1.2,1.09-2.52,1.94-3.96,2.55c-1.68,0.73-3.36,0.97-5.16,0.97
	h-28.56v20.73h46.2v2.42c0,1.58-0.36,3.03-0.84,4.36c-0.72,1.45-1.56,2.79-2.64,3.76c-1.2,1.09-2.52,1.94-3.96,2.55
	c-1.68,0.73-3.36,0.97-5.16,0.97h-47.28V10.53z"/>
<path fill="#974465" stroke="#974465" stroke-width="2" stroke-miterlimit="10" d="M644.72,10.53V88.7c0,1.21-0.6,1.82-1.68,1.82
	h-9.6c-0.48,0-0.72,0-0.84,0c-0.24,0-0.48-0.12-0.48-0.48l-38.4-51.15v51.75h-13.68V10.53h11.64c0.12,0,0.36,0.12,0.72,0.12
	c0.24,0.12,0.48,0.36,0.72,0.73l37.68,50.78V10.53H644.72z"/>
<path fill="#974465" stroke="#974465" stroke-width="2" stroke-miterlimit="10" d="M76.22,330.52v-79.99h57.96v14.06H89.9v17.09
	h41.16v2.42c0,1.58-0.36,3.03-0.84,4.36c-0.72,1.45-1.56,2.79-2.64,3.76c-1.2,1.09-2.52,1.94-3.96,2.55
	c-1.68,0.73-3.36,0.97-5.16,0.97H89.9v34.79H76.22V330.52z"/>
<path fill="#974465" stroke="#974465" stroke-width="2" stroke-miterlimit="10" d="M142.58,250.53h57.96v14.06h-44.28v17.09h41.16
	v2.42c0,1.58-0.36,3.03-0.84,4.36c-0.72,1.45-1.56,2.79-2.64,3.76c-1.2,1.09-2.52,1.94-3.96,2.55c-1.68,0.73-3.36,0.97-5.16,0.97
	h-28.56v20.73h46.2v2.42c0,1.58-0.36,3.03-0.84,4.36c-0.72,1.46-1.56,2.79-2.64,3.76c-1.2,1.09-2.52,1.94-3.96,2.54
	c-1.68,0.73-3.36,0.97-5.16,0.97h-47.28V250.53z"/>
<path fill="#974465" stroke="#974465" stroke-width="2" stroke-miterlimit="10" d="M211.22,330.52v-14.67h29.52
	c2.4,0,4.56-0.49,6.72-1.58c2.04-0.97,3.84-2.3,5.52-4c1.44-1.58,2.76-3.52,3.72-5.7c0.84-2.18,1.32-4.36,1.32-6.79h-39.24
	c-2.16,0-4.08-0.36-5.76-1.21c-1.8-0.73-3.24-1.82-4.44-3.27c-1.32-1.33-2.28-3.03-2.88-4.97c-0.72-1.82-0.96-3.76-0.96-5.94
	c0-4.24,0.72-8.36,2.16-12.24c1.44-3.76,3.48-7.15,6.24-10.06c2.64-2.91,5.88-5.21,9.6-7.03c3.6-1.7,7.68-2.54,12.24-2.54h33.36
	v14.67h-33.36c-2.64,0-4.92,0.48-6.84,1.45c-2.04,1.09-3.72,2.42-4.92,4c-1.44,1.7-2.4,3.64-3,5.7c-0.72,2.18-1.08,4.24-1.08,6.3
	h39.24c1.92,0,3.84,0.36,5.64,1.09c1.68,0.85,3.24,1.94,4.56,3.27c1.2,1.45,2.16,3.03,2.88,4.85c0.6,1.94,0.96,3.88,0.96,6.06
	c0,4.48-0.84,8.73-2.28,12.61c-1.68,4-3.84,7.39-6.48,10.3c-2.88,3.03-6,5.33-9.6,7.03c-3.72,1.82-7.68,2.67-11.88,2.67H211.22z"/>
<path fill="#974465" stroke="#974465" stroke-width="2" stroke-miterlimit="10" d="M316.22,330.52h-14.16v-65.93h-26.04v-14.06
	h67.44v2.42c0,1.58-0.36,3.03-0.84,4.36c-0.72,1.45-1.56,2.79-2.64,3.76c-1.2,1.09-2.52,1.94-3.96,2.54
	c-1.68,0.73-3.36,0.97-5.16,0.97h-14.64L316.22,330.52L316.22,330.52z"/>
<path fill="#974465" stroke="#974465" stroke-width="2" stroke-miterlimit="10" d="M348.5,330.4v-79.87h14.4v79.87H348.5z"/>
<path fill="#974465" stroke="#974465" stroke-width="2" stroke-miterlimit="10" d="M368.54,255.5l13.32-5.21l24.24,56.6l24.36-56.6
	l13.44,5.21c-2.4,6.42-4.92,12.73-7.56,18.91c-2.76,6.3-5.52,12.48-8.28,18.54c-2.88,6.3-5.76,12.48-8.4,18.67
	c-2.76,6.3-5.28,12.6-7.56,18.91h-11.64L368.54,255.5z"/>
<path fill="#974465" stroke="#974465" stroke-width="2" stroke-miterlimit="10" d="M498.02,330.52v-34.66
	c-0.72,2.42-2.16,4.48-4.32,6.06c-2.16,1.7-4.8,2.54-7.8,2.54h-26.64v26.06H445.1v-47.87c0-5.09,0.84-9.7,2.76-14.06
	c1.68-4.12,4.2-7.76,7.32-10.91c3.12-2.91,6.72-5.33,10.92-7.03c4.08-1.7,8.4-2.55,12.96-2.55c4.44,0,8.76,0.85,12.84,2.55
	c3.96,1.7,7.44,4.12,10.56,7.15c3,3.15,5.4,6.79,7.32,10.91c1.68,4.36,2.64,8.97,2.64,13.94v47.87H498.02z M498.02,284.46
	c0-3.15-0.48-6.18-1.32-8.97c-0.96-2.67-2.28-4.97-3.96-6.91s-3.72-3.39-6-4.61c-2.4-0.97-4.92-1.58-7.68-1.58
	c-2.88,0-5.52,0.61-7.92,1.58c-2.4,1.21-4.56,2.67-6.24,4.61c-1.8,1.94-3.12,4.24-4.08,6.91c-1.08,2.79-1.56,5.82-1.56,8.97v5.7
	h38.76L498.02,284.46L498.02,284.46z"/>
<path fill="#974465" stroke="#974465" stroke-width="2" stroke-miterlimit="10" d="M522.02,330.52v-79.99h13.68v65.93h46.92v2.42
	c0,1.58-0.36,3.03-0.84,4.36c-0.72,1.46-1.56,2.79-2.64,3.76c-1.2,1.09-2.52,1.94-3.96,2.54c-1.68,0.73-3.36,0.97-5.16,0.97
	L522.02,330.52L522.02,330.52z"/>
<path fill="#F3ED75" stroke="#F3ED75" stroke-width="2" stroke-miterlimit="10" d="M7.48,81.52V66.85H37c2.4,0,4.56-0.48,6.72-1.58
	c2.04-0.97,3.84-2.3,5.52-4c1.44-1.58,2.76-3.52,3.72-5.7c0.84-2.18,1.32-4.36,1.32-6.79H15.04c-2.16,0-4.08-0.36-5.76-1.21
	c-1.8-0.73-3.24-1.82-4.44-3.27c-1.32-1.33-2.28-3.03-2.88-4.97C1.24,37.52,1,35.58,1,33.4c0-4.24,0.72-8.36,2.16-12.24
	C4.6,17.4,6.64,14.01,9.4,11.1c2.64-2.91,5.88-5.21,9.6-7.03c3.6-1.7,7.68-2.54,12.24-2.54H64.6V16.2H31.24
	c-2.64,0-4.92,0.48-6.84,1.45c-2.04,1.09-3.72,2.42-4.92,4c-1.44,1.7-2.4,3.64-3,5.7c-0.72,2.18-1.08,4.24-1.08,6.3h39.24
	c1.92,0,3.84,0.36,5.64,1.09c1.68,0.85,3.24,1.94,4.56,3.27c1.2,1.45,2.16,3.03,2.88,4.85c0.6,1.94,0.96,3.88,0.96,6.06
	c0,4.48-0.84,8.73-2.28,12.6c-1.68,4-3.84,7.39-6.48,10.3c-2.88,3.03-6,5.33-9.6,7.03c-3.72,1.82-7.68,2.67-11.88,2.67
	C38.44,81.52,7.48,81.52,7.48,81.52z"/>
<path fill="#F3ED75" stroke="#F3ED75" stroke-width="2" stroke-miterlimit="10" d="M75.88,1.53h57.96v14.06H89.56v17.09h41.16v2.42
	c0,1.58-0.36,3.03-0.84,4.36c-0.72,1.45-1.56,2.79-2.64,3.76c-1.2,1.09-2.52,1.94-3.96,2.55c-1.68,0.73-3.36,0.97-5.16,0.97H89.56
	v20.73h46.2v2.42c0,1.58-0.36,3.03-0.84,4.36c-0.72,1.45-1.56,2.79-2.64,3.76c-1.2,1.09-2.52,1.94-3.96,2.55
	c-1.68,0.73-3.36,0.97-5.16,0.97H75.88V1.53z"/>
<path fill="#F3ED75" stroke="#F3ED75" stroke-width="2" stroke-miterlimit="10" d="M139.48,6.5l13.32-5.21l24.24,56.6l24.36-56.6
	l13.44,5.21c-2.4,6.42-4.92,12.73-7.56,18.91c-2.76,6.3-5.52,12.48-8.28,18.54c-2.88,6.3-5.76,12.48-8.4,18.67
	c-2.76,6.3-5.28,12.6-7.56,18.91H171.4L139.48,6.5z"/>
<path fill="#F3ED75" stroke="#F3ED75" stroke-width="2" stroke-miterlimit="10" d="M221.2,1.53h57.96v14.06h-44.28v17.09h41.16v2.42
	c0,1.58-0.36,3.03-0.84,4.36c-0.72,1.45-1.56,2.79-2.64,3.76c-1.2,1.09-2.52,1.94-3.96,2.55c-1.68,0.73-3.36,0.97-5.16,0.97h-28.56
	v20.73h46.2v2.42c0,1.58-0.36,3.03-0.84,4.36c-0.72,1.45-1.56,2.79-2.64,3.76c-1.2,1.09-2.52,1.94-3.96,2.55
	c-1.68,0.73-3.36,0.97-5.16,0.97H221.2V1.53z"/>
<path fill="#F3ED75" stroke="#F3ED75" stroke-width="2" stroke-miterlimit="10" d="M353.56,1.53V79.7c0,1.21-0.6,1.82-1.68,1.82
	h-9.6c-0.48,0-0.72,0-0.84,0c-0.24,0-0.48-0.12-0.48-0.48l-38.4-51.15v51.75h-13.68V1.53h11.64c0.12,0,0.36,0.12,0.72,0.12
	c0.24,0.12,0.48,0.36,0.72,0.73l37.68,50.78V1.53H353.56z"/>
<path fill="#F3ED75" stroke="#F3ED75" stroke-width="2" stroke-miterlimit="10" d="M399.28,81.52h-14.16V15.59h-26.04V1.53h67.44
	v2.42c0,1.58-0.36,3.03-0.84,4.36c-0.72,1.45-1.56,2.79-2.64,3.76c-1.2,1.09-2.52,1.94-3.96,2.54c-1.68,0.73-3.36,0.97-5.16,0.97
	h-14.64L399.28,81.52L399.28,81.52z"/>
<path fill="#F3ED75" stroke="#F3ED75" stroke-width="2" stroke-miterlimit="10" d="M432.28,1.53h57.96v14.06h-44.28v17.09h41.16
	v2.42c0,1.58-0.36,3.03-0.84,4.36c-0.72,1.45-1.56,2.79-2.64,3.76c-1.2,1.09-2.52,1.94-3.96,2.55c-1.68,0.73-3.36,0.97-5.16,0.97
	h-28.56v20.73h46.2v2.42c0,1.58-0.36,3.03-0.84,4.36c-0.72,1.45-1.56,2.79-2.64,3.76c-1.2,1.09-2.52,1.94-3.96,2.55
	c-1.68,0.73-3.36,0.97-5.16,0.97h-47.28V1.53z"/>
<path fill="#F3ED75" stroke="#F3ED75" stroke-width="2" stroke-miterlimit="10" d="M502.36,1.53h57.96v14.06h-44.28v17.09h41.16
	v2.42c0,1.58-0.36,3.03-0.84,4.36c-0.72,1.45-1.56,2.79-2.64,3.76c-1.2,1.09-2.52,1.94-3.96,2.55c-1.68,0.73-3.36,0.97-5.16,0.97
	h-28.56v20.73h46.2v2.42c0,1.58-0.36,3.03-0.84,4.36c-0.72,1.45-1.56,2.79-2.64,3.76c-1.2,1.09-2.52,1.94-3.96,2.55
	c-1.68,0.73-3.36,0.97-5.16,0.97h-47.28L502.36,1.53L502.36,1.53z"/>
<path fill="#F3ED75" stroke="#F3ED75" stroke-width="2" stroke-miterlimit="10" d="M634.72,1.53V79.7c0,1.21-0.6,1.82-1.68,1.82
	h-9.6c-0.48,0-0.72,0-0.84,0c-0.24,0-0.48-0.12-0.48-0.48l-38.4-51.15v51.75h-13.68V1.53h11.64c0.12,0,0.36,0.12,0.72,0.12
	c0.24,0.12,0.48,0.36,0.72,0.73l37.68,50.78V1.53H634.72z"/>
<path fill="#F3ED75" stroke="#F3ED75" stroke-width="2" stroke-miterlimit="10" d="M66.22,321.52v-79.99h57.96v14.06H79.9v17.09
	h41.16v2.42c0,1.58-0.36,3.03-0.84,4.36c-0.72,1.45-1.56,2.79-2.64,3.76c-1.2,1.09-2.52,1.94-3.96,2.55
	c-1.68,0.73-3.36,0.97-5.16,0.97H79.9v34.79H66.22V321.52z"/>
<path fill="#F3ED75" stroke="#F3ED75" stroke-width="2" stroke-miterlimit="10" d="M132.58,241.53h57.96v14.06h-44.28v17.09h41.16
	v2.42c0,1.58-0.36,3.03-0.84,4.36c-0.72,1.45-1.56,2.79-2.64,3.76c-1.2,1.09-2.52,1.94-3.96,2.55c-1.68,0.73-3.36,0.97-5.16,0.97
	h-28.56v20.73h46.2v2.42c0,1.58-0.36,3.03-0.84,4.36c-0.72,1.46-1.56,2.79-2.64,3.76c-1.2,1.09-2.52,1.94-3.96,2.54
	c-1.68,0.73-3.36,0.97-5.16,0.97h-47.28V241.53z"/>
<path fill="#F3ED75" stroke="#F3ED75" stroke-width="2" stroke-miterlimit="10" d="M201.22,321.52v-14.67h29.52
	c2.4,0,4.56-0.49,6.72-1.58c2.04-0.97,3.84-2.3,5.52-4c1.44-1.58,2.76-3.52,3.72-5.7c0.84-2.18,1.32-4.36,1.32-6.79h-39.24
	c-2.16,0-4.08-0.36-5.76-1.21c-1.8-0.73-3.24-1.82-4.44-3.27c-1.32-1.33-2.28-3.03-2.88-4.97c-0.72-1.82-0.96-3.76-0.96-5.94
	c0-4.24,0.72-8.36,2.16-12.24c1.44-3.76,3.48-7.15,6.24-10.06c2.64-2.91,5.88-5.21,9.6-7.03c3.6-1.7,7.68-2.54,12.24-2.54h33.36
	v14.67h-33.36c-2.64,0-4.92,0.48-6.84,1.45c-2.04,1.09-3.72,2.42-4.92,4c-1.44,1.7-2.4,3.64-3,5.7c-0.72,2.18-1.08,4.24-1.08,6.3
	h39.24c1.92,0,3.84,0.36,5.64,1.09c1.68,0.85,3.24,1.94,4.56,3.27c1.2,1.45,2.16,3.03,2.88,4.85c0.6,1.94,0.96,3.88,0.96,6.06
	c0,4.48-0.84,8.73-2.28,12.61c-1.68,4-3.84,7.39-6.48,10.3c-2.88,3.03-6,5.33-9.6,7.03c-3.72,1.82-7.68,2.67-11.88,2.67H201.22z"/>
<path fill="#F3ED75" stroke="#F3ED75" stroke-width="2" stroke-miterlimit="10" d="M306.22,321.52h-14.16v-65.93h-26.04v-14.06
	h67.44v2.42c0,1.58-0.36,3.03-0.84,4.36c-0.72,1.45-1.56,2.79-2.64,3.76c-1.2,1.09-2.52,1.94-3.96,2.54
	c-1.68,0.73-3.36,0.97-5.16,0.97h-14.64L306.22,321.52L306.22,321.52z"/>
<path fill="#F3ED75" stroke="#F3ED75" stroke-width="2" stroke-miterlimit="10" d="M338.5,321.4v-79.87h14.4v79.87H338.5z"/>
<path fill="#F3ED75" stroke="#F3ED75" stroke-width="2" stroke-miterlimit="10" d="M358.54,246.5l13.32-5.21l24.24,56.6l24.36-56.6
	l13.44,5.21c-2.4,6.42-4.92,12.73-7.56,18.91c-2.76,6.3-5.52,12.48-8.28,18.54c-2.88,6.3-5.76,12.48-8.4,18.67
	c-2.76,6.3-5.28,12.6-7.56,18.91h-11.64L358.54,246.5z"/>
<path fill="#F3ED75" stroke="#F3ED75" stroke-width="2" stroke-miterlimit="10" d="M488.02,321.52v-34.66
	c-0.72,2.42-2.16,4.48-4.32,6.06c-2.16,1.7-4.8,2.54-7.8,2.54h-26.64v26.06H435.1v-47.87c0-5.09,0.84-9.7,2.76-14.06
	c1.68-4.12,4.2-7.76,7.32-10.91c3.12-2.91,6.72-5.33,10.92-7.03c4.08-1.7,8.4-2.55,12.96-2.55c4.44,0,8.76,0.85,12.84,2.55
	c3.96,1.7,7.44,4.12,10.56,7.15c3,3.15,5.4,6.79,7.32,10.91c1.68,4.36,2.64,8.97,2.64,13.94v47.87H488.02z M488.02,275.46
	c0-3.15-0.48-6.18-1.32-8.97c-0.96-2.67-2.28-4.97-3.96-6.91s-3.72-3.39-6-4.61c-2.4-0.97-4.92-1.58-7.68-1.58
	c-2.88,0-5.52,0.61-7.92,1.58c-2.4,1.21-4.56,2.67-6.24,4.61c-1.8,1.94-3.12,4.24-4.08,6.91c-1.08,2.79-1.56,5.82-1.56,8.97v5.7
	h38.76L488.02,275.46L488.02,275.46z"/>
<path fill="#F3ED75" stroke="#F3ED75" stroke-width="2" stroke-miterlimit="10" d="M512.02,321.52v-79.99h13.68v65.93h46.92v2.42
	c0,1.58-0.36,3.03-0.84,4.36c-0.72,1.46-1.56,2.79-2.64,3.76c-1.2,1.09-2.52,1.94-3.96,2.54c-1.68,0.73-3.36,0.97-5.16,0.97
	L512.02,321.52L512.02,321.52z"/>
<path fill="#FFFFFF" stroke="#FFFFFF" stroke-width="2" stroke-miterlimit="10" d="M11.19,85.23V70.56h29.52
	c2.4,0,4.56-0.48,6.72-1.58c2.04-0.97,3.84-2.3,5.52-4c1.44-1.58,2.76-3.52,3.72-5.7c0.84-2.18,1.32-4.36,1.32-6.79H18.75
	c-2.16,0-4.08-0.36-5.76-1.21c-1.8-0.73-3.24-1.82-4.44-3.27c-1.32-1.33-2.28-3.03-2.88-4.97c-0.72-1.82-0.96-3.76-0.96-5.94
	c0-4.24,0.72-8.36,2.16-12.24c1.44-3.76,3.48-7.15,6.24-10.06c2.64-2.91,5.88-5.21,9.6-7.03c3.6-1.7,7.68-2.54,12.24-2.54h33.36
	V19.9H34.95c-2.64,0-4.92,0.48-6.84,1.45c-2.04,1.09-3.72,2.42-4.92,4c-1.44,1.7-2.4,3.64-3,5.7c-0.72,2.18-1.08,4.24-1.08,6.3
	h39.24c1.92,0,3.84,0.36,5.64,1.09c1.68,0.85,3.24,1.94,4.56,3.27c1.2,1.45,2.16,3.03,2.88,4.85c0.6,1.94,0.96,3.88,0.96,6.06
	c0,4.48-0.84,8.73-2.28,12.6c-1.68,4-3.84,7.39-6.48,10.3c-2.88,3.03-6,5.33-9.6,7.03c-3.72,1.82-7.68,2.67-11.88,2.67H11.19V85.23z
	"/>
<path fill="#FFFFFF" stroke="#FFFFFF" stroke-width="2" stroke-miterlimit="10" d="M79.59,5.23h57.96v14.06H93.27v17.09h41.16v2.42
	c0,1.58-0.36,3.03-0.84,4.36c-0.72,1.45-1.56,2.79-2.64,3.76c-1.2,1.09-2.52,1.94-3.96,2.55c-1.68,0.73-3.36,0.97-5.16,0.97H93.27
	v20.73h46.2v2.42c0,1.58-0.36,3.03-0.84,4.36c-0.72,1.45-1.56,2.79-2.64,3.76c-1.2,1.09-2.52,1.94-3.96,2.55
	c-1.68,0.73-3.36,0.97-5.16,0.97H79.59V5.23z"/>
<path fill="#FFFFFF" stroke="#FFFFFF" stroke-width="2" stroke-miterlimit="10" d="M143.19,10.2l13.32-5.21l24.24,56.6l24.36-56.6
	l13.44,5.21c-2.4,6.42-4.92,12.73-7.56,18.91c-2.76,6.3-5.52,12.48-8.28,18.54c-2.88,6.3-5.76,12.48-8.4,18.67
	c-2.76,6.3-5.28,12.6-7.56,18.91h-11.64L143.19,10.2z"/>
<path fill="#FFFFFF" stroke="#FFFFFF" stroke-width="2" stroke-miterlimit="10" d="M224.91,5.23h57.96v14.06h-44.28v17.09h41.16
	v2.42c0,1.58-0.36,3.03-0.84,4.36c-0.72,1.45-1.56,2.79-2.64,3.76c-1.2,1.09-2.52,1.94-3.96,2.55c-1.68,0.73-3.36,0.97-5.16,0.97
	h-28.56v20.73h46.2v2.42c0,1.58-0.36,3.03-0.84,4.36c-0.72,1.45-1.56,2.79-2.64,3.76c-1.2,1.09-2.52,1.94-3.96,2.55
	c-1.68,0.73-3.36,0.97-5.16,0.97h-47.28V5.23z"/>
<path fill="#FFFFFF" stroke="#FFFFFF" stroke-width="2" stroke-miterlimit="10" d="M357.27,5.23V83.4c0,1.21-0.6,1.82-1.68,1.82
	h-9.6c-0.48,0-0.72,0-0.84,0c-0.24,0-0.48-0.12-0.48-0.48l-38.4-51.15v51.75h-13.68V5.23h11.64c0.12,0,0.36,0.12,0.72,0.12
	c0.24,0.12,0.48,0.36,0.72,0.73l37.68,50.78V5.23H357.27z"/>
<path fill="#FFFFFF" stroke="#FFFFFF" stroke-width="2" stroke-miterlimit="10" d="M402.99,85.23h-14.16V19.29h-26.04V5.23h67.44
	v2.42c0,1.58-0.36,3.03-0.84,4.36c-0.72,1.45-1.56,2.79-2.64,3.76c-1.2,1.09-2.52,1.94-3.96,2.54c-1.68,0.73-3.36,0.97-5.16,0.97
	h-14.64L402.99,85.23L402.99,85.23z"/>
<path fill="#FFFFFF" stroke="#FFFFFF" stroke-width="2" stroke-miterlimit="10" d="M435.99,5.23h57.96v14.06h-44.28v17.09h41.16
	v2.42c0,1.58-0.36,3.03-0.84,4.36c-0.72,1.45-1.56,2.79-2.64,3.76c-1.2,1.09-2.52,1.94-3.96,2.55c-1.68,0.73-3.36,0.97-5.16,0.97
	h-28.56v20.73h46.2v2.42c0,1.58-0.36,3.03-0.84,4.36c-0.72,1.45-1.56,2.79-2.64,3.76c-1.2,1.09-2.52,1.94-3.96,2.55
	c-1.68,0.73-3.36,0.97-5.16,0.97h-47.28V5.23z"/>
<path fill="#FFFFFF" stroke="#FFFFFF" stroke-width="2" stroke-miterlimit="10" d="M506.07,5.23h57.96v14.06h-44.28v17.09h41.16
	v2.42c0,1.58-0.36,3.03-0.84,4.36c-0.72,1.45-1.56,2.79-2.64,3.76c-1.2,1.09-2.52,1.94-3.96,2.55c-1.68,0.73-3.36,0.97-5.16,0.97
	h-28.56v20.73h46.2v2.42c0,1.58-0.36,3.03-0.84,4.36c-0.72,1.45-1.56,2.79-2.64,3.76c-1.2,1.09-2.52,1.94-3.96,2.55
	c-1.68,0.73-3.36,0.97-5.16,0.97h-47.28L506.07,5.23L506.07,5.23z"/>
<path fill="#FFFFFF" stroke="#FFFFFF" stroke-width="2" stroke-miterlimit="10" d="M638.42,5.23V83.4c0,1.21-0.6,1.82-1.68,1.82
	h-9.6c-0.48,0-0.72,0-0.84,0c-0.24,0-0.48-0.12-0.48-0.48l-38.4-51.15v51.75h-13.68V5.23h11.64c0.12,0,0.36,0.12,0.72,0.12
	c0.24,0.12,0.48,0.36,0.72,0.73l37.68,50.78V5.23H638.42z"/>
<g>
	<path fill="#974465" stroke="#974465" stroke-width="2" stroke-miterlimit="10" d="M135.14,210.4h-13.68v-79.87h13.68v31.15h38.28
		v-31.15h13.92v79.87h-13.92v-41.33c-0.96,1.94-2.52,3.52-4.44,4.73c-2.04,1.33-4.32,1.94-6.96,1.94h-26.88L135.14,210.4
		L135.14,210.4z"/>
	<path fill="#974465" stroke="#974465" stroke-width="2" stroke-miterlimit="10" d="M196.22,130.53h57.96v14.06H209.9v17.09h41.16
		v2.42c0,1.58-0.36,3.03-0.84,4.36c-0.72,1.45-1.56,2.79-2.64,3.76c-1.2,1.09-2.52,1.94-3.96,2.55c-1.68,0.73-3.36,0.97-5.16,0.97
		H209.9v20.73h46.2v2.42c0,1.58-0.36,3.03-0.84,4.36c-0.72,1.45-1.56,2.79-2.64,3.76c-1.2,1.09-2.52,1.94-3.96,2.55
		c-1.68,0.73-3.36,0.97-5.16,0.97h-47.28V130.53z"/>
	<path fill="#974465" stroke="#974465" stroke-width="2" stroke-miterlimit="10" d="M314.9,210.52v-34.66
		c-0.72,2.42-2.16,4.48-4.32,6.06c-2.16,1.7-4.8,2.54-7.8,2.54h-26.64v26.06h-14.16v-47.87c0-5.09,0.84-9.7,2.76-14.06
		c1.68-4.12,4.2-7.76,7.32-10.91c3.12-2.91,6.72-5.33,10.92-7.03c4.08-1.7,8.4-2.55,12.96-2.55c4.44,0,8.76,0.85,12.84,2.55
		c3.96,1.7,7.44,4.12,10.56,7.15c3,3.15,5.4,6.79,7.32,10.91c1.68,4.36,2.64,8.97,2.64,13.94v47.87L314.9,210.52L314.9,210.52z
		 M314.9,164.46c0-3.15-0.48-6.18-1.32-8.97c-0.96-2.67-2.28-4.97-3.96-6.91s-3.72-3.39-6-4.61c-2.4-0.97-4.92-1.58-7.68-1.58
		c-2.88,0-5.52,0.61-7.92,1.58c-2.4,1.21-4.56,2.67-6.24,4.61c-1.8,1.94-3.12,4.24-4.08,6.91c-1.08,2.79-1.56,5.82-1.56,8.97v5.7
		h38.76L314.9,164.46L314.9,164.46z"/>
	<path fill="#974465" stroke="#974465" stroke-width="2" stroke-miterlimit="10" d="M385.94,210.52v-17.57
		c0-1.45-0.24-2.79-0.72-4.12c-0.48-1.21-1.2-2.42-2.04-3.39c-0.96-0.97-2.04-1.7-3.24-2.3c-1.32-0.48-2.64-0.85-4.08-0.85h-5.88
		h-19.56v28.24H336.5v-79.99h33.48c4.8,0,9.24,0.48,13.32,1.21c3.96,0.85,7.44,2.3,10.44,4.24c2.88,2.06,5.16,4.73,6.84,8
		c1.68,3.39,2.52,7.51,2.52,12.36c0,2.3-0.24,4.24-0.6,5.94c-0.48,1.82-1.2,3.39-1.92,4.85c-0.84,1.45-1.8,2.79-2.88,4
		c-1.2,1.21-2.64,2.42-4.08,3.64l-0.36,0.36c2.16,2.55,3.96,5.33,5.28,8.24c1.2,3.03,1.8,6.18,1.8,9.58v17.57h-14.4V210.52z
		 M369.98,168.22c2.28,0,4.56-0.12,6.96-0.61c2.16-0.24,4.2-0.97,6.12-1.94c1.68-0.85,3.12-2.06,4.32-3.64
		c1.08-1.45,1.68-3.27,1.68-5.7c0-2.42-0.48-4.48-1.44-6.06c-1.08-1.45-2.4-2.67-4.08-3.64c-1.8-0.73-3.84-1.33-6.12-1.7
		c-2.4-0.24-4.8-0.36-7.44-0.36h-19.56v23.63h19.56V168.22z"/>
	<path fill="#974465" stroke="#974465" stroke-width="2" stroke-miterlimit="10" d="M446.42,210.52h-14.16v-65.93h-26.04v-14.06
		h67.44v2.42c0,1.58-0.36,3.03-0.84,4.36c-0.72,1.45-1.56,2.79-2.64,3.76c-1.2,1.09-2.52,1.94-3.96,2.54
		c-1.68,0.73-3.36,0.97-5.16,0.97h-14.64L446.42,210.52L446.42,210.52z"/>
	<path fill="#974465" stroke="#974465" stroke-width="2" stroke-miterlimit="10" d="M476.9,210.52v-14.67h29.52
		c2.4,0,4.56-0.48,6.72-1.58c2.04-0.97,3.84-2.3,5.52-4c1.44-1.58,2.76-3.52,3.72-5.7c0.84-2.18,1.32-4.36,1.32-6.79h-39.24
		c-2.16,0-4.08-0.36-5.76-1.21c-1.8-0.73-3.24-1.82-4.44-3.27c-1.32-1.33-2.28-3.03-2.88-4.97c-0.72-1.82-0.96-3.76-0.96-5.94
		c0-4.24,0.72-8.36,2.16-12.24c1.44-3.76,3.48-7.15,6.24-10.06c2.64-2.91,5.88-5.21,9.6-7.03c3.6-1.7,7.68-2.54,12.24-2.54h33.36
		v14.67h-33.36c-2.64,0-4.92,0.48-6.84,1.45c-2.04,1.09-3.72,2.42-4.92,4c-1.44,1.7-2.4,3.64-3,5.7c-0.72,2.18-1.08,4.24-1.08,6.3
		h39.24c1.92,0,3.84,0.36,5.64,1.09c1.68,0.85,3.24,1.94,4.56,3.27c1.2,1.45,2.16,3.03,2.88,4.85c0.6,1.94,0.96,3.88,0.96,6.06
		c0,4.48-0.84,8.73-2.28,12.6c-1.68,4-3.84,7.39-6.48,10.3c-2.88,3.03-6,5.33-9.6,7.03c-3.72,1.82-7.68,2.67-11.88,2.67
		L476.9,210.52L476.9,210.52z"/>
	<path fill="#F3ED75" stroke="#F3ED75" stroke-width="2" stroke-miterlimit="10" d="M125.14,201.4h-13.68v-79.87h13.68v31.15h38.28
		v-31.15h13.92v79.87h-13.92v-41.33c-0.96,1.94-2.52,3.52-4.44,4.73c-2.04,1.33-4.32,1.94-6.96,1.94h-26.88
		C125.14,166.74,125.14,201.4,125.14,201.4z"/>
	<path fill="#F3ED75" stroke="#F3ED75" stroke-width="2" stroke-miterlimit="10" d="M186.22,121.53h57.96v14.06H199.9v17.09h41.16
		v2.42c0,1.58-0.36,3.03-0.84,4.36c-0.72,1.45-1.56,2.79-2.64,3.76c-1.2,1.09-2.52,1.94-3.96,2.55c-1.68,0.73-3.36,0.97-5.16,0.97
		H199.9v20.73h46.2v2.42c0,1.58-0.36,3.03-0.84,4.36c-0.72,1.45-1.56,2.79-2.64,3.76c-1.2,1.09-2.52,1.94-3.96,2.55
		c-1.68,0.73-3.36,0.97-5.16,0.97h-47.28L186.22,121.53L186.22,121.53z"/>
	<path fill="#F3ED75" stroke="#F3ED75" stroke-width="2" stroke-miterlimit="10" d="M304.9,201.52v-34.66
		c-0.72,2.42-2.16,4.48-4.32,6.06c-2.16,1.7-4.8,2.54-7.8,2.54h-26.64v26.06h-14.16v-47.87c0-5.09,0.84-9.7,2.76-14.06
		c1.68-4.12,4.2-7.76,7.32-10.91c3.12-2.91,6.72-5.33,10.92-7.03c4.08-1.7,8.4-2.55,12.96-2.55c4.44,0,8.76,0.85,12.84,2.55
		c3.96,1.7,7.44,4.12,10.56,7.15c3,3.15,5.4,6.79,7.32,10.91c1.68,4.36,2.64,8.97,2.64,13.94v47.87L304.9,201.52L304.9,201.52z
		 M304.9,155.46c0-3.15-0.48-6.18-1.32-8.97c-0.96-2.67-2.28-4.97-3.96-6.91s-3.72-3.39-6-4.61c-2.4-0.97-4.92-1.58-7.68-1.58
		c-2.88,0-5.52,0.61-7.92,1.58c-2.4,1.21-4.56,2.67-6.24,4.61c-1.8,1.94-3.12,4.24-4.08,6.91c-1.08,2.79-1.56,5.82-1.56,8.97v5.7
		h38.76L304.9,155.46L304.9,155.46z"/>
	<path fill="#F3ED75" stroke="#F3ED75" stroke-width="2" stroke-miterlimit="10" d="M375.94,201.52v-17.57
		c0-1.45-0.24-2.79-0.72-4.12c-0.48-1.21-1.2-2.42-2.04-3.39c-0.96-0.97-2.04-1.7-3.24-2.3c-1.32-0.48-2.64-0.85-4.08-0.85h-5.88
		h-19.56v28.24H326.5v-79.99h33.48c4.8,0,9.24,0.48,13.32,1.21c3.96,0.85,7.44,2.3,10.44,4.24c2.88,2.06,5.16,4.73,6.84,8
		c1.68,3.39,2.52,7.51,2.52,12.36c0,2.3-0.24,4.24-0.6,5.94c-0.48,1.82-1.2,3.39-1.92,4.85c-0.84,1.45-1.8,2.79-2.88,4
		c-1.2,1.21-2.64,2.42-4.08,3.64l-0.36,0.36c2.16,2.55,3.96,5.33,5.28,8.24c1.2,3.03,1.8,6.18,1.8,9.58v17.57h-14.4V201.52z
		 M359.98,159.22c2.28,0,4.56-0.12,6.96-0.61c2.16-0.24,4.2-0.97,6.12-1.94c1.68-0.85,3.12-2.06,4.32-3.64
		c1.08-1.45,1.68-3.27,1.68-5.7c0-2.42-0.48-4.48-1.44-6.06c-1.08-1.45-2.4-2.67-4.08-3.64c-1.8-0.73-3.84-1.33-6.12-1.7
		c-2.4-0.24-4.8-0.36-7.44-0.36h-19.56v23.63h19.56V159.22z"/>
	<path fill="#F3ED75" stroke="#F3ED75" stroke-width="2" stroke-miterlimit="10" d="M436.42,201.52h-14.16v-65.93h-26.04v-14.06
		h67.44v2.42c0,1.58-0.36,3.03-0.84,4.36c-0.72,1.45-1.56,2.79-2.64,3.76c-1.2,1.09-2.52,1.94-3.96,2.54
		c-1.68,0.73-3.36,0.97-5.16,0.97h-14.64L436.42,201.52L436.42,201.52z"/>
	<path fill="#F3ED75" stroke="#F3ED75" stroke-width="2" stroke-miterlimit="10" d="M466.9,201.52v-14.67h29.52
		c2.4,0,4.56-0.48,6.72-1.58c2.04-0.97,3.84-2.3,5.52-4c1.44-1.58,2.76-3.52,3.72-5.7c0.84-2.18,1.32-4.36,1.32-6.79h-39.24
		c-2.16,0-4.08-0.36-5.76-1.21c-1.8-0.73-3.24-1.82-4.44-3.27c-1.32-1.33-2.28-3.03-2.88-4.97c-0.72-1.82-0.96-3.76-0.96-5.94
		c0-4.24,0.72-8.36,2.16-12.24c1.44-3.76,3.48-7.15,6.24-10.06c2.64-2.91,5.88-5.21,9.6-7.03c3.6-1.7,7.68-2.54,12.24-2.54h33.36
		v14.67h-33.36c-2.64,0-4.92,0.48-6.84,1.45c-2.04,1.09-3.72,2.42-4.92,4c-1.44,1.7-2.4,3.64-3,5.7c-0.72,2.18-1.08,4.24-1.08,6.3
		h39.24c1.92,0,3.84,0.36,5.64,1.09c1.68,0.85,3.24,1.94,4.56,3.27c1.2,1.45,2.16,3.03,2.88,4.85c0.6,1.94,0.96,3.88,0.96,6.06
		c0,4.48-0.84,8.73-2.28,12.6c-1.68,4-3.84,7.39-6.48,10.3c-2.88,3.03-6,5.33-9.6,7.03c-3.72,1.82-7.68,2.67-11.88,2.67
		L466.9,201.52L466.9,201.52z"/>
	<path fill="#FFFFFF" stroke="#FFFFFF" stroke-width="2" stroke-miterlimit="10" d="M128.85,205.11h-13.68v-79.87h13.68v31.15h38.28
		v-31.15h13.92v79.87h-13.92v-41.33c-0.96,1.94-2.52,3.52-4.44,4.73c-2.04,1.33-4.32,1.94-6.96,1.94h-26.88L128.85,205.11
		L128.85,205.11z"/>
	<path fill="#FFFFFF" stroke="#FFFFFF" stroke-width="2" stroke-miterlimit="10" d="M189.93,125.23h57.96v14.06h-44.28v17.09h41.16
		v2.42c0,1.58-0.36,3.03-0.84,4.36c-0.72,1.45-1.56,2.79-2.64,3.76c-1.2,1.09-2.52,1.94-3.96,2.55c-1.68,0.73-3.36,0.97-5.16,0.97
		h-28.56v20.73h46.2v2.42c0,1.58-0.36,3.03-0.84,4.36c-0.72,1.45-1.56,2.79-2.64,3.76c-1.2,1.09-2.52,1.94-3.96,2.55
		c-1.68,0.73-3.36,0.97-5.16,0.97h-47.28L189.93,125.23L189.93,125.23z"/>
	<path fill="#FFFFFF" stroke="#FFFFFF" stroke-width="2" stroke-miterlimit="10" d="M308.61,205.23v-34.66
		c-0.72,2.42-2.16,4.48-4.32,6.06c-2.16,1.7-4.8,2.54-7.8,2.54h-26.64v26.06h-14.16v-47.87c0-5.09,0.84-9.7,2.76-14.06
		c1.68-4.12,4.2-7.76,7.32-10.91c3.12-2.91,6.72-5.33,10.92-7.03c4.08-1.7,8.4-2.55,12.96-2.55c4.44,0,8.76,0.85,12.84,2.55
		c3.96,1.7,7.44,4.12,10.56,7.15c3,3.15,5.4,6.79,7.32,10.91c1.68,4.36,2.64,8.97,2.64,13.94v47.87L308.61,205.23L308.61,205.23z
		 M308.61,159.17c0-3.15-0.48-6.18-1.32-8.97c-0.96-2.67-2.28-4.97-3.96-6.91s-3.72-3.39-6-4.61c-2.4-0.97-4.92-1.58-7.68-1.58
		c-2.88,0-5.52,0.61-7.92,1.58c-2.4,1.21-4.56,2.67-6.24,4.61c-1.8,1.94-3.12,4.24-4.08,6.91c-1.08,2.79-1.56,5.82-1.56,8.97v5.7
		h38.76L308.61,159.17L308.61,159.17z"/>
	<path fill="#FFFFFF" stroke="#FFFFFF" stroke-width="2" stroke-miterlimit="10" d="M379.65,205.23v-17.57
		c0-1.45-0.24-2.79-0.72-4.12c-0.48-1.21-1.2-2.42-2.04-3.39c-0.96-0.97-2.04-1.7-3.24-2.3c-1.32-0.48-2.64-0.85-4.08-0.85h-5.88
		h-19.56v28.24h-13.92v-79.99h33.48c4.8,0,9.24,0.48,13.32,1.21c3.96,0.85,7.44,2.3,10.44,4.24c2.88,2.06,5.16,4.73,6.84,8
		c1.68,3.39,2.52,7.51,2.52,12.36c0,2.3-0.24,4.24-0.6,5.94c-0.48,1.82-1.2,3.39-1.92,4.85c-0.84,1.45-1.8,2.79-2.88,4
		c-1.2,1.21-2.64,2.42-4.08,3.64l-0.36,0.36c2.16,2.55,3.96,5.33,5.28,8.24c1.2,3.03,1.8,6.18,1.8,9.58v17.57h-14.4V205.23z
		 M363.69,162.93c2.28,0,4.56-0.12,6.96-0.61c2.16-0.24,4.2-0.97,6.12-1.94c1.68-0.85,3.12-2.06,4.32-3.64
		c1.08-1.45,1.68-3.27,1.68-5.7c0-2.42-0.48-4.48-1.44-6.06c-1.08-1.45-2.4-2.67-4.08-3.64c-1.8-0.73-3.84-1.33-6.12-1.7
		c-2.4-0.24-4.8-0.36-7.44-0.36h-19.56v23.63h19.56V162.93z"/>
	<path fill="#FFFFFF" stroke="#FFFFFF" stroke-width="2" stroke-miterlimit="10" d="M440.12,205.23h-14.16V139.3h-26.04v-14.06
		h67.44v2.42c0,1.58-0.36,3.03-0.84,4.36c-0.72,1.45-1.56,2.79-2.64,3.76c-1.2,1.09-2.52,1.94-3.96,2.54
		c-1.68,0.73-3.36,0.97-5.16,0.97h-14.64L440.12,205.23L440.12,205.23z"/>
	<path fill="#FFFFFF" stroke="#FFFFFF" stroke-width="2" stroke-miterlimit="10" d="M470.61,205.23v-14.67h29.52
		c2.4,0,4.56-0.48,6.72-1.58c2.04-0.97,3.84-2.3,5.52-4c1.44-1.58,2.76-3.52,3.72-5.7c0.84-2.18,1.32-4.36,1.32-6.79h-39.24
		c-2.16,0-4.08-0.36-5.76-1.21c-1.8-0.73-3.24-1.82-4.44-3.27c-1.32-1.33-2.28-3.03-2.88-4.97c-0.72-1.82-0.96-3.76-0.96-5.94
		c0-4.24,0.72-8.36,2.16-12.24c1.44-3.76,3.48-7.15,6.24-10.06c2.64-2.91,5.88-5.21,9.6-7.03c3.6-1.7,7.68-2.54,12.24-2.54h33.36
		v14.67h-33.36c-2.64,0-4.92,0.48-6.84,1.45c-2.04,1.09-3.72,2.42-4.92,4c-1.44,1.7-2.4,3.64-3,5.7c-0.72,2.18-1.08,4.24-1.08,6.3
		h39.24c1.92,0,3.84,0.36,5.64,1.09c1.68,0.85,3.24,1.94,4.56,3.27c1.2,1.45,2.16,3.03,2.88,4.85c0.6,1.94,0.96,3.88,0.96,6.06
		c0,4.48-0.84,8.73-2.28,12.6c-1.68,4-3.84,7.39-6.48,10.3c-2.88,3.03-6,5.33-9.6,7.03c-3.72,1.82-7.68,2.67-11.88,2.67
		L470.61,205.23L470.61,205.23z"/>
</g>
<path fill="#FFFFFF" stroke="#FFFFFF" stroke-width="2" stroke-miterlimit="10" d="M69.93,325.23v-79.99h57.96v14.06H83.61v17.09
	h41.16v2.42c0,1.58-0.36,3.03-0.84,4.36c-0.72,1.46-1.56,2.79-2.64,3.76c-1.2,1.09-2.52,1.94-3.96,2.54
	c-1.68,0.73-3.36,0.97-5.16,0.97H83.61v34.78L69.93,325.23L69.93,325.23z"/>
<path fill="#FFFFFF" stroke="#FFFFFF" stroke-width="2" stroke-miterlimit="10" d="M136.29,245.23h57.96v14.06h-44.28v17.09h41.16
	v2.42c0,1.58-0.36,3.03-0.84,4.36c-0.72,1.46-1.56,2.79-2.64,3.76c-1.2,1.09-2.52,1.94-3.96,2.54c-1.68,0.73-3.36,0.97-5.16,0.97
	h-28.56v20.73h46.2v2.42c0,1.58-0.36,3.03-0.84,4.36c-0.72,1.45-1.56,2.79-2.64,3.76c-1.2,1.09-2.52,1.94-3.96,2.55
	c-1.68,0.73-3.36,0.97-5.16,0.97h-47.28V245.23z"/>
<path fill="#FFFFFF" stroke="#FFFFFF" stroke-width="2" stroke-miterlimit="10" d="M204.93,325.23v-14.67h29.52
	c2.4,0,4.56-0.48,6.72-1.58c2.04-0.97,3.84-2.3,5.52-4c1.44-1.58,2.76-3.51,3.72-5.7c0.84-2.18,1.32-4.36,1.32-6.79h-39.24
	c-2.16,0-4.08-0.36-5.76-1.21c-1.8-0.73-3.24-1.82-4.44-3.27c-1.32-1.33-2.28-3.03-2.88-4.97c-0.72-1.82-0.96-3.76-0.96-5.94
	c0-4.24,0.72-8.36,2.16-12.24c1.44-3.76,3.48-7.15,6.24-10.06c2.64-2.91,5.88-5.21,9.6-7.03c3.6-1.7,7.68-2.54,12.24-2.54h33.36
	v14.66h-33.36c-2.64,0-4.92,0.49-6.84,1.46c-2.04,1.09-3.72,2.42-4.92,4c-1.44,1.7-2.4,3.64-3,5.7c-0.72,2.18-1.08,4.24-1.08,6.3
	h39.24c1.92,0,3.84,0.36,5.64,1.09c1.68,0.85,3.24,1.94,4.56,3.27c1.2,1.45,2.16,3.03,2.88,4.85c0.6,1.94,0.96,3.88,0.96,6.06
	c0,4.48-0.84,8.73-2.28,12.6c-1.68,4-3.84,7.39-6.48,10.3c-2.88,3.03-6,5.33-9.6,7.03c-3.72,1.82-7.68,2.67-11.88,2.67h-30.96
	V325.23z"/>
<path fill="#FFFFFF" stroke="#FFFFFF" stroke-width="2" stroke-miterlimit="10" d="M309.92,325.23h-14.16V259.3h-26.04v-14.06h67.44
	v2.42c0,1.58-0.36,3.03-0.84,4.36c-0.72,1.46-1.56,2.79-2.64,3.76c-1.2,1.09-2.52,1.94-3.96,2.54c-1.68,0.73-3.36,0.97-5.16,0.97
	h-14.64L309.92,325.23L309.92,325.23z"/>
<path fill="#FFFFFF" stroke="#FFFFFF" stroke-width="2" stroke-miterlimit="10" d="M342.21,325.11v-79.87h14.4v79.87H342.21z"/>
<path fill="#FFFFFF" stroke="#FFFFFF" stroke-width="2" stroke-miterlimit="10" d="M362.25,250.2l13.32-5.21l24.24,56.6l24.36-56.6
	l13.44,5.21c-2.4,6.42-4.92,12.73-7.56,18.91c-2.76,6.3-5.52,12.48-8.28,18.54c-2.88,6.3-5.76,12.48-8.4,18.67
	c-2.76,6.3-5.28,12.61-7.56,18.91h-11.64L362.25,250.2z"/>
<path fill="#FFFFFF" stroke="#FFFFFF" stroke-width="2" stroke-miterlimit="10" d="M491.73,325.23v-34.66
	c-0.72,2.42-2.16,4.48-4.32,6.06c-2.16,1.7-4.8,2.54-7.8,2.54h-26.64v26.06h-14.16v-47.87c0-5.09,0.84-9.7,2.76-14.06
	c1.68-4.12,4.2-7.76,7.32-10.91c3.12-2.91,6.72-5.33,10.92-7.03c4.08-1.7,8.4-2.55,12.96-2.55c4.44,0,8.76,0.85,12.84,2.55
	c3.96,1.7,7.44,4.12,10.56,7.15c3,3.15,5.4,6.79,7.32,10.91c1.68,4.36,2.64,8.97,2.64,13.94v47.87H491.73z M491.73,279.17
	c0-3.15-0.48-6.18-1.32-8.97c-0.96-2.67-2.28-4.97-3.96-6.91s-3.72-3.39-6-4.61c-2.4-0.97-4.92-1.58-7.68-1.58
	c-2.88,0-5.52,0.61-7.92,1.58c-2.4,1.21-4.56,2.67-6.24,4.61c-1.8,1.94-3.12,4.24-4.08,6.91c-1.08,2.79-1.56,5.82-1.56,8.97v5.7
	h38.76L491.73,279.17L491.73,279.17z"/>
<path fill="#FFFFFF" stroke="#FFFFFF" stroke-width="2" stroke-miterlimit="10" d="M515.73,325.23v-79.99h13.68v65.93h46.92v2.42
	c0,1.58-0.36,3.03-0.84,4.36c-0.72,1.45-1.56,2.79-2.64,3.76c-1.2,1.09-2.52,1.94-3.96,2.55c-1.68,0.73-3.36,0.97-5.16,0.97H515.73z
	"/>
</svg>
