<?xml version="1.0" encoding="utf-8"?>
<!-- Generator: Adobe Illustrator 26.0.1, SVG Export Plug-In . SVG Version: 6.00 Build 0)  -->
<svg version="1.2" baseProfile="tiny" id="레이어_1"
	 xmlns="http://www.w3.org/2000/svg" xmlns:xlink="http://www.w3.org/1999/xlink" x="0px" y="0px" viewBox="0 0 1678.48 93.43"
	 overflow="visible" xml:space="preserve">
<g>
	<path fill="#974465" stroke="#974465" stroke-width="2" stroke-miterlimit="10" d="M17.48,91.27V76.6H47c2.4,0,4.56-0.48,6.72-1.58
		c2.04-0.97,3.84-2.3,5.52-4c1.44-1.58,2.76-3.52,3.72-5.7c0.84-2.18,1.32-4.36,1.32-6.79H25.04c-2.16,0-4.08-0.36-5.76-1.21
		c-1.8-0.73-3.24-1.82-4.44-3.27c-1.32-1.33-2.28-3.03-2.88-4.97C11.24,47.27,11,45.33,11,43.15c0-4.24,0.72-8.36,2.16-12.24
		c1.44-3.76,3.48-7.15,6.24-10.06c2.64-2.91,5.88-5.21,9.6-7.03c3.6-1.7,7.68-2.54,12.24-2.54H74.6v14.67H41.24
		c-2.64,0-4.92,0.48-6.84,1.45c-2.04,1.09-3.72,2.42-4.92,4c-1.44,1.7-2.4,3.64-3,5.7c-0.72,2.18-1.08,4.24-1.08,6.3h39.24
		c1.92,0,3.84,0.36,5.64,1.09c1.68,0.85,3.24,1.94,4.56,3.27c1.2,1.45,2.16,3.03,2.88,4.85c0.6,1.94,0.96,3.88,0.96,6.06
		c0,4.48-0.84,8.73-2.28,12.6c-1.68,4-3.84,7.39-6.48,10.3c-2.88,3.03-6,5.33-9.6,7.03c-3.72,1.82-7.68,2.67-11.88,2.67
		C48.44,91.27,17.48,91.27,17.48,91.27z"/>
	<path fill="#974465" stroke="#974465" stroke-width="2" stroke-miterlimit="10" d="M85.88,11.28h57.96v14.06H99.56v17.09h41.16
		v2.42c0,1.58-0.36,3.03-0.84,4.36c-0.72,1.45-1.56,2.79-2.64,3.76c-1.2,1.09-2.52,1.94-3.96,2.55c-1.68,0.73-3.36,0.97-5.16,0.97
		H99.56v20.73h46.2v2.42c0,1.58-0.36,3.03-0.84,4.36c-0.72,1.45-1.56,2.79-2.64,3.76c-1.2,1.09-2.52,1.94-3.96,2.55
		c-1.68,0.73-3.36,0.97-5.16,0.97H85.88V11.28z"/>
	<path fill="#974465" stroke="#974465" stroke-width="2" stroke-miterlimit="10" d="M149.48,16.25l13.32-5.21l24.24,56.6l24.36-56.6
		l13.44,5.21c-2.4,6.42-4.92,12.73-7.56,18.91c-2.76,6.3-5.52,12.48-8.28,18.54c-2.88,6.3-5.76,12.48-8.4,18.67
		c-2.76,6.3-5.28,12.6-7.56,18.91H181.4L149.48,16.25z"/>
	<path fill="#974465" stroke="#974465" stroke-width="2" stroke-miterlimit="10" d="M231.2,11.28h57.96v14.06h-44.28v17.09h41.16
		v2.42c0,1.58-0.36,3.03-0.84,4.36c-0.72,1.45-1.56,2.79-2.64,3.76c-1.2,1.09-2.52,1.94-3.96,2.55c-1.68,0.73-3.36,0.97-5.16,0.97
		h-28.56v20.73h46.2v2.42c0,1.58-0.36,3.03-0.84,4.36c-0.72,1.45-1.56,2.79-2.64,3.76c-1.2,1.09-2.52,1.94-3.96,2.55
		c-1.68,0.73-3.36,0.97-5.16,0.97H231.2V11.28z"/>
	<path fill="#974465" stroke="#974465" stroke-width="2" stroke-miterlimit="10" d="M363.56,11.28v78.17c0,1.21-0.6,1.82-1.68,1.82
		h-9.6c-0.48,0-0.72,0-0.84,0c-0.24,0-0.48-0.12-0.48-0.48l-38.4-51.15v51.75h-13.68V11.28h11.64c0.12,0,0.36,0.12,0.72,0.12
		c0.24,0.12,0.48,0.36,0.72,0.73l37.68,50.78V11.28H363.56z"/>
	<path fill="#974465" stroke="#974465" stroke-width="2" stroke-miterlimit="10" d="M409.28,91.27h-14.16V25.34h-26.04V11.28h67.44
		v2.42c0,1.58-0.36,3.03-0.84,4.36c-0.72,1.45-1.56,2.79-2.64,3.76c-1.2,1.09-2.52,1.94-3.96,2.54c-1.68,0.73-3.36,0.97-5.16,0.97
		h-14.64L409.28,91.27L409.28,91.27z"/>
	<path fill="#974465" stroke="#974465" stroke-width="2" stroke-miterlimit="10" d="M442.28,11.28h57.96v14.06h-44.28v17.09h41.16
		v2.42c0,1.58-0.36,3.03-0.84,4.36c-0.72,1.45-1.56,2.79-2.64,3.76c-1.2,1.09-2.52,1.94-3.96,2.55c-1.68,0.73-3.36,0.97-5.16,0.97
		h-28.56v20.73h46.2v2.42c0,1.58-0.36,3.03-0.84,4.36c-0.72,1.45-1.56,2.79-2.64,3.76c-1.2,1.09-2.52,1.94-3.96,2.55
		c-1.68,0.73-3.36,0.97-5.16,0.97h-47.28V11.28z"/>
	<path fill="#974465" stroke="#974465" stroke-width="2" stroke-miterlimit="10" d="M512.36,11.28h57.96v14.06h-44.28v17.09h41.16
		v2.42c0,1.58-0.36,3.03-0.84,4.36c-0.72,1.45-1.56,2.79-2.64,3.76c-1.2,1.09-2.52,1.94-3.96,2.55c-1.68,0.73-3.36,0.97-5.16,0.97
		h-28.56v20.73h46.2v2.42c0,1.58-0.36,3.03-0.84,4.36c-0.72,1.45-1.56,2.79-2.64,3.76c-1.2,1.09-2.52,1.94-3.96,2.55
		c-1.68,0.73-3.36,0.97-5.16,0.97h-47.28V11.28z"/>
	<path fill="#974465" stroke="#974465" stroke-width="2" stroke-miterlimit="10" d="M644.72,11.28v78.17c0,1.21-0.6,1.82-1.68,1.82
		h-9.6c-0.48,0-0.72,0-0.84,0c-0.24,0-0.48-0.12-0.48-0.48l-38.4-51.15v51.75h-13.68V11.28h11.64c0.12,0,0.36,0.12,0.72,0.12
		c0.24,0.12,0.48,0.36,0.72,0.73l37.68,50.78V11.28H644.72z"/>
	<path fill="#F3ED75" stroke="#F3ED75" stroke-width="2" stroke-miterlimit="10" d="M7.48,82.27V67.6H37c2.4,0,4.56-0.48,6.72-1.58
		c2.04-0.97,3.84-2.3,5.52-4c1.44-1.58,2.76-3.52,3.72-5.7c0.84-2.18,1.32-4.36,1.32-6.79H15.04c-2.16,0-4.08-0.36-5.76-1.21
		c-1.8-0.73-3.24-1.82-4.44-3.27c-1.32-1.33-2.28-3.03-2.88-4.97C1.24,38.27,1,36.33,1,34.15c0-4.24,0.72-8.36,2.16-12.24
		c1.44-3.76,3.48-7.15,6.24-10.06c2.64-2.91,5.88-5.21,9.6-7.03c3.6-1.7,7.68-2.54,12.24-2.54H64.6v14.67H31.24
		c-2.64,0-4.92,0.48-6.84,1.45c-2.04,1.09-3.72,2.42-4.92,4c-1.44,1.7-2.4,3.64-3,5.7c-0.72,2.18-1.08,4.24-1.08,6.3h39.24
		c1.92,0,3.84,0.36,5.64,1.09c1.68,0.85,3.24,1.94,4.56,3.27c1.2,1.45,2.16,3.03,2.88,4.85c0.6,1.94,0.96,3.88,0.96,6.06
		c0,4.48-0.84,8.73-2.28,12.6c-1.68,4-3.84,7.39-6.48,10.3c-2.88,3.03-6,5.33-9.6,7.03c-3.72,1.82-7.68,2.67-11.88,2.67
		C38.44,82.27,7.48,82.27,7.48,82.27z"/>
	<path fill="#F3ED75" stroke="#F3ED75" stroke-width="2" stroke-miterlimit="10" d="M75.88,2.28h57.96v14.06H89.56v17.09h41.16v2.42
		c0,1.58-0.36,3.03-0.84,4.36c-0.72,1.45-1.56,2.79-2.64,3.76c-1.2,1.09-2.52,1.94-3.96,2.55c-1.68,0.73-3.36,0.97-5.16,0.97H89.56
		v20.73h46.2v2.42c0,1.58-0.36,3.03-0.84,4.36c-0.72,1.45-1.56,2.79-2.64,3.76c-1.2,1.09-2.52,1.94-3.96,2.55
		c-1.68,0.73-3.36,0.97-5.16,0.97H75.88V2.28z"/>
	<path fill="#F3ED75" stroke="#F3ED75" stroke-width="2" stroke-miterlimit="10" d="M139.48,7.25l13.32-5.21l24.24,56.6l24.36-56.6
		l13.44,5.21c-2.4,6.42-4.92,12.73-7.56,18.91c-2.76,6.3-5.52,12.48-8.28,18.54c-2.88,6.3-5.76,12.48-8.4,18.67
		c-2.76,6.3-5.28,12.6-7.56,18.91H171.4L139.48,7.25z"/>
	<path fill="#F3ED75" stroke="#F3ED75" stroke-width="2" stroke-miterlimit="10" d="M221.2,2.28h57.96v14.06h-44.28v17.09h41.16
		v2.42c0,1.58-0.36,3.03-0.84,4.36c-0.72,1.45-1.56,2.79-2.64,3.76c-1.2,1.09-2.52,1.94-3.96,2.55c-1.68,0.73-3.36,0.97-5.16,0.97
		h-28.56v20.73h46.2v2.42c0,1.58-0.36,3.03-0.84,4.36c-0.72,1.45-1.56,2.79-2.64,3.76c-1.2,1.09-2.52,1.94-3.96,2.55
		c-1.68,0.73-3.36,0.97-5.16,0.97H221.2V2.28z"/>
	<path fill="#F3ED75" stroke="#F3ED75" stroke-width="2" stroke-miterlimit="10" d="M353.56,2.28v78.17c0,1.21-0.6,1.82-1.68,1.82
		h-9.6c-0.48,0-0.72,0-0.84,0c-0.24,0-0.48-0.12-0.48-0.48l-38.4-51.15v51.75h-13.68V2.28h11.64c0.12,0,0.36,0.12,0.72,0.12
		c0.24,0.12,0.48,0.36,0.72,0.73l37.68,50.78V2.28H353.56z"/>
	<path fill="#F3ED75" stroke="#F3ED75" stroke-width="2" stroke-miterlimit="10" d="M399.28,82.27h-14.16V16.34h-26.04V2.28h67.44
		V4.7c0,1.58-0.36,3.03-0.84,4.36c-0.72,1.45-1.56,2.79-2.64,3.76c-1.2,1.09-2.52,1.94-3.96,2.54c-1.68,0.73-3.36,0.97-5.16,0.97
		h-14.64L399.28,82.27L399.28,82.27z"/>
	<path fill="#F3ED75" stroke="#F3ED75" stroke-width="2" stroke-miterlimit="10" d="M432.28,2.28h57.96v14.06h-44.28v17.09h41.16
		v2.42c0,1.58-0.36,3.03-0.84,4.36c-0.72,1.45-1.56,2.79-2.64,3.76c-1.2,1.09-2.52,1.94-3.96,2.55c-1.68,0.73-3.36,0.97-5.16,0.97
		h-28.56v20.73h46.2v2.42c0,1.58-0.36,3.03-0.84,4.36c-0.72,1.45-1.56,2.79-2.64,3.76c-1.2,1.09-2.52,1.94-3.96,2.55
		c-1.68,0.73-3.36,0.97-5.16,0.97h-47.28V2.28z"/>
	<path fill="#F3ED75" stroke="#F3ED75" stroke-width="2" stroke-miterlimit="10" d="M502.36,2.28h57.96v14.06h-44.28v17.09h41.16
		v2.42c0,1.58-0.36,3.03-0.84,4.36c-0.72,1.45-1.56,2.79-2.64,3.76c-1.2,1.09-2.52,1.94-3.96,2.55c-1.68,0.73-3.36,0.97-5.16,0.97
		h-28.56v20.73h46.2v2.42c0,1.58-0.36,3.03-0.84,4.36c-0.72,1.45-1.56,2.79-2.64,3.76c-1.2,1.09-2.52,1.94-3.96,2.55
		c-1.68,0.73-3.36,0.97-5.16,0.97h-47.28L502.36,2.28L502.36,2.28z"/>
	<path fill="#F3ED75" stroke="#F3ED75" stroke-width="2" stroke-miterlimit="10" d="M634.72,2.28v78.17c0,1.21-0.6,1.82-1.68,1.82
		h-9.6c-0.48,0-0.72,0-0.84,0c-0.24,0-0.48-0.12-0.48-0.48l-38.4-51.15v51.75h-13.68V2.28h11.64c0.12,0,0.36,0.12,0.72,0.12
		c0.24,0.12,0.48,0.36,0.72,0.73l37.68,50.78V2.28H634.72z"/>
	<path fill="#FFFFFF" stroke="#FFFFFF" stroke-width="2" stroke-miterlimit="10" d="M11.19,85.98V71.31h29.52
		c2.4,0,4.56-0.48,6.72-1.58c2.04-0.97,3.84-2.3,5.52-4c1.44-1.58,2.76-3.52,3.72-5.7c0.84-2.18,1.32-4.36,1.32-6.79H18.75
		c-2.16,0-4.08-0.36-5.76-1.21c-1.8-0.73-3.24-1.82-4.44-3.27c-1.32-1.33-2.28-3.03-2.88-4.97c-0.72-1.82-0.96-3.76-0.96-5.94
		c0-4.24,0.72-8.36,2.16-12.24c1.44-3.76,3.48-7.15,6.24-10.06c2.64-2.91,5.88-5.21,9.6-7.03c3.6-1.7,7.68-2.54,12.24-2.54h33.36
		v14.67H34.95c-2.64,0-4.92,0.48-6.84,1.45c-2.04,1.09-3.72,2.42-4.92,4c-1.44,1.7-2.4,3.64-3,5.7c-0.72,2.18-1.08,4.24-1.08,6.3
		h39.24c1.92,0,3.84,0.36,5.64,1.09c1.68,0.85,3.24,1.94,4.56,3.27c1.2,1.45,2.16,3.03,2.88,4.85c0.6,1.94,0.96,3.88,0.96,6.06
		c0,4.48-0.84,8.73-2.28,12.6c-1.68,4-3.84,7.39-6.48,10.3c-2.88,3.03-6,5.33-9.6,7.03c-3.72,1.82-7.68,2.67-11.88,2.67H11.19V85.98
		z"/>
	<path fill="#FFFFFF" stroke="#FFFFFF" stroke-width="2" stroke-miterlimit="10" d="M79.59,5.98h57.96v14.06H93.27v17.09h41.16v2.42
		c0,1.58-0.36,3.03-0.84,4.36c-0.72,1.45-1.56,2.79-2.64,3.76c-1.2,1.09-2.52,1.94-3.96,2.55c-1.68,0.73-3.36,0.97-5.16,0.97H93.27
		v20.73h46.2v2.42c0,1.58-0.36,3.03-0.84,4.36c-0.72,1.45-1.56,2.79-2.64,3.76c-1.2,1.09-2.52,1.94-3.96,2.55
		c-1.68,0.73-3.36,0.97-5.16,0.97H79.59V5.98z"/>
	<path fill="#FFFFFF" stroke="#FFFFFF" stroke-width="2" stroke-miterlimit="10" d="M143.19,10.95l13.32-5.21l24.24,56.6l24.36-56.6
		l13.44,5.21c-2.4,6.42-4.92,12.73-7.56,18.91c-2.76,6.3-5.52,12.48-8.28,18.54c-2.88,6.3-5.76,12.48-8.4,18.67
		c-2.76,6.3-5.28,12.6-7.56,18.91h-11.64L143.19,10.95z"/>
	<path fill="#FFFFFF" stroke="#FFFFFF" stroke-width="2" stroke-miterlimit="10" d="M224.91,5.98h57.96v14.06h-44.28v17.09h41.16
		v2.42c0,1.58-0.36,3.03-0.84,4.36c-0.72,1.45-1.56,2.79-2.64,3.76c-1.2,1.09-2.52,1.94-3.96,2.55c-1.68,0.73-3.36,0.97-5.16,0.97
		h-28.56v20.73h46.2v2.42c0,1.58-0.36,3.03-0.84,4.36c-0.72,1.45-1.56,2.79-2.64,3.76c-1.2,1.09-2.52,1.94-3.96,2.55
		c-1.68,0.73-3.36,0.97-5.16,0.97h-47.28V5.98z"/>
	<path fill="#FFFFFF" stroke="#FFFFFF" stroke-width="2" stroke-miterlimit="10" d="M357.27,5.98v78.17c0,1.21-0.6,1.82-1.68,1.82
		h-9.6c-0.48,0-0.72,0-0.84,0c-0.24,0-0.48-0.12-0.48-0.48l-38.4-51.15v51.75h-13.68V5.98h11.64c0.12,0,0.36,0.12,0.72,0.12
		c0.24,0.12,0.48,0.36,0.72,0.73l37.68,50.78V5.98H357.27z"/>
	<path fill="#FFFFFF" stroke="#FFFFFF" stroke-width="2" stroke-miterlimit="10" d="M402.99,85.98h-14.16V20.04h-26.04V5.98h67.44
		V8.4c0,1.58-0.36,3.03-0.84,4.36c-0.72,1.45-1.56,2.79-2.64,3.76c-1.2,1.09-2.52,1.94-3.96,2.54c-1.68,0.73-3.36,0.97-5.16,0.97
		h-14.64L402.99,85.98L402.99,85.98z"/>
	<path fill="#FFFFFF" stroke="#FFFFFF" stroke-width="2" stroke-miterlimit="10" d="M435.99,5.98h57.96v14.06h-44.28v17.09h41.16
		v2.42c0,1.58-0.36,3.03-0.84,4.36c-0.72,1.45-1.56,2.79-2.64,3.76c-1.2,1.09-2.52,1.94-3.96,2.55c-1.68,0.73-3.36,0.97-5.16,0.97
		h-28.56v20.73h46.2v2.42c0,1.58-0.36,3.03-0.84,4.36c-0.72,1.45-1.56,2.79-2.64,3.76c-1.2,1.09-2.52,1.94-3.96,2.55
		c-1.68,0.73-3.36,0.97-5.16,0.97h-47.28V5.98z"/>
	<path fill="#FFFFFF" stroke="#FFFFFF" stroke-width="2" stroke-miterlimit="10" d="M506.07,5.98h57.96v14.06h-44.28v17.09h41.16
		v2.42c0,1.58-0.36,3.03-0.84,4.36c-0.72,1.45-1.56,2.79-2.64,3.76c-1.2,1.09-2.52,1.94-3.96,2.55c-1.68,0.73-3.36,0.97-5.16,0.97
		h-28.56v20.73h46.2v2.42c0,1.58-0.36,3.03-0.84,4.36c-0.72,1.45-1.56,2.79-2.64,3.76c-1.2,1.09-2.52,1.94-3.96,2.55
		c-1.68,0.73-3.36,0.97-5.16,0.97h-47.28L506.07,5.98L506.07,5.98z"/>
	<path fill="#FFFFFF" stroke="#FFFFFF" stroke-width="2" stroke-miterlimit="10" d="M638.42,5.98v78.17c0,1.21-0.6,1.82-1.68,1.82
		h-9.6c-0.48,0-0.72,0-0.84,0c-0.24,0-0.48-0.12-0.48-0.48l-38.4-51.15v51.75h-13.68V5.98h11.64c0.12,0,0.36,0.12,0.72,0.12
		c0.24,0.12,0.48,0.36,0.72,0.73l37.68,50.78V5.98H638.42z"/>
</g>
<g>
	<path fill="#974465" stroke="#974465" stroke-width="2" stroke-miterlimit="10" d="M709.67,92.3h-13.68V12.43h13.68v31.15h38.28
		V12.43h13.92V92.3h-13.92V50.97c-0.96,1.94-2.52,3.52-4.44,4.73c-2.04,1.33-4.32,1.94-6.96,1.94h-26.88V92.3L709.67,92.3z"/>
	<path fill="#974465" stroke="#974465" stroke-width="2" stroke-miterlimit="10" d="M770.75,12.43h57.96v14.06h-44.28v17.09h41.16
		V46c0,1.58-0.36,3.03-0.84,4.36c-0.72,1.45-1.56,2.79-2.64,3.76c-1.2,1.09-2.52,1.94-3.96,2.55c-1.68,0.73-3.36,0.97-5.16,0.97
		h-28.56v20.73h46.2v2.42c0,1.58-0.36,3.03-0.84,4.36c-0.72,1.45-1.56,2.79-2.64,3.76c-1.2,1.09-2.52,1.94-3.96,2.55
		c-1.68,0.73-3.36,0.97-5.16,0.97h-47.28V12.43z"/>
	<path fill="#974465" stroke="#974465" stroke-width="2" stroke-miterlimit="10" d="M889.43,92.42V57.76
		c-0.72,2.42-2.16,4.48-4.32,6.06c-2.16,1.7-4.8,2.54-7.8,2.54h-26.64v26.06h-14.16V44.55c0-5.09,0.84-9.7,2.76-14.06
		c1.68-4.12,4.2-7.76,7.32-10.91c3.12-2.91,6.72-5.33,10.92-7.03c4.08-1.7,8.4-2.55,12.96-2.55c4.44,0,8.76,0.85,12.84,2.55
		c3.96,1.7,7.44,4.12,10.56,7.15c3,3.15,5.4,6.79,7.32,10.91c1.68,4.36,2.64,8.97,2.64,13.94v47.87L889.43,92.42L889.43,92.42z
		 M889.43,46.36c0-3.15-0.48-6.18-1.32-8.97c-0.96-2.67-2.28-4.97-3.96-6.91s-3.72-3.39-6-4.61c-2.4-0.97-4.92-1.58-7.68-1.58
		c-2.88,0-5.52,0.61-7.92,1.58c-2.4,1.21-4.56,2.67-6.24,4.61c-1.8,1.94-3.12,4.24-4.08,6.91c-1.08,2.79-1.56,5.82-1.56,8.97v5.7
		h38.76V46.36L889.43,46.36z"/>
	<path fill="#974465" stroke="#974465" stroke-width="2" stroke-miterlimit="10" d="M960.47,92.42V74.85c0-1.45-0.24-2.79-0.72-4.12
		c-0.48-1.21-1.2-2.42-2.04-3.39c-0.96-0.97-2.04-1.7-3.24-2.3c-1.32-0.48-2.64-0.85-4.08-0.85h-5.88h-19.56v28.24h-13.92V12.44
		h33.48c4.8,0,9.24,0.48,13.32,1.21c3.96,0.85,7.44,2.3,10.44,4.24c2.88,2.06,5.16,4.73,6.84,8c1.68,3.39,2.52,7.51,2.52,12.36
		c0,2.3-0.24,4.24-0.6,5.94c-0.48,1.82-1.2,3.39-1.92,4.85c-0.84,1.45-1.8,2.79-2.88,4c-1.2,1.21-2.64,2.42-4.08,3.64l-0.36,0.36
		c2.16,2.55,3.96,5.33,5.28,8.24c1.2,3.03,1.8,6.18,1.8,9.58v17.57h-14.4V92.42z M944.51,50.12c2.28,0,4.56-0.12,6.96-0.61
		c2.16-0.24,4.2-0.97,6.12-1.94c1.68-0.85,3.12-2.06,4.32-3.64c1.08-1.45,1.68-3.27,1.68-5.7c0-2.42-0.48-4.48-1.44-6.06
		c-1.08-1.45-2.4-2.67-4.08-3.64c-1.8-0.73-3.84-1.33-6.12-1.7c-2.4-0.24-4.8-0.36-7.44-0.36h-19.56V50.1h19.56V50.12z"/>
	<path fill="#974465" stroke="#974465" stroke-width="2" stroke-miterlimit="10" d="M1020.95,92.42h-14.16V26.49h-26.04V12.43h67.44
		v2.42c0,1.58-0.36,3.03-0.84,4.36c-0.72,1.45-1.56,2.79-2.64,3.76c-1.2,1.09-2.52,1.94-3.96,2.54c-1.68,0.73-3.36,0.97-5.16,0.97
		h-14.64L1020.95,92.42L1020.95,92.42z"/>
	<path fill="#974465" stroke="#974465" stroke-width="2" stroke-miterlimit="10" d="M1051.43,92.42V77.75h29.52
		c2.4,0,4.56-0.48,6.72-1.58c2.04-0.97,3.84-2.3,5.52-4c1.44-1.58,2.76-3.52,3.72-5.7c0.84-2.18,1.32-4.36,1.32-6.79h-39.24
		c-2.16,0-4.08-0.36-5.76-1.21c-1.8-0.73-3.24-1.82-4.44-3.27c-1.32-1.33-2.28-3.03-2.88-4.97c-0.72-1.82-0.96-3.76-0.96-5.94
		c0-4.24,0.72-8.36,2.16-12.24c1.44-3.76,3.48-7.15,6.24-10.06c2.64-2.91,5.88-5.21,9.6-7.03c3.6-1.7,7.68-2.54,12.24-2.54h33.36
		v14.67h-33.36c-2.64,0-4.92,0.48-6.84,1.45c-2.04,1.09-3.72,2.42-4.92,4c-1.44,1.7-2.4,3.64-3,5.7c-0.72,2.18-1.08,4.24-1.08,6.3
		h39.24c1.92,0,3.84,0.36,5.64,1.09c1.68,0.85,3.24,1.94,4.56,3.27c1.2,1.45,2.16,3.03,2.88,4.85c0.6,1.94,0.96,3.88,0.96,6.06
		c0,4.48-0.84,8.73-2.28,12.6c-1.68,4-3.84,7.39-6.48,10.3c-2.88,3.03-6,5.33-9.6,7.03c-3.72,1.82-7.68,2.67-11.88,2.67
		L1051.43,92.42L1051.43,92.42z"/>
	<path fill="#F3ED75" stroke="#F3ED75" stroke-width="2" stroke-miterlimit="10" d="M699.67,83.3h-13.68V3.43h13.68v31.15h38.28
		V3.43h13.92V83.3h-13.92V41.97c-0.96,1.94-2.52,3.52-4.44,4.73c-2.04,1.33-4.32,1.94-6.96,1.94h-26.88
		C699.67,48.64,699.67,83.3,699.67,83.3z"/>
	<path fill="#F3ED75" stroke="#F3ED75" stroke-width="2" stroke-miterlimit="10" d="M760.75,3.43h57.96v14.06h-44.28v17.09h41.16V37
		c0,1.58-0.36,3.03-0.84,4.36c-0.72,1.45-1.56,2.79-2.64,3.76c-1.2,1.09-2.52,1.94-3.96,2.55c-1.68,0.73-3.36,0.97-5.16,0.97h-28.56
		v20.73h46.2v2.42c0,1.58-0.36,3.03-0.84,4.36c-0.72,1.45-1.56,2.79-2.64,3.76c-1.2,1.09-2.52,1.94-3.96,2.55
		c-1.68,0.73-3.36,0.97-5.16,0.97h-47.28L760.75,3.43L760.75,3.43z"/>
	<path fill="#F3ED75" stroke="#F3ED75" stroke-width="2" stroke-miterlimit="10" d="M879.43,83.42V48.76
		c-0.72,2.42-2.16,4.48-4.32,6.06c-2.16,1.7-4.8,2.54-7.8,2.54h-26.64v26.06h-14.16V35.55c0-5.09,0.84-9.7,2.76-14.06
		c1.68-4.12,4.2-7.76,7.32-10.91c3.12-2.91,6.72-5.33,10.92-7.03c4.08-1.7,8.4-2.55,12.96-2.55c4.44,0,8.76,0.85,12.84,2.55
		c3.96,1.7,7.44,4.12,10.56,7.15c3,3.15,5.4,6.79,7.32,10.91c1.68,4.36,2.64,8.97,2.64,13.94v47.87L879.43,83.42L879.43,83.42z
		 M879.43,37.36c0-3.15-0.48-6.18-1.32-8.97c-0.96-2.67-2.28-4.97-3.96-6.91s-3.72-3.39-6-4.61c-2.4-0.97-4.92-1.58-7.68-1.58
		c-2.88,0-5.52,0.61-7.92,1.58c-2.4,1.21-4.56,2.67-6.24,4.61c-1.8,1.94-3.12,4.24-4.08,6.91c-1.08,2.79-1.56,5.82-1.56,8.97v5.7
		h38.76V37.36L879.43,37.36z"/>
	<path fill="#F3ED75" stroke="#F3ED75" stroke-width="2" stroke-miterlimit="10" d="M950.47,83.42V65.85c0-1.45-0.24-2.79-0.72-4.12
		c-0.48-1.21-1.2-2.42-2.04-3.39c-0.96-0.97-2.04-1.7-3.24-2.3c-1.32-0.48-2.64-0.85-4.08-0.85h-5.88h-19.56v28.24h-13.92V3.44
		h33.48c4.8,0,9.24,0.48,13.32,1.21c3.96,0.85,7.44,2.3,10.44,4.24c2.88,2.06,5.16,4.73,6.84,8c1.68,3.39,2.52,7.51,2.52,12.36
		c0,2.3-0.24,4.24-0.6,5.94c-0.48,1.82-1.2,3.39-1.92,4.85c-0.84,1.45-1.8,2.79-2.88,4c-1.2,1.21-2.64,2.42-4.08,3.64l-0.36,0.36
		c2.16,2.55,3.96,5.33,5.28,8.24c1.2,3.03,1.8,6.18,1.8,9.58v17.57h-14.4V83.42z M934.51,41.12c2.28,0,4.56-0.12,6.96-0.61
		c2.16-0.24,4.2-0.97,6.12-1.94c1.68-0.85,3.12-2.06,4.32-3.64c1.08-1.45,1.68-3.27,1.68-5.7c0-2.42-0.48-4.48-1.44-6.06
		c-1.08-1.45-2.4-2.67-4.08-3.64c-1.8-0.73-3.84-1.33-6.12-1.7c-2.4-0.24-4.8-0.36-7.44-0.36h-19.56V41.1h19.56V41.12z"/>
	<path fill="#F3ED75" stroke="#F3ED75" stroke-width="2" stroke-miterlimit="10" d="M1010.95,83.42h-14.16V17.49h-26.04V3.43h67.44
		v2.42c0,1.58-0.36,3.03-0.84,4.36c-0.72,1.45-1.56,2.79-2.64,3.76c-1.2,1.09-2.52,1.94-3.96,2.54c-1.68,0.73-3.36,0.97-5.16,0.97
		h-14.64L1010.95,83.42L1010.95,83.42z"/>
	<path fill="#F3ED75" stroke="#F3ED75" stroke-width="2" stroke-miterlimit="10" d="M1041.43,83.42V68.75h29.52
		c2.4,0,4.56-0.48,6.72-1.58c2.04-0.97,3.84-2.3,5.52-4c1.44-1.58,2.76-3.52,3.72-5.7c0.84-2.18,1.32-4.36,1.32-6.79h-39.24
		c-2.16,0-4.08-0.36-5.76-1.21c-1.8-0.73-3.24-1.82-4.44-3.27c-1.32-1.33-2.28-3.03-2.88-4.97c-0.72-1.82-0.96-3.76-0.96-5.94
		c0-4.24,0.72-8.36,2.16-12.24c1.44-3.76,3.48-7.15,6.24-10.06c2.64-2.91,5.88-5.21,9.6-7.03c3.6-1.7,7.68-2.54,12.24-2.54h33.36
		v14.67h-33.36c-2.64,0-4.92,0.48-6.84,1.45c-2.04,1.09-3.72,2.42-4.92,4c-1.44,1.7-2.4,3.64-3,5.7c-0.72,2.18-1.08,4.24-1.08,6.3
		h39.24c1.92,0,3.84,0.36,5.64,1.09c1.68,0.85,3.24,1.94,4.56,3.27c1.2,1.45,2.16,3.03,2.88,4.85c0.6,1.94,0.96,3.88,0.96,6.06
		c0,4.48-0.84,8.73-2.28,12.6c-1.68,4-3.84,7.39-6.48,10.3c-2.88,3.03-6,5.33-9.6,7.03c-3.72,1.82-7.68,2.67-11.88,2.67
		L1041.43,83.42L1041.43,83.42z"/>
	<path fill="#FFFFFF" stroke="#FFFFFF" stroke-width="2" stroke-miterlimit="10" d="M703.38,87.01H689.7V7.14h13.68v31.15h38.28
		V7.14h13.92v79.87h-13.92V45.68c-0.96,1.94-2.52,3.52-4.44,4.73c-2.04,1.33-4.32,1.94-6.96,1.94h-26.88L703.38,87.01L703.38,87.01z
		"/>
	<path fill="#FFFFFF" stroke="#FFFFFF" stroke-width="2" stroke-miterlimit="10" d="M764.46,7.13h57.96v14.06h-44.28v17.09h41.16
		v2.42c0,1.58-0.36,3.03-0.84,4.36c-0.72,1.45-1.56,2.79-2.64,3.76c-1.2,1.09-2.52,1.94-3.96,2.55c-1.68,0.73-3.36,0.97-5.16,0.97
		h-28.56v20.73h46.2v2.42c0,1.58-0.36,3.03-0.84,4.36c-0.72,1.45-1.56,2.79-2.64,3.76c-1.2,1.09-2.52,1.94-3.96,2.55
		c-1.68,0.73-3.36,0.97-5.16,0.97h-47.28V7.13L764.46,7.13z"/>
	<path fill="#FFFFFF" stroke="#FFFFFF" stroke-width="2" stroke-miterlimit="10" d="M883.14,87.13V52.47
		c-0.72,2.42-2.16,4.48-4.32,6.06c-2.16,1.7-4.8,2.54-7.8,2.54h-26.64v26.06h-14.16V39.26c0-5.09,0.84-9.7,2.76-14.06
		c1.68-4.12,4.2-7.76,7.32-10.91c3.12-2.91,6.72-5.33,10.92-7.03c4.08-1.7,8.4-2.55,12.96-2.55c4.44,0,8.76,0.85,12.84,2.55
		c3.96,1.7,7.44,4.12,10.56,7.15c3,3.15,5.4,6.79,7.32,10.91c1.68,4.36,2.64,8.97,2.64,13.94v47.87L883.14,87.13L883.14,87.13z
		 M883.14,41.07c0-3.15-0.48-6.18-1.32-8.97c-0.96-2.67-2.28-4.97-3.96-6.91s-3.72-3.39-6-4.61c-2.4-0.97-4.92-1.58-7.68-1.58
		c-2.88,0-5.52,0.61-7.92,1.58c-2.4,1.21-4.56,2.67-6.24,4.61c-1.8,1.94-3.12,4.24-4.08,6.91c-1.08,2.79-1.56,5.82-1.56,8.97v5.7
		h38.76L883.14,41.07L883.14,41.07z"/>
	<path fill="#FFFFFF" stroke="#FFFFFF" stroke-width="2" stroke-miterlimit="10" d="M954.18,87.13V69.56c0-1.45-0.24-2.79-0.72-4.12
		c-0.48-1.21-1.2-2.42-2.04-3.39c-0.96-0.97-2.04-1.7-3.24-2.3c-1.32-0.48-2.64-0.85-4.08-0.85h-5.88h-19.56v28.24h-13.92V7.15
		h33.48c4.8,0,9.24,0.48,13.32,1.21c3.96,0.85,7.44,2.3,10.44,4.24c2.88,2.06,5.16,4.73,6.84,8c1.68,3.39,2.52,7.51,2.52,12.36
		c0,2.3-0.24,4.24-0.6,5.94c-0.48,1.82-1.2,3.39-1.92,4.85c-0.84,1.45-1.8,2.79-2.88,4c-1.2,1.21-2.64,2.42-4.08,3.64l-0.36,0.36
		c2.16,2.55,3.96,5.33,5.28,8.24c1.2,3.03,1.8,6.18,1.8,9.58v17.57h-14.4V87.13z M938.22,44.83c2.28,0,4.56-0.12,6.96-0.61
		c2.16-0.24,4.2-0.97,6.12-1.94c1.68-0.85,3.12-2.06,4.32-3.64c1.08-1.45,1.68-3.27,1.68-5.7c0-2.42-0.48-4.48-1.44-6.06
		c-1.08-1.45-2.4-2.67-4.08-3.64c-1.8-0.73-3.84-1.33-6.12-1.7c-2.4-0.24-4.8-0.36-7.44-0.36h-19.56v23.63h19.56V44.83z"/>
	<path fill="#FFFFFF" stroke="#FFFFFF" stroke-width="2" stroke-miterlimit="10" d="M1014.65,87.13h-14.16V21.2h-26.04V7.14h67.44
		v2.42c0,1.58-0.36,3.03-0.84,4.36c-0.72,1.45-1.56,2.79-2.64,3.76c-1.2,1.09-2.52,1.94-3.96,2.54c-1.68,0.73-3.36,0.97-5.16,0.97
		h-14.64V87.13L1014.65,87.13z"/>
	<path fill="#FFFFFF" stroke="#FFFFFF" stroke-width="2" stroke-miterlimit="10" d="M1045.14,87.13V72.46h29.52
		c2.4,0,4.56-0.48,6.72-1.58c2.04-0.97,3.84-2.3,5.52-4c1.44-1.58,2.76-3.52,3.72-5.7c0.84-2.18,1.32-4.36,1.32-6.79h-39.24
		c-2.16,0-4.08-0.36-5.76-1.21c-1.8-0.73-3.24-1.82-4.44-3.27c-1.32-1.33-2.28-3.03-2.88-4.97c-0.72-1.82-0.96-3.76-0.96-5.94
		c0-4.24,0.72-8.36,2.16-12.24c1.44-3.76,3.48-7.15,6.24-10.06c2.64-2.91,5.88-5.21,9.6-7.03c3.6-1.7,7.68-2.54,12.24-2.54h33.36
		V21.8h-33.36c-2.64,0-4.92,0.48-6.84,1.45c-2.04,1.09-3.72,2.42-4.92,4c-1.44,1.7-2.4,3.64-3,5.7c-0.72,2.18-1.08,4.24-1.08,6.3
		h39.24c1.92,0,3.84,0.36,5.64,1.09c1.68,0.85,3.24,1.94,4.56,3.27c1.2,1.45,2.16,3.03,2.88,4.85c0.6,1.94,0.96,3.88,0.96,6.06
		c0,4.48-0.84,8.73-2.28,12.6c-1.68,4-3.84,7.39-6.48,10.3c-2.88,3.03-6,5.33-9.6,7.03c-3.72,1.82-7.68,2.67-11.88,2.67
		L1045.14,87.13L1045.14,87.13z"/>
</g>
<g>
	<path fill="#974465" stroke="#974465" stroke-width="2" stroke-miterlimit="10" d="M1171.08,92.42V12.43h57.96v14.06h-44.28v17.09
		h41.16V46c0,1.58-0.36,3.03-0.84,4.36c-0.72,1.45-1.56,2.79-2.64,3.76c-1.2,1.09-2.52,1.94-3.96,2.55
		c-1.68,0.73-3.36,0.97-5.16,0.97h-28.56v34.79h-13.68V92.42z"/>
	<path fill="#974465" stroke="#974465" stroke-width="2" stroke-miterlimit="10" d="M1237.44,12.43h57.96v14.06h-44.28v17.09h41.16
		V46c0,1.58-0.36,3.03-0.84,4.36c-0.72,1.45-1.56,2.79-2.64,3.76c-1.2,1.09-2.52,1.94-3.96,2.55c-1.68,0.73-3.36,0.97-5.16,0.97
		h-28.56v20.73h46.2v2.42c0,1.58-0.36,3.03-0.84,4.36c-0.72,1.46-1.56,2.79-2.64,3.76c-1.2,1.09-2.52,1.94-3.96,2.54
		c-1.68,0.73-3.36,0.97-5.16,0.97h-47.28V12.43z"/>
	<path fill="#974465" stroke="#974465" stroke-width="2" stroke-miterlimit="10" d="M1306.08,92.42V77.75h29.52
		c2.4,0,4.56-0.49,6.72-1.58c2.04-0.97,3.84-2.3,5.52-4c1.44-1.58,2.76-3.52,3.72-5.7c0.84-2.18,1.32-4.36,1.32-6.79h-39.24
		c-2.16,0-4.08-0.36-5.76-1.21c-1.8-0.73-3.24-1.82-4.44-3.27c-1.32-1.33-2.28-3.03-2.88-4.97c-0.72-1.82-0.96-3.76-0.96-5.94
		c0-4.24,0.72-8.36,2.16-12.24c1.44-3.76,3.48-7.15,6.24-10.06c2.64-2.91,5.88-5.21,9.6-7.03c3.6-1.7,7.68-2.54,12.24-2.54h33.36
		v14.67h-33.36c-2.64,0-4.92,0.48-6.84,1.45c-2.04,1.09-3.72,2.42-4.92,4c-1.44,1.7-2.4,3.64-3,5.7c-0.72,2.18-1.08,4.24-1.08,6.3
		h39.24c1.92,0,3.84,0.36,5.64,1.09c1.68,0.85,3.24,1.94,4.56,3.27c1.2,1.45,2.16,3.03,2.88,4.85c0.6,1.94,0.96,3.88,0.96,6.06
		c0,4.48-0.84,8.73-2.28,12.61c-1.68,4-3.84,7.39-6.48,10.3c-2.88,3.03-6,5.33-9.6,7.03c-3.72,1.82-7.68,2.67-11.88,2.67H1306.08z"
		/>
	<path fill="#974465" stroke="#974465" stroke-width="2" stroke-miterlimit="10" d="M1411.08,92.42h-14.16V26.49h-26.04V12.43h67.44
		v2.42c0,1.58-0.36,3.03-0.84,4.36c-0.72,1.45-1.56,2.79-2.64,3.76c-1.2,1.09-2.52,1.94-3.96,2.54c-1.68,0.73-3.36,0.97-5.16,0.97
		h-14.64L1411.08,92.42L1411.08,92.42z"/>
	<path fill="#974465" stroke="#974465" stroke-width="2" stroke-miterlimit="10" d="M1443.36,92.3V12.43h14.4V92.3H1443.36z"/>
	<path fill="#974465" stroke="#974465" stroke-width="2" stroke-miterlimit="10" d="M1463.4,17.4l13.32-5.21l24.24,56.6l24.36-56.6
		l13.44,5.21c-2.4,6.42-4.92,12.73-7.56,18.91c-2.76,6.3-5.52,12.48-8.28,18.54c-2.88,6.3-5.76,12.48-8.4,18.67
		c-2.76,6.3-5.28,12.6-7.56,18.91h-11.64L1463.4,17.4z"/>
	<path fill="#974465" stroke="#974465" stroke-width="2" stroke-miterlimit="10" d="M1592.88,92.42V57.76
		c-0.72,2.42-2.16,4.48-4.32,6.06c-2.16,1.7-4.8,2.54-7.8,2.54h-26.64v26.06h-14.16V44.55c0-5.09,0.84-9.7,2.76-14.06
		c1.68-4.12,4.2-7.76,7.32-10.91c3.12-2.91,6.72-5.33,10.92-7.03c4.08-1.7,8.4-2.55,12.96-2.55c4.44,0,8.76,0.85,12.84,2.55
		c3.96,1.7,7.44,4.12,10.56,7.15c3,3.15,5.4,6.79,7.32,10.91c1.68,4.36,2.64,8.97,2.64,13.94v47.87H1592.88z M1592.88,46.36
		c0-3.15-0.48-6.18-1.32-8.97c-0.96-2.67-2.28-4.97-3.96-6.91c-1.68-1.94-3.72-3.39-6-4.61c-2.4-0.97-4.92-1.58-7.68-1.58
		c-2.88,0-5.52,0.61-7.92,1.58c-2.4,1.21-4.56,2.67-6.24,4.61c-1.8,1.94-3.12,4.24-4.08,6.91c-1.08,2.79-1.56,5.82-1.56,8.97v5.7
		h38.76V46.36L1592.88,46.36z"/>
	<path fill="#974465" stroke="#974465" stroke-width="2" stroke-miterlimit="10" d="M1616.88,92.42V12.43h13.68v65.93h46.92v2.42
		c0,1.58-0.36,3.03-0.84,4.36c-0.72,1.46-1.56,2.79-2.64,3.76c-1.2,1.09-2.52,1.94-3.96,2.54c-1.68,0.73-3.36,0.97-5.16,0.97
		L1616.88,92.42L1616.88,92.42z"/>
	<path fill="#F3ED75" stroke="#F3ED75" stroke-width="2" stroke-miterlimit="10" d="M1161.08,83.42V3.43h57.96v14.06h-44.28v17.09
		h41.16V37c0,1.58-0.36,3.03-0.84,4.36c-0.72,1.45-1.56,2.79-2.64,3.76c-1.2,1.09-2.52,1.94-3.96,2.55
		c-1.68,0.73-3.36,0.97-5.16,0.97h-28.56v34.79h-13.68V83.42z"/>
	<path fill="#F3ED75" stroke="#F3ED75" stroke-width="2" stroke-miterlimit="10" d="M1227.44,3.43h57.96v14.06h-44.28v17.09h41.16
		V37c0,1.58-0.36,3.03-0.84,4.36c-0.72,1.45-1.56,2.79-2.64,3.76c-1.2,1.09-2.52,1.94-3.96,2.55c-1.68,0.73-3.36,0.97-5.16,0.97
		h-28.56v20.73h46.2v2.42c0,1.58-0.36,3.03-0.84,4.36c-0.72,1.46-1.56,2.79-2.64,3.76c-1.2,1.09-2.52,1.94-3.96,2.54
		c-1.68,0.73-3.36,0.97-5.16,0.97h-47.28V3.43z"/>
	<path fill="#F3ED75" stroke="#F3ED75" stroke-width="2" stroke-miterlimit="10" d="M1296.08,83.42V68.75h29.52
		c2.4,0,4.56-0.49,6.72-1.58c2.04-0.97,3.84-2.3,5.52-4c1.44-1.58,2.76-3.52,3.72-5.7c0.84-2.18,1.32-4.36,1.32-6.79h-39.24
		c-2.16,0-4.08-0.36-5.76-1.21c-1.8-0.73-3.24-1.82-4.44-3.27c-1.32-1.33-2.28-3.03-2.88-4.97c-0.72-1.82-0.96-3.76-0.96-5.94
		c0-4.24,0.72-8.36,2.16-12.24c1.44-3.76,3.48-7.15,6.24-10.06c2.64-2.91,5.88-5.21,9.6-7.03c3.6-1.7,7.68-2.54,12.24-2.54h33.36
		v14.67h-33.36c-2.64,0-4.92,0.48-6.84,1.45c-2.04,1.09-3.72,2.42-4.92,4c-1.44,1.7-2.4,3.64-3,5.7c-0.72,2.18-1.08,4.24-1.08,6.3
		h39.24c1.92,0,3.84,0.36,5.64,1.09c1.68,0.85,3.24,1.94,4.56,3.27c1.2,1.45,2.16,3.03,2.88,4.85c0.6,1.94,0.96,3.88,0.96,6.06
		c0,4.48-0.84,8.73-2.28,12.61c-1.68,4-3.84,7.39-6.48,10.3c-2.88,3.03-6,5.33-9.6,7.03c-3.72,1.82-7.68,2.67-11.88,2.67H1296.08z"
		/>
	<path fill="#F3ED75" stroke="#F3ED75" stroke-width="2" stroke-miterlimit="10" d="M1401.08,83.42h-14.16V17.49h-26.04V3.43h67.44
		v2.42c0,1.58-0.36,3.03-0.84,4.36c-0.72,1.45-1.56,2.79-2.64,3.76c-1.2,1.09-2.52,1.94-3.96,2.54c-1.68,0.73-3.36,0.97-5.16,0.97
		h-14.64L1401.08,83.42L1401.08,83.42z"/>
	<path fill="#F3ED75" stroke="#F3ED75" stroke-width="2" stroke-miterlimit="10" d="M1433.36,83.3V3.43h14.4V83.3H1433.36z"/>
	<path fill="#F3ED75" stroke="#F3ED75" stroke-width="2" stroke-miterlimit="10" d="M1453.4,8.4l13.32-5.21l24.24,56.6l24.36-56.6
		l13.44,5.21c-2.4,6.42-4.92,12.73-7.56,18.91c-2.76,6.3-5.52,12.48-8.28,18.54c-2.88,6.3-5.76,12.48-8.4,18.67
		c-2.76,6.3-5.28,12.6-7.56,18.91h-11.64L1453.4,8.4z"/>
	<path fill="#F3ED75" stroke="#F3ED75" stroke-width="2" stroke-miterlimit="10" d="M1582.88,83.42V48.76
		c-0.72,2.42-2.16,4.48-4.32,6.06c-2.16,1.7-4.8,2.54-7.8,2.54h-26.64v26.06h-14.16V35.55c0-5.09,0.84-9.7,2.76-14.06
		c1.68-4.12,4.2-7.76,7.32-10.91c3.12-2.91,6.72-5.33,10.92-7.03c4.08-1.7,8.4-2.55,12.96-2.55c4.44,0,8.76,0.85,12.84,2.55
		c3.96,1.7,7.44,4.12,10.56,7.15c3,3.15,5.4,6.79,7.32,10.91c1.68,4.36,2.64,8.97,2.64,13.94v47.87H1582.88z M1582.88,37.36
		c0-3.15-0.48-6.18-1.32-8.97c-0.96-2.67-2.28-4.97-3.96-6.91c-1.68-1.94-3.72-3.39-6-4.61c-2.4-0.97-4.92-1.58-7.68-1.58
		c-2.88,0-5.52,0.61-7.92,1.58c-2.4,1.21-4.56,2.67-6.24,4.61c-1.8,1.94-3.12,4.24-4.08,6.91c-1.08,2.79-1.56,5.82-1.56,8.97v5.7
		h38.76V37.36L1582.88,37.36z"/>
	<path fill="#F3ED75" stroke="#F3ED75" stroke-width="2" stroke-miterlimit="10" d="M1606.88,83.42V3.43h13.68v65.93h46.92v2.42
		c0,1.58-0.36,3.03-0.84,4.36c-0.72,1.46-1.56,2.79-2.64,3.76c-1.2,1.09-2.52,1.94-3.96,2.54c-1.68,0.73-3.36,0.97-5.16,0.97
		L1606.88,83.42L1606.88,83.42z"/>
	<path fill="#FFFFFF" stroke="#FFFFFF" stroke-width="2" stroke-miterlimit="10" d="M1164.79,87.13V7.14h57.96V21.2h-44.28v17.09
		h41.16v2.42c0,1.58-0.36,3.03-0.84,4.36c-0.72,1.46-1.56,2.79-2.64,3.76c-1.2,1.09-2.52,1.94-3.96,2.54
		c-1.68,0.73-3.36,0.97-5.16,0.97h-28.56v34.78L1164.79,87.13L1164.79,87.13z"/>
	<path fill="#FFFFFF" stroke="#FFFFFF" stroke-width="2" stroke-miterlimit="10" d="M1231.15,7.13h57.96v14.06h-44.28v17.09h41.16
		v2.42c0,1.58-0.36,3.03-0.84,4.36c-0.72,1.46-1.56,2.79-2.64,3.76c-1.2,1.09-2.52,1.94-3.96,2.54c-1.68,0.73-3.36,0.97-5.16,0.97
		h-28.56v20.73h46.2v2.42c0,1.58-0.36,3.03-0.84,4.36c-0.72,1.45-1.56,2.79-2.64,3.76c-1.2,1.09-2.52,1.94-3.96,2.55
		c-1.68,0.73-3.36,0.97-5.16,0.97h-47.28V7.13z"/>
	<path fill="#FFFFFF" stroke="#FFFFFF" stroke-width="2" stroke-miterlimit="10" d="M1299.79,87.13V72.46h29.52
		c2.4,0,4.56-0.48,6.72-1.58c2.04-0.97,3.84-2.3,5.52-4c1.44-1.58,2.76-3.51,3.72-5.7c0.84-2.18,1.32-4.36,1.32-6.79h-39.24
		c-2.16,0-4.08-0.36-5.76-1.21c-1.8-0.73-3.24-1.82-4.44-3.27c-1.32-1.33-2.28-3.03-2.88-4.97c-0.72-1.82-0.96-3.76-0.96-5.94
		c0-4.24,0.72-8.36,2.16-12.24c1.44-3.76,3.48-7.15,6.24-10.06c2.64-2.91,5.88-5.21,9.6-7.03c3.6-1.7,7.68-2.54,12.24-2.54h33.36
		v14.66h-33.36c-2.64,0-4.92,0.49-6.84,1.46c-2.04,1.09-3.72,2.42-4.92,4c-1.44,1.7-2.4,3.64-3,5.7c-0.72,2.18-1.08,4.24-1.08,6.3
		h39.24c1.92,0,3.84,0.36,5.64,1.09c1.68,0.85,3.24,1.94,4.56,3.27c1.2,1.45,2.16,3.03,2.88,4.85c0.6,1.94,0.96,3.88,0.96,6.06
		c0,4.48-0.84,8.73-2.28,12.6c-1.68,4-3.84,7.39-6.48,10.3c-2.88,3.03-6,5.33-9.6,7.03c-3.72,1.82-7.68,2.67-11.88,2.67h-30.96
		V87.13z"/>
	<path fill="#FFFFFF" stroke="#FFFFFF" stroke-width="2" stroke-miterlimit="10" d="M1404.78,87.13h-14.16V21.2h-26.04V7.14h67.44
		v2.42c0,1.58-0.36,3.03-0.84,4.36c-0.72,1.46-1.56,2.79-2.64,3.76c-1.2,1.09-2.52,1.94-3.96,2.54c-1.68,0.73-3.36,0.97-5.16,0.97
		h-14.64V87.13L1404.78,87.13z"/>
	<path fill="#FFFFFF" stroke="#FFFFFF" stroke-width="2" stroke-miterlimit="10" d="M1437.07,87.01V7.14h14.4v79.87H1437.07z"/>
	<path fill="#FFFFFF" stroke="#FFFFFF" stroke-width="2" stroke-miterlimit="10" d="M1457.11,12.1l13.32-5.21l24.24,56.6l24.36-56.6
		l13.44,5.21c-2.4,6.42-4.92,12.73-7.56,18.91c-2.76,6.3-5.52,12.48-8.28,18.54c-2.88,6.3-5.76,12.48-8.4,18.67
		c-2.76,6.3-5.28,12.61-7.56,18.91h-11.64L1457.11,12.1z"/>
	<path fill="#FFFFFF" stroke="#FFFFFF" stroke-width="2" stroke-miterlimit="10" d="M1586.59,87.13V52.47
		c-0.72,2.42-2.16,4.48-4.32,6.06c-2.16,1.7-4.8,2.54-7.8,2.54h-26.64v26.06h-14.16V39.26c0-5.09,0.84-9.7,2.76-14.06
		c1.68-4.12,4.2-7.76,7.32-10.91c3.12-2.91,6.72-5.33,10.92-7.03c4.08-1.7,8.4-2.55,12.96-2.55c4.44,0,8.76,0.85,12.84,2.55
		c3.96,1.7,7.44,4.12,10.56,7.15c3,3.15,5.4,6.79,7.32,10.91c1.68,4.36,2.64,8.97,2.64,13.94v47.87H1586.59z M1586.59,41.07
		c0-3.15-0.48-6.18-1.32-8.97c-0.96-2.67-2.28-4.97-3.96-6.91c-1.68-1.94-3.72-3.39-6-4.61c-2.4-0.97-4.92-1.58-7.68-1.58
		c-2.88,0-5.52,0.61-7.92,1.58c-2.4,1.21-4.56,2.67-6.24,4.61c-1.8,1.94-3.12,4.24-4.08,6.91c-1.08,2.79-1.56,5.82-1.56,8.97v5.7
		h38.76V41.07L1586.59,41.07z"/>
	<path fill="#FFFFFF" stroke="#FFFFFF" stroke-width="2" stroke-miterlimit="10" d="M1610.59,87.13V7.14h13.68v65.93h46.92v2.42
		c0,1.58-0.36,3.03-0.84,4.36c-0.72,1.45-1.56,2.79-2.64,3.76c-1.2,1.09-2.52,1.94-3.96,2.55c-1.68,0.73-3.36,0.97-5.16,0.97
		H1610.59z"/>
</g>
</svg>
