<?xml version="1.0" encoding="utf-8"?>
<!-- Generator: Adobe Illustrator 26.0.1, SVG Export Plug-In . SVG Version: 6.00 Build 0)  -->
<svg version="1.1" id="icon" xmlns="http://www.w3.org/2000/svg" xmlns:xlink="http://www.w3.org/1999/xlink" x="0px" y="0px"
	 viewBox="0 0 68.5 60" style="enable-background:new 0 0 68.5 60;" xml:space="preserve">
<style type="text/css">
	.st0{fill:#FFFFFF;}
	.st1{fill:#CEA355;}
	.st2{fill:#B5373E;}
	.st3{fill:#65A153;}
	.st4{fill:#E27949;}
	.st5{fill:#264C6A;}
	.st6{fill:#EA9E4E;}
	.st7{fill:#CB3971;}
	.st8{fill:#508052;}
	.st9{fill:#4493CE;}
	.st10{fill:#316C9A;}
	.st11{fill:#912B4B;}
	.st12{fill:#F0C04E;}
	.st13{fill:#76B758;}
	.st14{fill:#AF8747;}
	.st15{fill:#DC5A44;}
	.st16{fill:#57BAD9;}
	.st17{fill:#D8464D;}
	.st18{fill:#131617;}
</style>
<g>
	<path class="st0" d="M29.4,22.1c-0.8,0-1.4,0.5-1.6,1.2H31C30.7,22.6,30.1,22.1,29.4,22.1z"/>
	<path class="st0" d="M33.8,34.8c1,0,1.8-0.8,1.8-1.8c0-1-0.8-1.8-1.8-1.8c-1,0-1.8,0.8-1.8,1.8C31.9,34,32.7,34.8,33.8,34.8z"/>
	<path class="st0" d="M49.7,22.1c-0.8,0-1.4,0.5-1.6,1.2h3.2C51,22.6,50.4,22.1,49.7,22.1z"/>
	<path class="st0" d="M43.9,22.1c-0.8,0-1.4,0.5-1.6,1.2h3.2C45.2,22.6,44.6,22.1,43.9,22.1z"/>
	<path class="st0" d="M63.8,17L63.8,17l-2.3,0.2L63.8,17z"/>
	<path class="st0" d="M28,31c-0.8,0-1.4,0.5-1.6,1.2h3.2C29.4,31.5,28.7,31,28,31z"/>
	<polygon class="st0" points="30.4,53.1 30.4,53.1 29.6,49.5 	"/>
	<path class="st0" d="M18.4,22.1c-0.8,0-1.4,0.5-1.6,1.2h3.2C19.8,22.6,19.2,22.1,18.4,22.1z"/>
	<path class="st0" d="M37.6,53.2L37.6,53.2l-0.5-2.3L37.6,53.2z"/>
	<path class="st0" d="M20.6,6.4c-0.6,0-1.6,0.2-2.3,0.2l0,0C16,6.9,14.1,7.8,12.5,9c-0.9,0.7-1.7,1.5-2.4,2.4
		c-2.4,3-3.6,6.9-3.6,10.1c0,0.7,0.2,1.6,0.3,2.2c1.2,5.3,4.8,9,7.4,11.8c2.1,2.2,4.6,4.5,7.1,6.7c3.2,2.9,4.4,3.9,8.4,7
		c1.6,1.3,3.2,2.4,4.7,3.4c0.9-0.6,1.8-1.3,2.8-2c4.1-3,8.5-6.7,12.5-10.5c2.9-2.8,5.6-5.7,7.8-8.4l0,0c2.7-3.5,4.6-6.9,4.8-9.6l0,0
		c0-0.2,0-0.4,0-0.6c0-1.4-0.2-2.9-0.7-4.6c-0.2-0.5-0.3-1-0.5-1.5c-2.8-6.8-7-8.5-11.4-9c-1.5-0.2-3.1,0-5.2,0.6
		c-3.1,1-5,3.1-6,4.8c-0.7,1-1,1.8-1.1,1.9c-0.8,1.7-1.8,1.9-2.9,1.9c-0.8,0-2.1-0.2-3-1.9c-0.5-1-1.7-4.4-6.1-6.3
		C23.7,6.9,22.2,6.5,20.6,6.4z M43.9,21.3c1.6,0,2.6,1.5,2.6,2.4c0,0.2-0.2,0.4-0.4,0.4h-4c0.1,0.7,0.8,1.6,1.8,1.6
		c0.7,0,1.4-0.3,1.7-0.9c0.2-0.4,0.9-0.1,0.6,0.4c-0.3,0.7-1.2,1.3-2.3,1.3c-1.4,0-2.5-1.1-2.5-2.6C41.3,22.5,42.4,21.3,43.9,21.3z
		 M29.4,21.3c1.6,0,2.5,1.5,2.5,2.4c0,0.2-0.2,0.4-0.4,0.4h-4c0.1,0.7,0.8,1.6,1.8,1.6c0.7,0,1.4-0.3,1.7-0.9
		c0.2-0.4,0.9-0.1,0.6,0.4c-0.4,0.6-1.2,1.3-2.3,1.3c-1.4,0-2.5-1.1-2.5-2.6C26.9,22.5,28,21.3,29.4,21.3z M22.1,21.7l1.8,4l1.8-4
		c0.2-0.4,0.9-0.2,0.7,0.3l-2,4.3c-0.1,0.2-0.2,0.3-0.4,0.2h-0.3c-0.2,0-0.3-0.1-0.4-0.3l-1.9-4.3C21.2,21.5,21.9,21.3,22.1,21.7z
		 M13.2,26.6c-1,0-1.8-0.4-2.3-1.3c-0.3-0.5,0.4-0.8,0.6-0.5c0.5,0.7,0.9,1,1.7,1s1.3-0.5,1.3-1.2c0-0.8-0.8-1.1-1.8-1.4
		c-0.9-0.3-1.5-0.8-1.5-1.7c0-0.8,0.6-1.8,1.8-1.8c0.9,0,1.6,0.5,1.9,1.2c0.2,0.6-0.5,0.7-0.6,0.3c-0.2-0.5-0.6-0.7-1.3-0.7
		s-1,0.5-1,1c0,0.7,0.6,0.9,1.3,1.1c1,0.3,2.1,0.8,2.1,2.1C15.3,25.6,14.3,26.6,13.2,26.6z M15.8,23.9c0-1.5,1.1-2.6,2.5-2.6
		c1.6,0,2.5,1.5,2.5,2.4c0,0.2-0.2,0.4-0.4,0.4h-4c0.1,0.7,0.8,1.6,1.8,1.6c0.7,0,1.4-0.3,1.7-0.9c0.2-0.4,0.9-0.1,0.6,0.4
		c-0.4,0.6-1.2,1.3-2.3,1.3C16.9,26.6,15.8,25.4,15.8,23.9z M24.6,35.1c0,0.6-0.7,0.6-0.7,0v-2.7h-3.1v2.7c0,0.6-0.8,0.6-0.8,0v-6.2
		c0-0.6,0.8-0.6,0.8,0v2.6h3.1v-2.6c0-0.6,0.7-0.6,0.7,0V35.1z M30.2,33h-4c0.1,0.7,0.8,1.6,1.8,1.6c0.8,0,1.4-0.3,1.7-0.9
		c0.2-0.4,0.9-0.1,0.6,0.4c-0.4,0.7-1.2,1.3-2.3,1.3c-1.4,0-2.5-1.1-2.5-2.6c0-1.4,1.1-2.6,2.5-2.6c1.6,0,2.5,1.5,2.5,2.4
		C30.5,32.8,30.4,33,30.2,33z M36.3,35.3c0,0.6-0.8,0.6-0.8,0V35c-0.4,0.4-1,0.6-1.7,0.6c-1.5,0-2.5-1.1-2.5-2.6
		c0-1.4,1.1-2.6,2.5-2.6c0.9,0,2.6,0.6,2.6,2.6v2.3H36.3z M37.3,26.1c0,0.6-0.8,0.6-0.8,0v-2.4c0-0.9-0.6-1.6-1.5-1.6
		c-0.9,0-1.5,0.7-1.5,1.6v2.4c0,0.6-0.8,0.6-0.8,0v-2.4c0-1.5,1.1-2.4,2.3-2.4c1.3,0,2.3,1.1,2.3,2.4V26.1z M39.7,31.1
		c-0.9,0-1.6,0-1.6,1.5v2.4c0,0.5-0.8,0.5-0.8,0v-2.4c0-2.3,1.4-2.3,2.4-2.3C40.3,30.3,40.3,31.1,39.7,31.1z M40.5,26.5
		c-0.3,0.2-0.6,0.2-0.9,0.2c-0.5,0-1.3-0.2-1.3-1.3V20c0-0.5,0.8-0.5,0.8,0v1.5h1.1c0.6,0,0.6,0.8,0,0.8h-1.1v3.1
		c0,0.5,0.4,0.5,0.6,0.5c0.2,0,0.4,0,0.7-0.2C40.7,25.5,41,26,40.5,26.5z M43.1,35.4c-0.2,0.2-0.6,0.2-0.9,0.2
		c-0.5,0-1.3-0.2-1.3-1.3v-5.4c0-0.5,0.8-0.5,0.8,0v1.6h1.1c0.6,0,0.6,0.8,0,0.8h-1.2v2.9c0,0.5,0.4,0.5,0.6,0.5
		c0.2,0,0.4,0,0.7-0.2C43.2,34.5,43.6,35,43.1,35.4z M46.1,35.6c-0.7,0-1.8-0.3-2.3-1.1c-0.3-0.5,0.3-0.9,0.6-0.5
		c0.3,0.5,0.9,0.8,1.6,0.8c0.6,0,1.4-0.3,1.4-0.8c0-0.5-0.6-0.6-1.7-0.9c-1.4-0.3-1.6-0.8-1.6-1.4c0-0.8,0.8-1.4,1.8-1.4
		c0.8,0,1.5,0.3,1.9,1c0.3,0.5-0.3,0.9-0.6,0.4c-0.3-0.4-0.7-0.6-1.3-0.6c-0.6,0-1,0.2-1,0.6c0,0.4,0.3,0.5,1.3,0.7
		c1.4,0.3,2,0.7,2,1.6C48.3,35.1,47.1,35.6,46.1,35.6z M51.8,24.1h-4c0.1,0.7,0.8,1.6,1.8,1.6c0.7,0,1.4-0.3,1.7-0.9
		c0.2-0.4,0.9-0.1,0.6,0.4c-0.4,0.6-1.2,1.3-2.3,1.3c-1.4,0-2.5-1.1-2.5-2.6c0-1.5,1.1-2.6,2.5-2.6c1.6,0,2.6,1.5,2.5,2.4
		C52.2,23.9,52.1,24.1,51.8,24.1z M57.6,26.3c0,0.6-0.8,0.6-0.8,0v-2.4c0-0.9-0.6-1.6-1.5-1.6s-1.5,0.7-1.5,1.6v2.4
		c0,0.6-0.8,0.6-0.8,0v-2.4c0-1.5,1-2.4,2.3-2.4s2.3,1.1,2.3,2.4V26.3z"/>
	<path class="st1" d="M10,11.6c0.7-0.9,1.5-1.7,2.4-2.4L6.7,5.8c-2,2-3.6,4.5-4.8,7.1L10,11.6z"/>
	<path class="st2" d="M6.7,23.9L6.7,23.9L6.7,23.9l-2.8,8.7c1.2,1.9,2.7,3.9,4.4,5.8l2.8-1.3l3.2-1.5C10.5,31.4,7.7,27.4,6.7,23.9z"
		/>
	<path class="st3" d="M62.1,21.7c0,0.2,0,0.4,0,0.6l6.4,0.6l0,0l0,0c0-0.4,0-0.8,0-1.1c0-1.6-0.2-3.2-0.6-5L63.8,17l-2.3,0.2
		C61.9,18.8,62.1,20.3,62.1,21.7z"/>
	<path class="st4" d="M68.5,22.9l-6.4-0.6l0,0c-0.2,2.7-2,6.1-4.8,9.6l0,0l0,0l1.8,7.8C64.1,34.3,68,28.3,68.5,22.9L68.5,22.9z"/>
	<path class="st5" d="M57.4,31.9L57.4,31.9c-2.1,2.8-4.9,5.7-7.8,8.4l1.6,7.2c2.7-2.4,5.5-5.1,7.9-7.9l0,0L57.4,31.9z"/>
	<path class="st6" d="M49.6,40.3c-4,3.8-8.4,7.5-12.5,10.5l0.5,2.3l1,4.5c2.9-2.1,7.7-5.8,12.6-10L49.6,40.3z"/>
	<path class="st7" d="M34.3,52.9c-1.5-1.1-3-2.2-4.7-3.4l0.8,3.6l1.3,5.9c0.3,0.2,0.5,0.3,0.7,0.5c0.5,0.4,1.1,0.5,1.8,0.5
		c0.6,0,1.3-0.2,1.8-0.5c0.4-0.3,1.3-0.9,2.5-1.8l-1-4.5l-0.5-2.3C36.1,51.6,35.2,52.3,34.3,52.9z"/>
	<path class="st8" d="M21.2,42.5l-0.7,3.2l-0.9,3.9c5.4,4.6,10.1,8,12.2,9.5l-1.3-6l-0.8-3.6C26.9,47.3,24,44.9,21.2,42.5z"/>
	<path class="st9" d="M14.3,35.6l-3.1,1.5l-2.8,1.3c3.4,4.1,7.5,7.9,11.4,11.1l0.9-3.9l0.7-3.2C18.8,40.2,16.4,37.9,14.3,35.6z"/>
	<path class="st10" d="M18.2,6.7c0.6-0.1,1.3-0.2,1.9-0.2c2,0,3.6,0.4,5.1,1.1l0.2-0.4l3.4-5.1c-2.3-1.2-5.1-2-8.5-2.1L18.2,6.7z"/>
	<path class="st11" d="M12.5,9.1C14.1,7.9,16,7,18.2,6.7l0,0l2.1-6.6c-0.1,0-0.2,0-0.2,0c-5.4,0-10,2.2-13.5,5.7l0,0L12.5,9.1z"/>
	<path class="st12" d="M31.3,13.9c0.9,1.8,2.2,1.9,3,1.9c1.1,0,2.1-0.2,2.9-1.9c0-0.1,0.3-0.9,1.1-1.9l-2.8-6.6
		c-0.4,0.4-0.8,0.9-1.2,1.3c-1.3-1.5-3-3.2-5.4-4.5l-3.4,5.1l-0.2,0.3C29.6,9.6,30.8,12.9,31.3,13.9z"/>
	<path class="st13" d="M38.3,12c1-1.5,2.9-3.6,6-4.8l1.5-6.9l0,0l0,0c-4.7,0.6-8,2.7-10.3,5.1L38.3,12z"/>
	<path class="st14" d="M44.4,7.2c1.1-0.4,2.5-0.6,4.1-0.6c0.3,0,0.7,0,1.1,0l4.2-3.1L56,1.8c-2.3-1.1-4.9-1.7-7.6-1.7
		c-0.9,0-1.7,0-2.5,0.2l0,0L44.4,7.2z"/>
	<path class="st15" d="M6.7,23.9L6.7,23.9c-0.2-0.8-0.3-1.5-0.3-2.2c0-3.2,1.2-7.1,3.6-10.1l-8.1,1.3C0.6,15.7,0,18.8,0,21.7
		c0,3.4,1.5,7.2,4,10.9l0,0L6.7,23.9z"/>
	<path class="st16" d="M60.9,15.6c0.2,0.5,0.4,1,0.5,1.5l2.3-0.2l4.2-0.3c-1-4.4-3.4-8.5-6.8-11.7L60.9,15.6z"/>
	<path class="st17" d="M60.9,15.6l0.3-10.4c-1.5-1.3-3.2-2.5-5.1-3.3l-2.2,1.6l-4.3,3.1C55.2,7,59,11.1,60.9,15.6z"/>
	<path class="st18" d="M23.4,26.3c0.1,0.2,0.2,0.3,0.4,0.3h0.3c0.2,0,0.3-0.1,0.4-0.2l2-4.3c0.2-0.5-0.5-0.8-0.7-0.3l-1.8,4l-1.8-4
		c-0.2-0.4-0.9-0.2-0.7,0.4L23.4,26.3z"/>
	<path class="st18" d="M13.2,22.4c-0.6-0.2-1.3-0.4-1.3-1.1c0-0.5,0.3-1,1-1c0.6,0,1,0.3,1.3,0.7c0.2,0.4,0.9,0.3,0.6-0.3
		c-0.3-0.7-1-1.2-1.9-1.2c-1.1,0-1.8,1-1.8,1.8c0,0.9,0.7,1.5,1.5,1.7c1,0.3,1.8,0.6,1.8,1.4c0,0.7-0.6,1.2-1.3,1.2
		c-0.8,0-1.2-0.2-1.7-1c-0.2-0.3-0.9,0-0.6,0.5c0.5,0.9,1.4,1.3,2.3,1.3c1.2,0,2.1-0.9,2.1-2C15.3,23.3,14.2,22.8,13.2,22.4z"/>
	<path class="st18" d="M20.8,25.2c0.3-0.5-0.4-0.8-0.6-0.4c-0.3,0.6-1,0.9-1.7,0.9c-1,0-1.7-0.9-1.8-1.6h4c0.2,0,0.4-0.2,0.4-0.4
		c0-0.9-0.9-2.4-2.5-2.4c-1.4,0-2.5,1.1-2.5,2.6c0,1.4,1.1,2.6,2.5,2.6C19.6,26.6,20.4,25.9,20.8,25.2z M18.4,22.1
		c0.7,0,1.3,0.5,1.6,1.2h-3.2C16.9,22.6,17.6,22.1,18.4,22.1z"/>
	<path class="st18" d="M29.4,26.6c1.1,0,1.9-0.6,2.3-1.3c0.3-0.5-0.4-0.8-0.6-0.4c-0.3,0.6-1,0.9-1.7,0.9c-1,0-1.7-0.9-1.8-1.6h4
		c0.2,0,0.4-0.2,0.4-0.4c0-0.9-0.9-2.4-2.5-2.4c-1.4,0-2.5,1.1-2.5,2.6C26.9,25.4,28,26.6,29.4,26.6z M29.4,22.1
		c0.7,0,1.3,0.5,1.6,1.2h-3.2C28,22.6,28.6,22.1,29.4,22.1z"/>
	<path class="st18" d="M33.5,26.1v-2.4c0-0.9,0.6-1.6,1.5-1.6s1.5,0.7,1.5,1.6v2.4c0,0.6,0.8,0.6,0.8,0v-2.3c0-1.3-1-2.4-2.3-2.4
		c-1.2,0-2.3,0.9-2.3,2.4v2.4C32.7,26.8,33.5,26.8,33.5,26.1z"/>
	<path class="st18" d="M39.6,26.7c0.3,0,0.7,0,0.9-0.2c0.5-0.3,0.2-0.9-0.2-0.7c-0.2,0.1-0.5,0.2-0.7,0.2c-0.2,0-0.6,0-0.6-0.5v-3
		h1.1c0.6,0,0.6-0.8,0-0.8H39v-1.5c0-0.5-0.8-0.5-0.8,0v5.4C38.3,26.5,39.1,26.7,39.6,26.7z"/>
	<path class="st18" d="M43.9,26.6c1.1,0,2-0.6,2.3-1.3c0.3-0.5-0.4-0.8-0.6-0.4c-0.3,0.6-1,0.9-1.7,0.9c-1,0-1.7-0.9-1.8-1.6h4
		c0.2,0,0.4-0.2,0.4-0.4c0-0.9-0.9-2.4-2.6-2.4c-1.4,0-2.5,1.1-2.5,2.6C41.3,25.4,42.4,26.6,43.9,26.6z M43.9,22.1
		c0.7,0,1.3,0.5,1.6,1.2h-3.2C42.4,22.6,43.1,22.1,43.9,22.1z"/>
	<path class="st18" d="M49.7,26.6c1.1,0,1.9-0.6,2.3-1.3c0.3-0.5-0.4-0.8-0.6-0.4c-0.3,0.6-1,0.9-1.7,0.9c-1,0-1.7-0.9-1.8-1.6h4
		c0.2,0,0.4-0.2,0.4-0.4c0-0.9-0.9-2.4-2.5-2.4c-1.4,0-2.5,1.1-2.5,2.6C47.1,25.4,48.2,26.6,49.7,26.6z M49.7,22.1
		c0.7,0,1.3,0.5,1.6,1.2H48C48.2,22.6,48.9,22.1,49.7,22.1z"/>
	<path class="st18" d="M53.7,26.3v-2.4c0-0.9,0.6-1.6,1.5-1.6s1.5,0.7,1.5,1.6v2.4c0,0.6,0.8,0.6,0.8,0v-2.3c0-1.4-0.9-2.4-2.3-2.4
		c-1.2,0-2.3,0.9-2.3,2.4v2.4C53,26.8,53.7,26.8,53.7,26.3z"/>
	<path class="st18" d="M23.8,35.1c0,0.6,0.7,0.6,0.7,0v-6.2c0-0.6-0.7-0.6-0.7,0v2.6h-3.1v-2.6c0-0.6-0.8-0.6-0.8,0v6.2
		c0,0.6,0.8,0.6,0.8,0v-2.7h3.1V35.1z"/>
	<path class="st18" d="M28,30.2c-1.4,0-2.5,1.1-2.5,2.6c0,1.5,1.1,2.6,2.5,2.6c1.1,0,1.9-0.6,2.3-1.3c0.3-0.5-0.4-0.8-0.6-0.4
		c-0.3,0.6-1,0.9-1.7,0.9c-1,0-1.7-0.9-1.8-1.6h4c0.2,0,0.4-0.2,0.4-0.4C30.5,31.7,29.7,30.2,28,30.2z M26.3,32.3
		c0.2-0.7,0.9-1.2,1.6-1.2c0.7,0,1.3,0.5,1.6,1.2H26.3z"/>
	<path class="st18" d="M31.2,32.9c0,1.4,1.1,2.6,2.5,2.6c0.7,0,1.3-0.2,1.8-0.7v0.3c0,0.6,0.8,0.6,0.8,0V33c0-1.9-1.6-2.6-2.6-2.6
		C32.3,30.4,31.2,31.5,31.2,32.9z M33.8,31.1c1,0,1.8,0.8,1.8,1.8c0,1-0.8,1.8-1.8,1.8c-1,0-1.8-0.8-1.8-1.8
		C31.9,31.9,32.7,31.1,33.8,31.1z"/>
	<path class="st18" d="M38.1,35.1v-2.4c0-1.5,0.7-1.5,1.6-1.5c0.5,0,0.5-0.8,0-0.8c-1,0-2.4,0-2.4,2.3v2.4
		C37.4,35.7,38.1,35.7,38.1,35.1z"/>
	<path class="st18" d="M42.2,35.6c0.3,0,0.7,0,0.9-0.2c0.4-0.3,0.2-0.9-0.3-0.7c-0.2,0.1-0.5,0.2-0.7,0.2c-0.2,0-0.6,0-0.6-0.5v-2.9
		h1.1c0.6,0,0.6-0.8,0-0.8h-1v-1.5c0-0.5-0.8-0.5-0.8,0v5.4C40.7,35.4,41.6,35.6,42.2,35.6z"/>
	<path class="st18" d="M46.2,32.4c-1-0.2-1.3-0.3-1.3-0.7c0-0.5,0.5-0.6,1-0.6c0.5,0,1,0.2,1.3,0.6c0.4,0.5,0.9,0,0.6-0.4
		c-0.4-0.6-1.1-1-1.9-1c-1,0-1.8,0.6-1.8,1.4c0,0.6,0.3,1.1,1.6,1.4c1.1,0.2,1.7,0.4,1.7,0.9c0,0.6-0.8,0.8-1.4,0.8
		c-0.7,0-1.3-0.3-1.6-0.8c-0.3-0.4-0.9,0-0.6,0.5c0.5,0.8,1.6,1.1,2.3,1.1c1,0,2.2-0.5,2.2-1.6C48.3,33.1,47.6,32.7,46.2,32.4z"/>
</g>
</svg>
