<svg xmlns="http://www.w3.org/2000/svg" width="326.889" height="249.744"><path data-name="패스 208" d="M303.29236628 117.43419732c-.13284868.19734545-.26611998.39559721-.39643295.58750482a2.029 2.029 0 0 0 1.331674.4356023q2.1248719-.02316027 4.25887284-.02330618c.22352338-.00610712.46403209.01998045.68218358.0301258a1.967 1.967 0 0 1 .39639114.29517801 1.04 1.04 0 0 0 .75081368.44610405 13.8 13.8 0 0 0 1.59952837.18535635 20.325 20.325 0 0 1 2.90472898.37249102c-.05248538.4532883-.67182349.48005228-.923721.75759984-.0477705.05275395.01141308.18848274.0717326.28391625a.5.5 0 0 0 .26053784.13693807c.37921534.02677163.75190332.04387922 1.12150595.04630756a4.87 4.87 0 0 1 1.91726372.48357817c.25829772.1204462.49860607.28656934.45649079.46443531a.513.513 0 0 1-.32588987.32028081 1.047 1.047 0 0 1-.54885371-.02974221c-1.02739887-.3025435-1.90985945-.16345604-2.9074479-.37375888a1.07 1.07 0 0 0-1.13202023.35483263c.2329211.1086129.4489277.22037221.67248037.31358275a3.018 3.018 0 0 1 .71898303.26354773 3.369 3.369 0 0 0 1.81459188.78657568c-.06630714.29126683-.12055133.51643914-.16743267.71635697-.42793859.0729833-.8368496.13828865-1.2337954.21579373-.24169596.04507836-.44397855.17363478-.7077459.1477353a2.082 2.082 0 0 0-1.95304987.87564674c-.27485568.27235888-.3932157.63976043.32341721 1.12840476.18646976.12777726.19222998.40410102.31797462.69996296a3.324 3.324 0 0 0 1.7473444.55219612c.4716441.02021986.9490314.05415159 1.43391833.11695815a1.992 1.992 0 0 1 1.03020327.3888113 2.359 2.359 0 0 1-1.38796295.02584278 5.9 5.9 0 0 0-2.77566698.11028532c-.58769555.18606166-1.35523087.19226877-1.74535383.66686131a4.092 4.092 0 0 0 .83565245.30912455c.47823742.04867206.91899134.00262883 1.38924545.02109713a1.917 1.917 0 0 1 1.11127263.3758592 2.641 2.641 0 0 0 2.33354733.42612423 2.24 2.24 0 0 1 1.30663465-.07149043l.44524366.8387527a.775.775 0 0 1-.24211859.04598467c-.28986706-.03144971-.58844054-.08682009-.87873022-.11736349a2.1 2.1 0 0 0-1.4568302.23978273 1.382 1.382 0 0 1-1.09710661.33911516 9.814 9.814 0 0 0-2.3252857.1382442c-.57577914.03273196-.87795106.27138888-.84354328.79388395a7.965 7.965 0 0 0 .85461658.0862583c1.09484684-.01246566 2.17041205-.05930019 3.27420471-.0554572a5.947 5.947 0 0 1 1.02658542.20727368l-.02792209-.03950135c.02300698.17071812.11265811.37361631.05276846.50678248-.1525652.32717711-.12884739.65490637.2599708 1.08226854.1213475.1349251.0320529.32168558.04039526.5451479l1.09238184.43766644c.02624625.09278542.09061363.1890031.05528227.22217982a5.062 5.062 0 0 1-.48047278.36074216l-1.9206593-.52598654-.3328665-.39354783c-.73021302-.03597161-1.46362864-.07454-2.19172369-.09849022-.04029528-.00113595-.03156446.10554944-.04845943.17490765.21262566.11900977.43334703.23958788.64839114.36524229.03172077.01479164.03004494.0680757.06795105.1618847-.19626331.05412679-.41958884.11659845-.64255282.17592857a4.536 4.536 0 0 0-.57024606.1533735c-.17245503.07405581-.52927161-.00075012-.52811376.23811942a1.983 1.983 0 0 0 .32680092.1060479 32.232 32.232 0 0 0 4.76923175-.2399136c.16093683-.00439713.27394198-.09293434.4086472-.14045806 1.09603397.32572155 2.19279104.64516 3.28641145.98078987.296348.08853734.43117774.25843713.41082361.47955183a17.213 17.213 0 0 1-4.61862096.25056216 13.976 13.976 0 0 0-3.16113124.19866122 17.009 17.009 0 0 0-3.60807552.55848731 2.934 2.934 0 0 1-1.47773873.01487422 15.557 15.557 0 0 0-5.44283831-.00026797c-.43525989.03426123-.85027077.10554919-1.3045118.10006478a13.64 13.64 0 0 0-3.29941039.2136238 2.386 2.386 0 0 1-1.37259476-.09939626 2.49 2.49 0 0 0-1.77434078-.11570994 2.145 2.145 0 0 1-1.07811557.00261354 7.778 7.778 0 0 0-1.2445-.02863092c-.28574839.00467558-.48683884.078619-.40465805.35196003.01916925.06300429-.12766976.1412814-.23290896.13744605-.37975523-.01378284-.24783251.13159045-.08719865.3289702.06992248.0866709.0344323.19590665.05194037.36185384l-1.46814303-.22339437c-.11660334-.4361418.73818907-.16333063.6023285-.55107656a5.175 5.175 0 0 0-2.67106038-.18739648 4.405 4.405 0 0 1-1.2154884.01799875 10.2 10.2 0 0 0-2.73463883.13824408c-.15694518.019499-.25852987.1166718-.40072008.18497952l.54709704.83328556c-.34647602.36916036-.99912763.30646368-1.55375634.36009202s-.68135073.54070896-.18403943.9436326a2.407 2.407 0 0 0 .82154724.41509173 5.471 5.471 0 0 0 2.29816228.27721857c.1909525-.0356391.40879862-.03666992.80346275-.06669033a2.549 2.549 0 0 1-1.95133261 1.16773928c-1.10741063.22397252-1.67390457.80941306-1.63871763 1.72066049.01302532.32936354-.12406418.48611324-.5113044.4931144-.63637961.008887-1.29808454-.02492997-1.94389367-.03368057-.41358421-.00749-.82613997-.0100869-1.23029468.00006069-.12964356.00354213-.3160694.02474137-.33211913.09228696-.12423275.52906637-.91425482.69470794-.88252204 1.36491166l1.19016258 1.57670988a3.407 3.407 0 0 0 1.51122556.4575394c.46869554.0596699.96526673.20626475 1.46309602.31703479-.15039604.717681-.88060668.89466244-1.76375857.94295054-.0652225.2818422-.12676358.55105716-.19771464.86884632-.31538535-.11396527-.5505368-.20596415-.78755706-.28449055a1.3 1.3 0 0 0-.42750859-.10777016c-.9764723.10407609-1.9548183.2050717-2.90113329.34858808-.54278075.07791056-.58175211.46909112-.18729335.97190648.05427097.07054546.11615394.14133033.16728337.21151424a1.49 1.49 0 0 1 .08003353.16200196c-.26556295.23586716-.57244475.48225823-.84379734.75183712-.13637129.13391367-.34504934.29038241-.29147219.46652862.2111622.68767036.08105184 1.3618486.924922 2.0863651a4.24 4.24 0 0 0-.54802337.73749263c-.05747609.12325785.08401292.34039804.15536933.577797l1.15412315.43776906c.0241234.06421107.09640326.15529138.06330714.18840703-.24823073.21526149-.51748486.43065-.4613745.79775847a.8.8 0 0 0 .52189387.79505206c.53744052.25061263.33280042.7841128.96645373.95380511a6.916 6.916 0 0 0 1.2966774.1699197 5.207 5.207 0 0 1 1.77545696.82790918l1.99922238.20843679-.38952901-.5843733.7195378-.51848852-.04337574.00073774c.04987133.10600872.13853068.22348433.13970568.31561261.0021619.1609979-.10382243.29363396.19448961.48680467a1.587 1.587 0 0 0 .8360946.37443002 3.911 3.911 0 0 0 1.1589773-.10503608 3.219 3.219 0 0 1 1.5636768-.11161952 4.845 4.845 0 0 1 1.70543448.19722633 2.188 2.188 0 0 0 1.48830418-.03753192l-.29086848-.55933132a1.914 1.914 0 0 1 1.14367746.25194419c.60891181.26297606 1.0899903.31738644 1.2783559-.0912973a.522.522 0 0 1 .35618885-.21015828.824.824 0 0 1 .81294344.32942974 4.616 4.616 0 0 1-.85301672.62726986c-.20712437.09871421-.59819255.03110743-.87885487.07456615a.177.177 0 0 0-.14553211.20798174.653.653 0 0 0 .32569913.2622138c.43783952.10927742.8724056.18061693 1.3411109.27339272l.44407842.7797303 1.6058261.23573828c.13830855-.32499807-.4000847-.52860971-.64953673-.76740605-.33218007-.31930142-.43138773-.5608606-.1283095-.7990949a1.86 1.86 0 0 0 1.54180576-.32263293.9.9 0 0 1 1.18330333.44144561c.32909222.50102227.62743593 1.0064637.95205768 1.5076081.27270328.4184554-.54552183.61618417.27250517 1.18079716l-.97208006.24845998.33928136.84120043c.589469.09171317 1.1087199.11868516 1.31737356-.12054831.24277336-.28400898.64522532-.12723713.9875092.03788935.61695619.29541505 1.19865186.65934794 1.80885593 1.0023698a4.127 4.127 0 0 0 .30435797.823812c.22097778.37557798.7093996.33852211 1.07155628.49415802.27694173.2460981-.02178568.2833397-.05757145.41450516a2.143 2.143 0 0 0 .02686173.54104385c-.38618974-.11829407-.71950827-.20090011-1.0499393-.32519143-.73952764-.27864472-1.47936063-.56846562-2.21285434-.87188112a8.062 8.062 0 0 1-1.2914886-.60223103 18.386 18.386 0 0 0-3.9206582-1.72892893c-1.10100765-.3931401-2.16155634-.84465034-3.23322012-1.29361999a4.018 4.018 0 0 0-.88272426-.3454184 25.752 25.752 0 0 1-3.44183473-.92196296 3.432 3.432 0 0 0-.5888778-.13557262 29.346 29.346 0 0 1-4.13383139-.83639647 5.573 5.573 0 0 0-1.4446401-.21464152 4.623 4.623 0 0 1-2.31702855-.54199974 2.941 2.941 0 0 0-.72237373-.28940315 13.832 13.832 0 0 0-2.44979175-.25965432.7.7 0 0 0-.70181225.39765887c-.15692328.29866383.24198893.53874517.50570735.80846835-.20585163.11254823-.54964038.17070573-.58432687.3421054-.05519204.28872624-.4986575.15365446-.67338443.30830083a2.672 2.672 0 0 1-.88951082.4050241c-.59633113.1974821-.67604229.3092682-.55222766 1.02572053a.441.441 0 0 1-.33217056.53251076c-.37662596.14987292-.70968318.3388197-1.12779656.54216965l.95920077 1.14682427c-.66186374.04224205-1.22054518.07853327-1.84942517.1162951-.08198794.1758237-.16143041.37931546-.26540427.56916128a5.777 5.777 0 0 1-.34505185.48678252l.9119117.57860094 1.924253-.19394685c.95839483.46235414.59502385.9008727.78756895 1.34925578.2662102.11530883.5002819.23328528.74237846.31748893s.48315979.14696128.74658024.22566114l-.12431585.65701946c-.52980424.24174464-1.2953705-.04021507-1.9227017-.07676073a.757.757 0 0 0-.18953809.12015536c-.37277608.5036457-.21561603.8031231.70543697 1.2414442a8.556 8.556 0 0 0 1.32136747.51685975 3.567 3.567 0 0 1 1.71303159.9665132 1.713 1.713 0 0 0 1.93113678.61472899c.30040812-.07397271.59719101-.1496359 1.02904555-.25941139.01668234.23397158.10602812.4256936.02079852.46649697-.47537934.21967814-.57724749.58483959-.24137873 1.12101976-1.6539141-.44021943-2.71240364-.2596373-3.18684513.68208732l.72828788.47311495c-.03750552.03547303-.05947679.09915398-.1214575.10666337-.33986793.03791825-.70989318.03639622-1.0317522.09484932-.38595284.07049402-.66446303.24184476-.52268581.61690238s-.12986845.47016613-.44157.55652667a1.335 1.335 0 0 1-.51391081.05385798 4.828 4.828 0 0 0-2.85789933.68652125 2.079 2.079 0 0 1-1.28676183.06199985c-.88533331-.17892158-1.78414398-.37626492-2.64915744-.48281866a6.237 6.237 0 0 0-1.62792202.0198723 7.7 7.7 0 0 1-2.56655654-.01398383 2.27 2.27 0 0 0-.57574247-.04779754 30.956 30.956 0 0 1-4.5880409-.12025701 3.269 3.269 0 0 0-1.28934397.1148613 2.326 2.326 0 0 1-1.30778524.06212687c-.89312366-.16931374-1.70366342-.13240454-2.60826372-.29603616a11.808 11.808 0 0 0-2.04646038.01117553 3.589 3.589 0 0 1-1.14056282-.13794726 5.172 5.172 0 0 0-2.00986355-.23767316c-1.26369128.03855311-2.51595723.10229475-3.7418743.1970805a3.3 3.3 0 0 1-1.4358775-.20503857 10.1 10.1 0 0 0-1.76282496-.39832166c-.88805223-.18018944-1.6894019-.11803065-2.61535536-.37547613a2.727 2.727 0 0 0-1.30820787.06303318 15.964 15.964 0 0 0-1.57727153.5146334c-.87382487-.28168616-1.7715753-.57121884-2.6693868-.86298675-.71498648-.23189291-1.42265418-.22866365-1.63635973.0876573-.23091564.34139708-.57600153.30295583-1.06947273.22069907-1.52070888-.24790622-3.0413567-.49357722-4.55710654-.72372372-.4389144-.0667469-.86156169-.07846308-1.29388277-.11675778-.71668923-.06497346-1.43700368-.1316374-2.1550829-.1983624-.09551411-.00812749-.19386928-.0219933-.28605863-.02305354-1.98586479.01846754-4.15819433-.48364238-6.2180636-.66850053-.90862375-.08165105-1.8574548-.2758382-2.78149553-.39777965a13.174 13.174 0 0 0-3.66438123-.0613858 1.759 1.759 0 0 1-1.13731378-.18277408 3.009 3.009 0 0 0-1.17057598-.3031054c-.76544663-.08108915-1.55006251-.22518258-2.32536127-.323003-.67470836-.0840157-1.34584767-.1520232-2.0042938-.1975611a16.653 16.653 0 0 1-3.57245793-.75778447 16.409 16.409 0 0 0-2.96908409-.6320029 23.116 23.116 0 0 1-3.5189003-.64785004 1.474 1.474 0 0 0-.29724943-.07240701c-1.78295684-.0380777-3.75435224-.73447213-5.55393773-.82443903a3.7 3.7 0 0 1-.44217809-.07157892q-5.09657955-.9013578-10.14181718-1.6265083c-3.17745679-.464358-6.36803915-.98338518-9.55123914-1.46145505q-1.9101379-.28826759-3.82608007-.59248229c-1.36235907-.21599485-2.71678125-.35436236-4.08620756-.56703246-3.67516393-.57065756-7.2846536-.91539281-11.00517196-1.63960485a11.1 11.1 0 0 0-1.8102731-.07177966c-.46258102-.01599367-.93017727-.03542936-1.39795674-.06157075a4.482 4.482 0 0 0-.70061997-.06630727 10.161 10.161 0 0 1-2.2492388-.10765591c-1.05549204-.10269162-2.08522638-.13047968-3.15208268-.25612458a14.528 14.528 0 0 1-1.92601168-.4435223 2.047 2.047 0 0 1-.49547428-.31931368c-.63457664-.43272681-.63089034-.4288011-1.2234179-.23947576a1.72 1.72 0 0 1-1.02269401.08252255 4.165 4.165 0 0 0-.92099205-.0267327.925.925 0 0 1-.1975751-.09213078 2.993 2.993 0 0 0-2.55879522-.94161565 14.53 14.53 0 0 1-1.47773385.03142717 2.791 2.791 0 0 0-1.03695553.06814866 2.267 2.267 0 0 1-.94284606.02486577c-1.35812312-.19195205-2.72682634-.41090523-4.09087588-.62327486a1.617 1.617 0 0 1-.4473814-.09827958 6.191 6.191 0 0 0-3.01918269-.4843407 2.866 2.866 0 0 1-.41867515-.06282607 4.6 4.6 0 0 0-1.60352717-.83931736c-.2766047.07734877-.61446216.1724768-.94742653.26657637a1.379 1.379 0 0 0-.0943734.37748333c.006967.2713696-.2113189.420048-.5293328.40636778a21.52 21.52 0 0 1-2.75510523-.02135894 10.569 10.569 0 0 1-2.0686489-.45707299 5.411 5.411 0 0 0-2.05139978-.34972557 3.3 3.3 0 0 1-.85817586-.0691606 4.535 4.535 0 0 0-1.78548767-.01608691 1.932 1.932 0 0 1-1.26598508-.16002115 7.047 7.047 0 0 0-3.3437679-.65666144c-1.06766737-.00796168-2.19398331-.18119387-3.26954853-.13435934-.20690198-.17150968-.3887889-.3280445-.5794946-.47986457a1.176 1.176 0 0 0-.97133969-.31391752 4.157 4.157 0 0 1-2.13554473-.31834682 5.264 5.264 0 0 0-.74011882-.23478529c-.33228032-.04460706-.68624119-.06401584-.6867543.24469071.00087453.09750506.00272619.23077385-.08691769.25738165a1.033 1.033 0 0 1-.51393033-.0123538.569.569 0 0 1-.24873868-.2781853 1.739 1.739 0 0 1-.03668457-.45845746 10.155 10.155 0 0 0-2.62312117-.69245672c-.13876771-.00291928-.28446589.0516155-.40524423.00301928a3.107 3.107 0 0 0-2.24668357-.04688199 2.94 2.94 0 0 1-.79054718-.18106396c.30529645-.50090725.56264894-.92266037.81770513-1.34658765.0325465-.05323275.08466532-.11057931.06368346-.17442883a.805.805 0 0 0-.20437353-.40645352.69.69 0 0 0-.6776862-.1438833c-.62614894.2850886-1.2298185.59058991-1.88936404.91417095-.31720773-.1479164-.63919128-.30688681-.96884303-.45177893-.28524267-.12418381-.57482878-.22722208-.8601887-.33932342-.05596633-.08347317-.13869438-.16397826-.13659593-.21816863.00562356-.1871587.20626211-.35951348-.12449868-.57774569a2.761 2.761 0 0 0-.84497446-.3719505 3.7 3.7 0 0 0-.84051875-.01237833c-.1009348-.15740446-.14756685-.3413459-.28019315-.41422433-.4329244-.2404942-.72401052-.10369553-1.11980572-.0168269l-.3955707.8483041a1.8 1.8 0 0 1-.35255372-.16439851c-.21113793-.1955525-.39968411-.3993277-.606718-.60841374a2.9 2.9 0 0 0 .3932401-.55699571c.1182012-.29134254-.15847421-.65868804-.62546213-.86872443a4.441 4.441 0 0 0-.7426081-.27677104c-1.24566762-.30060636-2.49362666-.58683393-3.73905-.87849936a3.956 3.956 0 0 1-.59703457-.13937617 13.579 13.579 0 0 0-2.97258717-.62922292c-.81590916-.14323843-.80829227-.12644608-.94532571.42533905a.619.619 0 0 1-.07184023.17062527.645.645 0 0 1-.12641166.10545658 2.8 2.8 0 0 1-.6424452-.27861293 5.294 5.294 0 0 0-1.61100965-1.01493346c.13851617-.23552764.46370484-.27036054.83331235-.25137926.28225018.01465736.59127673.07600546.85817586.0691606a.48.48 0 0 0 .37649893-.17089634c.05790847-.09105827-.01173307-.24931773-.0299129-.4398525l-3.23881691-.81074352c-.150684-.25894272-.31418332-.54482551-.50204057-.87075442.0488674-.22547278.11070896-.50006452.16591077-.75568486a1.879 1.879 0 0 0-1.18554833-.47449043 1.323 1.323 0 0 1-1.08885434-.35768173 1.047 1.047 0 0 0-.6953995-.18634787 6.575 6.575 0 0 1-1.1635454-.22590067c-.13442915-.04061778-.26745603-.24277823-.40251542-.37196013.12951166-.0411185.2974254-.15039328.39524556-.10698574a5.352 5.352 0 0 0 2.0496018.39853917 4.333 4.333 0 0 0 .58197425.07939129c.51699127-.05573167 1.09779277.55383753 1.57880293.3765067a2.86 2.86 0 0 1 1.44952105-.03244587c.18698524.03202376.37272953-.04686895.25433059-.2212441a1.361 1.361 0 0 0-.44588629-.35466945 1.7 1.7 0 0 0-.4346931-.09236292c-.68892344-.1458132-1.38151855-.24589326-2.06949413-.45526037a12.358 12.358 0 0 0-2.52618291-.56670707 5.631 5.631 0 0 1-.66989587-.15349115l-.52061375-.9610652a1.526 1.526 0 0 0-.22085814-.17470742 13.633 13.633 0 0 0-3.5203829-1.37346067c-1.04702253-.26755903-2.10020599-.5313707-3.14917791-.85390427-.93750095-.28710448-1.87266892-.65256428-2.80764391-.97821248a5.254 5.254 0 0 0-1.02981244-.29263518 10.227 10.227 0 0 1-3.52980277-.94863922 2.06 2.06 0 0 0-.73290991-.1674278c-.61899608-.04258933-1.23509003-.07720511-1.8308739-.07255895a2.379 2.379 0 0 1-1.55668511-.35295245c-.1799424-.11811323-.54421468-.0728175-.82604712-.1049341-.35100742-.04230588-.54150313.10829751-.49964203.29773787a1.161 1.161 0 0 0 .52847505.57744534 6.745 6.745 0 0 0 2.91202324.93420161 10.972 10.972 0 0 1 1.89655305.3150342.973.973 0 0 1 .448957.31968988c.09416314.1387995-.19865987.326647-.3765918.26574354-.44147939-.16062673-.87903796-.3414927-1.41441181-.54921327l-.90599543.6367702c-.28203518-.1050341-.5676394-.22607638-.85365646-.31310645a2.967 2.967 0 0 0-.70457008-.1453857 4.54 4.54 0 0 1-2.50827414-.68083101 2.084 2.084 0 0 0-1.1549147-.25387407 2.5 2.5 0 0 1-1.14166698-.19473441 10.98 10.98 0 0 0-1.48624228-.34548212 34.154 34.154 0 0 0-4.00025236-.81051901 3.044 3.044 0 0 1-1.163538-.40574783c-.60874813-.32248213-.93453774-.27689568-1.13705737.0722258-.15554304.26730948-.2616007.56100451-.40993971.87911855l-1.84063553-.39709048c-.22983325-.29033373-.25325796-.4435926.05351384-.44839521a3.38 3.38 0 0 0 .42633847.03219483c.1117568-.01960651.23334622-.08869352.22939611-.16777194a.627.627 0 0 0-.30394775-.25207096c-.19050297-.07890259-.3946421-.1001679-.59764528-.16172851-1.1972351-.36187862-1.48867775-.61473862-1.78509145-1.54077044a.744.744 0 0 1-.00088916-.14716388 6.684 6.684 0 0 1 2.4699698.67069306 1.652 1.652 0 0 0 .5722882.21610698c.16414432.0147526.3715838-.03967956.405811-.12964343.0256527-.0763082-.13842806-.28522565-.27722017-.37090966-.31202393-.1874275-.66402801-.3317089-.99785464-.4984086a1.844 1.844 0 0 1-.859165-.76033642c.04296051-.17967859.2493813-.20589794.50318416-.16809431 1.16256337.17358398 2.3296021.36359876 3.4877512.52298717a2.964 2.964 0 0 1 .84986265.3543691 2.539 2.539 0 0 0 .70805853.09294687 3.478 3.478 0 0 0-2.80749724-1.30033044 2.469 2.469 0 0 1-1.55656786-.36503493 1.352 1.352 0 0 0-.441902-.15972042 8.5 8.5 0 0 1-1.9112835-.69043135 4.164 4.164 0 0 0-1.9664535-.53189343c-.002465.45013212-.17169064.82250247-.96854293.77090375-.16220957-.0094369-.26348402.115465-.39196235.17802953l.027199.04578444a3.839 3.839 0 0 0-1.73206156-1.17178828c-1.15202958-.5085124-2.28389562-1.06499802-3.4813725-1.63221768.04326588-.16850242.14357783-.27950923.08929223-.39971353-.1102617-.23678336-.39657186-.49828382-.4387432-.71545328-.0310416-.17005123.22501363-.27904994.28990874-.44187999.02197615-.047128-.17615835-.19248178-.28323945-.29648003a1.245 1.245 0 0 1 1.16721218.16361459 5.243 5.243 0 0 0 2.19184556.92166698c-.44019702.29566633-.70939985.48018419-1.03012543.6947421a8.7 8.7 0 0 0 2.4569028.81465922 1.372 1.372 0 0 0 1.11127764-.01694101l-.44824591-.98138505c.61354597.20334784 1.0990167.40214212 1.58265042.51732643.60084302.14777235 1.13702307.22125675 1.4535958-.14529707.30050837-.34866707 1.28114078-.07124127 1.75510546.44327062.18812357.20468152.31541701.42623598.51284306.62753167a4.069 4.069 0 0 0 .53566695.38219095c-.33012819.08328496-.62600477.15937076-.97534375.24362797a4.694 4.694 0 0 0 2.53524349.76733335 3.3 3.3 0 0 1-.31772295-.87086918 1.7 1.7 0 0 1 .228766-.6656892 1.736 1.736 0 0 1 1.14856818.0379627c.3487917.10857872.70108163.19782451 1.0471593.32168833a2.347 2.347 0 0 0 1.6235981.06748503c.57699819-.20098032 1.17925573-.37804485 1.7433824-.59164753.49810298-.1903245.4534913-.69330343-.08087601-1.17529574-.1816475-.16414683-.43137072-.29824872-.60232575-.46402984a1.726 1.726 0 0 1-.25439879-.41985028 2.448 2.448 0 0 1 1.60933658.05311113 13.688 13.688 0 0 0 3.09207814.61432628 3.251 3.251 0 0 0 .95072926-.1293208l-.1155381-.92113135-.72504623-.33809461a1.77 1.77 0 0 1-.43779084.46560517 1.72 1.72 0 0 1-.65141066.04821978 1.4 1.4 0 0 1-.42906228-.05001563c-.69570974-.21407699-1.39504471-.42984445-2.08894672-.65962914a1.655 1.655 0 0 1-.31723212-.23068112c.1779418-.3153438.43055264-.63228033.2337716-1.10470622-.06105726-.13880926-.10714943-.33573948-.24503524-.42100087-.84453469-.51959808-.94355901-1.1638047-1.58266956-1.81159765a17.974 17.974 0 0 1 2.5809621.31199303c.47360814.12485322 1.0622319.21837901 1.17108907-.00560115.19664452-.40040971.56314715-.46231947 1.20583914-.3711657a6.321 6.321 0 0 1 1.6076924.4186659 1.834 1.834 0 0 0 1.9689259-.09808584c.04716955-.0420004.05917143-.11033014.10126469-.15800779a.886.886 0 0 1 .16332112-.11362311 3.133 3.133 0 0 0 2.41674918.8842055 1.493 1.493 0 0 1 1.08146222.28361854c.14024806.10622373.54154706.04067898.7355336.0505898a12.443 12.443 0 0 0 1.60476573.73728077 1.1 1.1 0 0 0 1.04736467-.21114743 1.006 1.006 0 0 0-.91274955-.75663548 6.617 6.617 0 0 1-1.59946718-.59247427 1.52 1.52 0 0 1-.39751733-.22177684 6.178 6.178 0 0 0-.63884675-.57264024 11.107 11.107 0 0 0-1.39725053-.73981885c-.67458859-.29249827-1.37000273-.52850498-2.1147288-.81729742a1.32 1.32 0 0 1-.81824252 1.16317634 1.6 1.6 0 0 1-1.19126725.00391556 6.148 6.148 0 0 1-1.8588324-.85023711 3.025 3.025 0 0 1-.9647779-1.00708918 2.457 2.457 0 0 0-1.06892996-1.21674925c.48387075-.10538074.94308797-.22887787 1.42654098-.31679936a3.215 3.215 0 0 1 1.85032897.08052762l.02973959.05689954-.06230072-.05332562c-.08675612-.83378377.7582356-1.01792768 1.6279224-1.24793175a3.354 3.354 0 0 0 1.80902226.33711047c1.58556483.36200577 3.09569612.38651076 4.69306247.82022235a1.994 1.994 0 0 0 1.08532448.06474395c.09761743-.02950995.11510359-.14272759.16160136-.20931555a1.3 1.3 0 0 0-.86793012-.57353929c-.85001659-.26175714-1.70255912-.48497054-2.5501475-.70697716-.54888788-.14561283-1.09461958-.24120528-1.64266222-.38863072a7.222 7.222 0 0 1-2.27511838-1.00573623 13.507 13.507 0 0 0-3.0572132-1.20492634c-2.04656763-.7623424-4.09990216-1.11738367-6.14844121-1.80451229a17.184 17.184 0 0 1-3.2454614-1.21767822 10.068 10.068 0 0 0-1.78022553-.60945721c-.8934021-.2941253-1.79425252-.64799607-2.6834651-.87065495-1.14731245-.28674055-2.27567303-.63305313-3.4198781-1.03530274-1.08916459-.38541084-2.19744961-.66829652-3.29716989-.99794377a7.319 7.319 0 0 1-.88947151-.28125865 4.121 4.121 0 0 0-1.88807377-.44679574 1.929 1.929 0 0 1-.871575-.23208838 9.577 9.577 0 0 1-2.14017614-1.273825 12.336 12.336 0 0 0-1.4095186-.95959487c-.1937813-.13339344-.35078016-.29597682-.61696345-.52492104.29861502-.00860616.48345789-.07136854.62604869-.01039425a7.708 7.708 0 0 0 2.3505986.47710712c.33427127.03560506.692727.13765642 1.03673314.20207523.4874324.0904746.6384683-.09618325.43145157-.45201056a2.214 2.214 0 0 0-1.16317146-.80168956 2.214 2.214 0 0 1 .39595163-.3758807c.24771037-.13606093.55445776-.22362826.79848182-.3636149.42281349-.24419.40813674-.43750475-.02823207-.88593676-.13300736-.13594867-.30552096-.2605282-.43544785-.39835056-.45250889-.48243932-.6075949-.91887183-.35131728-1.29809443.21400603-.32169772.4683146-.4127535 1.10964587-.2240336q2.30057572.6766634 4.6001987 1.40032779a25.757 25.757 0 0 1 2.81863199.95464848 32.966 32.966 0 0 0 4.29369321 1.283883c1.2300405.36724564 1.45520318-.02096921.69342847-.96649779.44745737-.66853264 1.5487167-.44629875 2.56593856-.23787449 1.38521462.28292485 2.79167002.68829899 4.18462855 1.0090396a15.774 15.774 0 0 0 1.90301446.30591005c.44192892.04608504.52935721-.32360306.15025187-.59196315a12.173 12.173 0 0 0-1.59481337-.99524385c-.79985203-.39063118-1.64227125-.70180775-2.56361009-1.08509323l-.28725538-.80369978a2.719 2.719 0 0 0-.3517329-.24897584 12.173 12.173 0 0 0-2.65485408-.9533073 23.2 23.2 0 0 1-3.55797153-1.21003455c-.63555628-.27209045-1.28589932-.49590718-1.90193945-.75779372-.70884507-.30185205-1.43200785-.6037603-2.14170304-.9203527a1.1 1.1 0 0 1-.23411074-.2504 2.106 2.106 0 0 1 1.44350177.04198376c1.28991301.38082074 2.58369065.75571993 3.87589509 1.12216188a2.883 2.883 0 0 0 .72921384.1303962c.49936834.00335667.97752028-.03297123 1.52098258-.05318832a2.431 2.431 0 0 0-.25062939-.54387766c-.13174927-.17177349-.36782655-.33040676-.527366-.50410524-.33751043-.3670255-.29995109-.62976929.09516745-.75777844.10776515-.03470838.25958272-.02901398.3681931-.06553498a2.519 2.519 0 0 0 .35480374-.19535689c-.14587638-.34497113-.30952713-.73464205-.49741855-1.17644157a2 2 0 0 0 .27475067-.42357062c.10140886-.28372565.05716598-.56034012-.44972876-.88828939a3.132 3.132 0 0 1-.5705976-.62908536 4.8 4.8 0 0 1 .43385288-.29862466c.93316264-.49390332.77469305-.31733211.07989964-1.3165869a6.461 6.461 0 0 0-.57741568-.60026672c-.16261992-.1718248-.31593736-.34703541-.4722742-.51813711l.49313906-.22463718.0215877.06964891-.04272837-.05743941a.452.452 0 0 0 .04478777-.12917452l-.02059591.01577366c.69641569.35453517 1.46411708.50177503 2.14616863.90367761a9.539 9.539 0 0 0 1.79436014.19345455 14.248 14.248 0 0 1 1.88076725.04837936 1.177 1.177 0 0 1 .57111808.14053164 4.274 4.274 0 0 0 2.43991997.58606442 3.178 3.178 0 0 1 .48205075.07362118c.10889622-.09155661.31264453-.16646742.341964-.30506168.06816619-.33784518.53032459-.3209452.85090838-.19683222a2.349 2.349 0 0 0 1.26114819.14673189 3.376 3.376 0 0 1 1.3928902.08899938c.67848013.17294136 1.09825957-.11679856 1.57015535-.26748493a1 1 0 0 1 .64142663-.1025274 13.046 13.046 0 0 1 2.6213013.46210548.6.6 0 0 0 .28043757.01381212 2.714 2.714 0 0 1 2.1231495.48690055l.90177651-.39820113c.39126116.10741838.46224375.51125308.93586904.48936504.60900717-.02827124.17323932-.4874568.32527928-.7519863l1.2439943.15749032a3.052 3.052 0 0 1 .2834373.35284458 1.579 1.579 0 0 0 1.31324236.8253269 9.408 9.408 0 0 1 1.10170146.28753936l-.29080978-.77004913a1.4 1.4 0 0 1 1.65839683.27680308l1.26055462-.02236172c.3451959-.20314722.3713861-.50539724.09147878-.97465719-.51659544-.2408924-1.08461102-.51348607-1.66609419-.77139559a1.652 1.652 0 0 0-.58266555-.17019064 6.84 6.84 0 0 1-2.3649456-.57648097 6.554 6.554 0 0 0-2.06187725-.43846802 2.576 2.576 0 0 1-.55742822-.01608653 7.774 7.774 0 0 0-2.97814492-.0139229 1.705 1.705 0 0 1-.52914459.02027329c-.84027196-.1998375-1.68253488-.39067299-2.5192622-.65726702a5.69 5.69 0 0 0-1.88472462-.35696376l-.90605387.0287817-2.13070758-1.12376385a3.946 3.946 0 0 0-.47376207-.03224126 1.856 1.856 0 0 1-1.25472331-.4846797 7.5 7.5 0 0 0-3.77671896-1.60222655 8.169 8.169 0 0 1-1.47949503-.40964187 2.454 2.454 0 0 1-.56087011-.42042445c.79856228.11418528 1.51187545.20296215 2.23546823.32411693.4368013.07127845.88999187.20205809 1.33036222.28934472.471241.08733794.78529017-.0277191.81373512-.26381841.03940374-.35898098-.13761937-.61586192-.63464734-.87742108-.75291213-.39191367-1.51240782-.77917367-2.27769802-1.14927488a1.3 1.3 0 0 0-.56772736-.11467622c-.39400211.02150209-.76358522.08528553-1.0690794.1204751-.65734921-.21825674-1.24370595-.40892603-1.82752698-.60503317a7.535 7.535 0 0 1-1.32334865-.47475186 1.221 1.221 0 0 0-1.3022887-.14605523 2.11 2.11 0 0 1-.42865193.11237228l.02961256.03587612a1.071 1.071 0 0 0-.887649-.65666067 4.808 4.808 0 0 1-1.59448612-.70490286c.02081342-.3025505.03770601-.58486174.05623289-.85648051 1.09471006-.06659497 1.09471006-.06659497 2.51390495.72317832.3262464.06937785.31912547-.10937979.39592961-.24569238.12160656-.21582828.4307968-.21398625.81740428-.11315143q1.4123623.35957994 2.82743864.70387479a2.338 2.338 0 0 0 1.3552992.03947245 2.631 2.631 0 0 1 2.08311079.33141132 2.7 2.7 0 0 0 1.94770199.4514299l.31346022.5511086a8.1 8.1 0 0 1 .9693585.3560254c.46826553.24042337.90482981.53226687 1.4595097.85712103.0884028.27182888.19047105.58533817.290243.8966733a2.243 2.243 0 0 0 1.74411462 1.48194102 2.811 2.811 0 0 1 .86216502.28066257 1.1 1.1 0 0 0 .96536934.14452344c.3098181-.1225469.70495854.02860877 1.06738154.06299728 1.00510522.0924364 2.03829373.36126817 3.0479549.53858238a1.569 1.569 0 0 0 1.1250213-.11976665 3.157 3.157 0 0 1 .82059964-.34006065 1.875 1.875 0 0 1 .55206609.06544489c-.12288681.79119456.10511918 1.03102423 1.11992998 1.0529567a16.679 16.679 0 0 1 3.63911436.62667032c.39506472.0992616.81165119.24938395 1.11153169.02510581-.10835384-.11783228-.22815253-.32706486-.34868659-.36672014a10.392 10.392 0 0 0-1.92191252-.47360878 3.536 3.536 0 0 1-2.07501983-.75574908c-.5714551-.46397854-1.29649644-.7855202-1.86862332-1.2740863a2.712 2.712 0 0 0-1.54970084-.63767728 5.446 5.446 0 0 1-1.98660965-.66376735 1.661 1.661 0 0 0-.57380033-.222329 9.323 9.323 0 0 1-1.88501533-.3184811 3.1 3.1 0 0 0-.83065199.0540118c.01781329.5864765.10907417 1.12665559-.2153964 1.5480056-1.1373771-.8073155-1.1268044-.6004672-.77521278-1.65023305a5.762 5.762 0 0 0-1.5084283-1.01013073c-.17867453-.12083215-.4855587-.08739413-.66976145-.3123149-.13899973-.17515443-.31062166-.34897017-.48369954-.54332564a1.813 1.813 0 0 1 1.13055677.21382795 1.263 1.263 0 0 0 .5530774.21707925 2.33 2.33 0 0 1 1.27194803.50926239 2.635 2.635 0 0 0 1.43071072.50716156 5.33 5.33 0 0 1 2.18162226.4656182.653.653 0 0 0 .29350205.06624608c1.2972198-.03946918 2.75146272.57576289 4.08630768.70169125.38217855.03698041.76544663.08108915 1.1487147.12519788.52373115.05995573 1.04619444.12263038 1.7077308.1994005.28617838-.18542905.6554684-.42368288 1.08841984-.70617721a4.8 4.8 0 0 0-2.61895844-.91670807 14.33 14.33 0 0 1-3.22807074-.63029542 4.8 4.8 0 0 1-.73797394-.33639925c.10496564-.10442326.14015045-.22483517.24079705-.22534814a14.159 14.159 0 0 1 3.15766231-.08001061c.52535804.25049536.40224172.67305468.99410226.88504786a2.2 2.2 0 0 0 1.22227957.06681799c.12041692-.35761539-.73439013-.68008539-.6119725-1.0135969.11716788-.31278856-.35812824-.63041665-.43470749-.96072805a1.212 1.212 0 0 1 .57397655-.8191776 2 2 0 0 0 1.10782136-1.28964406c.02211544-.1893988.3305533-.28059136.52074855-.42581798a2.2 2.2 0 0 0-1.26379603-.93136492 3.794 3.794 0 0 1-1.06325534-.6160723 3.568 3.568 0 0 0-1.70413471-.70638084c-.54518694-.09202829-1.08928435-.17692826-1.31525071.14912267l-2.01326113-1.72109403c-.5633888-.15237472-.9498376.08008459-1.3846283-.34333723l.02084996.02627316c-.1324626-.13238451-.25352915-.33889817-.39925661-.38368106a13.163 13.163 0 0 0-2.32947983-.76848144 19.18 19.18 0 0 1-3.47511157-1.09195312l.33490163-.28518397a1.079 1.079 0 0 1 .32412355.0408035 2.583 2.583 0 0 0 2.85034813.13418088c.35893944.10338029.7020539.21703531 1.04914538.29613339a4.2 4.2 0 0 0 1.67827704.08746534c.35641598-.05447608.3133506-.43536238-.09462469-.6796699a2.46 2.46 0 0 0-.70588186-.29164326 6.667 6.667 0 0 0-.9383438-.07233882c-.02990078-.19379356-.12449631-.36479264-.05328883-.42758192.27232485-.25036809.51160487-.49849118.1084641-.94246249.7828547-.2969756 1.90028103-.15436978 2.11087445-.78108775a28.645 28.645 0 0 0 3.94471854.34989228l.12843954-1.01369438c.42948978.06566227.81590428.1266855 1.2004451.18462825.49189798.07379951.84572207.039079.7608395-.38227116-.0408986-.20333545.16666302-.25329713.39477414-.27160888.25855915-.01735413.53476564-.01103187.85404254-.01662352.33490163-.28518397.58303223-.63510425-.11813963-1.34383482l-1.29602014-.60434412-.0095614-.05521394.04116003.06553512c-.09442946-.01755212-1.68071-.55312196-1.7675372-.60354056a21.865 21.865 0 0 1-2.45567387-1.35915484 4.405 4.405 0 0 0-1.43989105-.49930527l.02732113.0502549-.04837871-.1659985-.29776979.00679356.03986778-.01451069-.84649147-.39472545c.08901126-.32812497.46122532-.27924041.78228304-.1869044a4.119 4.119 0 0 1 1.76885625.97930413 12.135 12.135 0 0 0 1.58839625-.07471494 5.524 5.524 0 0 0 1.11834014-.44617186c-.01891019-.41375767-.63687532-.64785402-.98652928-1.01723201.60461492-.17265514 1.20349152-.3424692 1.79638551-.51838314.26319331-.07698235.58868245-.11719203.7552575-.25908902.33924995-.28977658.89884258-.30909224 1.42579836-.37672806l-.02820792.01553426a1.547 1.547 0 0 1 1.13028557.3185224c.50152285.34420173.9779842.72085221 1.48126835 1.09676984 1.1802962.28226032 2.40377516.52397131 3.6286783.88330447a10.344 10.344 0 0 0 2.20779293.0971564c.08747948.0087944.11395788-.13553819.18697798-.19748223.4297293-.3513029.83788556-.72259587 1.30822039-1.0450337s.52451306-.56639831.02986699-1.1501365c-.14238068-.16790396-.32668604-.33108342-.53964146-.54403409l1.1262356-.71392111c.26125605.11410205.17520312.43588286.66796098.5575286.72022648.17806407 1.44398534.45266583 2.16966919.6994774a.659.659 0 0 1 .14121544.10888158c.1810294.32164165-.29007481.28843301-.38589678.46552946-.14865412.27383197-.02781722.52106353.44183343.74668549.33624019.15679138.68739416.28633245 1.02152126.44765536a3.617 3.617 0 0 1 1.50456854 1.0326052 6.265 6.265 0 0 0 4.15368969.36789392 16.52 16.52 0 0 0 2.84557193 1.3511863l.02700338.6117261a1.809 1.809 0 0 0-.2791428-.13016643.8.8 0 0 0-.23983692-.0015c.06961225.05894179.16249778.16735432.20460568.16933551a.971.971 0 0 0 .28911469-.06158488 8.358 8.358 0 0 0 2.97491013 1.336468c1.08872732.3366583 2.16140003.72430926 3.24119618 1.09431774a24.444 24.444 0 0 0 2.94160902.67435997.8.8 0 0 0 .38269892-.04222015.172.172 0 0 0 .12283774-.1380177 1.637 1.637 0 0 0-.0345373-.3471184 6.666 6.666 0 0 0-2.2700128-.9007413 2.084 2.084 0 0 1-1.62372236-1.10361484l.0232684.0329178c.17726753-.14353127.45626378-.10060004.76572271-.00705235a8 8 0 0 0 1.90455589.41144973 2.49 2.49 0 0 1 .73122432.18760597 29 29 0 0 1 3.4640648 1.32623492c.15304875.08350497.50122487.15317841.53262564.10713505.23248885-.33293984.75922225-.13035176 1.21620173-.05738772l.24351096.16871992-.1598448-.18487465a1.173 1.173 0 0 0 .93954833-.55492154l.0593131-.0396479-.10639467-.02975185c.00099916-.09442458-.0523337-.26162986.01460117-.26793247a2.241 2.241 0 0 1 .68876713.02547211c.32201534.06188799.65764482.19632702.97639647.253383.29083933.0506605.55972453.01826069.84699481.052913a3.2 3.2 0 0 1 .88297594.1745122 20.528 20.528 0 0 0 2.83465731.80433816c.89453805.25383002 1.79087408.45884643 2.68541701.72922939a8.821 8.821 0 0 0 2.32790675.35067105 3.75 3.75 0 0 1 1.3096344.26754201 7.23 7.23 0 0 0 1.4811855.40601664 2.188 2.188 0 0 1 .76662889.40272342 1.614 1.614 0 0 0 .23824419-.07316902c.81156834-.44136926 1.41988658-.34748681 2.49275214.48932888.27197781.21178544.56069916.25042454.79370086.42748444l-.0156564-.03267839c.06003857.16702206.15799065.24800596.33442757.15594614l-.03859992.01179176a11.362 11.362 0 0 0 4.07455245.99191499c.36385942-.01128355.81451665.33788699 1.12069488.16399078l-.02127258-.02536686 1.28010231.70946606c.5198421-.01688746.9178848-.26711138 1.57324795-.02329969a.245.245 0 0 0 .14173092.01312808c.72030483-.3757951 1.6764449.02040833 2.61873143.35167272a4.415 4.415 0 0 0 .74796048.19430679 6.2 6.2 0 0 0 1.29921311.16448185c.45549914-.0303404.57146974.51363737 1.00375665.43606146a2.954 2.954 0 0 1 .69143963.07416356l-.02899696.00302916a3.1 3.1 0 0 1 .43019572.20612045 8.72 8.72 0 0 0 2.52287016 1.2150519 1.824 1.824 0 0 1 .44813128.38771428c.35861706-.17040777.71946935-.3408766 1.16736386-.55130357.12483107.06593333.38555212.2095771.6517672.34143889.28524755.14073676.57731806.26920783.87368071.407404a5.29 5.29 0 0 0 .50190379.81662512.791.791 0 0 0 .84182803.35503601.644.644 0 0 1 .74054382.44683202 2.018 2.018 0 0 0 1.54028822 1.29200472c.24674536.07423426.49795143.1152405.74348513.17787598s.48406122.13083095.79375955.21676663c.16857563.29156004.34754814.60341552.51201484.89195617.61394907.13622975 1.15267946.25393513 1.690142.37435944a2.88 2.88 0 0 0 .59183614.12922846 17.264 17.264 0 0 1 3.63528151.53550941 5.444 5.444 0 0 1 1.46745898.36210101 2.593 2.593 0 0 0 .73345467.17099195c.92313931.13807178 1.8380559.25355182 2.7600495.398813a17.483 17.483 0 0 1 2.5845922.33023644 1.523 1.523 0 0 0 .90265828-.07119008 2.991 2.991 0 0 1 2.07575533.17681864 3.468 3.468 0 0 0 2.50712617.06571421 1.189 1.189 0 0 1 1.05855298.03460615c.06525416.03042852.16558564-.01436652.24985762-.02472185l-.04114052.00067666a2.044 2.044 0 0 0 .25505119-.03112707 3.909 3.909 0 0 1 2.13678092.00335718c.50999474.39228736.06065892.63183344.22502788.99866834a1.836 1.836 0 0 0 .98900406.60020578c.45104819.03599351.96965172.12114265 1.22293922-.15465337a.884.884 0 0 1 .5792701-.28157088c.35267837-.02753113.50029666-.12640903.50637951-.39500352.00364238-.1450508.21741626-.22963051.33107854-.34323898.19628535-.18431512.49417728-.1866382.8729675.03743983a1.643 1.643 0 0 0 1.50296142.08957105c.02887483-.00749963-.03930587-.12866642-.07963531-.24567299a6.971 6.971 0 0 1 2.68116154.6389748 3.75 3.75 0 0 0 1.021514.21814936l-.0145058-.02331483a1.241 1.241 0 0 0 .99630094.55616313c.41002005.00803475.83883804.04910944 1.25961652.0742981l-.03944516.01360437a7 7 0 0 0 .8700262.30639587 6.025 6.025 0 0 1 2.39322422 1.00564099 1.376 1.376 0 0 0 .97288362.2230571l.05541667.06335607-.08302365-.05857537.71665507-.05089715-.02367639.01764735c.71246055.27043664 1.40267137.47974268 1.832579.11859255.21386675-.17942692.52420996.04473171.8487097.1320525l.36361527-.42957762 3.13009426.4665468c.15313923-.22429529.81841808-.15791719.9781629-.51705447.01944045-.04169016.16206791-.06124536.2374698-.03601529.57294532.19103572.55503667-.10419348.64135342-.35082158a6.444 6.444 0 0 1 1.51807306.11868529 13.435 13.435 0 0 0 3.25964259.34489882c.56124154.04103564 1.12882725.08502962 1.70041437.17723136.3910071.06537155.74940666.18174062 1.01148605.01486523a.522.522 0 0 1 .37467404-.00844735 4.292 4.292 0 0 0 2.21838768.17381638c.20883924-.01957472.43073322-.01982138.64579936-.0243553l-.05581977.00376202c.42272538.27656329.73942989.35693898.94450474.06859144.05169133-.0729932.30180788-.03911528.46521936-.0511855l-.0242358-.03557564a3.073 3.073 0 0 0 2.20657864.69131087c.1503665.00170762.30791263-.02854493.46183841-.04393502a4.344 4.344 0 0 1 2.0233409.25609491c.3231195.11867514.66016588.14123034.81529607-.09206695.0731276-.10713241.34721124-.1293845.56233845-.13168319a.587.587 0 0 1 .57045355.34545007l-.09442946-.01755211.10711289.00691582.65178448-.21465553a2.422 2.422 0 0 0 .45408698.50744952 1.167 1.167 0 0 0 .84491588.17331517c.24755644-.04344896.5211002-.05271227.77246508-.08776506a3.282 3.282 0 0 1 1.51046593.13499883 3.392 3.392 0 0 0 1.43238417.24092445 1.6 1.6 0 0 1 1.25740319.353524.415.415 0 0 0 .25169463.0588881c.3314914-.37725118 1.10988752.3906606 1.55836834.11982124.26534307-.16204338.85571837-.06990759 1.29889562-.09275325a.428.428 0 0 0 .50152285.34420173c.5294109-.14152067 1.22792503.15882413 1.79578193.09812367a12.684 12.684 0 0 1 1.7497288.033617 1 1 0 0 1 .27576186.13741688l.0143739-.01426152c.0983747.08007759.21041971.21838852.29355086.23177552.38665879.06996416.76502402.08199545 1.15337328.14833438a6.507 6.507 0 0 1 .71836255.2080895l-.01112486-.0305653.35074112.16355327-.02494912.00381333 1.48427323.63364894a.79.79 0 0 0 .23645597.00875046 2.326 2.326 0 0 1 1.49168026-.06133532 7.291 7.291 0 0 0 2.53676802.200908l-.03806493-.01774996c.4295581.29740349.84224339.1246237 1.27286661.3463908.63352154-.2772372 1.51367342.15414854 2.28251076.26109312.01421021.04524455.04751884.11815227-.049053.00581403.5928353.03480388 1.1870606.0713593 1.8243001.11031852.13312475-.28548695.71546792-.38908436.5536567-.89154543a2.122 2.122 0 0 0-1.1073005-.4269691c-1.01793032-.15248234-2.0665163-.39539273-3.07471175-.51906133a14.95 14.95 0 0 1-2.00269117-.49913933 18.336 18.336 0 0 1-2.04187979-.63988823 6.187 6.187 0 0 0-1.33219923-.37295468c-.86828204-.1279387-1.72380005-.19806668-2.58337079-.28553177-1.91699753-.1954724-3.7812216-.27696253-5.63770662-.33718984-.41286112-.01377307-.86646454-.11054052-1.24816429-.16274495l-1.47251312-.90731973a15.467 15.467 0 0 0-5.33859327-.29480825l-2.49892747-1.35394664c-.15095506-.56360143.62435596-.62907521.47795197-1.12435177l-.04905789-.01073891 1.94393735 1.00136337a1.773 1.773 0 0 0 .3974515-.20636448.827.827 0 0 1 .97975552-.0330323 1.7 1.7 0 0 0 1.09110185.19432644c.49755571.00251144.99190882.0024261 1.4773161-.01396791.29366088-.00981295.5667112-.05351108.92409944-.08877636a2.289 2.289 0 0 0 .06471666.25637034 2.842 2.842 0 0 0 .13503735.25937023l.76375128.06816143.02406735-.33082437-.03975052.00242821c.1840269.0383679.50406106.14236379.52446888.10333148a.369.369 0 0 1 .45327128-.2101265 4.439 4.439 0 0 1 1.70843185.32330574l.00986189.04983717-.04043695-.0718182a9.572 9.572 0 0 1 1.01417319.11321552 1.712 1.712 0 0 1 .7002046.29671957 2.181 2.181 0 0 0 1.38819973.57229846c1.59445208.1796791 3.18957594.38394577 4.83234565.72738812.38919938.08107926.75274857.0420666 1.1460471.09305938.7740309.10053934 1.56976677.25864513 2.33128281.32686764.71487662.06412822 1.3893676.0255676 2.0950541.06444623.41848218.02301449.86307871.10123804 1.29921312.16448186.63610843.09580745 1.27469638.20049476 2.01828412.31662944.10696384.11608073.25677332.2775184.40924064.4379887a1.448 1.448 0 0 0 .82407806.39310093q.87505857.16309661 1.75126285.31900383c.8752369.15324937.8729406.15107521 1.35975965.82495072a7.965 7.965 0 0 0 3.84551564.53423919c.28224767.21105746.53210278.3827357.75815937.56759084a3.541 3.541 0 0 0 2.10730002.82376371 3.677 3.677 0 0 1 1.75099653.44025122c.17533752.27705912-.2962529.43892166.20526995.7831234a2.208 2.208 0 0 0 1.15230077.40381794c.32345176.01621593.60633956-.06040975.93196548-.04649013a1.176 1.176 0 0 1 .52588816.2044007.227.227 0 0 1-.14269842.39356722 7.61 7.61 0 0 1-1.38955569-.04882625 21.391 21.391 0 0 0-3.04991167-.41370975.986.986 0 0 1-.43088954-.1005197 2.349 2.349 0 0 0-1.41672777-.20824606 4.479 4.479 0 0 1-1.8414222-.19664252 2.965 2.965 0 0 0-.9622596-.04707946 2.457 2.457 0 0 0 1.01015437 1.03045532 9.668 9.668 0 0 1 2.46865314.50788254 4.928 4.928 0 0 0 .87166786.13724118 4.294 4.294 0 0 1 1.33110972.36582636 1.455 1.455 0 0 0 1.455914.13604191 1.338 1.338 0 0 1 1.06404702.02282415c.08400317.30729215.16830681.60920753.26585329.95370962.35271254.08833948.64554769.14655092.93301583.23756778.46388792.1456983.97284933.51653963.96078387.77903425-.03836804.59338006.56969115 1.03801589 1.1807233 1.5259664a5.918 5.918 0 0 1 2.04889573.66743413c-.07368463.26686247-.39973805.2372962-.7626032.13760222a5.955 5.955 0 0 1-.74502166-.26686272 3.459 3.459 0 0 0-2.1310132-.31623373 7.048 7.048 0 0 1-1.98065895-.1512319c-.57392986-.0469523-.8368496.13828865-.78581066.51627281a1.213 1.213 0 0 0 .86304917.82062667 4.656 4.656 0 0 0 .73272182.14416915 1.753 1.753 0 0 0 .413401.00078429c.21276495-.02326102.41344254-.06319225.68957332-.10876406a5.761 5.761 0 0 1 .66780718.2407874 20.453 20.453 0 0 0 3.38273162 1.26403434 3.067 3.067 0 0 1 1.5637351.90572212c.3070575.34951493.88327878.38208845 1.03977944.08433093a7.233 7.233 0 0 0 .32536725-.86338644c.64047628.15742662 1.27454733.30965967 1.91025266.47258521a3.248 3.248 0 0 1 .59143304.19634654 16.59 16.59 0 0 0 4.16576703 1.17016453 3.563 3.563 0 0 1 1.8496692.71135214 2.553 2.553 0 0 0 .71077983.30716776c.34710612.1287569.69511367.24138348 1.04511704.361561l-.01595687-.02730162c.08217841.06038799.19306796.17278242.24182049.17234516a2.176 2.176 0 0 1 1.70567125.79536757 1.608 1.608 0 0 1-1.04965847.01257316 4.975 4.975 0 0 0-2.37154393-.21213298 3.144 3.144 0 0 1-1.96118673-.29000449 1.483 1.483 0 0 0-1.33513079-.07089275c-.0996035.0550649-.06971249.21575257-.11648145.38703498l.96189554.2466211c-.00560642.04041742.01592509.12438404-.0315547.13865533a3.449 3.449 0 0 1-1.38067582-.05130577c-.83239127-.10789243-1.01274415.02095958-1.01746153.61789404-.00386476.41527468-.15927828.50720748-.68350287.41281693-.68202965-.12273775-1.3654493-.24722705-2.04790157-.3690585-.5089395-.0916765-.70979055-.02534509-.79374016.2587983a.468.468 0 0 0-.04015124.28249934c.1312313.4639271-.14042665.7223298-.4530419.98811489-.44283047.37939843-.40578423.4253612.1919683 1.36060765a6.338 6.338 0 0 0 1.85795312.32682596c.31674118-.0001538.65324768.03539019.98129206.05595444l-.02423579-.03557565a1.616 1.616 0 0 1-1.78672874.28234978c-.7605364-.22885886-.98618277.15802706-1.04435517.58328577a2.14 2.14 0 0 0 1.4830005.61981493l-.02339055-.03738827c.03146422.16914492.11899738.3600217.0885322.50580535a2.345 2.345 0 0 1-.24015956.54341825 2.283 2.283 0 0 0 1.64057829.90183307.694.694 0 0 1 .2874535.04135803 1.765 1.765 0 0 0 1.8139838.1584701 5.3 5.3 0 0 1 .981573-.01563412c.01160117.21174138-.0564355.37420988.03275398.44559081a3.009 3.009 0 0 0 .66807586.33249308.574.574 0 0 0 .28757564.04582849 3.557 3.557 0 0 1 2.15236386.6064477 11.591 11.591 0 0 1 3.20863544-.13016778.4.4 0 0 0 .1355651.0003225c.25322392-.08163115.58421198-.11706988.72142363-.26934911.10200243-.11463204-.05291263-.38106463-.10391253-.62662524.3338096-.09591219.7053739-.20180353 1.07101666-.3115595.31774035-.09457838.89819507.15843805 1.11400883-.17896737-.82497461-.36041767-1.59062899-.1216241-2.43953152-.70284134a3.24 3.24 0 0 0 .58546031-.18600058 2.693 2.693 0 0 0 .44083465-.38694937 4.034 4.034 0 0 0-2.43095452-.91289712 30.276 30.276 0 0 1-4.62440045-.91067968c.04886741-.22547278.3670743-.17198097.57603081-.20363817.2932285-.04201253.60688432-.0568456.9186054-.07699436.26079438-.0174152.52757137-.02873053.75767832-.03949133.08310925-.26577783-.27225626-.33659699-.44888366-.48074886.04928752-.02997899.08479234-.0895559.15021995-.08552757.46868577.026564.94722367.0698593 1.41826682.1008327a2.323 2.323 0 0 0 .40651208-.0057382c.18908369-.02216662.30546978-.1179543.18441787-.27480911a1.056 1.056 0 0 0-.45686948-.31455251 17.442 17.442 0 0 1-3.1106368-.24562508c-1.00825165-.10935088-1.97671861-.10525936-2.96507792-.15788904-.22491826-.01219737-.46458661-.0566505-.67198943-.08274784-.2787885-.36281396-.06912355-.45041307.22399744-.44723724.5086757.0165238 1.04333872.06723323 1.56778808.10435293.97948432.07166215 1.78353827-.03888762 2.24626359-.55796495.32599736-.36546918 1.00774368-.38409592 1.69442701-.2547746a5.7 5.7 0 0 0 1.40754506.0031493c1.20858696.95747928 2.3341335.77506501 3.48875511.8544687.14072212-.33490639-.48845096-.47161495-.7402188-.77879723a7.658 7.658 0 0 1 2.25322795.3191579c.26518176.11041574.28576791.0615362.9343449-.17226906l-.71632268-.4609152c.18078037-.11320538.34392316-.21698125.5094844-.3141125.1514878-.08824649.30170776-.17377406.49330275-.28414325.62367905.14849056 1.28150707.35152328 1.90462672.44679085a18.222 18.222 0 0 0 1.8508786.10064473l.59711742.83012939c1.2965918.4942729 2.48779285 1.29027545 3.83344254 1.79528725a4.983 4.983 0 0 1 .90527683.61412528c-.39845555.28423612-.74025586.52979171-1.05614455.7576389a6.115 6.115 0 0 0 2.2065735 1.49346422l.0201733-.01486736c.1873369.40512947-.26172773.53998111-.36825444.88200605.40189256.10354886.72868373.17649087 1.05336668.27051737a3.107 3.107 0 0 1 .59114232.2348292 2.035 2.035 0 0 1 .61977035.41478875 3.277 3.277 0 0 0 2.36845094 1.19600718 16.014 16.014 0 0 1 2.96909873.68166174 4.035 4.035 0 0 0 2.57569045.05355114.658.658 0 0 0 .30815453-.23255705c.152614-.16164766.28474447-.33615709.42509277-.50462772l-.02562578-.03732719.03556088.33545853a4.8 4.8 0 0 0 1.12931331.2993116c.39640341.1318838.79136551.29288672 1.18890975.40102819a10.831 10.831 0 0 0 1.17255229.24444456 13.055 13.055 0 0 0 1.59047018.1976831q2.08599102.06022006 4.1317845.0410099c.43430227-.0038132.94183713.03645293 1.14431032-.26524494.04257207-.06290167.2097871-.08312865.33985817-.07102415.95593008.09377996 1.912466.19335932 2.87716355.31329518a2.625 2.625 0 0 1 .55392751.23181957Zm-38.88326895 4.3850671.10426694-.01537544-.09695053.03754457-.08312627.00316594ZM71.62631783 64.92521154c-.36252312-.1690473-.43727036-.02294854-.50240976.13094057a1.074 1.074 0 0 0-.1526603-.20028188.505.505 0 0 0-.22506969-.1159855c-.07116594-.00118726-.14920614.04076182-.15317828.09187173-.02282877.22878777.2209729.35902503.62711856.33987543.24859464-.00544998.4396644-.05317155.39338414-.27336042.12597678.05874394.28042041.16055339.20533127-.03334767Zm194.71278013 50.37712058a.787.787 0 0 0-.20574414.06735987c-.04384968.0325147-.04479753.09606863-.0671963.14410294.07522355.03507732.18519214.0973903.22022791.0861433a.141.141 0 0 0 .07916152-.1319032.719.719 0 0 0-.05370418-.19716963l.0982379.02594828Zm18.75831272 20.55328862c.4837461.08654889.9697885.17527194 1.45099402.25070574.03594695.00572856.03972611-.08519293.12678547-.27189234-.62225-.01431546-1.24501047-.32567762-1.56466368.04274989a.611.611 0 0 0-.11147586-.05198205c-.02295817-.00518868-.0416804.01366545-.06384952.02098187Zm-27.91060966-16.14080068c-.100351-.02141674-.26112414-.0765257-.277489-.05326216-.27090068.36799024-.32231118.77874803.34793634 1.3053449.49797583.19800522.83421852.1583965 1.03061625-.05455404-.08636292-.5246546-.80523357-.81683775-1.13236662-1.22977959l.24028882.09991136Zm10.50970184-4.19769986-.24039382-.2511231-.23491455.09678921a1.9 1.9 0 0 0 .23122575.09568518 2.248 2.248 0 0 0 .27603792.0492754c-.10918206.14659221-.05475966.3209258.21580863.46474792a2.339 2.339 0 0 0 .70980269.27140402 10.965 10.965 0 0 1 2.04453526.4259678c.21943886.0736382.48615966.07664059.53600421-.11306846-1.57287626-1.17479541-1.80693331-1.24311302-3.26866636-1.03540774a1.676 1.676 0 0 1-.26412402-.006205Zm36.32041018 21.46033488a6.747 6.747 0 0 0 .84362851.1098223c.68851798-.00002176 1.34917005-.0538626 2.04433754-.03974987.77527435.0150557 1.42232205-.0782303 1.6326638-.53404204.65593244-.07921258 1.42600097.10554257 1.82545081-.28967108a3.139 3.139 0 0 0-.5836059-.69583702 1.669 1.669 0 0 0-1.14095365-.23412339 3.537 3.537 0 0 0-.8316414.18154226 2.89 2.89 0 0 0-.64056437.36332667 3.737 3.737 0 0 1-2.2241434.79447225c-.41188886.00543772-.7562688.10745466-.91108875.36848106l-.06300916.0026163Zm-272.6769582-5.44876935c-.42217086-.23989324-.54399704-.76894748-1.26997411-.78087628a1.726 1.726 0 0 1 .04710585.56151762 1.876 1.876 0 0 1-.2931529.50325975 1.792 1.792 0 0 0 1.22898013.86878813c.4996419.11161528.99148858.21628545 1.49258644.34844044.54616895.14434498 1.23920132.29317757 1.47445526.73278828a1.7 1.7 0 0 0 1.16950585.771542c.49295085.16145733.9811967.34720175 1.47161671.53064986.4217849.16027006.80547072.18691954.81657856-.04512704.02179307-.46318685.41884636-.5858803.96048628-.64004852.19814677-.01794044.3096862-.16012326.505715-.1900851.15766827-.0257821.50262463.18803584.4792073-.1450702a7.123 7.123 0 0 1-2.6030674-1.31754777 7.8 7.8 0 0 0-1.36270821-.78550068 2.7 2.7 0 0 0-.99980166-.34043009 2.331 2.331 0 0 1-1.37448547-.36508862c-.45927328-.2715383-.97841181-.3271457-1.25718831-.03454758a2.777 2.777 0 0 1-.52059461.33320602Zm245.15940254-9.8312732a4.819 4.819 0 0 0 2.68131797.34996273 7.208 7.208 0 0 1 .74696144-.12062178 1.945 1.945 0 0 1 .70031462.0551311c.52478887.16416649 1.04463824.37678502 1.59106612.57972977-.13920748.14472829-.13975474.33756423.11416049.34673243.78772326.02858437 1.55114478.00280491 2.30193418-.04320891.34120173-.021849.78866624-.0515225.90690161-.22699443.17119456-.25118404.49627085-.25738152.83723317-.27161851.57716914-.0309804 1.16757623-.03592705 1.84889993-.05364748l-.54625192-.42574503.02562578.03732719c.51826401-.04189765.235501-.56655475.65163806-.71124387a13.156 13.156 0 0 0 4.1478221-.27259463 1.369 1.369 0 0 1 .2900185.13523785 2.767 2.767 0 0 0 2.32132305.76467788 10.02 10.02 0 0 0 1.13274082-.16471562c.2164415-.0524412.52151794-.07017152.47606827-.34183184a2.05 2.05 0 0 0-1.08184316-.75604191 2.615 2.615 0 0 0-1.5296059-.09868544 1.981 1.981 0 0 1-1.30455334.16404132c-.0748351-.15185423-.15952231-.32043975-.23834906-.48739586-.09218685-.19746034-.17676168-.39468127-.28104076-.62536477.7343855-.15517385 1.49106228-.31319365 2.31539702-.48379914a2.452 2.452 0 0 0-.40476529-.4215579 2.51 2.51 0 0 0-1.30700583-.36782706c-.50897618-.01114702-1.01172546-.00725323-1.49815631.02080064a19.016 19.016 0 0 1-2.4794435-.01860085 11.8 11.8 0 0 0-2.32460651-.01701538 9.122 9.122 0 0 1-2.73946835-.05489233 8.214 8.214 0 0 0-1.78379232-.0031592c-.67352847.02466553-1.34046851.06123033-1.9948375.11579426-1.1314925.0957849-2.2583313.19815338-3.37350537.31809836a4.144 4.144 0 0 0-.84797208.3206764c1.29215563.2009125 2.27467875.74403065 3.35181229.68910042-.10269624.2202328-.25248381.33795995-.20779628.4834798.15450457.51339783-.18156717.72300647-.695285.81667604-.39888056.07218938-.8482847.07999423-1.34866684.12140331l-.47169804.61640405-.06891606.0484105ZM124.72635766 76.81305659c-.36283586-.00037632-.63130332.01456424-.91228564-.00281204a7.658 7.658 0 0 1-1.13137272-.11269767c-1.56821796-.3329526-3.15296195-.77953572-4.69527568-.9503496a6.47 6.47 0 0 1-1.03138076-.28453948 12.818 12.818 0 0 0-3.47447658-.5774829c-.33063627-.0008087-.77570185-.03070234-.81117013.35769823a3.336 3.336 0 0 0 1.64934089.91143604 2.216 2.216 0 0 1 .85793883.28972565 3.9 3.9 0 0 0 3.0325036.79177451 4.462 4.462 0 0 1 1.72406386.2732194c.6335458.21488068 1.25527783.52134975 1.88659817.76939738a2.446 2.446 0 0 0 .7058477.17577266c.22812087.01479414.40793387-.10106908.63521438-.06790938a6.119 6.119 0 0 1 .70484854.27019724 1.833 1.833 0 0 0 1.4393782-.01069447c.07875605-.27773816.15594377-.54738062.23270886-.81611678-.24880951-.31352643-.49882582-.6220987-.81248152-1.01661879Zm72.4792774 12.59402864c-.89385638-.6054897-.89827065-.61968527-1.1513504-.66377197-.88466153-.15433401-1.77621685-.33174346-2.64298187-.4369072a6.057 6.057 0 0 1-1.91967728-.47366986 1.742 1.742 0 0 0-1.12589332-.1741385 3.121 3.121 0 0 1-.81405262.0065833c-1.16930086-.07631833-2.31351095-.08576774-3.51545841-.2435121-.28914397-.0377328-.56407774-.03022103-.8440316-.04270423s-.43609537.06917974-.32149023.28481754a.991.991 0 0 0 .41429253.36090123 32.035 32.035 0 0 0 3.86246416 1.05631652.733.733 0 0 0 .40397638-.00030035c.65377054-.24021048 1.68824154.0755612 2.31426833-.21399787.10383456-.04757503.36961239.03553423.56409237.07987986a26.6 26.6 0 0 0 4.06041808.58921135 2.614 2.614 0 0 0 .71542388-.12870772Zm59.62170707 27.41808308a18.348 18.348 0 0 0 2.35446824.07838538c1.2323736-.12046284 2.47350982-.23132272 3.69470725-.3514802-.01916186-.24285145-.0412161-.46057055-.06112058-.7633507-.56644975-.08428925-1.05853583-.1813474-1.5225728-.2178808-.52233627-.04165124-1.01776914-.01558833-1.53605267-.03990246a4.176 4.176 0 0 1-1.87117155-.28664794 2.727 2.727 0 0 0-1.69729723-.25963455c-.29196064.03929361-.59038757.07115843-.93635536.11505929a2.842 2.842 0 0 0-1.46160815-.80293065c-.54082885-.063515-1.1928013-.28147127-1.54645694.11964927a4.558 4.558 0 0 0 2.332404.64626667 5.05 5.05 0 0 1 .71298077.60058923 1.894 1.894 0 0 0 .7549201.64552355 6.459 6.459 0 0 1 .78315492.51635391ZM117.9067803 158.5478967a3.009 3.009 0 0 0 .62459499.59137222 3.485 3.485 0 0 0 1.16667467.38955643 19.806 19.806 0 0 1 2.65212065.49302745 10.3 10.3 0 0 0 1.45266984.19742168c.52124675.03452292.80163062-.13374735.66459506-.61362156a6.418 6.418 0 0 0-.83069341-.29136482c-1.18608583-.2485486-2.36707096-.40865522-3.55287583-.72879238a3.337 3.337 0 0 0-2.17708597-.03759902Zm163.47676265-42.65850441c-.88686735-.46430842-1.56263094-.84893497-2.26822208-1.1790609a1.441 1.441 0 0 0-1.43408203-.05745207 1.376 1.376 0 0 1-.22751755.18740536c-.72031946.32613626-.71743698.67725119.16671382 1.3532448a2.117 2.117 0 0 0 .28875552.15450971 4.263 4.263 0 0 0 3.47435232-.4586469Zm3.99614588 8.60176238a4.046 4.046 0 0 0-2.6886758-.71750846 13.8 13.8 0 0 1-2.19386857.00312376c-.96190292-.06677394-1.52210388.14314243-1.51299463.91865131.4680897.0538705.91057314.1366256 1.31020119.14091786.96750446.00980357 1.92062039-.01579017 2.87385845-.03691344a5.53 5.53 0 0 0 2.21147936-.30827103Zm-87.1273878-35.20616907c.20002759.62399917.37478618.78162351 1.0180596.79581195a16.282 16.282 0 0 1 3.1739293.38437327c.50858283.11137099.97340397.14385653 1.21902327-.11786118a1.344 1.344 0 0 0-1.03592682-.74566455 2.326 2.326 0 0 0-.86308847-.13434393 2.885 2.885 0 0 1-1.53017506-.18501433 2.746 2.746 0 0 0-1.98182181.00269877ZM305.88355092 120.658358a2.136 2.136 0 0 0 .45372556.10123792q2.65132936-.14178384 5.28579553-.31129192c.14516806-.0084401.2295329-.11364263.36139217-.18345761a1.644 1.644 0 0 0-1.17199525-.40417462 12.511 12.511 0 0 1-1.37475429-.04744113c-.57127688-.06447262-1.16335242-.18608907-1.76871233-.28631568-.5245521.43397476-1.70431093.33512575-1.78545139 1.13144304Zm-48.02361288.98238613a.808.808 0 0 0 .76998543.31270823c1.06767713.04106757 2.14242639.09536332 3.19221189.10381357a5.426 5.426 0 0 0 1.87071489-.23766951c.05805013-.02037603.04944634-.10603801.08083247-.2017402a2.748 2.748 0 0 0-1.91970657-.57298753 3.528 3.528 0 0 1-1.1691348.07712864 3.327 3.327 0 0 0-1.40781624.10154513 12.3 12.3 0 0 0-1.41708707.41720167ZM55.67435013 82.1284259c-.54504277-.21774615-.93191406-.39373368-1.32517592-.52525593-.47766576-.15874328-.963569.019616-.9687309.33829195-.00276298.2591088.04232514.53391065.03225063.78740326-.00869915.20558532.17299967.3388615.41674027.46686352a3.383 3.383 0 0 0 2.32056105.22918426c.36342705-.04348312.4674596-.44404676.18633811-.7285054-.23386157-.22490612-.50988723-.43747572-.66198325-.56798166Zm-.34110254-12.54999275a2.892 2.892 0 0 0-1.7318075-1.12974146c-.39174973-.12530024-.7880066-.16994886-1.1814468-.29162387-.31272261-.0983797-.64725768-.20913748-.79758026-.0618686s-.36552312.31062655-.02953948.6217712a7.653 7.653 0 0 0 3.74037404.86146273Zm215.12235601 49.266526a8.642 8.642 0 0 0 3.45983149.69643887c.18528012-.01400985.2837697-.15896779.41846516-.2395974-.77952231-.6945106-.77952231-.6945106-1.3076213-.81608549a2.708 2.708 0 0 0-2.57067535.35924402ZM33.15060087 95.16489365a2.43 2.43 0 0 0-.46946268.20698984c-.21399376.1584035-.05289337.50385344.29699275.63611343a6.357 6.357 0 0 0 2.47855658.49374316c.23276479-.01172818.25728891-.22758825.02277508-.41087016a2.5 2.5 0 0 0-.6389152-.39502831c-.54050635-.19908011-1.08812637-.34741186-1.68994653-.53094796Zm4.63425146 35.75553445c-.61865881-.53784875-1.33875339-.67833648-1.69025413-1.16443032a.752.752 0 0 0-.66938039-.24924466c-.24417549.0361985-.2320442.2018452-.21199556.37890749a1.029 1.029 0 0 0 .6653055.77144902 3.9 3.9 0 0 0 1.44779866.47761495c.17894573.01613772.29308195-.12924772.45761961-.2147191Zm247.0122183 6.05961287c-.5670019.09199374-1.11624894.1624755-1.62760452.2771074a.229.229 0 0 0-.14242235.30542573 1.026 1.026 0 0 0 .48151324.29956301 1.879 1.879 0 0 0 .69989688.07259036c.58923697-.08052198 1.15387661-.19347806 1.71682578-.30280891.04186361-.00695975-.00395987-.11218431-.00864772-.23463848Zm-225.67284345-8.21295473a6.409 6.409 0 0 0-3.06914675-.90485537.2.2 0 0 0-.18317442.18932547.423.423 0 0 0 .18192596.28895838 3.7 3.7 0 0 0 3.07432091.42288522Zm-22.3604015-1.94405702c-.04372016-.142862-.085999-.3148431-.15069126-.48844872a1.314 1.314 0 0 0-.17208847-.32188593 1.3 1.3 0 0 0-.89557376-.4882291c-.30127288.00957355-.53875493.20888305-.41688957.4610077a1.85 1.85 0 0 0 .52960362.7169972 1.03 1.03 0 0 0 1.10563943.12055885Zm72.94599243-52.04820277c.5866377.11908074 1.16748087.25532025 1.73900692.34528676.2291542.03624017.4631771-.01131283.41242636-.23137955a.721.721 0 0 0-.52619589-.42852991c-.24705072-.08541044-.49307787-.18248073-.73879478-.25182192-.68591869-.19958094-.90330315-.06703287-.88517475.5637257ZM40.80838694 135.5102606a3.669 3.669 0 0 0 1.63964019.99849289c.27943351.09168376.45020295.03780613.52784745-.11687203.0929809-.18283477-.04319241-.4019097-.35979919-.56057965a2.58 2.58 0 0 0-1.80768845-.32104121Zm85.68660603 23.89996511c-.15875542.23160682-.16539767.44697831.24088226.67835812a1.217 1.217 0 0 0 .94046178.08436021c.33267365-.0556169.51005844-.21123065.34205936-.59630897Zm-59.33021058-11.82052126a5 5 0 0 0 .69027202-.19781187c.20501128-.09418267.02616091-.40156768-.28639313-.54290052a1.7 1.7 0 0 0-1.13006332-.17939313c-.12782118.03749326-.16173326.1717392-.26542616.28999646.35873419.22686291.6587367.4164084.9916106.63010906Zm-33.18018315-12.2392762c-.00813.2919142.19601152.52613257.61601072.57192202.54517717.0589224 1.06176047.05375587 1.6416021.07146692a3.162 3.162 0 0 0-2.2571902-.64429525Zm21.63757009-50.301419c.01266878-.06029512.02847911-.1202287.03661636-.18263691.02266508-.1692817-.23746966-.37333787-.47760706-.3694611a1.341 1.341 0 0 0-.37635476.04517848c-.25817808.08042437-.23516134.28424838-.09620804.50682641a.781.781 0 0 0 .3485254.22982612.441.441 0 0 0 .56333762-.22610777Zm-18.7996355 38.86310063c.59684636.52547068.59684636.52547068 1.28826647.53342246-.26360591-.70771175-.32112592-.7334304-1.292798-.53553555Zm263.12642696 13.55944785c-.37472286-.15708209-.54843347-.24360157-.7279948-.29864457-.35555848-.11063074-.68034406-.14291593-.85983705.0337823-.03666029.03366041-.01476236.13103844.03382648.19010726.30089656.3532623.61977286.21838864.90722148.24319372.1901219.01583236.33508234-.08207817.64678389-.16843871ZM59.95297985 70.02351728c.19604581.23265004.28103838.41241172.42067085.47973017a1.781 1.781 0 0 0 .7021614.17184695c.23349277-.00145833.3400121-.16363611.21018782-.36319978a.627.627 0 0 0-.61581049-.30260444c-.16510194.01569544-.35630848.00928771-.71720958.0142271Zm-22.1446458 50.58907023c.29620384.2142552.5177289.39699723.76800174.55121623a.44.44 0 0 0 .5040269.02649317c.12200227-.1030992.03487708-.34454113-.18379226-.471886a1.071 1.071 0 0 0-1.08823637-.1058234Zm.85548612 16.14853614a2.012 2.012 0 0 0-.96447755-.6031128c-.2092277.13635164-.36214218.30337608.04306288.5772864a1.205 1.205 0 0 0 .55095454.1885049c.1526628.00388177.24989429-.10525135.36864751-.16352374Zm262.6674581.59258518c-.2420769-.42734503-.2420769-.42734503-.42942369-.45622724-.69102678-.10817576-.78121053-.06857917-.79611468.40113017ZM271.10490267 121.879696c-.01155724-.06276488.00648344-.13931247-.04439682-.1840025-.30141204-.2575088-1.00402784-.33136702-1.0751914-.11960123a.115.115 0 0 0 .03421981.08988328c.26523544.29249814.87017762.410184 1.0853684.21372045ZM118.59066204 79.30662776a2.274 2.274 0 0 0 .29151124-.33410507c.01817258-.03897123-.0493461-.16865634-.09683565-.18749095a.926.926 0 0 0-.40055876-.0874796c-.264532.04436014-.21603602.19827616.20588317.60907562ZM52.91608318 123.2218674c-.02451186.05256585-.07609081.09692362-.07057725.1513534a.331.331 0 0 0 .33399269.32014666.244.244 0 0 0 .2442024-.14983388c.02562828-.1590729-.18082668-.24872417-.38243987-.30853323a.722.722 0 0 0-.12517797-.01313295Zm58.45336665 33.87752003a2.169 2.169 0 0 0-.4303643-.16316732c-.16245385-.01837783-.43784928-.14238331-.4246749.07781532.36763846.30714811.61465013.260135.85630705.08263307Zm156.30977257-35.23928193a3.057 3.057 0 0 0-.47701837-.21692043 1.528 1.528 0 0 0-.37171572.0021032 2.525 2.525 0 0 0 .43674261.28199626c.09183757.03730767.20454711-.02929982.41199148-.06717903Zm-217.982997.72095234c.09074316.0136264.21490245.05497216.26165426.03043101s.0162183-.11049871.01813354-.17139479l-.36230573-.04647099Zm160.33673124-36.87353218c.0204127-.02247936.06426726-.03844112.05900287-.06737702s-.06242286-.05779608-.09722898-.08726698l-.07862164.11891442Zm69.23905451 62.9506771c-.02283115.01583473-.05424168.0287722-.06214929.05046252s.04761658.03985802.07414379.06105489c.02101853-.01667997.05242907-.02961744.05943036-.05173038s-.04489765-.03859016-.07142486-.05978703Zm-195.76627434 5.67533183.0817314-.02147043-.08724984-.04951229Zm88.35066436-67.2755952-.06354905.0156051.06549845.03936944Z" fill="#ea1c2d"/></svg>