<svg xmlns="http://www.w3.org/2000/svg" width="318.423" height="187.647"><path data-name="패스 208" d="M293.513008 63.925074c-.083738.198163-.168675.397075-.251738.592316a2.24721419 2.24721419 0 0 0 1.3978.166952c1.374816-.248748 2.757498-.491575 4.139055-.729532.219245-.038613.455794-.058865.670391-.08624a2.1742397 2.1742397 0 0 1 .454313.196261 1.1515973 1.1515973 0 0 0 .833726.272622 14.99475658 14.99475658 0 0 0 1.59814-.100717 22.14325687 22.14325687 0 0 1 2.91207-.148075c.052281.413234-.543192.539352-.724955.828754-.034179.054689.055109.165601.136164.23665a.5568053.5568053 0 0 0 .2895.079188c.374194-.038728.744119-.085624 1.101459-.144661a5.38511691 5.38511691 0 0 1 1.976848.111936c.279538.064575.551124.172456.550712.338569a.43684724.43684724 0 0 1-.243664.339739 1.1196085 1.1196085 0 0 1-.541287.064765c-1.069935-.098395-1.892694.172206-2.914018.147625a1.03563785 1.03563785 0 0 0-1.019869.502081c.252266.058275.484975.121266.726604.16785a3.37282058 3.37282058 0 0 1 .754113.119828 3.75668635 3.75668635 0 0 0 1.946363.399349c.002187.270337.000866.480357.001049.666101-.399841.136427-.779.263268-1.150743.397978a2.3801677 2.3801677 0 0 1-.654843.249884 1.94132115 1.94132115 0 0 0-1.70184 1.10479c-.205065.288123-.234964.635178.573876.95335.210751.082542.280153.328393.470488.570375a3.69170907 3.69170907 0 0 0 1.827648.202639c.463287-.060212.936237-.108958 1.422669-.136122a2.21922397 2.21922397 0 0 1 1.098314.179847 2.48413134 2.48413134 0 0 1-1.344172.253775 6.18883587 6.18883587 0 0 0-2.680339.561724c-.529718.263399-1.274672.397051-1.53845.88604a4.5704018 4.5704018 0 0 0 .883658.136416c.477068-.035483.895486-.150177 1.356076-.212038a2.12825578 2.12825578 0 0 1 1.167628.150716 2.86999641 2.86999641 0 0 0 2.369418-.010781 2.33518343 2.33518343 0 0 1 1.25494-.280544l.626088.674034a.780727.780727 0 0 1-.22405.08162c-.288923.020465-.592527.020097-.881675.041536a2.12325753 2.12325753 0 0 0-1.363099.455624 1.34053124 1.34053124 0 0 1-.99027.489425 10.2624114 10.2624114 0 0 0-2.23144.5105c-.55209.124854-.79229.387419-.638044.847805.313125-.023082.606838-.019869.851185-.064995 1.063257-.192473 2.098348-.414024 3.172991-.593607a6.55070933 6.55070933 0 0 1 1.046352.013947l-.035958-.030878c.061107.148519.195264.313913.167512.442931-.07335.317524.025414.605041.505175.92209.149232.100136.104235.281599.164282.47912l1.163569.208259c.046512.078459.131762.153555.104256.18824a4.4254525 4.4254525 0 0 1-.384166.401672l-1.989202-.151725-.414879-.295905c-.718345.089526-1.44201.179875-2.155861.276595-.039413.006285-.006916.101-.00723.164538.23503.070709.480025.142694.715129.217524.03409.007875.044644.055456.102545.133468-.178719.080806-.381717.173445-.58404.263162a4.48043327 4.48043327 0 0 0-.519371.231932c-.151074.094374-.514468.08635-.46012.3041a2.20922747 2.20922747 0 0 0 .341658.039938 33.8071782 33.8071782 0 0 0 4.585832-1.006961 1.19958053 1.19958053 0 0 0 .364863-.193754c1.141638.107777 2.282453.210234 3.424239.326253.308018.030115.476425.158278.510097.35894a18.02169811 18.02169811 0 0 1-4.435525.99141 14.60689221 14.60689221 0 0 0-3.034775.701458 17.34393511 17.34393511 0 0 0-3.382675 1.097144 3.09891636 3.09891636 0 0 1-1.43476.259524 16.49423224 16.49423224 0 0 0-5.294842.90063c-.415718.103006-.802296.235315-1.246479.306096a14.24701806 14.24701806 0 0 0-3.16141.738893 2.56010477 2.56010477 0 0 1-1.358832.139583 2.66306877 2.66306877 0 0 0-1.753634.192018 2.26820685 2.26820685 0 0 1-1.048419.181537 8.30309655 8.30309655 0 0 0-1.217454.18045c-.277691.051787-.45559.15125-.312756.381233.032956.052756-.091444.147136-.194996.16015-.372998.051316-.21058.15655-.008086.305925.0875.065356.077961.168828.13757.314949l-1.480567.044773c-.213234-.369363.685567-.26741.45981-.591445a5.55405784 5.55405784 0 0 0-2.645209.27641 4.6553721 4.6553721 0 0 1-1.17895.218072 10.6962597 10.6962597 0 0 0-2.625869.570203c-.14859.043649-.224814.147106-.347038.227625l.724397.652627c-.251542.387166-.901695.439094-1.429737.579763s-.538334.593825.037717.871559a2.69005933 2.69005933 0 0 0 .8951.233449 5.94092256 5.94092256 0 0 0 2.301487-.134201c.176392-.06185.388594-.101064.763925-.19801a2.30619356 2.30619356 0 0 1-1.630194 1.367575c-1.025387.383845-1.442794 1.000475-1.199163 1.806744.087449.292085-.009543.454355-.384344.5268-.6163.114125-1.268632.193251-1.899015.292837-.40432.062548-.806168.127719-1.197379.204581-.124909.025522-.301523.075009-.301162.135625.001088.49272-.730112.771134-.544651 1.362874l1.520521 1.20794a3.78767551 3.78767551 0 0 0 1.562939.167139c.469498-.02492.986858.022775 1.497332.0381.018732.665056-.651103.944308-1.499393 1.130011.002039.262095.003406.513775.007461.807115-.332365-.049077-.583136-.091617-.832261-.123517a1.43849698 1.43849698 0 0 0-.441539-.02505c-.926829.254768-1.855381.508112-2.74775.79136-.510664.163151-.458519.514795.040858.897934.068621.053813.144735.106279.211183.160616a1.47548405 1.47548405 0 0 1 .115808.12935c-.204458.254406-.446458.524763-.6489.810414-.102682.142488-.269059.316431-.176932.463908.364165.577619.391373 1.201542 1.380296 1.703925a3.48078283 3.48078283 0 0 0-.363639.748064c-.02745.118828.159904.289329.284013.489337l1.223288.198457c.038051.052907.128846.126206.104188.157445-.19314.236501-.405011.469701-.266168.788022a.80971686.80971686 0 0 0 .690162.623173c.5844.135.503814.643736 1.159864.690638a7.53836396 7.53836396 0 0 0 1.300297-.063845 5.82196416 5.82196416 0 0 1 1.917806.443025l1.994514-.146633-.518167-.457246.582164-.5837-.042785.007558c.073559.085733.186004.176345.209214.253525.038705.143344-.033555.278496.301341.401002a1.77038093 1.77038093 0 0 0 .89878.195312 4.05358253 4.05358253 0 0 0 1.103514-.286797 3.34882897 3.34882897 0 0 1 1.495773-.359313 5.25916096 5.25916096 0 0 1 1.705437-.107736 2.299196 2.299196 0 0 0 1.44016-.2829l-.408925-.450478a2.09926592 2.09926592 0 0 1 1.170876.034505c.652509.133292 1.133772.101856 1.2222-.294263.0225-.0974.159038-.191028.297965-.246143a.9076826.9076826 0 0 1 .867094.159265 4.05258288 4.05258288 0 0 1-.68529.701462 4.37546997 4.37546997 0 0 1-.839006.216575.14994757.14994757 0 0 0-.093481.20925.71375041.71375041 0 0 0 .376242.183356c.450755.025127.889979.015785 1.367038.020313l.611564.621432 1.616637-.056431c.059862-.312432-.510911-.404271-.808632-.57667-.396237-.23004-.548444-.428331-.310118-.687225a1.85535121 1.85535121 0 0 0 1.425533-.543799c.27834-.272222.844465-.169145 1.252135.197939.435762.392041.842825.792842 1.276938 1.18758.361374.327662-.38909.640613.536775 1.007364l-.889619.382377.522909.694316c.594549-.015526 1.10579-.079024 1.254126-.325875.170525-.29405.598866-.22075.969809-.12993.667788.160419 1.317878.388568 1.990826.59327a3.96661294 3.96661294 0 0 0 .485373.683593c.301439.298427.76811.183594 1.155164.26685.324244.1775.0434.25626.039551.379514a1.87034597 1.87034597 0 0 0 .150196.477918c-.40085-.0413-.746484-.059585-1.101775-.11601-.783558-.125604-1.570186-.260125-2.353439-.409256a9.02484416 9.02484416 0 0 1-1.395742-.322425 20.57580498 20.57580498 0 0 0-4.212269-.889956c-1.16208-.16585-2.297622-.393284-3.443505-.615925a4.49142942 4.49142942 0 0 0-.938424-.161379 28.5790064 28.5790064 0 0 1-3.561073-.249109 3.79867167 3.79867167 0 0 0-.604206-.022614 32.3286952 32.3286952 0 0 1-4.215528-.058642 6.08887082 6.08887082 0 0 0-1.447975.05025 5.09821724 5.09821724 0 0 1-2.380108-.09839 3.285851 3.285851 0 0 0-.768495-.137514 15.010751 15.010751 0 0 0-2.442883.173356c-.396457.081806-.526491.240547-.592179.471607-.083084.2886.36.440202.681692.637632-.17461.13408-.496371.243401-.489438.399925.012303.266518-.449986.220259-.583768.386342a2.4991261 2.4991261 0 0 1-.772162.50903c-.534366.274637-.587365.388589-.302032 1.005452a.37087031.37087031 0 0 1-.201448.530063c-.33257.196084-.6103.421252-.975625.670302l1.196914.863353c-.634365.147913-1.169971.272471-1.773464.4111-.039375.17045-.069839.364504-.12735.551284a4.72634728 4.72634728 0 0 1-.223243.491171l1.019899.36385 1.828254-.492833c1.038506.252213.7862.704865 1.077434 1.069675.285009.058657.54057.124875.795089.160073s.5014.050164.778324.0772l.02931.605941c-.46012.3041-1.272525.179014-1.88934.250955a.67676335.67676335 0 0 0-.156104.138355c-.247374.511246-.026019.752186.97173.989854a9.56965365 9.56965365 0 0 0 1.405201.241506 3.97261084 3.97261084 0 0 1 1.888929.576913 1.87234527 1.87234527 0 0 0 2.02013.226584c.275083-.116.54627-.2329.940498-.398325.069411.20584.200723.361343.127208.413101-.413285.27901-.427298.619475.022544 1.039392-1.711606-.114274-2.699818.219678-2.946684 1.137328l.817011.300566c-.028181.037607-.034188.0947-.093235.114917-.322356.08969-.682094.150225-.98235.25528-.358628.12235-.588475.326774-.365936.63365s-.017782.441166-.300885.569677a1.37851796 1.37851796 0 0 1-.48743.133635 4.7863263 4.7863263 0 0 0-2.625086 1.08645 2.16924145 2.16924145 0 0 1-1.238829.27298c-.903017-.012641-1.82229-.039297-2.689281.009735a6.5976929 6.5976929 0 0 0-1.579975.288563 8.1791399 8.1791399 0 0 1-2.500406.413484 2.45314218 2.45314218 0 0 0-.57043.048799 33.06343827 33.06343827 0 0 1-4.492244.655125 3.38681569 3.38681569 0 0 0-1.227375.316665 2.43314917 2.43314917 0 0 1-1.258235.272601c-.90699-.004325-1.691813.164234-2.6042.169948a12.5236207 12.5236207 0 0 0-1.988191.350211 3.89863671 3.89863671 0 0 1-1.14385.066128 5.61403686 5.61403686 0 0 0-2.010468.122428c-1.220915.244287-2.424002.509108-3.595625.797613a3.59274368 3.59274368 0 0 1-1.4491.05512 11.1560989 11.1560989 0 0 0-1.806925-.061397c-.904965-.013091-1.670986.176227-2.631158.10011a2.8560013 2.8560013 0 0 0-1.25846.273575 15.5045783 15.5045783 0 0 0-1.417256.721153l-2.7974-.326112c-.749175-.087908-1.436657.032345-1.573696.35465-.145885.342833-.494675.364858-.990394.374487-1.537059.031723-3.07262.065844-4.600691.111955-.443271.013537-.856357.07406-1.286072.1133-.71182.06128-1.42851.121435-2.143027.181066-.095159.007771-.193764.012694-.283455.027884-1.9269.346928-4.156707.259661-6.203752.438276-.902363.077796-1.871615.063192-2.795175.10839a14.0280946 14.0280946 0 0 0-3.579386.554104 1.9143306 1.9143306 0 0 1-1.148936.025966 3.32983561 3.32983561 0 0 0-1.2138-.0752c-.763593.05445-1.564263.056218-2.33632.098453-.675625.037836-1.344734.087437-1.996314.154425a18.36157926 18.36157926 0 0 1-3.649974-.081892 18.10167015 18.10167015 0 0 0-3.034077-.069915 25.3981187 25.3981187 0 0 1-3.573869.010585 1.63042987 1.63042987 0 0 0-.30435-.014904c-1.74316.262152-3.821718-.03128-5.594015.188232a4.04558533 4.04558533 0 0 1-.446492.009715q-5.162553.04372-10.242195.23484c-3.198808.114668-6.422407.185648-9.629978.284954q-1.925262.060033-3.858988.107851c-1.375517.034157-2.725574.135754-4.106112.173881-3.707035.10294-7.29865.394647-11.085378.367346a11.88584372 11.88584372 0 0 0-1.778745.238542c-.454521.062237-.912938.123574-1.374875.177942a4.85830113 4.85830113 0 0 0-.696609.057612 10.89618978 10.89618978 0 0 1-2.213555.277631c-1.04555.084732-2.05897.230237-3.12482.291812a16.05638535 16.05638535 0 0 1-1.975957-.075821 2.279203 2.279203 0 0 1-.555538-.202203c-.717213-.279564-.712568-.277465-1.245809-.007698a1.78037743 1.78037743 0 0 1-.979425.242618 4.4474448 4.4474448 0 0 0-.901925.129196 1.03563785 1.03563785 0 0 1-.213306-.049275 3.3098426 3.3098426 0 0 0-2.706344-.413831c-.471612.09625-.925322.217155-1.430867.273761a2.91298138 2.91298138 0 0 0-.992759.229278 2.3861656 2.3861656 0 0 1-.911452.17932c-1.366381.056787-2.746392.08375-4.123484.124725a1.78537568 1.78537568 0 0 1-.4581-.015538 6.75963627 6.75963627 0 0 0-3.049993.070045 3.12990552 3.12990552 0 0 1-.421692.013392 5.14020256 5.14020256 0 0 0-1.752883-.481875c-.251331.115331-.558713.255675-.860775.395196a1.1316043 1.1316043 0 0 0-.00435.351931c.068579.240531-.109036.409826-.42209.450366a22.89199505 22.89199505 0 0 1-2.685931.439367 11.66392132 11.66392132 0 0 1-2.117347-.06334 5.9259278 5.9259278 0 0 0-2.078032.03295 3.56675277 3.56675277 0 0 1-.850214.078557 4.81531616 4.81531616 0 0 0-1.740842.283207 2.09226837 2.09226837 0 0 1-1.268454.068123 7.7332958 7.7332958 0 0 0-3.404375-.030287c-1.040624.17-2.176824.203012-3.212889.424338-.240489-.118139-.454156-.22803-.674493-.331254a1.29954557 1.29954557 0 0 0-1.017182-.118014 4.52941614 4.52941614 0 0 1-2.151544.071371 5.86394947 5.86394947 0 0 0-.774351-.085516c-.334328.017158-.682073.056866-.612378.332538.022908.08737.055325.204638-.02568.244406a1.09961548 1.09961548 0 0 1-.502552.074739.60578817.60578817 0 0 1-.30633-.206193 1.53446342 1.53446342 0 0 1-.141072-.40194 11.2590629 11.2590629 0 0 0-2.711866-.181184c-.135922.0199-.265787.093524-.393757.070118a3.29084924 3.29084924 0 0 0-2.197308.331657 3.24286602 3.24286602 0 0 1-.813625-.030978c.181435-.496725.335879-.916581.485228-1.336588.019418-.052969.05667-.112078.021991-.166258a.79972035.79972035 0 0 0-.292291-.329145.75073748.75073748 0 0 0-.692097-.015216c-.5445.358478-1.060606.731723-1.628417 1.128933-.342848-.0792-.692887-.167243-1.046076-.24165-.305463-.063382-.611305-.107358-.914148-.159875-.073189-.065128-.176575-.123894-.183008-.171549-.03795-.168819.11779-.354453-.254041-.494725a3.0879202 3.0879202 0 0 0-.906948-.191043 3.94162168 3.94162168 0 0 0-.820704.128465c-.133867-.122236-.222545-.280202-.367819-.321969a1.41350572 1.41350572 0 0 0-1.093223.171187l-.1899.822056a2.00729808 2.00729808 0 0 1-.380834-.087975c-.24985-.139795-.480966-.289626-.730064-.441559a2.3701712 2.3701712 0 0 0 .253979-.562045c.048091-.279242-.305426-.560972-.808386-.671003a4.95726653 4.95726653 0 0 0-.785956-.124106c-1.281687-.061129-2.561204-.109445-3.839821-.161657a4.37546997 4.37546997 0 0 1-.61005-.023964 14.96976532 14.96976532 0 0 0-3.036925-.066469c-.82285.008956-.81446.01705-.82162.536592a.49982522.49982522 0 0 1-.030757.164233c-.006075.026298-.037474.046746-.098555.11574a3.13390413 3.13390413 0 0 1-.685625-.140942 5.89793759 5.89793759 0 0 0-1.802-.637884c.080449-.23278.389992-.3203.752723-.362702.278662-.038225.592829-.030287.851114-.082453a.4478434.4478434 0 0 0 .326655-.214892c.036136-.09425-.067984-.2209-.130136-.387102l-3.337056-.184022c-.205928-.205571-.430208-.433849-.688273-.693529-.004674-.206275-.007838-.4635-.012355-.701544a2.09026907 2.09026907 0 0 0-1.262094-.225889 1.46148894 1.46148894 0 0 1-1.141706-.138572 1.1555959 1.1555959 0 0 0-.719887-.050363 7.23846883 7.23846883 0 0 1-1.183994-.008808 1.67741344 1.67741344 0 0 1-.476401-.264974c.116075-.058342.254718-.183289.36036-.160937a5.87994388 5.87994388 0 0 0 2.116536.004672 4.72134902 4.72134902 0 0 0 .584661-.026018c.489828-.135133 1.19524.310991 1.62455.073644a3.01094712 3.01094712 0 0 1 1.405241-.269421c.189341-.00243.350981-.102571.195988-.239947a1.49947566 1.49947566 0 0 0-.515518-.242205 1.87934283 1.87934283 0 0 0-.445364-.008492c-.704235-.015968-1.400912.010849-2.117572-.062366a13.6492271 13.6492271 0 0 0-2.588408-.08495 6.22682258 6.22682258 0 0 1-.687674-.02548l-.727967-.770413a1.68141204 1.68141204 0 0 0-.254575-.119341 15.23667199 15.23667199 0 0 0-3.741709-.639669c-1.080658-.060859-2.165736-.124791-3.260468-.2402-.978074-.100772-1.971042-.274751-2.956227-.406919a5.83695891 5.83695891 0 0 0-1.068813-.089928 11.33603598 11.33603598 0 0 1-3.648286-.25797 2.2732051 2.2732051 0 0 0-.751736-.027967c-.611868.06385-1.219692.136842-1.79935.238912a2.61308625 2.61308625 0 0 1-1.594732-.0606 2.56610268 2.56610268 0 0 0-.830725.043046c-.351712.02135-.502878.191625-.418096.348691a1.2365676 1.2365676 0 0 0 .647123.427529 7.4973783 7.4973783 0 0 0 3.048775.348272 12.02479513 12.02479513 0 0 1 1.918213-.03396 1.07562387 1.07562387 0 0 1 .511255.207363c.122931.107398-.118083.324632-.305544.296717-.467079-.069937-.934004-.158306-1.501254-.256513l-.73542.718609c-.29715-.046072-.604262-.106757-.903064-.136795a3.26785728 3.26785728 0 0 0-.715325-.012374 5.01924485 5.01924485 0 0 1-2.59805-.189775 2.2911988 2.2911988 0 0 0-1.182265-.034058 2.73204465 2.73204465 0 0 1-1.155902.016149 12.13875528 12.13875528 0 0 0-1.5249-.060884 37.62684252 37.62684252 0 0 0-4.079236-.057937 3.39181394 3.39181394 0 0 1-1.225917-.169311c-.666808-.186868-.973056-.091405-1.091518.252633-.089822.264472-.125775.544466-.196875.85225l-1.881855-.047927c-.290817-.220051-.348256-.353359-.051233-.408888a3.64572515 3.64572515 0 0 0 .4202-.042464c.103857-.036541.2069-.118413.183838-.187351a.6837609.6837609 0 0 0-.353091-.176982c-.203643-.037809-.409995-.023919-.619562-.040525-1.247656-.12406-1.589583-.300515-2.091419-1.077171a.64277523.64277523 0 0 1-.034362-.131055 7.4084094 7.4084094 0 0 1 2.557515.187593 1.84435506 1.84435506 0 0 0 .606512.097017c.163194-.0136.352778-.097026.365535-.183339s-.199628-.232843-.35434-.28705c-.345912-.114791-.722554-.185382-1.085779-.278523a2.00629843 2.00629843 0 0 1-1.012068-.535431c.000637-.167087.195535-.224662.450963-.233371 1.170068-.0375 2.349574-.06256 3.5141-.1116a3.3138412 3.3138412 0 0 1 .9086.175009 2.76803207 2.76803207 0 0 0 .71084-.034831 3.85565174 3.85565174 0 0 0-3.030715-.692932 2.7170499 2.7170499 0 0 1-1.599602-.061725 1.50747286 1.50747286 0 0 0-.467304-.068963 9.49068127 9.49068127 0 0 1-2.018016-.297914 4.60938817 4.60938817 0 0 0-2.036407-.14724c.101061.401931.022157.761263-.76557.849125-.159224.018621-.229909.146955-.342168.22875l.036781.036198a4.25051367 4.25051367 0 0 0-1.954524-.7593c-1.237285-.262223-2.467142-.569925-3.762935-.876443.002508-.157421.075363-.272942-.005911-.369691-.1606-.193048-.500502-.378269-.58775-.564632-.068825-.146198.154414-.286486.181198-.442403.010575-.045778-.215908-.140162-.343641-.21789a1.3455295 1.3455295 0 0 1 1.172543-.048214 5.85595227 5.85595227 0 0 0 2.344362.457432c-.359875.336491-.580657.546087-.842282.790365a9.69660926 9.69660926 0 0 0 2.577341.319394 1.44049628 1.44049628 0 0 0 1.079143-.199063l-.6609-.803141c.643305.079867 1.162453.173118 1.658314.198405.61844.032058 1.15732.008802 1.381362-.370353.212724-.36125 1.230288-.275979 1.809388.104031.229766.155675.404532.327372.643591.473908a4.51142243 4.51142243 0 0 0 .6088.251442c-.302734.129106-.575869.245556-.893065.379529a5.20418018 5.20418018 0 0 0 2.642765.262689 3.16589294 3.16589294 0 0 1-.509116-.722935 1.3835162 1.3835162 0 0 1 .0696-.634391 1.84735401 1.84735401 0 0 1 1.125963-.157468c.363462.038819.726853.06018 1.09226.112786a2.4991261 2.4991261 0 0 0 1.594493-.209287c.515185-.27599 1.059812-.532867 1.560538-.817327.440927-.252105.282406-.693985-.348852-1.034745-.214265-.116185-.48848-.19492-.693079-.312976a1.76038442 1.76038442 0 0 1-.34399-.331854 2.59909114 2.59909114 0 0 1 1.578536-.220155 15.06673142 15.06673142 0 0 0 3.150072.034126 3.32983561 3.32983561 0 0 0 .895214-.273357l-.327475-.803066-.7792-.18a1.48548055 1.48548055 0 0 1-.3181.488752 1.78837464 1.78837464 0 0 1-.622902.151587 1.51646972 1.51646972 0 0 1-.428738.026128c-.727075-.072543-1.456246-.153778-2.184067-.240857a1.8313596 1.8313596 0 0 1-.361863-.152333c.100622-.311224.273027-.635619-.026369-1.022834a.85770008.85770008 0 0 0-.333125-.334474c-.94176-.32015-1.185596-.881258-1.958137-1.352123a19.56016014 19.56016014 0 0 1 2.583441-.151146c.48994.033153 1.083515.017402 1.13946-.202571.098766-.387575.442183-.506257 1.088209-.531437a7.00954888 7.00954888 0 0 1 1.660807.107669 1.89933583 1.89933583 0 0 0 1.893198-.41422c.037249-.045772.032243-.108487.063124-.157782a.780727.780727 0 0 1 .1325-.129444 3.47078632 3.47078632 0 0 0 2.554998.385025 1.64342532 1.64342532 0 0 1 1.112575.069258c.160103.070842.535665-.053752.727783-.077086a13.93312782 13.93312782 0 0 0 1.730875.390609 1.09961548 1.09961548 0 0 0 .970236-.362728 1.08462073 1.08462073 0 0 0-1.061372-.526301 7.39741325 7.39741325 0 0 1-1.693665-.263 1.69940575 1.69940575 0 0 1-.438593-.131071 6.75163906 6.75163906 0 0 0-.75315-.403801 12.42565496 12.42565496 0 0 0-1.529538-.427203c-.723836-.148743-1.453303-.246462-2.245926-.377238a1.09961548 1.09961548 0 0 1-.530073 1.17541 1.68441099 1.68441099 0 0 1-1.157667.201443 6.87659537 6.87659537 0 0 1-2.004495-.449713 3.24986358 3.24986358 0 0 1-1.175288-.739344 2.6060887 2.6060887 0 0 0-1.320159-.907213c.45125-.176876.865038-.360354 1.31471-.517075a3.4308003 3.4308003 0 0 1 1.818081-.235611l.041574.046539-.072446-.037255c-.275942-.728577.504491-1.033579 1.297222-1.382935a3.67371536 3.67371536 0 0 0 1.838558-.000036c1.627925.059034 3.10179-.169911 4.75143-.049432a2.13525334 2.13525334 0 0 0 1.070809-.123014c.088723-.042089.078856-.14594.108917-.213892a1.43549803 1.43549803 0 0 0-.976066-.367062c-.88674-.091985-1.768018-.149877-2.643452-.206419-.568088-.036842-1.1209-.03322-1.687339-.072759a8.0761759 8.0761759 0 0 1-2.445125-.51867 15.09472163 15.09472163 0 0 0-3.2556-.563284c-2.166437-.339382-4.246565-.315124-6.397732-.587368a19.20528423 19.20528423 0 0 1-3.437901-.546916 11.23307198 11.23307198 0 0 0-1.872295-.244758c-.937086-.113875-1.891094-.278854-2.806915-.329336-1.181658-.067775-2.359858-.18605-3.565395-.354757-1.148444-.1627-2.292264-.229942-3.437123-.341541a8.15514828 8.15514828 0 0 1-.930345-.103084 4.5464102 4.5464102 0 0 0-1.942912-.085629 2.13525334 2.13525334 0 0 1-.900758-.062392 10.68726284 10.68726284 0 0 1-2.375609-.779625 13.70420787 13.70420787 0 0 0-1.591459-.621053c-.218842-.087489-.40913-.205317-.72094-.365581.288257-.057554.454015-.144432.606859-.113228a8.48403327 8.48403327 0 0 0 2.396906.034556c.333206-.025625.70626.007202 1.05497.00773.494443.000336.599384-.191903.31495-.475116a2.44514497 2.44514497 0 0 0-1.3159-.521488 1.88134213 1.88134213 0 0 1 .29785-.401092c.209982-.162844.48799-.291506.693102-.455475.356343-.290112.296589-.457812-.234045-.785587-.160846-.098715-.356386-.184925-.515509-.282216-.551008-.355053-.802681-.717906-.639779-1.098873.133892-.322006.361548-.445884 1.028534-.384144q2.393717.221573 4.798589.483684a28.73995012 28.73995012 0 0 1 2.961852.382569 36.6871711 36.6871711 0 0 0 4.473193.431087c1.281823.122719 1.410484-.261028.452629-.977845.281127-.670683 1.404129-.655445 2.442763-.639177 1.413568.01875 2.87379.150875 4.30301.20402a17.28195679 17.28195679 0 0 0 1.922411-.04325c.440503-.032644.441105-.377233.010239-.550636a13.57325366 13.57325366 0 0 0-1.780874-.622744c-.868355-.215985-1.759281-.352028-2.747-.544288l-.466944-.670102a3.01794468 3.01794468 0 0 0-.399174-.16403 13.59524597 13.59524597 0 0 0-2.803001-.408458 25.88494846 25.88494846 0 0 1-3.740919-.487642c-.680456-.13667-1.365193-.22816-2.025195-.360105-.759051-.151748-1.532339-.299603-2.295508-.464614a1.17658857 1.17658857 0 0 1-.284831-.183785 2.23621803 2.23621803 0 0 1 1.414442-.202659c1.343638.121609 2.688025.244417 4.028818.356135a3.16389364 3.16389364 0 0 0 .73998-.005528c.487193-.079313.943224-.1925 1.467737-.300127a2.39916105 2.39916105 0 0 0-.368541-.443201c-.167282-.133033-.4334-.233495-.628481-.361664-.413461-.270954-.436934-.511325-.081515-.690845.097566-.04928.245626-.068428.343642-.119656a2.30519391 2.30519391 0 0 0 .30126-.2382c-.221645-.284098-.469881-.604092-.754522-.966353a1.63042987 1.63042987 0 0 0 .16988-.424498c.032803-.266358-.073164-.50937-.642637-.71787a3.35282757 3.35282757 0 0 1-.699038-.469275 4.25151332 4.25151332 0 0 1 .353057-.338066c.795109-.595041.681029-.412095-.225488-1.186819a6.9645646 6.9645646 0 0 0-.699719-.439679c-.197704-.125697-.387989-.256862-.5782-.383906l.428271-.281704.036701.058751-.054387-.044369a.36687171.36687171 0 0 0 .013814-.121978l-.016413.017754c.75919.200001 1.540078.203923 2.296186.448355a10.3553789 10.3553789 0 0 0 1.790483-.125025 15.21368003 15.21368003 0 0 1 1.840267-.269473 1.29954557 1.29954557 0 0 1 .58742.0331 4.70935322 4.70935322 0 0 0 2.508978.1179 3.47278562 3.47278562 0 0 1 .486654-.014801c.085514-.099259.265811-.20022.262768-.32917-.012368-.31065.442378-.373861.783133-.31669a2.54211107 2.54211107 0 0 0 1.261713-.078914 3.6247325 3.6247325 0 0 1 1.36925-.153592 2.47413484 2.47413484 0 0 0 1.465609-.499658 1.00964694 1.00964694 0 0 1 .600734-.197747 14.31799324 14.31799324 0 0 1 2.656541-.023454.63877663.63877663 0 0 0 .276714-.038675 2.9729604 2.9729604 0 0 1 2.178034.080437l.785573-.504906c.403325.030586.567187.378284 1.022765.280382.586257-.126195.056674-.462961.143873-.724961l1.246425-.06603a3.22987057 3.22987057 0 0 1 .357117.266146 1.73739246 1.73739246 0 0 0 1.467628.517551 10.43535093 10.43535093 0 0 1 1.137375.072935l-.460058-.637732a1.50447391 1.50447391 0 0 1 1.677771-.027945l1.221886-.230725c.289572-.2409.244677-.512895-.135194-.884843-.558102-.128925-1.176216-.277869-1.79703-.415125a1.83435856 1.83435856 0 0 0-.603075-.054158 7.56335522 7.56335522 0 0 1-2.43435-.12118 7.22247442 7.22247442 0 0 0-2.106411-.048502 2.751038 2.751038 0 0 1-.54661.078925 8.24711612 8.24711612 0 0 0-2.900981.482027 1.79937079 1.79937079 0 0 1-.509752.105907c-.863225-.038332-1.72825-.068872-2.603225-.167373a6.24981454 6.24981454 0 0 0-1.916256-.005601l-.874887.176481-2.331057-.648268a4.25451227 4.25451227 0 0 0-.46808.049871 2.06227886 2.06227886 0 0 1-1.332376-.223657 8.36407522 8.36407522 0 0 0-4.046026-.80128 9.07482668 9.07482668 0 0 1-1.532979-.119179 2.71205164 2.71205164 0 0 1-.64281-.28187c.803299-.030914 1.517212-.070165 2.249551-.082588.442146-.008667.91575.033024 1.36194.033499.478184-.000342.75425-.156128.730771-.369825-.043459-.327066-.274788-.529271-.819399-.676625-.823397-.224067-1.650092-.44274-2.480387-.645829a1.43249908 1.43249908 0 0 0-.578734-.008522c-.377726.085107-.722641.201391-1.012852.285169-.690208-.085572-1.304518-.157715-1.917028-.23765a8.41405774 8.41405774 0 0 1-1.3897-.202016 1.29954557 1.29954557 0 0 0-1.301351.086173 2.08627047 2.08627047 0 0 1-.390483.17142l.036858.026982a1.16859136 1.16859136 0 0 0-1.014712-.4396 5.37612006 5.37612006 0 0 1-1.713648-.363032c-.049765-.27312-.097736-.527358-.141888-.77148 1.050006-.241703 1.050006-.241703 2.614975.227542.332599.008092.286105-.150389.328544-.285248.068681-.212927.373345-.261561.7718-.2321q1.45746.086344 2.91275.159875a2.4891296 2.4891296 0 0 0 1.327374-.189941 2.85500165 2.85500165 0 0 1 2.094516-.033246 2.96396355 2.96396355 0 0 0 1.999034.078074l.432005.439394a9.05483368 9.05483368 0 0 1 1.024666.156678c.511196.136557 1.004099.321213 1.617331.52238.152275.229086.319903.48942.48828.750953a2.42615162 2.42615162 0 0 0 2.037482 1.030854 3.13090517 3.13090517 0 0 1 .8991.1051 1.18858437 1.18858437 0 0 0 .972784-.031775 2.69905619 2.69905619 0 0 1 1.053875-.12077c.999245-.084143 2.062069-.017144 3.090519-.027852a1.61043686 1.61043686 0 0 0 1.067251-.294148 2.98495621 2.98495621 0 0 1 .71715-.43966 2.03428864 2.03428864 0 0 1 .552519-.033443c.062251.725382.340116.89935 1.332182.753016a18.29360303 18.29360303 0 0 1 3.684769-.046525c.40535.02182.847629.08808 1.086402-.159425-.132751-.087095-.296578-.257291-.423127-.269083a11.5069762 11.5069762 0 0 0-1.978873-.10317 3.93262483 3.93262483 0 0 1-2.192439-.328973c-.662882-.319338-1.441336-.484802-2.111631-.825346a3.02194328 3.02194328 0 0 0-1.654018-.31027 6.06287991 6.06287991 0 0 1-2.085758-.262264 1.85435156 1.85435156 0 0 0-.609283-.102787 10.22242539 10.22242539 0 0 1-1.906898.029392 3.24386567 3.24386567 0 0 0-.795691.184516c.152659.520552.365197.986196.145939 1.415703-1.292071-.531373-1.233969-.347639-1.133493-1.342197a6.3977628 6.3977628 0 0 0-1.696725-.649474c-.201461-.078344-.49317.003036-.723682-.167175-.179645-.132811-.382219-.259633-.595054-.404215a1.98630542 1.98630542 0 0 1 1.149454.002881 1.40850747 1.40850747 0 0 0 .591825.102858 2.59909114 2.59909114 0 0 1 1.354775.242169 2.93097509 2.93097509 0 0 0 1.508981.214181 5.86894773 5.86894773 0 0 1 2.229665.052351.71974832.71974832 0 0 0 .30525.011008 39.93303608 39.93303608 0 0 1 4.140776-.053016c.379437-.030335.763593-.05445 1.147-.079764.520975-.034574 1.0415-.0672 1.706935-.105338l.896758-.80856a5.33813334 5.33813334 0 0 0-2.758875-.381849 15.76748637 15.76748637 0 0 1-3.285467-.02539 5.37811936 5.37811936 0 0 1-.79516-.177531c.077799-.110275.085692-.224387.181902-.241149a14.93677686 14.93677686 0 0 1 3.053633-.596556c.56979.131625.545048.5363 1.170294.623281a2.35017818 2.35017818 0 0 0 1.205008-.144338c.035142-.338662-.870992-.484374-.827312-.8067.042176-.29805-.493506-.501822-.645544-.78523a.99965044.99965044 0 0 1 .37025-.825537c.41256-.386905.85082-.774029.781114-1.333899-.022739-.172487.257143-.30482.409206-.465654a2.42315266 2.42315266 0 0 0-1.444003-.619821 4.23451926 4.23451926 0 0 1-1.17552-.37415 3.98060805 3.98060805 0 0 0-1.820048-.346572c-.551764.007968-1.099783.021931-1.245665.351427l-2.354535-1.199511c-.582997-.043364-.906443.228698-1.430863-.077122l.026295.019412a1.64742392 1.64742392 0 0 0-.488761-.278089 14.67686774 14.67686774 0 0 0-2.443826-.297785 21.36053058 21.36053058 0 0 1-3.63282-.395982l.260216-.30924a1.17358962 1.17358962 0 0 1 .325038-.021356c1.331668.373286 2.22843.213144 2.804596-.353474.372305.031628.734118.073144 1.088444.089333a4.49842698 4.49842698 0 0 0 1.653084-.200882c.3336-.111716.204275-.44015-.248475-.589881a2.75003836 2.75003836 0 0 0-.754033-.142381 7.19748316 7.19748316 0 0 0-.92949.093075c-.074065-.167928-.204557-.304774-.150969-.372421.207833-.269016.382396-.52725-.109725-.857414.693463-.394859 1.813934-.45305 1.874309-1.047507a30.9891636 30.9891636 0 0 0 3.925126-.340859l-.091361-.888055c.432856-.012865.825775-.021618 1.210378-.034344.496095-.015698.832762-.10516.652194-.464925-.085827-.174749.104506-.256976.32233-.307203.247497-.058762.517393-.099012.827229-.156711.261341-.31411.420939-.663009-.423447-1.178172l-1.40256-.324-.022692-.048333.05476.051637c-.095532.000503-1.762609-.213264-1.858209-.243556a24.45244939 24.45244939 0 0 1-2.702435-.803825 4.9112826 4.9112826 0 0 0-1.516101-.205566l.038803.040769-.084486-.140582-.287807.055606.035295-.019548-.909716-.21015c.011008-.30525.3822-.3221.718316-.293702a4.59839202 4.59839202 0 0 1 1.945948.578799 12.72754939 12.72754939 0 0 0 1.527761-.333456 5.25116376 5.25116376 0 0 0 .981525-.584809c-.113507-.365819-.768195-.471913-1.19282-.743394.549047-.253804 1.092549-.505811 1.629458-.760367.238293-.112187.546338-.202105.675472-.35695.263514-.314634.804138-.429825 1.300861-.572599l-.023681.018127a1.7064033 1.7064033 0 0 1 1.17296.096545c.571267.227382 1.119975.481358 1.69311.731743 1.218075.056694 2.460811.068812 3.734019.184411a11.08612337 11.08612337 0 0 0 2.171072-.280263c.087666-.006424.080428-.139421.136189-.207592.337408-.385798.649868-.783515 1.032977-1.149522s.380987-.592212-.234814-1.030973c-.176125-.125842-.393762-.240754-.649453-.395236l.931153-.824212c.280888.058731.271005.359111.779004.38515.741993.039054 1.512288.168776 2.272251.26328a.72774552.72774552 0 0 1 .16235.074439c.24855.256456-.216383.306028-.268796.479622-.081506.268445.0967.469664.60183.592508.363302.083925.734852.141028 1.097029.229823a3.99860176 3.99860176 0 0 1 1.704212.674801 6.734645 6.734645 0 0 0 4.12601-.362168 18.49353312 18.49353312 0 0 0 3.079184.73183l.166366.54116a2.02529179 2.02529179 0 0 0-.30194-.06975.85570078.85570078 0 0 0-.232656.034489.93067456.93067456 0 0 0 .238766.116715.97365953.97365953 0 0 0 .267812-.10229 9.342733 9.342733 0 0 0 3.2011.688175c1.13699.119015 2.268799.287106 3.403909.436466a27.02355031 27.02355031 0 0 0 3.017134.11217.82171266.82171266 0 0 0 .361994-.096949.14494931.14494931 0 0 0 .088371-.142716 1.45349174 1.45349174 0 0 0-.114046-.301307 7.44639612 7.44639612 0 0 0-2.416299-.425829 2.28819985 2.28819985 0 0 1-1.833677-.713942l.03004.025407c.139025-.15769.420902-.165419.743456-.13605a8.82291477 8.82291477 0 0 0 1.943969.049964 2.75803556 2.75803556 0 0 1 .754729.0461 32.42466164 32.42466164 0 0 1 3.675406.606911 1.03763716 1.03763716 0 0 0 .543069.007465c.14873-.332942.709464-.2465 1.169817-.254039l.276231.10998-.198826-.134164a1.06162877 1.06162877 0 0 0 .785455-.646518l.048413-.045245-.11074-.009166c-.021635-.083998-.110242-.224506-.047-.240676a2.39916105 2.39916105 0 0 1 .675637-.091184c.326906.001647.685267.066989 1.011125.06429.295288-.003605.548558-.078475.836131-.093096a3.51677024 3.51677024 0 0 1 .898822.008594 22.81602162 22.81602162 0 0 0 2.943151.245898c.929152.077159 1.848573.112057 2.780419.204202a9.63962918 9.63962918 0 0 0 2.345006-.073875 4.12555736 4.12555736 0 0 1 1.3292.01978 8.02519372 8.02519372 0 0 0 1.533879.115283 2.44314567 2.44314567 0 0 1 .838081.231563 1.5734498 1.5734498 0 0 0 .215139-.105224c.688398-.52838 1.302054-.546674 2.538296.022075.313462.14423.602983.130059.871869.249628l-.022547-.026754c.097074.139386.210576.194333.36038.08325l-.03462.016626a12.55960811 12.55960811 0 0 0 4.192492.207217c.350824-.070802.86964.166009 1.127585-.040132l-.02652-.018438 1.41865.409795c.501584-.101638.831028-.390782 1.526251-.282506a.26290807.26290807 0 0 0 .141165-.011507c.61795-.454368 1.63504-.260453 2.62884-.121165a4.89828715 4.89828715 0 0 0 .772486.049176 6.74264221 6.74264221 0 0 0 1.301647-.069689c.4346-.1048.674786.361075 1.07725.222176a3.1988814 3.1988814 0 0 1 .689788-.04585l-.028249.006812a3.46578807 3.46578807 0 0 1 .46752.108 9.75358933 9.75358933 0 0 0 2.73461.664543 1.99930088 1.99930088 0 0 1 .525252.271129c.309496-.211674.62094-.422898 1.009946-.690075.136958.037794.42316.122376.712811.196469.309356.077619.624334.144225.943806.218025a5.39811237 5.39811237 0 0 0 .6721.643624.86969588.86969588 0 0 0 .901107.176356.6997553.6997553 0 0 1 .822861.275242 2.18623551 2.18623551 0 0 0 1.795723.896006c.256769.025458.5095.0151.764472.035013s.504325.037502.821935.061625c.230648.231801.476427.482487.703854.710466.628408.019997 1.179867.035556 1.73185.053288a3.17788875 3.17788875 0 0 0 .605556.01677 18.86240413 18.86240413 0 0 1 3.660286-.127077 6.0248932 6.0248932 0 0 1 1.511409.079313 2.8659978 2.8659978 0 0 0 .753234.030365c.930375-.030286 1.846818-.080206 2.777566-.103224a19.04633981 19.04633981 0 0 1 2.595875-.13391 1.58044734 1.58044734 0 0 0 .861408-.2114 3.21387616 3.21387616 0 0 1 2.060459-.187828 3.67571466 3.67571466 0 0 0 2.456336-.35595 1.2585599 1.2585599 0 0 1 1.037921-.144975c.070128.0162.157131-.04065.237233-.063185l-.039638.007259a2.10726313 2.10726313 0 0 0 .240756-.069553 4.13255491 4.13255491 0 0 1 2.080727-.35551c.586244.264699.204426.554056.448396.852545a2.0392869 2.0392869 0 0 0 1.100294.371136c.446874-.042458.970241-.051856 1.154177-.341782a.81971336.81971336 0 0 1 .498192-.344552c.337265-.083168.45575-.196356.402456-.436434-.029492-.12993.157925-.239506.243519-.361318.148025-.19665.437105-.248884.857414-.109725a1.74538967 1.74538967 0 0 0 1.4761-.172c.026227-.011383-.068834-.106187-.134148-.205405a7.69730838 7.69730838 0 0 1 2.755936.12365 4.13655352 4.13655352 0 0 0 1.043877.024661l-.019477-.017837a1.3715204 1.3715204 0 0 0 1.097381.33045c.400723-.060301.827365-.095121 1.242621-.142831l-.03507.018574a7.81326783 7.81326783 0 0 0 .917227.128781 6.72964675 6.72964675 0 0 1 2.560368.495019 1.51047181 1.51047181 0 0 0 .998019.036639l.068023.047519-.0938-.038084.685469-.164835-.018811.019252c.755386.1232 1.475418.195142 1.809306-.197625.167206-.195297.523675-.046262.856046-.023859l.255376-.443735 3.15295-.10269c.097081-.224834.759597-.276984.832429-.623355.00945-.040908.142829-.080889.2218-.07188.606142.076412.516514-.188475.544364-.420068a6.9545681 6.9545681 0 0 1 1.503967-.146069 14.57190445 14.57190445 0 0 0 3.251958-.233715c.555746-.056295 1.119435-.115885 1.694276-.1216.396516-.011.771065.037562.987048-.155701a.54780844.54780844 0 0 1 .362737-.069076 4.61738538 4.61738538 0 0 0 2.19803-.210425c.199768-.05645.414066-.086972.622822-.129034l-.053126.012351c.472375.17581.8013.195365.93436-.09195.033584-.07432.285341-.084903.438875-.123306l-.031538-.027805a3.3988115 3.3988115 0 0 0 2.3023.248676c.146038-.023719.292757-.077034.4373-.116488a4.71835007 4.71835007 0 0 1 2.027698-.108188c.34188.052301.675388.016486.776442-.216664.046329-.107285.307764-.173087.517568-.210803a.64377488.64377488 0 0 1 .634059.21316l-.095532.000503.1055-.012564.588244-.299126a2.59009429 2.59009429 0 0 0 .558421.376259 1.27855291 1.27855291 0 0 0 .861357.015329c.230868-.080045.494473-.133034.731034-.206634a3.5397622 3.5397622 0 0 1 1.500367-.130485 3.71370138 3.71370138 0 0 0 1.453813-.022226 1.75838512 1.75838512 0 0 1 1.30895.10744.4558406.4558406 0 0 0 .258196.010398c.236183-.39174 1.168898.167425 1.54428-.15625.220178-.189216.816675-.204292 1.242731-.298754a.46283815.46283815 0 0 0 .56505.218764c.482353-.213808 1.231214-.062362 1.769372-.20685a13.52527044 13.52527044 0 0 1 1.711915-.260136 1.12060814 1.12060814 0 0 1 .300365.076568l.010643-.014983a1.18058717 1.18058717 0 0 0 .339159.157348c.393218-.005606.763368-.053476 1.156586-.059082a7.23247093 7.23247093 0 0 1 .746182.069775l-.017677-.025629.378886.087525-.023154.006963 1.590628.318198a.84470462.84470462 0 0 0 .231981-.031567 2.43114987 2.43114987 0 0 1 1.437617-.302981 7.86425 7.86425 0 0 0 2.5176-.2392l-.040908-.00945c.485558.194245.847955-.028806 1.3112.0977.552366-.352557 1.50913-.115123 2.280885-.147168.024942.038593.073032.096897-.046083.012952.58557-.069925 1.170764-.133781 1.801665-.20452.0639-.276616.607088-.465085.333999-.886236a2.36517294 2.36517294 0 0 0-1.176459-.196873c-1.026357.032737-2.1011-.009314-3.111503.047628a16.56120882 16.56120882 0 0 1-2.062939-.11233 20.42685707 20.42685707 0 0 1-2.133943-.23133 6.87059747 6.87059747 0 0 0-1.381328-.1139c-.875079.030748-1.722371.10998-2.578651.174824-1.909921.144629-3.742763.38196-5.564145.636302-.404918.056254-.868264.04566-1.245975.064082l-1.640849-.562696a16.59419729 16.59419729 0 0 0-5.261737.624082l-2.743198-.791696c-.277198-.474425.4614-.664948.206592-1.08085l-.049976-.001285 2.11551.568722a1.63042987 1.63042987 0 0 0 .33985-.249805.85670043.85670043 0 0 1 .945172-.19205 1.85635087 1.85635087 0 0 0 1.105849-.008218c.484271-.079988.967044-.162374 1.43431-.257576.283162-.057705.539656-.14209.874825-.23395a2.12125823 2.12125823 0 0 0 .122007.21799c.037826.053881.095733.105219.190942.208265l.759025-.065765-.053131-.298521-.037915.008683a2.28819985 2.28819985 0 0 0 .534303.00544c.034425-.149022.13785-.263637.392976-.262156a4.87329589 4.87329589 0 0 1 1.737031.004212l.020895.042788-.056557-.057182c.336128-.02495.662596-.074703 1.012878-.067656a1.91233129 1.91233129 0 0 1 .749536.148524 2.42615162 2.42615162 0 0 0 1.474725.278086c1.591997-.105214 3.190732-.1863 4.869089-.154603.397336.007657.746292-.086148 1.135842-.106965.776477-.039162 1.587035-.030438 2.342913-.095904.709872-.06173 1.358098-.207467 2.053514-.291004.412559-.049359.862796-.053079 1.301422-.068715.64078-.020236 1.286054-.033278 2.036677-.053789.131028.085671.313823.204846.499466.320575a1.61443546 1.61443546 0 0 0 .892557.213368q.889458.000275 1.777569-.006943a1.56345329 1.56345329 0 0 1 1.512586.509469 8.6689686 8.6689686 0 0 0 3.864545-.162996c.323353.141385.606402.25294.868393.38015a3.94062203 3.94062203 0 0 0 2.239256.383905 4.06257938 4.06257938 0 0 1 1.804743.101932c.234023.217191-.188016.440828.38003.664388a2.45614113 2.45614113 0 0 0 1.213779.168559c.31695-.03964.576298-.154145.895871-.196257a1.31154138 1.31154138 0 0 1 .558709.095208.19993009.19993009 0 0 1-.048562.374549 8.13915387 8.13915387 0 0 1-1.362814.18791 23.3348402 23.3348402 0 0 0-3.062596.137926 1.08861933 1.08861933 0 0 1-.443114-.018232 2.55410687 2.55410687 0 0 0-1.426396.050105 4.85230323 4.85230323 0 0 1-1.836264.127787 3.1808877 3.1808877 0 0 0-.9504.116972 2.63307926 2.63307926 0 0 0 1.219867.750668 10.64927613 10.64927613 0 0 1 2.519035.043275 5.39811237 5.39811237 0 0 0 .880322-.022355 4.7623347 4.7623347 0 0 1 1.379232.105208 1.55345678 1.55345678 0 0 0 1.447691-.120082 1.41450537 1.41450537 0 0 1 1.040621-.156663c.152343.259881.303638.515416.478377.807146.363616.020387.66145.023526.962724.056187.48544.052633 1.066743.298749 1.1076.534928.098858.535825.792615.832542 1.499176 1.1671a6.58869604 6.58869604 0 0 1 2.146975.25486c-.009572.250179-.334237.278803-.709464.2465a6.65067437 6.65067437 0 0 1-.786258-.113916 3.7616846 3.7616846 0 0 0-2.146674.072496 7.59734334 7.59734334 0 0 1-1.962831.196017c-.568932.051197-.779.263268-.650125.59365a1.29954557 1.29954557 0 0 0 1.02854.588483 5.1252078 5.1252078 0 0 0 .746496.006237 1.86134912 1.86134912 0 0 0 .402523-.068093c.201716-.056.386951-.125041.646068-.211898a6.43674918 6.43674918 0 0 1 .705564.103483 22.85800694 22.85800694 0 0 0 3.581532.564706 3.41180695 3.41180695 0 0 1 1.730315.54848c.379821.261131.947258.194199 1.031017-.097323a5.86594878 5.86594878 0 0 0 .118345-.823196c.658975.03424 1.311807.063983 1.967484.103617a3.62173354 3.62173354 0 0 1 .620453.07664 18.42355759 18.42355759 0 0 0 4.322383.351106 3.9696119 3.9696119 0 0 1 1.963238.326299 2.85500165 2.85500165 0 0 0 .762272.15557c.366455.056952.731939.100342 1.0939.1501l-.021724-.021434a1.07162527 1.07162527 0 0 0 .275331.113876 2.41315616 2.41315616 0 0 1 1.842808.4257 1.69940575 1.69940575 0 0 1-1.018524.185365 5.36812286 5.36812286 0 0 0-2.356724.204545 3.41580555 3.41580555 0 0 1-1.976289.067739 1.57444944 1.57444944 0 0 0-1.315529.160872c-.084907.065542-.017728.2011-.024283.362716l.992619.060015c.003588.037764.043732.1127.001095.1285a3.68571117 3.68571117 0 0 1-1.354646.183641c-.838517.041246-.979262.184175-.847661.720382.090803.370834-.038695.4784-.570378.483825-.691277.003441-1.385476.006207-2.077203.011596-.513775.003406-.696168.095675-.712712.362711a.39286262.39286262 0 0 0 .026466.258504c.234733.391771.029446.667531-.213682.956095-.343483.412096-.296586.444475.499647 1.181411a6.9525688 6.9525688 0 0 0 1.882619-.017559c.308711-.052829.64364-.07703.967932-.112922l-.031538-.027805c-.304138.375016-.677335.644819-1.670845.548689-.79196-.08035-.922868.2998-.878675.69475a2.3781684 2.3781684 0 0 0 1.586285.305909l-.031088-.029753c.06905.145224.198189.301251.2067.43762a1.89933583 1.89933583 0 0 1-.108687.52379 2.53211456 2.53211456 0 0 0 1.804197.530664.75673538.75673538 0 0 1 .28982-.011024 1.87934283 1.87934283 0 0 0 1.800756-.160613 5.59804246 5.59804246 0 0 1 .951987-.177138c.059375.187106.030643.342573.134106.392123a3.36682268 3.36682268 0 0 0 .726675.185308.62578117.62578117 0 0 0 .290868-.006678 3.93262483 3.93262483 0 0 1 2.233457.1825 12.1747427 12.1747427 0 0 1 3.092457-.649146.42685074.42685074 0 0 0 .131277-.021999c.231475-.113762.541018-.201282.640257-.359955.072556-.118668-.13884-.331658-.245189-.541927.302512-.141469.640168-.297391.970257-.456087.287526-.138775.909915-.008337 1.043061-.344879-.886944-.18437-1.575075.156318-2.535329-.221455a3.14789923 3.14789923 0 0 0 .526571-.2631 2.31019216 2.31019216 0 0 0 .340712-.417866 4.48643117 4.48643117 0 0 0-2.572675-.410654 33.33234423 33.33234423 0 0 1-4.70945-.043468c-.004674-.206275.317214-.213995.513462-.277414.275376-.086179.577796-.151747.872125-.222262.250644-.059061.506232-.112876.727727-.161229.019987-.250851-.342359-.254529-.547112-.354153.041817-.034457.062585-.09327.125975-.101198.461937-.054368.936308-.0915 1.40334-.145717a2.46013973 2.46013973 0 0 0 .394207-.072066c.178562-.049037.269997-.156162.117174-.280725a1.17059066 1.17059066 0 0 0-.517025-.204592 18.83441392 18.83441392 0 0 1-3.083237.29834c-1.00741.075075-1.94733.235507-2.921032.3512-.22164.026774-.464853.027019-.673677.038286-.354642-.27686-.170446-.390258.114436-.433202.500154-.073241 1.030721-.113807 1.548928-.167488.969877-.099135 1.726392-.331688 2.05814-.870638.233483-.380052.89287-.511925 1.58984-.508921a6.056882 6.056882 0 0 0 1.370766-.231216c1.39342.652253 2.449744.303256 3.590909.182131.059939-.321648-.58323-.339925-.901168-.571371a8.35707767 8.35707767 0 0 1 2.266112-.0921c.283961.054311.292813.007109.870272-.31195l-.803452-.2882c.149434-.131688.284779-.251241.424544-.367721.12665-.10412.252625-.205318.414946-.335055.640694.028991 1.326784.1013 1.956101.07739s1.208229-.140516 1.824221-.217777l.7758.638852c1.374184.229211 2.717735.737593 4.142046.962994a5.53706378 5.53706378 0 0 1 1.022439.397268c-.322333.32054-.599175.59516-.854284.851203a6.78362788 6.78362788 0 0 0 2.489756.96502l.016188-.01678c.274608.33019-.130941.526857-.154765.847614.414865.025044.749936.035759 1.086126.068278a3.47478493 3.47478493 0 0 1 .628837.111408 2.25921 2.25921 0 0 1 .699234.264125 3.6387276 3.6387276 0 0 0 2.578835.672675 17.69381277 17.69381277 0 0 1 3.045306.114574 4.28050318 4.28050318 0 0 0 2.51943-.380362.5767983.5767983 0 0 0 .246343-.258068c.11093-.16931.199159-.346942.296678-.520376l-.034235-.029454.111725.293589a5.32213894 5.32213894 0 0 0 1.167794.078936c.415833.051943.837954.129962 1.248547.160175a11.9448231 11.9448231 0 0 0 1.197103.023122 14.21502924 14.21502924 0 0 0 1.593267-.088505q2.043774-.293254 4.029419-.650209c.421781-.075956.925301-.123796 1.052745-.426772.026763-.062558.185244-.109052.314795-.119138.952114-.075537 1.905051-.145754 2.871396-.19851a2.93797264 2.93797264 0 0 1 .597142.115372Zm-36.82744 10.3706.098611-.031597-.085203.049058-.0807.016241ZM56.022681 55.617024c-.3896-.09-.430692.052352-.46197.201075a1.1256064 1.1256064 0 0 0-.194551-.15267.56380285.56380285 0 0 0-.245371-.065916c-.06916.010699-.136831.063807-.12755.108016.029998.212125.297771.283216.687635.198861.240676-.047.414673-.120689.319858-.309826.13636.0315.309951.09725.191153-.06357Zm201.046543 12.54986a.76373294.76373294 0 0 0-.184042.094966c-.034999.036032-.0225.0974-.032175.139282a.85570078.85570078 0 0 0 .234737.040888.1169591.1169591 0 0 0 .046634-.130812.6717651.6717651 0 0 0-.097817-.167259l.101.006916Zm22.97833 15.204704c.491222-.003486.984167-.005548 1.469172-.017652.036115-.000891.019125-.08279.060975-.263954-.608727.090225-1.285728-.083608-1.5067.304464a.6837609.6837609 0 0 0-.119802-.027675c-.022402-.005175-.038217.018873-.057176.029883Zm-30.868767-9.752245c-.102125-.002046-.271305-.024712-.2818-.001487-.178634.369125-.134737.747591.637979 1.106665.530312.093778.848023.001989.990509-.219538-.2022-.4571-.970994-.597761-1.384671-.907752l.256464.048985Zm9.261534-5.489689-.291874-.184386-.205553.125906a2.12025858 2.12025858 0 0 0 .247698.04696 2.46713728 2.46713728 0 0 0 .280527-.001885c-.072488.149463.020089.294992.316256.38085a2.6120866 2.6120866 0 0 0 .753213.123724 12.08877276 12.08877276 0 0 1 2.086857.039881c.230169.029573.4901-.011953.49606-.1932-1.800694-.781219-2.043901-.807648-3.414262-.378325a1.78137708 1.78137708 0 0 1-.272818.039575Zm40.2703 13.0988a7.35442828 7.35442828 0 0 0 .845785-.041619c.669648-.114113 1.301393-.272891 1.97973-.375763.758137-.115217 1.366512-.306069 1.46529-.746992.620211-.17991 1.411881-.142718 1.70966-.561268a3.33083526 3.33083526 0 0 0-.727423-.524053 1.8293603 1.8293603 0 0 0-1.164286-.018619 3.54276116 3.54276116 0 0 0-.766945.29991 2.62308275 2.62308275 0 0 0-.540246.433331 3.58474647 3.58474647 0 0 1-1.982586 1.080975c-.399752.073863-.710882.221549-.801302.479727l-.060394.012724ZM32.128292 121.697087c-.466238-.144639-.705903-.595004-1.415636-.485021a.79972035.79972035 0 0 1 .005172.990236 1.97131067 1.97131067 0 0 0 1.396061.569759c.5095.0151 1.01413.029075 1.5249.060884a2.56610268 2.56610268 0 0 1 1.602671.408188 1.87134562 1.87134562 0 0 0 1.315157.493615c.516158.061781 1.034859.143643 1.553859.228652.446773.073454.826512.032929.78445-.175827-.085323-.416763.273092-.591487.790269-.729536.188228-.050908.264461-.194376.44842-.253452.147767-.048969.532562.084038.43275-.207825a7.9612161 7.9612161 0 0 1-2.835669-.742265 8.71495253 8.71495253 0 0 0-1.5066-.473203 3.01194677 3.01194677 0 0 0-1.05007-.139975 2.57409988 2.57409988 0 0 1-1.425913-.09855c-.509541-.165928-1.026845-.12948-1.23154.179248a2.48413134 2.48413134 0 0 1-.430092.382855Zm236.292889-49.517633a5.23117075 5.23117075 0 0 0 2.689234-.133889 7.32843737 7.32843737 0 0 1 .698821-.231517 2.09926592 2.09926592 0 0 1 .694738-.067278c.548602.059016 1.102139.163289 1.6855.253932-.101785.151929-.058441.324046.191448.29046.772371-.105773 1.509761-.255536 2.229397-.421712.33037-.075527.758975-.176582.829746-.354143.108926-.253903.423108-.31265.753777-.38503.554787-.123205 1.127402-.225876 1.786114-.354827l-.628872-.28891.034235.029454c.494171-.122844.098876-.543498.469959-.741971a13.73319773 13.73319773 0 0 0 3.972762-.929025 1.53246412 1.53246412 0 0 1 .313628.07245 3.0539321 3.0539321 0 0 0 2.434086.295535 10.25141525 10.25141525 0 0 0 1.064338-.334834c.198575-.082375.49103-.149219.385211-.383989a2.2632086 2.2632086 0 0 0-1.21985-.493144 2.79902123 2.79902123 0 0 0-1.51019.164125 2.02129319 2.02129319 0 0 1-1.231357.364992c-.107042-.127325-.229668-.25825-.343901-.394418-.135282-.160524-.263071-.322395-.418428-.50705.675975-.261418 1.379524-.526726 2.13815-.817272a2.64407541 2.64407541 0 0 0-.491002-.30836 2.77902822 2.77902822 0 0 0-1.356978-.108275c-.497457.07489-.98645.161995-1.453044.267612a20.22892628 20.22892628 0 0 1-2.417308.395745 12.54261406 12.54261406 0 0 0-2.26595.371203 9.71760192 9.71760192 0 0 1-2.678506.407225 8.72195008 8.72195008 0 0 0-1.736049.293548c-.646725.134798-1.295025.276414-1.914407.43497-1.07901.27399-2.151877.552477-3.209462.844754a3.97261084 3.97261084 0 0 0-.751089.42669 20.67477038 20.67477038 0 0 0 3.419654.057414c-.049275.213306-.167464.342978-.091066.465276.268891.430441-.010192.67479-.489238.843193-.371817.130589-.807086.211637-1.284548.333211l-.317307.627442-.054858.050938Zm-157.99997-14.791358c-.353444.059937-.609932.117648-.887993.14883a8.29709864 8.29709864 0 0 1-1.127221.087411c-1.60253-.035726-3.243925-.16969-4.787219-.066563a7.18548735 7.18548735 0 0 1-1.06844-.08266 14.04009041 14.04009041 0 0 0-3.514014.062373c-.320325.05425-.762255.101954-.706738.452325a3.71570068 3.71570068 0 0 0 1.81476.538234 2.46913658 2.46913658 0 0 1 .903144.114242 4.29849689 4.29849689 0 0 0 3.1337.202708 4.87829414 4.87829414 0 0 1 1.740788-.043141c.666456.086241 1.341435.255503 2.013279.371716a2.70805304 2.70805304 0 0 0 .727457.0398c.225311-.0249.373996-.157787.6032-.16845a6.84460656 6.84460656 0 0 1 .748118.123573 1.9263264 1.9263264 0 0 0 1.400291-.247993c.012047-.260893.025441-.514293.03861-.766719-.32086-.232121-.633478-.46439-1.031722-.765686Zm73.421197-.818396c-1.009478-.391196-1.015994-.402961-1.27292-.39665-.895829.009539-1.804391-.001305-2.671832.049675a6.69765794 6.69765794 0 0 1-1.9767-.103694 1.89933583 1.89933583 0 0 0-1.135975.032038 3.29884645 3.29884645 0 0 1-.790886.141509c-1.157575.125542-2.270056.304592-3.476544.36651-.29072.01492-.556048.066485-.832087.102238s-.408607.134402-.247403.30707a1.08162177 1.08162177 0 0 0 .486369.252913 35.57456017 35.57456017 0 0 0 4.001857.299634.77472909.77472909 0 0 0 .393082-.067196c.581506-.323254 1.66013-.213618 2.203357-.575468a1.49947566 1.49947566 0 0 1 .567277-.021826 29.0568393 29.0568393 0 0 0 4.086176-.149759 2.64707436 2.64707436 0 0 0 .666229-.236994Zm64.317638 14.535614a19.62813637 19.62813637 0 0 0 2.308797-.321292c1.171928-.312032 2.35367-.617693 3.51878-.9313-.074879-.213259-.144817-.407935-.23512-.6699-.570723.018978-1.071309.014145-1.530546.056825-.518281.04956-.994091.1551-1.504358.218823a4.55740635 4.55740635 0 0 1-1.887273.055471 2.9669625 2.9669625 0 0 0-1.711793.050865c-.274701.083257-.558467.161342-.886294.25695a3.16589294 3.16589294 0 0 0-1.607002-.473825c-.54113.032996-1.2192-.051824-1.477267.363588a5.04323646 5.04323646 0 0 0 2.418825.188386 5.53906308 5.53906308 0 0 1 .827325.415806 2.0692764 2.0692764 0 0 0 .882988.45021 7.18548735 7.18548735 0 0 1 .882938.339393Zm-125.587043 60.292682a3.26985659 3.26985659 0 0 0 .743555.42313 3.88164265 3.88164265 0 0 0 1.224422.153576 21.77638516 21.77638516 0 0 1 2.694524-.001342 11.24106919 11.24106919 0 0 0 1.458618-.065233c.514536-.055555.748877-.252785.50568-.656771a7.1624954 7.1624954 0 0 0-.875644-.122253c-1.211189-.024324-2.39722.028982-3.624354-.059558a3.54076185 3.54076185 0 0 0-2.126801.328451Zm149.26155-65.209684c-.96455-.265908-1.71609-.499025-2.478732-.6752a1.52246762 1.52246762 0 0 0-1.40792.18775 1.18958402 1.18958402 0 0 1-.178672.20496c-.625733.412557-.542559.723148.473648 1.178483a2.36817189 2.36817189 0 0 0 .316846.089609 4.34348116 4.34348116 0 0 0 3.2797-.984477Zm5.866255 7.005193a4.46044026 4.46044026 0 0 0-2.780946-.193038 14.64687823 14.64687823 0 0 1-2.136775.367186c-.952644.100038-1.449024.38345-1.261112 1.071172.468675-.03024.917787-.02909 1.308021-.09284.943665-.154437 1.865307-.333455 2.78575-.511724a5.65702183 5.65702183 0 0 0 2.089932-.639631ZM184.833456 56.28565a.94267036.94267036 0 0 0 1.17316.539813 17.71580508 17.71580508 0 0 1 3.177096-.18945c.51924.01735.980502-.034096 1.158665-.307914a1.47148545 1.47148545 0 0 0-1.17909-.491936 2.54011177 2.54011177 0 0 0-.870357.023631 3.12790622 3.12790622 0 0 1-1.531902.089343 2.89898627 2.89898627 0 0 0-1.927572.336513Zm111.941772 10.083826a2.36217399 2.36217399 0 0 0 .464468.019061q2.54712-.566849 5.071542-1.155357c.138622-.031588.197089-.138121.310248-.223812a1.8213631 1.8213631 0 0 0-1.23386-.166016 13.38531938 13.38531938 0 0 1-1.348053.18619c-.570877.03741-1.175086.028133-1.786942.038635-.410106.46955-1.581838.576432-1.477403 1.301299Zm-46.503019 8.858795a.8916882.8916882 0 0 0 .820866.150638c1.04841-.141526 2.106483-.271586 3.129948-.438368a5.5690526 5.5690526 0 0 0 1.7627-.524392c.051631-.028086.023625-.10227.033312-.1975a3.03693803 3.03693803 0 0 0-1.999383-.192038 3.68171257 3.68171257 0 0 1-1.119468.262592 3.45979017 3.45979017 0 0 0-1.346286.325105 12.04578779 12.04578779 0 0 0-1.281689.613963ZM44.452308 73.606335c-.580211-.104279-.997009-.196458-1.410894-.247951-.504769-.062228-.932581.177517-.865136.462929.056293.231537.164584.46893.210912.699191.038471.184329.249595.274139.512797.347252a3.64372585 3.64372585 0 0 0 2.309066-.184775c.343038-.099276.354437-.47728.01349-.680184-.277418-.162579-.593278-.305311-.770235-.396462Zm-3.215759-11.132923a3.1988814 3.1988814 0 0 0-1.944343-.718987c-.409915-.046472-.80591-.019962-1.2165-.063512-.326299-.035364-.677472-.078526-.790572.077971s-.283225.337782.115037.559056a8.43605005 8.43605005 0 0 0 3.836378.145472Zm220.6476 8.16722a9.49667917 9.49667917 0 0 0 3.527102.0453c.177212-.043193.239584-.188837.352595-.28277-.919319-.488356-.921791-.490979-1.459987-.510656a2.74803906 2.74803906 0 0 0-2.418736.748351ZM25.53129 88.973197a2.28420125 2.28420125 0 0 0-.40946.262452c-.172147.176714.06351.457893.435359.518143a6.98655692 6.98655692 0 0 0 2.525258.025219c.224118-.050825.197338-.245791-.072596-.369706a2.78302682 2.78302682 0 0 0-.7125-.24667c-.570625-.083597-1.137588-.125309-1.766061-.189438Zm12.73261 31.110519a14.23502225 14.23502225 0 0 1-1.912041-.756668.83170917.83170917 0 0 0-.707885-.111201c-.229068.072253-.179874.219046-.120117.373409a1.07962247 1.07962247 0 0 0 .824891.577348 4.3464801 4.3464801 0 0 0 1.517904.184437c.174808-.015021.252391-.164333.397248-.267325Zm241.75015-35.66106c-.531272.176858-1.049127.331166-1.51986.516879a.19193288.19193288 0 0 0-.0675.2922 1.13860185 1.13860185 0 0 0 .537559.186764 2.0352883 2.0352883 0 0 0 .698181-.051093c.55225-.16996 1.078806-.366375 1.601315-.558595.03904-.013553-.028524-.103031-.061693-.208161ZM58.531902 114.612687a7.10451567 7.10451567 0 0 0-3.19407-.29668.17193988.17193988 0 0 0-.134164.198826.43084934.43084934 0 0 0 .243911.227683 4.00459966 4.00459966 0 0 0 3.084323-.129829Zm-22.20985 1.987612c-.0749-.1199-.156088-.265876-.25908-.410733a1.31853893 1.31853893 0 0 0-.241356-.26095 1.43849698 1.43849698 0 0 0-.983352-.286667c-.29043.058078-.4742.276224-.299591.47969a1.930325 1.930325 0 0 0 .679913.552065A1.09961548 1.09961548 0 0 0 36.325199 116.6Zm59.017032-58.535933c.59814.008901 1.194628.033836 1.771719.018381.231226-.006092.448008-.087339.347873-.275653a.7827263.7827263 0 0 0-.611263-.294076c-.259839-.034375-.522073-.080589-.777794-.101701-.709395-.060251-.890678.093833-.728362.652525ZM42.2567 123.673616a4.0825724 4.0825724 0 0 0 1.825157.617584c.293556.034982.446649-.041484.487294-.195225.048443-.178615-.13434-.351138-.479059-.440004a2.81701494 2.81701494 0 0 0-1.833392.017645Zm88.871163 7.065898c-.102028.232925-.057565.426846.390617.565262a1.30654312 1.30654312 0 0 0 .933833-.080786c.311645-.105502.447825-.273083.195317-.587908Zm-60.445008-.676775a4.89828715 4.89828715 0 0 0 .626455-.291325c.178278-.118869-.067128-.362287-.404058-.436016a1.85435156 1.85435156 0 0 0-1.1353.029116c-.1154.05542-.11805.177925-.191956.302437.393185.141101.725085.258811 1.101937.395113Zm-35.099374-5.397542c.058759.260834.309725.43577.732619.408292.544203-.037416 1.046385-.13276 1.613899-.208908a3.48778038 3.48778038 0 0 0-2.34944-.200059Zm9.483689-48.444222c-.001486-.055746-.000799-.112016-.006181-.168662-.016599-.154653-.3171-.292811-.549608-.25008a1.38051726 1.38051726 0 0 0-.355851.101446c-.23657.113611-.163032.292703.023872.465152a.86569728.86569728 0 0 0 .391835.146945c.29985.034384.402677-.086525.468492-.215984a.33188395.33188395 0 0 0 .027441-.078817Zm-9.359533 37.776073a1.4924781 1.4924781 0 0 0 1.375975.26143c-.415787-.589544-.475426-.602295-1.376049-.265551Zm259.158754-31.649825c-.400767-.07719-.592494-.12661-.776885-.145608-.370505-.03942-.69427-.014692-.828881.172745-.027956.036633.015483.119512.077138.163508.373826.264876.652968.091333.938895.066072.186647-.017416.305656-.128431.588984-.257916ZM45.832578 62.101834a2.09926592 2.09926592 0 0 0 .519763.357069 1.96831171 1.96831171 0 0 0 .723037.036727c.227638-.043856.292935-.202162.120863-.358873a.69075845.69075845 0 0 0-.66936-.166938c-.157057.044771-.343855.067282-.694303.132015Zm-9.919841 48.78669c.337664.141613.595759.267923.874166.364042a.46483745.46483745 0 0 0 .497004-.059605c.095707-.112294-.043536-.31785-.287332-.390584a1.14859835 1.14859835 0 0 0-1.082864.086372Zm4.542238 14.255653a2.23421873 2.23421873 0 0 0-1.075867-.374727c-.172517.156109-.28165.330964.174016.508044a1.34053124 1.34053124 0 0 0 .579468.076406c.151133-.023568.220616-.137816.323357-.209498Zm255.729083-43.135852c-.331775-.340318-.331775-.340318-.522765-.335191-.697799.01835-.775959.068009-.68277.490693Zm-32.969565-8.772448c-.025463-.054103-.026496-.125134-.085756-.157291-.351516-.1838-1.052545-.129261-1.07342.072138a.1109612.1109612 0 0 0 .05468.07419c.325508.220883.945153.225518 1.104795.01411ZM105.024166 60.632044a1.89133863 1.89133863 0 0 0 .206427-.347315c.008775-.037986-.086209-.142006-.137532-.150784a1.01964345 1.01964345 0 0 0-.407825-.011106c-.248252.084237-.165936.212006.33893.509205Zm-53.810476 50.07193c-.011925.051622-.051572.098892-.033975.147074a.34987765.34987765 0 0 0 .398185.23049c.10505-.010616.207646-.103877.202492-.174834-.011356-.14626-.232605-.19224-.443445-.212218a.7867249.7867249 0 0 0-.122283.009713Zm64.665534 20.486617a2.42615162 2.42615162 0 0 0-.455989-.073531c-.162519.010678-.458316-.054575-.395421.1395.427186.21154.658803.132694.852384-.065744Zm143.996698-57.399357a3.4228031 3.4228031 0 0 0-.513298-.118575 1.62043336 1.62043336 0 0 0-.361387.063232 2.81101703 2.81101703 0 0 0 .489158.178661c.094478.021825.193249-.054878.385527-.123318ZM47.92965 110.663524c.091861-.002377.221631.013237.262323-.01635s-.009642-.104825-.021469-.155778l-.362426.018875Zm147.538375-59.526786c.014616-.023299.053508-.045094.042649-.069148s-.074693-.040852-.115074-.061466l-.049029.118973Zm81.842808 44.619213c-.018586.018278-.045938.034531-.048715.055435s.056039.028335.085632.042353c.016638-.018728.04399-.034981.046767-.055885s-.047273-.02631-.076866-.040328ZM88.130356 133.36375l.074335-.033101-.095825-.029318Zm70.504719-74.675016-.057999.024563.073423.024143Z" fill="#183668"/></svg>