<svg xmlns="http://www.w3.org/2000/svg" width="814.064" height="487.969"><path data-name="패스 1" d="M691.038 95.794c1.153-1.2 2.988-1.941 2.541-4.206-.1-.506.518-1.206.906-1.741.624-.871 1.329-1.682 2-2.517l-1.518-1.147a12.126 12.126 0 0 1 5.327-4.631 5.012 5.012 0 0 1 2.723.147c.641.129 1.194.641 1.835.818a2.631 2.631 0 0 0 2.653-.541c.494-.465 1.182-.794 1.512-1.341 1.982-3.335 5.559-4.617 8.529-6.658a7.574 7.574 0 0 1 4.494-1.694 2.784 2.784 0 0 0 1.523-.471 7.292 7.292 0 0 1 5.025-1.06 5.129 5.129 0 0 0 3.029-.871 35.793 35.793 0 0 1 8.123-3.412 39.747 39.747 0 0 0 8.817-3.976c3.535-1.965 7.441-3.229 10.723-5.676a6.882 6.882 0 0 1 2.188-.982 23.5 23.5 0 0 0 6.847-3.394 24.106 24.106 0 0 1 6.858-3.4c1.676-.488 3.394-1.029 4.312-2.759a.6.6 0 0 1 .27-.294c3.894-1.488 7.07-4.406 11.2-5.476a73.324 73.324 0 0 0 7.588-2.641c.582-.224.988-.888 1.518-1.294 1.582-1.194 2.924-2.829 5.211-2.723a1.135 1.135 0 0 0 .9-.653c.229-1.671 2.088-2.059 2.7-3.67l-1.378-1.727a10.24 10.24 0 0 1 1.207-1.052c.665-.424 1.388-1.029 2.229-.535 1.171.688.129 1.7.253 2.57l2.665 2.218-.006-.118c.571 2.835.135 5.282-2.476 7.017-1.447.965-2.812 2.053-4.223 3.082-.441.324-.835.665-.541 1.294l-.223-.124.135.012 1.953.306-.565 1.37.1-.118c-1.988.306-4.088.318-5.935 1-1.724.641-3.17 2.018-4.765 3.029-3.641 2.312-7.305 4.594-10.941 6.911a27.618 27.618 0 0 1-4.282 2.229 43.33 43.33 0 0 0-5.206 3.117c-3.017 1.788-6.064 3.523-9.082 5.306-2.206 1.3-4.447 2.553-6.564 3.982a11.047 11.047 0 0 1-5.206 2.018 8.052 8.052 0 0 0-2.317.594c-4.553 1.982-9.217 3.759-13.282 6.717a3.746 3.746 0 0 0-.535.788l2.976.882-.094-.112c.206.812-.306 1.253-.877 1.635-1.235.829-2.476 1.635-3.788 2.5a26.155 26.155 0 0 1-.582 2.747c-.529 1.641-.771 3.047.906 4.335.865.659.506 1.97-.447 2.788a21.5 21.5 0 0 1-2.876 2.259 5.731 5.731 0 0 0-2.723 4.259 11.716 11.716 0 0 1-1.335 4.17c-.218.376-.035.988-.035 1.306.853.635 1.118.024 1.565-.176 1.565-.694 3-1.323 4.976-.618a10.944 10.944 0 0 0 5.535.347 28.841 28.841 0 0 1 4.97-.059l-.359 2.894c1.882.218 3.47-.818 5.447-.759.088.706.235 1.447.265 2.2.088 2.206.894 3.923 3.047 4.817a5.034 5.034 0 0 1 .935.641 24.611 24.611 0 0 1-.47 12.529c.917 2.188 2.4 3.947 2.023 6.829-1.059 1.276-2.341 3-3.806 4.559a27.557 27.557 0 0 0-4.217 6.382c-.735 1.423-1.4 2.888-2.235 4.611.341 1.294 3.053 1.323 2.276 3.97a4.911 4.911 0 0 1-5.059 1.382 6.671 6.671 0 0 0-4.335.053c-1.541.494-3.141.782-4.7 1.153a4.24 4.24 0 0 0-.759 1.012c-1.323 3.67-4.235 5.094-7.811 5.247a6.378 6.378 0 0 0-5.417 3.017 17.115 17.115 0 0 1-3.341 3.494c-1.529 1.323-2.87 2.859-4.294 4.306a46.94 46.94 0 0 1-6.947 6.176c-2.788 1.9-5.364 4.106-8.011 6.2-.165.129-.147.482-.218.759.459.918 1.312.718 2.076.647 1.347-.129 2.776-.188 3.829-1.153 2.935-2.682 6.629-4.064 10.429-6.323a8.96 8.96 0 0 0-.777 2.347 4.9 4.9 0 0 0 .618 1.906c.329.735.753 1.435 1.118 2.123a24.208 24.208 0 0 0-.706 2.788 25.418 25.418 0 0 0-.024 3.029 7.477 7.477 0 0 0-2.441 5.111 10.2 10.2 0 0 1-.982 3.059c-1.324 3.57-.329 5.576 3.394 6.77.753.241 1.529.412 2.47.659-.682 1.053-1.312 2.029-2.082 3.223a15.6 15.6 0 0 0-2.276.029 5.222 5.222 0 0 0-1.882.665 2.069 2.069 0 0 0-1.042 2.732 1.891 1.891 0 0 0 3.006.906c1.394-1.023 3.047-1 4.505-1.671a4.433 4.433 0 0 1 2.359-.441c1.588.235 2.547-.6 3.506-1.6a18.211 18.211 0 0 1 4.788-3.617c1.735-.906 3.082-2.553 4.594-3.876a18.63 18.63 0 0 1 1.512-1.306 2.668 2.668 0 0 1 3.382-.035c.647.482 1.335.912 1.959 1.335.923 2.688-.882 4.406-2.159 6.553.823.482 1.594.918 2.341 1.382 1.147.712 2.57-.2 3.806.906.924.823 2.506.882 3.747 1.382s2.43 1.147 3.653 1.688a5.916 5.916 0 0 0 1.159.265c1.812-1.741 1.812-1.741 3.653-1.765.806.753.082 1.518-.041 2.253-.218 1.329-.618 2.629-.829 3.959a3.71 3.71 0 0 0 .118 1.97c.682 1.588 1.524 3.106 2.318 4.688 2.376-.565 3.159-4.041 6.147-3.129a1.449 1.449 0 0 1 .018 1.859c-1.117 1.947-1.665 4.317-4.112 5.282a2.74 2.74 0 0 0-1.335 1.494c-.971 2.694-3.535 3.953-5.276 5.953a7.678 7.678 0 0 1-2.735 1.653 9.085 9.085 0 0 0-5.018 5.011 7.1 7.1 0 0 1-1.347 1.976 14.677 14.677 0 0 0-2.306 2.77c-.388.712-1.506 1.029-2.488 1.647-.582 2.835-1.529 5.753-4.194 7.664-2.612 1.87-2.629 1.841-5.253 1.635a5.9 5.9 0 0 0-.529-1.388c-.265-.394-.712-.882-1.117-.918-.441-.041-.947.353-1.371.635a1.361 1.361 0 0 0-.388.7c-.447 1.341-.877 2.688-1.435 4.429 3.082-.9 5.976-.688 8.688-2.376a11.121 11.121 0 0 1 7.423-1.482c1.365.206 2.653.476 2.888 2.282.071.547.788 1.018 1.229 1.506.518.571 1.065 1.118 1.759 1.841-.594.324-.918.659-1.212.629a6.366 6.366 0 0 0-4.217 1.041c-2.729 1.712-5.917 2.676-8.241 5.053a3.868 3.868 0 0 0-3.335 2.535c-.076.206-.4.359-.641.441-3.353 1.129-5.917 3.594-9.146 5.276a3.916 3.916 0 0 1-3.082-1.265c-.876-1.123-2.064-1.112-3.317-.959-5.147.624-9.176 2.935-11.735 7.582-.976 1.765-.729 2.347 1.482 3.076.253.088.506.194.753.288l-.106-.106c.294 1.294 1.612 1.106 2.406 1.671l-.065-.094a1.84 1.84 0 0 1-1.935 1.071c-3.076-.324-5.688.712-8.305 2.429-4.176 2.741-7.77 6.211-11.852 9.076-2.923 2.053-5.135 5.129-7.647 7.758a1.274 1.274 0 0 0-.382.706 6.819 6.819 0 0 1-4.288 5.876 3.068 3.068 0 0 0-1.394 1.429c-.935 2.223-2.688 3.559-4.588 4.894a9.712 9.712 0 0 0-3.988 5.382c-.729 2.523-3.029 4.035-4.782 5.87-.741.776-1.659 1.382-2.459 2.112a4.488 4.488 0 0 1-2.515 1.197 21.167 21.167 0 0 0-4.153 1.441 22.044 22.044 0 0 0-4.241 2.229 8.352 8.352 0 0 1-2.935 1.259 16.956 16.956 0 0 0-6.029 2.217 30.06 30.06 0 0 1-4.5 1.806 12.179 12.179 0 0 0-2.611 1.048 9.407 9.407 0 0 1-3.559 1.606 9.481 9.481 0 0 0-3.523 1.876 5.092 5.092 0 0 1-3.741 1.182c-1.741-.176-3.506-.229-5.235-.512a7.722 7.722 0 0 0-4.694.506 27.348 27.348 0 0 1-6.241 1.659c-1.359.241-2.671.359-3.635 1.5a2.769 2.769 0 0 1-.971.712q-5.011 2.144-10.046 4.241a15.049 15.049 0 0 0-1.906.618c-3.029 1.794-6.435 2.729-9.588 4.264-2.741 1.335-5.453 3.017-8.635 3.353a1.979 1.979 0 0 0-1.1.453c-3.088 2.9-7.276 3.423-10.964 4.97-4.841 2.029-9.976 3.365-14.875 5.276-5.506 2.153-10.876 4.635-16.329 6.917-1.723.723-3.517 1.265-5.276 1.894-2.282.818-4.641 1.482-6.823 2.506-2.2 1.029-4.694 1.223-6.741 2.588a1.9 1.9 0 0 1-.747.318c-4.97.712-9.341 3.329-14.193 4.47-2.453.582-4.717 1.912-7.082 2.87-1.124.453-2.288.812-3.423 1.229-3.388 1.259-6.753 2.582-10.17 3.764-2.029.706-4.159 1.153-6.211 1.806a32.282 32.282 0 0 0-3.335 1.4c-1.229.553-2.4 1.282-3.67 1.706-4.594 1.535-9.229 2.959-13.834 4.459a12.793 12.793 0 0 0-1.788.912c-3.135 1.594-6.223 3.1-9.952 3.029-1.941-.035-3.923.9-5.853 1.494-2.7.829-5.294 2.041-8.158 2.247-.135.012-.335-.059-.4.006-1.765 1.894-4.547 1.594-6.476 2.906a28.414 28.414 0 0 1-7.758 3.376c-2.688.853-5.37 1.876-8.252 2a2.429 2.429 0 0 0-1.182.212c-3.418 2.135-7.511 2.006-11.152 3.376a2.721 2.721 0 0 1-1.176.253c-1.582-.153-3.064-.635-4.629.518-1.106.818-2.729.682-4.088 1.312a35.385 35.385 0 0 1-5.823 1.653c-1.923.512-3.911.8-5.653 1.888-1.994 1.235-4.053 2.312-6.211 1.2-2.765 1.947-5.4 3.1-8.482 3.012a4.123 4.123 0 0 0-1.435.506 65.335 65.335 0 0 1-10.3 3.382c-4.982 1.106-9.9 2.523-14.87 3.717-.647.159-1.235.535-1.876.753-2.747.935-5.229 2.717-8.417 2.323-.882-.106-1.876.829-2.847 1.218-4.358 1.753-8.964 2.676-13.47 3.947a9.38 9.38 0 0 0-1.165.3 27.059 27.059 0 0 1-9.294 2.329c-1.706.123-3.347.976-5.047 1.4-4.97 1.235-9.976 2.341-14.923 3.682-1.435.388-2.853.076-4.317.553-3.059.988-6.264 1.512-9.417 2.2a9.709 9.709 0 0 1-2.794.459c-2.647-.241-4.911 1.253-7.47 1.5a3.5 3.5 0 0 0-3.029 2.888c-.241 1.229.771 2.464 2.629 3.159a6.668 6.668 0 0 0 2.37.441 52.156 52.156 0 0 0 5.676-.276c2.4-.276 4.764-.806 7.164-1.082a4.358 4.358 0 0 1 2.3.506 23.725 23.725 0 0 1 2.735 1.929c-.418.382-.729.906-1.165 1.041-2.435.741-4.741 1.976-7.405 1.894a12.974 12.974 0 0 0-2.747.518c-3.318.629-6.617 1.376-9.952 1.835a24.431 24.431 0 0 1-4.664-.182 7.559 7.559 0 0 1-2.359-3.412c-.735-2.423-2.135-4.623-2.594-7.182a2.446 2.446 0 0 0-1.276-1.471 8.382 8.382 0 0 0-5.858-1.012c-1.706.424-3.447.712-5.182.971-2.429.365-4.135-.847-5.453-2.729-2.582-3.694-3-3.835-7.323-2.512a10.567 10.567 0 0 1-3.135.665 17.991 17.991 0 0 0-6.317 1.347 45.915 45.915 0 0 1-11.182 2.988c-2.106.2-4.129 1.212-6.211 1.788a7.735 7.735 0 0 1-8.635-3.706 4.268 4.268 0 0 1-.271-1.565c-.053-.8 0-1.606-.071-2.406-.218-2.559-1.406-3.835-3.917-3.37-3.529.653-6.9-.829-10.388-.329-1.406.206-2.265-.871-2.682-2.059a2.845 2.845 0 0 0-2.671-2.118l-.529-2.265c.135-.294.176-.612.353-.753 1.376-1.088 2.835-2.082 4.153-3.235a7.183 7.183 0 0 0 1.129-1.894c-1.717-.823-3.559.059-4.953-1.335l.818-1.476c-3.712-1.176-3.712-1.176-6.664.153v3.435c-1.817.641-3.294.882-4.464-.835-.188-.276-.706-.329-1.077-.482a3.264 3.264 0 0 0-2.029-2.3 6.244 6.244 0 0 1-1.923.453c-2.159-.212-4.194-.206-5.994 1.318a3.184 3.184 0 0 1-1.912.318c-1.594-.029-3.188-.224-4.788-.218-1.065.006-1.741.618-1.765 2.041a19.714 19.714 0 0 0 3.841.606 63.611 63.611 0 0 0 9.235-.724c1.759-.312 3.876.3 5.282-1.423l.106 2.359c-1.076 1.418-2.682 1.718-4.288 1.888-2.006.212-4.023.312-6.035.412a4.183 4.183 0 0 0-3.465 1.394c.335.453.724 1.382 1.076 1.376 1.459-.047 2.829.824 4.365.212 1.806-.723 3.706-.253 5.553.041.2.035.353.376.676.747-.465.412-.876 1.071-1.412 1.206-3.218.794-6.406 1.847-9.788 1.606-1.682-.124-3.517.394-4.929-1.041.894-.659 1.094-2.165 2.594-2.141.118.006.382-.676.329-.994a1.358 1.358 0 0 0-.659-.941c-2.276-.794-4.7-.888-6.506.741a7.464 7.464 0 0 1-3.176 1.447c-2.418.765-4.729 1.524-6.729 3.353a5 5 0 0 1-5.588.959v-6.347c5.859-1.706 5.023-1.941 5.435-5.57l-.112.147c.606-.324.565-.647-.006-.965l.118.076a4.2 4.2 0 0 0 .059-1.206c-.112-.477-.282-1.147-.629-1.306-.388-.182-1 .106-1.506.218a.529.529 0 0 0-.318.235c-1 2.794-3.623 3.123-5.894 3.429a69.225 69.225 0 0 0-12.552 2.776 34.63 34.63 0 0 1-5.076.906c-.094 2.006 1.623 1.153 2.323 1.829 1.112 1.394.794 3.029.682 4.876-1.423 1.141-2.97 2.382-4.7 3.764-.876-.829-1.629-1.541-2.559-2.423-.6.282-1.635.418-1.906.953-1.576 3.076-4.653 3.106-7.376 3.882-2.429-.788-4.765.412-7.159.341-.388-.006-.782 0-1.065 0-.918-.759-1.288-1.535-.688-2.541.753-1.265 1.506-2.529 2.27-3.817a3.432 3.432 0 0 1 3.459.047 3.586 3.586 0 0 0 2.729.188c.023.3-.124.806.482.394l-.559-.324c.618-.929 1.265-1.841 1.841-2.8a7.793 7.793 0 0 0 .506-1.388c2.024.324 4.047.647 6.082.971l2.206-1.724.124.182-.2-.106.818-1.665.188-.153-.1.241a5.094 5.094 0 0 1-1.594-.088c-1.665-.618-3.088-.6-4.335.918-.188.229-1.118-.153-1.882-.288l-1.218 1.818a8.17 8.17 0 0 0-1.9-1.494 6.607 6.607 0 0 0-3.8-.553 39.618 39.618 0 0 1-5.841.594c-1.771.065-3.97.741-4.676 2.576-.982 2.529-3.3 2.917-5.076 4.253-.829-.806-1.547-1.506-2.265-2.2l-.047.041a6.736 6.736 0 0 0-.159-1.559 1.265 1.265 0 0 0-1.647-.794c-.629.188-1.171.776-1.794.865-1.306.176-.565 1.329-1.194 2.029a43.224 43.224 0 0 0-5.258.882c-1.676.482-3.364.818-5.059 1.2-2.623.588-4.453-.171-5.6-2.676a4.348 4.348 0 0 0-1.617-1.729 32.882 32.882 0 0 0-4.27-2.312c-1.947-.865-3.959-1.6-5.97-2.306a4.421 4.421 0 0 0-1.588.053l.088-.076-.212-1.376h-.482l-.212 1.365.071.053c-.976-.294-2.018-.171-2.735-1.341-.588-.965-1.788-1.553-2.788-2.365.018-1.229.618-2.641-.694-3.682-1.012-.806-.282-1.735-.118-2.812a8.289 8.289 0 0 0 4.27-3.312c.635-1.094 1.947-1.8 2.929-2.706s2.506-.876 3.265-2.235a13.818 13.818 0 0 1 2.176-2.482c3.735-.394 4.129.724 7.864 3.729.706-.294 1.429-.641 2.182-.9a3.344 3.344 0 0 1 2.282.018 69.108 69.108 0 0 0 7.052 1.518l-.235 1.112-.588.141.477-.177a4.072 4.072 0 0 0 3.676-2.035 8.558 8.558 0 0 1 3.729-2.865 10.327 10.327 0 0 1 7.441-.212 17.617 17.617 0 0 0 4.276.447c3.765.282 7.447-1.006 11.2-.341a2.38 2.38 0 0 0 1.147-.306c.718-.276 1.171-1.088 2.141-.882a28.9 28.9 0 0 1 3.841.647 3.229 3.229 0 0 0 3.412-.253c.988-.8 1.947-.559 3.029-.288a5.637 5.637 0 0 0 4.994-.706l-.1.124c1.935-.641 3.888-.112 5.835-.124.671-.006 1.347.241 2.017.212 4.741-.194 9.611-.129 12.276-5.77l-.6-1.629a2.583 2.583 0 0 0-.835-.265c-2 .206-3.988.494-5.994.618a1.5 1.5 0 0 1-1.165-.841 1.575 1.575 0 0 1 .553-1.388 23.578 23.578 0 0 1 3.312-1.482 4.12 4.12 0 0 0 2.129-2.318 2.289 2.289 0 0 0-.306-2.635 1.241 1.241 0 0 1-.076-1.018c.306-.794.718-1.547 1.259-2.676a18.313 18.313 0 0 1 1.582 2.588 5.748 5.748 0 0 0 6.294 3.994 46.259 46.259 0 0 1 5.817.388c.812-.665 1.735-1.418 2.535-2.071.735-1.57.159-3.5 2.041-4.547a25.356 25.356 0 0 1 5.729 6.317 7.542 7.542 0 0 0 7.694-.788 10.127 10.127 0 0 1-.259-1.741 7.461 7.461 0 0 1 4.159-6.805c1.07-.576 2.235-.918 2.953-1.912.029-.188.112-.347.065-.447-.406-.959-.835-1.912-1.323-3.018a64.417 64.417 0 0 0-15.964 1.9c.124 1.588.829 1.618 1.735 1.506a1.122 1.122 0 0 1 .935.494 1.164 1.164 0 0 1-.235 1.041 4.079 4.079 0 0 1-6.006.318 8.665 8.665 0 0 1-1.494-1.347 2.759 2.759 0 0 0-3.123-1.265 4.187 4.187 0 0 1-2.682-.471 2.445 2.445 0 0 0-3.741 1.782c-.471 1.859-1.447 2.235-3.123 2.418a14.793 14.793 0 0 1-7.858-1.565 10.935 10.935 0 0 0-6.247-1l.165.147 2.365-1.429a36.282 36.282 0 0 0 .294-3.723 10.921 10.921 0 0 1 .665-5.111c.524-1.147-.106-2.829-.223-4.365-3.482-1.176-6.776-.682-10.052.2a2.334 2.334 0 0 0-1.235.888c-1.565 2.441-4.141 2.865-6.641 3.4-2.341.506-4.776.247-7.135.941-2.076.618-3.912-.506-5.606-1.594-2.223.953-4.306 1.882-6.423 2.741a5.773 5.773 0 0 0-2.306 2.188 2.949 2.949 0 0 1-3.523 1.318 2.069 2.069 0 0 0-2.229.412 3.236 3.236 0 0 1-3.441.347c-.876-.359-1.759-.694-2.618-1.094-.965-.447-1.823-1.253-3.012-.924-1.429.388-2.847.794-3.67 2.212a1.123 1.123 0 0 1-.418.359c-1.512.224-2.817.323-4.076.635-1.294.318-2.512.9-3.8 1.259-2.553.7-4.341-.135-5.517-2.653-.418-.9-1.47-1.665-.888-2.941.053-.118-.694-.6-1.071-.912a14.494 14.494 0 0 1 5.612-1.794 28.649 28.649 0 0 0 5.853-1.512 1.435 1.435 0 0 0 .988-1.935 2.837 2.837 0 0 1 .176-2.929 18.023 18.023 0 0 0 2.829-.835 7.15 7.15 0 0 1 7.3.624 6.058 6.058 0 0 0 5.788.588 18.052 18.052 0 0 1 6.364-.847 41.535 41.535 0 0 0 4.417-.424c.941-.106 1.87-.294 2.812-.353 3.641-.235 7.3-.282 10.923-.676a19.5 19.5 0 0 0 7.988-2.617 2.272 2.272 0 0 1 2.635-.071 2.435 2.435 0 0 0 1.453.429c3.023-.412 6.188-.382 8.882-2.535a20.551 20.551 0 0 0-.024-2.753c-.229-1.741-.965-2.376-2.894-2.747-.135-.023-.271-.006-.406-.035-4.429-.876-5.206-2.576-3.135-6.911.929-.012.929.706 1.059 1.335.053.265.065.647.229.753a3.942 3.942 0 0 0 1.718.771c.288.018.871-.718.888-1.129a9.448 9.448 0 0 1 2.747-6.258c1.994.259 3.847.494 5.57.718 1.094-1.082 1.629-2.088 3.347-2.165 3.388-.147 3.512-.271 2.329 2.906-.6 1.612.118 2.682 1.876 2.523a8.514 8.514 0 0 1 3.97.412 6.474 6.474 0 0 0 2.394.147 14.183 14.183 0 0 1 8.117 1.865 13.667 13.667 0 0 0 2.706.982c.635 1.141 1.276 2.317 1.976 3.576a41.043 41.043 0 0 0 16.046-.635 5.418 5.418 0 0 0 3.282-2.129c1.576-2.823 4.535-3.712 6.805-5.529.729-.588 1.629-.976 2.312-1.612.271-.253.376-1.153.171-1.335a1.722 1.722 0 0 0-1.459-.276c-.459.147-.759.735-1.182 1.047a13.829 13.829 0 0 1-1.512.859 18.034 18.034 0 0 0-5.458-4.07c-1.329-.582-1.606-2.365-1.959-3.747-.594-2.359-.988-4.764.059-7.141.159-.365.118-.823.294-1.171 1.059-2.1-.753-3.441-1.376-5.076-.135-.353-.888-.588-1.388-.659-.659-.094-1.365.135-2.018.029a2.958 2.958 0 0 1-1.759-.729 6.269 6.269 0 0 0-4.788-2.535 7.158 7.158 0 0 1-5.129-2.888c-.888-2.776.076-4.97 2.018-6.964a19.051 19.051 0 0 1 4.806-4.176 15.736 15.736 0 0 0 3.806-2.982c1.282-1.294 2.029-2.847 1.106-4.782a11.323 11.323 0 0 1-.524-2.565c-1 .088-2.041-.1-2.759.294-1.3.718-3.247-.088-4.023 1.741-.312-.206-.841-.365-.894-.629a13.944 13.944 0 0 1-.476-5.941c.582-2.806-.535-4.835-3.17-6.211-1.894-.988-4-1.718-4.941-3.888a34.777 34.777 0 0 1 1.876-4.823c.906-1.606 3.053-.794 4.382-1.77.618-.459 1.318-.8 2.1-1.265a6.87 6.87 0 0 0-4-1.259c-1.794-.153-3.735.206-5.264-1.406-.529-.553-1.747-.441-2.694-.647l.206-2.723c-.935-.4-1.894-.806-3.035-1.288.041-.8.053-1.588.129-2.365.147-1.565-.112-1.982-1.494-2.206-.535-.088-1.082-.088-1.617-.135-.353-.035-.7-.088-1.488-.188.588-.612.853-1.065 1.247-1.276 1.753-.923 2.776-2.535 3.935-4.012a2.746 2.746 0 0 0 .659-1.429 7.645 7.645 0 0 1 1.365-4.17 2.308 2.308 0 0 0-.153-3.006 5.519 5.519 0 0 1-1.271-3.288c-.412-2.165-1.447-2.923-3.753-2.823-1.753.082-3.494.394-5.241.571a15.56 15.56 0 0 1-1.57.012 3.687 3.687 0 0 1 .641-4.888 14.924 14.924 0 0 0 3.911-8.258 25.385 25.385 0 0 1 1.612-4.306c1.506-.524 3.17-1.053 4.794-1.676a7.091 7.091 0 0 0 2.053-1.118 8.622 8.622 0 0 1 6.294-2.323c3.958.247 6.688-1.629 8.7-4.841l-.1-.029c5.8.976 10.517-1.606 15.076-4.647a21.231 21.231 0 0 0 3.076-2.6 1.819 1.819 0 0 0 .306-1.4c-.035-.229-.629-.565-.947-.541-2.147.171-4.306.335-6.429.671-3.147.506-3.635.482-7.482-1.376.259-2.794 2.135-4.506 4.323-5.841a3.322 3.322 0 0 1 2.712-.094 8.723 8.723 0 0 0 4.364.524 94.952 94.952 0 0 0 11.229-1.347c3.459-.612 6.958-1.047 10.452-1.418a6.084 6.084 0 0 1 3.1.512c.741.353 1.218 1.276 1.847 1.982 1.806-.294 3.682-.494 5.512-.912 3.417-.788 4.106-1.735 4.453-5.559a5.1 5.1 0 0 1 .459-1.465c.576-1.353 1.182-2.694 1.859-4.206a26.709 26.709 0 0 1-2.194-2.306 4.4 4.4 0 0 0-5.811-1.288c-2.659 1.27-5.458 1.535-8.241 1.976a5.887 5.887 0 0 1-5.831-2.441c2.265-2.665 5.153-4.041 8.111-5.294.747-.312 1.553-.471 2.329-.718a3.669 3.669 0 0 0 2.365-2.07c.924-2.1 1.876-4.194 2.8-6.294.788-1.818.129-3.717.182-5.57a2.174 2.174 0 0 0-1.8-1.959 11.814 11.814 0 0 0-7.176.282 84.889 84.889 0 0 1-13.729 3.423c-2.341.435-2.476.447-5.106-.182-.324-.859.435-1.153.871-1.588 1.629-1.612 3.3-3.176 4.882-4.823a2.509 2.509 0 0 0 .853-1.706c-.318-1.982.806-2.912 2.235-3.87a28.889 28.889 0 0 0 2.976-2.653c-.112-1.529-.212-2.865-.329-4.47.818-.412 1.717-.947 2.682-1.329a45.4 45.4 0 0 1 4.959-1.729c2.465-.647 5.029-.935 7.447-1.7 3.958-1.253 8.105-1.806 11.97-3.447a64.45 64.45 0 0 1 7.329-2.17c4.535-1.312 9.058-2.67 13.611-3.917 4.029-1.1 7.935-2.706 11.946-3.665 5.776-1.382 11.364-3.341 17.1-4.782 4.559-1.147 8.982-2.8 13.5-4.112 6.729-1.959 13.493-3.8 20.234-5.717 1.035-.294 2.029-.753 3.047-1.106 2.671-.923 5.276-2.194 8.023-2.67 3.782-.653 7.141-2.488 10.835-3.294 3.147-.682 6.035-2.147 9.276-2.647 2.594-.406 5.07-1.594 7.6-2.441 2.682-.9 5.347-1.841 8.035-2.712 7.829-2.535 15.687-5 23.5-7.588 2.788-.929 5.417-2.335 8.223-3.176 5-1.494 9.835-3.541 14.887-4.753 3.659-.876 6.947-2.623 10.5-3.641 2.547-.735 4.812-2.412 7.606-2.306l.241-.1.012.259-.312-.218c.429-1.359 1.959-.035 2.706-1.182.529-.824 1.847-.718 2.929-.788a6.435 6.435 0 0 0 2.547-1.082 39.981 39.981 0 0 1 9.623-3.547 25.288 25.288 0 0 0 5.088-2.212 3.706 3.706 0 0 1 3.018-.494c.753.212.512-1.588 1.664-1.106.13.012.265.029.394.029a2.56 2.56 0 0 0 .3-.012l-.806.041a11.088 11.088 0 0 1 6.364-2.123c.829-.006 1.176-.476 1.623-.965.682-.741 2.223 1.082 2.535-.835a14.589 14.589 0 0 0 2.912-1.235c2.694-1.87 5.812-2.77 8.77-4.047l.165.171-.247-.124 1.8-.853.218.159-.282-.088a25.907 25.907 0 0 1 3.253-1.47 25.256 25.256 0 0 0 5.911-2.282 7.906 7.906 0 0 1 4.612-1.129l.065.224-.141-.253c.712-.341 1.423-.688 2.141-1.023 1.635-.753 3.735-.471 4.947-2.206a1.155 1.155 0 0 1 .747-.3c3.747-.512 6.788-3.141 10.6-3.535.847-.088 1.623-.888 2.435-1.353a40.169 40.169 0 0 1 6.911-3.265c4.429-1.506 8.952-2.859 12.982-5.4a26.782 26.782 0 0 1 5.888-2.665 27.757 27.757 0 0 0 6.947-3.253c3.117-2.112 6.853-2.994 10.3-4.453 3.217-1.365 6.688-2.153 9.464-4.482a6.63 6.63 0 0 1 2.224-.953 44.151 44.151 0 0 0 11.023-4.929 3.16 3.16 0 0 1 1.3-.247c.853.5.465 1.1.57 1.582.341 1.565.971 2.206 2.329 2.323q2.815.247 5.641.394a3.351 3.351 0 0 0 1.194-.2c1.394-.465 2.765-1.018 4.176-1.418 1.282-.365 2.664-.418 3.9-.882a43.818 43.818 0 0 1 11.329-3.017 17.647 17.647 0 0 0 5.441-1.535c4.294-1.935 8.729-3.653 12.27-6.964a26.724 26.724 0 0 1 3.264-2.288c3.529 1.753 3.529 1.753 6.647-.341 1.047.353 2.176.729 3.418 1.147a56.391 56.391 0 0 1 7.911-6.27c1.459-.876 2.541-2.382 3.917-3.723 2.365.812 4.7 2.3 7.452.312.606.923 1.123 1.718 1.612 2.459.976-.141 1.629-.224 2.271-.335a5.633 5.633 0 0 1 5.135 1.588c1.447 1.329 2.947 2.841 5.159 2.335.1.982.153 1.512.218 2.182 1.482.541 2.988 1.094 4.37 1.606 2.159-.182 3.629-1.494 5.1-2.612a53.047 53.047 0 0 1 7.088-4.641 13.265 13.265 0 0 0 6.264-6.717l-.728-1.724a21.849 21.849 0 0 1 8.964-4.264c.729-.147 1.347-.847 2.035-1.247 1.512-.882 3.017-1.782 4.564-2.6 1.753-.918 3.864-1.235 4.676-3.523.188-.529 1.341-.706 2.041-1.059.524-.271.618-.747.382-2.059 1.488.082 2.635.529 3.141 2.059.376 1.153.894 2.265 1.206 3.429.529 1.994.112 2.947-1.759 4.029-1.4.812-2.882 1.494-4.317 2.247-1.77.929-2.271 2.076-1.271 4.012.124.241.218.494.353.729a1.292 1.292 0 0 0 .312.265 5.679 5.679 0 0 0 5.023-.729 5.1 5.1 0 0 1 3.035-.906 9.568 9.568 0 0 0 5.394-1.323c2.641-1.376 5.4-1.553 8.323-1.688 1.123.935 2.259 1.876 3.435 2.859a12.792 12.792 0 0 0-.106 3.094 7.41 7.41 0 0 0 1.282 2.518c.541.788 1.271 1.488.9 2.541a4.239 4.239 0 0 1-2.247 2.712 4.168 4.168 0 0 1-.724.365c-2.035.412-3.158 1.853-4.147 3.612.935 1.735 2.153 2.67 4.259 2.059a10.652 10.652 0 0 1 2.806-.329 2.875 2.875 0 0 1 2.988 2.212 5.964 5.964 0 0 1-.471 4.694 37.572 37.572 0 0 1-5.529 7.947c-3.035 3.059-5.653 6.529-8.682 9.6a64.272 64.272 0 0 1-6.553 5.382c-2.341 1.823-4.853 3.435-7.094 5.364a84.9 84.9 0 0 1-8.047 6.158 19.166 19.166 0 0 0-2.594 2.535c-1.388 1.376-1.506 3.112-1.371 4.906a1.3 1.3 0 0 0 1.835.994 7.657 7.657 0 0 0 2.182-1.682 5.431 5.431 0 0 1 4.288-2.006 3.23 3.23 0 0 1 .012 4 10.962 10.962 0 0 0-2.329 6.011c.476 1.818 2.459 1.218 3.811 2.147a4.193 4.193 0 0 1-.788 1.253c-.976.729-2.023 1.353-3.059 1.994-2.447 1.512-3.247 4.176-4.406 6.535-.329.676.135 1.747.259 2.853l4.894-1.753 1.988 3.194c4.441-1.318 8.447-3.482 12.782-5.376-.265.841-.447 1.447-.653 2.094l2.453.224c-.147.359-.171.635-.318.753a7.658 7.658 0 0 1-1.653 1.153c-4.594 1.976-4.453 2.753-7.07 5.582 2.6.635 4.035.682 5.606-.341 3.594-2.353 7.452-4.259 11.023-6.641a4.616 4.616 0 0 0 1.741-1.647c1.07-2.412 3.117-3.659 5.347-4.611 3.994-1.712 7.394-4.382 11.088-6.582a67.513 67.513 0 0 0 6.194-3.729 42.625 42.625 0 0 0 4.97-4.759 20.44 20.44 0 0 0 1.565-2.353c.523-.729 1.612-1.018 1.682-2.088-.2-.206-.418-.565-.547-.535a7.691 7.691 0 0 0-2.67.806c-4.853 3.412-10.393 5.688-15.187 9.164-4.259 3.094-9.058 5.282-13.34 8.329a11.4 11.4 0 0 1-6.335 2.406Zm-582.595 358.82c-.465.182-1.147-.259-1.582.829l1.517-.918c.218.124.441.335.665.341a3.178 3.178 0 0 0 .894-.247c-.188-.265-.329-.7-.576-.777-.567-.163-.942.125-.918.772ZM701.461 107.2l-.088-.112c-.824 2.2-2.935 2.994-4.641 4.223-.324.229-.665.429-1.006.647l.753 3.147c1.523.994 2.623 1.059 3.782-.241a42.473 42.473 0 0 1 3.482-3.217c.088-1.941.147-3.382.206-4.676 1.523-1.182 2.847-2.217 4.688-2.3a10.529 10.529 0 0 0 2.747-.641c3.917-1.288 8.093-1.606 11.67-4.2 2.953-2.141 5.976-3.947 7.694-7.382 1.023-2.047.459-3.853-1.765-4.076a7 7 0 0 0-3.194.206 55.449 55.449 0 0 0-9.129 4.212 69.368 69.368 0 0 1-9.617 5.1c-4.823 2.1-9.005 5.276-13.517 7.894a3.29 3.29 0 0 0-1.582 2.8 8.028 8.028 0 0 0 7.27-.529 13.023 13.023 0 0 1 2.247-.855ZM140.935 391.536c.053-.871.124-1.271.1-1.671-.118-1.612-.388-1.894-1.829-2.088-.829-.112-1.694-.229-2.253.512a4.009 4.009 0 0 1-2.853 1.312c-2.106.382-4.2.812-6.3 1.218a4.693 4.693 0 0 1-3.117-.406c-2.653-1.294-5.376-.894-8.2-.135a7.824 7.824 0 0 1 1.218 2.07 3.11 3.11 0 0 1-.529 1.87 10.52 10.52 0 0 1-1.359 1.594c1.859.535 3.529 1.288 5.482.424a2.918 2.918 0 0 1 2.6.571c1.188 1.206 2.759 1.018 4.106 1.523 1.412.535 2.923-.024 4.276-.735 1.059-.559 2.188-.929 2.476-2.417a2.668 2.668 0 0 1 2.006-1.818 45.117 45.117 0 0 0 4.176-1.824Zm593.418-122.852a21.246 21.246 0 0 0-2.7.223 25.722 25.722 0 0 1-3.053.853 6.182 6.182 0 0 0-4.064 1.553 3.611 3.611 0 0 1-2.612.882c-.947.024-1.894.065-2.841.053a2.962 2.962 0 0 0-2.488 1.123c-.823 1.035-1.806 2.047-1.147 3.788a10.556 10.556 0 0 0 3.094.141c3.259-.812 6.47-1.823 9.694-2.77 2.235-.653 3.023-3.353 5.417-3.841.282-.059.512-.606.682-.965a3.447 3.447 0 0 0 .018-1.04Zm26.792-204.976c-1.176-1.2-.247-2.376-.323-3.588a18.108 18.108 0 0 0-2.194.341 12.014 12.014 0 0 0-2.27.859q-4.138 2.135-8.229 4.364a3.864 3.864 0 0 0-1.253 1 1.408 1.408 0 0 0-.065 1.059.767.767 0 0 0 .682.294 35.815 35.815 0 0 0 3.335-1.376c.971-.482 1.859-1.147 3.023-.635-.059.471-.335 1.076-.141 1.394.447.741 1.124.465 1.729.059 1.789-1.189 3.589-2.371 5.706-3.771Zm-641.339 318.5c-2.353.4-4.217.671-6.064 1.029-2 .394-2.023.476-1.923 3.035a31.851 31.851 0 0 0 7.988-.894Zm574.825-360.55c-.994.976-1.876 1.77-2.676 2.641a16.45 16.45 0 0 0-1.747 2.235 1.158 1.158 0 0 0 .065 1.082 1.242 1.242 0 0 0 1.059.335 16.291 16.291 0 0 0 3.041-1.088c.753-.376 1.353-1.188.776-1.988a1.419 1.419 0 0 1 .059-2.041c.086-.112-.282-.6-.577-1.176Zm-589.589 378.5c-.271-.523-.718-1.441-1.229-2.317-.1-.165-.476-.212-.729-.224-1.053-.059-1.871.994-1.976 2.5-.088 1.288.506 2.353 1.4 2.523a2.481 2.481 0 0 0 2.535-2.481Zm-78.489 62.494c1.07.147 2.065.288 2.97.412 1.023-2.076.959-2.059-.024-2.882a3.932 3.932 0 0 0-4.164-.512c.601.862 1.965 1.373 1.218 2.982Zm723.722-352c-1.006 0-1.888-.265-2.435.053a6.417 6.417 0 0 0-3.064 2.97.419.419 0 0 0 .059.371c.194.159.529.429.635.365 1.67-.982 3.524-1.735 4.805-3.759Zm-25.322 139.9a12.453 12.453 0 0 0-2.311.347c-1.218.523-1.882 1.876-1.224 2.359.835.6 1.506-.1 2.07-.5.465-.326.695-.996 1.465-2.206Zm-510.305 219.6c.988.029 1.77-.424 1.812-1.082.053-.853-.647-1.029-1.223-1.288a2.31 2.31 0 0 0-.759-.182 1.063 1.063 0 0 0-1.229 1.147c-.055.913.393 1.372 1.399 1.405Zm-63.9-18.934c1.253.488 2.312.853 3.329-.165a1.173 1.173 0 0 0 .288-1.041 1.241 1.241 0 0 0-.982-.541 2.983 2.983 0 0 0-2.631 1.743Zm590.41-379.546c-1.87-.988-1.87-.988-2.606.682Zm-16.875 191.742-.594.294c.065.112.171.324.2.312a5.149 5.149 0 0 0 .629-.306ZM741.74 68.772l.247-.206c-.071-.076-.135-.218-.212-.224s-.159.124-.241.188Z" fill="#02558a"/></svg>