<?xml version="1.0" encoding="utf-8"?>
<!-- Generator: Adobe Illustrator 26.0.1, SVG Export Plug-In . SVG Version: 6.00 Build 0)  -->
<svg version="1.2" baseProfile="tiny" id="레이어_1"
	 xmlns="http://www.w3.org/2000/svg" xmlns:xlink="http://www.w3.org/1999/xlink" x="0px" y="0px" viewBox="0 0 2076.9 396.2"
	 overflow="visible" xml:space="preserve">
<g id="대지_안내선_00000049194773798715960230000014279964840662363020_">
</g>
<g id="대지_안내선">
</g>
<g>
	<g>
		<polyline fill="#FFFFFF" points="534.9,352.1 491.1,290.5 219.2,290.5 161.9,352.1 		"/>
		<path fill="#232021" d="M534.9,353.5c0.3,0,0.6-0.1,0.8-0.3c0.6-0.4,0.8-1.3,0.3-1.9l-43.7-61.5c-0.3-0.4-0.7-0.6-1.1-0.6h-272
			c-0.4,0-0.7,0.2-1,0.4L161,351.1c-0.5,0.6-0.5,1.4,0.1,1.9s1.4,0.5,1.9-0.1l56.8-61.1h270.7l43.3,61
			C534,353.3,534.4,353.5,534.9,353.5z"/>
	</g>
	<g>
		<polygon fill="#EAB56F" points="299.1,277.3 299.1,295.3 256.4,295.3 256.4,276.3 		"/>
		<path fill="#232021" d="M254.9,296.8h45.7v-21l-45.7-1L254.9,296.8L254.9,296.8z M297.6,293.8H258v-15.9l39.6,0.9V293.8z"/>
		<path fill="#3B6A9D" d="M324.8,111.5c0,0,2-37.7,51.7-39.9c0,0,41.3,0,50.3-5c0,0,15.6-9.1,13.6-22.4c0,0,29.4,14.6,25.8,53
			c0,0,31.8,12.8,35,44.2c0,0,7.2,30.6-14,52.8c0,0-0.4,2.6,3.6,1.7c0,0,13.2-3.5,14.2-8.6c0,0,11.8,32.8-23.2,59.5
			c0,0-35.3,20.9-89.7-0.3c0,0-45.5,29.5-85,16.4c0,0-38.1-12.2-24.2-53.7c0,0,4.2-10.7,11-15c0,0-29.4-16.4-22.1-49.4
			C271.8,145,288,95.6,324.8,111.5"/>
		<path fill="#232021" d="M329,267.9L329,267.9c30.1,0,58.7-16.7,63.3-19.6c16.1,6.2,32.2,9.4,47.7,9.4c26.4,0,41.9-9,42.6-9.4
			c35.6-27.2,24-61,23.8-61.3c-0.2-0.6-0.8-1-1.5-1s-1.2,0.5-1.4,1.2c-0.5,2.8-8,6-13.1,7.4c-0.6,0.1-1.2,0.2-1.5,0.1
			c20.8-22.5,13.8-53.2,13.7-53.5c-2.9-28.5-29.3-42.2-34.8-44.8c3-38.2-26.4-53.3-26.7-53.4c-0.5-0.3-1.1-0.2-1.6,0.1
			s-0.7,0.9-0.6,1.5c1.8,12.1-12.7,20.8-12.9,20.8c-6.7,3.8-35.3,4.8-49.5,4.8c-43.8,1.9-51.6,31.2-53,39.3
			c-4.4-1.7-8.7-2.5-12.9-2.5c-27.7,0-39.8,36.1-40.3,37.7c-6.4,28.7,14.3,45.4,20.8,49.9c-6,5-9.6,13.9-9.7,14.3
			c-4.5,13.4-4.2,25.1,0.8,35c7.7,15.2,23.6,20.4,24.3,20.7C313.5,266.7,321,267.9,329,267.9z M392.1,245.2c-0.3,0-0.6,0.1-0.8,0.2
			c-0.3,0.2-30.5,19.5-62.3,19.5l0,0c-7.6,0-14.8-1.1-21.4-3.3c-0.2,0-15.4-5.1-22.6-19.2c-4.6-9.2-4.9-20.1-0.7-32.6
			c0,0,4.1-10.2,10.4-14.2c0.4-0.3,0.7-0.8,0.7-1.3s-0.3-1-0.8-1.3c-1.2-0.7-28.3-16.3-21.3-47.7c0.1-0.2,12-35.5,37.4-35.5
			c4.3,0,8.9,1,13.6,3c0.5,0.2,1,0.1,1.4-0.1c0.4-0.3,0.7-0.7,0.7-1.2c0.1-1.5,2.5-36.3,50.3-38.5c0,0,0,0,0.1,0
			c4.6,0,42-0.2,50.9-5.2c0.7-0.4,14.3-8.5,14.6-21c6.8,4.3,25.5,19.2,22.6,50.1c-0.1,0.7,0.3,1.3,0.9,1.5c0.3,0.1,31,12.8,34,43
			c0.1,0.5,6.8,30.3-13.6,51.7c-0.2,0.2-0.4,0.5-0.4,0.8c0,0.2-0.2,1.5,0.7,2.5c0.6,0.7,2.1,1.5,4.7,0.9c1.9-0.5,9.5-2.7,13.3-6.4
			c1.9,8.7,4.3,33.4-23.5,54.7l0,0c0,0-15.4,8.9-40.9,8.9c-15.4,0-31.3-3.2-47.3-9.4C392.5,245.2,392.3,245.2,392.1,245.2z"/>
		<path fill="#D29F50" d="M457.2,293.7c0,0,4.7-53.4-71.3-45.3c0,0-42.3,0-34.9,42.4L457.2,293.7z"/>
		<path fill="#232021" d="M458.6,295.3l0.1-1.4c0.1-0.7,1.4-17.7-11.1-31.4c-12.2-13.3-33.1-18.6-61.8-15.5
			c-0.6,0-19.3,0.1-29.9,12.9c-6.4,7.7-8.5,18.2-6.3,31.3l0.2,1.2L458.6,295.3z M400.9,249.1c20.1,0,35.1,5.2,44.5,15.4
			c9.6,10.5,10.4,23.4,10.4,27.7l-103.4-2.8c-1.8-11.6,0.1-20.9,5.8-27.6C368,250.1,385.8,250,386,250
			C391.3,249.4,396.2,249.1,400.9,249.1z"/>
		<path fill="#EAB56F" d="M358.8,256.2c0.7,9.8,13.8,16.9,29.3,15.8s27.5-9.9,26.8-19.8c-0.7-9.8-13.8-16.9-29.3-15.8
			C370.1,237.6,358.1,246.4,358.8,256.2"/>
		<path fill="#232021" d="M384.9,273.6c1.1,0,2.2,0,3.3-0.1c16.3-1.1,28.9-10.7,28.2-21.4c-0.7-10.6-14.4-18.4-30.9-17.2
			c-7.8,0.5-15,3-20.2,6.9c-5.5,4-8.3,9.2-7.9,14.5C358,266.2,369.8,273.6,384.9,273.6z M388.7,237.8c13.2,0,24.1,6.4,24.6,14.5
			c0.6,9-10.7,17.1-25.4,18.1c-14.6,1-27-5.7-27.7-14.4c-0.3-4.2,2.1-8.4,6.7-11.8c4.8-3.6,11.5-5.8,18.6-6.3
			C386.7,237.9,387.7,237.8,388.7,237.8z"/>
		<path fill="#EAB56F" d="M426.5,127.6c0,0,19.4,13.8,28.9,24c0,0,7.9-8,5.3-17.5c0,0-7.6-15.9-23.4-13.9
			C437.2,120.3,431.3,120.5,426.5,127.6"/>
		<path fill="#232021" d="M455.4,153.1c0.4,0,0.8-0.2,1.1-0.4c0.4-0.4,8.5-8.7,5.7-18.9c0-0.1-0.1-0.2-0.1-0.2
			c-0.3-0.6-7.3-14.9-22.1-14.9c-0.9,0-1.9,0.1-2.9,0.2l0,0c-0.2,0-6.6,0.3-11.8,8c-0.5,0.7-0.3,1.6,0.4,2.1
			c0.2,0.1,19.4,13.9,28.7,23.8C454.5,153,454.9,153.1,455.4,153.1L455.4,153.1z M459.2,134.7c1.7,6.4-2,12.3-3.9,14.7
			c-8.4-8.6-22.5-19-26.7-22.1c4.1-5.2,8.5-5.5,8.7-5.5c1-0.1,1.8-0.2,2.6-0.2C452.2,121.6,458.6,133.5,459.2,134.7z"/>
		<path fill="#232021" d="M435.3,134.8c0.2,0,0.5,0,0.7-0.2c0.1,0,8.5-4.4,16.6-0.6c0.8,0.4,1.7,0,2-0.7c0.4-0.8,0-1.7-0.7-2
			c-9.5-4.5-18.9,0.4-19.3,0.6c-0.7,0.4-1,1.3-0.6,2C434.3,134.5,434.8,134.8,435.3,134.8z"/>
		<path fill="#EAB56F" d="M328.9,140.3c0,0-16.5,13.2-24.4,22.7c0,0-7.4-6.7-5.6-15.2c0,0,5.9-14.4,20.1-13.5
			C319,134.3,324.3,134.2,328.9,140.3"/>
		<path fill="#232021" d="M304.5,164.5h0.1c0.4,0,0.8-0.2,1-0.5c7.7-9.3,24.1-22.4,24.2-22.5c0.6-0.5,0.8-1.4,0.3-2.1
			c-4.9-6.4-10.5-6.6-11.1-6.6c-0.4,0-0.9,0-1.3,0c-14.1,0-19.9,13.9-20.2,14.5c0,0.1-0.1,0.2-0.1,0.2c-2.1,9.3,5.7,16.4,6,16.7
			C303.8,164.4,304.1,164.5,304.5,164.5z M326.8,140.1c-3.8,3.1-15.4,12.8-22.4,20.7c-1.8-2.1-5.2-6.9-4-12.5
			c0.6-1.4,6.2-13.3,18.6-12.4C319.2,135.8,323,135.9,326.8,140.1z"/>
		<path fill="#232021" d="M305.4,147.6c0.2,0,0.5-0.1,0.7-0.2c7-3.8,14.5-0.3,14.6-0.3c0.8,0.4,1.7,0,2-0.7c0.3-0.8,0-1.7-0.7-2
			c-0.4-0.2-9-4.1-17.3,0.4c-0.7,0.4-1,1.3-0.6,2C304.4,147.3,304.9,147.6,305.4,147.6z"/>
		<path fill="#D29F50" d="M297.9,277.2c0,0,15.7-8.2,29.6,12.2C327.6,289.4,304.1,298.9,297.9,277.2"/>
		<path fill="#232021" d="M316.4,293L316.4,293c6.3,0,11.6-2.1,11.8-2.2l1.7-0.7l-1-1.6c-8.2-12-17.1-14.5-23.1-14.5
			c-5,0-8.4,1.7-8.5,1.8l-1.1,0.6l0.3,1.2C300.1,290.3,309.3,293,316.4,293z M325.2,288.6c-1.9,0.6-5.2,1.3-8.8,1.3
			c-8.4,0-13.9-4-16.6-11.9c1.2-0.4,3.3-1,6-1C310.8,277.1,318.1,279.2,325.2,288.6z"/>
		<path fill="#EBB958" d="M300.2,271.4c0,0,9.3-28.9-37.6-44c0,0,1.6,9.9-5.4,17.9c0,0-17,21.6,4.2,37.5L300.2,271.4z"/>
		<path fill="#232021" d="M261.4,284.3c0.1,0,0.3,0,0.4-0.1l38.8-11.5c0.5-0.1,0.8-0.5,1-1c0.1-0.4,3-9.6-2.6-20.4
			c-5.7-11.1-17.8-19.6-35.9-25.5c-0.5-0.2-1,0-1.4,0.3s-0.6,0.9-0.5,1.4c0,0.1,1.3,9.3-5.1,16.7c-0.4,0.5-8.2,10.5-6.6,22.3
			c0.9,6.7,4.6,12.6,11.1,17.5C260.7,284.2,261.1,284.3,261.4,284.3z M298.9,270.2l-37.2,11c-5.4-4.3-8.6-9.3-9.3-15
			c-1.4-10.5,5.9-19.9,6-20c5.3-6.1,6-13.1,5.9-16.7c16.2,5.5,27,13.4,32,23.3C300.5,260.9,299.4,267.9,298.9,270.2z"/>
		<path fill="#D29F50" d="M301.3,274.2c0,0-4.6-17.6,24.2-17.4C325.5,256.8,322.3,278.4,301.3,274.2"/>
		<path fill="#232021" d="M306.4,276.2L306.4,276.2c17.5,0,20.5-19,20.5-19.2l0.3-1.7H325c-11.1,0-18.8,2.6-22.7,7.8
			c-4.1,5.3-2.6,11.3-2.5,11.6l0.2,0.9l0.9,0.2C302.9,276,304.7,276.2,306.4,276.2z M323.6,258.3c-1.1,4.3-5.1,14.9-17.2,14.9l0,0
			c-1.2,0-2.5-0.1-3.9-0.3c-0.2-1.6-0.2-5,2.2-8.1C307.9,260.7,314.4,258.5,323.6,258.3z"/>
		<path fill="#D29F50" d="M252.4,276.6c0,0,4.7,2.4,19.8,1.1l29.9-6.4c0,0,4.9,2.9-2.1,7.3l-21.3,7.8c0,0-23.2,2.6-23.4,1.2
			c-0.3-2.5,0,0,1.6-3.4C256.8,284.2,249.9,282.8,252.4,276.6"/>
		<path fill="#232021" d="M257.9,289.5L257.9,289.5c6.2,0,20.3-1.6,20.9-1.6c0.1,0,0.2,0,0.4-0.1l21.3-7.8c0.1,0,0.2-0.1,0.3-0.1
			c3-1.9,4.5-3.9,4.5-5.9c0-2.5-2.2-3.8-2.4-3.9c-0.3-0.2-0.7-0.2-1.1-0.2l-29.9,6.4c-2.7,0.2-5.4,0.3-7.9,0.3
			c-8,0-10.9-1.3-10.9-1.3c-0.4-0.2-0.8-0.2-1.2,0c-0.4,0.1-0.7,0.5-0.9,0.8c-0.9,2.2-0.9,4.1,0,5.8c0.8,1.6,2.2,2.5,3.4,3.1
			c-1,0.6-0.9,1.5-0.7,2.8C253.9,289.5,256,289.5,257.9,289.5z M278.3,284.9c-1.7,0.2-14.8,1.6-20.4,1.6l0,0c-0.3,0-0.5,0-0.7,0
			c0.3-0.4,0.6-0.9,0.9-1.6c0.2-0.4,0.2-0.9,0-1.3s-0.6-0.7-1-0.8c-0.7-0.2-2.7-0.9-3.4-2.3c-0.3-0.6-0.4-1.2-0.3-1.9
			c1.8,0.5,5.1,1.1,10.5,1.1c2.6,0,5.4-0.1,8.4-0.4l29.4-6.3c0.3,0.2,0.5,0.6,0.5,1s-0.3,1.6-3,3.2L278.3,284.9z"/>
		<path fill="#232021" d="M269.8,264.9c0.2,1-0.4,1.9-1.3,2.1s-1.9-0.4-2.1-1.3c-0.2-1,0.4-1.9,1.3-2.1
			C268.7,263.3,269.6,263.9,269.8,264.9"/>
		<path fill="#232021" d="M268.1,268.5L268.1,268.5c0.2,0,0.5,0,0.7-0.1c1.8-0.4,2.9-2.2,2.5-3.9c-0.4-1.7-2.2-2.9-3.9-2.5
			c-1.8,0.4-2.9,2.2-2.5,3.9C265.3,267.5,266.6,268.5,268.1,268.5z"/>
		<path fill="#232021" d="M279.5,264.5c0.2,0.9-0.4,1.9-1.3,2.1s-1.9-0.4-2.1-1.3s0.4-1.9,1.3-2.1
			C278.4,263,279.3,263.6,279.5,264.5"/>
		<path fill="#232021" d="M277.8,268.2L277.8,268.2c0.2,0,0.5,0,0.7-0.1c1.8-0.4,2.9-2.2,2.5-3.9c-0.4-1.7-2.2-2.9-3.9-2.5
			c-0.8,0.2-1.6,0.7-2,1.4c-0.5,0.7-0.6,1.6-0.4,2.5C275,267.1,276.3,268.2,277.8,268.2z"/>
		<path fill="#EBB958" d="M301.7,279.5c0,0,20.3,15.3-1.2,18.8c0,0-13,0.8-25.1,3.2C275.4,301.5,294.4,279.2,301.7,279.5"/>
		<path fill="#232021" d="M275.4,303c0.1,0,0.2,0,0.3,0c11.8-2.4,24.8-3.2,24.9-3.2c6.6-1,10.3-3.3,11.1-6.7
			c1.6-6.5-8-13.9-9.1-14.8c-0.2-0.2-0.5-0.3-0.8-0.3l0,0c-8.1,0-25.6,20.2-27.5,22.5c-0.4,0.5-0.5,1.2-0.2,1.7
			C274.4,302.8,274.9,303,275.4,303z M300.3,296.8c-0.1,0-10.3,0.6-20.9,2.4c7.1-7.9,17.3-17.7,21.8-18.2c2.6,2.1,8.5,7.7,7.6,11.3
			C308.2,295,303.8,296.3,300.3,296.8L300.3,296.8z"/>
		<path fill="#232021" d="M247.3,260.3c-1.7,4.4,2,9.8,8.2,12.2c6.2,2.4,12.5,0.7,14.2-3.7c1.7-4.4-2-9.8-8.2-12.2
			C255.3,254.3,248.9,255.9,247.3,260.3"/>
		<path fill="#232021" d="M261.1,275.1c4.8,0,8.6-2.2,10-5.7c2-5.1-2.1-11.5-9-14.1c-2-0.8-4.2-1.2-6.2-1.2c-4.8,0-8.6,2.2-10,5.7
			c-1,2.6-0.5,5.5,1.3,8.2c1.7,2.6,4.5,4.7,7.7,5.9C256.9,274.7,259,275.1,261.1,275.1z M255.8,257.1c1.7,0,3.4,0.3,5.1,1
			c5.3,2,8.6,6.7,7.3,10.2c-0.9,2.3-3.6,3.8-7.1,3.8c-1.7,0-3.4-0.3-5.1-1c-2.7-1-4.9-2.7-6.3-4.8c-1.3-1.9-1.6-3.8-1-5.5
			C249.6,258.5,252.3,257.1,255.8,257.1z"/>
		<path fill="#232021" d="M294.9,258.5c2,4.2-1.3,9.9-7.2,12.8c-6,2.8-12.4,1.7-14.4-2.6c-2-4.2,1.2-9.9,7.2-12.8
			C286.5,253.1,293,254.3,294.9,258.5"/>
		<path fill="#232021" d="M281.1,274.3L281.1,274.3c2.4,0,4.9-0.6,7.2-1.7c6.7-3.2,10.3-9.8,7.9-14.8c-1.5-3.1-4.9-5-9.2-5
			c-2.4,0-4.9,0.6-7.2,1.7c-3.2,1.5-5.8,3.8-7.3,6.5c-1.6,2.8-1.8,5.8-0.7,8.3C273.4,272.4,276.8,274.3,281.1,274.3z M287.1,255.9
			c3.1,0,5.5,1.2,6.5,3.3c1.6,3.4-1.4,8.3-6.5,10.7c-1.9,0.9-4,1.4-5.9,1.4l0,0c-3.1,0-5.5-1.2-6.5-3.2c-0.8-1.6-0.5-3.6,0.6-5.5
			c1.2-2.1,3.3-4,5.9-5.2C283.1,256.4,285.1,255.9,287.1,255.9z"/>
		<path fill="#232021" d="M265.3,269L265.3,269l8.7-0.3c0.8,0,1.5-0.7,1.4-1.6c0-0.8-0.7-1.4-1.6-1.4l-8.7,0.3
			c-0.8,0-1.5,0.7-1.4,1.6C263.8,268.3,264.5,269,265.3,269z"/>
		<path fill="#FFFFFF" d="M278.1,260.4c0,0.9,0.8,1.6,1.7,1.5c0.9,0,1.6-0.8,1.5-1.7c0-0.9-0.8-1.6-1.7-1.5
			C278.8,258.8,278.1,259.6,278.1,260.4"/>
		<path fill="#FFFFFF" d="M252.5,261.4c0,0.9,0.8,1.6,1.7,1.5c0.9,0,1.6-0.8,1.5-1.7c0-0.9-0.8-1.6-1.7-1.6
			C253.1,259.8,252.4,260.5,252.5,261.4"/>
		<g>
			<path fill="#C8C9CA" d="M263.2,292.4c0-1-0.4-1.8-0.8-2.6c-5.9-11.3-11.8-22.6-17.6-33.9c-0.1-0.3-0.1-0.4,0.1-0.6
				c2.5-2.3,3.2-5.9,1.7-8.9c-1.5-3.2-3.7-6.2-6.9-7.9c-2.8-1.2-6.5-0.4-8,2.5c-2,4-0.5,8.7,1.5,12.4c1.6,2.7,4,4,7.2,3.8
				c0.5,0,0.6,0.1,0.8,0.5c5.5,11.8,11,23.5,16.5,35.3C259,295.7,262.7,295.1,263.2,292.4z"/>
			<path fill="#232021" d="M260.4,296.1c0.2,0,0.4,0,0.5,0c1.8-0.2,3.3-1.6,3.7-3.5v-0.2c0.1-1.4-0.5-2.5-0.9-3.3
				c-3.1-6-6.3-12-9.4-18.1l-8-15.3c2.5-2.7,3.2-6.7,1.5-10.1c-1.9-3.9-4.4-6.9-7.5-8.5h-0.1c-3.7-1.6-8-0.2-9.8,3.1
				c-2.3,4.8-0.5,10.1,1.5,13.7c1.8,3.1,4.6,4.6,8.1,4.5c2.1,4.5,4.2,8.9,6.3,13.4c3.4,7.2,6.7,14.4,10.1,21.6
				C257.2,295.1,258.7,296.1,260.4,296.1z M261.9,292.2c-0.2,0.7-0.8,1.1-1.3,1.1c-0.3,0-1.2,0-1.7-1c-3.4-7.2-6.7-14.4-10.1-21.6
				c-2.1-4.6-4.3-9.1-6.4-13.7c-0.4-0.9-1.1-1.3-2.2-1.3c-2.7,0.2-4.6-0.9-5.9-3.1c-1.6-3-3.2-7.5-1.4-11.1c1.1-2.2,4.1-2.7,6.2-1.8
				c3.1,1.7,5.1,4.9,6.2,7.2c1.2,2.5,0.7,5.4-1.4,7.3c-0.4,0.4-1,1.2-0.4,2.3l8.2,15.8c3.1,6,6.3,12,9.4,18.1
				C261.6,291.1,261.8,291.7,261.9,292.2z"/>
		</g>
		<path fill="#EBB958" d="M250.3,277.6c0,0-24.6,17.1-3,19.9c0,0,11.9-0.1,23.8-3C271.1,294.5,257.6,277.1,250.3,277.6"/>
		<path fill="#232021" d="M247.3,299L247.3,299c0.5,0,12.2-0.2,24.1-3.1c0.5-0.1,0.9-0.5,1.1-1s0.1-1-0.2-1.4
			c-1.4-1.8-14.3-18.1-22.1-17.5c-0.3,0-0.5,0.1-0.8,0.3c-1.4,1-14,10-12.4,16.8c0.8,3.2,4,5.1,10,5.9
			C247.2,299,247.2,299,247.3,299z M268.4,293.5c-10.2,2.2-19.9,2.4-21,2.5c-3.1-0.4-6.9-1.4-7.4-3.6c-0.9-3.6,6-9.9,10.8-13.3
			C255.8,279.5,264.1,288.4,268.4,293.5z"/>
		<path fill="#EAB56F" d="M433.8,254.7c0,0,21.8,0.1,33.1,21.6c0,0,9.6,22.5-21.7,26.6c0,0-4.9,3.6-8.5,2.9c0,0,1.7-27.2-8.8-27.4
			l14.1-4C442,274.4,429.1,268.9,433.8,254.7"/>
		<path fill="#232021" d="M437.8,307.4L437.8,307.4c3.3,0,6.9-2.3,8-3c10.9-1.5,18.2-5.3,21.7-11.5c4.6-8,0.9-16.7,0.8-17.1
			c-11.7-22.2-34.3-22.5-34.5-22.5h-1.1l-0.3,1c-3.4,10.2,1.8,16.4,5.6,19.4l-10.5,4.4l-0.8,0.6c7.3,0.1,8.7,20.1,8.6,27.1v1.3
			l1.2,0.3C436.9,307.4,437.3,307.4,437.8,307.4z M465.6,277.1c0,0,3.1,7.7-0.7,14.3c-3.1,5.4-9.8,8.7-19.9,10h-0.4l-0.3,0.2
			c-1,0.7-3.8,2.4-6.1,2.7c0-5.2-0.7-20.8-6.6-26.6l15.5-2.8l-4.5-2c-0.5-0.2-10.9-4.9-7.7-16.7
			C439.4,256.7,456.3,259.4,465.6,277.1L465.6,277.1z"/>
		<path fill="#D29F50" d="M464.8,268.5c0,0-11.9-16.8-34.2-12.7c0,0-3,12.7,2.2,23.1c0,0,29.4-8.1,34.8-4.2
			C467.7,274.6,467.4,271.4,464.8,268.5"/>
		<path fill="#232021" d="M432.9,280.3c0.1,0,0.3,0,0.4-0.1c0.2,0,19.1-5.2,29-5.2c3.1,0,4.2,0.5,4.5,0.8c0.5,0.3,1.1,0.4,1.6,0.1
			s0.8-0.9,0.8-1.5c0-0.2-0.4-3.7-3.2-6.9c-0.3-0.5-10.1-13.9-28.5-13.9c-2.3,0-4.7,0.2-7.1,0.6c-0.6,0.1-1.1,0.6-1.2,1.1
			s-3.1,13.3,2.4,24.1C431.8,280,432.4,280.3,432.9,280.3z M462.3,272c-8.9,0-24.1,3.8-28.6,5c-3.5-7.9-2.3-17-1.8-19.9
			c1.9-0.3,3.7-0.4,5.5-0.4c16.9,0,26.1,12.6,26.1,12.7c0.9,1,1.4,2,1.8,2.8C464.5,272.1,463.5,272,462.3,272z"/>
		<path fill="#EAB56F" d="M346.5,251.9c0,0-21.2,5.2-27.2,28.7c0,0-4.1,24.1,27.2,20.8c0,0,5.6,2.4,8.9,0.8c0,0-15.4-27.6-5.3-30.2
			l-7.1,0.9C343.1,273,354.3,264.5,346.5,251.9"/>
		<path fill="#232021" d="M352.7,304.3c1.3,0,2.4-0.2,3.3-0.7c0.4-0.2,0.7-0.5,0.8-0.9c0.1-0.4,0.1-0.8-0.1-1.2
			c-3.1-5.5-10.5-20.9-8.1-26.4c0.4-0.9,1-1.4,1.9-1.6c0.8-0.2,1.3-0.9,1.1-1.7c-0.1-0.8-0.9-1.3-1.7-1.2L347,271
			c3-3.9,6.2-10.9,0.7-19.9c-0.3-0.6-1-0.8-1.6-0.7c-0.2,0-22.1,5.6-28.3,29.8c-0.1,0.5-1.5,9.3,4.1,15.9c4.8,5.6,13,8,24.4,6.8
			C347.3,303.3,350.1,304.3,352.7,304.3z M353.2,301.3c-2.6,0.2-6-1.2-6.1-1.2c-0.2-0.1-0.5-0.1-0.7-0.1c-10.5,1.1-18-0.8-22.1-5.7
			c-4.7-5.6-3.5-13.3-3.5-13.4c5-19.3,20.8-25.8,25-27.2c5.9,10.8-3.2,17.8-3.6,18.1c-0.6,0.4-0.8,1.1-0.5,1.8
			c0.3,0.6,0.9,1,1.6,0.9l2.6-0.3C343.1,281,350.4,295.9,353.2,301.3z"/>
		<path fill="#D29F50" d="M320.2,273.3c0,0,7.7-19.1,30.3-20.3c0,0,5.8,11.6,3.1,23c0,0-30.5-1.1-34.8,3.9
			C318.8,279.9,318.4,276.8,320.2,273.3"/>
		<path fill="#232021" d="M317.8,283.4l2.2-2.5c1.4-1.7,9.2-3.5,26.7-3.5c4.1,0,6.9,0.1,6.9,0.1h1.2l0.3-1.2c2.8-11.7-3-23.5-3.3-24
			l-0.4-0.9h-1c-23.3,1.3-31.5,21-31.6,21.2c-2,3.7-1.5,7.2-1.5,7.3L317.8,283.4z M346.6,274.4c-12.9,0-21.7,0.9-26.2,2.8
			c0.2-0.9,0.5-2,1.1-3.1c0.4-0.9,7.5-17.8,28-19.4c1.2,2.7,4.4,11.3,2.9,19.8C351.2,274.4,349.1,274.4,346.6,274.4z"/>
		<path fill="#EAB56F" d="M340.1,146.8c0,0-32.7,20.9-27.9,71.4c0,0,3.8,42.3,43.6,47.7c0,0,101.5,13.8,102.4-57.3
			c0,0,2.8-44.7-38.8-69.9C419.4,138.8,378.3,120.9,340.1,146.8"/>
		<path fill="#232021" d="M375.2,268.6c31.3,0,83.8-7.8,84.5-59.9c0-0.4,2.4-45.8-39.5-71.2c-0.8-0.3-14.6-6.3-33.7-6.3
			c-17.4,0-33.3,4.8-47.2,14.3c-0.3,0.2-33.4,22-28.5,72.8c0,0.4,4.4,43.6,44.9,49.1C356,267.5,363.8,268.6,375.2,268.6z
			 M386.5,134.3c18.5,0,32.2,5.9,32.4,5.9c40.1,24.3,37.9,68,37.9,68.4c-0.6,49.6-51.3,57-81.5,57c-11.2,0-19.1-1.1-19.2-1.1
			c-38.1-5.2-42.3-45.9-42.3-46.4c-4.7-48.9,26.9-69.8,27.2-70C354.4,138.9,369.7,134.3,386.5,134.3z"/>
		<path fill="#232021" d="M369.5,215c0.2,3-2,5.6-5.1,5.8c-3,0.2-5.6-2.1-5.8-5.1c-0.2-3,2.1-5.6,5.1-5.8S369.3,212,369.5,215"/>
		<path fill="#232021" d="M401.6,211.2c0.2,3-2,5.6-5.1,5.8c-3,0.2-5.6-2.1-5.8-5.1c-0.2-3,2-5.6,5-5.8
			C398.8,205.9,401.4,208.2,401.6,211.2"/>
		<path fill="#FFFFFF" d="M396.8,246c7.6-1.4,13.4-6.5,12.8-12.8s-7.4-10.8-15.1-10.1c-6,0.6-11,3.6-12.5,8.2l-1.1,0.2
			c-2.4-4.2-7.5-6.3-13.5-5.7c-7.7,0.8-13.4,6.5-12.8,12.8s7.4,10.8,15,10.1c5.9-0.6,6.8-0.9,13.1-2.5
			C382.8,246.2,391.1,247.1,396.8,246"/>
		<path fill="#232021" d="M380.5,234.7l-8.6-7.1c-0.8-1.1,0.8-3.4,0.8-3.4l14.4-1.4c0,0,2,2,1.5,3.2l-7.1,8.7H380.5z"/>
		<path fill="#3B6A9D" d="M332.5,138c0,0-13.8,56.2,45.6,58.7c0,0,3-27.8,17-31.5c0,0,31.7-7,29.4-25.8c0,0-6.2-12.1-11.5-13.6"/>
		<path fill="#232021" d="M378.1,198.2c0.8,0,1.4-0.6,1.5-1.3c0-0.3,3-26.8,15.9-30.2c1.3-0.3,32.9-7.6,30.5-27.4
			c0-0.2-0.1-0.4-0.2-0.5c-0.7-1.3-6.7-12.7-12.5-14.3c-0.8-0.2-1.6,0.2-1.9,1c-0.2,0.8,0.2,1.6,1,1.9c3.4,1,8.2,8.1,10.5,12.6
			c1.8,17-27.9,23.8-28.3,23.9c-13.2,3.5-17.2,25.5-18,31.4c-16.6-1-28.7-6.4-36.1-16.2c-12.5-16.6-6.8-40.4-6.8-40.6
			c0.2-0.8-0.3-1.6-1.1-1.8c-0.8-0.2-1.6,0.3-1.8,1.1c-0.3,1-6,25.4,7.3,43.1C346.4,191.6,359.8,197.5,378.1,198.2L378.1,198.2z"/>
		<path fill="#EAB56F" d="M341.2,280c8.3-8.3,19.4-6,19.4-6c9.6,0.8,17.2,5.5,17.9,15c0.7,9.5-4.4,16.3-15.6,17.1
			c0,0-13.2,3.5-22.8-3.8"/>
		<path fill="#232021" d="M356.2,308.3c3.9,0,6.7-0.5,7-0.6c11.3-0.8,17.6-7.8,16.8-18.7c-0.7-9.5-7.7-15.5-19.3-16.4
			c-0.3-0.1-11.9-2.4-20.6,6.4c-0.6,0.6-0.6,1.5,0,2.1s1.5,0.6,2.1,0c7.6-7.6,18-5.6,18.1-5.6c6,0.5,15.9,2.9,16.7,13.7
			c0.7,9.3-4.3,14.8-14.2,15.5c-0.3,0.1-14.3,2.6-23.2-4.2c-0.7-0.5-1.6-0.4-2.1,0.3c-0.5,0.7-0.4,1.6,0.3,2.1
			C343.5,307.3,350.9,308.3,356.2,308.3z"/>
		<g>
			<path fill="#C8C9CA" d="M438,303.4c0.4-1.5,0.1-2.9-0.3-4.3c-5-19.6-10-39.2-15-58.7c-0.1-0.5-0.1-0.7,0.4-1
				c4.7-2.7,7-7.9,5.8-13.1c-1.2-5.5-3.5-11-7.8-14.7c-3.9-2.9-9.9-2.9-13.3,1c-4.5,5.5-4,13.3-2.2,19.7c1.5,4.8,4.8,7.6,9.7,8.5
				c0.7,0.1,1,0.4,1.1,1.1c4.2,20.1,8.5,40.3,12.8,60.4C430.2,307.1,436.2,307.4,438,303.4z"/>
			<path fill="#232021" d="M433.8,307.5c2.4,0,4.4-1.4,5.4-3.6l0.1-0.2c0.5-1.9,0.1-3.6-0.3-5c-2.6-10.3-5.2-20.5-7.9-30.8
				c-2.3-9.2-4.7-18.4-7-27.5c5-3,7.4-8.8,6.1-14.4c-1.4-6.6-4.2-11.9-8.2-15.4l-0.1-0.1c-4.7-3.6-11.5-3-15.1,1.2
				c-5.1,6.2-4.2,14.8-2.5,21c1.6,5.2,5.3,8.5,10.8,9.5l0,0c1.7,7.9,3.3,15.7,5,23.6c2.6,12.3,5.2,24.5,7.8,36.8
				c0.6,2.8,2.7,4.7,5.3,5C433.4,307.5,433.6,307.5,433.8,307.5z M436.7,302.9c-0.7,1.5-2.2,1.9-3.2,1.8c-1.5-0.2-2.6-1.2-2.9-2.8
				c-2.6-12.3-5.2-24.5-7.8-36.8c-1.7-7.9-3.3-15.7-5-23.6c-0.3-1.3-0.9-1.9-2.2-2.1c-4.4-0.8-7.3-3.3-8.6-7.5
				c-1.5-5.5-2.3-13.2,2-18.5c2.9-3.3,8.2-3.1,11.3-0.8c4.4,3.9,6.4,9.7,7.3,13.9c1,4.6-1,9.3-5.2,11.7c-1,0.5-1.3,1.4-1,2.5
				c2.4,9.3,4.8,18.6,7.1,27.9c2.6,10.3,5.2,20.5,7.9,30.8C436.7,300.8,436.9,301.9,436.7,302.9z"/>
		</g>
		<g>
			<path fill="#EAB56F" d="M443.6,281.4c-9.3-5.9-18.9-1.2-18.9-1.2c-8.6,2.8-14.4,8.9-13,17.9s7.5,14.1,17.9,12.4
				c0,0,12.8,0.3,19.8-8.6"/>
			<path fill="#232021" d="M425.7,312.1c1.2,0,2.5-0.1,3.9-0.3c1.5,0,13.7-0.1,20.8-9.1c0.5-0.6,0.4-1.5-0.2-2s-1.5-0.4-2,0.2
				c-6.5,8.2-18.6,8-18.7,8s-0.2,0-0.3,0c-4.7,0.8-8.4,0.1-11.2-1.9c-2.7-2-4.3-5.1-5-9.3c-1.6-10.2,6.9-14.6,12-16.3
				c0.3-0.1,9.2-4.3,17.8,1.1c0.7,0.4,1.5,0.2,1.9-0.5s0.2-1.5-0.5-2c-9.8-6.2-19.8-1.5-20.3-1.3c-10.1,3.3-15.2,10.4-13.8,19.4
				c0.8,4.9,2.9,8.8,6.1,11.1C418.9,311.2,422.1,312.1,425.7,312.1z"/>
		</g>
		<g>
			<g>
				<path fill="#FFFFFF" d="M426,300.8c0.7,0,0.9,0,1-0.2c0.3-0.3-0.2-0.7-0.4-1c-0.3-0.5-0.7-0.9-1.2-1.3c-1.6-1.2-1.7-1.9-0.5-3.4
					c1.6-2.1,1.5-4.7-0.2-6.7c-0.6-0.6-1.3-1-2.1-1.4c-1.6-0.7-1.9-1.4-1.2-2.9c1.6-3.5-0.7-7.1-4.4-7.4c-1.5-0.1-2.1-1-1.8-2.4
					c0.6-3.9-2.2-6.7-6.1-6c-1.4,0.2-2.1-0.3-2.4-1.8c-0.4-3-1.8-4.5-4.6-4.9c-0.9-0.2-1.8,0.1-2.6,0.5c-1.7,0.7-2.5,0.4-3.1-1.3
					c-1.1-3.2-5.3-4.4-8-2.2c-1.5,1.3-2.2,1.1-3.4-0.5c-2.2-2.8-6-2.8-8.2,0c-1.2,1.6-1.9,1.7-3.4,0.5c-2.7-2.2-6.8-1-8,2.2
					c-0.6,1.8-1.4,2.1-3.1,1.3c-3.2-1.5-6.8,0.7-7.2,4c-0.1,0.6-0.1,1.3-0.5,1.8c-0.5,0.6-1.2,0.6-1.9,0.5c-3.9-0.6-6.7,2.2-6.1,6
					c0.2,1.4-0.4,2.3-1.8,2.4c-3.7,0.3-5.9,3.9-4.4,7.4c0.7,1.5,0.4,2.3-1.2,2.9c-3.5,1.3-4.4,5.6-2.2,8.2c1.1,1.3,0.9,2.2-0.5,3.2
					c-0.7,0.5-1.2,1.1-1.6,1.9c-0.3,0.5-0.1,0.7,0.4,0.7c0.2,0,0.5-0.1,0.7,0C355.9,310.4,401.2,309.8,426,300.8z"/>
				<path fill="#232021" d="M378.6,309.2c16.9,0,34.6-2.3,47.7-7c0.7,0,1.3-0.1,1.8-0.6c0.4-0.4,0.9-1.3-0.1-2.6l-0.1-0.1
					c-0.4-0.6-0.9-1.1-1.6-1.7c-0.6-0.4-0.7-0.6-0.7-0.7c0,0,0.1-0.2,0.5-0.8c2-2.6,1.9-6-0.3-8.4c-0.8-0.9-1.9-1.4-2.6-1.7
					c-0.5-0.2-0.7-0.4-0.7-0.4s0-0.2,0.2-0.7c0.9-2.1,0.8-4.3-0.3-6.2c-1.1-1.8-3-3-5.2-3.2c-0.4,0-0.5-0.1-0.6-0.2
					c0,0-0.1-0.3,0-0.7c0.4-2.3-0.3-4.4-1.8-5.9s-3.6-2.1-5.9-1.7c-0.4,0.1-0.6,0-0.6,0l0,0c0,0-0.1-0.1-0.2-0.6
					c-0.5-3.6-2.4-5.5-5.8-6.1c-1.3-0.2-2.4,0.1-3.4,0.5c-0.7,0.3-0.9,0.3-1,0.3c0,0-0.1-0.2-0.4-0.8c-0.7-1.9-2.3-3.4-4.3-4
					s-4.2-0.1-5.8,1.2c-0.5,0.4-0.7,0.5-0.8,0.5c-0.1-0.1-0.3-0.2-0.7-0.8c-1.3-1.7-3.2-2.7-5.2-2.7l0,0c-2,0-3.9,1-5.2,2.7
					c-0.4,0.5-0.6,0.7-0.7,0.8c-0.1,0-0.3-0.2-0.8-0.5c-1.6-1.3-3.8-1.8-5.8-1.2c-2,0.6-3.6,2-4.3,4c-0.2,0.6-0.4,0.8-0.4,0.8
					s-0.2,0-0.9-0.3c-1.9-0.9-4.1-0.8-5.9,0.3c-1.8,1-3,2.8-3.2,4.8v0.3c0,0.3-0.1,0.6-0.1,0.7c-0.1,0.1-0.2,0.2-0.7,0.1
					c-2.3-0.4-4.4,0.2-5.9,1.7s-2.1,3.6-1.8,5.9c0.1,0.4,0,0.6,0,0.7c0,0-0.2,0.1-0.6,0.2c-2.2,0.2-4.1,1.3-5.2,3.2
					c-1.1,1.8-1.2,4.1-0.3,6.2c0.2,0.5,0.2,0.7,0.2,0.7s-0.2,0.1-0.7,0.3c-2.1,0.8-3.6,2.4-4.1,4.5s0,4.3,1.4,5.9
					c0.3,0.4,0.4,0.6,0.4,0.6s-0.1,0.2-0.6,0.6c-0.8,0.6-1.5,1.4-2,2.3c-0.4,0.7-0.4,1.3-0.1,1.9c0.3,0.5,0.9,0.8,1.7,0.8
					c0.1,0,0.2,0,0.4,0C345.5,306.9,361.6,309.2,378.6,309.2z M424.9,299.8c-25.2,8.8-69.1,8.8-88,0c0.1-0.1,0.2-0.2,0.4-0.3
					c0.7-0.5,1.6-1.3,1.8-2.5c0.1-0.9-0.2-1.8-1.1-2.7c-0.8-0.9-1.1-2.2-0.8-3.4c0.3-1.2,1.2-2.2,2.4-2.6c0.8-0.3,1.8-0.8,2.3-1.9
					s0.1-2.2-0.3-2.9c-0.6-1.2-0.5-2.6,0.1-3.6c0.6-1.1,1.8-1.7,3.1-1.8c1.4-0.1,2.1-0.7,2.5-1.2c0.6-0.7,0.8-1.7,0.6-2.8
					c-0.2-1.4,0.1-2.7,1-3.5s2.1-1.2,3.5-0.9c0.5,0.1,1.9,0.3,3.1-0.9c0.7-0.8,0.8-1.7,0.9-2.3v-0.2c0.1-1.1,0.8-2.1,1.8-2.7
					c1.1-0.6,2.3-0.7,3.4-0.1c0.8,0.4,2,0.8,3.1,0.3s1.6-1.6,1.9-2.4c0.4-1.1,1.3-1.9,2.5-2.2c1.2-0.3,2.4-0.1,3.3,0.7
					c0.8,0.6,1.7,1.3,2.8,1.1c1.1-0.1,1.9-1,2.6-1.8c0.8-1,1.9-1.6,3-1.6s2.2,0.6,3,1.6c0.7,0.9,1.4,1.7,2.6,1.8
					c1.1,0.1,2.1-0.5,2.8-1.1c0.9-0.8,2.1-1,3.3-0.7c1.2,0.3,2.1,1.2,2.5,2.2c0.3,0.8,0.8,1.9,1.9,2.4s2.2,0.1,3.1-0.2
					c0.7-0.3,1.3-0.5,1.9-0.4c2.2,0.4,3.1,1.4,3.5,3.8c0.2,1.1,0.6,1.9,1.3,2.4c0.7,0.5,1.6,0.7,2.6,0.5c1.4-0.2,2.7,0.1,3.5,1
					c0.9,0.8,1.2,2.1,1,3.5c-0.2,1.1,0,2.1,0.6,2.8c0.4,0.5,1.1,1.1,2.5,1.2c1.3,0.1,2.5,0.8,3.1,1.8c0.6,1.1,0.7,2.4,0.1,3.6
					c-0.3,0.7-0.7,1.8-0.3,2.8c0.4,1,1.4,1.6,2.2,1.9c0.7,0.3,1.2,0.6,1.6,1c1.3,1.4,1.3,3.3,0.1,4.9c-0.6,0.8-1.2,1.8-1.1,2.9
					c0.2,1.1,1,1.9,1.8,2.5C424.7,299.6,424.8,299.7,424.9,299.8z"/>
			</g>
			<g>
				<path fill="#FFFFFF" d="M394.7,270.7c0,0,0,1.1,0.4,1.1c0.5,0,1.1-0.7,1.1-0.7"/>
				<path fill="#232021" d="M395.1,272.3L395.1,272.3c0.7-0.1,1.3-0.7,1.5-0.9c0.2-0.2,0.2-0.5,0-0.6c-0.2-0.2-0.5-0.2-0.6,0
					c-0.2,0.2-0.5,0.4-0.7,0.5c0-0.1-0.1-0.4-0.1-0.6c0-0.3-0.2-0.5-0.5-0.5l0,0c-0.3,0-0.5,0.2-0.5,0.5s0,1,0.4,1.4
					C394.7,272.2,394.9,272.3,395.1,272.3z"/>
			</g>
			<g>
				<path fill="#FFFFFF" d="M389.6,294c0,0,0.6,0.5,0.8,0.3c0.2-0.3,0.1-0.9,0.1-0.9"/>
				<path fill="#232021" d="M390.2,294.8C390.3,294.8,390.3,294.8,390.2,294.8c0.3,0,0.4-0.1,0.5-0.3c0.3-0.4,0.2-1,0.2-1.2
					c0-0.3-0.3-0.4-0.5-0.4c-0.3,0-0.4,0.3-0.4,0.5c0,0.1,0,0.3,0,0.4c-0.1,0-0.1-0.1-0.2-0.1c-0.2-0.2-0.5-0.1-0.6,0
					c-0.2,0.2-0.1,0.5,0,0.6C389.5,294.6,389.9,294.8,390.2,294.8z"/>
			</g>
			<g>
				<path fill="#FFFFFF" d="M349.1,295.3c0,0,0.6,0.5,0.8,0.3c0.2-0.3,0.1-0.9,0.1-0.9"/>
				<path fill="#232021" d="M349.7,296.1C349.7,296.1,349.8,296.1,349.7,296.1c0.3,0,0.4-0.1,0.5-0.3c0.3-0.4,0.2-1,0.2-1.2
					c0-0.3-0.3-0.4-0.5-0.4c-0.3,0-0.4,0.3-0.4,0.5c0,0.1,0,0.3,0,0.4c-0.1,0-0.1-0.1-0.2-0.1c-0.2-0.2-0.5-0.1-0.6,0
					c-0.2,0.2-0.1,0.5,0,0.6C349,295.8,349.4,296.1,349.7,296.1z"/>
			</g>
			<g>
				<path fill="#FFFFFF" d="M374.9,277.1c0,0,0.3,0.9,0.6,0.7c0.3-0.2,0.6-0.8,0.6-0.8"/>
				<path fill="#232021" d="M375.4,278.2c0.1,0,0.2,0,0.3-0.1c0.5-0.2,0.7-0.9,0.8-1.1c0.1-0.2,0-0.5-0.3-0.6
					c-0.2-0.1-0.5,0-0.6,0.3c-0.1,0.2-0.2,0.3-0.3,0.5c-0.1-0.1-0.1-0.2-0.1-0.3c-0.1-0.2-0.4-0.4-0.6-0.3s-0.4,0.4-0.3,0.6
					s0.3,0.8,0.8,1C375.3,278.2,375.3,278.2,375.4,278.2z"/>
			</g>
			<g>
				<path fill="#FFFFFF" d="M366.7,270.2c0,0,0.9,0.8,1.2,0.4c0.3-0.4,0.2-1.3,0.2-1.3"/>
				<path fill="#232021" d="M367.6,271.2C367.7,271.2,367.7,271.2,367.6,271.2c0.3,0,0.5-0.1,0.6-0.3c0.4-0.5,0.3-1.5,0.3-1.6
					c0-0.3-0.2-0.4-0.5-0.4s-0.4,0.3-0.4,0.5c0,0.3,0,0.7,0,0.9c-0.1-0.1-0.4-0.2-0.5-0.4c-0.2-0.2-0.5-0.1-0.6,0
					c-0.2,0.2-0.1,0.5,0,0.6C366.6,270.8,367.1,271.2,367.6,271.2z"/>
			</g>
			<g>
				<path fill="#FFFFFF" d="M406.5,278.6c0,0,0,1.6,0.7,1.5s1.5-1,1.5-1"/>
				<path fill="#232021" d="M407.1,280.6h0.1c0.8-0.1,1.6-1,1.8-1.2c0.2-0.2,0.2-0.5,0-0.6c-0.2-0.2-0.5-0.1-0.6,0
					c-0.3,0.3-0.8,0.8-1.2,0.9c-0.1-0.2-0.2-0.6-0.2-1.1c0-0.3-0.2-0.5-0.5-0.4c-0.3,0-0.5,0.2-0.4,0.5c0,0.3,0.1,1.4,0.6,1.8
					C406.8,280.5,407,280.6,407.1,280.6z"/>
			</g>
			<g>
				<path fill="#FFFFFF" d="M409.5,291.3c0,0,0,1.6,0.7,1.5s1.5-1,1.5-1"/>
				<path fill="#232021" d="M410.1,293.2h0.1c0.8-0.1,1.6-1,1.8-1.2c0.2-0.2,0.2-0.5,0-0.6c-0.2-0.2-0.5-0.1-0.6,0
					c-0.3,0.3-0.8,0.8-1.2,0.9c-0.1-0.2-0.2-0.6-0.2-1.1c0-0.3-0.2-0.4-0.5-0.4s-0.5,0.2-0.4,0.5c0,0.3,0.1,1.4,0.6,1.8
					C409.7,293.2,409.9,293.2,410.1,293.2z"/>
			</g>
			<g>
				<path fill="#FFFFFF" d="M354.9,286.8c0,0,0,0.9,0.4,0.9s0.9-0.6,0.9-0.6"/>
				<path fill="#232021" d="M355.3,288.2L355.3,288.2c0.6-0.1,1.1-0.6,1.3-0.8c0.2-0.2,0.1-0.5,0-0.6c-0.2-0.2-0.5-0.1-0.6,0
					s-0.3,0.3-0.4,0.4c0-0.1,0-0.3,0-0.4c0-0.3-0.2-0.4-0.5-0.4s-0.5,0.2-0.4,0.5c0,0.3,0.1,0.9,0.4,1.2
					C355,288.1,355.1,288.2,355.3,288.2z"/>
			</g>
			<g>
				<path fill="#FFFFFF" d="M374.4,289c0,0,0.4,0.8,0.7,0.6c0.3-0.2,0.5-0.9,0.5-0.9"/>
				<path fill="#232021" d="M375.1,290.1c0.1,0,0.2,0,0.4-0.1c0.4-0.3,0.7-1,0.7-1.2c0.1-0.2-0.1-0.5-0.3-0.6
					c-0.2-0.1-0.5,0.1-0.6,0.3c0,0.2-0.1,0.4-0.2,0.5c-0.1-0.1-0.1-0.2-0.2-0.3c-0.1-0.2-0.4-0.3-0.6-0.2c-0.2,0.1-0.3,0.4-0.2,0.6
					c0.1,0.2,0.4,0.8,0.9,0.9C375,290.1,375,290.1,375.1,290.1z"/>
			</g>
			<g>
				<path fill="#D29F50" d="M332.1,300.4c-1,0-1.2,0.2-1.1,1.1c0.6,9.7,4.2,18.4,10.7,26c7.1,8.3,16.1,14,27.2,16.3
					c19.4,4.1,36-0.7,49.5-14.2c6.3-6.3,10.1-13.9,11.8-22.3c0.4-2,0.6-3.9,0.7-5.9c0-0.7-0.2-0.9-0.9-0.9
					C397.7,305.2,364.4,306.8,332.1,300.4z"/>
				<path fill="#232021" d="M381.7,346.6c14.3,0,26.9-5.4,37.5-16c6.2-6.2,10.4-14,12.2-23c0.4-2,0.7-4.1,0.8-6.2
					c0-0.3,0.1-1.1-0.5-1.7s-1.4-0.6-1.8-0.6h-0.2c-37.2,5.6-69.1,5.6-97.4,0H332c-0.4,0-1.3,0-2,0.7c-0.5,0.6-0.6,1.3-0.5,1.9
					c0.6,10,4.3,19,11,26.8c7.5,8.8,16.9,14.4,28,16.7C373.1,346.1,377.5,346.6,381.7,346.6z M429.5,301.9c-0.1,1.7-0.3,3.5-0.7,5.1
					c-1.7,8.5-5.6,15.8-11.5,21.6c-13.2,13.1-29.4,17.8-48.2,13.9c-10.5-2.2-19.4-7.5-26.5-15.8c-6.2-7.2-9.6-15.6-10.3-24.8
					C360.6,307.4,392.4,307.4,429.5,301.9z"/>
			</g>
		</g>
		<g>
			<g>
				<path fill="#FFFFFF" d="M297,298.8c0.4,0,0.5,0,0.6-0.1c0.2-0.2-0.1-0.4-0.2-0.6c-0.2-0.3-0.4-0.5-0.7-0.7
					c-0.9-0.7-0.9-1-0.3-1.9c0.9-1.2,0.9-2.7-0.1-3.8c-0.3-0.4-0.7-0.6-1.2-0.8c-0.9-0.4-1.1-0.8-0.7-1.6c0.9-2-0.4-4-2.5-4.2
					c-0.8-0.1-1.2-0.5-1-1.4c0.3-2.2-1.2-3.8-3.4-3.4c-0.8,0.1-1.2-0.2-1.3-1c-0.3-1.7-1-2.5-2.6-2.8c-0.5-0.1-1,0.1-1.5,0.3
					c-1,0.4-1.4,0.2-1.8-0.7c-0.6-1.8-3-2.5-4.5-1.2c-0.9,0.7-1.3,0.6-1.9-0.3c-1.2-1.6-3.4-1.6-4.6,0c-0.7,0.9-1.1,1-1.9,0.3
					c-1.5-1.2-3.9-0.6-4.5,1.2c-0.4,1-0.8,1.2-1.8,0.7c-1.8-0.8-3.8,0.4-4,2.2c0,0.3,0,0.7-0.3,1s-0.7,0.4-1.1,0.3
					c-2.2-0.4-3.8,1.2-3.4,3.4c0.1,0.8-0.2,1.3-1,1.4c-2.1,0.2-3.4,2.2-2.5,4.2c0.4,0.9,0.2,1.3-0.7,1.6c-2,0.7-2.5,3.2-1.2,4.6
					c0.6,0.7,0.5,1.2-0.3,1.8c-0.4,0.3-0.7,0.6-0.9,1c-0.2,0.3-0.1,0.4,0.2,0.4c0.1,0,0.3-0.1,0.4,0
					C260.8,306.1,277,307.3,297,298.8z"/>
				<path fill="#232021" d="M270.6,305.9c8.5,0,17.4-2,26.7-5.9c0.4,0,0.8-0.1,1.2-0.4c0.2-0.2,0.8-0.9,0-1.9
					c-0.3-0.4-0.6-0.7-1-1.1c-0.1,0-0.1-0.1-0.2-0.1c0,0,0.1-0.1,0.1-0.2c1.2-1.6,1.2-3.7-0.2-5.2c-0.5-0.6-1.1-0.9-1.6-1.1h-0.1
					c0,0,0,0,0-0.1c0.6-1.3,0.5-2.7-0.2-3.8c-0.7-1.1-1.9-1.9-3.2-2l0,0c0.2-1.4-0.2-2.7-1.1-3.6s-2.2-1.3-3.6-1.1l0,0l0,0
					c-0.3-2.2-1.5-3.4-3.6-3.7c-0.8-0.1-1.5,0.1-2.1,0.3c-0.1,0-0.1,0.1-0.2,0.1c0,0,0-0.1-0.1-0.1c-0.4-1.2-1.4-2.1-2.7-2.5
					c-1.3-0.4-2.6-0.1-3.6,0.7c-0.1,0-0.1,0.1-0.1,0.1s-0.1-0.1-0.1-0.2c-0.8-1-2-1.6-3.2-1.6l0,0c-1.3,0-2.4,0.6-3.2,1.6
					c-0.1,0.1-0.1,0.1-0.1,0.2l-0.1-0.1c-1-0.8-2.3-1.1-3.6-0.7c-1.3,0.3-2.3,1.3-2.7,2.5c0,0.1,0,0.1-0.1,0.1c0,0-0.1,0-0.2-0.1
					c-1.2-0.5-2.5-0.5-3.7,0.2c-1.1,0.6-1.9,1.7-2,3v0.2v0.1l0,0c-1.4-0.2-2.7,0.2-3.6,1.1c-0.9,0.9-1.3,2.2-1.1,3.7l0,0
					c-1.4,0.1-2.6,0.8-3.2,2c-0.7,1.1-0.7,2.5-0.2,3.8c0,0,0,0,0,0.1c0,0,0,0-0.1,0c-1.3,0.5-2.2,1.5-2.5,2.8s0,2.7,0.9,3.6l0,0
					c0,0-0.1,0-0.1,0.1c-0.5,0.4-0.9,0.8-1.3,1.4c-0.4,0.6-0.2,1.1,0,1.4s0.6,0.7,1.4,0.6C253.9,303.9,262.1,305.9,270.6,305.9z
					 M295.7,298.2c-17.7,7.3-33.1,7.3-48.2,0c0.3-0.3,0.8-0.8,0.9-1.5c0.1-0.9-0.5-1.6-0.7-1.8c-0.4-0.4-0.5-1-0.4-1.6
					c0.1-0.3,0.3-0.9,1.1-1.2c0.5-0.2,1.2-0.5,1.5-1.2s0.1-1.4-0.1-1.9c-0.3-0.6-0.2-1.2,0.1-1.7s0.8-0.8,1.5-0.9
					c0.9-0.1,1.4-0.5,1.7-0.8s0.6-0.9,0.4-1.9c-0.1-0.7,0.1-1.3,0.4-1.7c0.4-0.4,1-0.5,1.7-0.4c0.8,0.1,1.6-0.1,2.1-0.6
					s0.6-1.2,0.6-1.5v-0.1c0.1-0.5,0.4-1,0.8-1.3c0.5-0.3,1.1-0.3,1.6-0.1c0.5,0.2,1.3,0.5,2,0.2c0.8-0.3,1.1-1.1,1.3-1.6
					c0.2-0.5,0.6-0.9,1.1-1c0.6-0.2,1.1,0,1.5,0.3c0.5,0.4,1.1,0.8,1.9,0.7c0.8-0.1,1.3-0.6,1.7-1.2c0.7-1,2.1-1,2.8,0
					c0.4,0.5,0.9,1.1,1.7,1.2c0.8,0.1,1.4-0.3,1.9-0.7c0.4-0.4,1-0.5,1.5-0.3s1,0.5,1.1,1c0.2,0.5,0.5,1.2,1.2,1.5s1.5,0.1,2-0.1
					c0.4-0.2,0.6-0.2,0.9-0.2c1.1,0.2,1.5,0.6,1.7,1.8c0.1,0.7,0.4,1.3,0.9,1.6c0.5,0.3,1.1,0.5,1.8,0.3c0.7-0.1,1.3,0,1.7,0.4
					c0.4,0.4,0.6,1,0.4,1.7c-0.1,0.9,0.1,1.5,0.4,1.9c0.3,0.3,0.8,0.7,1.7,0.8c0.6,0,1.2,0.4,1.5,0.9s0.3,1.1,0.1,1.7
					c-0.2,0.5-0.4,1.2-0.2,1.9c0.3,0.7,1,1.1,1.5,1.3c0.4,0.2,0.6,0.3,0.8,0.5c0.6,0.7,0.6,1.5,0.1,2.3c-0.4,0.5-0.8,1.2-0.7,1.9
					C294.9,297.4,295.3,297.8,295.7,298.2z M247.9,289.8L247.9,289.8L247.9,289.8z M251.1,284.2L251.1,284.2L251.1,284.2z
					 M251.3,284L251.3,284L251.3,284z M291.9,284L291.9,284L291.9,284z"/>
			</g>
			<g>
				<path fill="#FFFFFF" d="M279.4,281.9c0,0,0,0.6,0.3,0.6s0.6-0.4,0.6-0.4"/>
				<path fill="#232021" d="M279.6,282.9L279.6,282.9c0.5,0,0.9-0.4,1-0.5c0.2-0.2,0.2-0.5,0-0.6c-0.2-0.2-0.5-0.2-0.6,0
					c0,0,0,0-0.1,0.1c0-0.2-0.2-0.4-0.5-0.4l0,0c-0.3,0-0.5,0.2-0.5,0.5c0,0.2,0,0.7,0.3,0.9C279.3,282.9,279.4,282.9,279.6,282.9z"
					/>
			</g>
			<g>
				<path fill="#FFFFFF" d="M276.5,295c0,0,0.3,0.3,0.4,0.2c0.1-0.2,0.1-0.5,0.1-0.5"/>
				<path fill="#232021" d="M276.9,295.7L276.9,295.7c0.2,0,0.4-0.1,0.5-0.2c0.2-0.3,0.2-0.7,0.1-0.8c0-0.3-0.3-0.4-0.5-0.4
					s-0.4,0.2-0.4,0.4c-0.1,0-0.3,0-0.4,0.2c-0.2,0.2-0.1,0.5,0,0.6C276.3,295.5,276.6,295.7,276.9,295.7z"/>
			</g>
			<g>
				<path fill="#FFFFFF" d="M253.7,295.7c0,0,0.3,0.3,0.4,0.2c0.1-0.2,0.1-0.5,0.1-0.5"/>
				<path fill="#232021" d="M254,296.4C254,296.4,254.1,296.4,254,296.4c0.2,0,0.4-0.1,0.5-0.2c0.2-0.3,0.2-0.7,0.1-0.8
					c0-0.3-0.3-0.4-0.5-0.4s-0.4,0.2-0.4,0.4c-0.2,0-0.3,0-0.4,0.2c-0.2,0.2-0.1,0.5,0,0.6C253.5,296.2,253.8,296.4,254,296.4z"/>
			</g>
			<g>
				<path fill="#FFFFFF" d="M268.2,285.4c0,0,0.2,0.5,0.4,0.4c0.2-0.1,0.3-0.5,0.3-0.5"/>
				<path fill="#232021" d="M268.5,286.3c0.1,0,0.2,0,0.3-0.1c0.3-0.2,0.5-0.6,0.6-0.7c0.1-0.2,0-0.5-0.3-0.6
					c-0.2-0.1-0.4,0-0.6,0.2c-0.1-0.1-0.3-0.2-0.5-0.1s-0.4,0.4-0.3,0.6s0.2,0.5,0.5,0.7C268.4,286.3,268.4,286.3,268.5,286.3z"/>
			</g>
			<g>
				<path fill="#FFFFFF" d="M263.6,281.6c0,0,0.5,0.4,0.7,0.2c0.2-0.2,0.1-0.8,0.1-0.8"/>
				<path fill="#232021" d="M264.1,282.3C264.1,282.3,264.2,282.3,264.1,282.3c0.3,0,0.4-0.1,0.5-0.3c0.2-0.3,0.2-0.9,0.2-1.1
					c0-0.3-0.3-0.4-0.5-0.4c-0.3,0-0.4,0.3-0.4,0.5v0.1l0,0c-0.2-0.2-0.5-0.1-0.6,0c-0.2,0.2-0.1,0.5,0,0.6
					C263.5,282.1,263.8,282.3,264.1,282.3z"/>
			</g>
			<g>
				<path fill="#FFFFFF" d="M286,286.3c0,0,0,0.9,0.4,0.9s0.8-0.6,0.8-0.6"/>
				<path fill="#232021" d="M286.4,287.7C286.4,287.7,286.4,287.6,286.4,287.7c0.6-0.1,1.1-0.6,1.2-0.7c0.2-0.2,0.1-0.5,0-0.6
					c-0.2-0.2-0.5-0.2-0.6,0c-0.1,0.1-0.3,0.3-0.4,0.3c0-0.1,0-0.2,0-0.3c0-0.3-0.2-0.4-0.5-0.4s-0.5,0.2-0.4,0.5
					c0,0.3,0.1,0.9,0.4,1.2C286.1,287.6,286.2,287.7,286.4,287.7z"/>
			</g>
			<g>
				<path fill="#FFFFFF" d="M287.7,293.5c0,0,0,0.9,0.4,0.9s0.8-0.6,0.8-0.6"/>
				<path fill="#232021" d="M288,294.8C288.1,294.8,288.1,294.8,288,294.8c0.6-0.1,1.1-0.6,1.2-0.7c0.2-0.2,0.1-0.5,0-0.6
					c-0.2-0.2-0.5-0.2-0.6,0c-0.1,0.1-0.3,0.3-0.4,0.3c0-0.1,0-0.2,0-0.3c0-0.3-0.2-0.4-0.5-0.4s-0.5,0.2-0.4,0.5
					c0,0.3,0.1,0.9,0.4,1.2C287.7,294.7,287.9,294.8,288,294.8z"/>
			</g>
			<g>
				<path fill="#FFFFFF" d="M256.9,290.9c0,0,0,0.5,0.2,0.5s0.5-0.3,0.5-0.3"/>
				<path fill="#232021" d="M257.2,291.9L257.2,291.9c0.4,0,0.7-0.4,0.9-0.5c0.2-0.2,0.1-0.5,0-0.6c-0.2-0.2-0.4-0.2-0.6,0
					c-0.1-0.2-0.2-0.3-0.4-0.3c-0.3,0-0.5,0.2-0.4,0.5c0,0.2,0,0.6,0.3,0.8C256.9,291.9,257,291.9,257.2,291.9z"/>
			</g>
			<g>
				<path fill="#FFFFFF" d="M268,292.2c0,0,0.2,0.5,0.4,0.4c0.2-0.1,0.3-0.5,0.3-0.5"/>
				<path fill="#232021" d="M268.3,293c0.1,0,0.3,0,0.3-0.1c0.3-0.2,0.4-0.6,0.5-0.8c0.1-0.2-0.1-0.5-0.3-0.6
					c-0.2-0.1-0.4,0-0.5,0.2c-0.1-0.1-0.3-0.1-0.5-0.1c-0.2,0.1-0.3,0.4-0.2,0.6c0.1,0.2,0.3,0.5,0.6,0.6
					C268.2,293,268.2,293,268.3,293z"/>
			</g>
			<g>
				<path fill="#D29F50" d="M244.1,298.6c-0.5,0-0.7,0.1-0.6,0.6c0.4,5.5,2.4,10.4,6,14.7c4,4.7,9.1,7.9,15.4,9.2
					c10.9,2.3,20.3-0.4,27.9-8c3.6-3.6,5.7-7.8,6.7-12.6c0.2-1.1,0.4-2.2,0.4-3.4c0-0.4-0.1-0.5-0.5-0.5
					C276.8,304.2,261.5,302.9,244.1,298.6z"/>
				<path fill="#232021" d="M272.1,325c8.1,0,15.3-3.1,21.4-9.1c3.6-3.6,5.9-8,7-13.2c0.2-1.1,0.4-2.3,0.4-3.5c0-0.2,0-0.8-0.4-1.3
					s-1.1-0.5-1.3-0.5h-0.3c-22.7,5.7-37.8,4.2-54.6,0H244c-0.3,0-0.9,0-1.4,0.5s-0.4,1.1-0.4,1.3c0.4,5.7,2.5,10.9,6.3,15.3
					c4.3,5,9.7,8.2,16,9.6C267.2,324.7,269.7,325,272.1,325z M298.6,299.9c-0.1,0.8-0.2,1.5-0.3,2.3c-1,4.7-3.1,8.8-6.4,12
					c-7.3,7.3-16.4,9.9-26.8,7.7c-5.8-1.2-10.8-4.2-14.7-8.8c-3.3-3.9-5.2-8.3-5.7-13.2C260.8,303.9,276.3,305.3,298.6,299.9z"/>
			</g>
		</g>
		<g>
			<path fill="#232021" d="M386.4,200.6c0.4,0,0.7-0.2,0.9-0.6l0,0c0,0,0.6-1.2,3.4-2.3c2.3-0.9,4.9-0.2,5-0.2
				c0.5,0.1,1-0.2,1.2-0.7c0.1-0.5-0.2-1-0.7-1.2c-0.1,0-3.3-0.9-6.2,0.3c-3.6,1.4-4.4,3.2-4.4,3.4c-0.2,0.5,0,1.1,0.5,1.3
				C386.1,200.6,386.3,200.6,386.4,200.6z"/>
			<path fill="#232021" d="M367.4,203.3c0.2,0,0.3-0.1,0.5-0.2c0.4-0.3,0.5-0.9,0.1-1.3c-0.1-0.2-1.4-1.6-5.2-1.9
				c-3.1-0.3-5.9,1.4-6,1.5c-0.5,0.3-0.6,0.9-0.3,1.3c0.3,0.5,0.9,0.6,1.3,0.3c0,0,2.4-1.4,4.8-1.2c3,0.3,3.9,1.2,3.9,1.2
				C366.7,203.2,367.1,203.3,367.4,203.3z"/>
		</g>
	</g>
</g>
<g>
	<g>
		<path fill="#FFFFFF" d="M63.5,164.6h21.3v60H73.9v-49.2H63.5V164.6z"/>
	</g>
	<path fill="#FFFFFF" d="M76.3,274.4C34.2,274.4,0,240.2,0,198.1c0-42.1,34.2-76.3,76.3-76.3c42.1,0,76.3,34.2,76.3,76.3
		C152.6,240.2,118.4,274.4,76.3,274.4z M76.3,127.8C37.5,127.8,6,159.3,6,198.1c0,38.8,31.5,70.3,70.3,70.3s70.3-31.5,70.3-70.3
		C146.6,159.3,115.1,127.8,76.3,127.8z"/>
</g>
<g>
	<g>
		<g>
			<rect x="930.6" y="83" fill="#6C432B" width="250.9" height="161"/>
			<path fill="#232021" d="M1182.7,245.2H929.4V81.9h253.3L1182.7,245.2L1182.7,245.2z M931.8,242.9h248.6V84.2H931.8V242.9z"/>
		</g>
		<g>
			<rect x="940.1" y="92.7" fill="#5E9566" width="232" height="141.7"/>
			<path fill="#232021" d="M1173.3,235.6H938.9V91.5h234.3L1173.3,235.6L1173.3,235.6z M941.3,233.2H1171V93.9H941.3V233.2z"/>
		</g>
	</g>
	<g>
		<g>
			<g>
				<path fill="#EAB56F" d="M1139.4,242.6c-0.6-0.1-1.2-0.1-1.7-0.1l0,0c0,0-13.6-4.1-23.4-8.4c-1.2-0.9-2.5-1.5-4-1.9
					c-6.9-3.7-17.8-11-17.9-11.3c-0.3-2.3-0.9-5.1-1.5-6.8c-0.1-2.1-0.6-4.8-2.3-6.1c-3.1-2.4-5.5-1-4.2,3.3l0,0c-2-1.3-4.4-2-7-2
					c-7.3,0-13.2,5.9-13.2,13.2s6,11.4,13.2,15.5c0.7,0.4,1.5,0.6,2.2,0.7c3,2.9,12.3,11.6,18.2,16.2c0.6,0.5,1.2,1,1.9,1.4
					c0.9,0.6,1.7,1.1,2.2,1.3c4.5,1.8,21.9,12.4,36,11.5c0.9,0,1.8-0.1,2.6-0.3c0.1,0,0.1,0,0.2,0c1.4-0.3,2.5-0.7,3.3-1.3
					c3.4-1.9,6-5.4,6.6-9.6C1151.6,250.3,1146.6,243.6,1139.4,242.6z"/>
				<path fill="#232021" d="M1136,270.1c-11.2,0-23.8-6.3-30.7-9.8c-1.7-0.8-3-1.5-3.8-1.8c-0.6-0.3-1.4-0.7-2.4-1.4
					c-0.6-0.4-1.3-0.9-2-1.5c-5.8-4.5-14.9-13-18-16c-0.8-0.1-1.5-0.4-2.3-0.8c-7.3-4.2-13.8-8.5-13.8-16.5c0-3.8,1.5-7.5,4.2-10.2
					s6.3-4.2,10.2-4.2l0,0c1.9,0,3.7,0.4,5.4,1.1c0-1.8,0.8-2.6,1.3-3c1.3-0.9,3.2-0.6,5.1,0.9c1.6,1.3,2.6,3.6,2.8,6.9
					c0.4,1.6,1,4.1,1.4,6.5c1.7,1.3,11.1,7.5,17.2,10.8c1.5,0.4,2.9,1.1,4.1,2c9.1,4,21.7,7.9,23.1,8.3c0.6,0,1.2,0.1,1.7,0.1l0,0
					c3.8,0.5,7.2,2.5,9.5,5.6s3.3,6.9,2.7,10.7c-0.6,4.4-3.2,8.2-7.1,10.4c-1,0.7-2.3,1.2-3.7,1.5h-0.2c-0.9,0.2-1.9,0.3-2.8,0.4
					C1137.3,270.1,1136.6,270.1,1136,270.1z M1077.4,210.2c-3.2,0-6.2,1.3-8.5,3.5c-2.3,2.3-3.5,5.3-3.5,8.5
					c0,6.7,5.7,10.5,12.6,14.5c0.5,0.3,1.1,0.5,1.7,0.5h0.4l0.3,0.3c2.7,2.6,12.2,11.6,18.1,16.2c0.6,0.5,1.2,1,1.8,1.3
					c1.1,0.8,1.7,1.1,2,1.2c0.9,0.4,2.3,1,4,1.9c7.1,3.6,20.4,10.3,31.5,9.5c0.9,0,1.6-0.1,2.4-0.3h0.2c1.2-0.2,2.2-0.6,2.9-1.1
					l0.1-0.1c3.3-1.9,5.5-5.1,6-8.8c0.5-3.2-0.4-6.4-2.3-8.9c-1.9-2.6-4.7-4.2-7.9-4.7l0,0c-0.5-0.1-1-0.1-1.6-0.1h-0.3l-0.2-0.1
					c-1.4-0.4-14.2-4.4-23.5-8.4l-0.2-0.1c-1.1-0.8-2.3-1.4-3.6-1.8l-0.2-0.1c-4.2-2.3-9.5-5.6-11.6-7c-6.8-4.4-6.8-4.7-6.9-5.2
					c-0.3-2.4-1-5.1-1.4-6.7v-0.3c-0.1-2.5-0.8-4.4-1.9-5.2c-1.2-0.9-2.1-1-2.3-0.8c-0.3,0.2-0.5,1.1,0,2.8l0.1,0.2v2.3l-1.8-1.1
					C1081.9,210.9,1079.7,210.2,1077.4,210.2L1077.4,210.2z M1093.5,220.6L1093.5,220.6L1093.5,220.6z"/>
			</g>
			<g>
				<path fill="#3B6A9D" d="M1277.2,311.2c0,0-11.6-10.9-4.6-21.1c0,0,7.6-11.4,6.9-14.1c0,0,2.3-2.6,7.8,3.1
					c0,0,18.9,18.4,2.7,30.1C1289.9,309.2,1277.3,315.5,1277.2,311.2"/>
				<path fill="#232021" d="M1279.2,314.3c-2.2,0-3.3-1.1-3.6-2.3c-4.3-4.3-10.4-14.1-4.5-22.8c3.3-5,6.8-11.4,6.7-12.8
					c-0.1-0.5,0-1,0.4-1.4c0.2-0.2,1.1-1.1,2.9-1.1c2.1,0,4.6,1.4,7.3,4.1c0.4,0.4,10.4,10.3,9.6,20.7c-0.3,4.6-2.8,8.6-7.2,11.8
					C1289.8,311,1283.1,314.3,1279.2,314.3z M1278.8,311c0.1,0,0.2,0,0.5,0c2.6,0,8-2.4,9.9-3.3c3.4-2.5,5.4-5.6,5.6-9.3
					c0.7-8.9-8.6-18.1-8.7-18.2c-3-3-4.6-3.2-5.1-3.2c-0.5,3.6-4.6,10.1-7.1,14c-6.1,9,4.3,18.9,4.4,19
					C1278.6,310.3,1278.7,310.7,1278.8,311z"/>
				<path fill="#EAB56F" d="M1190.6,314.1c0,0,44.1,8.4,62.9,5.1c0,0,22-3.9,23.8-14.7c0,0,2-2.8,4.4-0.7c0,0,3.2,2-1.9,7.6
					c0,0-23.2,28.7-88.6,7.4c0,0-5.5-1.7-3.4-3.9C1187.8,315,1187.9,312.7,1190.6,314.1"/>
				<path fill="#232021" d="M1235.4,328.4c-13.5,0-28.5-2.7-44.7-7.9c-1-0.3-4.3-1.5-4.9-3.8c-0.1-0.5-0.2-1.4,0.5-2.4
					c0.4-1.7,2.3-3,4.9-1.7c2.8,0.5,31.7,5.8,51.5,5.8c4.3,0,7.8-0.2,10.6-0.7c5.8-1,21.2-5.5,22.5-13.4l0.1-0.4l0.2-0.3
					c0.2-0.2,1.6-2.2,3.9-2.2c1,0,2,0.4,2.9,1.2c0.6,0.5,1.4,1.4,1.6,2.7c0.3,2.1-0.8,4.5-3.3,7.3
					C1280.6,313.2,1267.8,328.4,1235.4,328.4z M1189.1,316c0.4,0.4,1.6,1,2.6,1.3c15.9,5.2,30.6,7.8,43.7,7.8
					c30.9,0,43-14.5,43.2-14.7c2.4-2.7,2.6-4.1,2.5-4.6c0-0.5-0.3-0.6-0.3-0.7c-0.5-0.4-0.7-0.5-0.9-0.5c-0.4,0-0.8,0.3-1,0.6
					c-2.4,11.5-24.1,15.4-25,15.6c-3,0.5-6.7,0.8-11.2,0.8c-21,0-52-5.8-52.3-5.9l-0.5-0.2c-0.2-0.1-0.3-0.2-0.4-0.2v0.3L1189.1,316
					z"/>
			</g>
			<path fill="#EAB56F" d="M1232.8,259.7c-9.1-23.4-21.2-24-21.2-24l-37.2,1.7c-18.7,13-29.5,40.4-27,57.3c2.7,18.5,6.2,57,6.2,57
				c-3.5-0.9-9.9,3.3-12.4,5.6c-2.5,2.3-6.7,14.6,11.2,18c18,3.4,28.1-2.3,28.1-2.3c-0.3,3.7,5.1,6.4,5.1,6.4
				c14.3,7.5,40.5-0.9,45.5-5.6s4.6-13.7,4.6-13.7C1242.1,310.4,1245,291.3,1232.8,259.7z M1198.1,359.9c-2.9-0.8-8.5,1-8.5,1
				l-1.1-18.6l9.8-0.5L1198.1,359.9z"/>
			<path fill="#232021" d="M1195.6,343.4c-12,0-17.4-3-17.7-3.1c-0.8-0.5-1.1-1.4-0.6-2.2c0.4-0.8,1.4-1.1,2.2-0.6l0,0
				c0.1,0,7.6,4,24.7,2.2c0.9-0.1,1.7,0.6,1.8,1.4c0.1,0.9-0.6,1.7-1.5,1.8C1201.3,343.3,1198.3,343.4,1195.6,343.4z"/>
			<polygon fill="#232021" points="1190.5,360.3 1187.3,360.3 1187.3,341.9 1190.6,341.9 			"/>
			<path fill="#BE3E3E" d="M1128.4,268.8c0,0,18.1,4.2,22.7,5.5c0,0-5.7,9.4-2.7,32.1c0,0,40.9,23.6,93.5,3.8c0,0-1.6-34.3-7-44.6
				c0,0-1.8-12.3-15.5-21.4l-18.5,1.7c0,0-9.1,6.3-15.8,6.7c-6.7,0.4-7.4-0.6-10.2-2.4c-2.9-1.8-1.9-6.3-1.9-6.3s-34.5-4.1-38.5-2.9
				C1131.7,241.9,1125.4,264.1,1128.4,268.8z"/>
			<path fill="#232021" d="M1150.9,275.9c-14.4-2.1-23-5.2-23.4-6.2c-4.7-12.7,3.3-27.6,6.1-29.4c1.4-0.9,8.3-0.1,20.3,0.8l3.1,2.4
				c-7.5-0.5-20.6-1.3-22.2-0.9c-1.9,1.7-8.7,14.8-5,25.8c2.3,0.8,11.7,3.9,20.7,4.8L1150.9,275.9z M1135.3,242.4L1135.3,242.4
				L1135.3,242.4z"/>
			<path fill="#232021" d="M1234.2,369.5c-0.1,0-0.2,0-0.2,0c-0.9-0.1-1.5-0.9-1.4-1.8l7.2-51.5c2.7-66.8-27.7-78.3-28-78.4
				c-1.7-0.2-22.8,0.7-36.1,1.4c-3.7,2.7-34.9,27.1-24.1,75.7c6.8,30.4,3.4,36.9,2.7,37.9c-0.5,0.7-1.5,0.9-2.3,0.3
				c-0.7-0.5-0.9-1.5-0.4-2.2c0.1-0.3,3.2-6.6-3.2-35.3c-11.9-53.6,25.4-79.1,25.8-79.3c0.2-0.2,0.5-0.3,0.8-0.3
				c36.3-1.8,37.5-1.4,37.9-1.2c1.3,0.4,33,12.1,30.1,81.7l-7.2,51.7C1235.7,368.9,1235,369.5,1234.2,369.5z"/>
			<path fill="#232021" d="M1202.2,318.8c-1.7,0-3.5,0-5.3,0c-41-0.7-49.1-12.4-49.5-12.9c-0.5-0.7-0.3-1.8,0.5-2.2
				c0.7-0.5,1.7-0.3,2.2,0.4c0.2,0.2,8.2,10.8,46.8,11.4c37.9,0.6,43.2-5.7,43.2-5.8c0.4-0.8,1.4-1,2.2-0.6c0.8,0.4,1,1.5,0.6,2.3
				C1242.3,312.7,1237,318.8,1202.2,318.8z"/>
			<g>
				<path fill="#3B6A9D" d="M1138.6,69.9c0,0,7-39.5,59.7-35.3c0,0,43.6,5.4,53.7,1.3c0,0,17.7-7.6,17.3-21.8
					c0,0,29.1,19.3,20.3,59.3c0,0,31.9,17.6,31.1,51.2c0,0,3.6,33.2-21.7,53.9c0,0-0.8,2.7,3.6,2.3c0,0,14.4-2,16.1-7.2
					c0,0,6.3,34.8-34.1,58.4c0,0-38.1,18.8-92.7-10.7c0,0-51.9,25.2-91.8,6.1c0,0-38.6-17.8-18.5-59.8c0,0,5.8-10.7,13.5-14.3
					c0,0-28.8-21.2-16.8-54.9C1078.3,98.3,1101.8,48.3,1138.6,69.9"/>
				<path fill="#232021" d="M1251.8,240.4c-12.4,0-36.6-2.3-60-17.3c-4.9,2.2-30.1,13-57.5,13c-13.1,0-24.8-2.4-34.9-7.3
					c-0.7-0.3-16.8-7.9-22.9-25c-4-11.1-2.8-23.6,3.6-37c0.3-0.5,5.2-9.4,12.1-13.9c-6.4-5.6-25.9-25.9-15.5-55.2
					c0.7-1.6,16.7-34.9,43.6-34.9c5.7,0,11.5,1.5,17.2,4.6c2.3-7.9,13.2-34.8,53.2-34.8c2.5,0,5.1,0.1,7.7,0.3
					c0.3,0,23.1,2.9,39.3,2.9c8.4,0,12.1-0.8,13.7-1.4c0.1-0.1,16.6-7.3,16.3-20.3c0-0.6,0.3-1.2,0.8-1.5s1.2-0.3,1.7,0.1
					c0.3,0.2,29.4,20,21.2,59.9c5.6,3.5,31.6,21.4,30.9,52c0,0.1,3.4,33.4-21.5,54.5c0.3,0.1,0.8,0.1,1.6,0.1
					c5.5-0.8,13.7-3.2,14.7-6.1c0.2-0.7,0.9-1.2,1.6-1.1c0.7,0,1.4,0.6,1.5,1.3c0.1,0.4,6.3,36.4-34.9,60.1
					C1277.8,237.9,1265.5,240.4,1251.8,240.4L1251.8,240.4z M1192,219.7c0.3,0,0.6,0.1,0.9,0.3c22.9,15,46.8,17.3,59,17.3l0,0
					c12.9,0,24.9-2.5,32-6.6c31.5-18.2,33.9-43.6,33.6-53.1c-4.5,3.2-12.6,4.5-14.6,4.8c-0.4,0-0.8,0.1-1.1,0.1
					c-1.7,0-3-0.5-3.7-1.5s-0.7-2.1-0.5-2.9c0.1-0.3,0.3-0.6,0.5-0.8c24.3-19.9,21.1-52.2,21.1-52.5c0.7-32.4-30-49.8-30.3-50
					c-0.6-0.3-1-1.1-0.8-1.8c7-31.8-10.7-50.2-17.3-55.8c-1.9,13.1-17.4,19.8-18.1,20.1c-2.8,1.1-7.7,1.7-14.9,1.7
					c-16.4,0-39.4-2.9-39.6-2.9c-2.5-0.2-5-0.3-7.4-0.3c-44,0-50.5,33.9-50.6,34.3c-0.1,0.5-0.4,1-0.9,1.2s-1,0.2-1.5-0.1
					c-5.9-3.4-11.7-5.2-17.5-5.2c-24.8,0-40.4,32.6-40.6,32.9c-11.4,32.1,16.1,52.7,16.3,52.9c0.5,0.3,0.7,0.9,0.7,1.5
					c-0.1,0.6-0.4,1.1-0.9,1.3c-7.1,3.3-12.7,13.5-12.8,13.6c-6,12.6-7.2,24.2-3.5,34.5c5.7,15.8,21.1,23.1,21.3,23.1
					c9.7,4.6,21,7,33.6,7c29.5,0,56.6-13,56.9-13.1C1191.5,219.7,1191.7,219.7,1192,219.7z"/>
			</g>
			<g>
				<path fill="#EAB56F" d="M1248.3,103.2c0,0,20.6,15.4,30.5,26.6c0,0,8.7-8.4,6.1-18.7c0,0-7.8-17.3-24.9-15.5
					C1260,95.5,1253.6,95.6,1248.3,103.2"/>
				<path fill="#232021" d="M1278.8,131.4C1278.8,131.4,1278.7,131.4,1278.8,131.4c-0.5,0-0.9-0.2-1.2-0.5
					c-9.7-10.9-30.1-26.2-30.3-26.3c-0.7-0.5-0.9-1.5-0.4-2.2c5.8-8.1,12.8-8.3,13-8.3c0.7-0.1,1.6-0.1,2.4-0.1
					c16.3,0,23.7,15.9,24,16.6c0,0.1,0.1,0.2,0.1,0.3c2.8,11.1-6.2,19.9-6.6,20.2C1279.6,131.2,1279.2,131.4,1278.8,131.4z
					 M1250.5,102.9c4.5,3.4,19.4,15,28.2,24.5c2.1-2.6,6.3-8.7,4.6-15.7c-0.7-1.5-8.2-16-23.2-14.5
					C1259.8,97.1,1255.1,97.4,1250.5,102.9z"/>
				<path fill="#232021" d="M1257.6,111.1c-0.6,0-1.2-0.3-1.5-0.9c-0.4-0.8-0.1-1.8,0.7-2.2c0.4-0.2,10.7-5.3,20.8-0.2
					c0.8,0.4,1.1,1.4,0.7,2.2c-0.4,0.8-1.4,1.1-2.2,0.7c-8.7-4.3-17.8,0.1-17.9,0.2C1258.1,111,1257.9,111.1,1257.6,111.1z"/>
			</g>
			<g>
				<path fill="#EAB56F" d="M1142.6,100.7c0,0-20.8,15.1-30.9,26.2c0,0-8.7-8.5-5.9-18.7c0,0,8-17.2,25.1-15.2
					C1131,92.8,1137.3,93,1142.6,100.7"/>
				<path fill="#232021" d="M1111.8,128.5c-0.4,0-0.8-0.2-1.1-0.5c-0.4-0.4-9.3-9.3-6.3-20.3c0-0.1,0.1-0.2,0.1-0.3
					c0.3-0.7,8.7-18.2,26.8-16.2l0,0c0.2,0,7.2,0.3,12.8,8.5c0.5,0.7,0.3,1.7-0.4,2.2c-0.2,0.1-20.8,15.1-30.6,26
					C1112.6,128.2,1112.2,128.4,1111.8,128.5L1111.8,128.5z M1107.4,108.6c-1.8,7,2.3,13.2,4.4,15.8c8.9-9.4,24-20.7,28.6-24.1
					c-4.4-5.6-9.2-5.8-9.4-5.8c-1-0.1-1.8-0.2-2.6-0.2C1114.9,94.3,1108.1,107.3,1107.4,108.6z"/>
				<path fill="#232021" d="M1133.2,108.5c-0.3,0-0.5-0.1-0.7-0.2c-0.1,0-9.2-4.7-17.9-0.4c-0.8,0.4-1.8,0.1-2.2-0.8
					c-0.4-0.8-0.1-1.8,0.8-2.2c10.2-4.9,20.4,0.3,20.8,0.5c0.8,0.4,1.1,1.4,0.7,2.2C1134.3,108.1,1133.8,108.5,1133.2,108.5z"/>
			</g>
			<g>
				<path fill="#EAB56F" d="M1156.1,107.7c0,0-38.7,23.6-39.5,78.2c0,0-0.9,45.8,41,56.2c0,0,107,26.8,116.4-49.2
					c0,0,8.3-47.5-33.2-79.4C1240.8,113.5,1200.1,84.4,1156.1,107.7"/>
				<path fill="#232021" d="M1198.1,248.4L1198.1,248.4c-22.1,0-40.6-4.6-40.8-4.6c-42.7-10.7-42.3-57.4-42.3-57.9
					c0.8-54.9,39.9-79.3,40.3-79.6c11.6-6.2,24-9.2,36.8-9.2c28.1,0,48.8,14.6,49.6,15.2c41.9,32.1,34,80.5,33.9,81
					C1270,238.8,1230.4,248.4,1198.1,248.4z M1192.1,100.3c-12.3,0-24.2,3-35.2,8.8c-0.3,0.2-37.9,23.8-38.6,76.8
					c0,1.8-0.4,44.6,39.8,54.6c0.2,0,18.4,4.5,40,4.5c31,0,69-9.1,74.4-52.4c0.1-0.5,7.6-47-32.6-77.9
					C1239.7,114.7,1219.1,100.3,1192.1,100.3z"/>
				<path fill="#3B6A9D" d="M1151,93.3c0,0-7.2,48,50.4,53.8c0,0,4.5-24.4,18.4-26.8c0,0,25-4.5,23.8-21.2c0,0,0.1-7.7-5-9.4"/>
				<path fill="#232021" d="M1201.4,148.7c-0.1,0-0.1,0-0.2,0c-19.2-1.9-33.5-8.7-42.3-20.1c-12.3-15.9-9.7-34.8-9.6-35.6
					c0.1-0.9,1-1.5,1.8-1.4c0.9,0.1,1.5,1,1.4,1.9c0,0.2-2.6,18.4,8.9,33.1c8.1,10.4,21.1,16.6,38.6,18.7
					c1.3-5.5,6.5-24.3,19.4-26.6c0.2,0,23.5-4.5,22.5-19.5c0-0.2,0-6.7-3.9-8c-0.9-0.3-1.3-1.2-1-2s1.2-1.3,2-1
					c6.2,2,6.1,10.6,6.1,11c1.2,17.8-24.1,22.6-25.2,22.8c-12.6,2.2-17,25.3-17.1,25.5C1202.9,148.2,1202.2,148.7,1201.4,148.7z"/>
				<g>
					<path fill="#000100" d="M1177.1,182.1c-0.1,3.3-2.9,5.8-6.1,5.7s-5.8-2.9-5.6-6.1c0.1-3.2,2.9-5.8,6.1-5.6
						C1174.7,176.1,1177.2,178.9,1177.1,182.1"/>
					<path fill="#000100" d="M1213.5,183.9c-0.1,3.2-2.9,5.8-6.1,5.7s-5.8-2.9-5.6-6.1c0.1-3.2,2.9-5.8,6.1-5.7
						S1213.7,180.6,1213.5,183.9"/>
					<path fill="#FFFFFF" d="M1201.7,228.3c8.3-0.6,15.3-6.1,15.6-14.3c0.3-8.2-6.2-15.1-14.5-15.4c-6.5-0.2-12.3,2.8-14.6,8.4h-1.2
						c-1.9-5.8-7-9.3-13.5-9.6c-8.3-0.3-15.3,6.1-15.6,14.3c-0.3,8.2,6.2,15.1,14.5,15.4c6.4,0.2,7.4-0.1,14.3-1
						C1186.7,226.1,1195.4,228.7,1201.7,228.3"/>
					<path fill="#000100" d="M1186.5,208l-8.2-8.9c-0.6-1.3,1.4-3.5,1.4-3.5l15.5,0.6c0,0,1.8,2.4,1.1,3.6l-8.8,8.2L1186.5,208z"/>
				</g>
			</g>
			<path fill="#232021" d="M1184.6,254.1c-1,0-2-0.1-3-0.2c-4.6-0.6-7.6-2.1-8.8-4.4c-1.2-2.4-0.1-4.6,0-4.8l2.9,1.5
				c0,0-0.5,0.9,0,1.8c0.4,0.7,1.8,2.1,6.3,2.6c9.7,1.2,17.6-4.9,17.6-4.9l2,2.6C1201.3,248.5,1194.2,254.1,1184.6,254.1z"/>
			<g>
				<path fill="#EAB56F" d="M1235.4,260c-0.5-9.9-8.1-17.6-16.9-17.1c-4,0.2-7.5,2.1-10.2,4.9l0,0l-0.2,0.3c-1,1.1-1.9,2.4-2.6,3.8
					l-12.2,17.8l-18.3,9.4c-6.8,2.8-15.8,6.3-13.6,14.1c3.8,13.4,19.1,9,25.9,6.2l16.1-2.5c1.3-0.6,8-4.6,9.6-6.2l16-15.2
					c0.5-0.4,0.9-0.8,1.3-1.3l0.8-0.8l0,0C1233.9,269.9,1235.7,265.2,1235.4,260z"/>
				<path fill="#BE3E3E" d="M1199,259.7c0,0,10.2,17,26.6,18.9c0,0,12.6-13.4,9.8-20.7c-2.9-7.3-7.5-16.5-16.8-15
					C1209.1,244.4,1199,259.7,1199,259.7z"/>
				<path fill="#232021" d="M1225.3,279.8c-18.3-3.5-26.6-18.1-26.9-18.7l2.2-1.3c0.1,0.2,8.1,14.2,25.1,17.4L1225.3,279.8z"/>
				<path fill="#232021" d="M1174,304c-2.6,0-5.1-0.4-7.4-1.5c-3.4-1.7-5.8-4.7-7-8.9c-2.6-9.1,7.5-13.2,14.2-15.9l0.2-0.1l17.9-9.1
					L1204,251c0.7-1.4,1.6-2.7,2.7-4l1.4-2l0.3,0.3c2.9-2.5,6.3-4,9.9-4.2c9.7-0.5,18.1,7.9,18.6,18.7l0,0c0.2,4.9-1.1,9.6-4,13.4
					l0.1,0.2l-2,2c-0.4,0.4-0.8,0.8-1.3,1.2l-15.9,15.1c-1.7,1.8-8.6,6-10.1,6.6l-0.4,0.1l-15.9,2.5
					C1184.3,302.3,1179.1,304,1174,304z M1209,249.5c-0.9,1-1.5,2-2.1,3.2l-0.1,0.2l-12.5,18.2l-19.1,9.7c-8,3.3-14,6.2-12.3,12
					c1,3.3,2.7,5.6,5.3,6.8c5.9,2.9,14.9-0.2,18.5-1.6l0.4-0.1l15.9-2.5c1.5-0.7,7.5-4.4,8.9-5.8l16.1-15.3c0.4-0.3,0.7-0.6,1.1-1
					l0.8-0.8c2.9-3.3,4.3-7.6,4.1-12.2l0,0c-0.5-9-7.3-16-15.2-15.6c-3.4,0.2-6.5,1.7-9.1,4.4L1209,249.5z"/>
			</g>
			<path fill="#FFFFFF" d="M1155.9,352.2c0,0-13.9-3.2-16.7,10c-2.7,12.9,21.1,16,29,14.1C1168.2,376.2,1168.4,355,1155.9,352.2z"/>
			<path fill="#FFFFFF" d="M1198.2,360c0,0-13.9-3.2-16.7,10c-2.7,12.9,21.1,13.4,29,11.5C1210.5,381.5,1210.6,362.8,1198.2,360z"/>
			<path fill="#232021" d="M1163.9,378c-6.4,0-11.5-1-11.9-1.1c-6.3-0.5-12.1-4.5-14-10.1c-1.5-4.2-0.5-8.4,2.7-11.4
				c8.5-8.1,16.7-4.4,17-4.3c0.8,0.4,1.2,1.4,0.8,2.2c-0.4,0.8-1.3,1.2-2.2,0.8c-0.3-0.1-6.6-2.9-13.4,3.7c-3,2.9-2.4,6.2-1.8,8
				c1.3,3.6,5.3,7.5,11.4,8c0.4,0.1,16.8,3.3,27.3-2.1c0.8-0.4,1.8-0.1,2.2,0.7c0.4,0.8,0.1,1.8-0.7,2.2
				C1175.9,377.2,1169.4,378,1163.9,378z"/>
			<path fill="#232021" d="M1198.5,383.8c-1.2,0-2,0-2.2,0c-7.6,0.2-14.7-3.4-16.9-8.6c-0.9-2.2-1.8-6.6,3.1-11.3
				c5.7-5.6,11.3-6,14.3-5.7l-1.3-16.2c-0.1-0.9,0.6-1.7,1.5-1.8c0.8-0.1,1.7,0.6,1.7,1.5l1.5,18.4c0,0.6-0.2,1.1-0.6,1.4
				s-1,0.4-1.6,0.2c-0.2-0.1-6.4-2.2-13.2,4.4c-1.8,1.8-3.7,4.6-2.4,7.7c1.7,4,7.8,6.8,14,6.7c0.5,0,34.2,1.1,36.5-14.5
				c0.1-0.9,1-1.5,1.8-1.4c0.9,0.1,1.5,1,1.4,1.8C1233.7,382.6,1206.6,383.8,1198.5,383.8z"/>
			<path fill="#232021" d="M1203.3,364.1c-0.4,0-0.8-0.2-1.2-0.5c-1.6-1.7-5.7-2.2-7-2.3c-0.9-0.1-1.6-0.8-1.5-1.7
				c0-0.9,0.8-1.5,1.7-1.5c0.6,0,6.4,0.4,9.2,3.3c0.6,0.6,0.6,1.7,0,2.3C1204.1,363.9,1203.7,364.1,1203.3,364.1z"/>
		</g>
		<g>
			<path fill="#232021" d="M1178.6,163.9c-0.5,0.1-1.1-0.1-1.4-0.5l0,0c0,0-1.2-1.4-5.4-2c-3.5-0.5-6.9,1.3-7,1.3
				c-0.7,0.3-1.5,0.1-1.9-0.6c-0.4-0.7-0.1-1.5,0.6-1.9c0.2-0.1,4.3-2.3,8.7-1.6c5.4,0.8,7.1,2.9,7.2,3.2c0.4,0.6,0.3,1.5-0.3,1.9
				C1178.9,163.8,1178.7,163.8,1178.6,163.9z"/>
			<path fill="#232021" d="M1201.3,165c-0.2,0-0.5-0.2-0.7-0.4c-0.5-0.5-0.6-1.3-0.1-1.9c0.2-0.2,2.1-2.1,7.6-2.2
				c4.5-0.1,8.2,2.6,8.4,2.7c0.6,0.4,0.8,1.3,0.3,1.9c-0.4,0.6-1.3,0.8-1.9,0.3c0,0-3.2-2.3-6.7-2.2c-4.3,0.1-5.6,1.4-5.6,1.4
				C1202.2,165,1201.8,165.1,1201.3,165z"/>
		</g>
	</g>
	<g>
		<g>
			<polygon fill="#E39F53" points="1329,256.2 1261.4,252 1261.6,248.1 1329.2,252.3 			"/>
			<path fill="#232021" d="M1329,256.8C1329,256.8,1328.9,256.8,1329,256.8l-67.6-4.2c-0.3,0-0.6-0.3-0.6-0.7l0.2-3.9
				c0-0.2,0.1-0.3,0.2-0.4c0.1-0.1,0.3-0.2,0.5-0.2l67.6,4.2c0.3,0,0.6,0.3,0.6,0.7l-0.2,3.9c0,0.2-0.1,0.3-0.2,0.4
				C1329.3,256.8,1329.1,256.8,1329,256.8z M1262,251.4l66.4,4.1l0.2-2.7l-66.4-4.1L1262,251.4z"/>
			
				<rect x="1292.5" y="230.2" transform="matrix(6.238424e-02 -0.9981 0.9981 6.238424e-02 950.2222 1539.5403)" fill="#E39F53" width="3.9" height="67.7"/>
			<path fill="#232021" d="M1328.2,268.8L1328.2,268.8l-67.6-4.2c-0.3,0-0.6-0.3-0.6-0.7l0.2-3.9c0-0.2,0.1-0.3,0.2-0.4
				s0.3-0.2,0.5-0.2l67.6,4.2c0.3,0,0.6,0.3,0.6,0.7l-0.2,3.9c0,0.2-0.1,0.3-0.2,0.4C1328.5,268.8,1328.4,268.8,1328.2,268.8z
				 M1261.3,263.4l66.4,4.1l0.2-2.7l-66.4-4.1L1261.3,263.4z"/>
			
				<rect x="1290.8" y="227" transform="matrix(6.238836e-02 -0.9981 0.9981 6.238836e-02 956.4641 1534.6482)" fill="#E5DBBB" width="8.5" height="62.6"/>
			<path fill="#232021" d="M1326,265.2L1326,265.2l-62.5-3.9c-0.2,0-0.3-0.1-0.4-0.2s-0.2-0.3-0.2-0.5l0.5-8.5
				c0-0.3,0.3-0.6,0.7-0.6l62.5,3.9c0.3,0,0.6,0.3,0.6,0.7l-0.5,8.5c0,0.2-0.1,0.3-0.2,0.4C1326.3,265.1,1326.2,265.2,1326,265.2z
				 M1264.2,260l61.2,3.8l0.4-7.2l-61.2-3.8L1264.2,260z"/>
			<path fill="#232021" d="M1326.4,259L1326.4,259l-61.8-3.9c-0.3,0-0.6-0.3-0.6-0.7c0-0.3,0.3-0.6,0.7-0.6l61.7,3.9
				c0.3,0,0.6,0.3,0.6,0.7C1327,258.8,1326.7,259,1326.4,259z"/>
			<path fill="#232021" d="M1326.2,262.3L1326.2,262.3l-61.8-3.9c-0.3,0-0.6-0.3-0.6-0.7c0-0.3,0.3-0.6,0.7-0.6l61.8,3.9
				c0.3,0,0.6,0.3,0.6,0.7C1326.8,262.1,1326.5,262.3,1326.2,262.3z"/>
			
				<rect x="1290.8" y="244.7" transform="matrix(6.239054e-02 -0.9981 0.9981 6.239054e-02 934.062 1551.399)" fill="#743044" width="3.9" height="67.7"/>
			<path fill="#232021" d="M1326.5,283.3C1326.4,283.3,1326.4,283.3,1326.5,283.3l-67.6-4.2c-0.2,0-0.3-0.1-0.4-0.2
				s-0.2-0.3-0.2-0.5l0.2-3.9c0-0.3,0.3-0.6,0.7-0.6l67.6,4.2c0.2,0,0.3,0.1,0.4,0.2s0.2,0.3,0.2,0.5l-0.2,3.9
				C1327.1,283,1326.8,283.3,1326.5,283.3z M1259.5,277.9l66.4,4.1l0.2-2.7l-66.4-4.1L1259.5,277.9z"/>
			
				<rect x="1290.1" y="256.6" transform="matrix(6.238839e-02 -0.9981 0.9981 6.238839e-02 921.4736 1561.8669)" fill="#743044" width="3.9" height="67.7"/>
			<path fill="#232021" d="M1325.7,295.3L1325.7,295.3l-67.6-4.2c-0.3,0-0.6-0.3-0.6-0.7l0.2-3.9c0-0.2,0.1-0.3,0.2-0.4
				s0.3-0.2,0.5-0.2l67.6,4.2c0.2,0,0.3,0.1,0.4,0.2s0.2,0.3,0.2,0.5l-0.2,3.9C1326.3,295,1326,295.3,1325.7,295.3z M1258.8,289.8
				l66.4,4.1l0.2-2.7L1259,287L1258.8,289.8z"/>
			
				<rect x="1288.3" y="253.6" transform="matrix(6.243061e-02 -0.998 0.998 6.243061e-02 927.5118 1557.0581)" fill="#E5DBBB" width="8.5" height="62.6"/>
			<path fill="#232021" d="M1323.5,291.6L1323.5,291.6l-62.5-3.9c-0.3,0-0.6-0.3-0.6-0.7l0.5-8.5c0-0.2,0.1-0.3,0.2-0.4
				s0.3-0.2,0.5-0.1l62.5,3.9c0.3,0,0.6,0.3,0.6,0.7l-0.5,8.5c0,0.2-0.1,0.3-0.2,0.4C1323.8,291.6,1323.7,291.6,1323.5,291.6z
				 M1261.7,286.5l61.2,3.8l0.5-7.2l-61.2-3.8L1261.7,286.5z"/>
			<path fill="#232021" d="M1323.9,285.5L1323.9,285.5l-61.8-3.9c-0.3,0-0.6-0.3-0.6-0.7c0-0.3,0.3-0.6,0.7-0.6l61.8,3.9
				c0.3,0,0.6,0.3,0.6,0.7C1324.5,285.2,1324.2,285.5,1323.9,285.5z"/>
			<path fill="#232021" d="M1323.7,288.8L1323.7,288.8l-61.8-3.9c-0.3,0-0.6-0.3-0.6-0.7c0-0.3,0.3-0.6,0.7-0.6l61.8,3.9
				c0.3,0,0.6,0.3,0.6,0.7C1324.3,288.5,1324,288.8,1323.7,288.8z"/>
			<polygon fill="#343D6D" points="1335.7,272.2 1268.1,268 1268.2,265.7 1335.8,269.9 			"/>
			<path fill="#232021" d="M1335.7,272.9L1335.7,272.9l-67.6-4.2c-0.3,0-0.6-0.3-0.6-0.7l0.1-2.3c0-0.2,0.1-0.3,0.2-0.4
				s0.3-0.2,0.5-0.2l67.6,4.2c0.3,0,0.6,0.3,0.6,0.7l-0.1,2.3c0,0.2-0.1,0.3-0.2,0.4C1336,272.8,1335.9,272.9,1335.7,272.9z
				 M1268.8,267.4l66.4,4.1l0.1-1.1l-66.4-4.2L1268.8,267.4z"/>
			<polygon fill="#343D6D" points="1335.3,279.4 1267.6,275.2 1267.8,272.8 1335.4,277.1 			"/>
			<path fill="#232021" d="M1335.3,280C1335.2,280,1335.2,280,1335.3,280l-67.6-4.2c-0.3,0-0.6-0.3-0.6-0.7l0.1-2.4
				c0-0.2,0.1-0.3,0.2-0.4s0.3-0.2,0.5-0.2l67.6,4.2c0.3,0,0.6,0.3,0.6,0.7l-0.1,2.4c0,0.2-0.1,0.3-0.2,0.4
				C1335.6,280,1335.4,280,1335.3,280z M1268.3,274.6l66.4,4.1l0.1-1.1l-66.4-4.1L1268.3,274.6z"/>
			
				<rect x="1299.4" y="241.3" transform="matrix(6.234511e-02 -0.9981 0.9981 6.234511e-02 948.6295 1555.0386)" fill="#E5DBBB" width="5.1" height="62.6"/>
			<path fill="#232021" d="M1333,277.8C1332.9,277.8,1332.9,277.8,1333,277.8l-62.5-3.9c-0.3,0-0.6-0.3-0.6-0.7l0.3-5.1
				c0-0.2,0.1-0.3,0.2-0.4s0.3-0.2,0.5-0.2l62.5,3.9c0.3,0,0.6,0.3,0.6,0.7l-0.3,5.1c0,0.2-0.1,0.3-0.2,0.4
				C1333.3,277.7,1333.1,277.8,1333,277.8z M1271.1,272.7l61.2,3.8l0.2-3.8l-61.2-3.8L1271.1,272.7z"/>
		</g>
		<g>
			<path fill="#EBB958" d="M1287.9,360.5c7.3,2.8,27.2,18.1,27.2,18.1c1.2-11.5-8.8-36.3-8.8-36.3c8-1.2,18.9-11.7,22.2-24.1
				c3-11.4-1.5-24.9-1.5-24.9c-3.9-0.5-2.6,11.8-9.1,20.6c-6.5,8.8-20.7,14.1-20.7,14.1h-18.9c0,0-12.1-4.2-16.1-14.1
				c-2.1-5.2-0.2-25.4-2.1-25.2c0,0-11,12-9.8,25.5c1.1,11.9,12,25.5,19.2,26.6c0,0-10.5,26.3-9.3,37.8c0,0,20-15.2,27.2-18.1
				H1287.9z"/>
			<path fill="#232021" d="M1315.1,379.8c-0.3,0-0.5-0.1-0.7-0.3c-0.2-0.2-19.5-14.9-26.7-17.8c-7.2,3-26.5,17.7-26.7,17.8
				c-0.3,0.3-0.8,0.3-1.2,0.2c-0.4-0.2-0.7-0.5-0.7-1c-1.1-10.3,6.7-31.6,8.9-37.1c-7.6-2.5-17.7-15.5-18.8-27.3
				c-1.3-13.8,9.6-25.9,10.1-26.4c0.2-0.2,0.5-0.3,0.7-0.4l0,0c2.2,0,2.3,2.4,2.3,11.3c0,5.4,0,12.2,1,14.6
				c3.5,8.6,13.7,12.7,15.2,13.3h18.5c1.7-0.7,14.2-5.7,20-13.6c3.2-4.3,4.4-9.5,5.4-13.6c1.1-4.5,1.9-7.8,4.9-7.4
				c0.5,0.1,0.8,0.4,1,0.8c0.2,0.6,4.5,13.9,1.5,25.6c-3.2,12.4-13.6,22.5-21.7,24.7c2.1,5.4,9.5,25.3,8.4,35.5c0,0.4-0.3,0.8-0.7,1
				C1315.5,379.7,1315.3,379.8,1315.1,379.8z M1287.5,359.3L1287.5,359.3h0.5c0.1,0,0.3,0,0.4,0.1c6.1,2.4,20.6,13,25.7,16.8
				c-0.1-11.8-8.8-33.3-8.9-33.5c-0.1-0.3-0.1-0.7,0.1-1.1c0.2-0.3,0.5-0.5,0.9-0.6c7.4-1.1,18.1-11.3,21.2-23.2
				c2.3-8.9-0.1-19.3-1.1-22.9c-0.6,1-1.2,3.3-1.6,5.1c-1,4.1-2.4,9.8-5.8,14.5c-6.6,9-20.7,14.2-21.3,14.5
				c-0.1,0.1-0.3,0.1-0.4,0.1h-18.9c-0.1,0-0.3,0-0.4-0.1c-0.5-0.2-12.6-4.5-16.8-14.7c-1.2-2.9-1.2-9.3-1.2-15.5
				c0-2.7,0-5.8-0.2-7.7c-2.8,3.6-9,13-8.1,22.9c1,11.2,11.5,24.5,18.2,25.5c0.4,0.1,0.7,0.3,0.9,0.6c0.2,0.3,0.2,0.7,0.1,1
				c-0.1,0.2-9.2,23.1-9.3,35c5.1-3.9,19.6-14.5,25.7-16.9C1287.2,359.3,1287.3,359.3,1287.5,359.3z"/>
			<path fill="#BE3E3E" d="M1297,347c0,5.1-4.1,9.2-9.2,9.2s-9.2-4.1-9.2-9.2s4.1-9.2,9.2-9.2S1297,341.9,1297,347"/>
			<path fill="#232021" d="M1287.8,357.4c-5.7,0-10.4-4.7-10.4-10.4c0-5.7,4.7-10.4,10.4-10.4s10.4,4.7,10.4,10.4
				C1298.2,352.7,1293.6,357.4,1287.8,357.4z M1287.8,339c-4.4,0-8,3.6-8,8s3.6,8,8,8s8-3.6,8-8S1292.2,339,1287.8,339z"/>
			<path fill="#EBB958" d="M1306.4,327.9c0,0,17.3-17.3-10.7-45.3c0,0-2.5,7.7-10.5,10.8c0,0-20.1,9.2-10.8,28.5L1306.4,327.9z"/>
			<path fill="#232021" d="M1306.4,329.1c-0.1,0-0.2,0-0.2,0l-32-6c-0.4-0.1-0.7-0.3-0.9-0.7c-2.9-5.9-3.4-11.5-1.5-16.6
				c3.2-9,12.5-13.3,12.9-13.5c7.4-3,9.8-10,9.8-10.1c0.1-0.4,0.5-0.7,0.9-0.8c0.4-0.1,0.8,0,1.1,0.3c10.9,10.8,16.4,21.4,16.4,31.4
				c0,9.8-5.4,15.4-5.6,15.6C1307.1,328.9,1306.8,329.1,1306.4,329.1z M1275.3,320.7l30.7,5.8c2.4-2.8,13.1-18-9.9-41.9
				c-1.3,2.6-4.4,7.4-10.4,9.8c0,0-8.7,4.1-11.6,12.1C1272.5,310.9,1272.9,315.7,1275.3,320.7z"/>
			<path fill="#CA4240" d="M1307.1,329.1c0,0-0.6-14.6,22.1-9.5C1329.2,319.6,1322.9,336.1,1307.1,329.1"/>
			<path fill="#232021" d="M1314.5,332c-2.5,0-5.2-0.6-7.9-1.8l-0.7-0.3v-0.7c0-0.2-0.1-4.4,3.1-7.8c3.9-4.1,10.8-5.1,20.4-2.9
				l1.4,0.3l-0.5,1.3C1330.1,320.6,1325.6,332,1314.5,332z M1308.4,328.3c2.2,0.9,4.2,1.3,6.2,1.3c7.4,0,11.5-6.3,12.9-9.1
				c-7.9-1.6-13.6-0.7-16.7,2.5C1309,324.9,1308.5,327.2,1308.4,328.3z"/>
			<path fill="#CA4240" d="M1304,329.9c0,0,13.8-3.7,21.2,14.7C1325.2,344.6,1305,348,1304,329.9"/>
			<path fill="#232021" d="M1321.5,346c-5.3,0-17.9-1.6-18.7-16.1l-0.1-1l0.9-0.3c0.1,0,1.3-0.3,3.2-0.3c4.9,0,13.9,2.1,19.4,15.8
				l0.6,1.4l-1.5,0.2C1325.3,345.8,1323.8,346,1321.5,346z M1305.3,330.9c1.2,11.1,10.6,12.8,16.2,12.8c0.8,0,1.4,0,2-0.1
				c-5-11.1-12.4-12.8-16.5-12.8C1306.3,330.8,1305.7,330.8,1305.3,330.9z"/>
			<path fill="#CA4240" d="M1268.3,321.5c0,0,1.1-1.6,5-1l35,5.4c0,0,3.4,3.1-2.9,5.3l-32.6,3c0,0-1.5,0-2.2-0.8
				c-1-1.1-1.9-2.8,0-5.2C1270.4,328.2,1265.3,325.9,1268.3,321.5"/>
			<path fill="#232021" d="M1272.7,335.5L1272.7,335.5c-0.2,0-2-0.1-3.1-1.2c-1.6-1.6-1.9-3.7-0.8-5.7c-0.9-0.6-2-1.7-2.5-3.2
				c-0.4-1.5-0.1-3,1-4.6c0.2-0.3,1.3-1.6,4.3-1.6c0.6,0,1.2,0.1,1.9,0.2l35,5.4c0.2,0,0.5,0.1,0.6,0.3c0.2,0.2,1.6,1.6,1.2,3.5
				c-0.3,1.6-1.9,2.9-4.6,3.9c-0.1,0-0.2,0.1-0.3,0.1L1272.7,335.5C1272.8,335.5,1272.7,335.5,1272.7,335.5z M1271.6,321.6
				c-1.8,0-2.3,0.6-2.3,0.6c-0.6,0.9-0.8,1.7-0.6,2.5c0.3,1.2,1.8,2.1,2.3,2.4c0.3,0.2,0.6,0.5,0.7,0.8c0.1,0.4,0,0.7-0.2,1
				c-1.1,1.4-1.1,2.6-0.1,3.7c0.3,0.3,0.9,0.4,1.3,0.5l32.4-3c2.4-0.9,2.8-1.7,2.9-2c0.1-0.4-0.1-0.8-0.3-1l-34.5-5.3
				C1272.5,321.6,1272,321.6,1271.6,321.6z"/>
			<path fill="#FFFFFF" d="M1280.4,314.4c0,0,0.2-2.5,3.7-2.1c0,0,4.2,1.9,6,2c0,0,3.3,0.4,5.5,0c0,0,3.2-0.9,3.9,1.7
				c0,0,1.1,6-10.7,4.1C1288.7,320.1,1279.6,319.1,1280.4,314.4"/>
			<path fill="#232021" d="M1292.9,321.7c-1.3,0-2.8-0.1-4.4-0.4c-0.6-0.1-6.3-0.7-8.5-3.7c-0.8-1-1-2.2-0.8-3.4
				c0.1-1.1,1.2-3.6,5-3.1l0.3,0.1c1.6,0.7,4.4,1.8,5.6,1.9c0.2,0,3.6,0.3,5.2,0c0,0,0.5-0.2,1.4-0.2c2,0,3.3,1,3.8,2.8
				c0.1,0.3,0.3,2-1,3.6C1298.3,320.9,1296.1,321.7,1292.9,321.7z M1283.4,313.5c-1.6,0-1.7,1-1.7,1.1c-0.1,0.7,0,1.1,0.4,1.6
				c1.4,1.8,5.4,2.6,6.9,2.7c4.7,0.7,7.7,0.3,8.9-1c0.6-0.7,0.5-1.6,0.5-1.6c-0.1-0.2-0.2-0.9-1.5-0.9c-0.5,0-0.9,0.1-0.9,0.1
				c-0.8,0.1-1.6,0.2-2.6,0.2c-1.7,0-3.3-0.2-3.4-0.2c-1.7-0.1-5.3-1.6-6.2-2C1283.6,313.5,1283.5,313.5,1283.4,313.5z"/>
			
				<rect x="1281.3" y="315.1" transform="matrix(0.2295 -0.9733 0.9733 0.2295 681.7109 1493.6763)" fill="#232021" width="5.9" height="2.4"/>
			
				<rect x="1286.5" y="316.6" transform="matrix(9.832572e-02 -0.9952 0.9952 9.832572e-02 846.4019 1569.7823)" fill="#232021" width="5.9" height="2.4"/>
			
				<rect x="1294" y="315" transform="matrix(0.9977 -6.823740e-02 6.823740e-02 0.9977 -18.6709 89.1246)" fill="#232021" width="2.4" height="5.7"/>
			<path fill="#232021" d="M1314.2,304.1c-0.8-3.2-4.7-5.4-9.6-5.4c-1.1,0-2.3,0.1-3.4,0.3c-3.8,0.8-7,2.7-8.5,5.2
				c-0.4,0.6-0.6,1.3-0.8,1.9l-0.4-0.1c0.1-0.7,0.1-1.4-0.1-2.2c-0.6-2.7-2.8-5.5-5.9-7.3c-2.4-1.4-5-2.1-7.5-2.1
				c-2.9,0-5.3,1-6.6,2.8c-1,1.3-1.3,3-1,4.7c0.6,2.7,2.8,5.5,5.9,7.3c2.4,1.4,5,2.1,7.5,2.1c2.9,0,5.3-1,6.6-2.8
				c0.1-0.2,0.2-0.4,0.3-0.6l1,0.1c0,0.2,0,0.4,0.1,0.6c0.8,3.2,4.7,5.4,9.6,5.4c1.1,0,2.3-0.1,3.4-0.3c3.8-0.8,7-2.7,8.5-5.2
				C1314.3,307.1,1314.6,305.6,1314.2,304.1z"/>
			<path fill="#232021" d="M1285.2,302.8c-0.1,0-0.2,0-0.3,0c-0.6-0.1-1.1-0.4-1.4-0.8s-0.4-0.9-0.3-1.4c0.2-1,1.2-1.7,2.3-1.5
				c0.6,0.1,1.1,0.4,1.4,0.8s0.4,0.9,0.3,1.4C1287,302.1,1286.1,302.8,1285.2,302.8z M1285.2,300.3c-0.4,0-0.7,0.2-0.8,0.5
				c0,0.2,0,0.3,0.1,0.4c0.1,0.2,0.3,0.3,0.5,0.3h0.1c0.4,0,0.7-0.2,0.8-0.5c0-0.2,0-0.3-0.1-0.4
				C1285.7,300.4,1285.5,300.3,1285.2,300.3L1285.2,300.3z"/>
			<path fill="#FFFFFF" d="M1308.6,304.6c-0.1,0.7-0.9,1.1-1.6,1c-0.8-0.1-1.3-0.8-1.1-1.4c0.1-0.7,0.9-1.1,1.6-1
				C1308.3,303.3,1308.8,303.9,1308.6,304.6"/>
			<path fill="#FFFFFF" d="M1288,302.3c-0.1,0.7-0.9,1.1-1.6,1c-0.8-0.1-1.3-0.8-1.1-1.4c0.1-0.7,0.9-1.1,1.6-1
				S1288.1,301.7,1288,302.3"/>
		</g>
	</g>
</g>
<g>
	<g>
		<path fill="#FFFFFF" d="M777.5,192.3h20.8c3,0,5.5-0.7,7.5-2.2c2-1.4,3-3.5,3-6.5c0-2.7-1-4.8-2.9-6.3c-2-1.4-4.5-2.1-7.6-2.1
			h-20.6v-10.6h22.5c2.7,0,5.4,0.5,7.8,1.4c2.4,0.9,4.4,2.2,6.2,3.8c1.7,1.7,3.1,3.7,4.2,6c0.9,2.4,1.5,5,1.5,7.8s-0.5,5.4-1.4,7.7
			c-1,2.4-2.3,4.5-3.9,6.1c-1.7,1.8-3.8,3.2-6.2,4.1c-2.5,1.1-5.2,1.5-8.2,1.5h-11.7v10.9h30.9v1.8c0,1.2-0.3,2.3-0.7,3.3
			c-0.5,1.1-1.2,2.1-2,2.8c-0.9,0.9-1.9,1.5-3,2c-1.3,0.5-2.5,0.7-3.9,0.7h-32.2L777.5,192.3L777.5,192.3z"/>
	</g>
	<path fill="#FFFFFF" d="M795,274.4c-42.1,0-76.3-34.2-76.3-76.3c0-42.1,34.2-76.3,76.3-76.3s76.3,34.2,76.3,76.3
		C871.3,240.2,837.1,274.4,795,274.4z M795,127.8c-38.8,0-70.3,31.5-70.3,70.3c0,38.8,31.5,70.3,70.3,70.3s70.3-31.5,70.3-70.3
		C865.3,159.3,833.8,127.8,795,127.8z"/>
</g>
<g>
	<g>
		<path fill="#EBB958" d="M1790.6,365c-10.4,4-38.9,25.8-38.9,25.8c-1.8-16.4,12.6-51.8,12.6-51.8c-11.4-1.7-27-16.7-31.6-34.4
			c-4.2-16.3,2.1-35.5,2.1-35.5c5.5-0.7,3.8,16.8,13,29.4c9.3,12.5,29.6,20.1,29.6,20.1h27c0,0,17.3-6,23-20.1
			c3-7.4,0.3-36.3,2.9-36c0,0,15.7,17.2,14,36.3c-1.5,17-17.1,36.4-27.4,38c0,0,15,37.6,13.2,54c0,0-28.5-21.8-38.9-25.8H1790.6z"/>
		<path fill="#232021" d="M1751.8,392.5c0.4,0,0.7-0.1,1-0.4c0.3-0.2,27.9-21.3,38.2-25.4c10.3,4.2,37.9,25.2,38.2,25.4
			c0.5,0.4,1.2,0.5,1.7,0.2c0.6-0.2,1-0.8,1-1.4c1.6-14.7-9.6-45.1-12.6-53c10.8-3.6,25.2-22.1,26.8-39
			c1.8-19.7-13.7-36.9-14.4-37.7c-0.3-0.3-0.6-0.5-1.1-0.5l0,0c-3.1,0-3.2,3.4-3.3,16.1c0,7.8,0,17.4-1.5,20.9
			c-5,12.2-19.6,18.2-21.7,19h-26.4c-2.4-1-20.2-8.2-28.5-19.4c-4.5-6.1-6.3-13.5-7.7-19.5c-1.6-6.5-2.7-11.2-6.9-10.6
			c-0.7,0.1-1.2,0.5-1.4,1.2c-0.3,0.8-6.5,19.9-2.1,36.5c4.6,17.8,19.5,32.2,31,35.2c-3,7.7-13.6,36.1-12,50.7
			c0.1,0.6,0.5,1.2,1,1.4C1751.3,392.4,1751.5,392.5,1751.8,392.5z M1791.3,363.2C1791.3,363.2,1791.2,363.2,1791.3,363.2h-0.7
			c-0.2,0-0.4,0-0.6,0.1c-8.8,3.4-29.3,18.5-36.7,24.1c0.1-16.9,12.5-47.5,12.6-47.8c0.2-0.5,0.2-1-0.1-1.5
			c-0.3-0.5-0.7-0.8-1.2-0.8c-10.6-1.6-25.8-16.1-30.2-33.2c-3.3-12.7,0.1-27.5,1.5-32.7c0.9,1.4,1.7,4.7,2.3,7.3
			c1.4,5.9,3.4,14,8.3,20.7c9.5,12.8,29.5,20.3,30.4,20.6c0.2,0.1,0.4,0.1,0.6,0.1h27c0.2,0,0.4,0,0.6-0.1c0.7-0.3,18.1-6.4,24-21
			c1.7-4.1,1.7-13.3,1.7-22.2c0-3.8,0-8.3,0.2-11c4,5.2,12.9,18.5,11.6,32.7c-1.5,15.9-16.5,35-25.9,36.4c-0.5,0.1-1,0.4-1.2,0.8
			c-0.3,0.5-0.3,1-0.1,1.5c0.1,0.4,13.1,32.9,13.3,50c-7.3-5.5-28-20.7-36.7-24.1C1791.7,363.3,1791.5,363.2,1791.3,363.2z"/>
		<path fill="#E58142" d="M1777.6,345.7c0,7.2,5.9,13.1,13.1,13.1s13.1-5.9,13.1-13.1s-5.9-13.1-13.1-13.1
			S1777.6,338.5,1777.6,345.7"/>
		<path fill="#232021" d="M1790.7,360.5c8.2,0,14.8-6.6,14.8-14.8s-6.6-14.8-14.8-14.8c-8.2,0-14.8,6.7-14.8,14.8
			S1782.6,360.5,1790.7,360.5z M1790.7,334.3c6.3,0,11.4,5.1,11.4,11.4s-5.1,11.4-11.4,11.4s-11.4-5.1-11.4-11.4
			C1779.4,339.4,1784.5,334.3,1790.7,334.3z"/>
		<path fill="#EBB958" d="M1764.2,318.4c0,0-24.7-24.7,15.3-64.7c0,0,3.6,10.9,15,15.5c0,0,28.8,13.1,15.4,40.6L1764.2,318.4z"/>
		<path fill="#232021" d="M1764.2,320.1c0.1,0,0.2,0,0.3,0l45.7-8.6c0.5-0.1,1-0.4,1.2-0.9c4.1-8.4,4.8-16.4,2.2-23.7
			c-4.6-12.8-17.8-19-18.4-19.3c-10.6-4.2-14-14.3-14-14.4c-0.2-0.6-0.7-1-1.2-1.1c-0.6-0.1-1.2,0-1.6,0.5
			c-15.5,15.5-23.4,30.6-23.4,44.9c0,14,7.7,21.9,8,22.3C1763.3,319.9,1763.7,320.1,1764.2,320.1z M1808.7,308.2l-43.9,8.3
			c-3.4-4-18.7-25.7,14.1-59.8c1.8,3.7,6.2,10.6,14.9,14c0.1,0,12.4,5.8,16.5,17.3C1812.6,294.2,1812,301,1808.7,308.2z"/>
		<path fill="#E58142" d="M1763.2,320.2c0,0,0.9-20.9-31.5-13.5C1731.7,306.6,1740.7,330.1,1763.2,320.2"/>
		<path fill="#232021" d="M1752.6,324.4c3.6,0,7.4-0.9,11.3-2.6l1-0.4v-1.1c0-0.3,0.2-6.3-4.4-11.2c-5.6-5.8-15.5-7.2-29.2-4.1
			l-1.9,0.4l0.7,1.8C1730.4,307.9,1736.8,324.4,1752.6,324.4z M1761.4,319.1c-3.1,1.2-6,1.8-8.8,1.8c-10.5,0-16.4-9.1-18.4-13
			c11.3-2.2,19.4-1,23.8,3.5C1760.6,314.1,1761.2,317.4,1761.4,319.1z"/>
		<path fill="#E58142" d="M1767.7,321.2c0,0-19.7-5.3-30.3,21C1737.4,342.3,1766.2,347.1,1767.7,321.2"/>
		<path fill="#232021" d="M1742.7,344.3c7.6,0,25.5-2.2,26.7-23l0.1-1.4l-1.4-0.4c-0.1,0-1.9-0.5-4.6-0.5c-7,0-19.8,2.9-27.7,22.5
			l-0.8,2l2.1,0.4C1737.2,344,1739.5,344.3,1742.7,344.3z M1765.8,322.7c-1.7,15.8-15.1,18.2-23.1,18.2c-1.1,0-2,0-2.8-0.1
			c7.1-15.8,17.7-18.3,23.6-18.3C1764.4,322.5,1765.2,322.6,1765.8,322.7z"/>
		<path fill="#E58142" d="M1818.7,309.3c0,0-1.5-2.2-7.1-1.4l-49.9,7.7c0,0-4.8,4.5,4.2,7.6l46.6,4.3c0,0,2.1-0.1,3.2-1.2
			c1.5-1.5,2.6-4.1,0-7.5C1815.6,318.9,1823,315.5,1818.7,309.3"/>
		<path fill="#232021" d="M1812.4,329.2L1812.4,329.2c0.3,0,2.9-0.1,4.4-1.7c2.2-2.3,2.6-5.2,1.2-8.1c1.3-0.9,2.9-2.4,3.5-4.6
			c0.6-2.1,0.1-4.3-1.4-6.5c-0.3-0.4-1.8-2.3-6.1-2.3c-0.8,0-1.7,0.1-2.7,0.2l-49.9,7.7c-0.3,0-0.7,0.2-0.9,0.4
			c-0.2,0.2-2.3,2.2-1.8,5c0.5,2.3,2.7,4.2,6.5,5.5c0.1,0,0.3,0.1,0.4,0.1l46.6,4.3C1812.3,329.2,1812.3,329.2,1812.4,329.2z
			 M1814,309.4c2.5,0,3.3,0.9,3.3,0.9c0.9,1.3,1.2,2.5,0.9,3.6c-0.5,1.8-2.5,3.1-3.3,3.4c-0.5,0.2-0.8,0.6-0.9,1.2
			c-0.1,0.5,0,1,0.3,1.5c1.5,2,1.6,3.7,0.1,5.2c-0.4,0.4-1.3,0.6-1.9,0.7l-46.2-4.2c-3.4-1.2-4-2.4-4.1-2.9s0.2-1.1,0.4-1.4
			l49.3-7.6C1812.6,309.5,1813.4,309.4,1814,309.4z"/>
		<path fill="#FFFFFF" d="M1801.3,299.2c0,0-0.4-3.6-5.2-3c0,0-6,2.7-8.6,2.8c0,0-4.7,0.6-7.8,0c0,0-4.5-1.3-5.5,2.4
			c0,0-1.6,8.5,15.3,5.8C1789.5,307.3,1802.5,305.9,1801.3,299.2"/>
		<path fill="#232021" d="M1783.5,309.5c1.8,0,3.9-0.2,6.2-0.5c0.8-0.1,8.9-1.1,12.1-5.2c1.1-1.4,1.5-3.1,1.2-4.8
			c-0.1-1.6-1.7-5.1-7.1-4.4l-0.5,0.1c-2.2,1-6.3,2.6-8,2.7c-0.2,0-5.2,0.5-7.4,0.1c0,0-0.8-0.2-2-0.2c-2.8,0-4.8,1.4-5.4,3.9
			c-0.1,0.4-0.5,2.9,1.4,5.2C1775.8,308.4,1779,309.5,1783.5,309.5z M1797.1,297.8c2.3,0,2.5,1.4,2.5,1.5c0.2,0.9,0,1.6-0.5,2.3
			c-1.9,2.6-7.7,3.7-9.8,3.9c-6.7,1.1-11,0.5-12.7-1.5c-0.9-1.1-0.7-2.3-0.7-2.3c0.1-0.3,0.3-1.2,2.1-1.2c0.7,0,1.2,0.1,1.2,0.1
			c1.1,0.2,2.3,0.3,3.7,0.3c2.5,0,4.7-0.3,4.8-0.3c2.5-0.1,7.5-2.3,8.8-2.8C1796.8,297.9,1797,297.8,1797.1,297.8z"/>
		
			<rect x="1794" y="297.8" transform="matrix(0.9733 -0.2295 0.2295 0.9733 -21.3798 420.1771)" fill="#232021" width="3.4" height="8.4"/>
		
			<rect x="1786.8" y="299.8" transform="matrix(0.9952 -9.834529e-02 9.834529e-02 0.9952 -21.2332 177.363)" fill="#232021" width="3.4" height="8.5"/>
		
			<rect x="1776.1" y="302.4" transform="matrix(6.823062e-02 -0.9977 0.9977 6.823062e-02 1355.361 2059.3926)" fill="#232021" width="8.2" height="3.4"/>
		<path fill="#232021" d="M1753.1,284.4c1.2-4.6,6.7-7.7,13.7-7.7c1.6,0,3.2,0.2,4.8,0.5c5.4,1.1,9.9,3.8,12.1,7.4
			c0.6,0.9,0.9,1.8,1.1,2.7l0.6-0.1c-0.1-1-0.1-2.1,0.1-3.2c0.8-3.9,4-7.8,8.5-10.4c3.4-1.9,7.2-3,10.7-3c4.1,0,7.5,1.5,9.4,4
			c1.4,1.9,1.9,4.2,1.4,6.8c-0.8,3.9-4,7.8-8.5,10.4c-3.4,1.9-7.2,3-10.7,3c-4.1,0-7.5-1.5-9.4-4c-0.2-0.3-0.3-0.6-0.5-0.8l-1.4,0.2
			c0,0.3-0.1,0.6-0.1,0.8c-1.2,4.6-6.7,7.7-13.7,7.7c-1.6,0-3.2-0.2-4.8-0.5c-5.4-1.1-9.9-3.8-12.1-7.4
			C1752.9,288.8,1752.5,286.5,1753.1,284.4z"/>
		<path fill="#232021" d="M1794.6,282.5c0.2,0,0.3,0,0.5,0c0.8-0.1,1.5-0.6,1.9-1.2s0.5-1.3,0.4-1.9c-0.3-1.4-1.8-2.4-3.3-2.1
			c-0.8,0.1-1.5,0.6-1.9,1.2s-0.5,1.3-0.4,1.9C1792,281.6,1793.2,282.5,1794.6,282.5z M1794.6,279c0.5,0,1,0.3,1.1,0.7
			c0,0.2,0,0.4-0.1,0.6c-0.2,0.2-0.4,0.4-0.8,0.4h-0.2c-0.5,0-1-0.3-1.1-0.8c-0.1-0.2,0-0.4,0.1-0.5c0.2-0.2,0.4-0.4,0.8-0.5
			L1794.6,279z"/>
		<path fill="#FFFFFF" d="M1761,285.2c0.2,1,1.2,1.6,2.3,1.4c1.1-0.2,1.8-1.1,1.6-2.1c-0.2-1-1.2-1.6-2.3-1.4
			C1761.6,283.3,1760.8,284.2,1761,285.2"/>
		<path fill="#FFFFFF" d="M1790.6,282c0.2,1,1.2,1.6,2.3,1.4c1.1-0.2,1.8-1.1,1.6-2.1c-0.2-1-1.2-1.6-2.3-1.4
			C1791.1,280.1,1790.4,281,1790.6,282"/>
	</g>
	<g>
		<g>
			<path fill="#3B6A9D" d="M1811.1,340.7c0,0,9.4-16.7-2.2-25.9c0,0-12.8-10.4-13-13.7c0,0-3.5-2.2-7.8,6.3c0,0-15.1,27.9,7.7,35.5
				C1795.8,342.8,1812.5,345.6,1811.1,340.7"/>
			<path fill="#232021" d="M1804.6,345.3c4.1,0,6.5-0.7,7.6-2.2c0.5-0.6,0.7-1.4,0.6-2.2c1.6-3.1,8.4-18.5-2.9-27.5
				c-5.7-4.7-12.1-10.8-12.3-12.5c-0.1-0.5-0.4-1.1-0.8-1.4c-0.6-0.3-5.4-2.5-10.3,7c-0.3,0.6-8.3,15.5-3.7,27.1
				c2,5.2,6.2,8.8,12.3,10.9C1795.7,344.6,1800.3,345.3,1804.6,345.3z M1809.4,341.2c0,0-0.8,0.7-4.8,0.7s-8.5-0.7-8.6-0.8
				c-4.9-1.7-8.3-4.7-10-8.8c-4-10.1,3.5-24.1,3.5-24.2c2.4-4.7,4.3-5.5,5-5.6c1.9,4,9.6,10.7,13.2,13.6c10.3,8.2,2.1,23.1,1.7,23.7
				C1809.4,340.2,1809.3,340.7,1809.4,341.2L1809.4,341.2z"/>
			<path fill="#EAB56F" d="M1911.6,313.2c0,0-47.7,25.3-70.4,28.3c0,0-26.7,3.3-32.6-8.4c0,0-3.3-2.6-5.3,0.8c0,0-2.9,3.4,4.9,8.1
				c0,0,36.9,24.7,104.4-23c0,0,5.7-3.9,2.6-5.7C1915.1,313.2,1914.1,310.7,1911.6,313.2"/>
			<path fill="#232021" d="M1836,350c23.6,0,49.7-10,77.6-29.7c1-0.7,4.3-3.2,4.2-5.9c0-0.6-0.2-1.6-1.3-2.4
				c-0.5-0.8-1.4-1.7-2.8-1.7c-1,0-2,0.5-3.1,1.5c-3.5,1.8-48.2,25.2-69.6,28c0,0-3.4,0.4-8,0.4c-7,0-19.4-1-22.8-7.9l-0.2-0.4
				l-0.3-0.2c-0.2-0.1-1.7-1.3-3.7-1.3c-1.7,0-3.1,0.9-4.1,2.5c-0.3,0.4-1.1,1.7-0.8,3.5c0.4,2.5,2.5,4.8,6.2,7
				C1807.6,343.6,1817.4,350,1836,350z M1913.6,313.8l0.2,0.6l0.4,0.3c0,0.4-1.3,1.9-2.7,2.8c-34,24-59.9,29.1-75.6,29.1
				c-17.4,0-26.8-6-26.9-6.1c-3.7-2.2-4.5-3.8-4.6-4.6c-0.1-0.6,0.1-1,0.1-1c0.6-1.1,1.1-1.1,1.3-1.1c0.5,0,1,0.2,1.3,0.4
				c4.3,7.7,16.3,9.4,25.7,9.4c4.8,0,8.3-0.4,8.4-0.4c22.8-3,69.1-27.4,71-28.4l0.4-0.3C1913.3,313.9,1913.6,313.8,1913.6,313.8z"/>
		</g>
		<g>
			<path fill="#3B6A9D" d="M1966.6,56.5c0,0-7.3-39.5-60.1-34.8c0,0-43.6,5.8-53.8,1.8c0,0-17.8-7.4-17.5-21.7
				c0,0-29,19.6-19.8,59.6c0,0-31.8,18-30.7,51.6c0,0-3.4,33.3,22.2,53.8c0,0,0.8,2.7-3.6,2.3c0,0-14.4-1.8-16.2-7
				c0,0-7.9,36.2,32.8,59.6c0,0,40.2,17.1,94.6-12.9c0,0,52.2,24.7,92,5.3c0,0,38.5-18.2,18-60.1c0,0-5.9-10.7-13.7-14.2
				c0,0,28.7-21.5,16.4-55.2C2027.3,84.4,2003.3,34.5,1966.6,56.5"/>
			<path fill="#232021" d="M1850.2,228.1c21.3,0,43-5.9,64.4-17.6c4.8,2.1,29.7,12.6,56.8,12.6c13.5,0,25.6-2.6,35.9-7.6
				c0.7-0.3,16.8-8.1,22.8-25.3c3.9-11.2,2.6-23.7-4-37.1c-0.3-0.5-5.2-9.3-12.2-13.8c6.4-5.8,25.6-26.3,15-55.5
				c-0.8-1.6-17-34.6-43.8-34.6c-5.8,0-11.6,1.6-17.4,4.7c-2.5-8-13.6-34.3-52.9-34.3c-2.7,0-5.6,0.1-8.5,0.4
				c-0.3,0-24.2,3.2-40.5,3.2c-7.6,0-11-0.7-12.5-1.3c-0.1-0.1-16.7-7.1-16.4-20.1c0-0.6-0.3-1.2-0.9-1.5s-1.3-0.3-1.8,0.1
				c-0.3,0.2-29.2,20.3-20.8,60.2c-5.7,3.6-31.5,21.8-30.5,52.5c-0.1,1.2-3.1,33.4,21.9,54.3c-0.3,0-0.8,0.1-1.4,0
				c-5.5-0.7-13.7-3-14.7-5.9c-0.2-0.7-1-1.2-1.7-1.2c-0.8,0-1.4,0.6-1.6,1.4c-0.1,0.4-7.7,37.7,33.6,61.4
				C1819.8,223.3,1831.2,228.1,1850.2,228.1z M1914.6,206.9c-0.3,0-0.6,0.1-0.8,0.2c-21.1,11.7-42.5,17.6-63.5,17.6
				c-18.3,0-29.5-4.7-29.6-4.7c-31.5-18.1-32.9-44.4-32.2-54c4.6,3.2,12.7,4.4,14.7,4.7c0.4,0,0.7,0.1,1,0.1c1.8,0,3.1-0.5,3.9-1.6
				c0.8-1,0.8-2.2,0.5-3c-0.1-0.3-0.3-0.6-0.6-0.8c-24.5-19.7-21.6-52-21.5-52.3c-1-32.4,29.5-50.1,29.9-50.2c0.7-0.4,1-1.2,0.8-1.9
				c-7.2-31.5,10-50,16.6-55.8c2.2,13,17.6,19.6,18.3,19.9c2.7,1,7.2,1.6,13.8,1.6c16.5,0,40.6-3.2,40.8-3.3
				c2.7-0.2,5.5-0.4,8.1-0.4c43.2,0,49.8,32.4,50.1,33.8c0.1,0.6,0.5,1,1,1.2s1.1,0.2,1.6-0.1c5.9-3.5,11.9-5.3,17.7-5.3
				c24.7,0,40.5,32.2,40.6,32.5c11.6,31.9-14.7,52.2-15.9,53.1c-0.5,0.4-0.7,1-0.7,1.6c0.1,0.6,0.4,1.1,1,1.4
				c7.1,3.3,12.8,13.4,12.9,13.5c6.1,12.5,7.4,24.1,3.8,34.4c-5.5,15.8-20.9,23.3-21,23.3c-9.9,4.8-21.5,7.3-34.5,7.3
				c-29.2,0-55.8-12.5-56.1-12.6C1915.1,206.9,1914.8,206.9,1914.6,206.9z"/>
		</g>
		<g>
			<path fill="#EAB56F" d="M1967.6,366.9c0,0,10.5-3.4,18.4,3.8c0,0,9.3,8.8-1,19.5c0,0-4.5,2.6-9.4,3c0,0-43,7.3-47.1-11.7"/>
			<path fill="#EAB56F" d="M1864.3,366.9c0,0-10.5-3.4-18.4,3.8c0,0-9.4,8.8,1,19.5c0,0,4.5,2.6,9.4,3c0,0,43,7.3,47.2-11.7"/>
			<g>
				<g>
					<path fill="#EAB56F" d="M1883.4,229.6c0,0-100.2,27-40.8,56.7c0,0-12.3,29.3,13.1,29.3"/>
					<path fill="#232021" d="M1855.7,317.4V314c-5.9,0-10.1-1.7-12.3-5c-5.1-7.7,0.7-21.8,0.8-21.9l0.6-1.5l-1.4-0.7
						c-12.5-6.3-18.5-12.7-17.8-19.1c1.6-15.8,42.6-30.2,58.3-34.4l-0.9-3.3c-2.4,0.6-58.6,16-60.8,37.4
						c-0.8,7.7,5.4,15.1,18.3,21.8c-1.5,4.2-5,16,0.1,23.6C1843.5,315.2,1848.6,317.4,1855.7,317.4z"/>
				</g>
				<path fill="#EAB56F" d="M1893.5,215.4c0,0-49.3,27.1-36.9,99.9c0,0,1.8,7.4,4.5,14.5c0,0,2.7,27.7,1.2,35.5L1880,391h13
					c0,0,10.4-3.9,11-11.6l9-33h8.5l6.8,33.3c-1,7.6,12.7,11.2,12.7,11.2h12.9l19.2-25.7c-1.6-7.8-0.4-35.5-0.4-35.5
					c2.7-7.1,4.5-14.5,4.5-14.5c12.4-72.8-39.2-100.1-39.2-100.1S1895,214.7,1893.5,215.4"/>
				<g>
					<path fill="#EAB56F" d="M1960.9,268.1c0,0,41.2-16.4,61.6-60.6c0,0-13.7-12-15.9-22.9c0,0-29.2,37.9-54.8,44
						C1951.8,228.6,1961.1,254.5,1960.9,268.1"/>
					<path fill="#232021" d="M1972.2,264.3c13.2-7.7,37.6-25.2,51.8-56l0.5-1.2l-1-0.9c-0.1-0.1-13.3-11.7-15.3-21.9l-0.7-3.7
						l-2.3,3c-0.3,0.4-29.1,37.5-53.8,43.3l0.8,3.4c22.2-5.2,46.5-33.2,53.7-42c3.2,8.7,11.6,17,14.5,19.7
						c-13.9,29.3-37.1,46-49.9,53.4L1972.2,264.3z"/>
				</g>
				<g>
					<path fill="#EAB56F" d="M2053,199.6c7.8-13.8,2.9-31.3-10.9-39c-13.8-7.8-31.2-2.9-39,10.9c-7.8,13.8-0.6,27.1,13.2,34.9
						C2030.1,214.1,2045.2,213.4,2053,199.6"/>
					<path fill="#232021" d="M2033.4,213c9,0,16.6-4.5,21.1-12.6c4-7.1,5-15.3,2.8-23.1S2050,163,2043,159
						c-4.5-2.6-9.7-3.9-14.9-3.9c-11,0-21.1,5.9-26.5,15.4c-7.7,13.6-2.2,28.2,13.8,37.3C2021.4,211.2,2027.6,213,2033.4,213z
						 M2028.1,158.6c4.6,0,9.2,1.2,13.2,3.5c6.3,3.5,10.8,9.3,12.7,16.2c1.9,6.9,1,14.2-2.5,20.5c-4,7.1-10.3,10.8-18.1,10.8
						c-5.1,0-10.8-1.6-16.2-4.7c-10.8-6.1-20.6-18.3-12.5-32.6C2009.4,163.8,2018.4,158.6,2028.1,158.6z"/>
				</g>
			</g>
			<path fill="#232021" d="M1973,367c0.1,0,0.2,0,0.3,0c0.9-0.2,1.5-1.1,1.3-2c-1.4-7.1-0.5-31.9-0.4-34.8c2.7-7,4.4-14.2,4.5-14.5
				c3.5-20.4,2.6-38.7-2.7-54.4c-7.5-22.6-22-34.2-29.9-39.1c-0.8-0.5-1.9-0.2-2.4,0.6s-0.3,1.9,0.6,2.4
				c7.5,4.6,21.3,15.7,28.5,37.3c5.1,15.1,5.9,32.8,2.6,52.6l0,0c0,0-1.8,7.3-4.4,14.2c-0.1,0.2-0.1,0.4-0.1,0.6
				c0,1.1-1.2,28,0.4,35.9C1971.4,366.4,1972.2,367,1973,367z"/>
			<path fill="#FFFFFF" d="M1968.5,367.8c0,0-13.2,6-15.6,25c0,0,26.1,1.6,32.7-5.2c0,0,4.7-4.9,1.7-13.2
				C1987.3,374.4,1982.3,365.7,1968.5,367.8"/>
			<path fill="#232021" d="M1916.7,348.3c9.9,0,14.5-2.2,14.8-2.3c0.9-0.4,1.2-1.5,0.8-2.3c-0.4-0.8-1.4-1.2-2.3-0.8l0,0
				c-0.1,0-8.4,3.8-26.7,0.8c-0.9-0.1-1.8,0.5-2,1.4s0.5,1.8,1.4,2C1908.1,348,1912.8,348.3,1916.7,348.3z"/>
		</g>
		<g>
			<path fill="#EAB56F" d="M1849.6,82.1c0,0-20,15.6-29.6,26.9c0,0-8.8-8.1-6.5-18.3c0,0,7.3-17.2,24.3-15.9
				C1837.9,74.8,1844.2,74.7,1849.6,82.1"/>
			<path fill="#232021" d="M1820.1,110.7L1820.1,110.7c0.6,0,1-0.3,1.3-0.6c9.4-11,29.1-26.5,29.3-26.7c0.7-0.6,0.9-1.6,0.3-2.4
				c-5.9-7.9-12.9-8-13.1-8c-0.6,0-1.2-0.1-1.8-0.1c-16.6,0-23.7,16.3-24,17c0,0.1-0.1,0.2-0.1,0.3c-2.6,11.1,6.6,19.6,7,20
				C1819.2,110.6,1819.6,110.7,1820.1,110.7z M1847.2,81.8c-4.5,3.6-18.7,15.1-27.2,24.6c-2.2-2.5-6.3-8.4-4.8-15.2
				c0.7-1.5,7.7-15.9,22.5-14.7C1838.1,76.5,1842.7,76.6,1847.2,81.8z"/>
			<path fill="#232021" d="M1821.4,90.4c0.3,0,0.5-0.1,0.8-0.2c8.4-4.4,17.5-0.2,17.6-0.2c0.9,0.4,1.9,0.1,2.3-0.8s0-1.9-0.8-2.3
				c-0.4-0.2-10.7-5-20.7,0.2c-0.8,0.4-1.2,1.5-0.7,2.3C1820.2,90.1,1820.8,90.4,1821.4,90.4z"/>
		</g>
		<path fill="#232021" d="M1862.3,367c0.8,0,1.5-0.6,1.7-1.4c1.6-8-1-34.9-1.2-36c0-0.2,0-0.3-0.1-0.5c-2.7-6.9-4.4-14.2-4.4-14.3
			c-8.5-50,14.3-75,28.6-85.4c0.8-0.6,0.9-1.6,0.4-2.4c-0.6-0.8-1.6-0.9-2.4-0.4c-15,10.9-38.8,36.9-30,88.8
			c0.1,0.4,1.8,7.6,4.5,14.6c0.3,2.7,2.6,27.6,1.2,34.8c-0.2,0.9,0.4,1.8,1.3,2C1862.1,367,1862.2,367,1862.3,367z"/>
		<path fill="#FFFFFF" d="M1863.3,367.8c0,0,13.2,6,15.6,25c0,0-26.1,1.6-32.7-5.2c0,0-4.7-4.9-1.7-13.2
			C1844.5,374.4,1849.5,365.4,1863.3,367.8"/>
		<g>
			<path fill="#EAB56F" d="M1945.2,91.6c0,0,38.8,22.5,40.8,76.4c0,0,1.9,45.2-39.3,56.5c0,0-105.2,28.8-116.1-46.1
				c0,0-9.2-46.8,31.1-79.2C1861.7,99.2,1901.3,69.6,1945.2,91.6"/>
			<path fill="#232021" d="M1903.4,231.6L1903.4,231.6c23.3,0,43.5-5.4,43.7-5.5c42-11.5,40.6-57.7,40.6-58.2
				c-2-54.3-41.2-77.6-41.6-77.8c-11.1-5.6-22.8-8.4-34.9-8.4c-28.7,0-49.7,15.5-50.5,16.1c-40.8,32.7-31.9,80.4-31.8,80.9
				C1835.3,222.4,1872.9,231.6,1903.4,231.6z M1911.2,85.2c11.5,0,22.7,2.7,33.3,8c0.3,0.2,37.9,22.6,39.8,74.9
				c0.1,1.8,1.3,44-38.1,54.7c-0.2,0-19.9,5.4-42.8,5.4l0,0c-29.1,0-65.1-8.7-71.1-50.1c-0.1-0.5-8.5-46.3,30.5-77.6
				C1862.9,100.4,1883.7,85.2,1911.2,85.2z"/>
			<path fill="#3B6A9D" d="M1944.1,80c0,0,7.8,41-49.1,47.5c0,0-4.8-20.8-18.5-22.5c0,0-24.7-3.2-23.8-17.6c0,0-0.2-6.6,4.8-8.2"/>
			<path fill="#232021" d="M1895,129.3c0.1,0,0.1,0,0.2,0c20.4-2.3,35-9.3,43.4-20.7c10-13.5,7.3-28.2,7.2-28.9
				c-0.2-0.9-1.1-1.5-2-1.4c-0.9,0.2-1.5,1.1-1.4,2c0,0.1,2.5,13.9-6.6,26.2c-7.6,10.3-20.9,16.7-39.5,19.1
				c-1.4-5-6.9-20.7-19.6-22.3c-0.2,0-23.1-3.2-22.3-15.7c0-0.2-0.1-5.5,3.6-6.7c0.9-0.3,1.4-1.2,1.1-2.2c-0.3-0.9-1.2-1.4-2.2-1.1
				c-6.2,1.9-6,9.6-6,9.9c-1,15.6,24.3,19.1,25.3,19.2c12.4,1.5,17,21,17,21.2C1893.5,128.7,1894.2,129.3,1895,129.3z"/>
			<g>
				<path fill="#FFFFFF" d="M1903.7,205.1c-8.2,0.2-15.6-4.7-16.6-12.7s4.8-15.4,12.9-16.4c6.4-0.8,12.3,1.7,15.1,7l1.2-0.1
					c1.4-5.9,6.1-9.8,12.5-10.6c8.2-1,15.6,4.7,16.6,12.7s-4.8,15.4-12.9,16.4c-6.3,0.8-7.3,0.6-14.2,0.2
					C1918.3,201.6,1909.9,204.9,1903.7,205.1"/>
				<path fill="#232021" d="M1916.9,183.4l7.3-9.5c0.5-1.3-1.7-3.3-1.7-3.3l-15.2,1.9c0,0-1.6,2.5-0.8,3.6l9.4,7.4L1916.9,183.4z"/>
				<g>
					<path fill="#232021" d="M1927.2,158.7c0.2,3.2,2.9,5.7,6.1,5.5s5.7-2.9,5.5-6.1c-0.2-3.2-2.9-5.7-6.1-5.5
						C1929.5,152.8,1927.1,155.5,1927.2,158.7"/>
					<path fill="#232021" d="M1886.8,163.2c0.4,3.2,3.3,5.4,6.5,5.1c3.2-0.4,5.4-3.3,5-6.5s-3.3-5.4-6.5-5
						C1888.7,157.1,1886.4,160,1886.8,163.2"/>
				</g>
			</g>
		</g>
		<g>
			<path fill="#E58142" d="M1967.7,220.5c0,0,13.6,1.7,21.5,28.8l-13.9,10.2c0,0,8.9,31.9,6.9,43.5c0,0-34.9,5.8-66.7,12
				c-32.6,6.4-54.9,0.5-60.8-3.8c0,0-1-37.1,7.2-54.3c0,0-2.3-12.6-12.8-15.3c0,0,25-11.5,32.5-12.1h10.7c0,0,4.7,10.3,23.9,9.4
				c19.2-0.9,24.7-12.4,24.7-12.4l7.3-1.6L1967.7,220.5z"/>
			<path fill="#232021" d="M1886.3,320c9,0,18.9-1.1,29.5-3.3c41.8-8.7,66.4-12,66.6-12c0.7-0.1,1.3-0.7,1.5-1.4
				c1.9-10.8-5-37.2-6.6-43.1l12.9-9.5c0.6-0.4,0.8-1.2,0.6-1.9c-8.1-27.9-22.3-29.9-22.9-30c-0.2,0-0.4,0-0.6,0l-26.8,5.8
				c-0.5,0.1-0.9,0.5-1.2,0.9c-0.2,0.4-5.4,10.6-23.2,11.4c-17.6,0.9-22.1-8-22.3-8.4c-0.3-0.6-0.9-1-1.6-1h-10.7
				c-7.9,0.7-32.2,11.8-33.2,12.3c-0.7,0.3-1.1,1-1,1.7s0.6,1.3,1.3,1.5c8.2,2.2,10.9,11.3,11.4,13.5c-7.7,17.9-7.2,53-7.1,54.6
				c0,0.5,0.3,1.1,0.7,1.4C1858.6,316.2,1869.8,320,1886.3,320z M1980.7,301.5c-5.6,0.8-29,4.3-65.6,11.9
				c-10.3,2.1-19.9,3.2-28.7,3.2c-18.2,0-27.2-4.5-30-6.2c0-5.7,0.1-37.2,7.1-52.7c0.2-0.3,0.2-0.7,0.1-1
				c-0.1-0.5-2.1-10.6-10.1-15.1c7.2-3.2,22.9-9.9,28.3-10.4h9.6c1.8,2.8,8.2,10.2,25,9.4c17.3-0.8,24.1-9.9,25.8-12.6l25.7-5.6
				c1.7,0.4,12.6,3.9,19.5,26.3l-12.9,9.5c-0.6,0.4-0.8,1.2-0.6,1.8C1973.7,260.3,1981.8,289.4,1980.7,301.5z"/>
		</g>
		<path fill="#232021" d="M1858.2,270c0.8,0,1.5-0.6,1.7-1.4c2.7-14.5,8.7-18.9,8.8-18.9c0.8-0.5,1-1.6,0.4-2.4
			c-0.5-0.8-1.6-1-2.4-0.5c-0.3,0.2-7.2,5-10.2,21.1c-0.2,0.9,0.4,1.8,1.4,2C1857.9,270,1858.1,270,1858.2,270z"/>
		<path fill="#232021" d="M1923.6,147.1c0.6,0,1.2-0.4,1.4-1l0,0c0,0,0.8-1.8,4.8-3.8c3.4-1.6,7.4-0.9,7.5-0.9
			c0.8,0.2,1.6-0.4,1.7-1.2c0.2-0.8-0.4-1.6-1.2-1.7c-0.2,0-5.1-0.9-9.3,1.1c-5.2,2.6-6.2,5.2-6.3,5.5c-0.2,0.8,0.2,1.6,1,1.8
			C1923.3,147.1,1923.4,147.1,1923.6,147.1z"/>
		<path fill="#232021" d="M1898.4,149.9c0.3,0,0.6-0.1,0.9-0.3c0.6-0.5,0.8-1.3,0.3-2c-0.2-0.3-1.9-2.5-7.7-3.3
			c-4.7-0.7-9,1.7-9.2,1.8c-0.7,0.4-1,1.3-0.6,2s1.3,1,2,0.6c0,0,3.7-2,7.4-1.4c4.5,0.6,5.7,2.2,5.8,2.2
			C1897.5,149.7,1897.9,149.9,1898.4,149.9z"/>
		<path fill="#232021" d="M1873.9,396.2c12.9,0,28.7-2.5,31.2-14.5l9.1-33.6h5.7l6.7,33.5c4.4,20.4,47.3,13.4,49.1,13.1
			c5.1-0.3,9.8-3,10-3.1c0.1-0.1,0.3-0.2,0.4-0.3c3.6-3.8,5.4-7.7,5.3-11.9c-0.1-6-4.2-9.9-4.4-10.1c-8.5-7.8-19.6-4.3-20.1-4.2
			c-0.9,0.3-1.4,1.3-1.1,2.2c0.3,0.9,1.3,1.4,2.2,1.1c0.1,0,9.7-3,16.7,3.4c0,0,3.2,3.2,3.3,7.7c0.1,3.1-1.4,6.2-4.2,9.2
			c-0.9,0.5-4.6,2.3-8.5,2.6c-0.6,0.1-41.6,6.9-45.4-10.4l-7-34.5c-0.2-0.8-0.9-1.4-1.7-1.4h-8.5c-0.8,0-1.5,0.5-1.7,1.3l-9.4,34.5
			c-3.8,17.3-44.8,10.5-45.2,10.5c-4-0.3-7.8-2.2-8.7-2.6c-2.8-3-4.3-6.1-4.2-9.2c0.1-4.5,3.3-7.6,3.3-7.7c7-6.4,16.6-3.4,16.7-3.4
			c0.9,0.3,1.9-0.2,2.2-1.1c0.3-0.9-0.2-1.9-1.1-2.2c-0.5-0.2-11.6-3.6-20.1,4.2c-0.2,0.2-4.3,4.1-4.4,10.1
			c-0.1,4.1,1.7,8.1,5.3,11.9c0.1,0.1,0.2,0.2,0.4,0.3c0.2,0.1,4.9,2.8,10.2,3.2C1856.9,394.9,1864.7,396.2,1873.9,396.2z"/>
		<g>
			<circle fill="#FFFFFF" cx="1917.8" cy="275.2" r="20.5"/>
			<circle fill="#E58142" cx="1917.8" cy="275.2" r="12.9"/>
			<circle fill="#FFFFFF" cx="1917.8" cy="275.2" r="8.7"/>
			<g>
				<path fill="#E58142" d="M1916.4,272.8l3.4-0.2c0.5,0,0.9-0.5,0.9-1l-0.9-12.8c0-0.5-0.5-0.9-1-0.9l-3.4,0.2
					c-0.5,0-0.9,0.5-0.9,1l0.9,12.8C1915.4,272.4,1915.9,272.8,1916.4,272.8z"/>
				<path fill="#FFFFFF" d="M1916.3,273.5c-0.9,0-1.6-0.7-1.7-1.6l-0.9-12.8c0-0.4,0.1-0.9,0.4-1.2c0.3-0.3,0.7-0.5,1.2-0.6l3.4-0.2
					c0.9-0.1,1.7,0.6,1.8,1.6l0.9,12.8c0,0.4-0.1,0.9-0.4,1.2c-0.3,0.3-0.7,0.5-1.2,0.6l-3.4,0.2
					C1916.4,273.5,1916.4,273.5,1916.3,273.5z M1918.9,258.4L1918.9,258.4l-3.5,0.2c-0.1,0-0.2,0.1-0.2,0.1s-0.1,0.1-0.1,0.2
					l0.9,12.8c0,0.2,0.2,0.3,0.3,0.3l3.4-0.2c0.1,0,0.2-0.1,0.2-0.1s0.1-0.1,0.1-0.2l-0.9-12.8
					C1919.2,258.5,1919.1,258.4,1918.9,258.4z"/>
			</g>
		</g>
	</g>
	<g>
		<g>
			<path fill="#FFFFFF" d="M1727.3,266.1l112.9-6.8c2-0.1,3.5-1.8,3.4-3.8l-3.1-52c-0.1-2-1.8-3.5-3.8-3.4l-112.9,6.8
				c-2,0.1-3.5,1.8-3.4,3.8l3.1,52C1723.6,264.7,1725.3,266.2,1727.3,266.1z"/>
			<path fill="#EB9C44" d="M1727.1,267.5c-2.6,0-4.8-2.1-5-4.7l-3.1-52c-0.2-2.8,1.9-5.1,4.7-5.3l112.9-6.8c2.8-0.1,5.1,1.9,5.3,4.7
				l3.1,52c0.1,1.3-0.4,2.6-1.3,3.6s-2.1,1.6-3.5,1.7l-112.9,6.8C1727.3,267.5,1727.2,267.5,1727.1,267.5z M1836.8,201.5
				L1836.8,201.5l-113,6.8c-1.2,0.1-2.2,1.1-2.1,2.4l3.1,52c0.1,1.2,1.1,2.1,2.4,2.1l112.9-6.8c0.6,0,1.1-0.3,1.5-0.7s0.6-1,0.6-1.6
				l-3.1-52C1839,202.4,1838,201.5,1836.8,201.5z"/>
		</g>
		<path fill="#EB9C44" d="M1712.6,221.4l1.9,31.6c0,0.4,0.4,0.7,0.8,0.7l6.9-0.4c0.4,0,0.7-0.4,0.7-0.8l-1.9-31.6
			c0-0.4-0.4-0.7-0.8-0.7l-6.9,0.4C1712.9,220.7,1712.6,221,1712.6,221.4z"/>
		<path fill="#8F8F87" d="M1725.5,211.6l3,49.5c0,0.5,0.5,0.9,0.9,0.8l6.6-0.4c0.5,0,0.9-0.5,0.8-0.9l-3-49.5c0-0.5-0.5-0.9-0.9-0.8
			l-6.6,0.4C1725.9,210.7,1725.5,211.1,1725.5,211.6z"/>
		<path fill="#8F8F87" d="M1736,211l3,49.5c0,0.5,0.5,0.9,0.9,0.8l6.6-0.4c0.5,0,0.9-0.5,0.8-0.9l-3-49.5c0-0.5-0.5-0.9-0.9-0.8
			l-6.6,0.4C1736.3,210.1,1735.9,210.5,1736,211z"/>
		<path fill="#8F8F87" d="M1746.7,210.3l3,49.5c0,0.5,0.5,0.9,0.9,0.8l6.6-0.4c0.5,0,0.9-0.5,0.8-0.9l-3-49.5c0-0.5-0.5-0.9-0.9-0.8
			l-6.6,0.4C1747.1,209.4,1746.7,209.8,1746.7,210.3z"/>
		<path fill="#8F8F87" d="M1757.8,209.7l3,49.5c0,0.5,0.5,0.9,0.9,0.8l6.6-0.4c0.5,0,0.9-0.5,0.8-0.9l-3-49.5c0-0.5-0.5-0.9-0.9-0.8
			l-6.6,0.4C1758.1,208.8,1757.7,209.2,1757.8,209.7z"/>
		<path fill="#8F8F87" d="M1768.3,209l3,49.5c0,0.5,0.5,0.9,0.9,0.8l6.6-0.4c0.5,0,0.9-0.5,0.8-0.9l-3-49.5c0-0.5-0.5-0.9-0.9-0.8
			l-6.6,0.4C1768.6,208.1,1768.2,208.5,1768.3,209z"/>
		<path fill="#8F8F87" d="M1779.1,208.4l3,49.5c0,0.5,0.5,0.9,0.9,0.8l6.6-0.4c0.5,0,0.9-0.5,0.8-0.9l-3-49.5c0-0.5-0.5-0.9-0.9-0.8
			l-6.6,0.4C1779.5,207.5,1779.1,207.9,1779.1,208.4z"/>
		<path fill="#EB9C44" d="M1790.1,209l2.8,47.1c0.1,1.2,1.1,2,2.2,2l42.6-2.6c1.2-0.1,2-1.1,2-2.2l-2.8-47.1c-0.1-1.2-1.1-2-2.2-2
			l-42.6,2.6C1790.9,206.8,1790,207.8,1790.1,209z"/>
		<g>
			<path fill="#FFFFFF" d="M1796.7,222.4l7.1-0.3c0.9,0,1.7,0.1,2.5,0.3c0.7,0.2,1.4,0.6,2,1c0.6,0.5,1,1.1,1.4,1.8
				c0.3,0.7,0.5,1.6,0.6,2.5c0,0.9-0.1,1.7-0.4,2.3c-0.3,0.7-0.7,1.4-1.3,2l0,0c0.6,0.6,1,1.1,1.4,1.7c0.3,0.6,0.6,1.4,0.6,2.3
				c0,1-0.1,1.8-0.4,2.6c-0.3,0.7-0.7,1.4-1.2,1.9c-0.6,0.5-1.2,0.9-1.9,1.2c-0.8,0.3-1.6,0.4-2.4,0.5l-7.4,0.3l-0.2-3.7l7.4-0.3
				c0.7,0,1.3-0.2,1.8-0.6c0.5-0.3,0.7-0.9,0.7-1.7s-0.3-1.4-0.9-1.8c-0.6-0.4-1.2-0.6-1.9-0.5l-6.2,0.3l-0.2-3.6l6.2-0.3
				c0.7,0,1.3-0.2,1.8-0.7c0.5-0.4,0.7-1,0.7-1.7c0-0.8-0.3-1.4-0.8-1.7c-0.6-0.3-1.2-0.5-1.9-0.5l-7.1,0.3L1796.7,222.4z"/>
			<path fill="#FFFFFF" d="M1813.5,226.5c-0.1-1.5,0.3-2.6,1.1-3.5c0.8-0.9,2-1.3,3.6-1.4c1.6-0.1,2.8,0.3,3.7,1.1
				c0.9,0.8,1.3,2,1.4,3.4c0,0.7-0.1,1.3-0.3,1.8c-0.2,0.6-0.5,1.1-0.9,1.6c-0.4,0.4-0.9,0.8-1.5,1.1s-1.3,0.4-2,0.5
				c-0.8,0-1.4-0.1-2-0.3s-1.2-0.5-1.6-0.9s-0.8-0.9-1-1.5C1813.7,227.7,1813.6,227.1,1813.5,226.5z M1828.3,220.6l3.5-0.2
				l-11.8,22.3l-3.5,0.2L1828.3,220.6z M1816.7,226.3c0,0.6,0.2,1,0.4,1.4c0.3,0.4,0.7,0.6,1.3,0.6c0.6,0,1-0.3,1.3-0.7
				c0.2-0.4,0.3-0.9,0.3-1.5s-0.2-1-0.5-1.4s-0.7-0.6-1.3-0.6c-0.6,0-1,0.3-1.2,0.7C1816.8,225.3,1816.7,225.8,1816.7,226.3z
				 M1825.1,237.3c-0.1-1.5,0.3-2.6,1.1-3.5c0.8-0.9,2-1.3,3.5-1.4c1.6-0.1,2.8,0.3,3.7,1.1c0.9,0.8,1.3,2,1.4,3.4
				c0,0.7-0.1,1.3-0.3,1.8c-0.2,0.6-0.5,1.1-0.9,1.6c-0.4,0.4-0.9,0.8-1.5,1.1s-1.3,0.4-2,0.5c-0.8,0-1.4-0.1-2-0.3
				s-1.2-0.5-1.6-0.9s-0.8-0.9-1-1.5C1825.2,238.6,1825.1,237.9,1825.1,237.3z M1828.3,237.1c0,0.6,0.2,1,0.4,1.4
				c0.3,0.4,0.7,0.6,1.3,0.6c0.6,0,1-0.3,1.3-0.7c0.2-0.4,0.3-0.9,0.3-1.5s-0.2-1-0.5-1.4s-0.7-0.6-1.3-0.6c-0.6,0-1,0.3-1.2,0.7
				C1828.4,236.1,1828.3,236.6,1828.3,237.1z"/>
		</g>
	</g>
	<g>
		<polygon fill="#000100" points="2059.4,270.6 2057.3,270.6 2057.4,243.6 2059.5,243.6 		"/>
		<path fill="#000100" d="M2052.7,317.6h-5.4l0.1-16.6h5.4L2052.7,317.6z M2049.4,315.5h1.2v-12.4h-1.2V315.5z"/>
		<path fill="#000100" d="M2067.9,317.7h-5.4l0.1-16.6h5.4L2067.9,317.7z M2064.7,315.6h1.2v-12.4h-1.2V315.6z"/>
		<g>
			<path fill="#E7B853" d="M2041.4,296.7c0,2.4,0,4.1,0,4.1l34.1,0.1l0.1-20.8c-0.4-1.1-2.3-4.9-4.7-6.8c-2.1-1.7-7.8-2.5-8.9-2.8
				h-6.8c-1.1,0.2-6.9,1.1-9,2.7c-2.4,1.9-4.3,5.7-4.7,6.7C2041.4,280,2041.4,290.6,2041.4,296.7z"/>
			<path fill="#000100" d="M2076.8,302.3l-36.9-0.2l0.2-22.7c0.5-1.2,2.5-5.2,5.1-7.3c1.8-1.4,5.5-2.2,8.9-2.8l1-0.2l7.8,0.2
				c3.4,0.6,7,1.5,8.8,2.9c2.6,2.1,4.6,6.1,5.1,7.4l0.1,0.5L2076.8,302.3z M2042.7,299.4l31.3,0.1l0.1-19.1c-0.6-1.4-2.3-4.5-4.1-6
				c-1.5-1.2-5.9-2-7.6-2.3l-0.6-0.1h-6.6l-0.6,0.1c-1.7,0.3-6.1,1.1-7.6,2.3c-1.9,1.5-3.6,4.5-4.2,5.9L2042.7,299.4z"/>
		</g>
		<polygon fill="#FFFFFF" points="2047.2,288 2059.8,280.7 2059.8,284.4 2068.2,284.4 2055.8,291.2 2055.8,288.2 		"/>
		<path fill="#000100" d="M1979,316.7l-0.5-2c8.2-2,15.6-5.5,21.9-10.2c16.3-12.3,26.3-33.3,29.5-62.4c2.9-26.4,2.1-39.6,1.4-45.1
			c-0.4-3.1,1-12.2,5.7-16.1c2.8-2.4,7.4-2.8,10.6-1.1c5.1,2.7,5.4,9.8,5.9,22.6v1.1c0.1,2.8,1.1,7.8,2.1,13.7
			c1.5,8,3.3,18,3.8,26.4l-2.1,0.1c-0.5-8.2-2.3-18.2-3.8-26.2c-1.1-5.9-2-11-2.2-14v-1.1c-0.5-11.7-0.8-18.7-4.8-20.9
			c-2.5-1.3-6.1-0.9-8.2,0.9c-3.8,3.1-5.3,11.5-4.9,14.2c0.7,5.6,1.5,19-1.4,45.6c-3.3,29.8-13.5,51.3-30.3,63.9
			C1995.1,311,1987.5,314.6,1979,316.7z"/>
	</g>
</g>
<g>
	<g>
		<path fill="#FFFFFF" d="M1557.1,164.6h21.2c2.5,0,5,0.5,7.4,1.2c2.2,0.8,4.2,1.9,5.9,3.4c1.6,1.5,2.9,3.4,3.9,5.5
			c0.9,2.3,1.4,4.8,1.4,7.6c0,2.5-0.5,4.9-1.4,6.9c-1,2.1-2.4,4-4.1,5.6l0.1,0.1c1.6,1.8,2.9,3.5,3.9,5.4c0.9,1.8,1.5,4.2,1.5,6.9
			c0,2.9-0.5,5.4-1.5,7.5c-1,2.2-2.3,4-3.9,5.5c-1.7,1.5-3.7,2.5-5.9,3.3c-2.3,0.7-4.7,1.1-7.3,1.1h-22.1v-10.9h22.1
			c2.1,0,3.9-0.5,5.5-1.5c1.5-0.9,2.3-2.5,2.3-5c0-2.4-0.8-4.1-2.4-5.4c-1.6-1.2-3.5-1.8-5.5-1.8h-18.5v-10.8h18.6
			c2.1,0,3.9-0.5,5.5-1.8c1.5-1.1,2.3-2.8,2.3-5.1c0-2.4-0.8-4.1-2.3-5.3c-1.6-1.1-3.5-1.7-5.5-1.7h-21.2V164.6z"/>
	</g>
	<path fill="#FFFFFF" d="M1573.6,274.4c-42.1,0-76.3-34.2-76.3-76.3c0-42.1,34.2-76.3,76.3-76.3s76.3,34.2,76.3,76.3
		C1649.9,240.2,1615.7,274.4,1573.6,274.4z M1573.6,127.8c-38.8,0-70.3,31.5-70.3,70.3c0,38.8,31.5,70.3,70.3,70.3
		s70.3-31.5,70.3-70.3C1643.9,159.3,1612.4,127.8,1573.6,127.8z"/>
</g>
<g id="레이어_12">
</g>
<g id="SDGs_x5F_1">
</g>
<g id="SDGs_x5F_2">
</g>
<g id="SDGs_x5F_3">
</g>
<g id="SDGs_x5F_4_00000093138247557657852750000015889430109405553051_">
</g>
<g id="SDGs_x5F_5_00000063615262280689029580000017351448056964923575_">
</g>
<g id="SDGs_x5F_6_00000067957576602054665300000011113551243144900774_">
</g>
<g id="레이어_10">
</g>
<g id="레이어_11">
</g>
</svg>
