<?xml version="1.0" encoding="utf-8"?>
<!-- Generator: Adobe Illustrator 26.0.1, SVG Export Plug-In . SVG Version: 6.00 Build 0)  -->
<svg version="1.1" id="레이어_1" xmlns="http://www.w3.org/2000/svg" xmlns:xlink="http://www.w3.org/1999/xlink" x="0px"
	 y="0px" viewBox="0 0 1811.6 601.4" style="enable-background:new 0 0 1811.6 601.4;" xml:space="preserve">
<style type="text/css">
	.st0{fill:#232020;}
	.st1{fill:#272423;}
	.st2{fill:#36312F;}
	.st3{fill:#080707;}
	.st4{fill:#006007;}
	.st5{fill:#91CFFE;}
	.st6{fill:#468602;}
	.st7{fill:#8BB4DB;}
	.st8{fill:#3B6A9B;}
	.st9{fill:#E9B46F;}
	.st10{fill:#314B66;}
	.st11{fill:#FDFDFD;}
	.st12{fill:#3B699B;}
	.st13{fill:#33302F;}
	.st14{fill:#E0B06E;}
	.st15{fill:#E9B758;}
	.st16{fill:#232121;}
	.st17{fill:#314B65;}
	.st18{fill:#1C1B18;}
	.st19{fill:#29282A;}
	.st20{fill:#1F2326;}
	.st21{fill:#DBAE6B;}
	.st22{fill:#0E0D0C;}
	.st23{fill:#25282A;}
	.st24{fill:#242121;}
	.st25{fill:#292524;}
	.st26{fill:#2E2927;}
	.st27{fill:#242222;}
	.st28{fill:#314A65;}
	.st29{fill:#12181E;}
	.st30{fill:#CFCFD0;}
	.st31{fill:#CCCDCE;}
	.st32{fill:#070B0E;}
	.st33{fill:#F2F2F2;}
	.st34{fill:#F0F0F0;}
	.st35{fill:#4A4A4B;}
	.st36{fill:#525252;}
	.st37{fill:#575758;}
	.st38{fill:#616262;}
	.st39{fill:#474848;}
	.st40{fill:#565656;}
	.st41{fill:#595A5A;}
	.st42{fill:#666767;}
	.st43{fill:#616161;}
	.st44{fill:#747475;}
	.st45{fill:#7C7D7D;}
	.st46{fill:#242425;}
	.st47{fill:#303030;}
	.st48{fill:#E8B46F;}
	.st49{fill:#8D7654;}
	.st50{fill:#494949;}
	.st51{fill:#555455;}
	.st52{fill:#616162;}
	.st53{fill:#EAEAEA;}
	.st54{fill:#E4E4E5;}
	.st55{fill:#3F4040;}
	.st56{fill:#686868;}
	.st57{fill:#F7F7F7;}
	.st58{fill:#DBDBDB;}
</style>
<g>
	<path d="M775.2,455.3c-11.1-8.8-21.6-18.3-31.4-28.7c-17.9-18.9-31.1-40.8-40.8-64.9c-6.6-16.3-10.8-33.2-13.9-50.5
		c-2.7-15.4-3.2-31.1-1.9-46.5c2.6-31,10.6-60.7,25.3-88.3c7.8-14.7,17.4-28.2,28.5-40.7c21.6-24.4,47.3-43,76.7-56.6
		c17.3-8,35.4-13.1,54.4-15.9c16.4-2.5,32.8-2.6,49-1.5c24.5,1.6,48.5,6.9,71.2,16.8c19.3,8.4,37.3,19.1,53.3,33
		c20.9,18.1,38.2,39,52,63c9.4,16.4,16.2,33.9,20.8,52.1c2.2,8.8,3.6,17.8,4.8,26.9c1,7.7,1.2,15.5,1.3,23.1c0,8.4-0.3,17-1.3,25.6
		c-1.5,13-3.8,25.7-7.1,38.3c-4.6,17.2-11.5,33.4-20.5,48.6c-8.4,14.2-18.1,27.4-29.5,39.4c-0.3,0-0.8,0-0.9-0.2
		c-7-7.8-16-11.2-26.1-12.6c-7.5-5.2-9.9-12.3-7.6-20.9c1.8-6.7,2.2-13.4,2-20.3c-0.4-15.5,0.9-31-1-46.4c-0.2-1.3-0.2-2.7-0.5-4
		c-2.2-11.7-6-15-17.9-15.1c-7-0.1-14-0.8-20.9-1.4c-7.1-0.6-14.1-2.7-19.4-8.1c0.3-5.7,4.7-8,8.7-10.6c11.9,4.5,24.6,3.6,37,4.7
		c17.9,1.6,26.3,14.9,27.9,30.1c1.5,14.9,1.9,29.9,2.5,44.8c0.4,8.9-0.6,17.9-2.6,26.8c-1.5,6.8,0.3,8.9,7.4,8.4
		c8.8-0.6,16.1-4.1,21-11.7c19-29.2,30.4-60.9,33-95.8c2.9-38.4-3.7-75-21.2-109.4c-9.3-18.3-21.3-35-36-49.5
		c-4.2-4.2-8.2-5.4-13.8-2.8c-8.1,3.8-16.7,6.5-24.9,10.5c-6.1,2.9-8.9,7.8-9.3,14.3c-0.2,4-0.1,8,0.4,12c0.5,4.1,2.3,5.7,6.5,5.7
		c7,0,14-0.9,20.9-1.5c6-0.5,12-0.9,17.9-1.4c9-0.7,16.9,2.2,22,10.2c5.3,8.4,3.7,17-0.4,25.2c-4.3,8.6-11.7,12.1-21.2,12.3
		c-16.7,0.3-33.3-0.6-49.7-3.7c-9.3-1.8-12.1,0.7-12.4,10.2c-0.2,7.9-2.8,14.9-8.7,20.4c-4.8-0.9-7.8-4.2-10.4-8
		c2.7-6.5,2.7-13.5,3.8-20.3c1.8-11.8,15.2-20.5,26.9-18.1c16.8,3.4,33.7,3.8,50.7,3.4c6.4-0.2,10.1-5.5,8.5-11.8
		c-0.7-2.7-2.6-3.8-5.1-4c-3.2-0.3-6.3-0.2-9.5,0.1c-13.8,1.1-27.5,2-41.4,1.7c-5.7-0.1-9.5-2.8-11.4-8c-3.6-9.7-4.4-19.8-2.7-30
		c2.2-12.4,10.6-19.6,21.4-24.6c5.3-2.5,10.4-5.2,16-7.1c1.5-0.5,3.7-0.6,4-2.5s-1.8-2.6-3-3.6c-15.9-12.2-33.3-21.5-52.1-28
		C956,81.4,937,77.8,917.4,76.6C880.1,74.5,845.2,82,812.2,99c-0.6,0.3-1.2,0.6-1.8,0.9c-0.8,0.5-2.1,0.8-2.1,1.9
		c-0.1,1.5,1.4,1.6,2.4,2c9.8,3.9,19.9,4.1,30,2.1c7.5-1.5,14.9-3.6,22.5-4.5c12.2-1.5,23.5,1.1,32.8,9c6.3,5.4,13.4,7.7,21.1,9.4
		c1.3,0.3,2.6,0.4,3.9,0.7c14.8,3.1,21.4,11.6,20.3,26.7c-0.5,7-1.9,13.8-4,20.6c-2.7,8.6-8.1,13.9-16.9,15.9
		c-3.1,0.7-6.2,1.2-9.3,1.9c-7.7-1.4-15.2-3.3-22.2-6.7c-0.3-2.9,2.2-2.9,3.9-3.6c6.6-2.5,13.4-4.1,20.3-5.1
		c6.8-1,10.3-4.6,11.2-11.3c0.5-3.9,1.5-7.8,2-11.8c0.8-6.7-1.6-10.5-8.2-11.3c-13.3-1.7-24.9-6.5-35.1-15.3
		c-4.9-4.2-11-3.9-17.2-3.3c-9.2,0.9-18,3.4-27,4.9c-12.2,2-23.9,0.4-35.2-4.3c-2-0.8-4-1.7-6-2.5c-5.4-2.1-10.1-1.4-14.9,2.2
		c-24.7,18.7-44,41.8-58.4,69.3c-1.8,3.5-2,6.8-0.6,10.5c6.1,16.1,15.1,30.3,26.6,43.1c1.3,1.5,2.9,2.8,3.4,4.8
		c-0.5,4.6-2.1,8.6-5.8,11.6c-2.5,0.1-3.8-1.8-5.4-3.3c-10.3-10.1-18.7-21.6-25.4-34.4c-0.9-1.7-1.3-3.8-3.2-4.9
		c-1.7,0.7-1.7,2.4-2.2,3.7c-5.9,18.3-9,37.1-9.5,56.4c-0.9,33.7,6,65.6,20.8,95.7c15.1,30.8,36.9,56.1,65,75.8
		c12.9,9,26.5,16.6,41.1,22.6c0.9,0.4,1.8,0.8,2.6,1.5c0.8,0.9,0.5,1.9-0.1,2.7c-3.2,3.6-6,7.7-10.7,9.7c-8.1-1.7-14.8-6.3-21.9-10
		c-6.4-3.3-12.6-7.3-18.5-11.5C778.5,459.1,776.8,457.3,775.2,455.3z"/>
	<path class="st0" d="M968.9,241.4c3.5,1.7,6,4.8,9.2,7.1c5.8,4.1,7.4,10.4,8.7,16.7c1.3,6.6,1.4,13.2-1.2,19.6
		c-0.7,1.9-1.4,3.8-3.5,4.6c-2.7,3-5.4,6.1-8.1,9.1c-2,3.9-6,5.1-9.6,6.6c-3.2,1.4-4.1,3.3-3.5,6.6c2.5,13.9,2.6,27.8-0.3,41.7
		c-0.3,1.3-0.8,2.9,0.2,3.9c4.7,4.5,3.6,10.9,5.1,16.3c3,11-7,21.6-19.1,19.7c-5.8-0.9-11-1.5-16.1,1.5c-1.7-0.3-3.3-0.2-4.8,0.6
		c-6.6,3.3-13.8,4.5-21,5.2c-5,0.5-5,4.5-6.4,7.6c-3.2,0.6-4.3-1.3-4.6-4c2-4.3,5.3-6.8,10-7.3c11.1-1.2,21.4-4.6,30.4-11.4
		c1.1-0.8,2.4-1.2,3.8-1.1c2.7,0.3,5,1.8,7.6,2.3c5.4,1,11-1.1,13.1-4.9c2.2-3.9,1.1-10.5-2.1-14.4c-1.7-2-4.5-3-4.9-6
		c1.4-6.8,3.6-13.4,4.5-20.4c1.2-9.9-0.1-19.6-1.5-29.3c-0.5-3.1-1.9-4.6-5.4-4.3c-6.7,0.6-7.3-0.2-6.7-7.3c1-12-7.8-23.6-19.4-25.6
		c-2.9-0.5-2.4,1.6-2.6,3.1c-0.9,6.6-2.1,13.2-4.3,19.5c-7.9,22-23.3,35.5-45.9,41c-5.5,1.3-5.6,1.7-3.4,6.6
		c9.3,20.1,6.4,33.6-10.5,48.7c6.9-0.5,13.7-1,20.3,0.9c1.8,0.5,4.6,0.2,4.3,3.5c-1.9,1.3-3.9,0.7-5.8,0.4c-5.8-1-11.5-1.2-17.3-0.1
		c-3.3,0.6-5.9,2-7.4,5.1c-8.7,17.3-13.2,35.4-11.7,54.8c0.3,3.5,0.9,6.9,3.3,9.7c1.4,3.3,0.1,6.6-0.7,9.6c-0.7,2.7-4.6,2.7-7.3,3.4
		c-1.7-3.3,2-4.5,2.8-7.3c-12.1,10.9-22.4,24.3-38.9,23.6c8.4,1.2,16.9-1.8,26.2-9.9c1.7-1.5,3-3.8,5.9-2.9c1.2,2.9-2,3.5-2.8,5.4
		c-8.7,8.9-24.1,16.2-39.1,9.5c-3.5-1.5-7.6-1.7-11.3-2.6c-7.9-1.9-12-8.7-11-19.5c0.8-8.4,4.9-15,9.5-21.5c3.2-0.4,3.5,3.5,6,4.1
		c1.5,3,4.6,4.3,7.1,6.1c7,4.8,9.9,11.2,9.1,19.7c-0.5,5.6,0.3,6,5.8,5c4.2-0.8,7.9-2.7,11.2-5.2c2-1.5,4.2-2.7,6.5-3.6
		c4.2-3.2,7.7-7,11.1-10.9c1.9-4.8,0.8-9.7,0.6-14.6c-0.9-16.6,2.3-32.6,9-47.8c0.6-1.3,1.5-2.5,2-3.8c0.6-1.6,2.7-3.1,1.3-4.7
		c-1.1-1.2-3,0.3-4.6,0.2c-14.9,2.1-29.6,1.3-44-3c-18.9-5.7-35.2-15-45.3-32.8c-7-12.4-9.3-25.9-8.3-40c0.1-1.7,0.3-3.5,2.2-4.1
		c2.9-0.8,4.6,1.2,6.9,3.3c-5.2-10.3-8.2-20.6-9.6-31.6c-1.3-10.3,0.2-20.2,2.8-30.1c0.5-1.9,1.1-3.9,3-5c1.6-3.8,4.1-7.1,5.1-11.2
		c2.2-6.5,6.8-11.7,11.7-15.9c5.7-4.9,6.5-9.5,4.3-16.5c-4.4-13.7-3.3-27.3,3.7-40.2c2.2-4,4.8-7.7,8.2-10.6
		c4.2-3.7,6.8-3.2,9.3,1.9c2.6,5.5,6.4,9.7,12.1,12c3.1,1.3,6.3,1.8,9.8,1.2c17.3-3.1,34.7-3.7,52.3-3.3c6.9,0.1,13.6,1.2,20.3,2.3
		c1.6,0.3,3.3,0.7,4.3,2.2c7.4,2,14.8,4.1,22.2,6.1c9.3,2.4,16.9,7.8,24,13.8c9.7,8.2,17,18.2,21.2,30.3c1.7,4.8,3.8,8.9,9.4,9.9
		C967.2,238.8,968.3,239.9,968.9,241.4z"/>
	<path class="st1" d="M984.8,484.3c0.9,3.3,3.2,5.6,5.5,8c2.4,2.4,3,4.9,1.8,8.4c-1.2,3.7-3.8,2.4-6,2.6c-6.4,0.5-11.4,3-15,8.5
		c-4,6.2-9.7,10.4-16.3,13.7c-2.5,1.2-4.2,0.8-4.3-1.6c-0.3-6.5-3.3-12.2-4.5-18.4c-1.5-7.1-5.1-13.6-5.5-21
		c-0.1-1.6-1.5-2.5-2.8-3.2c-5.3-2.6-10.3-5.8-16.2-7.3c-1.1-2.2-1-4.4-0.1-6.6c0.8-1.3,2-2,3.5-2.1c4.3,0.4,8.6,0.7,12.9,0.7
		c3.1,0,3.8-1.1,2.6-3.9c-1.5-3.7-2-7.7-1.8-11.7c0.1-2,0.3-4,2.3-5.2c2.9-1.1,6-1.2,9-1.9c1.1-0.1,2.1,0,3.2,0.3
		c1.3,0.7,3.3,0.7,3,3c-2,1.7-4.4,1.1-6.6,1.3c-5.5,0.4-6.6,1.7-5.7,7.2c0.2,1.1,0.5,2.2,0.8,3.4c0.6,2.8,1.9,4.5,5.1,3.4
		c1.1-0.4,2.3-0.4,3.3,0.4c1,1.5-1,2.3-0.7,3.6c1.9,1.2,5.9-0.2,5.3,3.8c-0.5,3.2-3.5,3.2-6,3.2c-6.3,0-12.7,0.3-18.5-0.1
		c4.4,1.8,9.1,4.2,14.2,5.8c6.4,2.1,12.8,3.7,19.6,3.6c1.2,0,2.3,0,3.5,0.3c1.7,0.4,3.2,1.2,3.4,3.2c0.2,2.3-1.4,3.3-3.2,3.8
		c-4,1-7.9,0.5-11.9-0.2c-11.4-1.9-12.2-0.9-8.6,10.1c1.7,5.2,3.6,10.4,5,15.7c1,4,2.6,4.6,5.9,2c3.4-2.7,6.8-5.6,9.1-9.3
		c2.8-4.4,6.5-6.4,11.3-7.2c1.3-0.2,2.6-0.7,3.9-0.9c3.4-0.8,3.6-2.6,1.5-4.9c-3.4-3.8-5.7-8.2-7.8-12.7c-0.8-1.6-1.8-3.3-1.1-5.2
		c0.8-1.2,1.9-1.7,3.3-1.5C983,477.8,983.8,481.1,984.8,484.3z"/>
	<path class="st2" d="M922.2,474.3c1-0.3,1.5-2,3-1.2c5,2.6,9.9,5.2,14.8,7.9c0.8,0.4,1.7,1.5,1.7,2.3c0.1,7.6,3.5,14.6,4.3,22.2
		c-2.4-3-1.8-7.2-4-10.2c-2.8-3.3-1.3-8-3.7-11.5c-3.6-2.7-8-3.9-11.7-6.4c-0.7-0.5-1.7-0.7-2.3-0.1c-3.5,4-8.8,5-13.2,7.6
		c-0.4,0.2-0.7,0.7-0.9,1.2c-3.5,4.2-6.6,8.9-11.1,12.2c-3.8,2.6-3.9,6.9-5,10.8c-0.6,2.1,0.8,3.2,3.1,3.4c4.4,0.4,8.5,1.6,11.7,5.2
		c4.4,4.9,4.3,12.2-0.8,16.7c-6.5,4.2-13.8,5.2-21.3,5.4c-10.2,0.3-20.5,0.2-30.5-2c-2.9-0.7-5.6-1.9-7.5-4.4
		c-4.8-5.6-3.3-11.5-0.7-17.3c1.5-3.3,2.3-6.7,2.9-10.2c1.3-7.5-3.9-11.7-8.1-16.4c-0.4-0.5-1-0.8-1.5-1.3c-4.1-4.9-4.1-4.9-9.5-1.9
		c-1.9,0.7-2.6,3.3-5,3.3c-0.3-2.4,2.4-3.3,2.9-5.3c0-2.6,1.3-3.9,3.9-3.9c2.1-0.6,3.1-3.6,6-2.7c1.1,0.3,0.8-0.6,0.7-1.3
		c-0.6-2.9,0.7-5.4,1.5-8c0.2-0.2,0.4-0.4,0.7-0.6c3.8-1,7.6,0,11.2,0.5c7.6,1,15.1,0.6,22.6,0.5c0.6,0.2,0-0.3,0.5,0
		c8.4,6,18.4,6.6,28.1,8.6C911.4,478.7,916.7,476.9,922.2,474.3z"/>
	<path d="M984.8,484.3c-2.6-2.4-3.9-5.4-3.8-8.9c-0.8-1.8,0.8-3,1.3-4.5c0.7-1.3,1.5-2.5,2.8-3.3c12.3-5.4,24-11.8,35.3-19.1
		c6.4,0.1,12.8,0.1,16.6,6.7c-12.1,8.4-24.4,16.4-37.8,22.5C994.4,479.9,989.6,482.1,984.8,484.3z"/>
	<path d="M899.1,498.2c2.3-5.1,7.1-8.2,10-12.9c1.7-1.1,3.3-2,5.4-2c8.1,0,16.2-2.9,24.4-1c3.6,3.7,2.3,8.5,3.1,12.9
		C927.8,497.9,913.5,499,899.1,498.2z"/>
	<path class="st3" d="M1037,455.2c-4.9-4.2-10.8-5.7-17.1-5.8c-4.6,2.6-8.6,0.1-12.6-1.5c-2.9-1.2-5.5-2.8-7.6-5.3
		c-0.4-0.8-0.3-1.6,0.1-2.3c0.9-0.8,1.9-0.9,3-0.7c6.8,4.1,14,6.3,22.1,6.7c7.6,0.4,13.6,5,18.8,10.4c3.6,3.7,3.6,3.7,6.4-0.4
		c4.2-6.2,8-12.7,12.2-18.8c2.2-3.2,2.1-6-0.6-9c-5.1-5.8-11.1-9.3-18.9-9.8c-11.4-0.6-21.1-4.4-27.5-14.5c-0.7-1.3-1.8-2.3-2.1-3.7
		c-0.4-1.1,0.7-2.1-0.2-3.7c-8.5,12.4-16.1,25-24.5,37.1c-1.3,1-2.5,2.9-4.2,0.5c-0.5-2.2,0.9-3.8,1.9-5.5
		c7.4-11.5,14.6-23,22.3-34.3c1.8-2.6,3.8-4.9,7.4-3.4c3.4,1.4,4.1,4,3.1,7.4c-0.6,1.9,0.4,3.5,1.5,5.1c3.3,4.4,7.6,7.4,12.8,9.1
		c2.2,0.7,4.5,1.3,6.5,2.6c11-0.2,19.7,4.4,26.2,13.1c2.6,2.9,3,6.5,0.7,9.3c-6.7,8.2-11.7,17.5-17.5,26.2c-2.3,3.5-3.5,2.2-4.8,0.1
		C1042.3,460.7,1040.3,457.4,1037,455.2z"/>
	<path class="st0" d="M848.8,533.4c7.6,6.1,17,5.1,25.7,5.8c11.4,0.9,22.9,0.1,33.6-4.8c-4.3,4.9-10.6,5.4-16.1,5.7
		c-12,0.6-24.2,1.4-36-1.8C853.2,537.5,849.7,537.2,848.8,533.4z"/>
	<path d="M832.1,486.2c5.8-7,5.8-7,9.9,1c0.4,0.7,0.7,1.5,1,2.2C839.4,488.4,835.7,487.3,832.1,486.2z"/>
	<path class="st4" d="M982,289.4c6.4-13.1,5.3-25.7-2.4-37.9c-0.6-1-1.1-2-1.6-3c5.2-6.7,8.5-14,8-22.8c-0.3-5.9,4.3-10.7,9.2-10
		c3.8,0.5,7.4,1.4,11.2,2c17.1,2.8,34.2,4,51.4,1.6c6.2-0.9,9.5-6.1,12-11.1c4.1-8.4,5.4-17.5-1.3-25.2c-6-6.9-14.1-8.9-23.1-6.9
		c-4.7,1-9.6,0.6-14.3,1c-7.9,0.7-15.8,1.9-23.8,1.4c-2.8-0.2-4.1-0.9-4.4-4c-0.8-6.8-1.8-13.5,0-20.2c1.3-4.7,4.1-8,8.7-10.2
		c10-4.8,20.5-8.5,30.8-12.7c3.4-1.4,5.7,1,7.8,2.9c13.3,12,23.7,26.4,32.9,41.6c10.4,17.1,17.6,35.6,22.2,55.1
		c2.6,11.1,4,22.4,4.9,33.8c0.6,7.3,1.1,14.6,0.8,21.9c-1.1,26.4-6.5,51.7-17.4,75.9c-4.9,10.9-10.7,21.3-17.3,31.3
		c-6,9-15,12.1-25.4,11.5c-5.1-0.3-6.9-2.5-5.7-7.1c2.5-9.2,3-18.6,3.4-28c0.2-5.5,0.1-11.3-0.8-16.8c-1.6-9.6-0.5-19.2-1.7-28.7
		c-1.8-14.1-9.1-27.9-26.2-29.4c-10-0.9-20.2-0.2-30.1-2.6C987,291.9,984.6,290.5,982,289.4z"/>
	<path class="st5" d="M968.9,241.4c-0.3-0.1-0.6-0.4-0.9-0.4c-8.5-1.3-11.4-7.5-14.2-14.7c-6.7-17.3-19.5-29.2-35.7-37.8
		c-2.4-1.3-5.1-1.9-7-3.9c4-1,8.1-1.9,12.1-3.2c4.2-1.4,8.2-3.3,10.1-7.7c5.1-12.3,8.8-24.8,5.1-38.2c-2.1-7.7-8-11.1-15-12.9
		c-3.4-0.9-7-1.1-10.4-2.1c-6.4-1.8-12.2-4.1-17.6-8.6c-9.4-7.9-20.6-10.4-33.3-8.6s-24.9,6.8-38.2,5.4c-7.1-0.8-13.5-2.9-20.3-6.4
		c13.1-7.5,26.1-13.4,39.9-17.8c10.5-3.4,21.3-5.4,32-7.6c3.2-0.7,6.5-0.7,9.7-1.1c13.5-1.4,27-1.6,40.5-0.1
		c27.4,3.1,53.6,10.5,77.9,23.8c10.1,5.6,19.6,12,28.6,19.1c0.6,0.5,1.6,0.8,1.3,1.7c-0.3,0.7-1.1,1-2,1.3
		c-9.1,3.3-17.9,7.1-26.4,11.8c-10.4,5.8-15.7,14.4-16.2,26.2c-0.4,7.9,0.4,15.7,3,23.2c1.9,5.6,4.7,7.5,10.4,7.7
		c12.5,0.6,24.8-1.1,37.3-1.2c3.7,0,7.5-0.6,11.3-0.8c3.5-0.2,7.5,0.1,8.6,3.4c1.2,3.9,1.6,8.4-1.5,12.2c-2,2.4-4.2,3.7-7.6,3.6
		c-7.8-0.3-15.7,0.1-23.5-0.2c-9.1-0.3-18.3-1.4-27.2-3.2c-9.9-2-18.5,1.6-23.7,10.4c-2,3.5-3.7,7-2.9,11.1
		C974.2,231.7,971.3,236.4,968.9,241.4z"/>
	<path class="st6" d="M889,178.4c-16.7-3.8-33.6-3.3-50.4-2.8c-8.9,0.2-17.8,1.3-26.5,3.2c-9.1,2-20.3-6.2-23-13.4
		c-2.2-5.9-3.4-6.3-7.6-1.8c-10.8,11.4-15.2,24.8-12.8,40.5c0.8,5.4,1.6,10.8,3.9,15.8c0.8,1.7,0.5,3.7-0.8,4.6
		c-7.5,5.8-12.4,14-18.8,20.9c-10.8-11.1-19.7-23.5-26.3-37.5c-2-4.2-3.7-8.4-5.4-12.7c-0.8-2-0.6-4.2,0.5-6.2
		c7.3-13.9,15.3-27.3,25.5-39.3c10.7-12.6,22.6-23.9,35.7-34c6.5-5,12.2-2.9,18-0.3c10.3,4.7,21,7,32.2,6.2c8-0.6,15.8-3.2,23.7-4.4
		c6.9-1,13.9-3,21.1-0.7c3.8,1.2,6.6,3.5,9.6,6c8.9,7.5,19.6,10.4,30.8,12.1c7.8,1.2,10.7,5.4,9.4,13.3c-0.8,5-1.8,10-3,15
		c-1,4.3-3.4,7-8.2,8C907.4,172.8,897.7,173.9,889,178.4z"/>
	<path class="st5" d="M748,256.5c-3,8.1-4.7,16.6-4.9,25.2c-0.4,13.7,3.1,26.7,9,39.1c0.9,2,2,4,2.7,6.2c-2.1-1.9-5-2.6-6.5-5.3
		c-0.4-0.7-2.1-1.8-3.5-1.1c-1.3,0.7-0.7,2-0.8,3.1c-0.8,12.6,0.9,24.9,6.4,36.3c5.3,10.9,13.5,19.4,24.1,25.7
		c16.9,10,35.2,14.2,54.6,13.7c3.9-0.1,7.8-1.6,11.8-0.9c3.6,2.2,3.2,5.5,2.3,8.9c-2.8,8-5.9,16-7.3,24.5c-1.7,9.9-2.8,19.7-1,29.7
		c0.6,3.2,1.3,7.1-2.9,9.1c-9.2-2.2-17.4-7-25.5-11.5c-19.4-10.8-36.9-24.2-51.9-40.6c-10.8-11.8-20.1-24.6-27.8-38.6
		c-9-16.2-15.6-33.2-20-51.1c-2.3-9.3-3.6-18.8-4.8-28.3c-1.4-11.4-1.2-22.9-0.7-34.2c0.8-18.4,4.9-36.2,10.8-53.6
		c0.3-0.8,0.9-1.8,1.5-1.6c1,0.5,1.9,1.4,2.4,2.4c2.7,5.5,5.6,10.9,9,16.1C731.4,239.4,738.9,248.6,748,256.5z"/>
	<path class="st5" d="M1039.9,415.3c-9.4-0.5-16.5-5.1-21.7-12.7c-0.9-1.3-1.9-2.9-0.3-4.9c2-2.3,0.6-4.1-1.7-5.4
		c-2.1-1.2-3.8-1-5.2,1.1c-8.8,13.5-18.2,26.6-26,40.7c-0.4,0.5-0.7,1.2-1.3,1.5c-1.7,1.1-3.5,2.7-5.4,1.5c-1.8-1.2-0.8-3.4-0.4-5.1
		c3.3-13.9,11.6-24.9,21-35.2c1.8-1.9,5.5-3.8,4.6-5.9c-1.1-2.7-5.1-1-7.8-1.2c-6.4-0.4-12.6,0.6-18.7,2.3
		c-20.8,5.9-32.3,21.2-32.7,43c-0.1,3.5,1.2,7.5-2.3,10.2c-3.8,3.5-1.8,7.9-1.5,11.9c0.3,3.3,1.9,6.4,4,10.1c-6.9-0.2-13.2,1-19.4-1
		c-5.5-2.2-8.4-5.9-9-12.3c-1.3-12.8-4.7-25.1-11-36.4c-1-1.9-2.1-3.8-2.2-6c0.4-4.1,1.9-7.8,4.6-10.9c7.6-1.6,14.9-4.5,22.5-6.5
		c5-4.9,10.4-3.1,16.6-2.2c10.8,1.5,21.9-7.2,17.5-20.1c-0.9-2.7-3.1-5.4-1.2-8.8c0.8-1.3-0.8-2.7-1.9-3.1c-3.4-1.3-2.7-3.4-2.1-6.2
		c3-14.1,3.3-28.3,0.2-42.5c-0.7-3.4-0.9-6.2,4.2-7.2c3.8-0.7,7.1-3.6,10.7-5.6c8.2,6,17.3,7.7,27.3,8.2c6.8,0.3,13.7,0.3,20.5,1.4
		c6.1,1.1,8.4,4.9,10.2,9.7c2.4,6.2,2.6,12.8,2.9,19.2c0.5,12.8-0.1,25.6,0.2,38.4c0.2,7.1-0.4,14.1-2.3,20.9
		c-2,7.2,0.3,12.5,5.7,17C1039.1,413.9,1039.4,414.7,1039.9,415.3z"/>
	<path class="st7" d="M820.9,481.4c-5.6,5.7-12.1,9.5-20,10.9c-4,0.7-5.7-1-4.9-5.1c1.9-10.2-2.8-17.3-10.8-22.8
		c-1.9-1.3-4.1-2.2-4.1-5C793.7,468,806.9,475.5,820.9,481.4z"/>
	<path class="st8" d="M747.1,326.2c2.1-0.4,3.1,1.1,4.4,2.1c2.1,1.6,4.2,3.2,7,3.4c1,0.1,1.9,0.8,2.6-0.2c0.9-1.2-0.4-1.7-0.9-2.5
		c-5.8-10.4-10.5-21.2-12.6-33.1c-3.7-20.4,0.3-38.9,12.7-55.6c4-5.4,8.9-9.9,13.7-14.5c2.5-2.3,2.9-4.4,1.6-7.3
		c-3.6-7.6-4.7-15.7-4.7-24.1c0.1-10.2,4.3-18.8,10.2-26.8c1.5-2,3.6-4.2,5.8-0.4c6.7,11.6,17.2,16.1,31.3,12.9
		c18-4,36.1-3.4,54.3-2c15.8,1.2,31,4.8,45.1,12.1c17,8.8,28.8,22.4,35.3,40.5c2,5.5,1.3,6.4-4.4,6.6c-1.4,0-3-0.6-4.2,0.7
		c0.3,1.5,1.4,1.3,2.3,1.2c12.6-2,25.3,3.7,31.3,14.1c7.3,12.8,6.8,27.5-2.2,37.5c-6.9,7.7-16.4,10.7-26.3,12.5
		c-3.5,0.6-4.7-1.2-4.5-4.6c0.8-11.6-3.6-19.1-14-24.3c-4.4-2.2-8.9-4.3-12.5-7.9c-5.7-5.7-8.7-12.2-6.5-20.5
		c0.2-0.6,0.2-1.3,0.3-1.9c0-0.1-0.2-0.3-0.7-0.9c-2.2,3-2.8,6.4-2.3,9.6c0.7,4.4,2.3,8.6,5.5,12c3,3.2,2.5,7.3,2,10.9
		c-2.1,16.9-7.3,32.5-20.2,44.6c-8.4,7.9-18.6,11.7-29.6,14c-8.3,1.7-8.3,1.4-4.6,9.1c4,8.3,6.7,16.6,4.7,26.2
		c-2.1,10.4-12.1,22.4-25.9,24.9c-22,3.9-42.6,0.4-62.2-10.1c-16.9-9.1-27.2-23.1-31.2-41.9C746.9,337.1,746.9,331.7,747.1,326.2z"
		/>
	<path class="st9" d="M938,385.2c-4.9,1.5-8.3,5.7-12.9,7.6c-5.6,2.2-11,4.7-17.2,4.7c-5.7,0-10.1,2.9-13.8,7.1
		c-5.5-0.5-9.8-2.9-13.2-7.2c-7.6-3.9-15.7-3.4-23.8-2.4c-1.5,0.2-2.9,0.3-5.1,0.3c2.9-2.6,5.4-4.8,7.8-7.1
		c12.5-12.6,13.6-25.4,6.8-40.7c-4-8.9-4.2-8.6,5.3-11.2c24.6-6.8,39.4-23.1,45.2-47.7c1-4.4,2-8.9,2.1-13.5c0-2.7,0.4-5.1,4-2.3
		c1.8,1.4,4,2.1,6.1,3.2c12.4,6.2,16.1,13.5,14,27.4c-0.3,2,0.2,2.7,2.4,3.2c3.2,0.8,7-4,9.3,0.8c1.3,2.9,1.7,6.3,2.1,9.5
		c2.2,15,1.1,29.7-4.2,44c-0.1,0.3-0.5,0.4-0.7,0.6c-1.2,1-2.5,0.5-3.8,0.5c-5.7-0.2-10.3,2.2-12.6,7.1c-2.2,4.6-2.2,9.6,1.6,13.9
		C937.7,383.6,938.2,384.3,938,385.2z"/>
	<path class="st10" d="M880.8,397.3c4.4,2.4,8.8,4.8,13.2,7.2c1,1.6,2.3,2.9,4,3.9c2.1,0.3,3,1.9,4,3.4c8.3,12.7,12,26.9,12.4,41.9
		c0.2,6.3-1.3,7.1-7.1,5c-17.3-6.3-15.8-8.8-15.7-22.3c0-3,0.4-6-0.6-8.9c-0.7-8.1-4.8-14.3-10.7-19.5c-9.3-8.1-22.9-5.2-28.1,5.9
		c-4.7,10-4,20.7-3.7,31.2c0.1,3.9,3.8,2.2,5.8,3.2c4.3,0.4,7,2.5,8.1,6.9c0.9,3.8,3.8,6.1,6.8,8.3c1.5,1.1,3.4,2.4,2.8,4.3
		c-0.7,2.3-3.1,1.3-4.8,1.4c-7,0.6-13.9-1.2-20.8-1.3c-1.5,0-2.9-0.6-4.3,0.3l0,0c-5.8-1.7-4.5-7-4.8-10.8
		c-1.6-20,3.4-38.7,12.4-56.5c1.5-2.9,3.9-4,6.7-4.5c7.2-1.3,14.4-1.4,21.6,0.6C878.8,397.4,879.8,397.3,880.8,397.3z"/>
	<path class="st11" d="M938,385.2c-5-3.6-6.9-11.2-4.1-16.6c3.4-6.5,10.7-9.4,18.1-7.1c0.4,2,2.5,1.9,3.7,3
		c5.1,4.7,7.2,12.6,4.4,17.8c-2.8,5.3-10,7.4-17.2,5.2C941.1,386.9,939.6,386.1,938,385.2z"/>
	<path class="st12" d="M769.1,478.5c-1-6,2.6-11.1,5.1-16.4c0.7-1.6,2.5-2.5,3.6-1.2c5,6.2,13.5,9.3,15.6,18.1c1.3,5.3-0.6,9.9-3,14
		c-1.3,2.2-4.9,1.9-7.6,1.7C772.9,493.9,768,487,769.1,478.5z"/>
	<path class="st13" d="M892.1,427.3c2,5.3,0.9,10.8,0.8,16.2c0,5.4,2.3,8.8,7,10.8c3.3,1.4,6.8,2.6,10.1,4.1c2.3,1,3.1,0.3,3-2
		c-0.2-3.5-0.5-6.9-0.7-10.3c-0.6-9.2-3.3-17.6-7.1-25.8c-2-4.3-4.9-7.8-7.2-11.8c0-7.3,0.8-8,8-9.2c6.7-1,13.3-2.2,19.6-5.1
		c1.3-0.6,3.1-2.6,4.5,0c-6.1,3-12.3,5.8-19.2,6.2c-0.9,0.1-1.8,0.6-2.7,1c-0.6,0.3,0.2,0-0.4,0.3c-7.1,2.9-6.8,2-3.8,9.6
		c2.6,5.8,5.5,11.5,7.8,17.3c3.6,9.1,5.6,18.7,6.3,28.4c0.2,2.4,0.8,4.2,2.9,5.2c1.9,0.9,3.1,2.4,4.3,4c-1,0.4-2,0.7-3,1.1
		c-6.8-3.8-14.7-4.8-21.6-8.3c-4-2-8-4-10.4-8c-0.8-1.4-2.1-2.7-1.1-4.5c2.4-2.8,1.1-6.2,1.5-9.4C891,433.9,889.5,430.3,892.1,427.3
		z"/>
	<path class="st14" d="M833.8,480.3c-1.6,1-2.9,2.3-3.9,3.9c-4.7,2.1-7.8,6.3-12.1,9c-7.2,4.6-14.9,5.6-23,5.1
		c-1.5-0.1-2.8-0.6-2.6-2.2c0.1-1.1,1.1-1.9,2.6-1.5c10.5,2.8,18.3-2.7,25.8-8.6c5.4-4.2,10.9-8.5,14.7-14.5c0.7-1.1,2-1.8,3-1
		c1.3,1,1,2.6,0,4C836.8,476.5,834.2,477.5,833.8,480.3z"/>
	<path d="M843.2,407.3c-0.3-3.1-0.8-6.1-2.3-8.9c0.8-0.2,1.6-0.4,2.4-0.6c1.4-0.4,3.2-1,4.1,0.4c0.8,1.2-0.5,2.5-1.1,3.6
		C845.3,403.6,844.2,405.5,843.2,407.3z"/>
	<path class="st15" d="M977.9,476.4c2.6,6.4,5.2,12.7,10.3,17.6c1.5,1.4,2,2.9,1.8,4.9c-0.4,2.4-2.3,1.2-3.6,1.5c-3,0.8-6,1.5-9,2.3
		c-2.5,0.6-3.9,2.2-5.5,4.3c-4.2,5.3-8,11.1-15.1,13.4c-2.4,0.8-2.4-1-2.5-1.4c-1.3-8.9-5.7-17-7.4-25.8c-1.1-5.4,1.1-8,6.4-6.6
		c5,1.3,10,2.1,15.1,1.8c1.9-0.1,4.5-0.2,4.5-2.7c0-2.9-2.7-2.4-4.6-2.3c-14.1,0.5-26.4-5-38.5-12c7.2,0,14.3,0,21.5,0
		c1.3,0,2.7,0.1,4-0.2c1.2-0.3,1.9-1.3,1.7-2.6c-0.3-1.7-1.3-0.7-2.2-0.7c-2.2-0.1-4.4-0.5-6.9-0.9c1.2-2.6,4.4-2.2,5.2-4.5
		c2.7-3,6.3-3.8,10-4.5c1.8,0.4,2,2,2.2,3.4c0.6,5.5,3.8,8.8,8.7,10.7c1.2,0.3,2.3,0.7,3.2,1.6C977.8,474.5,978.1,475.4,977.9,476.4
		z"/>
	<path class="st9" d="M888.9,447.4c6.4,10.5,17.4,12.8,27.9,15.9c2.4,0.7,4.9,0.9,5.4,4.1c0,2.3,0,4.6,0,7
		c-3.6,5.4-9.5,6.3-14.6,4.7c-5.5-1.7-11-1.3-16.4-2.4c-5.6-1.1-10-3.9-14.1-7.4c-6.8-3.5-13-7.5-15.5-15.3
		c-0.6-1.7-0.6-3.2,0.8-4.5c1.1-0.8,2.3-1.3,3.7-1.3c6.1,0,12.2-0.7,18.2-1.9C885.9,445.8,887.6,445.9,888.9,447.4z"/>
	<path class="st15" d="M953,444.5c-1-0.1-2-0.1-2.9-0.2c-5.4-0.7-5.3-0.9-3.2-6.1c1.8-4.4,3.8-6.8,9.1-7.1
		c6.4-0.4,10.8-4.9,13.1-10.9c2.3-6.1-1.2-11.1-7.8-11.2c-0.7,0-1.3,0.1-2,0.1c-1.3,0.1-2.8,0.2-3.6-1.1c-0.8-1.5-0.1-3,0.9-4.1
		c2.3-2.7,5.2-4.8,8.3-6.3c9.5-4.7,19.5-7.8,30.2-7.5c2.1,0,4.8-0.6,5.7,1.8c0.8,2.2-1.2,4.1-2.7,5.6c-5.7,5.7-10.5,12-14.6,18.9
		c-4.2,7.1-7,14.7-7.5,23c-1.3,3.6-2.4,7.3-6.6,8.6C963.9,447.8,958.5,446.2,953,444.5z"/>
	<path class="st16" d="M975.2,439.3c-0.4-9.1,3.5-16.7,7.7-24.3c4.5-8.3,11.4-14.7,17.1-22.1c0.3-0.4,0.8-0.7,0.1-1.5
		c-14.8-0.6-28.8,2.6-41.1,11.9c-1.6,1.2-3.1,2.9-2.6,4.3c0.7,2,2.4,0,3.7-0.2c3.7-0.6,7.1,0.6,9.4,3.2c2.6,2.9,2.7,6.9,1.1,10.5
		c-3,6.7-9.6,13-18.8,11.6c-1.5-0.2-1.7,0.3-1.8,1.4c-0.3,3.2-2.4,5.6-4,8.3c0.7,2,3.4,0,4.1,2c-2.7,0.5-5.3,1.8-8.1,1
		c1.8-4.1,0.8-8.5,1.1-12.7c0.8-11.8,4.5-22.5,13.2-30.8c7.5-7.1,16.8-10.7,27-12.5c6.8-1.3,13.5-0.7,20.3-0.9
		c1.4-0.1,2.8,0.1,3.3,1.5s-0.9,2-1.6,2.8c-7.6,7.5-14.6,15.5-20,24.8c-3.6,6.1-5.3,12.7-7.2,19.6c2.5-1.1,4.7-2,6.9-2.9
		c1.6,1.4,2-1,3.2-0.9c1.3-0.5,2.3,0,3.1,1c0.1,0.5,0,1-0.2,1.4c-1,1.1-2.2,2-3.6,2.5c-2.6,0.7-5.4,0.4-8,1.2
		C978.1,439.6,976.6,440.1,975.2,439.3z"/>
	<path class="st17" d="M963.1,458.4c-3.2,1.7-6.5,3.2-10,4c-0.3,0-0.7,0-1,0c-2.6-0.5-5.4,4.2-7.5,0.5c-2.4-4.3-3.5-9.4-2.3-14.4
		c0.4-1.8,2.9-2,4.7-2.1c3-0.2,6-0.1,8.9-0.2c4.7-1.1,8.9,0.5,13.2,2C970.3,453,969.2,454.7,963.1,458.4z"/>
	<path class="st16" d="M969.1,449.4c-4-2.5-8.6-2.6-13.1-3.1c-1-0.6-1.9-1.2-2.9-1.7c5.8-0.1,11.3,1.4,16.9,2.7
		c0.8,0.4,1.4,1,1.1,1.8C970.7,449.9,969.9,449.9,969.1,449.4z"/>
	<path class="st18" d="M977.9,476.4c-1-0.3-0.8-1.2-0.9-2c1.9-1.6,3.4-3.8,6.1-4.3c0.3,0.3,0.3,0.5,0.2,0.8s-0.2,0.4-0.3,0.4
		c0.1,1.7-1.4,2.6-2,4C979.9,475.7,978.9,476,977.9,476.4z"/>
	<path class="st9" d="M850,530.2c0-0.7,0.1-1.6-0.9-1.9c-1-2.3-0.9-4.6-0.1-7l-0.1,0.1c0.9-2.1,1.4-4.4,3.1-6.1
		c1.6-1,0.6-2.6,0.9-3.9c0.8-5.1,0.8-10.1,0-15.2c0.1-1.3,0.2-2.7-1.2-3.6c-5.9-3.8-7.1-10.2-9.3-16.1c-1.4-3.7-0.4-5.2,3.6-5.3
		c10.2-0.2,20.4,1.8,30.7,1c1-0.1,1.9,0.3,2.7,1c5,4.6,11.3,5.4,17.7,5.9c2.9,0.2,6.7-0.6,8.1,2.3c1.4,3-1.4,5.4-3.4,7.6
		c-0.8,1.5-2,2.8-3.1,4.1c-2.5,1.7-4,4.1-4.9,6.9c-2.6,5.2-3,10.7-1.9,16.4c-7.2,3.4-11.5,9-12.7,16.9c-0.2,1.4-0.4,3-2.3,3.3
		c-4.3-0.3-8.7,0.7-13-0.6l0.1,0.1c-1.6-1-3.5,0-5-0.8c-2-0.7-3.9-1.5-5.9-2.2C851.7,532.6,850.7,531.6,850,530.2z"/>
	<path class="st11" d="M878,536.2c-0.4-7.8,3.3-13.6,9-18.5c1.6-1.4,3.3-1.2,5-1.5c4.2-1.9,8.1-0.7,11.9,1.3
		c2.6,1.2,3.5,3.9,5.2,5.9c0.4,2,0.8,4-0.3,5.9c-3,3.2-7.1,4.4-10.9,6.2c-1.6,0.8-3.5-0.2-5.1,0.8l0.1-0.1
		C888,537.2,883,537.2,878,536.2z"/>
	<path class="st5" d="M938.9,482.3c-9.9,1-19.9,2-29.8,3c1.8-3.7,6.1-2.9,8.9-4.9c1-0.7,2.8-0.9,3.3-1.8c2.4-5.1,5.2-3.1,8.5-1
		C932.6,479.4,935.8,480.7,938.9,482.3z"/>
	<path class="st19" d="M862.1,450.4c0.1,4,1.2,7.5,4.6,10.2c3.5,2.8,6.9,5.8,10.4,8.7c-6.6,2.4-13.3,1-20,0.9
		c-5.1-0.1-10.1-1.1-15.1-1.8c4.1-2.1,8.6-1.4,12.6-0.7c5.5,0.9,10.9,0.3,16.7,0.7c-0.4-2.3-1.9-3.1-3.4-4.1c-2.7-2-5.7-4-6.4-7.3
		c-0.9-4.5-3.3-6.8-7.5-7.5C857,447.2,859.7,447.6,862.1,450.4z"/>
	<path class="st0" d="M904,517.5c-3.8-1.6-7.9-0.9-11.9-1.3c-2.5-5.7-1.3-11,1.9-16c-0.7,3-1.5,6-1.9,9c-0.5,3.3,0.6,5.4,4.5,5.1
		C899.5,514.2,902,515.3,904,517.5z"/>
	<path class="st0" d="M878,536.2c5,0,10,0,15,0c-1,1.5-2.6,1.1-4.1,1.1c-6.9,0-13.9,0-20.8,0c-1.4,0-3,0.4-4.1-1.1
		C868.7,536.2,873.4,536.2,878,536.2z"/>
	<path class="st0" d="M853,496.2c1.6,5.1,1.6,10.1,0,15.2C853,506.4,853,501.3,853,496.2z"/>
	<path class="st0" d="M852.2,515.4c-0.5,2.3-1.6,4.3-3.1,6.1C849,518.9,849.6,516.6,852.2,515.4z"/>
	<path class="st0" d="M849.1,521.3c0,2.3,0,4.6,0.1,7C847.3,526,847.4,523.7,849.1,521.3z"/>
	<path class="st0" d="M898.8,493.3c0.2-2,1.7-3.1,3.1-4.1C901.9,491.3,900.7,492.5,898.8,493.3z"/>
	<path class="st0" d="M908.9,529.3c0.1-2,0.2-4,0.3-5.9C910.3,525.4,910.7,527.4,908.9,529.3z"/>
	<path class="st0" d="M850,530.2c1,1,2.1,2.1,3.1,3.1C851.1,533.3,850.1,532.2,850,530.2z"/>
	<path class="st0" d="M859.1,535.5c1.7,0.1,3.6-1,5,0.8C862.4,536.1,860.6,536.9,859.1,535.5z"/>
	<path class="st0" d="M892.9,536.3c1.5-1.8,3.4-0.7,5.1-0.8C896.4,536.9,894.6,536.1,892.9,536.3z"/>
	<path class="st5" d="M1000,442.5c4.2,0.7,6.7,4.6,10.9,5.5c3,0.6,5.9,1.7,9,1.4c-5.5,5.3-12.2,8.7-19,11.9
		c-5.2,2.5-9.9,6.2-15.8,6.9c-2.2-2.9-1.6-6.6-2.6-9.8c-0.6-1.9,0.9-3.2,2.7-3.5c6.3-1.2,10-5.2,12.6-10.7
		C998.2,443.3,998.9,442.6,1000,442.5z"/>
	<path class="st20" d="M1000,442.5c-1.3,2.4-2.4,5-3.9,7.2c-2.5,3.6-6.2,5.7-10.6,6.5c-2,0.3-3,0.5-1.7,3c1.4,2.8,1.4,6,1.2,9.1
		c-0.7,1-1.3,2.1-2,3.1c0-0.4,0-0.7,0-1.1c-2.6-3.8-1.3-8.3-2.3-12.4c0-1.1,0.1-2.2,0.6-3.2c0.1-0.1,0.2-0.4,0.3-0.4
		c8.4-2,13.2-8.1,17.2-15.1c0.9-0.2,1.4,0.1,1.2,1.1C1000,441.1,1000,441.8,1000,442.5z"/>
	<path class="st11" d="M1016,403.2c6.5,9.7,15.9,13.8,27.3,14.2c9.7,0.3,16.5,5.6,21.8,13.2c1,1.5,1.2,2.7,0.1,4.4
		c-5.6,8.6-10.9,17.4-16.4,26.1c-1.1,1.8-2.4,1.4-3.5-0.1c-6.3-9-14.6-13.7-25.8-13.8c-6.1-0.1-11.9-2.4-16.5-6.8
		c-2.3-2.2-3.6-5.3-6.3-7.1c-1.2-2.4-0.3-4.6,1-6.5c4.6-6.8,8.7-14,13.5-20.7C1012.2,404.4,1013.1,402,1016,403.2z"/>
	<path class="st21" d="M991,434.5c-1-0.4-1.9-0.8-2.9-1.2c2.7-6.7,7.5-11.9,11.3-17.9c3.6-5.6,7.1-11.2,10.8-16.8
		c1.3-1.9,2.2-5.6,5.1-3.8c2.5,1.6-2,3.2-1.4,5.4c-0.2,1.7-1,3-1.9,4.4c-5.6,8.9-11.6,17.6-17.2,26.5
		C994,432.7,993.3,434.6,991,434.5z"/>
	<path class="st22" d="M991,434.5c7.6-11.4,15.3-22.8,22.9-34.3c0.5,1.1,2.1,1.4,2.1,3c-1.6,0.1-2.3,1.1-3.1,2.5
		c-4.6,7.3-9.5,14.4-14.3,21.6c-1.2,1.8-1.9,3.8-1.4,6c-0.6,5-3.6,2.8-6.1,2C991,435.1,991,434.8,991,434.5z"/>
	<path class="st23" d="M991,435.4c2.1-0.6,4.8,0.9,6.1-2c4.9-0.1,4.4,4.3,5.7,7.1c-0.9,0-1.9,0-2.8,0c-0.3-0.3-0.6-0.7-0.9-1
		c-3.7-0.7-7.7,0.4-11.1-2.1C988.6,436,989.6,435.4,991,435.4z"/>
	<path d="M903.8,411.3c-2-1.9-4.6-4-3.5-7c1.3-3.3,4.7-3,7.7-2.9C906.3,404.5,904.8,407.8,903.8,411.3z"/>
	<path class="st24" d="M870.8,236.7c5,1.4,10.7,0,15.5,3.7c5.9,4.5,6,7.9,0.1,12.1c-9,6.4-18.1,12.8-25.8,20.8
		c-2.5,2.6-4.5,3-6.6-0.4c-5-7.9-7.3-16-2.3-24.7C855.9,240.9,862.4,237.2,870.8,236.7z"/>
	<path class="st25" d="M941.7,311.1c5.2,0.7,8.6,2.1,11.7,4.3c1.4,0.9,1.8,2,0.8,3.7c-1.2,2-2.2,1.4-3.5,0.4
		c-3.7-2.7-7.6-4.5-12.3-2.3c-0.8,0.4-2,0.3-2.2-1.1s-0.2-3,1.4-3.4C939.3,312.3,941,310.9,941.7,311.1z"/>
	<path class="st26" d="M947,346c0.5-1.7-1.3-5.6,2.5-5.3c2.9,0.2,2.4,3.6,2.5,6c0,0.8,0.2,1.7-0.1,2.4c-0.5,1.2-0.5,3.2-2.4,3.2
		c-2.2,0-2.5-1.7-2.5-3.5C947,348,947,347.2,947,346z"/>
	<path class="st27" d="M862.1,450.4c-2.7-0.8-5.4-1.3-8.2-1c-6.9-0.1-6.9-0.1-6.9-6.9c-0.1-9.1-0.1-18.2,3-27
		c5.3-15.2,18.6-16.2,28.9-9.8c7.7,4.7,12.8,12,13.1,21.7c0,5.1-0.1,10.3,0,15.4c0,2.3-0.2,4.4-3.1,4.7
		C880,448.4,871,449.4,862.1,450.4z"/>
	<path class="st28" d="M982,457.4c1.1,4.2,1.1,8.6,1,12.9c-1.7,1.9-2.8,4.5-6,4.1c-1-0.4-2-0.9-3-1.3c-1.4-1.9-3.3-3.2-4.9-4.9
		c-2.6-2.6-3.8-5.8-3.1-9.5c1.2-6.4,5.8-8.4,11.4-5c0.9,0.5,1.7,1,2.6,1.4C980.9,455.7,981.4,456.6,982,457.4z"/>
	<path class="st29" d="M980,456.2c-1.1-0.3-2.3-0.4-3.2-1c-2.3-1.5-4.3-4.6-7.3-0.9c-2.7,3.4-3.5,6.8-1.3,10.8c1.1,2,2.9,3,4.5,4.4
		c1,0.9,2.6,1.8,1.4,3.6c-4.5-0.5-9.6-5.8-10-10.3c-0.2-1.5,0.9-3.3-0.9-4.5c-0.7-2.7,2.3-2.2,3.2-3.5c1.2-1.7,3.1-3,2.9-5.5
		c1.9-0.1,1.2-1.1,0.8-2.1c2.5-2.1,4-4.9,5.2-7.9c1.2-0.8,2.5-1.1,3.9-1c1.4,2.6-0.8,4-2.2,5.3c-2.5,2.5-3.3,4.4,0.6,6.3
		c1.3,0.6,2.4,1.7,3.4,2.8C981.9,454.2,980.7,455.2,980,456.2z"/>
	<path class="st17" d="M981,453.5c-3-0.6-4.7-3.4-7.6-4.4c-2.7-0.9-0.3-2.7,0.4-3.8c1.5-2.5,4.8-3.6,5.3-6.9c2.8-1.8,6-0.6,8.9-1.1
		c3.7,0.9,8-1.8,11.1,2.1c-3.7,10.3-8.6,14.6-17,14.9C981.6,454.2,981.2,453.9,981,453.5z"/>
	<path class="st30" d="M965,417.1c0,1.1,0.1,2.4-1.6,2.2c-1.3-0.1-2-0.8-2.3-2.1c-0.4-1.9,1.3-2.3,2.3-2.4
		C964.6,414.6,965,415.9,965,417.1z"/>
	<path class="st31" d="M945.9,438.3c-1.4-0.4-0.9-1.6-0.9-2.4c0-1.3,0.7-2.4,2-2.3c1.4,0.1,0.9,1.5,0.9,2.3
		C948,437.2,947.2,438,945.9,438.3z"/>
	<path class="st32" d="M981,453.5c0.4,0.3,0.7,0.5,1.1,0.8c0,1,0,2.1-0.1,3.1c-0.7-0.4-1.3-0.8-2-1.2
		C978.8,454.8,980.4,454.3,981,453.5z"/>
	<path class="st33" d="M1017,436.4c0-0.7,0-1.4,0-2.1c1.1-1.5,0.5-3.3,1-4.9c0.2-1.4,0.4-2.8,0.9-4.1c1-0.4,1.7-1.1,2.1-2.1
		c0.9-0.5,1.8-0.8,2.8-0.4c1.3,1.6,4.3,1.7,4,4.6c-0.1,0.5-0.2,0.9-0.4,1.4c-1.3,2.5-4.6,4.2-3.1,7.9c-0.5,2,1.2,5.5-3.3,4.6
		l0.1,0.1C1019.8,439.7,1018.8,437.7,1017,436.4z"/>
	<path class="st34" d="M1026.1,443.4c-0.7,0-1.4,0-2.2-0.1c-0.6-2.9,0.4-5.7,0.2-8.6c0.5-2.3,2-4.3,3-6.4l-0.1,0.1
		c0.9-0.9,1.8-1.7,3.2-1.3c2.5,1.8,6.2,3.1,3.4,7.3c-5.2,0.5-3.3,5.4-5.1,8.1C1027.9,443.2,1027.2,443.8,1026.1,443.4z"/>
	<path class="st35" d="M1037,420.5c4.3,1.5,8,6.6,7.1,9.9c-1.1,0.9-2.2,2-3.9,1.3c-0.4-0.3-0.7-0.6-0.9-1c-0.9-1.7-0.1-4-1.6-5.5
		c-0.4-0.5-0.8-1-1.2-1.6c-0.3-0.6-0.4-1.3-0.3-2C1036.4,421.2,1036.6,420.8,1037,420.5z"/>
	<path class="st36" d="M1029.9,427.4c-1,0.3-1.9,0.7-2.9,1c1.1-3-2.5-3.1-3-5c0.4-0.4,0.8-0.4,1.2-0.1c2.4,0.5,4.6-0.3,6.9-0.9
		c0.1,0.2,0.2,0.4,0.3,0.6c0.1,1.7-0.1,3.3-1.2,4.6C1030.7,427.8,1030.2,427.7,1029.9,427.4z"/>
	<path class="st37" d="M1025.1,434.4c-0.4,3,0.4,6.1-1.2,8.9c-1.6,0.2-2.5-0.6-3-2c4.1-0.7,1-4.2,2.2-6
		C1023.5,434.4,1024.1,433.8,1025.1,434.4z"/>
	<path class="st38" d="M1032,422.3c-0.5-1.9-2.4-1.7-3.9-2.5c1.9-1.9,3.8-2.2,5.8-0.5c0.6,0.7,0.8,1.4,0.6,2.3
		C1033.9,422.7,1033.1,423.3,1032,422.3L1032,422.3z"/>
	<path class="st39" d="M1040.1,441.5c-1.9,2.2-4.3,3.2-7.1,3.7c-0.2-0.3-0.3-0.5-0.3-0.8s0.1-0.4,0.1-0.4c1-1.6,2.9-2.1,4.1-3.4
		c0.4-0.3,0.8-0.5,1.2-0.7c0.7-0.2,1.4-0.1,2,0.4C1040.4,440.7,1040.4,441.1,1040.1,441.5z"/>
	<path class="st40" d="M1018.8,430.3c0.3,1-1.8,1.9-0.2,2.9c0.9,0.5,1.9,1,0.9,2c-0.8,0.8-1.6-0.6-2.5-0.8c0.3-2.4-0.9-4.9,0.9-7.1
		C1019,428,1018.1,429.4,1018.8,430.3z"/>
	<path class="st41" d="M1040,431.1c1.4-0.2,2.8-0.4,4.1-0.7c-0.6,2,0.9,4.3-1.1,6c-0.9-0.5-1.2-1.5-1.9-2.2
		c-0.7-0.8-1.4-1.5-1.4-2.6C1039.8,431.4,1039.9,431.2,1040,431.1z"/>
	<path class="st42" d="M1033,444.6c0,0.2,0,0.4,0,0.6c-2.3-0.5-5.5,2.2-7-1.8c0.6-0.4,1.2-0.7,1.8-1.1c0.4-0.3,0.8-0.4,1.3-0.3
		C1030.5,442.8,1032.2,443,1033,444.6z"/>
	<path class="st43" d="M1017,436.4c4.2-0.6,3,3,4,5C1019.3,440.1,1017.1,439.1,1017,436.4z"/>
	<path class="st44" d="M1025.1,423.3c-0.4,0-0.8,0.1-1.2,0.1c-1,0-1.9-0.1-2.9-0.1c0.8-1,0.6-3,2.6-2.9
		C1025.7,420.5,1024.8,422.2,1025.1,423.3z"/>
	<path class="st45" d="M1041.9,433.4c1.4,0.6,1.1,1.9,1.1,3c-0.4,2-1,3.9-2.9,5.1c0-0.4-0.1-0.9-0.1-1.3
		C1039.5,437.6,1040.4,435.4,1041.9,433.4z"/>
	<path class="st46" d="M1018.8,430.3c-1.1-0.8-0.7-2-0.9-3.1c0.2-0.7-0.2-1.7,1-1.8C1018.9,427,1018.8,428.7,1018.8,430.3z"/>
	<path class="st47" d="M1034,421.4c0-0.7,0-1.4,0-2.2c1.2-0.2,2,0.7,3,1.2c0,0.3,0,0.6,0,1C1036,422.2,1035,422.3,1034,421.4z"/>
	<path class="st48" d="M876.1,255.5c-5.1,5.1-11.3,9-16.2,14.3c-1.5,1.7-3.6,2.4-5.2-1.1c-3.9-8.4-4.4-17.9,4.2-24.8
		c5.4-4.3,17.7-6.8,24.8-1.4c1.9,1.4,4.3,2.9,2.9,5.4c-1.3,2.5-4.3,3-7,2.3c-3.2-0.9-6.1-2.6-9.7-1.9c-4.8,0.9-5.3,0.9-10.2,5.3
		c6.4-2.2,11.9-7,18.3-2.2C878.2,253.1,877.1,254.3,876.1,255.5z"/>
	<path class="st49" d="M876.1,255.5c-0.1-1.7,0.6-3.1,1.9-4.1C880.2,254.1,878.3,254.9,876.1,255.5z"/>
	<path class="st10" d="M849,437.3c-0.1-7.2,1-14.2,3.2-21c4.9-15.6,19.1-13.4,27.6-7.6c6,4.1,8.1,10.8,9.8,17.3
		c1.3,4.9,1.8,10.1,1.4,15.3c-0.1,2.3-0.7,3.5-3.2,4.2c-11.4,2.9-22.9,2.6-34.4,1.7c-3-0.2-4.8-2.1-4.4-5.5
		C849.1,440.3,849,438.8,849,437.3z"/>
	<path class="st50" d="M1025.1,434.4c-0.7,0.3-1.3,0.6-2,0.9c-2.5-4.5,2.9-4.5,3.9-7C1027,430.5,1026.3,432.5,1025.1,434.4z"/>
	<path class="st51" d="M1029.1,442.4c-0.4,0-0.8-0.1-1.3-0.1c-0.1-2.5,2.7-5.2-1.6-7c2.6-1.7,4.8,0.3,6.6-1c1.5-0.6,2,0.7,2.7,1.5
		c0.7,1.5,2.8,2.3,2.4,4.5c0,0.4-0.1,0.8-0.1,1.2c-0.1,0.1-0.3,0.2-0.4,0.2c-2,0.6-3.3-0.1-4.2-1.9
		C1032.4,441.5,1031.3,442.8,1029.1,442.4z"/>
	<path class="st52" d="M1034.8,436.4c-0.6-0.7-1.3-1.4-1.9-2.1c3.2-4.1-2.8-4.2-3-6.9c0.4,0,0.8-0.1,1.2-0.1c2.1-1.4,4-1,5.7,0.8
		c0.6,1.1,1,2.2,1,3.5C1037.3,433.5,1036.8,435.4,1034.8,436.4z"/>
	<path class="st53" d="M1036,428.3c-1.6-0.3-3.3-0.6-4.9-0.9c-0.3-1.8-0.1-3.5,0.9-5c0.8,0,1.7,0.2,2.1-0.9c1,0,2,0,3,0
		c0.1,0.6,0.1,1.2,0.2,1.9c0.6,1.6,1.4,3.1,0.3,4.8C1037,428.6,1036.5,428.7,1036,428.3z"/>
	<path class="st54" d="M1038,424.5c4.2,0.8,1,4,2,5.9c-2,1-2.5,0-2.5-1.8C1037.7,427.2,1037.1,425.7,1038,424.5z"/>
	<path class="st55" d="M1037.9,428.4c0.1,1.3,0.4,2.4,2.1,1.9c0,0.3,0,0.5,0,0.8v0.4c-1,0.9-1.9,0.9-2.9,0.1c-0.3-1.1-0.7-2.1-1-3.2
		c0.3,0,0.6,0,0.8,0C1037.2,427.8,1037.6,427.9,1037.9,428.4z"/>
	<path class="st56" d="M1037.9,428.4c-0.3,0-0.7-0.1-1-0.1c0.1-1.6,0.2-3.3,0.3-4.9c0.3,0.4,0.6,0.7,0.9,1.1
		C1038,425.8,1037.9,427.1,1037.9,428.4z"/>
	<path class="st57" d="M1037,431.5c1,0,2,0,2.9-0.1c0.6,0.7,1.3,1.3,1.9,2c0.7,2.6-0.7,4.7-1.9,6.8c-0.7,0-1.3,0-2,0.1
		c-0.4-1.8-3.4-1.5-3.2-3.9C1035.6,434.7,1036.3,433.1,1037,431.5z"/>
	<path class="st58" d="M1029.1,442.4c0.7-1.5,4.8-1.2,2.1-4.3c-0.2-0.2,0.1-1.1,0.4-1.2c1-0.5,1.7,0.3,1.9,1
		c0.5,2.5,1.8,3.8,4.4,3.7c-1.6,1-3.3,2-4.9,3.1C1031.8,443.7,1029,445.8,1029.1,442.4z"/>
</g>
</svg>
