<?xml version="1.0" encoding="utf-8"?>
<!-- Generator: Adobe Illustrator 26.0.1, SVG Export Plug-In . SVG Version: 6.00 Build 0)  -->
<svg version="1.1" id="레이어_1" xmlns="http://www.w3.org/2000/svg" xmlns:xlink="http://www.w3.org/1999/xlink" x="0px"
	 y="0px" viewBox="0 0 1811.6 601.4" style="enable-background:new 0 0 1811.6 601.4;" xml:space="preserve">
<style type="text/css">
	.st0{fill:#FFFFFF;}
	.st1{fill:#232020;}
	.st2{fill:#DD5B39;}
	.st3{fill:#EAB858;}
	.st4{fill:#3B6A9C;}
	.st5{fill:#E9B46F;}
</style>
<g>
	<g>
		<g>
			<g>
				<g>
					<rect x="879.7" y="208.3" class="st0" width="111" height="292.7"/>
					<path class="st1" d="M993.2,503.5H877.8V205.8h115.3v297.7H993.2z M882.2,499.1h106V210.8h-106V499.1z"/>
				</g>
				<rect x="894.6" y="220.7" class="st2" width="11.8" height="11.8"/>
				<rect x="916.9" y="220.7" class="st2" width="11.8" height="11.8"/>
				<rect x="941.1" y="220.7" class="st2" width="11.8" height="11.8"/>
				<rect x="964" y="220.7" class="st2" width="11.8" height="11.8"/>
				<rect x="894.6" y="243.7" class="st2" width="11.8" height="11.8"/>
				<rect x="916.9" y="243.7" class="st2" width="11.8" height="11.8"/>
				<rect x="941.1" y="243.7" class="st2" width="11.8" height="11.8"/>
				<rect x="964" y="243.7" class="st2" width="11.8" height="11.8"/>
				<rect x="894.6" y="267.2" class="st2" width="11.8" height="11.8"/>
				<rect x="916.9" y="267.2" class="st2" width="11.8" height="11.8"/>
				<rect x="941.1" y="267.2" class="st2" width="11.8" height="11.8"/>
				<rect x="964" y="267.2" class="st2" width="11.8" height="11.8"/>
				<rect x="894.6" y="290.2" class="st2" width="11.8" height="11.8"/>
				<rect x="916.9" y="290.2" class="st2" width="11.8" height="11.8"/>
				<rect x="941.1" y="290.2" class="st2" width="11.8" height="11.8"/>
				<rect x="964" y="290.2" class="st2" width="11.8" height="11.8"/>
				<rect x="894.6" y="315.6" class="st2" width="11.8" height="11.8"/>
				<rect x="916.9" y="315.6" class="st2" width="11.8" height="11.8"/>
				<rect x="941.1" y="315.6" class="st2" width="11.8" height="11.8"/>
				<rect x="964" y="315.6" class="st2" width="11.8" height="11.8"/>
				<rect x="894.6" y="343.5" class="st2" width="11.8" height="11.8"/>
				<rect x="916.9" y="343.5" class="st2" width="11.8" height="11.8"/>
				<rect x="894.6" y="368.9" class="st2" width="11.8" height="11.8"/>
				<rect x="916.9" y="368.9" class="st2" width="11.8" height="11.8"/>
				<rect x="894.6" y="398.7" class="st2" width="11.8" height="11.8"/>
				<rect x="916.9" y="398.7" class="st2" width="11.8" height="11.8"/>
				<rect x="894.6" y="429.1" class="st2" width="11.8" height="11.8"/>
				<rect x="916.9" y="429.1" class="st2" width="11.8" height="11.8"/>
				<rect x="941.1" y="343.5" class="st2" width="11.8" height="11.8"/>
				<rect x="964" y="343.5" class="st2" width="11.8" height="11.8"/>
				<g>
					<rect x="1025.4" y="160" class="st0" width="111" height="341"/>
					<path class="st1" d="M1138.2,503.5h-115.3V158.1h115.3V503.5z M1027.9,499.1h106V162.4h-106V499.1z"/>
				</g>
				<rect x="1040.9" y="354.7" class="st2" width="11.8" height="11.8"/>
				<rect x="1063.2" y="354.7" class="st2" width="11.8" height="11.8"/>
				<rect x="1087.4" y="354.7" class="st2" width="11.8" height="11.8"/>
				<rect x="1110.3" y="354.7" class="st2" width="11.8" height="11.8"/>
				<rect x="1063.2" y="398.7" class="st2" width="11.8" height="11.8"/>
				<rect x="1087.4" y="398.7" class="st2" width="11.8" height="11.8"/>
				<rect x="1110.3" y="398.7" class="st2" width="11.8" height="11.8"/>
				<rect x="1040.9" y="378.2" class="st2" width="11.8" height="11.8"/>
				<rect x="1063.2" y="378.2" class="st2" width="11.8" height="11.8"/>
				<rect x="1087.4" y="378.2" class="st2" width="11.8" height="11.8"/>
				<rect x="1110.3" y="378.2" class="st2" width="11.8" height="11.8"/>
				<g>
					<rect x="1040.9" y="134.5" class="st0" width="79.4" height="23.6"/>
					<path class="st1" d="M1122.7,160.6h-84.3v-27.9h84.3V160.6z M1043.4,155.6h75V137h-75V155.6z"/>
				</g>
				<rect x="1040.9" y="174.8" class="st2" width="11.8" height="11.8"/>
				<rect x="1063.2" y="174.8" class="st2" width="11.8" height="11.8"/>
				<rect x="1087.4" y="174.8" class="st2" width="11.8" height="11.8"/>
				<rect x="1110.3" y="174.8" class="st2" width="11.8" height="11.8"/>
				<rect x="1040.9" y="197.8" class="st2" width="11.8" height="11.8"/>
				<rect x="1063.2" y="197.8" class="st2" width="11.8" height="11.8"/>
				<rect x="1087.4" y="197.8" class="st2" width="11.8" height="11.8"/>
				<rect x="1110.3" y="197.8" class="st2" width="11.8" height="11.8"/>
				<rect x="1040.9" y="222" class="st2" width="11.8" height="11.8"/>
				<rect x="1063.2" y="222" class="st2" width="11.8" height="11.8"/>
				<rect x="1087.4" y="222" class="st2" width="11.8" height="11.8"/>
				<rect x="1110.3" y="222" class="st2" width="11.8" height="11.8"/>
				<rect x="1040.9" y="245.5" class="st2" width="11.8" height="11.8"/>
				<rect x="1063.2" y="245.5" class="st2" width="11.8" height="11.8"/>
				<rect x="1087.4" y="245.5" class="st2" width="11.8" height="11.8"/>
				<rect x="1110.3" y="245.5" class="st2" width="11.8" height="11.8"/>
				<rect x="1040.9" y="267.2" class="st2" width="11.8" height="11.8"/>
				<rect x="1063.2" y="267.2" class="st2" width="11.8" height="11.8"/>
				<rect x="1087.4" y="267.2" class="st2" width="11.8" height="11.8"/>
				<rect x="1110.3" y="267.2" class="st2" width="11.8" height="11.8"/>
				<rect x="1040.9" y="290.2" class="st2" width="11.8" height="11.8"/>
				<rect x="1063.2" y="290.2" class="st2" width="11.8" height="11.8"/>
				<rect x="1087.4" y="290.2" class="st2" width="11.8" height="11.8"/>
				<rect x="1110.3" y="290.2" class="st2" width="11.8" height="11.8"/>
				<rect x="1040.9" y="310" class="st2" width="11.8" height="11.8"/>
				<rect x="1063.2" y="310" class="st2" width="11.8" height="11.8"/>
				<rect x="1087.4" y="310" class="st2" width="11.8" height="11.8"/>
				<rect x="1110.3" y="310" class="st2" width="11.8" height="11.8"/>
				<rect x="1040.9" y="333" class="st2" width="11.8" height="11.8"/>
				<rect x="1063.2" y="333" class="st2" width="11.8" height="11.8"/>
				<rect x="1087.4" y="333" class="st2" width="11.8" height="11.8"/>
				<rect x="1110.3" y="333" class="st2" width="11.8" height="11.8"/>
				<rect x="1063.2" y="448.3" class="st2" width="11.8" height="11.8"/>
				<rect x="1087.4" y="448.3" class="st2" width="11.8" height="11.8"/>
				<rect x="1110.3" y="448.3" class="st2" width="11.8" height="11.8"/>
				<rect x="1063.2" y="426.6" class="st2" width="11.8" height="11.8"/>
				<rect x="1087.4" y="426.6" class="st2" width="11.8" height="11.8"/>
				<rect x="1110.3" y="426.6" class="st2" width="11.8" height="11.8"/>
				<g>
					<rect x="1068.8" y="111.6" class="st0" width="23.6" height="23.6"/>
					<path class="st1" d="M1094.2,137h-27.9v-27.9h27.9V137z M1071.3,132.7h18.6v-18.6h-18.6V132.7z"/>
				</g>
				<g>
					<polygon class="st0" points="1055.8,501.6 945.4,501.6 945.4,292.7 1050.2,339.2 					"/>
					<path class="st1" d="M1058.3,503.5H942.9V289.6l109.8,48.4L1058.3,503.5z M947.3,499.1h106l-5.6-158.1l-100.5-44.6L947.3,499.1
						L947.3,499.1z"/>
				</g>
				<g>
					<path class="st0" d="M1075,502.2c1.2-1.9,3.7-8.1,2.5-14.9c-1.9-8.7-11.2-17.4-19.8-15.5c-4.3,0.6-9.3,4.3-11.2,9.3
						c-1.2,3.1-0.6,5.6-2.5,5.6c-1.9,0.6-3.7-3.7-8.1-4.3c-3.7-0.6-5.6,3.1-8.1,1.9s-1.9-4.3-3.1-8.1c-2.5-6.8-9.9-12.4-17.4-13
						c-8.1,0-16.7,6.8-19.8,17.4l0.6-0.6c-1.2-1.2-3.7-5.6-8.7-6.2c-4.3-0.6-8.1,1.2-11.2,3.1c-3.7,1.9-6.2,4.3-8.1,6.2l0.6-2.5
						c-3.1-10.5-11.8-17.4-19.8-17.4c-7.4,0-14.9,6.2-17.4,13c-1.2,3.7-0.6,7.4-3.1,8.1c-2.5,1.2-4.3-2.5-8.1-1.9
						c-4.3,0.6-5.6,5-8.1,4.3c-1.2-0.6-1.2-3.1-2.5-5.6c-1.9-5-6.8-8.1-11.2-9.3c-8.7-1.9-18,6.8-19.8,15.5
						c-1.9,6.8,1.2,13,2.5,14.9"/>
					<path class="st1" d="M874.7,504.1c-0.6,0-1.9-0.6-1.9-1.2c-1.9-3.1-4.3-9.3-2.5-16.7c2.5-9.9,12.4-19.2,22.9-17.4
						c4.3,0.6,10.5,5,12.4,10.5c0.6,1.2,0.6,2.5,0.6,3.1v0.6c0,0,0,0,0.6-0.6c1.2-1.2,3.1-3.1,6.2-3.1c2.5-0.6,5,0.6,6.2,1.9
						c0.6,0,1.2,0.6,1.2,0.6c0.6,0,0.6-1.9,0.6-3.1s0.6-2.5,1.2-3.7c2.5-8.1,11.2-14.3,19.2-14.3c8.7-0.6,17.4,6.2,21.1,16.7
						c1.2-1.2,3.1-1.9,4.3-3.1c3.7-1.9,8.1-4.3,13-3.1c3.1,0.6,5.6,1.9,7.4,3.7c4.3-8.7,11.8-14.3,19.8-13.6
						c8.1,0,16.7,6.8,19.2,14.3c0.6,1.2,0.6,3.1,1.2,3.7c0,1.2,0.6,2.5,0.6,3.1l1.2-0.6c1.2-0.6,3.7-1.9,6.2-1.9
						c3.1,0.6,5,1.9,6.2,3.1c0,0,0,0,0.6,0.6V483c0-0.6,0.6-1.9,0.6-3.1c2.5-5.6,8.1-9.9,12.4-10.5c10.5-1.9,20.5,7.4,22.9,17.4
						c1.9,7.4-0.6,13.6-2.5,16.7c-0.6,1.2-1.9,1.2-3.1,0.6s-1.2-1.9-0.6-3.1c1.2-2.5,3.7-7.4,1.9-13c-1.9-7.4-9.9-15.5-17.4-13.6
						c-3.1,0.6-7.4,3.7-9.3,8.1c-0.6,0.6-0.6,1.9-0.6,2.5c-0.6,1.9-0.6,3.7-3.1,4.3s-3.7-0.6-5-1.9c-1.2-1.2-1.9-1.9-3.7-1.9
						c-1.2,0-2.5,0.6-3.7,1.2s-3.1,1.9-5.6,0.6c-2.5-1.2-3.1-3.7-3.7-6.2c0-1.2-0.6-2.5-0.6-3.1c-1.9-6.2-8.7-11.2-14.9-11.2
						c-6.8,0-13.6,5-16.7,13c0.6,0.6,0,1.9-0.6,2.5l-0.6,0.6c-0.6,0.6-1.9,0.6-2.5,0s-1.2-1.9-1.2-2.5c0,0,0,0,0-0.6
						c-1.2-1.2-3.1-3.1-6.2-3.7c-3.7-0.6-6.8,1.2-9.9,3.1c-2.5,1.2-5,3.7-7.4,5.6c-0.6,0.6-1.9,1.2-3.1,0.6
						c-0.6-0.6-1.2-1.9-1.2-2.5l0.6-1.9c-3.1-8.7-9.9-14.9-17.4-14.9c-6.2,0-13,5.6-14.9,11.2c-0.6,1.2-0.6,2.5-0.6,3.1
						c-0.6,2.5-1.2,5-3.7,6.2c-2.5,0.6-4.3,0-5.6-0.6c-1.2-0.6-2.5-1.2-3.7-1.2s-2.5,1.2-3.7,1.9c-1.2,1.2-3.1,2.5-5,1.9
						s-2.5-3.1-3.1-4.3c0-0.6-0.6-1.9-0.6-2.5c-1.9-3.7-6.2-6.8-9.3-8.1c-7.4-1.2-15.5,6.2-17.4,13.6c-1.2,5.6,0.6,10.5,1.9,13
						c0.6,1.2,0,2.5-0.6,3.1C875.3,504.1,875.3,504.1,874.7,504.1z"/>
				</g>
				<g>
					<rect x="874.7" y="499.8" class="st1" width="264.8" height="4.3"/>
				</g>
				<g>
					<ellipse class="st0" cx="1096.7" cy="417.9" rx="30.4" ry="43.4"/>
					<path class="st1" d="M1096.7,463.8c-18,0-32.9-20.5-32.9-45.9s14.9-45.9,32.9-45.9s32.9,20.5,32.9,45.9
						S1115.3,463.8,1096.7,463.8z M1096.7,377c-15.5,0-28.5,18.6-28.5,40.9c0,22.9,12.4,40.9,28.5,40.9c15.5,0,28.5-18.6,28.5-40.9
						S1112.8,377,1096.7,377z"/>
				</g>
				<g>
					<rect x="1094.8" y="439.6" class="st1" width="4.3" height="61.4"/>
				</g>
				<rect x="957.8" y="347.8" class="st2" width="11.8" height="11.8"/>
				<rect x="980.1" y="347.8" class="st2" width="11.8" height="11.8"/>
				<rect x="957.8" y="324.9" class="st2" width="11.8" height="11.8"/>
				<rect x="980.1" y="324.9" class="st2" width="11.8" height="11.8"/>
				<rect x="1004.3" y="347.8" class="st2" width="11.8" height="11.8"/>
				<rect x="1027.3" y="347.8" class="st2" width="11.8" height="11.8"/>
				<rect x="957.8" y="370.8" class="st2" width="11.8" height="11.8"/>
				<rect x="980.1" y="370.8" class="st2" width="11.8" height="11.8"/>
				<rect x="1004.3" y="370.8" class="st2" width="11.8" height="11.8"/>
				<rect x="1027.3" y="370.8" class="st2" width="11.8" height="11.8"/>
				<rect x="957.8" y="395.6" class="st2" width="11.8" height="11.8"/>
				<rect x="980.1" y="395.6" class="st2" width="11.8" height="11.8"/>
				<rect x="1004.3" y="395.6" class="st2" width="11.8" height="11.8"/>
				<rect x="1027.3" y="395.6" class="st2" width="11.8" height="11.8"/>
				<rect x="957.8" y="418.5" class="st2" width="11.8" height="11.8"/>
				<rect x="980.1" y="418.5" class="st2" width="11.8" height="11.8"/>
				<rect x="1004.3" y="418.5" class="st2" width="11.8" height="11.8"/>
				<rect x="1027.3" y="418.5" class="st2" width="11.8" height="11.8"/>
				<rect x="957.8" y="440.2" class="st2" width="11.8" height="11.8"/>
				<rect x="980.1" y="440.2" class="st2" width="11.8" height="11.8"/>
				<rect x="1004.3" y="440.2" class="st2" width="11.8" height="11.8"/>
				<rect x="1027.3" y="440.2" class="st2" width="11.8" height="11.8"/>
			</g>
			<g>
				<g>
					<g>
						<path class="st3" d="M1004.9,506c14.9,5.6,55.2,36.6,55.2,36.6c2.5-23.6-16.1-63.9-16.1-63.9c31-4.3,40.3-24.8,40.3-24.8
							c-15.5-1.9-60.8-14.9-60.8-14.9h-38.4c0,0-44.6,12.4-60.8,14.9c0,0,9.3,19.8,40.3,24.8c0,0-18.6,40.3-16.1,63.9
							c0,0,40.3-31,55.2-36.6L1004.9,506L1004.9,506z"/>
					</g>
					<g>
						<path class="st1" d="M948.5,544.4h-0.6c-0.6,0-1.2-1.2-1.2-1.9c-2.5-20.5,11.2-52.7,15.5-62c-29.8-5.6-39.1-24.2-39.1-25.4
							c0-0.6,0-1.2,0-1.9c0-0.6,0.6-1.2,1.9-1.2c15.5-1.9,60.1-14.3,60.1-14.9h0.6h38.4h0.6c0.6,0,44.6,12.4,60.1,14.9
							c0.6,0,1.2,0.6,1.9,1.2c0.6,0.6,0.6,1.2,0,1.9c-0.6,0.6-9.3,19.8-39.1,25.4c4.3,9.3,17.4,41.5,15.5,62c0,0.6-0.6,1.2-1.2,1.9
							c-0.6,0-1.2,0-1.9,0s-39.7-30.4-54.6-36.6l0,0c-14.9,6.2-53.9,36-54.6,36.6C949.1,544.4,949.1,544.4,948.5,544.4z M928,455.7
							c3.7,5.6,14.3,17.4,37.2,21.1c0.6,0,1.2,0.6,1.9,1.2c0,0.6,0.6,1.2,0,1.9c0,0.6-16.7,36-16.1,58.9
							c9.9-7.4,40.3-29.8,52.7-34.7h0.6h0.6h0.6c12.4,5,42.8,27.3,52.7,34.7c0-22.9-16.1-58.3-16.1-58.9s0-1.2,0-1.9
							c0-0.6,0.6-1.2,1.9-1.2c22.9-3.1,33.5-15.5,37.2-21.1c-17.4-3.1-53.3-13-57.7-14.3h-37.8C981.4,442.7,944.8,453.2,928,455.7z"
							/>
					</g>
					<g>
						<path class="st2" d="M1023.5,480.5c0,10.5-8.1,18.6-18.6,18.6s-18.6-8.1-18.6-18.6s8.1-18.6,18.6-18.6
							C1014.9,461.9,1023.5,470,1023.5,480.5"/>
					</g>
					<g>
						<path class="st1" d="M1004.3,501.6c-11.2,0-20.5-9.3-20.5-20.5s9.3-20.5,20.5-20.5s20.5,9.3,20.5,20.5
							C1025.4,491.7,1016.1,501.6,1004.3,501.6z M1004.3,463.8c-9.3,0-16.7,7.4-16.7,16.7s7.4,16.7,16.7,16.7s16.7-7.4,16.7-16.7
							S1013.6,463.8,1004.3,463.8z"/>
					</g>
					<g>
						<path class="st3" d="M1039,433.4c0,0,31-42.2-37.2-91.8c0,0-3.1,16.7-18.6,26c0,0-39.7,26-13.6,63.2L1039,433.4z"/>
					</g>
					<g>
						<path class="st1" d="M1039,435.3L1039,435.3l-69.4-1.9c-0.6,0-1.2-0.6-1.9-0.6c-8.1-11.2-10.5-22.9-8.7-34.1
							c3.7-19.8,21.7-31.6,22.3-32.2c14.9-8.7,17.4-24.8,17.4-24.8c0-0.6,0.6-1.2,1.2-1.9c0.6,0,1.2,0,1.9,0
							c26,19.2,40.9,39.7,44.6,60.8c3.1,20.5-6.2,33.5-6.8,34.1C1040.3,435.3,1039.7,435.3,1039,435.3z M970.8,429.1l67,2.5
							c3.7-6.2,22.9-42.2-34.7-86.2c-1.9,5.6-6.2,17.4-18.6,24.2c0,0-17.4,11.8-20.5,29.8C962.1,408.6,964.6,419.1,970.8,429.1z"/>
					</g>
					<g>
						<path class="st2" d="M1040.9,435.9c0,0-6.2-30.4,43.4-27.3C1084.3,408.6,1076.2,445.2,1040.9,435.9"/>
					</g>
					<g>
						<path class="st1" d="M1052.1,439.6c-3.7,0-7.4-0.6-11.8-1.9l-1.2-0.6v-1.2c0-0.6-1.9-9.9,5-18.6c7.4-8.7,21.1-12.4,40.3-11.2
							h2.5l-0.6,2.5C1086.2,409.2,1079.3,439.6,1052.1,439.6z M1042.8,434c3.1,0.6,6.2,1.2,9.3,1.2c19.8,0,27.3-18,29.1-24.8
							c-16.7-0.6-28.5,2.5-34.1,9.9C1042.8,425.3,1042.8,431.5,1042.8,434z"/>
					</g>
					<g>
						<path class="st2" d="M1035.3,440.8c0,0,27.9-12.4,49.6,24.2C1084.3,464.4,1043.4,478.1,1035.3,440.8"/>
					</g>
					<g>
						<path class="st1" d="M1068.2,469.4c-13,0-30.4-5-35.3-27.9l-0.6-1.9l1.9-0.6c0,0,5-2.5,12.4-2.5c10.5,0,26.7,5,39.7,27.3
							l1.2,1.9l-2.5,0.6C1084.9,466.9,1077.5,469.4,1068.2,469.4z M1037.8,442.1c3.7,15.5,14.3,22.9,30.4,22.9c5.6,0,9.9-0.6,13-1.9
							c-11.8-18.6-25.4-22.9-34.7-22.9C1042.8,440.8,1039.7,441.5,1037.8,442.1z"/>
					</g>
					<g>
						<path class="st2" d="M957.2,434.6c0,0,1.9-3.7,9.9-3.7h75c0,0,8.1,5.6-4.3,12.4L970.2,460c0,0-3.1,0.6-5-1.2
							c-2.5-1.9-5-5.6-1.9-11.2C964,448.3,952.2,444.6,957.2,434.6"/>
					</g>
					<g>
						<path class="st1" d="M969.6,461.9c-1.2,0-3.7,0-5-1.2c-3.7-3.1-5-6.8-3.1-11.8c-1.9-1.2-5-3.1-6.2-6.2s-1.2-6.2,0.6-9.3
							c0-0.6,2.5-5,11.8-5h75c0.6,0,0.6,0,1.2,0.6c1.2,0.6,3.7,3.1,3.7,6.8c0,3.1-3.1,6.2-8.1,9.3c0,0,0,0-0.6,0l-67.6,16.7l0,0
							C970.8,461.9,970.2,461.9,969.6,461.9z M967.7,433.4c-6.8,0-8.1,2.5-8.1,2.5c-1.2,2.5-1.2,4.3-0.6,5.6
							c1.2,3.1,5.6,4.3,6.2,4.3s1.2,0.6,1.2,1.2s0,1.2,0,1.9c-1.9,3.7-1.9,6.2,1.2,8.1c0.6,0.6,1.2,0.6,2.5,0.6h0.6l67-16.7
							c5-2.5,5.6-4.3,5.6-5.6c0-1.2-0.6-1.9-1.2-2.5L967.7,433.4L967.7,433.4L967.7,433.4z"/>
					</g>
					<g>
						<path class="st1" d="M998.7,402.4c0,1.9-1.2,3.1-3.1,3.1s-3.1-1.2-3.1-3.1s1.2-3.1,3.1-3.1
							C996.9,399.3,998.7,400.5,998.7,402.4"/>
					</g>
					<g>
						<path class="st1" d="M1014.9,402.4c0,1.9-1.2,3.1-3.1,3.1c-1.9,0-3.1-1.2-3.1-3.1s1.2-3.1,3.1-3.1
							C1013.6,399.3,1014.9,400.5,1014.9,402.4"/>
					</g>
					<g>
						<path class="st0" d="M983.2,419.1c0,0,0-5.6,6.8-5.6c0,0,9.3,2.5,13,1.9c0,0,6.8,0,11.8-1.9c0,0,6.2-3.1,8.7,2.5
							c0,0,4.3,12.4-21.1,11.8C1002.5,428.4,983.2,429.1,983.2,419.1"/>
					</g>
					<g>
						<path class="st1" d="M1001.2,430.3c-5,0-13.6-0.6-17.4-5c-1.9-1.9-2.5-3.7-2.5-6.2c0,0,0-2.5,1.9-5c1.9-1.9,3.7-2.5,7.4-3.1
							l0,0l0,0c0,0,9.3,2.5,12.4,1.9c0,0,6.8,0,11.2-1.9c0,0,1.9-0.6,4.3-0.6c3.1,0,5.6,1.9,6.8,4.3c0,0,1.2,4.3-1.2,8.1
							c-3.1,4.3-10.5,6.8-21.1,6.8h-0.6C1002.5,430.3,1002.5,430.3,1001.2,430.3z M990.1,415.4c-4.3,0-5,2.5-5,3.7s0.6,2.5,1.2,3.1
							c3.7,3.7,11.8,3.7,14.9,3.7c0.6,0,1.2,0,1.2,0h0.6c9.3,0,15.5-1.9,18-5c1.2-1.9,0.6-4.3,0.6-4.3c-0.6-1.2-1.2-1.9-3.1-1.9
							c-1.2,0-3.1,0.6-3.1,0.6c-5,1.9-11.8,1.9-12.4,1.9c0,0-0.6,0-1.2,0C998.7,417.9,991.9,416,990.1,415.4z"/>
					</g>
					<g>
						
							<rect x="985.9" y="418.7" transform="matrix(7.822300e-02 -0.9969 0.9969 7.822300e-02 494.9507 1377.0625)" class="st1" width="12.4" height="4.3"/>
					</g>
					<g>
						
							<rect x="1001.3" y="415.4" transform="matrix(0.9986 -5.309546e-02 5.309546e-02 0.9986 -20.9699 53.8739)" class="st1" width="4.3" height="12.4"/>
					</g>
					<g>
						
							<rect x="1013.8" y="414.2" transform="matrix(0.977 -0.2134 0.2134 0.977 -66.3117 226.4873)" class="st1" width="4.3" height="12.4"/>
					</g>
				</g>
				<g>
					<g>
						<path class="st1" d="M1044.6,383.8c3.1,6.8-2.5,16.1-13,20.5c-9.9,4.3-20.5,1.9-23.6-5s2.5-16.1,13-20.5
							C1031,374.5,1041.5,376.4,1044.6,383.8"/>
					</g>
					<g>
						<path class="st1" d="M1021.7,408.6c-7.4,0-13-3.1-15.5-8.7c-1.9-4.3-1.2-8.7,1.9-13.6c2.5-4.3,6.8-8.1,12.4-9.9
							c3.7-1.2,7.4-2.5,11.2-2.5c7.4,0,13,3.1,15.5,8.7c1.9,4.3,1.2,8.7-1.9,13.6c-2.5,4.3-6.8,8.1-12.4,9.9
							C1029.1,408,1025.4,408.6,1021.7,408.6z M1031,378.2c-3.1,0-6.2,0.6-9.3,1.9c-4.3,1.9-8.1,5-10.5,8.7
							c-1.9,3.1-2.5,6.8-1.2,9.3c1.9,3.7,6.2,6.2,11.8,6.2c3.1,0,6.2-0.6,9.3-1.9c4.3-1.9,8.1-5,10.5-8.7c1.9-3.1,2.5-6.8,1.2-9.3
							C1040.9,380.7,1036.6,378.2,1031,378.2z"/>
					</g>
					<g>
						<path class="st1" d="M965.2,383.8c-3.1,6.8,2.5,16.1,13,20.5c9.9,4.3,20.5,1.9,23.6-5c3.1-6.8-2.5-16.1-13-20.5
							C978.9,374.5,968.3,376.4,965.2,383.8"/>
					</g>
					<g>
						<path class="st1" d="M988.2,408.6L988.2,408.6c-3.7,0-7.4-0.6-11.2-2.5c-5.6-2.5-9.9-5.6-12.4-9.9c-3.1-4.3-3.1-9.3-1.9-13.6
							c2.5-5.6,8.1-8.7,15.5-8.7c3.7,0,7.4,0.6,11.2,2.5c5.6,2.5,9.9,5.6,12.4,9.9c3.1,4.3,3.1,9.3,1.9,13.6
							C1001.8,405.5,995.6,408.6,988.2,408.6z M978.9,378.2c-5.6,0-9.9,2.5-11.8,6.2c-1.2,3.1-0.6,6.2,1.2,9.3
							c2.5,3.7,5.6,6.8,10.5,8.7c3.1,1.2,6.2,1.9,9.3,1.9c5.6,0,9.9-2.5,11.8-6.2c1.2-3.1,0.6-6.2-1.2-9.3
							c-2.5-3.7-5.6-6.8-10.5-8.7C985.1,378.8,982,378.2,978.9,378.2z"/>
					</g>
					<g>
						<path class="st1" d="M1014.9,398.7h-14.3c-1.2,0-1.9-1.2-1.9-1.9s1.2-1.9,1.9-1.9h14.3c1.2,0,1.9,1.2,1.9,1.9
							S1016.1,398.7,1014.9,398.7z"/>
					</g>
					<g>
						<path class="st0" d="M993.2,385.7c0,1.2-1.2,2.5-2.5,2.5c-1.2,0-2.5-1.2-2.5-2.5s1.2-2.5,2.5-2.5
							C991.9,383.2,993.2,384.4,993.2,385.7"/>
					</g>
					<g>
						<path class="st0" d="M1035.9,385.7c0,1.2-1.2,2.5-2.5,2.5c-1.2,0-2.5-1.2-2.5-2.5s1.2-2.5,2.5-2.5
							C1034.7,383.2,1035.9,384.4,1035.9,385.7"/>
					</g>
				</g>
			</g>
		</g>
		<g>
			<g>
				<g>
					<path class="st4" d="M908.6,491.1c0,0-9-15.8,2.1-24.8c0,0,12.2-9.9,12.2-13.1c0,0,3.3-2.1,7.5,6c0,0,14.3,26.6-7.2,34.1
						C923.2,493.2,907.1,495.9,908.6,491.1"/>
					<path class="st1" d="M914.6,495.6c-3.9,0-6.3-0.6-7.2-2.1c-0.6-0.6-0.6-1.2-0.6-2.1c-1.5-3-8.1-17.6,2.7-26.3
						c5.4-4.5,11.6-10.5,11.6-11.9c0-0.6,0.3-0.9,0.9-1.2c0.6-0.3,5.1-2.4,9.9,6.6c0.3,0.6,7.8,14.6,3.6,25.7
						c-2.1,5.1-6,8.4-11.6,10.5C923.2,495,918.7,495.6,914.6,495.6z M910.1,491.7c0,0,0.6,0.6,4.5,0.6s8.1-0.6,8.1-0.6
						c4.8-1.5,8.1-4.5,9.6-8.4c3.9-9.6-3.3-23-3.3-23c-2.4-4.5-4.2-5.4-4.8-5.4c-1.8,3.9-9.3,10.2-12.5,12.8
						c-9.9,7.8-2.1,22.1-1.8,22.7C910.1,490.8,910.1,491.1,910.1,491.7L910.1,491.7z"/>
					<path class="st5" d="M812.4,464.8c0,0,45.7,24.2,67.2,26.9c0,0,25.4,3.3,31.1-8.1c0,0,3.3-2.4,5.1,0.9c0,0,2.7,3.3-4.8,7.8
						c0,0-35.2,23.6-99.8-22.1c0,0-5.4-3.9-2.4-5.4C809.1,464.8,810,462.4,812.4,464.8"/>
					<path class="st1" d="M884.7,500.1c-22.4,0-47.5-9.6-74.1-28.4c-0.9-0.6-4.2-3-3.9-5.7c0-0.6,0.3-1.5,1.2-2.4
						c0.6-0.9,1.5-1.5,2.7-1.5c0.9,0,2.1,0.6,3,1.5c3.3,1.8,46,24.2,66.6,26.6c0,0,3.3,0.3,7.8,0.3c6.9,0,18.5-0.9,21.8-7.5l0.3-0.3
						l0.3-0.3c0.3,0,1.8-1.2,3.6-1.2c1.5,0,3,0.9,3.9,2.4c0.3,0.3,0.9,1.5,0.6,3.3c-0.3,2.4-2.4,4.5-6,6.6
						C911.9,494.1,902.6,500.1,884.7,500.1z M810.6,465.4l-0.3,0.6l-0.3,0.3c0,0.3,1.2,1.8,2.7,2.7c32.6,23,57.3,27.8,72.3,27.8
						c16.7,0,25.7-5.7,25.7-6c3.6-2.1,4.2-3.6,4.5-4.5c0-0.6,0-0.9,0-0.9c-0.6-0.9-1.2-0.9-1.2-0.9c-0.6,0-0.9,0.3-1.2,0.3
						c-4.2,7.5-15.5,9-24.5,9c-4.5,0-7.8-0.3-8.1-0.3c-21.8-2.7-66-26.3-67.8-27.2l-0.3-0.3C810.9,465.7,810.6,465.4,810.6,465.4z"
						/>
				</g>
				<g>
					<path class="st4" d="M759.8,219.6c0,0,6.9-37.6,57.3-33.2c0,0,41.5,5.7,51.4,1.8c0,0,17-7.2,16.7-20.6c0,0,27.8,18.8,18.8,57
						c0,0,30.5,17,29.3,49.3c0,0,3.3,31.7-21.2,51.4c0,0-0.9,2.7,3.3,2.1c0,0,13.7-1.8,15.5-6.6c0,0,7.5,34.6-31.4,57
						c0,0-38.2,16.4-90.5-12.2c0,0-49.9,23.6-87.8,5.1c0,0-36.7-17.3-17.3-57.3c0,0,5.7-10.2,13.1-13.7c0,0-27.5-20.6-15.5-52.9
						C701.9,246.2,724.9,198.7,759.8,219.6"/>
					<path class="st1" d="M871.2,383.6c-20.3,0-41.2-5.7-61.5-16.7c-4.5,2.1-28.4,11.9-54.4,11.9c-12.8,0-24.5-2.4-34.3-7.2
						c-0.6-0.3-16.1-7.8-21.8-24.2c-3.9-10.8-2.4-22.7,3.9-35.5c0.3-0.6,5.1-9,11.6-13.1c-6.3-5.7-24.5-25.1-14.3-52.9
						c0.6-1.5,16.1-33.2,41.8-33.2c5.7,0,11.1,1.5,16.7,4.5c2.4-7.8,12.8-32.9,50.5-32.9c2.7,0,5.4,0,8.1,0.3c0.3,0,23.3,3,38.5,3
						c7.2,0,10.5-0.6,11.9-1.2c0,0,15.8-6.9,15.8-19.1c0-0.6,0.3-1.2,0.9-1.5c0.6-0.3,1.2-0.3,1.8,0c0.3,0.3,28.1,19.4,19.7,57.3
						c5.4,3.6,30.2,20.9,29.3,50.2c0,1.2,3,32-20.9,52c0.3,0,0.6,0,1.2,0c5.4-0.6,13.1-3,14-5.7c0.3-0.6,0.9-1.2,1.8-1.2
						s1.5,0.6,1.5,1.2c0,0.3,7.5,36.1-32.3,58.8C900.2,379.1,889.2,383.6,871.2,383.6z M809.7,363.3c0.3,0,0.6,0,0.9,0.3
						c20.3,11.1,40.6,16.7,60.6,16.7c17.3,0,28.1-4.5,28.4-4.5c30.2-17.3,31.4-42.4,30.8-51.7c-4.5,3-12.2,4.2-14,4.5
						c-0.3,0-0.6,0-0.9,0c-1.8,0-3-0.6-3.6-1.5s-0.6-2.1-0.6-3c0-0.3,0.3-0.6,0.6-0.9c23.3-18.8,20.6-49.6,20.6-49.9
						c0.9-31.1-28.1-47.8-28.4-48.1c-0.6-0.3-0.9-1.2-0.9-1.8c6.9-30.2-9.6-47.8-15.8-53.5c-2.1,12.5-16.7,18.8-17.6,19.1
						c-2.4,0.9-6.9,1.5-13.1,1.5c-15.8,0-38.8-3-39.1-3c-2.7-0.3-5.4-0.3-7.8-0.3c-41.2,0-47.5,31.1-47.8,32.3
						c0,0.6-0.6,0.9-0.9,1.2c-0.6,0.3-1.2,0.3-1.5,0c-5.7-3.3-11.4-5.1-16.7-5.1c-23.6,0-38.5,30.8-38.8,31.1
						c-11.1,30.5,14,49.9,15.2,50.8c0.6,0.3,0.6,0.9,0.6,1.5s-0.3,1.2-0.9,1.2c-6.9,3-12.2,12.8-12.2,12.8c-6,11.9-7.2,23-3.6,32.9
						c5.4,15.2,20,22.1,20,22.4c9.6,4.5,20.6,6.9,32.9,6.9C783.7,375.2,809.4,363.3,809.7,363.3
						C809.1,363.3,809.4,363.3,809.7,363.3z"/>
				</g>
				<g>
					<path class="st5" d="M758.9,516.2c0,0-10.2-3.3-17.6,3.6c0,0-9,8.4,0.9,18.5c0,0,4.2,2.4,9,2.7c0,0,41.2,6.9,45.1-11.1"/>
					<path class="st5" d="M857.8,516.2c0,0,10.2-3.3,17.6,3.6c0,0,9,8.4-0.9,18.5c0,0-4.5,2.4-9,2.7c0,0-41.2,6.9-45.1-11.1"/>
					<g>
						<g>
							<path class="st5" d="M839.6,385.1c0,0,95.9,25.7,39.1,54.4c0,0,11.6,28.1-12.5,28.1"/>
							<path class="st1" d="M865.9,469v-3.3c5.7,0,9.6-1.5,11.6-4.8c4.8-7.5-0.6-20.9-0.6-20.9l-0.6-1.5l1.5-0.6
								c11.9-6,17.6-12.2,17-18.2c-1.5-15.2-40.6-29-55.6-32.9l0.9-3.3c2.4,0.6,56.2,15.2,58.2,35.8c0.9,7.5-5.1,14.3-17.6,20.9
								c1.5,3.9,4.8,15.2,0,22.7C877.5,466.9,872.7,469,865.9,469z"/>
						</g>
						<path class="st5" d="M829.7,371.3c0,0,47.2,26,35.2,95.6c0,0-1.8,7.2-4.2,13.7c0,0-2.7,26.6-1.2,34.1l-16.7,24.5h-12.2
							c0,0-9.9-3.9-10.5-11.1l-8.7-31.4h-8.1l-6.6,32c0.9,7.2-12.2,10.8-12.2,10.8h-12.2L753.9,515c1.5-7.5,0.3-34.1,0.3-34.1
							c-2.7-6.9-4.5-13.7-4.5-13.7c-11.9-69.6,37.6-95.6,37.6-95.6S828.2,370.7,829.7,371.3"/>
						<g>
							<path class="st5" d="M765.5,421.8c0,0-39.4-15.5-58.8-57.9c0,0,13.1-11.4,15.2-21.8c0,0,27.8,36.1,52.3,42.1
								C774.2,384.2,765.2,409,765.5,421.8"/>
							<path class="st1" d="M754.5,418.2c-12.5-7.5-35.8-24.2-49.6-53.5l-0.6-1.2l0.9-0.9c0,0,12.5-11.1,14.6-20.9l0.6-3.6l2.1,3
								c0.3,0.3,27.8,35.8,51.4,41.5L773,386c-21.2-5.1-44.5-31.7-51.4-40c-3,8.4-11.1,16.1-13.7,18.8
								c13.1,28.1,35.5,43.9,47.8,51.1L754.5,418.2z"/>
						</g>
						<g>
							<path class="st5" d="M677.4,356.4c-7.5-13.1-2.7-29.9,10.5-37.3c13.1-7.5,29.9-2.7,37.3,10.5c7.5,13.1,0.6,26-12.5,33.5
								C699.2,370.4,684.9,369.6,677.4,356.4"/>
							<path class="st1" d="M696.2,369.3c-8.7,0-15.8-4.2-20.3-11.9c-3.9-6.9-4.8-14.6-2.7-22.1s6.9-13.7,13.7-17.6
								c4.5-2.4,9.3-3.9,14.3-3.9c10.5,0,20,5.7,25.4,14.6c7.2,12.8,2.1,26.9-13.1,35.5C707.6,367.5,701.6,369.3,696.2,369.3z
								 M701.3,317.3c-4.5,0-8.7,1.2-12.5,3.3c-6,3.3-10.2,9-12.2,15.5c-1.8,6.6-0.9,13.4,2.4,19.4c3.9,6.9,9.9,10.5,17.3,10.5
								c4.8,0,10.2-1.5,15.5-4.5c10.5-6,19.7-17.6,11.9-31.1C718.9,322.4,710.5,317.3,701.3,317.3z"/>
						</g>
					</g>
					<path class="st1" d="M753.9,516.2L753.9,516.2c-1.2-0.3-1.8-1.2-1.5-1.8c1.5-6.9,0.6-30.5,0.3-33.2c-2.7-6.6-4.2-13.4-4.2-13.7
						c-3.3-19.4-2.4-37,2.7-52c7.2-21.5,20.9-32.6,28.7-37.3c0.9-0.6,1.8-0.3,2.4,0.6c0.6,0.9,0.3,1.8-0.6,2.4
						c-7.2,4.5-20.3,14.9-27.2,35.5c-4.8,14.3-5.7,31.4-2.4,50.2l0,0c0,0,1.8,6.9,4.2,13.4c0,0.3,0,0.3,0,0.6
						c0,1.2,1.2,26.6-0.3,34.3C755.3,515.9,754.5,516.2,753.9,516.2z"/>
					<path class="st0" d="M758,517.1c0,0,12.5,5.7,14.9,23.9c0,0-24.8,1.5-31.4-5.1c0,0-4.5-4.8-1.5-12.5
						C740.1,523.4,744.9,515,758,517.1"/>
					<path class="st1" d="M807.6,498.6c-9.6,0-14-2.1-14-2.1c-0.9-0.3-1.2-1.5-0.9-2.1c0.3-0.9,1.5-1.2,2.1-0.9l0,0
						c0,0,8.1,3.6,25.4,0.6c0.9,0,1.8,0.6,1.8,1.5c0.3,0.9-0.6,1.8-1.5,1.8C815.7,498.3,811.2,498.6,807.6,498.6z"/>
				</g>
				<g>
					<path class="st5" d="M871.5,244.1c0,0,19.1,14.9,28.4,25.7c0,0,8.4-7.8,6.3-17.6c0,0-6.9-16.4-23.3-15.2
						C882.9,237.2,876.9,237.2,871.5,244.1"/>
					<path class="st1" d="M899.9,271.6L899.9,271.6c-0.6,0-0.9-0.3-1.2-0.6c-9-10.5-27.8-25.4-28.1-25.4c-0.6-0.6-0.9-1.5-0.3-2.4
						c5.7-7.5,12.2-7.8,12.5-7.8c0.6,0,1.2,0,1.8,0c15.8,0,22.7,15.5,23,16.1v0.3c2.4,10.5-6.3,18.8-6.6,19.1
						C900.8,271.3,900.2,271.6,899.9,271.6z M873.9,243.8c4.2,3.3,17.9,14.3,26,23.6c2.1-2.4,6-8.1,4.5-14.6
						c-0.6-1.5-7.5-15.2-21.5-14C882.9,238.7,878.4,238.7,873.9,243.8z"/>
					<path class="st1" d="M898.7,252.2c-0.3,0-0.6,0-0.9-0.3c-8.1-4.2-16.7-0.3-16.7-0.3c-0.9,0.3-1.8,0-2.1-0.9s0-1.8,0.9-2.1
						c0.3-0.3,10.2-4.8,19.7,0.3c0.9,0.3,1.2,1.5,0.6,2.1C899.9,251.9,899.3,252.2,898.7,252.2z"/>
				</g>
				<path class="st1" d="M859.6,516.2c-0.9,0-1.5-0.6-1.5-1.2c-1.5-7.8,0.9-33.5,1.2-34.3c0-0.3,0-0.3,0-0.3
					c2.7-6.6,4.2-13.7,4.2-13.7c8.1-47.8-13.7-71.7-27.5-81.5c-0.6-0.6-0.9-1.5-0.3-2.4c0.6-0.6,1.5-0.9,2.4-0.3
					c14.3,10.5,37,35.2,28.7,84.8c0,0.3-1.8,7.2-4.2,14c-0.3,2.7-2.4,26.3-1.2,33.2c0.3,0.9-0.3,1.8-1.2,1.8
					C859.9,516.2,859.6,516.2,859.6,516.2z"/>
				<path class="st0" d="M858.7,517.1c0,0-12.5,5.7-14.9,23.9c0,0,24.8,1.5,31.4-5.1c0,0,4.5-4.8,1.5-12.5
					C876.6,523.4,871.8,514.7,858.7,517.1"/>
				<g>
					<path class="st5" d="M780.4,253.1c0,0-37,21.5-38.8,72.9c0,0-1.8,43.3,37.6,54.1c0,0,100.4,27.5,110.8-43.9
						c0,0,9-44.8-29.9-75.6C860.2,260.5,822.3,232.2,780.4,253.1"/>
					<path class="st1" d="M820.2,386.9L820.2,386.9c-22.4,0-41.5-5.1-41.8-5.4c-40.3-11.1-38.8-55.3-38.8-55.6
						c1.8-52,39.4-74.1,39.7-74.4c10.8-5.4,21.8-8.1,33.5-8.1c27.5,0,47.5,14.6,48.4,15.5c38.8,31.4,30.5,76.8,30.5,77.4
						C885.3,378.2,849.4,386.9,820.2,386.9z M813,247.1c-11.1,0-21.8,2.7-31.7,7.5c-0.3,0.3-36.1,21.5-37.9,71.7
						c0,1.8-1.2,42.1,36.4,52.3c0.3,0,19.1,5.1,40.9,5.1l0,0c27.8,0,62.1-8.4,68.1-47.8c0-0.6,8.1-44.2-29.3-74.1
						C859,261.7,839.3,247.1,813,247.1z"/>
					<path class="st4" d="M781.3,242.3c0,0-7.5,39.1,46.9,45.4c0,0,4.5-19.7,17.6-21.5c0,0,23.6-3,22.7-16.7c0,0,0.3-6.3-4.5-7.8"/>
					<path class="st1" d="M828.2,289.2L828.2,289.2c-19.7-2.4-33.5-9-41.5-19.7c-9.6-12.8-6.9-26.9-6.9-27.5
						c0.3-0.9,1.2-1.5,1.8-1.2s1.5,0.9,1.2,1.8c0,0-2.4,13.4,6.3,25.1c7.2,9.9,20,15.8,37.6,18.2c1.5-4.8,6.6-19.7,18.8-21.2
						c0.3,0,22.1-3,21.2-14.9c0-0.3,0-5.4-3.3-6.3c-0.9-0.3-1.5-1.2-1.2-2.1c0.3-0.9,1.2-1.5,2.1-1.2c6,1.8,5.7,9.3,5.7,9.6
						c0.9,14.9-23.3,18.2-24.2,18.2c-11.9,1.5-16.1,20-16.4,20.3C829.7,288.6,829.1,289.2,828.2,289.2z"/>
					<g>
						<path class="st0" d="M819.9,361.5c7.8,0.3,14.9-4.5,15.8-12.2c0.9-7.8-4.5-14.6-12.2-15.8c-6-0.9-11.6,1.8-14.3,6.9H808
							c-1.2-5.7-6-9.3-11.9-10.2c-7.8-0.9-14.9,4.5-15.8,12.2c-0.9,7.8,4.5,14.6,12.2,15.8c6,0.9,6.9,0.6,13.4,0.3
							C806.1,358.5,814.2,361.5,819.9,361.5"/>
						<path class="st1" d="M807.3,340.9l-6.9-9c-0.6-1.2,1.5-3.3,1.5-3.3l14.6,1.8c0,0,1.5,2.4,0.9,3.6l-9,7.2L807.3,340.9z"/>
						<g>
							<path class="st1" d="M797.5,317.3c-0.3,3-2.7,5.4-6,5.4c-3-0.3-5.4-2.7-5.4-6c0.3-3,2.7-5.4,6-5.4
								C795.4,311.6,797.8,314.3,797.5,317.3"/>
							<path class="st1" d="M836.3,321.5c-0.3,3-3.3,5.1-6.3,4.8c-3-0.3-5.1-3.3-4.8-6.3s3.3-5.1,6.3-4.8
								C834.5,315.8,836.6,318.5,836.3,321.5"/>
						</g>
					</g>
				</g>
				<g>
					<path class="st2" d="M758.9,376.4c0,0-13.1,1.5-20.6,27.5l13.1,9.9c0,0-8.7,30.5-6.6,41.5c0,0,33.5,5.4,63.6,11.4
						c31.1,6,52.6,0.3,58.2-3.6c0,0,0.9-35.5-6.9-52c0,0,2.1-11.9,12.2-14.6c0,0-23.9-11.1-31.1-11.6h-10.2c0,0-4.5,9.9-23,9
						S784,382,784,382l-6.9-1.5L758.9,376.4z"/>
					<path class="st1" d="M836.6,471.4c-8.7,0-18.2-1.2-28.1-3c-40-8.4-63.3-11.4-63.6-11.4c-0.6,0-1.2-0.6-1.5-1.5
						c-1.8-10.2,4.8-35.5,6.3-41.2l-12.2-9c-0.6-0.3-0.9-1.2-0.6-1.8c7.8-26.6,21.2-28.7,21.8-28.7c0.3,0,0.3,0,0.6,0l25.7,5.7
						c0.6,0,0.9,0.3,1.2,0.9c0.3,0.3,5.1,10.2,22.1,11.1c16.7,0.9,21.2-7.8,21.2-8.1c0.3-0.6,0.9-0.9,1.5-0.9h10.2
						c7.5,0.6,30.8,11.4,31.7,11.6c0.6,0.3,0.9,0.9,0.9,1.8c0,0.6-0.6,1.2-1.2,1.5c-7.8,2.1-10.5,10.8-11.1,12.8
						c7.5,17,6.9,50.8,6.9,52.3c0,0.6-0.3,0.9-0.6,1.2C863.2,467.8,852.4,471.4,836.6,471.4z M746.4,453.8
						c5.4,0.9,27.8,4.2,62.7,11.4c9.9,2.1,19.1,3,27.5,3c17.3,0,26-4.2,28.7-6c0-5.4,0-35.5-6.9-50.5c-0.3-0.3-0.3-0.6,0-0.9
						c0-0.6,2.1-10.2,9.6-14.3c-6.9-3-21.8-9.6-27.2-9.9h-9.3c-1.8,2.7-7.8,9.9-23.9,9c-16.4-0.9-23-9.6-24.5-11.9l-24.5-5.4
						c-1.5,0.3-11.9,3.6-18.5,25.1l12.2,9c0.6,0.3,0.9,1.2,0.6,1.8C753.3,414.4,745.5,442.1,746.4,453.8z"/>
				</g>
				<path class="st1" d="M863.5,423.6c-0.9,0-1.5-0.6-1.5-1.5c-2.7-13.7-8.4-17.9-8.4-18.2c-0.6-0.6-0.9-1.5-0.3-2.4
					c0.6-0.6,1.5-0.9,2.4-0.3c0.3,0.3,6.9,4.8,9.9,20.3c0.3,0.9-0.3,1.8-1.2,1.8C863.8,423.6,863.5,423.6,863.5,423.6z"/>
				<path class="st1" d="M801,306.2c-0.6,0-1.2-0.3-1.2-0.9l0,0c0,0-0.9-1.8-4.5-3.6c-3.3-1.5-7.2-0.9-7.2-0.9
					c-0.9,0.3-1.5-0.3-1.5-1.2c-0.3-0.9,0.3-1.5,1.2-1.5c0.3,0,4.8-0.9,9,1.2c5.1,2.4,6,5.1,6,5.4c0.3,0.6-0.3,1.5-0.9,1.8
					C801.3,306.2,801,306.2,801,306.2z"/>
				<path class="st1" d="M825.2,308.9c-0.3,0-0.6,0-0.9-0.3c-0.6-0.6-0.6-1.2-0.3-1.8c0.3-0.3,1.8-2.4,7.5-3.3
					c4.5-0.6,8.7,1.5,8.7,1.8c0.6,0.3,0.9,1.2,0.6,1.8c-0.3,0.6-1.2,0.9-1.8,0.6c0,0-3.6-1.8-7.2-1.5c-4.2,0.6-5.4,2.1-5.4,2.1
					C825.8,308.6,825.5,308.9,825.2,308.9z"/>
				<path class="st1" d="M848.5,544.3c-12.2,0-27.5-2.4-29.9-13.7l-8.7-32h-5.4l-6.6,32c-4.2,19.4-45.1,12.8-46.9,12.5
					c-4.8-0.3-9.3-3-9.6-3l-0.3-0.3c-3.6-3.6-5.1-7.5-5.1-11.4c0-5.7,4.2-9.6,4.2-9.6c8.1-7.5,18.8-4.2,19.1-3.9
					c0.9,0.3,1.2,1.2,1.2,2.1c-0.3,0.9-1.2,1.2-2.1,1.2c0,0-9.3-3-15.8,3.3c0,0-3,3-3.3,7.5c0,3,1.2,6,3.9,8.7
					c0.9,0.6,4.5,2.4,8.1,2.4c0.6,0,39.7,6.6,43.3-9.9l6.6-32.9c0.3-0.9,0.9-1.2,1.5-1.2h8.1c0.9,0,1.5,0.6,1.5,1.2l9,32.9
					c3.6,16.4,42.7,10.2,43.3,9.9c3.9-0.3,7.5-2.1,8.4-2.4c2.7-3,4.2-6,3.9-8.7c0-4.5-3.3-7.2-3.3-7.2c-6.6-6.3-15.8-3.3-15.8-3.3
					c-0.9,0.3-1.8-0.3-2.1-1.2s0.3-1.8,1.2-2.1c0.6-0.3,11.1-3.6,19.1,3.9c0.3,0.3,4.2,3.9,4.2,9.6c0,3.9-1.5,7.8-5.1,11.4l-0.3,0.3
					c-0.3,0-4.8,2.7-9.9,3C864.7,543.1,857.2,544.3,848.5,544.3z"/>
			</g>
		</g>
	</g>
</g>
</svg>
