<?xml version="1.0" encoding="utf-8"?>
<!-- Generator: Adobe Illustrator 26.0.1, SVG Export Plug-In . SVG Version: 6.00 Build 0)  -->
<svg version="1.2" baseProfile="tiny" xmlns="http://www.w3.org/2000/svg" xmlns:xlink="http://www.w3.org/1999/xlink" x="0px"
	 y="0px" viewBox="0 0 645.7 331.5" overflow="visible" xml:space="preserve">
<g id="대지_안내선_00000049194773798715960230000014279964840662363020_">
</g>
<g id="대지_안내선">
</g>
<g id="Layer_1">
</g>
<g id="SDGs_x5F_1">
</g>
<g id="SDGs_x5F_2">
</g>
<g id="SDGs_x5F_3">
</g>
<g id="SDGs_x5F_4_00000093138247557657852750000015889430109405553051_">
</g>
<g id="SDGs_x5F_5_00000063615262280689029580000017351448056964923575_">
</g>
<g id="SDGs_x5F_6_00000067957576602054665300000011113551243144900774_">
</g>
<g id="레이어_10">
</g>
<g id="레이어_11">
	<g>
		<g>
			<path fill="#974565" stroke="#974565" stroke-width="2" stroke-miterlimit="10" d="M17.5,90.5V75.9H47c2.4,0,4.6-0.5,6.7-1.6
				c2-1,3.8-2.3,5.5-4c1.4-1.6,2.8-3.5,3.7-5.7c0.8-2.2,1.3-4.4,1.3-6.8H25c-2.2,0-4.1-0.4-5.8-1.2c-1.8-0.7-3.2-1.8-4.4-3.3
				c-1.3-1.3-2.3-3-2.9-5c-0.7-1.8-1-3.8-1-5.9c0-4.2,0.7-8.4,2.2-12.2c1.4-3.8,3.5-7.2,6.2-10.1c2.6-2.9,5.9-5.2,9.6-7
				c3.6-1.7,7.7-2.5,12.2-2.5h33.4v14.7H41.2c-2.6,0-4.9,0.5-6.8,1.5c-2,1.1-3.7,2.4-4.9,4c-1.4,1.7-2.4,3.6-3,5.7
				c-0.7,2.2-1.1,4.2-1.1,6.3h39.2c1.9,0,3.8,0.4,5.6,1.1c1.7,0.8,3.2,1.9,4.6,3.3c1.2,1.5,2.2,3,2.9,4.8c0.6,1.9,1,3.9,1,6.1
				c0,4.5-0.8,8.7-2.3,12.6c-1.7,4-3.8,7.4-6.5,10.3c-2.9,3-6,5.3-9.6,7c-3.7,1.8-7.7,2.7-11.9,2.7H17.5z"/>
			<path fill="#974565" stroke="#974565" stroke-width="2" stroke-miterlimit="10" d="M85.9,10.5h58v14.1H99.6v17.1h41.2v2.4
				c0,1.6-0.4,3-0.8,4.4c-0.7,1.5-1.6,2.8-2.6,3.8c-1.2,1.1-2.5,1.9-4,2.5c-1.7,0.7-3.4,1-5.2,1H99.6v20.7h46.2v2.4
				c0,1.6-0.4,3-0.8,4.4c-0.7,1.5-1.6,2.8-2.6,3.8c-1.2,1.1-2.5,1.9-4,2.5c-1.7,0.7-3.4,1-5.2,1H85.9V10.5z"/>
			<path fill="#974565" stroke="#974565" stroke-width="2" stroke-miterlimit="10" d="M149.5,15.5l13.3-5.2L187,66.9l24.4-56.6
				l13.4,5.2c-2.4,6.4-4.9,12.7-7.6,18.9c-2.8,6.3-5.5,12.5-8.3,18.5c-2.9,6.3-5.8,12.5-8.4,18.7c-2.8,6.3-5.3,12.6-7.6,18.9h-11.6
				L149.5,15.5z"/>
			<path fill="#974565" stroke="#974565" stroke-width="2" stroke-miterlimit="10" d="M231.2,10.5h58v14.1h-44.3v17.1H286v2.4
				c0,1.6-0.4,3-0.8,4.4c-0.7,1.5-1.6,2.8-2.6,3.8c-1.2,1.1-2.5,1.9-4,2.5c-1.7,0.7-3.4,1-5.2,1h-28.6v20.7h46.2v2.4
				c0,1.6-0.4,3-0.8,4.4c-0.7,1.5-1.6,2.8-2.6,3.8c-1.2,1.1-2.5,1.9-4,2.5c-1.7,0.7-3.4,1-5.2,1h-47.3V10.5z"/>
			<path fill="#974565" stroke="#974565" stroke-width="2" stroke-miterlimit="10" d="M363.6,10.5v78.2c0,1.2-0.6,1.8-1.7,1.8h-9.6
				c-0.5,0-0.7,0-0.8,0c-0.2,0-0.5-0.1-0.5-0.5l-38.4-51.1v51.8h-13.7V10.5h11.6c0.1,0,0.4,0.1,0.7,0.1c0.2,0.1,0.5,0.4,0.7,0.7
				l37.7,50.8V10.5H363.6z"/>
			<path fill="#974565" stroke="#974565" stroke-width="2" stroke-miterlimit="10" d="M409.3,90.5h-14.2V24.6h-26V10.5h67.4V13
				c0,1.6-0.4,3-0.8,4.4c-0.7,1.5-1.6,2.8-2.6,3.8c-1.2,1.1-2.5,1.9-4,2.5c-1.7,0.7-3.4,1-5.2,1h-14.6V90.5z"/>
			<path fill="#974565" stroke="#974565" stroke-width="2" stroke-miterlimit="10" d="M442.3,10.5h58v14.1H456v17.1h41.2v2.4
				c0,1.6-0.4,3-0.8,4.4c-0.7,1.5-1.6,2.8-2.6,3.8c-1.2,1.1-2.5,1.9-4,2.5c-1.7,0.7-3.4,1-5.2,1H456v20.7h46.2v2.4
				c0,1.6-0.4,3-0.8,4.4c-0.7,1.5-1.6,2.8-2.6,3.8c-1.2,1.1-2.5,1.9-4,2.5c-1.7,0.7-3.4,1-5.2,1h-47.3V10.5z"/>
			<path fill="#974565" stroke="#974565" stroke-width="2" stroke-miterlimit="10" d="M512.4,10.5h58v14.1H526v17.1h41.2v2.4
				c0,1.6-0.4,3-0.8,4.4c-0.7,1.5-1.6,2.8-2.6,3.8c-1.2,1.1-2.5,1.9-4,2.5c-1.7,0.7-3.4,1-5.2,1H526v20.7h46.2v2.4
				c0,1.6-0.4,3-0.8,4.4c-0.7,1.5-1.6,2.8-2.6,3.8c-1.2,1.1-2.5,1.9-4,2.5c-1.7,0.7-3.4,1-5.2,1h-47.3V10.5z"/>
			<path fill="#974565" stroke="#974565" stroke-width="2" stroke-miterlimit="10" d="M644.7,10.5v78.2c0,1.2-0.6,1.8-1.7,1.8h-9.6
				c-0.5,0-0.7,0-0.8,0c-0.2,0-0.5-0.1-0.5-0.5l-38.4-51.1v51.8H580V10.5h11.6c0.1,0,0.4,0.1,0.7,0.1c0.2,0.1,0.5,0.4,0.7,0.7
				l37.7,50.8V10.5H644.7z"/>
			<path fill="#974565" stroke="#974565" stroke-width="2" stroke-miterlimit="10" d="M135.1,210.4h-13.7v-79.9h13.7v31.1h38.3
				v-31.1h13.9v79.9h-13.9v-41.3c-1,1.9-2.5,3.5-4.4,4.7c-2,1.3-4.3,1.9-7,1.9h-26.9V210.4z"/>
			<path fill="#974565" stroke="#974565" stroke-width="2" stroke-miterlimit="10" d="M196.2,130.5h58v14.1h-44.3v17.1h41.2v2.4
				c0,1.6-0.4,3-0.8,4.4c-0.7,1.5-1.6,2.8-2.6,3.8c-1.2,1.1-2.5,1.9-4,2.5c-1.7,0.7-3.4,1-5.2,1h-28.6v20.7h46.2v2.4
				c0,1.6-0.4,3-0.8,4.4c-0.7,1.5-1.6,2.8-2.6,3.8c-1.2,1.1-2.5,1.9-4,2.5c-1.7,0.7-3.4,1-5.2,1h-47.3V130.5z"/>
			<path fill="#974565" stroke="#974565" stroke-width="2" stroke-miterlimit="10" d="M314.9,210.5v-34.7c-0.7,2.4-2.2,4.5-4.3,6.1
				c-2.2,1.7-4.8,2.5-7.8,2.5h-26.6v26.1H262v-47.9c0-5.1,0.8-9.7,2.8-14.1c1.7-4.1,4.2-7.8,7.3-10.9c3.1-2.9,6.7-5.3,10.9-7
				c4.1-1.7,8.4-2.5,13-2.5c4.4,0,8.8,0.8,12.8,2.5c4,1.7,7.4,4.1,10.6,7.2c3,3.2,5.4,6.8,7.3,10.9c1.7,4.4,2.6,9,2.6,13.9v47.9
				H314.9z M314.9,164.5c0-3.2-0.5-6.2-1.3-9c-1-2.7-2.3-5-4-6.9c-1.7-1.9-3.7-3.4-6-4.6c-2.4-1-4.9-1.6-7.7-1.6
				c-2.9,0-5.5,0.6-7.9,1.6c-2.4,1.2-4.6,2.7-6.2,4.6c-1.8,1.9-3.1,4.2-4.1,6.9c-1.1,2.8-1.6,5.8-1.6,9v5.7h38.8V164.5z"/>
			<path fill="#974565" stroke="#974565" stroke-width="2" stroke-miterlimit="10" d="M385.9,210.5v-17.6c0-1.5-0.2-2.8-0.7-4.1
				c-0.5-1.2-1.2-2.4-2-3.4c-1-1-2-1.7-3.2-2.3c-1.3-0.5-2.6-0.8-4.1-0.8H370h-19.6v28.2h-13.9v-80H370c4.8,0,9.2,0.5,13.3,1.2
				c4,0.8,7.4,2.3,10.4,4.2c2.9,2.1,5.2,4.7,6.8,8c1.7,3.4,2.5,7.5,2.5,12.4c0,2.3-0.2,4.2-0.6,5.9c-0.5,1.8-1.2,3.4-1.9,4.8
				c-0.8,1.5-1.8,2.8-2.9,4c-1.2,1.2-2.6,2.4-4.1,3.6l-0.4,0.4c2.2,2.5,4,5.3,5.3,8.2c1.2,3,1.8,6.2,1.8,9.6v17.6H385.9z M370,168.2
				c2.3,0,4.6-0.1,7-0.6c2.2-0.2,4.2-1,6.1-1.9c1.7-0.8,3.1-2.1,4.3-3.6c1.1-1.5,1.7-3.3,1.7-5.7c0-2.4-0.5-4.5-1.4-6.1
				c-1.1-1.5-2.4-2.7-4.1-3.6c-1.8-0.7-3.8-1.3-6.1-1.7c-2.4-0.2-4.8-0.4-7.4-0.4h-19.6v23.6H370z"/>
			<path fill="#974565" stroke="#974565" stroke-width="2" stroke-miterlimit="10" d="M446.4,210.5h-14.2v-65.9h-26v-14.1h67.4v2.4
				c0,1.6-0.4,3-0.8,4.4c-0.7,1.5-1.6,2.8-2.6,3.8c-1.2,1.1-2.5,1.9-4,2.5c-1.7,0.7-3.4,1-5.2,1h-14.6V210.5z"/>
			<path fill="#974565" stroke="#974565" stroke-width="2" stroke-miterlimit="10" d="M476.9,210.5v-14.7h29.5
				c2.4,0,4.6-0.5,6.7-1.6c2-1,3.8-2.3,5.5-4c1.4-1.6,2.8-3.5,3.7-5.7c0.8-2.2,1.3-4.4,1.3-6.8h-39.2c-2.2,0-4.1-0.4-5.8-1.2
				c-1.8-0.7-3.2-1.8-4.4-3.3c-1.3-1.3-2.3-3-2.9-5c-0.7-1.8-1-3.8-1-5.9c0-4.2,0.7-8.4,2.2-12.2c1.4-3.8,3.5-7.2,6.2-10.1
				c2.6-2.9,5.9-5.2,9.6-7c3.6-1.7,7.7-2.5,12.2-2.5H534v14.7h-33.4c-2.6,0-4.9,0.5-6.8,1.5c-2,1.1-3.7,2.4-4.9,4
				c-1.4,1.7-2.4,3.6-3,5.7c-0.7,2.2-1.1,4.2-1.1,6.3h39.2c1.9,0,3.8,0.4,5.6,1.1c1.7,0.8,3.2,1.9,4.6,3.3c1.2,1.5,2.2,3,2.9,4.8
				c0.6,1.9,1,3.9,1,6.1c0,4.5-0.8,8.7-2.3,12.6c-1.7,4-3.8,7.4-6.5,10.3c-2.9,3-6,5.3-9.6,7c-3.7,1.8-7.7,2.7-11.9,2.7H476.9z"/>
			<path fill="#974565" stroke="#974565" stroke-width="2" stroke-miterlimit="10" d="M76.2,330.5v-80h58v14.1H89.9v17.1h41.2v2.4
				c0,1.6-0.4,3-0.8,4.4c-0.7,1.5-1.6,2.8-2.6,3.8c-1.2,1.1-2.5,1.9-4,2.5c-1.7,0.7-3.4,1-5.2,1H89.9v34.8H76.2z"/>
			<path fill="#974565" stroke="#974565" stroke-width="2" stroke-miterlimit="10" d="M142.6,250.5h58v14.1h-44.3v17.1h41.2v2.4
				c0,1.6-0.4,3-0.8,4.4c-0.7,1.5-1.6,2.8-2.6,3.8c-1.2,1.1-2.5,1.9-4,2.5c-1.7,0.7-3.4,1-5.2,1h-28.6v20.7h46.2v2.4
				c0,1.6-0.4,3-0.8,4.4c-0.7,1.5-1.6,2.8-2.6,3.8c-1.2,1.1-2.5,1.9-4,2.5c-1.7,0.7-3.4,1-5.2,1h-47.3V250.5z"/>
			<path fill="#974565" stroke="#974565" stroke-width="2" stroke-miterlimit="10" d="M211.2,330.5v-14.7h29.5
				c2.4,0,4.6-0.5,6.7-1.6c2-1,3.8-2.3,5.5-4c1.4-1.6,2.8-3.5,3.7-5.7c0.8-2.2,1.3-4.4,1.3-6.8h-39.2c-2.2,0-4.1-0.4-5.8-1.2
				c-1.8-0.7-3.2-1.8-4.4-3.3c-1.3-1.3-2.3-3-2.9-5c-0.7-1.8-1-3.8-1-5.9c0-4.2,0.7-8.4,2.2-12.2c1.4-3.8,3.5-7.2,6.2-10.1
				c2.6-2.9,5.9-5.2,9.6-7c3.6-1.7,7.7-2.5,12.2-2.5h33.4v14.7H235c-2.6,0-4.9,0.5-6.8,1.5c-2,1.1-3.7,2.4-4.9,4
				c-1.4,1.7-2.4,3.6-3,5.7c-0.7,2.2-1.1,4.2-1.1,6.3h39.2c1.9,0,3.8,0.4,5.6,1.1c1.7,0.8,3.2,1.9,4.6,3.3c1.2,1.5,2.2,3,2.9,4.8
				c0.6,1.9,1,3.9,1,6.1c0,4.5-0.8,8.7-2.3,12.6c-1.7,4-3.8,7.4-6.5,10.3c-2.9,3-6,5.3-9.6,7c-3.7,1.8-7.7,2.7-11.9,2.7H211.2z"/>
			<path fill="#974565" stroke="#974565" stroke-width="2" stroke-miterlimit="10" d="M316.2,330.5h-14.2v-65.9h-26v-14.1h67.4v2.4
				c0,1.6-0.4,3-0.8,4.4c-0.7,1.5-1.6,2.8-2.6,3.8c-1.2,1.1-2.5,1.9-4,2.5c-1.7,0.7-3.4,1-5.2,1h-14.6V330.5z"/>
			<path fill="#974565" stroke="#974565" stroke-width="2" stroke-miterlimit="10" d="M348.5,330.4v-79.9h14.4v79.9H348.5z"/>
			<path fill="#974565" stroke="#974565" stroke-width="2" stroke-miterlimit="10" d="M368.5,255.5l13.3-5.2l24.2,56.6l24.4-56.6
				l13.4,5.2c-2.4,6.4-4.9,12.7-7.6,18.9c-2.8,6.3-5.5,12.5-8.3,18.5c-2.9,6.3-5.8,12.5-8.4,18.7c-2.8,6.3-5.3,12.6-7.6,18.9h-11.6
				L368.5,255.5z"/>
			<path fill="#974565" stroke="#974565" stroke-width="2" stroke-miterlimit="10" d="M498,330.5v-34.7c-0.7,2.4-2.2,4.5-4.3,6.1
				c-2.2,1.7-4.8,2.5-7.8,2.5h-26.6v26.1h-14.2v-47.9c0-5.1,0.8-9.7,2.8-14.1c1.7-4.1,4.2-7.8,7.3-10.9c3.1-2.9,6.7-5.3,10.9-7
				c4.1-1.7,8.4-2.5,13-2.5c4.4,0,8.8,0.8,12.8,2.5c4,1.7,7.4,4.1,10.6,7.2c3,3.2,5.4,6.8,7.3,10.9c1.7,4.4,2.6,9,2.6,13.9v47.9H498
				z M498,284.5c0-3.2-0.5-6.2-1.3-9c-1-2.7-2.3-5-4-6.9c-1.7-1.9-3.7-3.4-6-4.6c-2.4-1-4.9-1.6-7.7-1.6c-2.9,0-5.5,0.6-7.9,1.6
				c-2.4,1.2-4.6,2.7-6.2,4.6c-1.8,1.9-3.1,4.2-4.1,6.9c-1.1,2.8-1.6,5.8-1.6,9v5.7H498V284.5z"/>
			<path fill="#974565" stroke="#974565" stroke-width="2" stroke-miterlimit="10" d="M522,330.5v-80h13.7v65.9h46.9v2.4
				c0,1.6-0.4,3-0.8,4.4c-0.7,1.5-1.6,2.8-2.6,3.8c-1.2,1.1-2.5,1.9-4,2.5c-1.7,0.7-3.4,1-5.2,1H522z"/>
		</g>
		<g>
			<path fill="#F4ED75" stroke="#F4ED75" stroke-width="2" stroke-miterlimit="10" d="M7.5,81.5V66.9H37c2.4,0,4.6-0.5,6.7-1.6
				c2-1,3.8-2.3,5.5-4c1.4-1.6,2.8-3.5,3.7-5.7c0.8-2.2,1.3-4.4,1.3-6.8H15c-2.2,0-4.1-0.4-5.8-1.2c-1.8-0.7-3.2-1.8-4.4-3.3
				c-1.3-1.3-2.3-3-2.9-5c-0.7-1.8-1-3.8-1-5.9c0-4.2,0.7-8.4,2.2-12.2c1.4-3.8,3.5-7.2,6.2-10.1c2.6-2.9,5.9-5.2,9.6-7
				c3.6-1.7,7.7-2.5,12.2-2.5h33.4v14.7H31.2c-2.6,0-4.9,0.5-6.8,1.5c-2,1.1-3.7,2.4-4.9,4c-1.4,1.7-2.4,3.6-3,5.7
				c-0.7,2.2-1.1,4.2-1.1,6.3h39.2c1.9,0,3.8,0.4,5.6,1.1c1.7,0.8,3.2,1.9,4.6,3.3c1.2,1.5,2.2,3,2.9,4.8c0.6,1.9,1,3.9,1,6.1
				c0,4.5-0.8,8.7-2.3,12.6c-1.7,4-3.8,7.4-6.5,10.3c-2.9,3-6,5.3-9.6,7c-3.7,1.8-7.7,2.7-11.9,2.7H7.5z"/>
			<path fill="#F4ED75" stroke="#F4ED75" stroke-width="2" stroke-miterlimit="10" d="M75.9,1.5h58v14.1H89.6v17.1h41.2v2.4
				c0,1.6-0.4,3-0.8,4.4c-0.7,1.5-1.6,2.8-2.6,3.8c-1.2,1.1-2.5,1.9-4,2.5c-1.7,0.7-3.4,1-5.2,1H89.6v20.7h46.2v2.4
				c0,1.6-0.4,3-0.8,4.4c-0.7,1.5-1.6,2.8-2.6,3.8c-1.2,1.1-2.5,1.9-4,2.5c-1.7,0.7-3.4,1-5.2,1H75.9V1.5z"/>
			<path fill="#F4ED75" stroke="#F4ED75" stroke-width="2" stroke-miterlimit="10" d="M139.5,6.5l13.3-5.2L177,57.9l24.4-56.6
				l13.4,5.2c-2.4,6.4-4.9,12.7-7.6,18.9c-2.8,6.3-5.5,12.5-8.3,18.5c-2.9,6.3-5.8,12.5-8.4,18.7c-2.8,6.3-5.3,12.6-7.6,18.9h-11.6
				L139.5,6.5z"/>
			<path fill="#F4ED75" stroke="#F4ED75" stroke-width="2" stroke-miterlimit="10" d="M221.2,1.5h58v14.1h-44.3v17.1H276v2.4
				c0,1.6-0.4,3-0.8,4.4c-0.7,1.5-1.6,2.8-2.6,3.8c-1.2,1.1-2.5,1.9-4,2.5c-1.7,0.7-3.4,1-5.2,1h-28.6v20.7h46.2v2.4
				c0,1.6-0.4,3-0.8,4.4c-0.7,1.5-1.6,2.8-2.6,3.8c-1.2,1.1-2.5,1.9-4,2.5c-1.7,0.7-3.4,1-5.2,1h-47.3V1.5z"/>
			<path fill="#F4ED75" stroke="#F4ED75" stroke-width="2" stroke-miterlimit="10" d="M353.6,1.5v78.2c0,1.2-0.6,1.8-1.7,1.8h-9.6
				c-0.5,0-0.7,0-0.8,0c-0.2,0-0.5-0.1-0.5-0.5l-38.4-51.1v51.8h-13.7V1.5h11.6c0.1,0,0.4,0.1,0.7,0.1c0.2,0.1,0.5,0.4,0.7,0.7
				l37.7,50.8V1.5H353.6z"/>
			<path fill="#F4ED75" stroke="#F4ED75" stroke-width="2" stroke-miterlimit="10" d="M399.3,81.5h-14.2V15.6h-26V1.5h67.4V4
				c0,1.6-0.4,3-0.8,4.4c-0.7,1.5-1.6,2.8-2.6,3.8c-1.2,1.1-2.5,1.9-4,2.5c-1.7,0.7-3.4,1-5.2,1h-14.6V81.5z"/>
			<path fill="#F4ED75" stroke="#F4ED75" stroke-width="2" stroke-miterlimit="10" d="M432.3,1.5h58v14.1H446v17.1h41.2v2.4
				c0,1.6-0.4,3-0.8,4.4c-0.7,1.5-1.6,2.8-2.6,3.8c-1.2,1.1-2.5,1.9-4,2.5c-1.7,0.7-3.4,1-5.2,1H446v20.7h46.2v2.4
				c0,1.6-0.4,3-0.8,4.4c-0.7,1.5-1.6,2.8-2.6,3.8c-1.2,1.1-2.5,1.9-4,2.5c-1.7,0.7-3.4,1-5.2,1h-47.3V1.5z"/>
			<path fill="#F4ED75" stroke="#F4ED75" stroke-width="2" stroke-miterlimit="10" d="M502.4,1.5h58v14.1H516v17.1h41.2v2.4
				c0,1.6-0.4,3-0.8,4.4c-0.7,1.5-1.6,2.8-2.6,3.8c-1.2,1.1-2.5,1.9-4,2.5c-1.7,0.7-3.4,1-5.2,1H516v20.7h46.2v2.4
				c0,1.6-0.4,3-0.8,4.4c-0.7,1.5-1.6,2.8-2.6,3.8c-1.2,1.1-2.5,1.9-4,2.5c-1.7,0.7-3.4,1-5.2,1h-47.3V1.5z"/>
			<path fill="#F4ED75" stroke="#F4ED75" stroke-width="2" stroke-miterlimit="10" d="M634.7,1.5v78.2c0,1.2-0.6,1.8-1.7,1.8h-9.6
				c-0.5,0-0.7,0-0.8,0c-0.2,0-0.5-0.1-0.5-0.5l-38.4-51.1v51.8H570V1.5h11.6c0.1,0,0.4,0.1,0.7,0.1c0.2,0.1,0.5,0.4,0.7,0.7
				l37.7,50.8V1.5H634.7z"/>
			<path fill="#F4ED75" stroke="#F4ED75" stroke-width="2" stroke-miterlimit="10" d="M125.1,201.4h-13.7v-79.9h13.7v31.1h38.3
				v-31.1h13.9v79.9h-13.9v-41.3c-1,1.9-2.5,3.5-4.4,4.7c-2,1.3-4.3,1.9-7,1.9h-26.9V201.4z"/>
			<path fill="#F4ED75" stroke="#F4ED75" stroke-width="2" stroke-miterlimit="10" d="M186.2,121.5h58v14.1h-44.3v17.1h41.2v2.4
				c0,1.6-0.4,3-0.8,4.4c-0.7,1.5-1.6,2.8-2.6,3.8c-1.2,1.1-2.5,1.9-4,2.5c-1.7,0.7-3.4,1-5.2,1h-28.6v20.7h46.2v2.4
				c0,1.6-0.4,3-0.8,4.4c-0.7,1.5-1.6,2.8-2.6,3.8c-1.2,1.1-2.5,1.9-4,2.5c-1.7,0.7-3.4,1-5.2,1h-47.3V121.5z"/>
			<path fill="#F4ED75" stroke="#F4ED75" stroke-width="2" stroke-miterlimit="10" d="M304.9,201.5v-34.7c-0.7,2.4-2.2,4.5-4.3,6.1
				c-2.2,1.7-4.8,2.5-7.8,2.5h-26.6v26.1H252v-47.9c0-5.1,0.8-9.7,2.8-14.1c1.7-4.1,4.2-7.8,7.3-10.9c3.1-2.9,6.7-5.3,10.9-7
				c4.1-1.7,8.4-2.5,13-2.5c4.4,0,8.8,0.8,12.8,2.5c4,1.7,7.4,4.1,10.6,7.2c3,3.2,5.4,6.8,7.3,10.9c1.7,4.4,2.6,9,2.6,13.9v47.9
				H304.9z M304.9,155.5c0-3.2-0.5-6.2-1.3-9c-1-2.7-2.3-5-4-6.9c-1.7-1.9-3.7-3.4-6-4.6c-2.4-1-4.9-1.6-7.7-1.6
				c-2.9,0-5.5,0.6-7.9,1.6c-2.4,1.2-4.6,2.7-6.2,4.6c-1.8,1.9-3.1,4.2-4.1,6.9c-1.1,2.8-1.6,5.8-1.6,9v5.7h38.8V155.5z"/>
			<path fill="#F4ED75" stroke="#F4ED75" stroke-width="2" stroke-miterlimit="10" d="M375.9,201.5v-17.6c0-1.5-0.2-2.8-0.7-4.1
				c-0.5-1.2-1.2-2.4-2-3.4c-1-1-2-1.7-3.2-2.3c-1.3-0.5-2.6-0.8-4.1-0.8H360h-19.6v28.2h-13.9v-80H360c4.8,0,9.2,0.5,13.3,1.2
				c4,0.8,7.4,2.3,10.4,4.2c2.9,2.1,5.2,4.7,6.8,8c1.7,3.4,2.5,7.5,2.5,12.4c0,2.3-0.2,4.2-0.6,5.9c-0.5,1.8-1.2,3.4-1.9,4.8
				c-0.8,1.5-1.8,2.8-2.9,4c-1.2,1.2-2.6,2.4-4.1,3.6l-0.4,0.4c2.2,2.5,4,5.3,5.3,8.2c1.2,3,1.8,6.2,1.8,9.6v17.6H375.9z M360,159.2
				c2.3,0,4.6-0.1,7-0.6c2.2-0.2,4.2-1,6.1-1.9c1.7-0.8,3.1-2.1,4.3-3.6c1.1-1.5,1.7-3.3,1.7-5.7c0-2.4-0.5-4.5-1.4-6.1
				c-1.1-1.5-2.4-2.7-4.1-3.6c-1.8-0.7-3.8-1.3-6.1-1.7c-2.4-0.2-4.8-0.4-7.4-0.4h-19.6v23.6H360z"/>
			<path fill="#F4ED75" stroke="#F4ED75" stroke-width="2" stroke-miterlimit="10" d="M436.4,201.5h-14.2v-65.9h-26v-14.1h67.4v2.4
				c0,1.6-0.4,3-0.8,4.4c-0.7,1.5-1.6,2.8-2.6,3.8c-1.2,1.1-2.5,1.9-4,2.5c-1.7,0.7-3.4,1-5.2,1h-14.6V201.5z"/>
			<path fill="#F4ED75" stroke="#F4ED75" stroke-width="2" stroke-miterlimit="10" d="M466.9,201.5v-14.7h29.5
				c2.4,0,4.6-0.5,6.7-1.6c2-1,3.8-2.3,5.5-4c1.4-1.6,2.8-3.5,3.7-5.7c0.8-2.2,1.3-4.4,1.3-6.8h-39.2c-2.2,0-4.1-0.4-5.8-1.2
				c-1.8-0.7-3.2-1.8-4.4-3.3c-1.3-1.3-2.3-3-2.9-5c-0.7-1.8-1-3.8-1-5.9c0-4.2,0.7-8.4,2.2-12.2c1.4-3.8,3.5-7.2,6.2-10.1
				c2.6-2.9,5.9-5.2,9.6-7c3.6-1.7,7.7-2.5,12.2-2.5H524v14.7h-33.4c-2.6,0-4.9,0.5-6.8,1.5c-2,1.1-3.7,2.4-4.9,4
				c-1.4,1.7-2.4,3.6-3,5.7c-0.7,2.2-1.1,4.2-1.1,6.3h39.2c1.9,0,3.8,0.4,5.6,1.1c1.7,0.8,3.2,1.9,4.6,3.3c1.2,1.5,2.2,3,2.9,4.8
				c0.6,1.9,1,3.9,1,6.1c0,4.5-0.8,8.7-2.3,12.6c-1.7,4-3.8,7.4-6.5,10.3c-2.9,3-6,5.3-9.6,7c-3.7,1.8-7.7,2.7-11.9,2.7H466.9z"/>
			<path fill="#F4ED75" stroke="#F4ED75" stroke-width="2" stroke-miterlimit="10" d="M66.2,321.5v-80h58v14.1H79.9v17.1h41.2v2.4
				c0,1.6-0.4,3-0.8,4.4c-0.7,1.5-1.6,2.8-2.6,3.8c-1.2,1.1-2.5,1.9-4,2.5c-1.7,0.7-3.4,1-5.2,1H79.9v34.8H66.2z"/>
			<path fill="#F4ED75" stroke="#F4ED75" stroke-width="2" stroke-miterlimit="10" d="M132.6,241.5h58v14.1h-44.3v17.1h41.2v2.4
				c0,1.6-0.4,3-0.8,4.4c-0.7,1.5-1.6,2.8-2.6,3.8c-1.2,1.1-2.5,1.9-4,2.5c-1.7,0.7-3.4,1-5.2,1h-28.6v20.7h46.2v2.4
				c0,1.6-0.4,3-0.8,4.4c-0.7,1.5-1.6,2.8-2.6,3.8c-1.2,1.1-2.5,1.9-4,2.5c-1.7,0.7-3.4,1-5.2,1h-47.3V241.5z"/>
			<path fill="#F4ED75" stroke="#F4ED75" stroke-width="2" stroke-miterlimit="10" d="M201.2,321.5v-14.7h29.5
				c2.4,0,4.6-0.5,6.7-1.6c2-1,3.8-2.3,5.5-4c1.4-1.6,2.8-3.5,3.7-5.7c0.8-2.2,1.3-4.4,1.3-6.8h-39.2c-2.2,0-4.1-0.4-5.8-1.2
				c-1.8-0.7-3.2-1.8-4.4-3.3c-1.3-1.3-2.3-3-2.9-5c-0.7-1.8-1-3.8-1-5.9c0-4.2,0.7-8.4,2.2-12.2c1.4-3.8,3.5-7.2,6.2-10.1
				c2.6-2.9,5.9-5.2,9.6-7c3.6-1.7,7.7-2.5,12.2-2.5h33.4v14.7H225c-2.6,0-4.9,0.5-6.8,1.5c-2,1.1-3.7,2.4-4.9,4
				c-1.4,1.7-2.4,3.6-3,5.7c-0.7,2.2-1.1,4.2-1.1,6.3h39.2c1.9,0,3.8,0.4,5.6,1.1c1.7,0.8,3.2,1.9,4.6,3.3c1.2,1.5,2.2,3,2.9,4.8
				c0.6,1.9,1,3.9,1,6.1c0,4.5-0.8,8.7-2.3,12.6c-1.7,4-3.8,7.4-6.5,10.3c-2.9,3-6,5.3-9.6,7c-3.7,1.8-7.7,2.7-11.9,2.7H201.2z"/>
			<path fill="#F4ED75" stroke="#F4ED75" stroke-width="2" stroke-miterlimit="10" d="M306.2,321.5h-14.2v-65.9h-26v-14.1h67.4v2.4
				c0,1.6-0.4,3-0.8,4.4c-0.7,1.5-1.6,2.8-2.6,3.8c-1.2,1.1-2.5,1.9-4,2.5c-1.7,0.7-3.4,1-5.2,1h-14.6V321.5z"/>
			<path fill="#F4ED75" stroke="#F4ED75" stroke-width="2" stroke-miterlimit="10" d="M338.5,321.4v-79.9h14.4v79.9H338.5z"/>
			<path fill="#F4ED75" stroke="#F4ED75" stroke-width="2" stroke-miterlimit="10" d="M358.5,246.5l13.3-5.2l24.2,56.6l24.4-56.6
				l13.4,5.2c-2.4,6.4-4.9,12.7-7.6,18.9c-2.8,6.3-5.5,12.5-8.3,18.5c-2.9,6.3-5.8,12.5-8.4,18.7c-2.8,6.3-5.3,12.6-7.6,18.9h-11.6
				L358.5,246.5z"/>
			<path fill="#F4ED75" stroke="#F4ED75" stroke-width="2" stroke-miterlimit="10" d="M488,321.5v-34.7c-0.7,2.4-2.2,4.5-4.3,6.1
				c-2.2,1.7-4.8,2.5-7.8,2.5h-26.6v26.1h-14.2v-47.9c0-5.1,0.8-9.7,2.8-14.1c1.7-4.1,4.2-7.8,7.3-10.9c3.1-2.9,6.7-5.3,10.9-7
				c4.1-1.7,8.4-2.5,13-2.5c4.4,0,8.8,0.8,12.8,2.5c4,1.7,7.4,4.1,10.6,7.2c3,3.2,5.4,6.8,7.3,10.9c1.7,4.4,2.6,9,2.6,13.9v47.9H488
				z M488,275.5c0-3.2-0.5-6.2-1.3-9c-1-2.7-2.3-5-4-6.9c-1.7-1.9-3.7-3.4-6-4.6c-2.4-1-4.9-1.6-7.7-1.6c-2.9,0-5.5,0.6-7.9,1.6
				c-2.4,1.2-4.6,2.7-6.2,4.6c-1.8,1.9-3.1,4.2-4.1,6.9c-1.1,2.8-1.6,5.8-1.6,9v5.7H488V275.5z"/>
			<path fill="#F4ED75" stroke="#F4ED75" stroke-width="2" stroke-miterlimit="10" d="M512,321.5v-80h13.7v65.9h46.9v2.4
				c0,1.6-0.4,3-0.8,4.4c-0.7,1.5-1.6,2.8-2.6,3.8c-1.2,1.1-2.5,1.9-4,2.5c-1.7,0.7-3.4,1-5.2,1H512z"/>
		</g>
		<g>
			<path fill="#FFFFFF" stroke="#FFFFFF" stroke-width="2" stroke-miterlimit="10" d="M11.2,85.2V70.6h29.5c2.4,0,4.6-0.5,6.7-1.6
				c2-1,3.8-2.3,5.5-4c1.4-1.6,2.8-3.5,3.7-5.7c0.8-2.2,1.3-4.4,1.3-6.8H18.7c-2.2,0-4.1-0.4-5.8-1.2c-1.8-0.7-3.2-1.8-4.4-3.3
				c-1.3-1.3-2.3-3-2.9-5c-0.7-1.8-1-3.8-1-5.9c0-4.2,0.7-8.4,2.2-12.2c1.4-3.8,3.5-7.2,6.2-10.1c2.6-2.9,5.9-5.2,9.6-7
				c3.6-1.7,7.7-2.5,12.2-2.5h33.4v14.7H34.9c-2.6,0-4.9,0.5-6.8,1.5c-2,1.1-3.7,2.4-4.9,4c-1.4,1.7-2.4,3.6-3,5.7
				c-0.7,2.2-1.1,4.2-1.1,6.3h39.2c1.9,0,3.8,0.4,5.6,1.1c1.7,0.8,3.2,1.9,4.6,3.3c1.2,1.5,2.2,3,2.9,4.8c0.6,1.9,1,3.9,1,6.1
				c0,4.5-0.8,8.7-2.3,12.6c-1.7,4-3.8,7.4-6.5,10.3c-2.9,3-6,5.3-9.6,7c-3.7,1.8-7.7,2.7-11.9,2.7H11.2z"/>
			<path fill="#FFFFFF" stroke="#FFFFFF" stroke-width="2" stroke-miterlimit="10" d="M79.6,5.2h58v14.1H93.3v17.1h41.2v2.4
				c0,1.6-0.4,3-0.8,4.4c-0.7,1.5-1.6,2.8-2.6,3.8c-1.2,1.1-2.5,1.9-4,2.5c-1.7,0.7-3.4,1-5.2,1H93.3v20.7h46.2v2.4
				c0,1.6-0.4,3-0.8,4.4c-0.7,1.5-1.6,2.8-2.6,3.8c-1.2,1.1-2.5,1.9-4,2.5c-1.7,0.7-3.4,1-5.2,1H79.6V5.2z"/>
			<path fill="#FFFFFF" stroke="#FFFFFF" stroke-width="2" stroke-miterlimit="10" d="M143.2,10.2L156.5,5l24.2,56.6L205.1,5
				l13.4,5.2c-2.4,6.4-4.9,12.7-7.6,18.9c-2.8,6.3-5.5,12.5-8.3,18.5c-2.9,6.3-5.8,12.5-8.4,18.7c-2.8,6.3-5.3,12.6-7.6,18.9h-11.6
				L143.2,10.2z"/>
			<path fill="#FFFFFF" stroke="#FFFFFF" stroke-width="2" stroke-miterlimit="10" d="M224.9,5.2h58v14.1h-44.3v17.1h41.2v2.4
				c0,1.6-0.4,3-0.8,4.4c-0.7,1.5-1.6,2.8-2.6,3.8c-1.2,1.1-2.5,1.9-4,2.5c-1.7,0.7-3.4,1-5.2,1h-28.6v20.7h46.2v2.4
				c0,1.6-0.4,3-0.8,4.4c-0.7,1.5-1.6,2.8-2.6,3.8c-1.2,1.1-2.5,1.9-4,2.5c-1.7,0.7-3.4,1-5.2,1h-47.3V5.2z"/>
			<path fill="#FFFFFF" stroke="#FFFFFF" stroke-width="2" stroke-miterlimit="10" d="M357.3,5.2v78.2c0,1.2-0.6,1.8-1.7,1.8H346
				c-0.5,0-0.7,0-0.8,0c-0.2,0-0.5-0.1-0.5-0.5l-38.4-51.1v51.8h-13.7V5.2h11.6c0.1,0,0.4,0.1,0.7,0.1c0.2,0.1,0.5,0.4,0.7,0.7
				l37.7,50.8V5.2H357.3z"/>
			<path fill="#FFFFFF" stroke="#FFFFFF" stroke-width="2" stroke-miterlimit="10" d="M403,85.2h-14.2V19.3h-26V5.2h67.4v2.4
				c0,1.6-0.4,3-0.8,4.4c-0.7,1.5-1.6,2.8-2.6,3.8c-1.2,1.1-2.5,1.9-4,2.5c-1.7,0.7-3.4,1-5.2,1H403V85.2z"/>
			<path fill="#FFFFFF" stroke="#FFFFFF" stroke-width="2" stroke-miterlimit="10" d="M436,5.2h58v14.1h-44.3v17.1h41.2v2.4
				c0,1.6-0.4,3-0.8,4.4c-0.7,1.5-1.6,2.8-2.6,3.8c-1.2,1.1-2.5,1.9-4,2.5c-1.7,0.7-3.4,1-5.2,1h-28.6v20.7h46.2v2.4
				c0,1.6-0.4,3-0.8,4.4c-0.7,1.5-1.6,2.8-2.6,3.8c-1.2,1.1-2.5,1.9-4,2.5c-1.7,0.7-3.4,1-5.2,1H436V5.2z"/>
			<path fill="#FFFFFF" stroke="#FFFFFF" stroke-width="2" stroke-miterlimit="10" d="M506.1,5.2h58v14.1h-44.3v17.1h41.2v2.4
				c0,1.6-0.4,3-0.8,4.4c-0.7,1.5-1.6,2.8-2.6,3.8c-1.2,1.1-2.5,1.9-4,2.5c-1.7,0.7-3.4,1-5.2,1h-28.6v20.7h46.2v2.4
				c0,1.6-0.4,3-0.8,4.4c-0.7,1.5-1.6,2.8-2.6,3.8c-1.2,1.1-2.5,1.9-4,2.5c-1.7,0.7-3.4,1-5.2,1h-47.3V5.2z"/>
			<path fill="#FFFFFF" stroke="#FFFFFF" stroke-width="2" stroke-miterlimit="10" d="M638.4,5.2v78.2c0,1.2-0.6,1.8-1.7,1.8h-9.6
				c-0.5,0-0.7,0-0.8,0c-0.2,0-0.5-0.1-0.5-0.5l-38.4-51.1v51.8h-13.7V5.2h11.6c0.1,0,0.4,0.1,0.7,0.1c0.2,0.1,0.5,0.4,0.7,0.7
				l37.7,50.8V5.2H638.4z"/>
			<path fill="#FFFFFF" stroke="#FFFFFF" stroke-width="2" stroke-miterlimit="10" d="M128.8,205.1h-13.7v-79.9h13.7v31.1h38.3
				v-31.1H181v79.9h-13.9v-41.3c-1,1.9-2.5,3.5-4.4,4.7c-2,1.3-4.3,1.9-7,1.9h-26.9V205.1z"/>
			<path fill="#FFFFFF" stroke="#FFFFFF" stroke-width="2" stroke-miterlimit="10" d="M189.9,125.2h58v14.1h-44.3v17.1h41.2v2.4
				c0,1.6-0.4,3-0.8,4.4c-0.7,1.5-1.6,2.8-2.6,3.8c-1.2,1.1-2.5,1.9-4,2.5c-1.7,0.7-3.4,1-5.2,1h-28.6v20.7h46.2v2.4
				c0,1.6-0.4,3-0.8,4.4c-0.7,1.5-1.6,2.8-2.6,3.8c-1.2,1.1-2.5,1.9-4,2.5c-1.7,0.7-3.4,1-5.2,1h-47.3V125.2z"/>
			<path fill="#FFFFFF" stroke="#FFFFFF" stroke-width="2" stroke-miterlimit="10" d="M308.6,205.2v-34.7c-0.7,2.4-2.2,4.5-4.3,6.1
				c-2.2,1.7-4.8,2.5-7.8,2.5h-26.6v26.1h-14.2v-47.9c0-5.1,0.8-9.7,2.8-14.1c1.7-4.1,4.2-7.8,7.3-10.9c3.1-2.9,6.7-5.3,10.9-7
				c4.1-1.7,8.4-2.5,13-2.5c4.4,0,8.8,0.8,12.8,2.5c4,1.7,7.4,4.1,10.6,7.2c3,3.2,5.4,6.8,7.3,10.9c1.7,4.4,2.6,9,2.6,13.9v47.9
				H308.6z M308.6,159.2c0-3.2-0.5-6.2-1.3-9c-1-2.7-2.3-5-4-6.9c-1.7-1.9-3.7-3.4-6-4.6c-2.4-1-4.9-1.6-7.7-1.6
				c-2.9,0-5.5,0.6-7.9,1.6c-2.4,1.2-4.6,2.7-6.2,4.6c-1.8,1.9-3.1,4.2-4.1,6.9c-1.1,2.8-1.6,5.8-1.6,9v5.7h38.8V159.2z"/>
			<path fill="#FFFFFF" stroke="#FFFFFF" stroke-width="2" stroke-miterlimit="10" d="M379.6,205.2v-17.6c0-1.5-0.2-2.8-0.7-4.1
				c-0.5-1.2-1.2-2.4-2-3.4c-1-1-2-1.7-3.2-2.3c-1.3-0.5-2.6-0.8-4.1-0.8h-5.9h-19.6v28.2h-13.9v-80h33.5c4.8,0,9.2,0.5,13.3,1.2
				c4,0.8,7.4,2.3,10.4,4.2c2.9,2.1,5.2,4.7,6.8,8c1.7,3.4,2.5,7.5,2.5,12.4c0,2.3-0.2,4.2-0.6,5.9c-0.5,1.8-1.2,3.4-1.9,4.8
				c-0.8,1.5-1.8,2.8-2.9,4c-1.2,1.2-2.6,2.4-4.1,3.6l-0.4,0.4c2.2,2.5,4,5.3,5.3,8.2c1.2,3,1.8,6.2,1.8,9.6v17.6H379.6z
				 M363.7,162.9c2.3,0,4.6-0.1,7-0.6c2.2-0.2,4.2-1,6.1-1.9c1.7-0.8,3.1-2.1,4.3-3.6c1.1-1.5,1.7-3.3,1.7-5.7
				c0-2.4-0.5-4.5-1.4-6.1c-1.1-1.5-2.4-2.7-4.1-3.6c-1.8-0.7-3.8-1.3-6.1-1.7c-2.4-0.2-4.8-0.4-7.4-0.4h-19.6v23.6H363.7z"/>
			<path fill="#FFFFFF" stroke="#FFFFFF" stroke-width="2" stroke-miterlimit="10" d="M440.1,205.2H426v-65.9h-26v-14.1h67.4v2.4
				c0,1.6-0.4,3-0.8,4.4c-0.7,1.5-1.6,2.8-2.6,3.8c-1.2,1.1-2.5,1.9-4,2.5c-1.7,0.7-3.4,1-5.2,1h-14.6V205.2z"/>
			<path fill="#FFFFFF" stroke="#FFFFFF" stroke-width="2" stroke-miterlimit="10" d="M470.6,205.2v-14.7h29.5
				c2.4,0,4.6-0.5,6.7-1.6c2-1,3.8-2.3,5.5-4c1.4-1.6,2.8-3.5,3.7-5.7c0.8-2.2,1.3-4.4,1.3-6.8h-39.2c-2.2,0-4.1-0.4-5.8-1.2
				c-1.8-0.7-3.2-1.8-4.4-3.3c-1.3-1.3-2.3-3-2.9-5c-0.7-1.8-1-3.8-1-5.9c0-4.2,0.7-8.4,2.2-12.2c1.4-3.8,3.5-7.2,6.2-10.1
				c2.6-2.9,5.9-5.2,9.6-7c3.6-1.7,7.7-2.5,12.2-2.5h33.4v14.7h-33.4c-2.6,0-4.9,0.5-6.8,1.5c-2,1.1-3.7,2.4-4.9,4
				c-1.4,1.7-2.4,3.6-3,5.7c-0.7,2.2-1.1,4.2-1.1,6.3h39.2c1.9,0,3.8,0.4,5.6,1.1c1.7,0.8,3.2,1.9,4.6,3.3c1.2,1.5,2.2,3,2.9,4.8
				c0.6,1.9,1,3.9,1,6.1c0,4.5-0.8,8.7-2.3,12.6c-1.7,4-3.8,7.4-6.5,10.3c-2.9,3-6,5.3-9.6,7c-3.7,1.8-7.7,2.7-11.9,2.7H470.6z"/>
			<path fill="#FFFFFF" stroke="#FFFFFF" stroke-width="2" stroke-miterlimit="10" d="M69.9,325.2v-80h58v14.1H83.6v17.1h41.2v2.4
				c0,1.6-0.4,3-0.8,4.4c-0.7,1.5-1.6,2.8-2.6,3.8c-1.2,1.1-2.5,1.9-4,2.5c-1.7,0.7-3.4,1-5.2,1H83.6v34.8H69.9z"/>
			<path fill="#FFFFFF" stroke="#FFFFFF" stroke-width="2" stroke-miterlimit="10" d="M136.3,245.2h58v14.1H150v17.1h41.2v2.4
				c0,1.6-0.4,3-0.8,4.4c-0.7,1.5-1.6,2.8-2.6,3.8c-1.2,1.1-2.5,1.9-4,2.5c-1.7,0.7-3.4,1-5.2,1H150v20.7h46.2v2.4
				c0,1.6-0.4,3-0.8,4.4c-0.7,1.5-1.6,2.8-2.6,3.8c-1.2,1.1-2.5,1.9-4,2.5c-1.7,0.7-3.4,1-5.2,1h-47.3V245.2z"/>
			<path fill="#FFFFFF" stroke="#FFFFFF" stroke-width="2" stroke-miterlimit="10" d="M204.9,325.2v-14.7h29.5
				c2.4,0,4.6-0.5,6.7-1.6c2-1,3.8-2.3,5.5-4c1.4-1.6,2.8-3.5,3.7-5.7c0.8-2.2,1.3-4.4,1.3-6.8h-39.2c-2.2,0-4.1-0.4-5.8-1.2
				c-1.8-0.7-3.2-1.8-4.4-3.3c-1.3-1.3-2.3-3-2.9-5c-0.7-1.8-1-3.8-1-5.9c0-4.2,0.7-8.4,2.2-12.2c1.4-3.8,3.5-7.2,6.2-10.1
				c2.6-2.9,5.9-5.2,9.6-7c3.6-1.7,7.7-2.5,12.2-2.5H262v14.7h-33.4c-2.6,0-4.9,0.5-6.8,1.5c-2,1.1-3.7,2.4-4.9,4
				c-1.4,1.7-2.4,3.6-3,5.7c-0.7,2.2-1.1,4.2-1.1,6.3h39.2c1.9,0,3.8,0.4,5.6,1.1c1.7,0.8,3.2,1.9,4.6,3.3c1.2,1.5,2.2,3,2.9,4.8
				c0.6,1.9,1,3.9,1,6.1c0,4.5-0.8,8.7-2.3,12.6c-1.7,4-3.8,7.4-6.5,10.3c-2.9,3-6,5.3-9.6,7c-3.7,1.8-7.7,2.7-11.9,2.7H204.9z"/>
			<path fill="#FFFFFF" stroke="#FFFFFF" stroke-width="2" stroke-miterlimit="10" d="M309.9,325.2h-14.2v-65.9h-26v-14.1h67.4v2.4
				c0,1.6-0.4,3-0.8,4.4c-0.7,1.5-1.6,2.8-2.6,3.8c-1.2,1.1-2.5,1.9-4,2.5c-1.7,0.7-3.4,1-5.2,1h-14.6V325.2z"/>
			<path fill="#FFFFFF" stroke="#FFFFFF" stroke-width="2" stroke-miterlimit="10" d="M342.2,325.1v-79.9h14.4v79.9H342.2z"/>
			<path fill="#FFFFFF" stroke="#FFFFFF" stroke-width="2" stroke-miterlimit="10" d="M362.2,250.2l13.3-5.2l24.2,56.6l24.4-56.6
				l13.4,5.2c-2.4,6.4-4.9,12.7-7.6,18.9c-2.8,6.3-5.5,12.5-8.3,18.5c-2.9,6.3-5.8,12.5-8.4,18.7c-2.8,6.3-5.3,12.6-7.6,18.9h-11.6
				L362.2,250.2z"/>
			<path fill="#FFFFFF" stroke="#FFFFFF" stroke-width="2" stroke-miterlimit="10" d="M491.7,325.2v-34.7c-0.7,2.4-2.2,4.5-4.3,6.1
				c-2.2,1.7-4.8,2.5-7.8,2.5H453v26.1h-14.2v-47.9c0-5.1,0.8-9.7,2.8-14.1c1.7-4.1,4.2-7.8,7.3-10.9c3.1-2.9,6.7-5.3,10.9-7
				c4.1-1.7,8.4-2.5,13-2.5c4.4,0,8.8,0.8,12.8,2.5c4,1.7,7.4,4.1,10.6,7.2c3,3.2,5.4,6.8,7.3,10.9c1.7,4.4,2.6,9,2.6,13.9v47.9
				H491.7z M491.7,279.2c0-3.2-0.5-6.2-1.3-9c-1-2.7-2.3-5-4-6.9c-1.7-1.9-3.7-3.4-6-4.6c-2.4-1-4.9-1.6-7.7-1.6
				c-2.9,0-5.5,0.6-7.9,1.6c-2.4,1.2-4.6,2.7-6.2,4.6c-1.8,1.9-3.1,4.2-4.1,6.9c-1.1,2.8-1.6,5.8-1.6,9v5.7h38.8V279.2z"/>
			<path fill="#FFFFFF" stroke="#FFFFFF" stroke-width="2" stroke-miterlimit="10" d="M515.7,325.2v-80h13.7v65.9h46.9v2.4
				c0,1.6-0.4,3-0.8,4.4c-0.7,1.5-1.6,2.8-2.6,3.8c-1.2,1.1-2.5,1.9-4,2.5c-1.7,0.7-3.4,1-5.2,1H515.7z"/>
		</g>
	</g>
</g>
</svg>
